<?xml version="1.0" encoding="UTF-8" standalone="no"?><!DOCTYPE svg PUBLIC "-//W3C//DTD SVG 1.1//EN" "http://www.w3.org/Graphics/SVG/1.1/DTD/svg11.dtd"><svg width="28px" height="62px" version="1.1" xmlns="http://www.w3.org/2000/svg" xmlns:xlink="http://www.w3.org/1999/xlink" xml:space="preserve" xmlns:serif="http://www.serif.com/" style="fill-rule:evenodd;clip-rule:evenodd;stroke-linejoin:round;stroke-miterlimit:2;"><path id="albania" d="M19.706,14.858l0.091,0.198l-0.09,-0.041l0.143,0.157l0.15,0.328c-0.276,0 -0.5,-0.224 -0.5,-0.5l0,5.882c-0,-0 -0.947,1.894 -0.947,1.894c-0.071,0.141 -0.071,0.307 -0,0.448l0.888,1.776c-0,-0 -0.888,1.776 -0.888,1.776c-0.054,0.107 -0.067,0.229 -0.038,0.345l1,4c0.035,0.142 0.131,0.261 0.261,0.326l1.815,0.908c0,-0 0.935,2.803 0.935,2.803c0.068,0.204 0.259,0.342 0.474,0.342l2.691,0c-0,-0 0.353,0.706 0.353,0.706c0,0 -0.521,1.643 -0.521,1.643c-0.045,0.144 -0.023,0.302 0.061,0.428l1.839,2.759c0,-0 -1.647,3.293 -1.647,3.293c0,0 -1.552,-0.776 -1.552,-0.776c-0.13,-0.065 -0.281,-0.07 -0.415,-0.015c-0.134,0.056 -0.238,0.166 -0.283,0.304l-1,3c-0.007,0.02 -0.012,0.04 -0.016,0.06l-0.943,4.715c-0,0 -2.725,0.909 -2.725,0.909c-0.074,0.024 -0.141,0.066 -0.196,0.12l-2,2c-0.133,0.134 -0.18,0.332 -0.12,0.512l0.917,2.752c-0,-0 -2.559,3.412 -2.559,3.412l-2.446,-1.631l-0.953,-3.812c-0.016,-0.065 -0.045,-0.126 -0.085,-0.179l-3,-4c-0.034,-0.045 -0.075,-0.085 -0.123,-0.116l-5.632,-3.755c-0,-0 0.802,-1.605 0.802,-1.605c0.035,-0.07 0.053,-0.146 0.053,-0.224l0,-3c0,-0.078 -0.018,-0.154 -0.053,-0.224l-0.947,-1.894c0,-0 0,-2.675 0,-2.675c-0,0 1.854,-1.853 1.854,-1.853c0.038,-0.038 0.069,-0.082 0.093,-0.13l1,-2c0.124,-0.247 0.024,-0.548 -0.223,-0.671l-1.553,-0.777c-0,0 0.776,-1.552 0.776,-1.552c0.035,-0.07 0.053,-0.146 0.053,-0.224l0,-3c0,-0.078 -0.018,-0.154 -0.053,-0.224l-0.888,-1.776c0,-0 2.888,-5.776 2.888,-5.776c0.054,-0.107 0.067,-0.229 0.038,-0.345l-1,-4c-0.03,-0.121 -0.104,-0.226 -0.208,-0.295l-2.839,-1.893c0,0 -0.953,-3.812 -0.953,-3.812c-0.009,-0.036 -0.021,-0.07 -0.038,-0.103l-0.839,-1.677c0,-0 1.746,-1.745 1.746,-1.745c0.016,-0.017 0.032,-0.035 0.046,-0.054l3,-4l1.449,-2.172c-0,-0 0.677,2.03 0.677,2.03c0.068,0.204 0.259,0.342 0.474,0.342l2,-0c0.099,-0 0.195,-0.029 0.277,-0.084l2.196,-1.464c-0,0 0.042,0.169 0.042,0.169c0.009,0.036 0.021,0.07 0.038,0.103l2,4c0.048,0.096 0.127,0.175 0.223,0.223l3.766,1.883c-0,-0 1.045,7.424 1.045,7.424l0.119,0.104Z"/></svg>