<?xml version="1.0" encoding="UTF-8" standalone="no"?><!DOCTYPE svg PUBLIC "-//W3C//DTD SVG 1.1//EN" "http://www.w3.org/Graphics/SVG/1.1/DTD/svg11.dtd"><svg width="48px" height="49px" version="1.1" xmlns="http://www.w3.org/2000/svg" xmlns:xlink="http://www.w3.org/1999/xlink" xml:space="preserve" xmlns:serif="http://www.serif.com/" style="fill-rule:evenodd;clip-rule:evenodd;stroke-linejoin:round;stroke-miterlimit:2;"><path id="armenia" d="M26.478,34.647c0.033,-0.108 0.029,-0.225 -0.014,-0.333l-1,-2.5c-0.08,-0.2 -0.279,-0.326 -0.494,-0.313c0,-0 -1.365,0.073 -3.183,1.046c0.005,-0.003 -0.679,0.254 -0.816,0.306l-0.018,0.004c-0.314,0.079 -0.477,-0.029 -0.486,-0.035c-0.024,-0.065 -0.063,-0.125 -0.113,-0.176l-6,-6c-0.094,-0.093 -0.221,-0.146 -0.354,-0.146l-4.904,0c0,0 -4.734,-1.894 -4.734,-1.894c0,0 -2.832,-5.664 -2.832,-5.664c-0,-0 0.942,-3.767 0.942,-3.767c-0,-0 1.975,-3.951 1.975,-3.951c0.074,-0.147 0.07,-0.321 -0.009,-0.465l-2.579,-4.694c-0.025,-0.045 -0.057,-0.086 -0.094,-0.122l-1.515,-1.443c-0,0 2.75,0 2.75,0c0.054,0 0.107,-0.009 0.158,-0.026l2.971,-0.99c-0,0 4.921,-0.984 4.921,-0.984c-0,0 5.95,0 5.95,0c0.041,0 0.082,-0.005 0.121,-0.015l4,-1c0.013,-0.003 0.025,-0.007 0.037,-0.011l2.526,-0.842c-0,0 0.842,2.526 0.842,2.526c0.042,0.126 0.132,0.23 0.25,0.289l0.921,0.46c-0,0 -1.855,0.619 -1.855,0.619c-0.204,0.068 -0.342,0.259 -0.342,0.474c-0,0.215 0.138,0.406 0.342,0.474l3,1c0.051,0.017 0.104,0.026 0.158,0.026l1.882,-0c-0,0 1.822,0.911 1.822,0.911c-0,-0 1.688,1.688 1.688,1.688c-0,-0 -0.803,1.605 -0.803,1.605c0,-0 -1.943,1.942 -1.943,1.942c-0.133,0.134 -0.18,0.332 -0.12,0.512l1,3c0.014,0.042 0.033,0.082 0.058,0.119l2,3c0.048,0.073 0.115,0.131 0.192,0.17l3.928,1.964c-0,-0 1.724,1.724 1.724,1.724c-0,0 -0.865,2.595 -0.865,2.595c-0,-0 -0.716,0.716 -0.716,0.716c-0,0 -3.726,-0.931 -3.726,-0.931c-0.149,-0.037 -0.307,-0.004 -0.429,0.091c-0.121,0.095 -0.192,0.24 -0.192,0.394l0,1.5c0,0.276 0.224,0.5 0.5,0.5l1.661,0c0,-0 0.875,2.186 0.875,2.186c0.037,0.094 0.102,0.174 0.187,0.23l2.87,1.914c0,-0 0.943,2.356 0.943,2.356c0.065,0.162 0.209,0.278 0.382,0.307l3,0.5c0.027,0.005 0.054,0.007 0.082,0.007l1.919,-0c-0,0 2.155,0.719 2.155,0.719c0,-0 -1.428,1.427 -1.428,1.427c-0.023,0.024 -0.044,0.049 -0.062,0.077l-1,1.5c-0.08,0.119 -0.104,0.267 -0.067,0.405c0.037,0.139 0.131,0.255 0.259,0.319l0.882,0.441c-0,-0 1.563,2.345 1.563,2.345c-0,-0 -2.379,0.793 -2.379,0.793c-0.165,0.054 -0.289,0.19 -0.329,0.359c-0.039,0.169 0.011,0.346 0.133,0.469l1.854,1.853c0,0 -0,2.293 -0,2.293c-0,-0 -5.191,-0 -5.191,-0l-0.852,-1.705l-0.957,-2.391c0,-0 0,-2.404 0,-2.404c0,-0.276 -0.224,-0.5 -0.5,-0.5l-0.793,-0c0,0 -1.5,-1.5 -1.5,-1.5c0,-0 0.647,-0.646 0.647,-0.646c0.133,-0.134 0.18,-0.332 0.12,-0.512l-1,-3c-0.087,-0.262 -0.37,-0.404 -0.632,-0.316l-3,1c-0.023,0.007 -0.044,0.016 -0.066,0.027l-1.677,0.839c-0,-0 -1.745,-1.746 -1.745,-1.746c-0.063,-0.062 -0.141,-0.107 -0.226,-0.129c0,-0 -1.14,-0.303 -2.65,-0.87Z"/></svg>