<?xml version="1.0" encoding="UTF-8" standalone="no"?><!DOCTYPE svg PUBLIC "-//W3C//DTD SVG 1.1//EN" "http://www.w3.org/Graphics/SVG/1.1/DTD/svg11.dtd"><svg width="119px" height="61px" version="1.1" xmlns="http://www.w3.org/2000/svg" xmlns:xlink="http://www.w3.org/1999/xlink" xml:space="preserve" xmlns:serif="http://www.serif.com/" style="fill-rule:evenodd;clip-rule:evenodd;stroke-linejoin:round;stroke-miterlimit:2;"><path id="austria" d="M117.3,31.6c-0.052,-0.039 -0.112,-0.068 -0.179,-0.085l-3.981,-0.995c-0,-0 -2.982,-0.994 -2.982,-0.994c-0.18,-0.06 -0.378,-0.013 -0.512,0.12l-2,2c-0.122,0.123 -0.172,0.3 -0.133,0.469c0.04,0.169 0.164,0.305 0.329,0.359l2.803,0.935c0,-0 0.747,1.492 0.747,1.492c-0,0 -1.688,1.688 -1.688,1.688c-0,0 -1.928,0.964 -1.928,0.964c-0.247,0.123 -0.347,0.424 -0.223,0.671l0.888,1.776c-0,-0 -0.888,1.776 -0.888,1.776c-0.071,0.141 -0.071,0.307 -0,0.448l0.947,1.894c0,0 0,2.382 0,2.382c-0,-0 -2.5,-0 -2.5,-0c-0.167,0 -0.323,0.084 -0.416,0.223l-1.905,2.857c0,-0 -2.837,0.946 -2.837,0.946c-0.248,0.082 -0.39,0.342 -0.327,0.595l0.686,2.746c0,-0 -1.924,-1.283 -1.924,-1.283c-0.117,-0.078 -0.262,-0.103 -0.398,-0.069l-4,1c-0.142,0.035 -0.261,0.131 -0.326,0.261l-0.862,1.724c-0,-0 -1.65,0 -1.65,0c0,-0 -5.959,-0.993 -5.959,-0.993c-0.125,-0.021 -0.254,0.007 -0.359,0.077l-3,2c-0.028,0.018 -0.053,0.039 -0.077,0.062l-3.745,3.746c0,-0 -1.677,-0.839 -1.677,-0.839c-0.07,-0.035 -0.146,-0.053 -0.224,-0.053l-3.882,0c0,-0 -1.894,-0.947 -1.894,-0.947c-0.022,-0.011 -0.043,-0.02 -0.066,-0.027l-3,-1c-0.051,-0.017 -0.104,-0.026 -0.158,-0.026l-2.95,0c-0,-0 -4.952,-0.99 -4.952,-0.99c-0.032,-0.007 -0.065,-0.01 -0.098,-0.01l-4.904,0c0,0 -4.91,-1.964 -4.91,-1.964c-0.059,-0.024 -0.122,-0.036 -0.186,-0.036l-4.732,0c-0,-0 -1.852,-2.777 -1.852,-2.777c-0.018,-0.028 -0.039,-0.053 -0.062,-0.077l-1.917,-1.916c0,-0 -0.897,-2.692 -0.897,-2.692c-0,0 0.907,-1.814 0.907,-1.814c0.091,-0.181 0.063,-0.399 -0.069,-0.552c-0.133,-0.152 -0.344,-0.21 -0.536,-0.146l-2.982,0.994c0,-0 -3.981,0.995 -3.981,0.995c-0.013,0.003 -0.025,0.007 -0.037,0.011l-2.862,0.954c0,-0 -3.859,-0.965 -3.859,-0.965c-0.116,-0.029 -0.238,-0.016 -0.345,0.038l-2,1c-0.048,0.024 -0.092,0.055 -0.13,0.093l-2,2c-0.093,0.094 -0.146,0.221 -0.146,0.354l0,1.64c-0,-0 -2.462,0.82 -2.462,0.82c0,0 -1.665,-0.833 -1.665,-0.833c-0,0 -0.926,-1.851 -0.926,-1.851c-0.111,-0.222 -0.369,-0.329 -0.605,-0.25l-2.342,0.78c0,0 0,-1.306 0,-1.306c0,-0.133 -0.053,-0.26 -0.146,-0.354l-1,-1c-0.094,-0.093 -0.221,-0.146 -0.354,-0.146l-1,0c-0.133,0 -0.26,0.053 -0.354,0.146l-1,1c-0.038,0.038 -0.069,0.082 -0.093,0.13l-0.862,1.724c-0,-0 -1.573,0 -1.573,0c0,-0 -3.618,-1.809 -3.618,-1.809c0,-0 0,-0.075 0,-0.075c0.708,-0.62 1.238,-1.422 1.575,-2.319c0.006,-0.014 0.01,-0.028 0.014,-0.042l0.28,-1.009c0.008,-0.027 0.013,-0.055 0.016,-0.084l0.112,-1.112c0.002,-0.016 0.003,-0.033 0.003,-0.05c0,-3.164 -2.265,-5.802 -5.262,-6.358c0,-0 0.209,-0.418 0.209,-0.418c0.071,-0.141 0.071,-0.307 0,-0.448l-0.802,-1.605c-0,0 2.355,-1.57 2.355,-1.57c-0,-0 2.723,1.815 2.723,1.815c0.175,0.117 0.405,0.111 0.575,-0.014c-0,-0 0.287,-0.227 0.598,-0.143c0.246,0.066 0.453,0.328 0.626,0.889c0.632,2.039 1.011,3.03 1.011,3.03c0.006,0.016 0.012,0.031 0.02,0.046l1,2c0.123,0.247 0.424,0.347 0.671,0.223l4,-2c0.169,-0.084 0.276,-0.258 0.276,-0.447l0,-3.5c0,0 2.438,0 2.438,0c0,-0 3.857,0.964 3.857,0.964c-0,0 2.928,1.952 2.928,1.952c0.149,0.1 0.34,0.111 0.501,0.031l5.94,-2.97c-0,0 4.926,-0.985 4.926,-0.985c0,-0 5.992,-0.999 5.992,-0.999c0.103,-0.017 0.198,-0.066 0.272,-0.139l1.781,-1.782c0,0 2.707,0.902 2.707,0.902c0.051,0.017 0.104,0.026 0.158,0.026l4.717,0c-0,-0 2.854,4.757 2.854,4.757c0.101,0.168 0.289,0.261 0.484,0.24c0.194,-0.021 0.358,-0.154 0.419,-0.339l2,-6c0.044,-0.132 0.031,-0.277 -0.036,-0.399c-0.067,-0.122 -0.182,-0.21 -0.317,-0.244l-3.395,-0.849c-0,0 0.721,-1.442 0.721,-1.442c0.064,-0.128 0.07,-0.277 0.017,-0.41l-1.94,-4.85c0,0 0.911,-3.642 0.911,-3.642c-0,0 4.806,-2.883 4.806,-2.883c-0,-0 3.983,-1.992 3.983,-1.992c0.096,-0.048 0.175,-0.127 0.223,-0.223l1.806,-3.613c0,0 2.589,0.863 2.589,0.863c0.136,0.046 0.285,0.03 0.409,-0.042c0.124,-0.072 0.211,-0.193 0.239,-0.334l0.854,-4.268c-0,0 2.337,1.559 2.337,1.559c0,-0 0.965,0.965 0.965,0.965c0.038,0.038 0.082,0.069 0.13,0.093l4,2c0.193,0.096 0.425,0.059 0.578,-0.093l1.781,-1.782c0,0 2.707,0.902 2.707,0.902c0.236,0.079 0.494,-0.028 0.605,-0.25l1.862,-3.724c0,0 2.691,0 2.691,0c0.276,0 0.5,-0.224 0.5,-0.5l0,-5.5c0,0 1.293,0 1.293,0c-0,-0 0.853,0.854 0.853,0.854c0.094,0.093 0.221,0.146 0.354,0.146l1.919,0c-0,0 2.859,0.953 2.859,0.953c0,0 2.945,1.963 2.945,1.963c0.128,0.086 0.289,0.107 0.435,0.058l2.707,-0.902c-0,0 2.781,2.782 2.781,2.782c0.094,0.093 0.221,0.146 0.354,0.146l5,0c0.078,-0 0.154,-0.018 0.224,-0.053l1.894,-0.947c0,0 1.675,0 1.675,0c-0,-0 1.853,1.854 1.853,1.854c0.094,0.093 0.221,0.146 0.354,0.146l1.691,0c-0,0 0.809,1.618 0.809,1.618c0,0 0,2.764 0,2.764c-0,-0 -0.947,1.894 -0.947,1.894c-0.035,0.07 -0.053,0.146 -0.053,0.224l0,2c0,0.078 0.018,0.154 0.053,0.224l0.984,1.968c-0,-0 0.989,2.966 0.989,2.966c0.042,0.126 0.132,0.23 0.25,0.289l1.724,0.862c0,0 0,1.61 0,1.61c-0,-0 -0.974,2.923 -0.974,2.923c-0.027,0.081 -0.033,0.168 -0.017,0.252c-0,0 0.369,1.918 0,3.81c-0.054,0.28 -0.144,0.535 -0.209,0.696Z"/></svg>