<?xml version="1.0" encoding="UTF-8" standalone="no"?><!DOCTYPE svg PUBLIC "-//W3C//DTD SVG 1.1//EN" "http://www.w3.org/Graphics/SVG/1.1/DTD/svg11.dtd"><svg width="86px" height="73px" version="1.1" xmlns="http://www.w3.org/2000/svg" xmlns:xlink="http://www.w3.org/1999/xlink" xml:space="preserve" xmlns:serif="http://www.serif.com/" style="fill-rule:evenodd;clip-rule:evenodd;stroke-linejoin:round;stroke-miterlimit:2;"><path id="azerbaijan" d="M14.279,40.085l1.6,0.4c0.17,0.043 0.35,-0.007 0.475,-0.131l1,-1c0.054,-0.055 0.096,-0.122 0.12,-0.196l1,-3c0.06,-0.18 0.013,-0.378 -0.12,-0.512l-2,-2c-0.038,-0.038 -0.082,-0.069 -0.13,-0.093l-3.882,-1.941c0,0 -1.889,-2.834 -1.889,-2.834c0,0 -0.881,-2.643 -0.881,-2.643c0,0 1.782,-1.781 1.782,-1.781c0.038,-0.038 0.069,-0.082 0.093,-0.13l1,-2c0.096,-0.193 0.059,-0.425 -0.093,-0.578l-2,-2c-0.038,-0.038 -0.082,-0.069 -0.13,-0.093l-2,-1c-0.07,-0.035 -0.146,-0.053 -0.224,-0.053l-1.919,0c0,-0 -1.5,-0.5 -1.5,-0.5c0,0 1.577,-0.526 1.577,-0.526c0.192,-0.064 0.326,-0.237 0.341,-0.439c0.014,-0.201 -0.095,-0.392 -0.275,-0.482l-1.815,-0.908c-0,0 -0.798,-2.392 -0.798,-2.392c0,0 3.507,-1.753 3.507,-1.753c0,0 2.801,-0 2.801,-0c-0,0 2.726,0.909 2.726,0.909c0,-0 0.908,1.815 0.908,1.815c0.065,0.13 0.184,0.226 0.326,0.261l4,1c0.007,0.002 0.015,0.004 0.023,0.005l4.934,0.987l3.94,1.97c0.136,0.068 0.295,0.071 0.433,0.007c0.138,-0.063 0.239,-0.186 0.276,-0.333l1,-4c0.023,-0.092 0.019,-0.189 -0.011,-0.279l-1,-3c-0.024,-0.074 -0.066,-0.141 -0.12,-0.196l-4.854,-4.853c0,-0 0,-1.484 0,-1.484c0,0 1.724,-0.862 1.724,-0.862c0.096,-0.048 0.175,-0.127 0.223,-0.223l0.926,-1.851c-0,-0 1.377,-0.689 1.377,-0.689c-0,0 0.791,1.84 0.791,1.84c0.079,0.184 0.259,0.303 0.459,0.303l1.818,-0c0,-0 1.844,1.542 1.844,1.542c0,0 5.838,5.838 5.838,5.838c0,0 0,2.793 0,2.793c0,0.204 0.124,0.388 0.314,0.464l5,2c0.059,0.024 0.122,0.036 0.186,0.036l4,-0c0.099,-0 0.195,-0.029 0.277,-0.084l3,-2c0.048,-0.031 0.089,-0.071 0.123,-0.116l2.929,-3.906c0,0 3.895,-1.947 3.895,-1.947c0.105,-0.053 0.189,-0.141 0.236,-0.25l1.683,-3.934c0,0 3.437,4.016 3.437,4.016c0,-0 1.973,3.945 1.973,3.945c0.009,0.018 0.019,0.036 0.031,0.053l1.971,2.957c0,0 1.981,4.952 1.981,4.952c0.016,0.04 0.038,0.079 0.064,0.114l2.992,3.989c-0,-0 1.992,2.988 1.992,2.988c0.048,0.073 0.115,0.131 0.192,0.17l4,2c0.022,0.011 0.043,0.02 0.066,0.027l3,1c0.012,0.004 0.024,0.008 0.037,0.011l3.733,0.933c0,0 0.694,2.082 0.694,2.082c0,-0 -1.244,-0 -1.244,-0c-0,0 -3.941,-0.985 -3.941,-0.985c-0.116,-0.029 -0.238,-0.016 -0.345,0.038l-6,3c-0.109,0.055 -0.195,0.148 -0.24,0.261l-1,2.5c-0.01,0.025 -0.018,0.051 -0.024,0.078l-0.999,4.493c0,0 -0.985,3.94 -0.985,3.94c0,0 -0.975,1.951 -0.975,1.951c-0.035,0.07 -0.053,0.146 -0.053,0.224l-0,2c-0,0.054 0.009,0.107 0.026,0.158l0.902,2.707c-0,-0 -0.782,0.781 -0.782,0.781c-0.054,0.055 -0.096,0.122 -0.12,0.196l-1.526,4.577c0,-0 -0.526,-1.577 -0.526,-1.577c-0.068,-0.204 -0.259,-0.342 -0.474,-0.342l-2,-0c-0.078,-0 -0.154,0.018 -0.224,0.053l-1,0.5c-0.169,0.084 -0.276,0.258 -0.276,0.447l-0,4.382c-0,-0 -0.947,1.894 -0.947,1.894c-0.035,0.07 -0.053,0.146 -0.053,0.224l-0,6.266c0,-0 -2.416,2.013 -2.416,2.013c0,-0 -2.684,-3.579 -2.684,-3.579c-0.094,-0.126 -0.243,-0.2 -0.4,-0.2l-2.64,-0c0,-0 -0.886,-2.658 -0.886,-2.658c-0.042,-0.126 -0.132,-0.23 -0.25,-0.289l-1.815,-0.908c-0,0 -0.715,-2.145 -0.715,-2.145c-0,-0 1.306,-0 1.306,-0c0.099,-0 0.195,-0.029 0.277,-0.084l3,-2c0.139,-0.093 0.223,-0.249 0.223,-0.416l-0,-2.5c0,-0.244 -0.177,-0.453 -0.418,-0.493l-2.582,-0.431c-0,0 -0,-1.308 -0,-1.308c0,-0 2.777,-1.852 2.777,-1.852c0.197,-0.131 0.275,-0.382 0.187,-0.602l-2,-5c-0.037,-0.094 -0.102,-0.174 -0.187,-0.23l-3,-2c-0.082,-0.055 -0.178,-0.084 -0.277,-0.084l-2,-0c-0.099,-0 -0.195,0.029 -0.277,0.084l-2.974,1.983c-0,-0 -3.973,1.986 -3.973,1.986c-0.026,0.013 -0.052,0.029 -0.076,0.047l-4,3c-0.019,0.014 -0.037,0.03 -0.054,0.046l-2.942,2.943c-0,0 -1.928,0.964 -1.928,0.964c-0.034,0.017 -0.066,0.038 -0.096,0.063l-5.18,4.316c-0,0 -0,-1.932 -0,-1.932c0,-0.133 -0.053,-0.26 -0.146,-0.354l-1.428,-1.427c-0,-0 2.232,-0.745 2.232,-0.745c0.148,-0.049 0.264,-0.164 0.315,-0.312c0.051,-0.147 0.029,-0.31 -0.057,-0.439l-2,-3c-0.048,-0.073 -0.115,-0.131 -0.192,-0.17l-0.494,-0.247c0,0 0.659,-0.987 0.659,-0.987c-0,-0 1.965,-1.965 1.965,-1.965c0.122,-0.123 0.172,-0.3 0.133,-0.469c-0.04,-0.169 -0.164,-0.305 -0.329,-0.359l-3,-1c-0.051,-0.017 -0.104,-0.026 -0.158,-0.026l-1.959,-0c0,-0 -2.681,-0.447 -2.681,-0.447c-0,0 -0.896,-2.239 -0.896,-2.239c-0.037,-0.094 -0.102,-0.174 -0.187,-0.23l-2.87,-1.914c-0,0 -0.943,-2.356 -0.943,-2.356c-0.038,-0.095 -0.103,-0.174 -0.185,-0.229Zm-10.011,6.933c-0.064,0.013 -0.12,0.029 -0.163,0.048c-0.181,0.078 -0.276,0.207 -0.32,0.328c-0.046,0.123 -0.054,0.264 0.018,0.42c0.034,0.074 0.1,0.176 0.242,0.278c0.121,0.088 0.359,0.214 0.775,0.374c1.397,0.541 2.546,0.876 2.921,0.981c-0.001,0 1.905,1.907 1.905,1.907c0.153,0.152 0.385,0.189 0.578,0.093l1.968,-0.984c-0,0 2.492,-0.831 2.492,-0.831c-0,0 0.744,2.233 0.744,2.233c-0,-0 -0.782,0.781 -0.782,0.781c-0.195,0.196 -0.195,0.512 0,0.708l2,2c0.094,0.093 0.221,0.146 0.354,0.146l0.5,-0c-0,-0 -0,2 -0,2c-0,0.064 0.012,0.127 0.036,0.186l1,2.5c0.005,0.013 0.011,0.025 0.017,0.038l0.638,1.276c-0,-0 -2.11,-0 -2.11,-0c0,-0 -2.923,-0.974 -2.923,-0.974c-0.051,-0.017 -0.104,-0.026 -0.158,-0.026l-2.882,-0c0,-0 -1.709,-0.855 -1.709,-0.855c-0,0 -0.935,-2.803 -0.935,-2.803c-0.068,-0.204 -0.259,-0.342 -0.474,-0.342l-0.691,-0c0,-0 -0.862,-1.724 -0.862,-1.724c-0.039,-0.077 -0.097,-0.144 -0.17,-0.192l-2.916,-1.945c-0,0 -1.897,-2.845 -1.897,-2.845l-0.795,-3.135l0.507,-0.191c0.021,-0.008 0.041,-0.017 0.061,-0.028c1.08,-0.581 1.976,-0.807 2.444,-0.892l0.587,1.47Zm9.67,-7.018l-1.438,-0c-0,0 -0,-0.36 -0,-0.36l1.438,0.36Z"/></svg>