<?xml version="1.0" encoding="UTF-8" standalone="no"?><!DOCTYPE svg PUBLIC "-//W3C//DTD SVG 1.1//EN" "http://www.w3.org/Graphics/SVG/1.1/DTD/svg11.dtd"><svg width="150px" height="130px" version="1.1" xmlns="http://www.w3.org/2000/svg" xmlns:xlink="http://www.w3.org/1999/xlink" xml:space="preserve" xmlns:serif="http://www.serif.com/" style="fill-rule:evenodd;clip-rule:evenodd;stroke-linejoin:round;stroke-miterlimit:2;"><path id="belarus" d="M104.019,124.479l-0.039,-0.013l-0.036,-0.089l-0.062,0.056l-2.724,-0.907c-0.18,-0.06 -0.378,-0.013 -0.512,0.12l-2.568,2.569c-0,0 -1.662,-2.492 -1.662,-2.492c-0.031,-0.048 -0.071,-0.089 -0.116,-0.123l-4,-3c-0.12,-0.09 -0.275,-0.122 -0.421,-0.085l-4,1c-0.179,0.045 -0.319,0.185 -0.364,0.364l-0.672,2.688c-0,0 -1.396,-2.791 -1.396,-2.791c-0.111,-0.222 -0.369,-0.329 -0.605,-0.25l-2.707,0.902c0,-0 -2.781,-2.782 -2.781,-2.782c-0.143,-0.143 -0.359,-0.185 -0.545,-0.108c-0.187,0.077 -0.309,0.26 -0.309,0.462l0,2.306c-0,0 -5.342,-1.78 -5.342,-1.78c-0.236,-0.079 -0.494,0.028 -0.605,0.25l-1.46,2.921c-0,-0 -0.619,-1.855 -0.619,-1.855c-0.058,-0.176 -0.209,-0.305 -0.392,-0.335l-5.802,-0.967c-0,-0 -2.88,-3.84 -2.88,-3.84c-0.121,-0.161 -0.326,-0.234 -0.521,-0.185l-3.786,0.946c0,0 -2.816,-1.877 -2.816,-1.877c-0.047,-0.032 -0.1,-0.055 -0.156,-0.069l-8,-2c-0.007,-0.002 -0.015,-0.004 -0.023,-0.005l-5,-1c-0.032,-0.007 -0.065,-0.01 -0.098,-0.01l-10,-0c-0.033,-0 -0.066,0.003 -0.098,0.01l-4.952,0.99c0,0 -7.95,-0 -7.95,-0c-0.229,-0 -0.429,0.156 -0.485,0.379l-0.944,3.777c-0,-0 -5.689,2.844 -5.689,2.844l-5.109,0l0.059,-0.144l0.302,-0.862c0,0 0.312,-0.865 0.312,-0.865l-0.007,0.015l0.079,-0.249l0.383,-1.634c-0,0 0.252,-1.05 0.252,-1.05l-0.006,0.022l0.036,-0.188l0.218,-1.656c0.059,-0.604 0.094,-1.234 0.099,-1.885c0.013,-1.643 -0.184,-2.681 -0.451,-3.332c-0.245,-0.597 -0.562,-0.914 -0.858,-1.086c-0.345,-0.201 -0.684,-0.219 -0.945,-0.181l0.012,0.161l-0.087,-0.069l-0.011,-0.071l-0.056,0.017l-4.469,-3.576c-0,0 2.573,-4.89 2.573,-4.89c-0,0 4.058,-2.554 4.058,-2.554c0.032,-0.02 0.061,-0.043 0.088,-0.069l4,-4c0.093,-0.094 0.146,-0.221 0.146,-0.354l0,-11c0,-0.07 -0.015,-0.139 -0.043,-0.203l-3.974,-8.942c-0,0 -1.864,-11.185 -1.864,-11.185c-0,0 3.26,0.815 3.26,0.815c0.066,0.017 0.136,0.019 0.203,0.008l5.878,-0.979c-0,-0 2.882,0.96 2.882,0.96c0.074,0.025 0.152,0.032 0.229,0.021l7,-1c0.246,-0.035 0.429,-0.246 0.429,-0.495l0,-4.5c0,-0 3.5,-0 3.5,-0c0.157,0 0.306,-0.074 0.4,-0.2l2.85,-3.8c-0,-0 3.25,-0 3.25,-0c0,0 0,2.5 0,2.5c0,0.229 0.156,0.429 0.379,0.485l4,1c0.149,0.037 0.307,0.004 0.429,-0.091c0.121,-0.095 0.192,-0.24 0.192,-0.394l0,-4c0,-0.133 -0.053,-0.26 -0.146,-0.354l-1.8,-1.799c-0,-0 0.931,-3.726 0.931,-3.726c0.002,-0.007 0.004,-0.015 0.005,-0.023l1,-5c0.007,-0.032 0.01,-0.065 0.01,-0.098l-0,-3.793c0,0 2.77,-2.77 2.77,-2.77c0,0 2.888,-0.963 2.888,-0.963c0.14,-0.046 0.252,-0.152 0.306,-0.288l1.854,-4.635c0,-0 6.611,0.944 6.611,0.944c0.144,0.02 0.289,-0.022 0.399,-0.117c0.109,-0.095 0.172,-0.233 0.172,-0.378l0,-2.849c0,0 1.916,-2.874 1.916,-2.874c0.102,-0.153 0.112,-0.35 0.025,-0.513c-0.087,-0.163 -0.257,-0.264 -0.441,-0.264l-4.39,-0c-0,-0 0.878,-4.39 0.878,-4.39c-0,-0 0.941,-3.766 0.941,-3.766c0,0 3.795,-1.897 3.795,-1.897c0.118,-0.059 0.208,-0.163 0.25,-0.289l0.818,-2.453c0,0 1.484,0.742 1.484,0.742c0.022,0.011 0.043,0.02 0.066,0.027l3,1c0.18,0.06 0.378,0.013 0.512,-0.12l0.853,-0.854c0,-0 0.712,-0 0.712,-0c-0,0 2.923,0.974 2.923,0.974c0.262,0.088 0.545,-0.054 0.632,-0.316l0.963,-2.888c0,0 0.917,-0.916 0.917,-0.916c0.038,-0.038 0.069,-0.082 0.093,-0.13l1.941,-3.882c-0,0 2.763,-1.842 2.763,-1.842c0,0 2.349,-0 2.349,-0c-0,0 0,2.5 0,2.5c0,0.173 0.09,0.334 0.237,0.425c0.148,0.091 0.332,0.1 0.487,0.022l3.776,-1.888c-0,0 1.704,0.852 1.704,0.852c-0,-0 2.942,2.943 2.942,2.943c0.153,0.152 0.385,0.189 0.578,0.093l3.776,-1.888c0,0 5.418,2.709 5.418,2.709c-0,-0 -0.903,3.611 -0.903,3.611c-0.034,0.136 -0.009,0.281 0.069,0.398l2,3c0.148,0.222 0.444,0.289 0.673,0.152l4.984,-2.99c-0,-0 3.797,-1.899 3.797,-1.899c0,-0 5.752,1.917 5.752,1.917c-0,-0 4.943,2.966 4.943,2.966c-0,-0 2.767,1.845 2.767,1.845c0,-0 0,3.682 0,3.682c-0,0 -0.99,4.952 -0.99,4.952c-0.019,0.095 -0.01,0.194 0.026,0.284l0.964,2.41c0,0 0,5.3 0,5.3c0,-0 -1.958,4.5 -1.958,4.5c-0.08,0.182 -0.044,0.393 0.091,0.539l4.867,5.261c0,-0 0,2.804 0,2.804c0,0.068 0.014,0.135 0.04,0.197l3,7c0.062,0.144 0.187,0.25 0.339,0.288l3.836,0.959c0,0 3.755,4.694 3.755,4.694c0,0 -0.963,5.78 -0.963,5.78c-0.024,0.145 0.016,0.293 0.111,0.405c0.095,0.112 0.235,0.177 0.382,0.177l4.897,-0c0,-0 6.354,2.723 6.354,2.723c-0,-0 -1.667,2.5 -1.667,2.5c-0.08,0.119 -0.104,0.267 -0.067,0.405c0.037,0.139 0.131,0.255 0.259,0.319l3.795,1.897c-0,0 0.863,3.455 0.863,3.455c0,0 -7.601,5.701 -7.601,5.701c0,-0 -5.715,-0 -5.715,-0c0,-0 -3.894,-1.947 -3.894,-1.947c-0.141,-0.071 -0.307,-0.071 -0.448,-0l-4,2c-0.118,0.059 -0.208,0.163 -0.25,0.289l-0.516,1.546c-0.051,0.154 -0.025,0.324 0.071,0.454l6.827,9.299l9.592,13.023c-0,0 0,1.476 0,1.476c-0,-0 -5.515,1.838 -5.515,1.838c0,-0 -9.17,-2.487 -9.17,-2.487c-0.207,-0.057 -0.427,0.026 -0.546,0.205l-1.537,2.304c0,-0 -4.732,-0 -4.732,-0c-0.157,-0 -0.306,0.074 -0.4,0.2l-3,4c-0.029,0.038 -0.051,0.08 -0.068,0.124l-3,8c-0.033,0.088 -0.041,0.183 -0.022,0.274l0.974,4.87c-0,-0 -0.703,2.106 -0.703,2.106c0,0 -2.427,-2.428 -2.427,-2.428c-0.009,-0.008 -0.017,-0.015 -0.025,-0.023c-0,0 -2.697,-2.342 -5.183,-3.101c-0.017,-0.005 -0.033,-0.009 -0.05,-0.013l-0.861,-0.167c-0.035,-0.007 -0.07,-0.01 -0.105,-0.009l-0.777,0.014c-0.017,0 -0.034,0.001 -0.051,0.004c-1.094,0.133 -1.908,0.661 -2.328,1l0.045,0.128Zm0.135,0.382l-0.035,-0.097l-0.006,0.038l0.028,0.07l0.013,-0.011Zm-98.154,-5.992l-0.069,-0.098l-0.01,-0.002l0.079,0.1Zm-0.717,-10.958l-0.013,-0.18l-0.042,0.118l0.013,0.075l0.042,-0.013Z"/></svg>