<?xml version="1.0" encoding="UTF-8" standalone="no"?><!DOCTYPE svg PUBLIC "-//W3C//DTD SVG 1.1//EN" "http://www.w3.org/Graphics/SVG/1.1/DTD/svg11.dtd"><svg width="61px" height="49px" version="1.1" xmlns="http://www.w3.org/2000/svg" xmlns:xlink="http://www.w3.org/1999/xlink" xml:space="preserve" xmlns:serif="http://www.serif.com/" style="fill-rule:evenodd;clip-rule:evenodd;stroke-linejoin:round;stroke-miterlimit:2;"><path id="belgium" d="M27.5,5.75l1.8,-1.35c0.081,-0.061 0.142,-0.145 0.174,-0.242l0.886,-2.658c0,-0 1.433,-0 1.433,-0c-0,-0 0.853,0.854 0.853,0.854c0.169,0.168 0.433,0.194 0.631,0.062l2.223,-1.482c0,0 0,1.066 0,1.066c0,0.276 0.224,0.5 0.5,0.5l2,-0c0.133,0 0.26,-0.053 0.354,-0.146l0.853,-0.854c0,-0 0.293,-0 0.293,-0c-0,0 0,1.5 0,1.5c0,0.078 0.018,0.154 0.053,0.224l1,2c0.084,0.169 0.258,0.276 0.447,0.276l0.793,0c-0,-0 0.853,0.854 0.853,0.854c0.094,0.093 0.221,0.146 0.354,0.146l3,0c0.133,0 0.26,-0.053 0.354,-0.146l0.853,-0.854c0,0 0.293,0 0.293,0c0,0 0,1.5 0,1.5c0,0.189 0.107,0.363 0.276,0.447l3.553,1.777c0,-0 -0.776,1.552 -0.776,1.552c-0.067,0.133 -0.071,0.288 -0.011,0.424c-0,0 0.358,0.813 0.003,1.593c-0.373,0.819 -0.823,1.668 -0.95,1.904c-0,0.001 -0.949,0.949 -0.949,0.949c-0.093,0.094 -0.146,0.221 -0.146,0.354l0,2c0,0.081 0.02,0.16 0.057,0.232c0,0 0.821,1.56 2.529,1.26c1.281,-0.224 2.843,0.003 2.843,0.003c0.023,0.003 0.047,0.005 0.071,0.005l0.793,0c-0,-0 1.853,1.854 1.853,1.854c0.038,0.038 0.082,0.069 0.13,0.093l1.494,0.747c-0,-0 -1.686,2.529 -1.686,2.529c-0.102,0.153 -0.112,0.35 -0.025,0.513c0.087,0.163 0.257,0.264 0.441,0.264l2.59,0c0,-0 0.854,4.27 0.854,4.27c0,-0 -2.721,1.814 -2.721,1.814c-0.104,0.069 -0.178,0.174 -0.208,0.295l-0.155,0.621c-0,0 -3.36,0 -3.36,0c-0.133,0 -0.26,0.053 -0.354,0.146l-2,2c-0.054,0.055 -0.096,0.122 -0.12,0.196l-2,6c-0.049,0.146 -0.028,0.307 0.058,0.435l1.916,2.874c0,0 0,2.642 0,2.642c0,-0 -0.796,0.796 -0.796,0.796c-0,0 -1.822,0.911 -1.822,0.911c-0,0 -2.573,-0 -2.573,-0c0,0 -1.862,-3.724 -1.862,-3.724c-0.084,-0.169 -0.258,-0.276 -0.447,-0.276l-1.691,-0c0,-0 -0.862,-1.724 -0.862,-1.724c-0.048,-0.096 -0.127,-0.175 -0.223,-0.223l-2,-1c-0.07,-0.035 -0.146,-0.053 -0.224,-0.053l-1.5,-0c0,-0 0,-1.5 0,-1.5c0,-0.078 -0.018,-0.154 -0.053,-0.224l-0.947,-1.894c0,-0 0,-1.764 0,-1.764c0,0 0.947,-1.894 0.947,-1.894c0.124,-0.247 0.024,-0.548 -0.223,-0.671l-2,-1c-0.247,-0.124 -0.548,-0.024 -0.671,0.223l-1.926,3.851c0,0 -1.745,0.873 -1.745,0.873c-0,-0 -3.675,-0 -3.675,-0c0,0 -0.599,-0.599 -0.599,-0.599c0,0 0.839,-1.677 0.839,-1.677c0.096,-0.193 0.059,-0.425 -0.093,-0.578l-1.647,-1.646c0,-0 0.647,-0.646 0.647,-0.646c0.195,-0.196 0.195,-0.512 -0,-0.708l-0.854,-0.853c0,-0 0,-0.793 0,-0.793c0,-0.133 -0.053,-0.26 -0.146,-0.354l-1,-1c-0.065,-0.064 -0.145,-0.109 -0.233,-0.131l-4,-1c-0.116,-0.029 -0.238,-0.016 -0.345,0.038l-1.276,0.638c0,-0 0,-2.191 0,-2.191c0,-0.133 -0.053,-0.26 -0.146,-0.354l-1,-1c-0.094,-0.093 -0.221,-0.146 -0.354,-0.146l-2.882,-0c0,-0 -1.822,-0.911 -1.822,-0.911c0,0 -0.796,-0.796 -0.796,-0.796c0,-0 0,-2.793 0,-2.793c0,-0.078 -0.018,-0.154 -0.053,-0.224l-1,-2c-0.084,-0.169 -0.258,-0.276 -0.447,-0.276l-2,-0c-0.078,-0 -0.154,0.018 -0.224,0.053l-2,1c-0.048,0.024 -0.092,0.055 -0.13,0.093l-0.509,0.51c-0,-0 -0.69,-1.38 -0.69,-1.38c-0.048,-0.096 -0.127,-0.175 -0.223,-0.223l-1.928,-0.964c0,0 -0.796,-0.796 -0.796,-0.796c0,-0 0,-1.793 0,-1.793c0,-0.133 -0.053,-0.26 -0.146,-0.354l-0.854,-0.853c0,-0 0,-2.484 0,-2.484c0,0 1.724,-0.862 1.724,-0.862c0.018,-0.009 0.036,-0.019 0.053,-0.031l2.945,-1.963c-0,0 2.936,-0.979 2.936,-0.979c0.035,-0.011 0.068,-0.026 0.099,-0.045l4.243,-2.546c-0,0 0,2.117 0,2.117c0,0.276 0.224,0.5 0.5,0.5l4.882,-0c-0,0 1.894,0.947 1.894,0.947c0.07,0.035 0.146,0.053 0.224,0.053l2,-0c0.033,-0 0.066,-0.003 0.098,-0.01l5,-1l-0.098,0.01c0,0 0.5,-0.05 0.5,-0.511l0,-0.239Z"/></svg>