<?xml version="1.0" encoding="UTF-8" standalone="no"?><!DOCTYPE svg PUBLIC "-//W3C//DTD SVG 1.1//EN" "http://www.w3.org/Graphics/SVG/1.1/DTD/svg11.dtd"><svg width="61px" height="60px" version="1.1" xmlns="http://www.w3.org/2000/svg" xmlns:xlink="http://www.w3.org/1999/xlink" xml:space="preserve" xmlns:serif="http://www.serif.com/" style="fill-rule:evenodd;clip-rule:evenodd;stroke-linejoin:round;stroke-miterlimit:2;"><path id="bosnia_herzegovina" d="M6.822,20.534c0.042,-0.02 0.094,-0.031 0.161,-0.034c0.005,0 0.036,-0.002 0.087,0.005c0.03,0.005 0.078,0.014 0.135,0.045c0.032,0.017 0.14,0.137 0.14,0.137c0,0 -0.033,-0.208 -0.019,-0.461c0,-0.009 0.34,-2.319 0.34,-2.319c0.002,-0.013 0.003,-0.026 0.004,-0.039c0.09,-1.329 -0.524,-1.352 -0.587,-1.362l-0.083,-0.006l-1.5,-0c0,0 0,-0.5 0,-0.5c0,-0.099 -0.029,-0.195 -0.084,-0.277l-2,-3c-0.093,-0.139 -0.249,-0.223 -0.416,-0.223l-1.691,0c0,-0 -0.809,-1.618 -0.809,-1.618c0,-0 -0,-2.801 -0,-2.801c0,0 0.974,-2.923 0.974,-2.923c0.037,-0.111 0.034,-0.231 -0.008,-0.34c-0.287,-0.735 -0.352,-1.267 -0.192,-1.658c0.134,-0.328 0.431,-0.522 0.809,-0.659c0.002,-0.001 2.649,-0.001 2.649,-0.001c0,0 1.852,2.777 1.852,2.777c0.048,0.073 0.115,0.131 0.192,0.17l2,1c0.247,0.124 0.548,0.024 0.671,-0.223l0.964,-1.928c-0,0 1.796,-1.796 1.796,-1.796c0,0 4.793,0 4.793,0c0.276,0 0.5,-0.224 0.5,-0.5l0,-1.5c0,0 1.293,0 1.293,0c-0,-0 1.853,1.854 1.853,1.854c0.094,0.093 0.221,0.146 0.354,0.146l1.919,0c-0,0 2.889,0.963 2.889,0.963c0,0 1.968,0.984 1.968,0.984c0.141,0.071 0.307,0.071 0.448,0l1.894,-0.947c0,0 1.675,0 1.675,0c-0,-0 1.853,1.854 1.853,1.854c0.196,0.195 0.512,0.195 0.708,-0l1.745,-1.746c-0,0 1.677,0.839 1.677,0.839c0.141,0.071 0.307,0.071 0.448,0l1.74,-0.87c0,-0 2.759,1.839 2.759,1.839c0.082,0.055 0.178,0.084 0.277,0.084l2.793,0c-0,-0 3.853,3.854 3.853,3.854c0.094,0.093 0.221,0.146 0.354,0.146l2,0c0.078,0 0.154,-0.018 0.224,-0.053l1.814,-0.907c0,-0 1.905,0.635 1.905,0.635c0,-0 0.458,0.174 0.458,0.174c-0,0 0.099,0.218 0.099,0.218c0,0 0,2.282 0,2.282c-0,-0 -1.916,2.874 -1.916,2.874c-0.032,0.047 -0.055,0.1 -0.069,0.156l-1,4c-0.01,0.039 -0.015,0.08 -0.015,0.121l0,3c0,0.189 0.107,0.363 0.276,0.447l1.928,0.964c-0,-0 4.37,4.37 4.37,4.37c0,0 -2.155,0.719 -2.155,0.719c-0,0 -1.919,0 -1.919,0c-0.276,0 -0.5,0.224 -0.5,0.5l0,2c0,0.133 0.053,0.26 0.146,0.354l1.965,1.965c0,-0 1.812,2.717 1.812,2.717c0,-0 -0.676,1.353 -0.676,1.353c-0,-0 -2.589,-0.863 -2.589,-0.863c-0.18,-0.06 -0.378,-0.013 -0.512,0.12l-1.853,1.854c-0,0 -2.793,0 -2.793,0c-0.133,0 -0.26,0.053 -0.354,0.146l-1,1c-0.175,0.176 -0.195,0.455 -0.046,0.654l2.329,3.106l-1.705,-0.853c-0.07,-0.035 -0.146,-0.053 -0.224,-0.053l-2,0c-0.189,0 -0.363,0.107 -0.447,0.276l-2,4c-0.035,0.07 -0.053,0.146 -0.053,0.224l0,2.5c-0,-0 -1.5,0 -1.5,0c-0.133,0 -0.26,0.053 -0.354,0.146l-1,1c-0.093,0.094 -0.146,0.221 -0.146,0.354l0,1c-0,0.133 0.053,0.26 0.146,0.354l0.647,0.646c-0,0 -0.647,0.646 -0.647,0.646c-0.133,0.134 -0.18,0.332 -0.12,0.512l1,3c0.024,0.074 0.066,0.141 0.12,0.196l0.51,0.509c-0,0 -1.38,0.69 -1.38,0.69c-0.048,0.024 -0.092,0.055 -0.13,0.093l-0.646,0.647c-0,-0 -1.646,-1.647 -1.646,-1.647c-0.024,-0.023 -0.049,-0.044 -0.077,-0.062l-2.988,-1.992c-0,-0 -3.989,-2.992 -3.989,-2.992c-0.024,-0.018 -0.05,-0.034 -0.076,-0.047l-1.815,-0.908c-0,0 -0.935,-2.803 -0.935,-2.803c-0.024,-0.074 -0.066,-0.141 -0.12,-0.196l-3.917,-3.916c0,-0 -0.963,-2.888 -0.963,-2.888c-0.007,-0.023 -0.016,-0.044 -0.027,-0.066l-1,-2c-0.084,-0.169 -0.258,-0.276 -0.447,-0.276l-1.732,-0c-0,-0 -1.852,-2.777 -1.852,-2.777c-0.037,-0.055 -0.084,-0.102 -0.139,-0.139l-2.916,-1.945c-0,0 -1.945,-2.916 -1.945,-2.916c-0.018,-0.028 -0.039,-0.053 -0.062,-0.077l-4.965,-4.965c-0,0 -1.936,-2.903 -1.936,-2.903c0,0 -0.979,-2.936 -0.979,-2.936l-0.36,0.5l-0.114,-0.342c0,-0 -0.156,0.008 -0.178,-0.466Z"/></svg>