<?xml version="1.0" encoding="UTF-8" standalone="no"?><!DOCTYPE svg PUBLIC "-//W3C//DTD SVG 1.1//EN" "http://www.w3.org/Graphics/SVG/1.1/DTD/svg11.dtd"><svg width="99px" height="63px" version="1.1" xmlns="http://www.w3.org/2000/svg" xmlns:xlink="http://www.w3.org/1999/xlink" xml:space="preserve" xmlns:serif="http://www.serif.com/" style="fill-rule:evenodd;clip-rule:evenodd;stroke-linejoin:round;stroke-miterlimit:2;"><path id="bulgaria" d="M73.553,46.223c-0.017,-0.033 -0.031,-0.07 -0.04,-0.108c-0.053,-0.226 0.056,-0.459 0.263,-0.562l-1.951,0.975c0,0 -3.946,0.987 -3.946,0.987c-0.088,0.022 -0.168,0.067 -0.233,0.131l-4.853,4.854c-0,-0 -3.793,-0 -3.793,-0c-0.276,-0 -0.5,0.224 -0.5,0.5l0,2c0,0.133 0.053,0.26 0.146,0.354l1.854,1.853c0,0 0,2.484 0,2.484c-0,-0 -1.664,0.832 -1.664,0.832c0,-0 -4.934,0.987 -4.934,0.987c-0.008,0.001 -0.016,0.003 -0.023,0.005l-3.941,0.985c0,-0 -2.82,-0 -2.82,-0c0,-0 -3.894,-1.947 -3.894,-1.947c-0.022,-0.011 -0.043,-0.02 -0.066,-0.027l-3,-1c-0.126,-0.042 -0.263,-0.033 -0.382,0.027l-1.74,0.87c-0,0 -2.536,-1.691 -2.536,-1.691c0,0 0,-1.732 0,-1.732c0,-0.161 -0.077,-0.312 -0.208,-0.406c-0.13,-0.094 -0.298,-0.119 -0.45,-0.068l-2.804,0.934c0,0 -1.814,-0.907 -1.814,-0.907c-0.084,-0.042 -0.178,-0.06 -0.272,-0.051c0,0 -1.36,0.133 -2.312,0.483c-0.53,0.195 -0.933,0.483 -1.087,0.792c-0.062,0.124 -0.101,0.203 -0.166,0.248c-0.073,0.052 -0.164,0.065 -0.29,0.097c-0.281,0.071 -0.678,0.165 -1.287,0.416c-0.456,0.187 -0.843,0.433 -1.24,0.665c-0.792,0.462 -1.64,0.837 -3.43,0.317c-3.033,-0.882 -5.32,0.013 -5.32,0.013c-0.034,0.014 -0.067,0.031 -0.097,0.051l-2.874,1.916c-0,0 -1.349,0 -1.349,0c0,0 0,-6.382 0,-6.382c0,0 0.947,-1.894 0.947,-1.894c0.096,-0.193 0.059,-0.425 -0.093,-0.578l-1.917,-1.916c0,-0 -0.963,-2.888 -0.963,-2.888c-0.035,-0.106 -0.104,-0.196 -0.197,-0.258l-3,-2c-0.017,-0.012 -0.035,-0.022 -0.053,-0.031l-1.851,-0.926c-0,0 -1.765,-3.528 -1.765,-3.528c0,-0 1.746,-1.745 1.746,-1.745c0.038,-0.038 0.069,-0.082 0.093,-0.13l1,-2c0.124,-0.247 0.024,-0.548 -0.223,-0.671l-1.724,-0.862c0,-0 0,-5.484 0,-5.484c-0,0 0.707,-0.707 0.707,-0.707c0,0 2.793,0 2.793,0c0.167,0 0.323,-0.084 0.416,-0.223l1.973,-2.958c-0,-0 1.965,-1.965 1.965,-1.965c0.093,-0.094 0.146,-0.221 0.146,-0.354l0,-2c0,-0.133 -0.053,-0.26 -0.146,-0.354l-4,-4c-0.024,-0.023 -0.049,-0.044 -0.077,-0.062l-2.857,-1.905c0,0 -0.946,-2.837 -0.946,-2.837c-0.007,-0.023 -0.016,-0.044 -0.027,-0.066l-0.975,-1.951c-0,0 -0.918,-3.672 -0.918,-3.672c-0,0 3.8,-3.799 3.8,-3.799c0.034,-0.035 0.063,-0.074 0.086,-0.117l1.083,-2.014c0,-0 1.369,-0.624 1.369,-0.624c-0,-0 1.754,1.755 1.754,1.755c0.094,0.093 0.221,0.146 0.354,0.146l1.5,-0c0,0 0,0.293 0,0.293c0,-0 -1.854,1.853 -1.854,1.853c-0.093,0.094 -0.146,0.221 -0.146,0.354l0,3c0,0.276 0.224,0.5 0.5,0.5l2,-0c0.054,0 0.107,-0.009 0.158,-0.026l2.923,-0.974c0,-0 4.712,-0 4.712,-0c-0,-0 0.853,0.854 0.853,0.854c0.094,0.093 0.221,0.146 0.354,0.146l4.849,-0c-0,0 2.874,1.916 2.874,1.916c0.082,0.055 0.178,0.084 0.277,0.084l3,-0c0.078,-0 0.154,-0.018 0.224,-0.053l1.894,-0.947c0,-0 2.764,-0 2.764,-0c-0,0 1.894,0.947 1.894,0.947c0.07,0.035 0.146,0.053 0.224,0.053l2.938,-0c0,-0 7.941,1.985 7.941,1.985c0.039,0.01 0.08,0.015 0.121,0.015l3,-0c0.099,0 0.195,-0.029 0.277,-0.084l3,-2c0.055,-0.037 0.102,-0.084 0.139,-0.139l1.945,-2.916c-0,-0 2.861,-1.908 2.861,-1.908c-0,0 5.859,-1.953 5.859,-1.953c0,0 2.919,-0 2.919,-0c0.133,-0 0.26,-0.053 0.354,-0.146l1.853,-1.854c0,-0 2.712,-0 2.712,-0c-0,0 2.889,0.963 2.889,0.963c0,0 3.968,1.984 3.968,1.984c0.07,0.035 0.146,0.053 0.224,0.053l1.793,0c-0,-0 0.853,0.854 0.853,0.854c0.094,0.093 0.221,0.146 0.354,0.146l3.793,-0c-0,-0 0.707,0.707 0.707,0.707c0,0 0,1.793 0,1.793c0,0.215 0.138,0.406 0.342,0.474l2.966,0.989c0,0 1.968,0.984 1.968,0.984c0.07,0.035 0.146,0.053 0.224,0.053l3.61,-0c-0,-0 0.86,3.442 0.86,3.442c0,-0 -0.881,1.762 -0.881,1.762c0,-0 -0.724,0.724 -0.724,0.724c-0,-0 -2.707,-0.902 -2.707,-0.902c-0.126,-0.042 -0.263,-0.033 -0.382,0.027l-2,1c-0.077,0.039 -0.144,0.097 -0.192,0.17l-1.926,2.889c-0,0 -1.882,0.941 -1.882,0.941c-0.169,0.084 -0.276,0.258 -0.276,0.447l0,2.882c-0,-0 -0.947,1.894 -0.947,1.894c-0.035,0.07 -0.053,0.146 -0.053,0.224l0,1c0,0.078 0.018,0.154 0.053,0.224l0.888,1.776c-0,-0 -0.814,1.627 -0.814,1.627c0,0 -1.851,0.926 -1.851,0.926c-0.048,0.024 -0.092,0.055 -0.13,0.093l-1,1c-0.038,0.038 -0.069,0.082 -0.093,0.13l-0.926,1.851c0,0 -1.851,0.926 -1.851,0.926c-0.169,0.084 -0.276,0.258 -0.276,0.447l-0,2c-0,0.189 0.107,0.363 0.276,0.447l1.928,0.964c-0,-0 1.885,1.885 1.885,1.885c0,0 0.964,1.928 0.964,1.928c0.024,0.048 0.055,0.092 0.093,0.13l1.917,1.916c-0,0 0.743,2.23 0.743,2.23c0,0 -2.306,0 -2.306,0c-0.078,0 -0.154,0.018 -0.224,0.053l-3.626,1.813c-0,0 -2.75,-3.666 -2.75,-3.666c-0.047,-0.062 -0.107,-0.112 -0.176,-0.147l-2,-1c-0.119,-0.06 -0.256,-0.069 -0.382,-0.027l-2.609,0.869l0.081,0.5l-0.005,0.002l-0.087,-0.498c0,-0 -0.371,0.124 -0.371,0.124l0.078,0.512l-0.376,0.188Z"/></svg>