<?xml version="1.0" encoding="UTF-8" standalone="no"?><!DOCTYPE svg PUBLIC "-//W3C//DTD SVG 1.1//EN" "http://www.w3.org/Graphics/SVG/1.1/DTD/svg11.dtd"><svg width="92px" height="79px" version="1.1" xmlns="http://www.w3.org/2000/svg" xmlns:xlink="http://www.w3.org/1999/xlink" xml:space="preserve" xmlns:serif="http://www.serif.com/" style="fill-rule:evenodd;clip-rule:evenodd;stroke-linejoin:round;stroke-miterlimit:2;"><path id="croatia" d="M40.673,45.5c0.004,0.078 0.006,0.175 0.001,0.275c-0,0.008 -0.34,2.318 -0.34,2.318c-0.002,0.013 -0.003,0.026 -0.004,0.039c-0.051,0.758 0.127,1.057 0.248,1.182l0.948,2.844c0.014,0.042 0.033,0.082 0.058,0.119l2,3c0.018,0.028 0.039,0.053 0.062,0.077l4.965,4.965c0,-0 1.973,2.958 1.973,2.958c0.037,0.055 0.084,0.102 0.139,0.139l2.916,1.945c0,-0 1.945,2.916 1.945,2.916c0.093,0.139 0.249,0.223 0.416,0.223l1.691,0c-0,0 0.846,1.692 0.846,1.692c-0,-0 0.989,2.966 0.989,2.966c0.024,0.074 0.066,0.141 0.12,0.196l3.917,3.916c-0,0 0.456,1.37 0.456,1.37c0,-0 -6.65,-4.989 -6.65,-4.989c-0,0 -1.953,-2.928 -1.953,-2.928c-0.037,-0.055 -0.084,-0.102 -0.139,-0.139l-3,-2c-0.037,-0.025 -0.077,-0.044 -0.119,-0.058l-2.936,-0.979c-0,-0 -2.945,-1.963 -2.945,-1.963c-0.082,-0.055 -0.178,-0.084 -0.277,-0.084l-4,0c-0.054,0 -0.107,0.009 -0.158,0.026l-2.707,0.902c0,-0 -0.635,-0.635 -0.635,-0.635c0,-0 0,-2.793 0,-2.793c0,-0.215 -0.138,-0.406 -0.342,-0.474l-2.888,-0.963c0,-0 -1.916,-1.917 -1.916,-1.917c-0.017,-0.016 -0.035,-0.032 -0.054,-0.046l-3.949,-2.962c-0,0 -3.574,-4.467 -3.574,-4.467c-0,-0 1.341,-0.671 1.341,-0.671c0,0 3.882,0 3.882,0c0.215,0 0.406,-0.138 0.474,-0.342c0.068,-0.204 -0.002,-0.429 -0.174,-0.558l-3.972,-2.979c0,0 -2.917,-2.917 -2.917,-2.917c-0,-0 -1.939,-3.879 -1.939,-3.879c-0,0 -0.972,-3.887 -0.972,-3.887c0,0 0,-2.938 0,-2.938c0,-0.108 -0.035,-0.213 -0.1,-0.3l-3,-4c-0.014,-0.019 -0.03,-0.037 -0.046,-0.054l-2,-2c-0.038,-0.038 -0.082,-0.069 -0.13,-0.093l-4,-2c-0.136,-0.068 -0.295,-0.071 -0.433,-0.007c-0.138,0.063 -0.239,0.186 -0.276,0.333l-0.966,3.865c-0,0 -1.903,1.902 -1.903,1.902c-0.093,0.094 -0.146,0.221 -0.146,0.354l-0,1.5c-0,-0 -1.5,0 -1.5,0c-0.276,0 -0.5,0.224 -0.5,0.5l0,0.919c-0,-0 -0.719,2.155 -0.719,2.155c0,0 -1.402,-1.402 -1.402,-1.402c-0,-0 -2.379,-3.172 -2.379,-3.172c-0,0 1,0 1,0c0.202,0 0.385,-0.122 0.462,-0.309c0.077,-0.186 0.035,-0.402 -0.108,-0.545l-1.854,-1.853c0,-0 0,-2.793 0,-2.793c0,-0.133 -0.053,-0.26 -0.146,-0.354l-0.854,-0.853c0,-0 0,-1.293 0,-1.293c0,0 2.293,0 2.293,0c-0,-0 1.853,1.854 1.853,1.854c0.114,0.113 0.275,0.165 0.434,0.14c0.159,-0.026 0.295,-0.127 0.367,-0.27l0.964,-1.928c-0,0 0.589,-0.589 0.589,-0.589c0,0 0.646,0.647 0.646,0.647c0.153,0.152 0.385,0.189 0.578,0.093l1.894,-0.947c0,0 1.675,0 1.675,0c-0,-0 0.853,0.854 0.853,0.854c0.103,0.102 0.245,0.155 0.389,0.145c0.145,-0.011 0.278,-0.083 0.365,-0.199l2.644,-3.525l0.724,0.767c0.64,0.662 1.407,1.428 1.915,1.844c0.328,0.27 0.658,0.401 0.968,0.452c0.036,0.006 0.073,0.007 0.11,0.005l0.641,-0.038c0.034,-0.002 0.068,-0.008 0.101,-0.017c0.211,-0.057 0.391,-0.139 0.527,-0.214l3.746,1.873c0.119,0.06 0.256,0.069 0.382,0.027l3,-1c0.138,-0.045 0.248,-0.149 0.304,-0.283c0.055,-0.134 0.05,-0.285 -0.015,-0.415l-0.947,-1.894c0,-0 0,-1.382 0,-1.382c-0,0 0.5,0 0.5,0c0.173,0 0.334,-0.09 0.425,-0.237c0.091,-0.148 0.1,-0.332 0.022,-0.487l-0.839,-1.677c0,-0 0.662,-0.662 0.662,-0.662c0,0 2.811,-0.937 2.811,-0.937c0,0 1.919,0 1.919,0c0.276,0 0.5,-0.224 0.5,-0.5l0,-5c-0,-0.078 -0.018,-0.154 -0.053,-0.224l-0.888,-1.776c0,0 0.75,-1.5 0.75,-1.5c0,-0 1.691,0 1.691,0c0.099,0 0.195,-0.029 0.277,-0.084l3,-2c0.073,-0.048 0.131,-0.115 0.17,-0.192l0.862,-1.724c0,0 2.691,0 2.691,0c0.276,0 0.5,-0.224 0.5,-0.5l0,-1.691c0,0 1.618,-0.809 1.618,-0.809c0,0 2.675,0 2.675,0c-0,0 2.853,2.854 2.853,2.854c0.094,0.093 0.221,0.146 0.354,0.146l1.5,-0c-0,0 0,2.5 0,2.5c0,0.133 0.053,0.26 0.146,0.354l4,4c0.153,0.152 0.385,0.189 0.578,0.093l1.484,-0.742c-0,0 0.818,2.453 0.818,2.453c0.024,0.074 0.066,0.141 0.12,0.196l1,1c0.094,0.093 0.221,0.146 0.354,0.146l2.691,0c-0,0 0.862,1.724 0.862,1.724c0.059,0.118 0.163,0.208 0.289,0.25l6,2c0.051,0.017 0.104,0.026 0.158,0.026l7,0c0.133,0 0.26,-0.053 0.354,-0.146l2.853,-2.854c0,-0 2.984,0 2.984,0c-0,-0 -0.638,1.276 -0.638,1.276c-0.06,0.119 -0.069,0.256 -0.027,0.382l1,3c0.024,0.074 0.066,0.141 0.12,0.196l0.647,0.646c-0,0 -0.647,0.646 -0.647,0.646c-0.195,0.196 -0.195,0.512 0,0.708l1,1c0.094,0.093 0.221,0.146 0.354,0.146l0.5,0l0,2.5c0,0.133 0.053,0.26 0.146,0.354l0.965,0.965c0,-0 1.973,2.958 1.973,2.958c0.093,0.139 0.249,0.223 0.416,0.223l2.5,0c0,0 0,1 0,1c-0,0 -2.5,0 -2.5,0c-0.078,0 -0.154,0.018 -0.224,0.053l-2,1c-0.169,0.084 -0.276,0.258 -0.276,0.447l0,2c0,0.078 0.018,0.154 0.053,0.224l0.776,1.552c0,0 -1.447,0.724 -1.447,0.724c-0,0 -1.675,0 -1.675,0c0,0 -3.853,-3.854 -3.853,-3.854c-0.094,-0.093 -0.221,-0.146 -0.354,-0.146l-2.849,0c0,-0 -2.874,-1.916 -2.874,-1.916c-0.149,-0.1 -0.34,-0.111 -0.501,-0.031l-1.776,0.888c0,-0 -1.776,-0.888 -1.776,-0.888c-0.193,-0.096 -0.425,-0.059 -0.578,0.093l-1.646,1.647c-0,-0 -1.646,-1.647 -1.646,-1.647c-0.094,-0.093 -0.221,-0.146 -0.354,-0.146l-2,0c-0.078,0 -0.154,0.018 -0.224,0.053l-1.776,0.888c0,-0 -1.776,-0.888 -1.776,-0.888c-0.022,-0.011 -0.043,-0.02 -0.066,-0.027l-3,-1c-0.051,-0.017 -0.104,-0.026 -0.158,-0.026l-1.793,0c0,0 -1.853,-1.854 -1.853,-1.854c-0.094,-0.093 -0.221,-0.146 -0.354,-0.146l-2,0c-0.276,0 -0.5,0.224 -0.5,0.5l0,1.5c-0,0 -4.5,0 -4.5,0c-0.133,0 -0.26,0.053 -0.354,0.146l-2,2c-0.038,0.038 -0.069,0.082 -0.093,0.13l-0.777,1.553c0,0 -1.434,-0.717 -1.434,-0.717c0,0 -1.926,-2.889 -1.926,-2.889c-0.093,-0.139 -0.249,-0.223 -0.416,-0.223l-3,0c-0.054,0 -0.108,0.009 -0.159,0.026c-0.722,0.243 -1.244,0.648 -1.492,1.255c-0.218,0.534 -0.228,1.257 0.121,2.229c-0,-0.001 -0.944,2.832 -0.944,2.832c-0.017,0.051 -0.026,0.104 -0.026,0.158l0,3c0,0.078 0.018,0.154 0.053,0.224l1,2c0.084,0.169 0.258,0.276 0.447,0.276l1.732,0c0,0 1.768,2.651 1.768,2.651c0,0 0,0.849 0,0.849c0,0.276 0.224,0.5 0.5,0.5l1.673,0Zm0.149,3.034c0.022,0.474 0.178,0.466 0.178,0.466l0.114,0.342l-0.114,0.158c0,0 -0.552,-0.792 -0.178,-0.966Zm0.145,-3.034l0.033,0c0,0 -0.012,0.002 -0.033,0Zm-19.861,-22.447l-0.106,0.447l-0.142,-0.404c0.091,-0.055 0.142,-0.096 0.142,-0.096l0.106,0.053Z"/></svg>