<?xml version="1.0" encoding="UTF-8" standalone="no"?><!DOCTYPE svg PUBLIC "-//W3C//DTD SVG 1.1//EN" "http://www.w3.org/Graphics/SVG/1.1/DTD/svg11.dtd"><svg width="31px" height="18px" version="1.1" xmlns="http://www.w3.org/2000/svg" xmlns:xlink="http://www.w3.org/1999/xlink" xml:space="preserve" xmlns:serif="http://www.serif.com/" style="fill-rule:evenodd;clip-rule:evenodd;stroke-linejoin:round;stroke-miterlimit:2;"><path id="cyprus" d="M4.207,16.5l-2.77,-2.77c0,-0 -0.842,-2.526 -0.842,-2.526c0,0 2.682,-1.788 2.682,-1.788c0.062,-0.041 0.114,-0.096 0.152,-0.16c0,0 0.52,-0.877 1.512,-0.759c1.357,0.16 3.105,0.001 3.105,0.001c0.15,-0.014 0.286,-0.095 0.37,-0.221l1.905,-2.857c-0,0 2.711,-0.904 2.711,-0.904c0,0 4.87,0.974 4.87,0.974c0.065,0.013 0.131,0.013 0.196,0l5,-1c0.064,-0.013 0.125,-0.038 0.179,-0.074l2.962,-1.975c0,0 4.572,-1.959 4.572,-1.959c-0,0 -3.107,3.107 -3.107,3.107l-3.928,1.964c-0.222,0.111 -0.329,0.369 -0.25,0.605l1,3c0.024,0.074 0.066,0.141 0.12,0.196l1.428,1.427c0,0 -2.155,0.719 -2.155,0.719c-0,0 -2.919,0 -2.919,0c-0.189,0 -0.363,0.107 -0.447,0.276l-0.926,1.851c0,0 -3.745,1.873 -3.745,1.873c-0,0 -3.882,0 -3.882,0c-0.133,0 -0.26,0.053 -0.354,0.146l-1.745,1.746c0,-0 -1.677,-0.839 -1.677,-0.839c-0.07,-0.035 -0.146,-0.053 -0.224,-0.053l-3.793,-0Z"/></svg>