<?xml version="1.0" encoding="UTF-8" standalone="no"?><!DOCTYPE svg PUBLIC "-//W3C//DTD SVG 1.1//EN" "http://www.w3.org/Graphics/SVG/1.1/DTD/svg11.dtd"><svg width="106px" height="60px" version="1.1" xmlns="http://www.w3.org/2000/svg" xmlns:xlink="http://www.w3.org/1999/xlink" xml:space="preserve" xmlns:serif="http://www.serif.com/" style="fill-rule:evenodd;clip-rule:evenodd;stroke-linejoin:round;stroke-miterlimit:2;"><path id="czech_republic" d="M76.062,57.006l-0.615,-1.23c-0.084,-0.169 -0.258,-0.276 -0.447,-0.276l-1.793,0c0,0 -1.853,-1.854 -1.853,-1.854c-0.094,-0.093 -0.221,-0.146 -0.354,-0.146l-2,0c-0.078,0 -0.154,0.018 -0.224,0.053l-1.894,0.947c-0,0 -4.675,0 -4.675,0c0,-0 -2.853,-2.854 -2.853,-2.854c-0.134,-0.133 -0.332,-0.18 -0.512,-0.12l-2.768,0.922c-0,0 -2.797,-1.864 -2.797,-1.864c-0.037,-0.025 -0.077,-0.044 -0.119,-0.058l-3,-1c-0.051,-0.017 -0.104,-0.026 -0.158,-0.026l-1.793,0c0,0 -0.853,-0.854 -0.853,-0.854c-0.094,-0.093 -0.221,-0.146 -0.354,-0.146l-2,0c-0.276,0 -0.5,0.224 -0.5,0.5l0,5.5c-0,0 -2.5,0 -2.5,0c-0.189,0 -0.363,0.107 -0.447,0.276l-1.806,3.613c-0,-0 -2.589,-0.863 -2.589,-0.863c-0.18,-0.06 -0.378,-0.013 -0.512,0.12l-1.745,1.746c0,-0 -3.605,-1.803 -3.605,-1.803c0,0 -0.942,-0.943 -0.942,-0.943c-0.024,-0.023 -0.049,-0.044 -0.077,-0.062l-2.889,-1.926c-0,-0 -1.941,-3.882 -1.941,-3.882c-0.055,-0.109 -0.148,-0.195 -0.261,-0.24l-4.905,-1.962c-0,-0 -2.908,-2.908 -2.908,-2.908c0,0 -3.983,-4.978 -3.983,-4.978c-0.06,-0.076 -0.14,-0.132 -0.232,-0.162l-2.888,-0.963c0,-0 -3.833,-3.833 -3.833,-3.833c0,-0 -1.885,-5.656 -1.885,-5.656c-0,-0 1.864,-2.797 1.864,-2.797c0.112,-0.168 0.112,-0.386 0,-0.554l-2,-3c-0.037,-0.055 -0.084,-0.102 -0.139,-0.139l-2.827,-1.885c-0,-0 -0.84,-4.199 -0.84,-4.199c-0,-0 1.03,-0 1.03,-0c-0,0 0.886,2.658 0.886,2.658c0.068,0.204 0.259,0.342 0.474,0.342c0.215,-0 0.406,-0.138 0.474,-0.342l0.963,-2.888c0,0 1.77,-1.77 1.77,-1.77c0,-0 3.793,-0 3.793,-0c0.054,-0 0.107,-0.009 0.158,-0.026l3,-1c0.126,-0.042 0.23,-0.132 0.289,-0.25l0.862,-1.724c0,-0 2.691,-0 2.691,-0c0.099,-0 0.195,-0.029 0.277,-0.084l5.918,-3.945c0,-0 4.903,-0.981 4.903,-0.981c0.151,-0.03 0.28,-0.128 0.349,-0.266l0.897,-1.795c0,0 3.777,-0.944 3.777,-0.944c0.013,-0.003 0.025,-0.007 0.037,-0.011l3,-1c0.148,-0.049 0.264,-0.164 0.315,-0.312c0.051,-0.147 0.029,-0.31 -0.057,-0.439l-1.482,-2.223c0,-0 1.859,-0 1.859,-0c-0,0 4.853,4.854 4.853,4.854c0.103,0.102 0.245,0.155 0.389,0.145c0.145,-0.011 0.278,-0.083 0.365,-0.199l2.818,-3.757c-0,0 5.542,0.924 5.542,0.924c-0,-0 2.886,2.887 2.886,2.887c0.038,0.038 0.082,0.069 0.13,0.093l6,3c0.07,0.035 0.146,0.053 0.224,0.053l3.882,-0c-0,0 3.411,1.706 3.411,1.706c0,-0 -2.722,4.537 -2.722,4.537c-0.118,0.196 -0.087,0.448 0.075,0.611l7,7c0.163,0.162 0.415,0.193 0.611,0.075l5,-3c0.189,-0.113 0.281,-0.337 0.228,-0.55l-0.736,-2.946c-0,0 7.027,3.514 7.027,3.514c0.107,0.054 0.229,0.067 0.345,0.038l3.658,-0.914c0,-0 1.757,2.634 1.757,2.634c-0,0 0.979,3.916 0.979,3.916c0.056,0.223 0.256,0.379 0.485,0.379l3.93,-0c-0,0 6.721,1.92 6.721,1.92c0,0 2.892,5.785 2.892,5.785c0,0 1.27,3.174 1.27,3.174c0,-0 -0.081,0.121 -0.081,0.121c0,-0 -1.732,-0 -1.732,-0c-0.054,-0 -0.107,0.009 -0.158,0.026l-3,1c-0.106,0.035 -0.196,0.104 -0.258,0.197l-1.905,2.857c0,-0 -2.837,0.946 -2.837,0.946c-0.149,0.049 -0.267,0.167 -0.316,0.316l-1.886,5.658c-0,0 -1.64,-0 -1.64,-0c-0.189,-0 -0.363,0.107 -0.447,0.276l-0.964,1.928c0,-0 -2.796,2.796 -2.796,2.796c-0,-0 -3.731,-0 -3.731,-0c-0,0 -3.941,-0.985 -3.941,-0.985c-0.205,-0.051 -0.42,0.032 -0.537,0.208l-3.522,5.283Z"/></svg>