<?xml version="1.0" encoding="UTF-8" standalone="no"?><!DOCTYPE svg PUBLIC "-//W3C//DTD SVG 1.1//EN" "http://www.w3.org/Graphics/SVG/1.1/DTD/svg11.dtd"><svg width="70px" height="86px" version="1.1" xmlns="http://www.w3.org/2000/svg" xmlns:xlink="http://www.w3.org/1999/xlink" xml:space="preserve" xmlns:serif="http://www.serif.com/" style="fill-rule:evenodd;clip-rule:evenodd;stroke-linejoin:round;stroke-miterlimit:2;"><path id="denmark" d="M57.5,85.5l-5.382,0c0,-0 -1.822,-0.911 -1.822,-0.911c0,0 -1.942,-1.943 -1.942,-1.943c-0.094,-0.093 -0.221,-0.146 -0.354,-0.146l-1.191,0c0,0 0.638,-1.276 0.638,-1.276c0.071,-0.141 0.071,-0.307 0,-0.448l-0.638,-1.276c0,-0 2.073,-0 2.073,-0c-0,0 1.867,0.933 1.867,0.933c-0,0 2.974,1.983 2.974,1.983c0.082,0.055 0.178,0.084 0.277,0.084l2,-0c0.276,-0 0.5,-0.224 0.5,-0.5l0,-0.349c-0,0 1,1.5 1,1.5l-0,2.349Zm3,-0.618l0,-1.882c0,-0.133 -0.053,-0.26 -0.146,-0.354l-1.854,-1.853c0,-0 0,-1.293 0,-1.293c-0,-0 0.5,-0 0.5,-0c0.133,-0 0.26,-0.053 0.354,-0.146l0.509,-0.51c0,0 0.69,1.38 0.69,1.38c0.048,0.096 0.127,0.175 0.223,0.223l1.553,0.777l-1.829,3.658Zm-38.888,-4.3l-3.112,0.778c0,-0 0,-0.36 0,-0.36c0,-0.229 -0.156,-0.429 -0.379,-0.485l-3.981,-0.995c-0,-0 -2.982,-0.994 -2.982,-0.994c-0.126,-0.042 -0.263,-0.033 -0.382,0.027l-1.276,0.638c0,-0 0,-12.191 0,-12.191c0,-0.078 -0.018,-0.154 -0.053,-0.224l-1,-2c-0.039,-0.077 -0.097,-0.144 -0.17,-0.192l-2.857,-1.905c0,0 -0.946,-2.837 -0.946,-2.837c-0.068,-0.204 -0.259,-0.342 -0.474,-0.342l-2,-0c-0.189,0 -0.363,0.107 -0.447,0.276l-0.69,1.38c0,-0 -0.32,-0.32 -0.32,-0.32c-0,-0 0.934,-4.672 0.934,-4.672c0,-0 0.934,-1.868 0.934,-1.868c-0,0 1.943,-1.942 1.943,-1.942c0.124,-0.125 0.174,-0.305 0.131,-0.475l-1,-4c-0.014,-0.056 -0.037,-0.109 -0.069,-0.156l-1.916,-2.874c0,-0 0,-13.198 0,-13.198c-0,0 1.084,1.626 1.084,1.626c0.093,0.139 0.249,0.223 0.416,0.223l1.793,-0c-0,-0 1.853,1.854 1.853,1.854c0.094,0.093 0.221,0.146 0.354,0.146l3,-0c0.276,-0 0.5,-0.224 0.5,-0.5l0,-2.882c0,0 0.873,-1.745 0.873,-1.745c-0,-0 1.851,-0.926 1.851,-0.926c0.169,-0.084 0.276,-0.258 0.276,-0.447l0,-2.691c0,0 1.276,-0.638 1.276,-0.638c0,-0 1.616,3.23 1.616,3.23c-0,0 -1.746,1.745 -1.746,1.745c-0.093,0.094 -0.146,0.221 -0.146,0.354l0,2c-0,0.202 0.122,0.385 0.309,0.462c0.186,0.077 0.402,0.035 0.545,-0.108l1.509,-1.51c0,0 0.69,1.38 0.69,1.38c0.084,0.169 0.258,0.276 0.447,0.276l1,-0c0.276,-0 0.5,-0.224 0.5,-0.5l0,-3c0,-0.054 -0.009,-0.107 -0.026,-0.158l-0.974,-2.923c0,-0 0,-5.419 0,-5.419c0,-0 5.5,-0 5.5,-0c0.078,-0 0.154,-0.018 0.224,-0.053l1.951,-0.975c-0,-0 3.672,-0.918 3.672,-0.918c-0,-0 2.702,2.702 2.702,2.702c-0,-0 0.951,3.806 0.951,3.806c0,-0 0,1.438 0,1.438c-0,-0 -2.5,-0 -2.5,-0c-0.099,-0 -0.195,0.029 -0.277,0.084l-3,2c-0.028,0.018 -0.053,0.039 -0.077,0.062l-1,1c-0.164,0.164 -0.193,0.42 -0.071,0.617c0.122,0.197 0.363,0.285 0.583,0.211l2.923,-0.974c0,-0 2.919,-0 2.919,-0c0.078,0 0.154,-0.018 0.224,-0.053l1.276,-0.638c0,0 0,1.882 0,1.882c-0,-0 -1.724,0.862 -1.724,0.862c-0.169,0.084 -0.276,0.258 -0.276,0.447l0,2c0,0.173 0.09,0.334 0.237,0.425c0.148,0.091 0.332,0.1 0.487,0.022l1.894,-0.947c0,0 4.82,-0 4.82,-0c0,-0 3.562,0.89 3.562,0.89c-0,0 0,4.342 0,4.342c-0,0 -2.651,1.768 -2.651,1.768c-0,0 -1.849,-0 -1.849,-0c-0.078,-0 -0.154,0.018 -0.224,0.053l-1.276,0.638c-0,-0 0,-2.191 0,-2.191c0,-0.202 -0.122,-0.385 -0.309,-0.462c-0.186,-0.077 -0.402,-0.035 -0.545,0.108l-2,2c-0.023,0.024 -0.044,0.049 -0.062,0.077l-2,3c-0.055,0.082 -0.084,0.178 -0.084,0.277l0,5.793c0,-0 -0.707,0.707 -0.707,0.707c-0,0 -2.793,-0 -2.793,-0c-0.133,0 -0.26,0.053 -0.354,0.146l-1,1c-0.113,0.114 -0.165,0.275 -0.14,0.434c0.026,0.159 0.127,0.295 0.27,0.367l1.724,0.862c0,0 0,1.331 0,1.331c-0,-0 -2.462,0.82 -2.462,0.82c0,0 -1.814,-0.907 -1.814,-0.907c-0.141,-0.071 -0.307,-0.071 -0.448,-0l-2,1c-0.143,0.072 -0.244,0.208 -0.27,0.367c-0.025,0.159 0.027,0.32 0.14,0.434l2.746,2.745c-0,-0 -0.747,1.492 -0.747,1.492c0,0 -2.803,0.935 -2.803,0.935c-0.192,0.064 -0.326,0.237 -0.341,0.439c-0.014,0.201 0.095,0.392 0.275,0.482l1.613,0.806c-0,0 -0.863,2.589 -0.863,2.589c-0.042,0.126 -0.033,0.263 0.027,0.382l0.947,1.894c0,0 0,1.522 0,1.522c-0,-0 -2.658,0.886 -2.658,0.886c-0.204,0.068 -0.342,0.259 -0.342,0.474l0,1c0,0.133 0.053,0.26 0.146,0.354l0.746,0.745c-0,-0 -0.839,1.677 -0.839,1.677c-0.084,0.168 -0.067,0.369 0.044,0.52c0.111,0.151 0.298,0.228 0.483,0.198l1.548,-0.252c0,0 1.872,1.051 1.872,1.051c0,-0 0,1.5 0,1.5c0,-0 -1.146,-1.147 -1.146,-1.147c-0.123,-0.122 -0.3,-0.172 -0.469,-0.133c-0.169,0.04 -0.305,0.164 -0.359,0.329l-0.914,2.74Zm33.112,-29.082l0.776,-0c0,0 0,2.293 0,2.293c0,-0 -0.854,0.853 -0.854,0.853c-0.195,0.196 -0.195,0.512 0,0.708l0.854,0.853c0,0 0,0.793 0,0.793c0,0.189 0.107,0.363 0.276,0.447l2,1c0.193,0.096 0.425,0.059 0.578,-0.093l1,-1c0.093,-0.094 0.146,-0.221 0.146,-0.354l0,-0.882c0,0 0.911,-1.822 0.911,-1.822c-0,0 0.452,-0.452 0.452,-0.452c0,0 0.529,1.057 0.529,1.057c-0,0 -0.746,0.745 -0.746,0.745c-0.038,0.038 -0.069,0.082 -0.093,0.13l-1,2c-0.078,0.155 -0.069,0.339 0.022,0.487c0.091,0.147 0.252,0.237 0.425,0.237l3,-0c0.276,-0 0.5,-0.224 0.5,-0.5l0,-2c0,-0.021 -0.001,-0.043 -0.004,-0.064c-0,0 -0.26,-1.964 -1.078,-3.21c-0.531,-0.809 -0.049,-1.389 -0.049,-1.389c0.106,-0.115 0.151,-0.274 0.123,-0.428c-0.029,-0.154 -0.128,-0.286 -0.268,-0.356l-1.38,-0.69c0,0 3.363,-3.363 3.363,-3.363c0,-0 3.586,0 3.586,0c-0,-0 1.635,1.635 1.635,1.635c-0,0 -0.902,2.707 -0.902,2.707c-0.042,0.126 -0.033,0.263 0.027,0.382l0.947,1.894c0,0 -0,4.675 -0,4.675c0,-0 -0.771,0.771 -0.771,0.771c-0.41,0.14 -1.88,0.638 -2.882,0.96c-0.787,0.253 -1.098,0.621 -1.235,0.892c-0.098,0.193 -0.121,0.364 -0.122,0.485l-0.937,1.875c-0.071,0.141 -0.071,0.307 -0,0.448l1,2c0.048,0.096 0.127,0.175 0.223,0.223l1.851,0.926c0,-0 0.765,1.528 0.765,1.528c-0,0 -0.599,0.599 -0.599,0.599c-0,0 -1.793,-0 -1.793,-0c-0.078,-0 -0.154,0.018 -0.224,0.053l-4,2c-0.247,0.123 -0.347,0.424 -0.223,0.671l1,2c0.084,0.169 0.258,0.276 0.447,0.276l0.5,-0l0,2.293l-0.599,0.599c0,-0 -1.605,-0.803 -1.605,-0.803c0,0 -1.796,-1.796 -1.796,-1.796c0,-0 0,-1.793 0,-1.793c0,-0.133 -0.053,-0.26 -0.146,-0.354l-1,-1c-0.094,-0.093 -0.221,-0.146 -0.354,-0.146l-1.882,-0c0,-0 -1.894,-0.947 -1.894,-0.947c-0.193,-0.096 -0.425,-0.059 -0.578,0.093l-0.745,0.746c0,-0 -1.605,-0.803 -1.605,-0.803c0,0 -1.589,-1.589 -1.589,-1.589c0,-0 0.647,-0.646 0.647,-0.646c0.093,-0.094 0.146,-0.221 0.146,-0.354l0,-4c0,-0.133 -0.053,-0.26 -0.146,-0.354l-0.854,-0.853c0,-0 0,-1.793 0,-1.793c0,-0.133 -0.053,-0.26 -0.146,-0.354l-0.943,-0.942c-0,-0 -0.293,-0.586 -0.293,-0.586c0,0 0.658,0.329 0.658,0.329c0.193,0.096 0.425,0.059 0.578,-0.093l1.853,-1.854c0,-0 0.793,-0 0.793,-0c0.189,0 0.363,-0.107 0.447,-0.276l0.945,-1.891c0.363,-0.267 1.55,-1.183 2.047,-2.094c0.172,-0.315 0.253,-0.557 0.285,-0.739Zm-27.915,12l2.191,-0c0.133,0 0.26,-0.053 0.354,-0.146l0.942,-0.943c0,-0 3.742,-1.871 3.742,-1.871c0,-0 2.257,0.752 2.257,0.752c-0,0 -0.742,1.484 -0.742,1.484c-0.035,0.07 -0.053,0.146 -0.053,0.224l0,1c0,0.276 0.224,0.5 0.5,0.5l2.793,-0c-0,-0 1.796,1.796 1.796,1.796c0,0 0.911,1.822 0.911,1.822c0,0 0,3.764 0,3.764c-0,-0 -0.873,1.745 -0.873,1.745c0,0 -1.745,0.873 -1.745,0.873c-0,-0 -1.764,-0 -1.764,-0c0,-0 -1.894,-0.947 -1.894,-0.947c-0.07,-0.035 -0.146,-0.053 -0.224,-0.053l-2.5,-0c0,-0 0,-1.5 0,-1.5c0,-0.189 -0.107,-0.363 -0.276,-0.447l-3.724,-1.862c0,-0 0,-2.691 0,-2.691c0,-0.133 -0.053,-0.26 -0.146,-0.354l-0.854,-0.853c0,-0 0,-0.793 0,-0.793c0,-0.078 -0.018,-0.154 -0.053,-0.224l-0.638,-1.276Zm-17.118,-35l-1.191,-0c0,0 0,-0.5 0,-0.5c0,-0.133 -0.053,-0.26 -0.146,-0.354l-0.51,-0.509c0,-0 1.38,-0.69 1.38,-0.69c0.169,-0.084 0.276,-0.258 0.276,-0.447l0,-1.691c0,0 1.401,-0.701 1.401,-0.701c0,0 0.392,0.392 0.392,0.392c-0,0 -0.647,0.646 -0.647,0.646c-0.093,0.094 -0.146,0.221 -0.146,0.354l0,1.882l-0.809,1.618Zm13.155,-15.022c0.157,0.059 0.331,0.066 0.52,0.006c0.176,-0.055 0.384,-0.183 0.597,-0.386c0.955,-0.907 2.324,-3.56 2.471,-3.849c-0.002,0.004 1.982,-2.972 1.982,-2.972c0.012,-0.017 0.022,-0.035 0.031,-0.053l0.908,-1.815c-0,-0 2.803,-0.935 2.803,-0.935c0.023,-0.007 0.044,-0.016 0.066,-0.027l2,-1c0.026,-0.013 0.052,-0.029 0.076,-0.047l2.873,-2.155c0,-0 -0.645,2.58 -0.645,2.58c0,0 -0.975,1.951 -0.975,1.951c-0.071,0.141 -0.071,0.307 -0,0.448l1.004,2.009c0,-0 0.51,0.968 0.818,1.99c0.179,0.59 0.319,1.196 0.161,1.591c-0.429,1.07 -0.895,2.634 -0.996,2.978c-0.166,0.263 -0.797,1.291 -1.021,2.07c-0.207,0.724 -0.798,2.42 -0.953,2.864c-0,0.001 -0.63,0.631 -0.63,0.631c0,-0 -2.659,-1.773 -2.659,-1.773c-0.082,-0.055 -0.178,-0.084 -0.277,-0.084l-2.815,-0c-0.245,-0.205 -0.755,-0.604 -1.247,-0.83c-0.393,-0.179 -0.785,-0.24 -1.084,-0.148c-0.643,0.196 -2.771,0.921 -2.996,0.998c0,0 -3.92,0.98 -3.92,0.98c0,-0 -3.938,-0 -3.938,-0c-0.133,0 -0.26,0.053 -0.354,0.146l-0.916,0.917c-0,-0 -2.888,0.963 -2.888,0.963c-0.023,0.007 -0.044,0.016 -0.066,0.027l-4,2c-0.169,0.084 -0.276,0.258 -0.276,0.447l0,1.793c0,-0 -0.854,0.853 -0.854,0.853c-0.093,0.094 -0.146,0.221 -0.146,0.354l-0,1.64l-2.365,0.788c0,-0 -0.563,-0.563 -0.563,-0.563c0,-0 1.865,-5.595 1.865,-5.595c0,0 4.662,-4.662 4.662,-4.662c-0,0 1.677,0.839 1.677,0.839c0.193,0.096 0.425,0.059 0.578,-0.093l1.853,-1.854c0,-0 2.712,-0 2.712,-0c-0,0 2.923,0.974 2.923,0.974c0.18,0.06 0.378,0.013 0.512,-0.12l1,-1c0.024,-0.025 0.046,-0.053 0.066,-0.082c-0,0 1.035,-1.602 1.921,-2.433c0.17,-0.159 0.438,-0.321 0.505,-0.361Z"/></svg>