<?xml version="1.0" encoding="UTF-8" standalone="no"?><!DOCTYPE svg PUBLIC "-//W3C//DTD SVG 1.1//EN" "http://www.w3.org/Graphics/SVG/1.1/DTD/svg11.dtd"><svg width="100px" height="64px" version="1.1" xmlns="http://www.w3.org/2000/svg" xmlns:xlink="http://www.w3.org/1999/xlink" xml:space="preserve" xmlns:serif="http://www.serif.com/" style="fill-rule:evenodd;clip-rule:evenodd;stroke-linejoin:round;stroke-miterlimit:2;"><path id="estonia" d="M40.644,49.649l0.83,-2.491c0.017,-0.051 0.026,-0.104 0.026,-0.158l0,-5.882c0,0 0.947,-1.894 0.947,-1.894c0.071,-0.141 0.071,-0.307 0,-0.448l-1,-2c-0.111,-0.222 -0.369,-0.329 -0.605,-0.25l-3,1c-0.074,0.024 -0.141,0.066 -0.196,0.12l-1.745,1.746c0,-0 -3.605,-1.803 -3.605,-1.803c0,0 -2.859,-2.859 -2.859,-2.859c0,-0 -0.963,-2.888 -0.963,-2.888c-0.014,-0.042 -0.033,-0.082 -0.058,-0.119l-1.773,-2.659c0,-0 2.564,-2.564 2.564,-2.564c0,-0 1.793,-0 1.793,-0c0.276,-0 0.5,-0.224 0.5,-0.5l-0,-2c-0,-0.276 -0.224,-0.5 -0.5,-0.5l-2.882,-0c0,-0 -1.822,-0.911 -1.822,-0.911c0,0 -0.688,-0.688 -0.688,-0.688c0,0 0.701,-1.401 0.701,-1.401c0,0 1.691,-0 1.691,-0c0.276,0 0.5,-0.224 0.5,-0.5l-0,-3c-0,-0.276 -0.224,-0.5 -0.5,-0.5l-1.5,-0c-0,0 -0,-0.451 -0,-0.451c0,0.001 0.91,-4.549 0.91,-4.549c-0,-0 2.59,-0 2.59,-0c0.078,-0 0.154,-0.018 0.224,-0.053l1.894,-0.947c0,-0 3.882,-0 3.882,-0c0.184,0 0.354,-0.101 0.441,-0.264c0.087,-0.163 0.077,-0.36 -0.025,-0.513l-1.192,-1.788c0,0 1.618,0.539 1.618,0.539c0.18,0.06 0.378,0.013 0.512,-0.12l1,-1c0.023,-0.024 0.044,-0.049 0.062,-0.077l1.662,-2.492c-0,-0 0.568,0.569 0.568,0.569c0.094,0.093 0.221,0.146 0.354,0.146l4,-0c0.078,-0 0.154,-0.018 0.224,-0.053l2,-1c0.169,-0.084 0.276,-0.258 0.276,-0.447l-0,-1.793c-0,0 1.146,1.147 1.146,1.147c0.094,0.093 0.221,0.146 0.354,0.146l7,-0c0.078,0 0.154,-0.018 0.224,-0.053l2,-1c0.169,-0.084 0.276,-0.258 0.276,-0.447l-0,-1.306c-0,-0 2.342,0.78 2.342,0.78c0.152,0.051 0.32,0.026 0.45,-0.068c0.131,-0.094 0.208,-0.245 0.208,-0.406l-0,-0.793c-0,0 1.146,1.147 1.146,1.147c0.094,0.093 0.221,0.146 0.354,0.146l6.849,-0c-0,0 2.874,1.916 2.874,1.916c0.128,0.086 0.289,0.107 0.435,0.058l2.707,-0.902c-0,0 3.781,3.782 3.781,3.782c0.094,0.093 0.221,0.146 0.354,0.146l7.964,-0c0,0 6.965,0.995 6.965,0.995c0.122,0.017 0.246,-0.011 0.348,-0.079l2.584,-1.723c0,0 1.496,2.243 1.496,2.243c-0,0 -1.676,1.675 -1.676,1.675c0,0 -2.958,1.973 -2.958,1.973c-0.099,0.066 -0.171,0.165 -0.204,0.279l-1.97,6.895c0,-0 -5.929,6.917 -5.929,6.917c-0.108,0.125 -0.146,0.297 -0.102,0.457l2.956,10.838c-0,-0 -1.938,4.844 -1.938,4.844c-0.048,0.12 -0.048,0.252 -0,0.372l1.987,4.968c0,0 0.992,3.967 0.992,3.967c0.035,0.142 0.131,0.261 0.261,0.326l1.724,0.862c0,0 0,1.301 0,1.301c0,-0 -3.621,0.905 -3.621,0.905c-0.223,0.056 -0.379,0.256 -0.379,0.485l0,2.793c0,-0 -1.854,1.853 -1.854,1.853c-0.064,0.065 -0.109,0.145 -0.131,0.233l-0.849,3.395c0,0 -7.442,-3.721 -7.442,-3.721c-0.17,-0.085 -0.372,-0.067 -0.524,0.047l-3.867,2.9l-1.626,-0l-6.707,-6.707c0,-0 0,-1.793 0,-1.793c0,-0.229 -0.156,-0.429 -0.379,-0.485l-3.865,-0.966c-0,-0 -0.902,-0.903 -0.902,-0.903c-0.038,-0.038 -0.082,-0.069 -0.13,-0.093l-1.928,-0.964c0,0 -3.942,-3.943 -3.942,-3.943c-0.123,-0.122 -0.3,-0.172 -0.469,-0.133c-0.169,0.04 -0.305,0.164 -0.359,0.329l-0.526,1.577c0,-0 -0.526,-1.577 -0.526,-1.577c-0.068,-0.204 -0.259,-0.342 -0.474,-0.342l-2,-0c-0.078,-0 -0.154,0.018 -0.224,0.053l-3.94,1.97c0,-0 -4.934,0.987 -4.934,0.987c-0.099,0.019 -0.188,0.068 -0.258,0.139Zm-35.144,-4.649l0,0.882c-0,-0 -1.911,3.822 -1.911,3.822c0,-0 -0.796,0.796 -0.796,0.796c-0,-0 -0.293,-0 -0.293,-0c0,-0 0,-2.293 0,-2.293c0,0 2.854,-2.853 2.854,-2.853c0.093,-0.094 0.146,-0.221 0.146,-0.354Zm0,-2.02l0,1.02c0,-0.167 -0.084,-0.323 -0.223,-0.416l-3,-2c-0.017,-0.012 -0.035,-0.022 -0.053,-0.031l-1.494,-0.747c0,0 1.686,-2.529 1.686,-2.529c0.086,-0.128 0.107,-0.289 0.058,-0.435l-0.902,-2.707c0,0 0.291,-0.291 0.291,-0.291c0,0 0.69,1.38 0.69,1.38c0.084,0.169 0.258,0.276 0.447,0.276c0.189,0 0.363,-0.107 0.447,-0.276l0.862,-1.724c0,-0 1.691,-0 1.691,-0c0.204,-0 0.388,-0.124 0.464,-0.314l0.875,-2.186c-0,-0 2.661,-0 2.661,-0c0.167,-0 0.323,-0.084 0.416,-0.223l0.707,-1.06c-0,0 1.577,1.183 1.577,1.183c0.087,0.065 0.192,0.1 0.3,0.1l2.882,-0c-0,0 4.274,2.137 4.274,2.137c-0,-0 -6.363,6.363 -6.363,6.363c-0,0 -1.793,-0 -1.793,-0c-0.054,0 -0.107,0.009 -0.158,0.026l-6,2c-0.198,0.066 -0.333,0.247 -0.342,0.454Zm14.207,-11.98l0.647,-0.646c0.093,-0.094 0.146,-0.221 0.146,-0.354l0,-0.5c0,-0 1.293,-0 1.293,-0c-0,-0 0.707,0.707 0.707,0.707c0,0 0,1.293 0,1.293c-0,-0 -1.382,-0 -1.382,-0c0,-0 -0.894,-0.447 -0.894,-0.447c-0.07,-0.035 -0.146,-0.053 -0.224,-0.053l-0.293,-0Zm-8.817,-3.5l-0.405,-1.621c-0.056,-0.223 -0.256,-0.379 -0.485,-0.379l-0.5,-0c0,-0 0,-2.5 0,-2.5c0,-0.133 -0.053,-0.26 -0.146,-0.354l-1,-1c-0.094,-0.093 -0.221,-0.146 -0.354,-0.146l-2.793,0c0,0 -0.229,-0.229 -0.229,-0.229c-0,-0 3.084,-0.771 3.084,-0.771c-0,-0 1.938,-0 1.938,-0c0.229,0 0.429,-0.156 0.485,-0.379l0.453,-1.812c0,-0 0.998,-0.666 0.998,-0.666c0,0 0.564,0.564 0.564,0.564c0,0 0,0.793 0,0.793c0,0.276 0.224,0.5 0.5,0.5l2.691,-0c-0,-0 1.701,3.401 1.701,3.401c-0,0 -0.599,0.599 -0.599,0.599c-0,-0 -2.793,-0 -2.793,-0c-0.189,-0 -0.363,0.107 -0.447,0.276l-1.862,3.724l-0.801,-0Zm9.973,-9.656l0.19,0.38c0.084,0.169 0.258,0.276 0.447,0.276l1,-0c0,0 0,1 0,1c-0,-0 -2.293,-0 -2.293,-0c0,0 -0.5,-0.5 -0.5,-0.5l1.156,-1.156Z"/></svg>