<?xml version="1.0" encoding="UTF-8" standalone="no"?><!DOCTYPE svg PUBLIC "-//W3C//DTD SVG 1.1//EN" "http://www.w3.org/Graphics/SVG/1.1/DTD/svg11.dtd"><svg width="100px" height="64px" version="1.1" xmlns="http://www.w3.org/2000/svg" xmlns:xlink="http://www.w3.org/1999/xlink" xml:space="preserve" xmlns:serif="http://www.serif.com/" style="fill-rule:evenodd;clip-rule:evenodd;stroke-linejoin:round;stroke-miterlimit:2;"><g id="Eesti"><g id="Eesti1" serif:id="Eesti"><path d="M10.89,27.5l-0.405,-1.621c-0.056,-0.223 -0.256,-0.379 -0.485,-0.379l-0.5,0c-0,-0 -0,-2.5 -0,-2.5c0,-0.133 -0.053,-0.26 -0.146,-0.354l-1,-1c-0.094,-0.093 -0.221,-0.146 -0.354,-0.146l-2.793,0c0,0 -0.229,-0.229 -0.229,-0.229c-0,-0 3.084,-0.771 3.084,-0.771c-0,0 1.938,0 1.938,0c0.229,0 0.429,-0.156 0.485,-0.379l0.453,-1.812c0,-0 0.998,-0.666 0.998,-0.666c0,0 0.564,0.564 0.564,0.564c0,0 0,0.793 0,0.793c0,0.276 0.224,0.5 0.5,0.5l2.691,0l1.701,3.401c-0,0 -0.599,0.599 -0.599,0.599l-2.793,0c-0.189,0 -0.363,0.107 -0.447,0.276l-1.862,3.724l-0.801,-0Z"/><path d="M20.354,18.354l0.509,-0.51c0,0 0.19,0.38 0.19,0.38c0.084,0.169 0.258,0.276 0.447,0.276l1,0l0,1l-2.293,0c0,0 -0.5,-0.5 -0.5,-0.5c0,-0 0.647,-0.646 0.647,-0.646Z"/><path d="M5.5,45l0,0.882l-1.911,3.822c0,-0 -0.796,0.796 -0.796,0.796c-0,0 -0.293,0 -0.293,0c0,-0 0,-2.293 0,-2.293l2.854,-2.853c0.093,-0.094 0.146,-0.221 0.146,-0.354Zm-0,-1.016c-0.005,-0.161 -0.088,-0.31 -0.223,-0.4l-3,-2c-0.017,-0.012 -0.035,-0.022 -0.053,-0.031l-1.494,-0.747c0,0 1.686,-2.529 1.686,-2.529c0.086,-0.128 0.107,-0.289 0.058,-0.435l-0.902,-2.707c0,0 0.291,-0.291 0.291,-0.291c0,0 0.69,1.38 0.69,1.38c0.084,0.169 0.258,0.276 0.447,0.276c0.189,0 0.363,-0.107 0.447,-0.276l0.862,-1.724c0,-0 1.691,-0 1.691,-0c0.204,-0 0.388,-0.124 0.464,-0.314l0.875,-2.186c-0,-0 2.661,-0 2.661,-0c0.167,-0 0.323,-0.084 0.416,-0.223l0.707,-1.06c-0,0 1.577,1.183 1.577,1.183c0.087,0.065 0.192,0.1 0.3,0.1l2.882,-0l4.274,2.137l-6.363,6.363c-0,0 -1.793,-0 -1.793,-0c-0.054,0 -0.107,0.009 -0.158,0.026l-6,2c-0.204,0.068 -0.342,0.259 -0.342,0.474l-0,1l-0,-0.016Z"/><path d="M22.5,31.5c0,0 0,-1.293 -0,-1.293c-0,0 -0.707,-0.707 -0.707,-0.707c-0,0 -1.293,-0 -1.293,0l0,0.5c-0,0.133 -0.053,0.26 -0.146,0.354l-0.647,0.646l0.349,0.003l0.093,0.019l0.075,0.031c-0,-0 0.894,0.447 0.894,0.447l1.382,0Z"/><path d="M94.979,7.5l-0.103,-0.013l0.018,0.002l-0.019,-0.002c-0,0 -6.911,-0.987 -6.911,-0.987l-7.964,0c-0.133,-0 -0.26,-0.053 -0.354,-0.146c0,-0 -3.781,-3.782 -3.781,-3.782l-2.707,0.902c-0.146,0.049 -0.307,0.028 -0.435,-0.058c-0,0 -2.874,-1.916 -2.874,-1.916l-6.849,-0c-0.133,-0 -0.26,-0.053 -0.354,-0.146c0,-0 -1.146,-1.147 -1.146,-1.147l0,0.793c-0,0.161 -0.077,0.312 -0.208,0.406c-0.13,0.094 -0.298,0.119 -0.45,0.068c-0,0 -2.342,-0.78 -2.342,-0.78l0,1.306c0,0.189 -0.107,0.363 -0.276,0.447l-2,1c-0.07,0.035 -0.146,0.053 -0.224,0.053l-7,-0c-0.133,-0 -0.26,-0.053 -0.354,-0.146c0,-0 -1.146,-1.147 -1.146,-1.147l0,1.793c-0,0.189 -0.107,0.363 -0.276,0.447l-2,1c-0.07,0.035 -0.146,0.053 -0.224,0.053l-4,-0c-0.133,-0 -0.26,-0.053 -0.354,-0.146c0,-0 -0.568,-0.569 -0.568,-0.569l-1.662,2.492c-0.018,0.028 -0.039,0.053 -0.062,0.077l-1,1c-0.134,0.133 -0.332,0.18 -0.512,0.12c-0,0 -1.618,-0.539 -1.618,-0.539l1.192,1.788c0.102,0.153 0.112,0.35 0.025,0.513c-0.087,0.163 -0.257,0.264 -0.441,0.264c-0,0 -3.882,0 -3.882,0l-1.894,0.947c-0.07,0.035 -0.146,0.053 -0.224,0.053c-0,0 -2.59,0 -2.59,0c-0,0 -0.91,4.55 -0.91,4.549c-0,0 -0,0.451 0,0.451l1.5,0c0.276,-0 0.5,0.224 0.5,0.5l-0,3c-0,0.276 -0.224,0.5 -0.5,0.5c-0,0 -1.691,0 -1.691,0c0,0 -0.701,1.401 -0.701,1.401c0,0 0.688,0.688 0.688,0.688c0,0 1.822,0.911 1.822,0.911l2.882,0c0.276,-0 0.5,0.224 0.5,0.5l-0,2c-0,0.276 -0.224,0.5 -0.5,0.5c-0,0 -1.793,0 -1.793,0c0,0 -2.564,2.564 -2.564,2.564l1.773,2.659c0.025,0.037 0.044,0.077 0.058,0.119c0,-0 0.963,2.888 0.963,2.888c0,-0 2.859,2.859 2.859,2.859c0,0 3.605,1.803 3.605,1.803l1.745,-1.746c0.055,-0.054 0.122,-0.096 0.196,-0.12l3,-1c0.236,-0.079 0.494,0.028 0.605,0.25l1,2c0.071,0.141 0.071,0.307 0,0.448c0,-0 -0.947,1.894 -0.947,1.894l0,5.882c-0,0.054 -0.009,0.107 -0.026,0.158l-0.83,2.491c0.07,-0.071 0.159,-0.12 0.258,-0.139c-0,-0 4.934,-0.987 4.934,-0.987l3.94,-1.97c0.07,-0.035 0.146,-0.053 0.224,-0.053l2,0c0.215,-0 0.406,0.138 0.474,0.342c0,-0 0.526,1.577 0.526,1.577l0.526,-1.577c0.054,-0.165 0.19,-0.289 0.359,-0.329c0.169,-0.039 0.346,0.011 0.469,0.133c-0,0 3.942,3.943 3.942,3.943l1.928,0.964c0.048,0.024 0.092,0.055 0.13,0.093c-0,0 0.902,0.903 0.902,0.903l3.865,0.966c0.223,0.056 0.379,0.256 0.379,0.485c0,0 0,1.793 0,1.793l6.707,6.707l1.626,0l3.867,-2.9c0.152,-0.114 0.354,-0.132 0.524,-0.047c-0,-0 7.442,3.721 7.442,3.721l0.849,-3.395c0.022,-0.088 0.067,-0.168 0.131,-0.233c0,0 1.854,-1.853 1.854,-1.853l0,-2.793c0,-0.229 0.156,-0.429 0.379,-0.485c-0,-0 3.621,-0.905 3.621,-0.905c0,-0 0,-1.301 -0,-1.301l-1.724,-0.862c-0.13,-0.065 -0.226,-0.184 -0.261,-0.326c-0,0 -0.992,-3.967 -0.992,-3.967l-1.987,-4.968c-0.048,-0.12 -0.048,-0.252 -0,-0.372c-0,0 1.938,-4.844 1.938,-4.844l-2.956,-10.838c-0.044,-0.16 -0.006,-0.332 0.102,-0.457c0,-0 5.929,-6.917 5.929,-6.917l1.97,-6.895c0.033,-0.114 0.105,-0.213 0.204,-0.279c-0,-0 2.958,-1.973 2.958,-1.973c0,0 1.676,-1.675 1.676,-1.675c-0,0 -1.496,-2.243 -1.496,-2.243l-2.584,1.723c-0.082,0.055 -0.178,0.084 -0.277,0.084l-0.021,-0Z"/></g></g></svg>