<?xml version="1.0" encoding="UTF-8" standalone="no"?><!DOCTYPE svg PUBLIC "-//W3C//DTD SVG 1.1//EN" "http://www.w3.org/Graphics/SVG/1.1/DTD/svg11.dtd"><svg width="171px" height="383px" version="1.1" xmlns="http://www.w3.org/2000/svg" xmlns:xlink="http://www.w3.org/1999/xlink" xml:space="preserve" xmlns:serif="http://www.serif.com/" style="fill-rule:evenodd;clip-rule:evenodd;stroke-linejoin:round;stroke-miterlimit:2;"><path id="finland" d="M110.727,362.571l-4.704,1.881c-0,0 -3.799,-1.899 -3.799,-1.899c-0.161,-0.08 -0.352,-0.069 -0.501,0.031l-2.911,1.94c-0,0 -5.18,0.864 -5.18,0.864c0,-0 0.858,-4.29 0.858,-4.29c0.044,-0.216 -0.06,-0.435 -0.254,-0.539c-0.194,-0.104 -0.434,-0.068 -0.59,0.087l-6,6c-0.038,0.038 -0.069,0.082 -0.093,0.13l-0.759,1.517c0,0 -4.537,-2.722 -4.537,-2.722c-0.173,-0.104 -0.392,-0.093 -0.555,0.027c-0.162,0.121 -0.236,0.327 -0.187,0.523l0.869,3.475c-0,-0 -5.466,0.911 -5.466,0.911c-0.026,0.004 -0.051,0.01 -0.076,0.019l-6,2c-0.006,0.002 -0.012,0.004 -0.018,0.006l-8,3c-0.066,0.025 -0.127,0.064 -0.178,0.114l-2.853,2.854c-0,0 -5.793,0 -5.793,0c-0.072,0 -0.143,0.016 -0.208,0.045c-0,0 -2.914,1.337 -5.317,1.877c-0.929,0.209 -1.773,0.32 -2.29,0.114c-0.987,-0.395 -1.796,-0.079 -2.409,0.456c-0.4,0.348 -0.706,0.796 -0.915,1.161c-0,0 -2.507,-2.507 -2.507,-2.507c-0.024,-0.023 -0.049,-0.044 -0.077,-0.062l-2.916,-1.945c-0,0 -1.83,-2.744 -1.83,-2.744c-0,-0 0.959,-4.797 0.959,-4.797c0.041,-0.203 -0.048,-0.41 -0.223,-0.521c-0.176,-0.111 -0.401,-0.101 -0.567,0.023l-3.79,2.843c-0,-0 -2.313,-0.771 -2.313,-0.771c0,0 0.888,-3.551 0.888,-3.551c0.037,-0.149 0.004,-0.307 -0.091,-0.429c-0.095,-0.121 -0.24,-0.192 -0.394,-0.192l-3.919,0c0,0 -5.703,-1.901 -5.703,-1.901c0,-0 -1.914,-4.785 -1.914,-4.785c-0.102,-0.256 -0.393,-0.381 -0.65,-0.278l-4.535,1.814c-0,0 -1.779,-4.446 -1.779,-4.446c-0,-0 -0,-5.855 -0,-5.855c0,0.001 1.99,-9.951 1.99,-9.951c0.003,-0.016 0.006,-0.032 0.008,-0.048l0.972,-9.726c0,-0 1.754,-0.877 1.754,-0.877c0.247,-0.123 0.347,-0.424 0.223,-0.671l-4,-8c-0.009,-0.018 -0.019,-0.036 -0.031,-0.053l-3.877,-5.816c-0,-0 1.946,-7.786 1.946,-7.786c0.021,-0.085 0.02,-0.174 -0.004,-0.258l-1.991,-6.968c0,0 -0.983,-6.881 -0.983,-6.881c0,0 0.964,-4.819 0.964,-4.819c-0,0 1.945,-2.918 1.945,-2.918c0.039,-0.059 0.066,-0.125 0.077,-0.195l0.904,-5.423c0,0 2.445,0.815 2.445,0.815c0.262,0.088 0.545,-0.054 0.632,-0.316l1,-3c0.06,-0.18 0.013,-0.378 -0.12,-0.512l-1.605,-1.605c-0,0 4.037,-3.23 4.037,-3.23c0,0 1.75,4.375 1.75,4.375c0.067,0.167 0.219,0.286 0.398,0.31c0.18,0.023 0.358,-0.051 0.466,-0.196l6,-8c0.105,-0.14 0.129,-0.324 0.064,-0.486l-1.725,-4.314c-0,0 2.261,0 2.261,0c0.189,0 0.363,-0.107 0.447,-0.276l2,-4c0.017,-0.033 0.029,-0.067 0.038,-0.103l0.786,-3.143c-0,0 1.375,1.376 1.375,1.376c0.196,0.195 0.512,0.195 0.708,-0l2,-2c0.038,-0.038 0.069,-0.082 0.093,-0.13l1.926,-3.851c-0,-0 5.851,-2.926 5.851,-2.926c0.138,-0.069 0.236,-0.198 0.266,-0.349l0.92,-4.598c-0,0 2.59,0 2.59,0c0.276,0 0.5,-0.224 0.5,-0.5l-0,-1.867c0,-0 3.901,-6.827 3.901,-6.827c-0,0 3.953,-3.952 3.953,-3.952c0.028,-0.029 0.054,-0.062 0.075,-0.097l3,-5c0.013,-0.023 0.025,-0.047 0.035,-0.071l1.987,-4.968c0,-0 3.87,-6.772 3.87,-6.772c0,-0 4.449,-0.89 4.449,-0.89c-0,-0 1.814,2.721 1.814,2.721c0.153,0.23 0.464,0.292 0.693,0.139l3,-2c0.21,-0.14 0.283,-0.414 0.17,-0.64l-1.46,-2.92c0,0 1.855,0.618 1.855,0.618c0.152,0.051 0.32,0.026 0.45,-0.068c0.131,-0.094 0.208,-0.245 0.208,-0.406l-0,-3c0,-0.078 -0.018,-0.154 -0.053,-0.224l-1.939,-3.877c0,-0 0.991,-13.863 0.991,-13.863c0.01,-0.145 -0.043,-0.287 -0.145,-0.39l-5,-5c-0.08,-0.079 -0.184,-0.13 -0.296,-0.143l-4.93,-0.575c0,0 -2.578,-3.997 -2.578,-3.997c0,-0 1.924,-5.773 1.924,-5.773c0.077,-0.23 -0.022,-0.481 -0.235,-0.597c-0.213,-0.116 -0.478,-0.063 -0.629,0.127l-3.61,4.512c0,-0 -3.585,-4.482 -3.585,-4.482c-0,0 -3.979,-6.963 -3.979,-6.963c-0,-0 -4.877,-8.778 -4.877,-8.778c0,0 4.896,-10.77 4.896,-10.77c0.023,-0.05 0.037,-0.103 0.043,-0.157l1,-10c0.01,-0.1 -0.011,-0.201 -0.059,-0.289l-5.891,-10.8c0,0 2.92,-7.785 2.92,-7.785c0.062,-0.165 0.032,-0.351 -0.078,-0.488l-3.918,-4.899c-0,0 -0.964,-5.781 -0.964,-5.781c0,0 2.982,-14.91 2.982,-14.91c0.031,-0.154 -0.012,-0.313 -0.116,-0.43l-7.969,-8.965c-0,-0 -5.976,-9.96 -5.976,-9.96c-0.062,-0.103 -0.158,-0.18 -0.271,-0.217l-11.888,-3.963c0,-0 -5.895,-5.895 -5.895,-5.895c-0,-0 -10.97,-13.962 -10.97,-13.962c0,0 -3.349,-5.023 -3.349,-5.023c0,-0 4.862,0.81 4.862,0.81c0.133,0.022 0.269,-0.01 0.377,-0.09c0.109,-0.079 0.181,-0.199 0.2,-0.332l0.952,-6.667c0,-0 7.304,-1.826 7.304,-1.826c0,-0 8.813,15.667 8.813,15.667c0.004,0.007 0.008,0.013 0.012,0.02l5,8c0.062,0.099 0.156,0.173 0.266,0.209l12,4c0.146,0.049 0.307,0.028 0.435,-0.058l8.874,-5.916c0,0 3.682,0 3.682,0c0,0 11.867,8.9 11.867,8.9c0.132,0.099 0.306,0.127 0.462,0.073c0.157,-0.054 0.277,-0.182 0.32,-0.341l2.93,-10.742c-0,-0 8.746,-2.916 8.746,-2.916c0.154,-0.051 0.274,-0.174 0.321,-0.33l3,-10c0.018,-0.06 0.024,-0.123 0.019,-0.186l-0.989,-11.87c0,0 4.933,-10.851 4.933,-10.851c-0,-0 4.982,-7.972 4.982,-7.972c0.008,-0.013 0.016,-0.027 0.023,-0.041l2.835,-5.67c0,-0 5.636,0.939 5.636,0.939c0.09,0.015 0.183,0.005 0.268,-0.029l5,-2c0.007,-0.003 0.014,-0.006 0.021,-0.009l10.508,-4.776c-0,-0 3.815,10.492 3.815,10.492c0.046,0.126 0.141,0.229 0.263,0.284l10.896,4.953c0,-0 4.811,5.773 4.811,5.773c-0,0 -0,7.661 -0,7.661c-0,0 -6.91,9.871 -6.91,9.871c-0.105,0.151 -0.119,0.346 -0.037,0.511l2.828,5.657c0,-0 -8.713,7.745 -8.713,7.745c-0.155,0.138 -0.209,0.358 -0.135,0.552c0.073,0.194 0.259,0.322 0.467,0.322l5.32,0c-0,-0 -4.797,15.351 -4.797,15.351c-0.028,0.088 -0.03,0.181 -0.008,0.27l3,12c0.034,0.136 0.123,0.251 0.246,0.318l10.862,5.925c-0,-0 4.93,9.86 4.93,9.86c0.009,0.018 0.019,0.036 0.031,0.053l3.899,5.849c-0,-0 -0.967,8.698 -0.967,8.698c0,-0 -7.932,11.899 -7.932,11.899c-0.004,0.006 -0.009,0.013 -0.013,0.02l-6,10c-0.084,0.139 -0.094,0.311 -0.028,0.46l8,18c0.005,0.011 0.01,0.022 0.016,0.032l7.955,14.917c0,0 1.952,16.586 1.952,16.586c-0,-0 -4.723,2.833 -4.723,2.833c-0.151,0.091 -0.243,0.253 -0.243,0.429l-0,18.691c0,-0 -3.724,1.862 -3.724,1.862c-0.247,0.123 -0.347,0.424 -0.223,0.671l4,8c0.065,0.13 0.184,0.226 0.326,0.261l3.752,0.938c-0,0 1.782,4.457 1.782,4.457c0,-0 -3.767,3.766 -3.767,3.766c-0.144,0.145 -0.186,0.363 -0.106,0.551l3,7c0.032,0.072 0.079,0.137 0.14,0.187l5.864,4.887c0,0 0.935,4.675 0.935,4.675c0,-0 -2.891,6.747 -2.891,6.747c-0,-0 -5.908,4.923 -5.908,4.923c-0.207,0.172 -0.24,0.478 -0.075,0.691l7,9c0.023,0.029 0.049,0.056 0.078,0.08l10.901,8.918c-0,0 1.952,4.881 1.952,4.881c0.011,0.027 0.024,0.054 0.04,0.079l4.84,7.744c-0,-0 -6.835,11.717 -6.835,11.717c-0,0 -7.985,10.98 -7.985,10.98c-0.007,0.009 -0.013,0.018 -0.019,0.027l-11.97,18.953c0,-0 -9.961,9.96 -9.961,9.96c-0.013,0.013 -0.025,0.027 -0.036,0.042l-7.978,9.971l-14.905,13.912Zm-81.628,12.939l0.019,-0.01c0,0 0.882,0 0.882,0c0.276,0 0.5,-0.224 0.5,-0.5l-0,-0.306c-0,-0 2,0.666 2,0.666c-0,0 -0,2.433 -0,2.433c0,-0 -1.707,1.707 -1.707,1.707c-0,0 -0.586,0 -0.586,0c0,0 -0.853,-0.854 -0.853,-0.854c-0.196,-0.195 -0.512,-0.195 -0.708,0l-0.146,0.147c-0,-0 -0,-1.293 -0,-1.293c-0,0 0.5,0 0.5,0c0.276,0 0.5,-0.224 0.5,-0.5l-0,-1c0,-0.242 -0.173,-0.445 -0.401,-0.49Zm32.509,-166.609l0.701,-1.401c0,0 1.484,0 1.484,0c-0,-0 0.5,0.5 0.5,0.5c-0,0 -1.5,1.5 -1.5,1.5c-0,0 -0.586,0 -0.586,0l-0.599,-0.599Z"/></svg>