<?xml version="1.0" encoding="UTF-8" standalone="no"?><!DOCTYPE svg PUBLIC "-//W3C//DTD SVG 1.1//EN" "http://www.w3.org/Graphics/SVG/1.1/DTD/svg11.dtd"><svg width="104px" height="54px" version="1.1" xmlns="http://www.w3.org/2000/svg" xmlns:xlink="http://www.w3.org/1999/xlink" xml:space="preserve" xmlns:serif="http://www.serif.com/" style="fill-rule:evenodd;clip-rule:evenodd;stroke-linejoin:round;stroke-miterlimit:2;"><path id="georgia" d="M94.11,50.512l-3.766,-0.941c0,-0 -0.897,-1.795 -0.897,-1.795c-0.059,-0.118 -0.163,-0.208 -0.289,-0.25l-3,-1c-0.051,-0.017 -0.104,-0.026 -0.158,-0.026l-3,0c-0.078,0 -0.154,0.018 -0.224,0.053l-3.958,1.979c-0,0 -6.888,1.968 -6.888,1.968c-0,0 -5.93,0 -5.93,0c-0.033,0 -0.066,0.003 -0.098,0.01l-5,1c-0.02,0.004 -0.04,0.009 -0.06,0.016l-2.923,0.974c-0,-0 -3.838,0 -3.838,0c0,-0 -2.76,-0.92 -2.76,-0.92c-0,-0 -1.905,-2.857 -1.905,-2.857c-0.037,-0.055 -0.084,-0.102 -0.139,-0.139l-2.916,-1.945c-0,0 -1.945,-2.916 -1.945,-2.916c-0.093,-0.139 -0.249,-0.223 -0.416,-0.223l-3,0c-0.133,0 -0.26,0.053 -0.354,0.146l-1.81,1.811c-0,0 -4.738,-0.947 -4.738,-0.947c-0.032,-0.007 -0.065,-0.01 -0.098,-0.01l-4,0c-0.078,-0 -0.154,0.018 -0.224,0.053l-1.834,0.917c-0,0 -3.09,-0.772 -3.09,-0.772c-0,-0 2.548,-3.398 2.548,-3.398c0.032,-0.043 0.057,-0.091 0.074,-0.142l1,-3c0.03,-0.09 0.034,-0.187 0.011,-0.279l-0.995,-3.981c-0,0 -0.997,-5.98 -0.997,-5.98c-0.006,-0.036 -0.015,-0.07 -0.029,-0.104l-1.964,-4.91c-0,-0 0,-2.904 0,-2.904c-0,-0.176 -0.092,-0.338 -0.243,-0.429l-4.903,-2.942c-0,0 -1.938,-2.906 -1.938,-2.906c-0.048,-0.073 -0.115,-0.131 -0.192,-0.17l-4,-2c-0.04,-0.02 -0.082,-0.035 -0.126,-0.043l-4.903,-0.981c0,0 -2.834,-1.89 -2.834,-1.89c-0,0 -1.945,-2.916 -1.945,-2.916c-0.062,-0.093 -0.152,-0.162 -0.258,-0.197l-2.561,-0.854c0,0 0.822,-3.284 0.822,-3.284c-0.001,-0 2.507,-0.836 2.507,-0.836c0,-0 2.797,1.864 2.797,1.864c0.082,0.055 0.178,0.084 0.277,0.084l3.833,0c0,-0 3.867,2.9 3.867,2.9c0.087,0.065 0.192,0.1 0.3,0.1l3.919,0c-0,0 2.76,0.92 2.76,0.92c0,0 1.905,2.857 1.905,2.857c0.093,0.139 0.249,0.223 0.416,0.223l9,0c0.041,0 0.082,-0.005 0.121,-0.015l3.786,-0.946c-0,-0 2.816,1.877 2.816,1.877c0.082,0.055 0.178,0.084 0.277,0.084l2.882,0c-0,0 3.822,1.911 3.822,1.911c-0,-0 2.942,2.943 2.942,2.943c0.07,0.069 0.159,0.117 0.256,0.136l4.889,0.978c-0,0 3.709,2.782 3.709,2.782c-0,0 0,1.75 0,1.75c0,0.215 0.138,0.406 0.342,0.474l3,1c0.103,0.035 0.213,0.035 0.316,0l3,-1c0.035,-0.011 0.068,-0.026 0.099,-0.045l4.881,-2.929c0.001,0 3.502,0 3.502,0c-0,0 0.886,2.658 0.886,2.658c0.054,0.165 0.19,0.289 0.359,0.329c0.169,0.039 0.346,-0.011 0.469,-0.133l1.799,-1.8c0,-0 3.642,0.91 3.642,0.91c-0,0 2.928,1.952 2.928,1.952c0.082,0.055 0.178,0.084 0.277,0.084l2.849,0c-0,0 2.58,1.721 2.58,1.721c0,-0 -0.914,3.658 -0.914,3.658c-0.038,0.151 -0.003,0.311 0.095,0.433l4,5c0.045,0.057 0.102,0.103 0.166,0.135l7.553,3.777c0,-0 -0.702,1.403 -0.702,1.403c0,0 -1.851,0.926 -1.851,0.926c-0.169,0.084 -0.276,0.258 -0.276,0.447l0,2c0,0.133 0.053,0.26 0.146,0.354l4.917,4.916c-0,0 0.917,2.75 0.917,2.75c-0,-0 -0.814,3.254 -0.814,3.254c0,0 -3.442,-1.721 -3.442,-1.721c-0.04,-0.02 -0.082,-0.035 -0.126,-0.043l-4.988,-0.998Z"/></svg>