<?xml version="1.0" encoding="UTF-8" standalone="no"?><!DOCTYPE svg PUBLIC "-//W3C//DTD SVG 1.1//EN" "http://www.w3.org/Graphics/SVG/1.1/DTD/svg11.dtd"><svg width="144px" height="193px" version="1.1" xmlns="http://www.w3.org/2000/svg" xmlns:xlink="http://www.w3.org/1999/xlink" xml:space="preserve" xmlns:serif="http://www.serif.com/" style="fill-rule:evenodd;clip-rule:evenodd;stroke-linejoin:round;stroke-miterlimit:2;"><path id="germany" d="M64.618,8.592l-0.099,1.182c-0,0 -2.873,2.872 -2.873,2.872c-0.143,0.143 -0.185,0.359 -0.108,0.545c0.077,0.187 0.26,0.309 0.462,0.309l4.306,0c0,-0 -0.78,2.342 -0.78,2.342c-0.06,0.18 -0.013,0.378 0.12,0.512l1,1c0.196,0.195 0.512,0.195 0.708,-0l2.724,-2.724c-0,-0 4.665,2.799 4.665,2.799c0.011,0.006 0.022,0.012 0.033,0.018l2,1c0.193,0.096 0.425,0.059 0.578,-0.093l1.781,-1.782c0,0 2.268,0.756 2.268,0.756c-0,-0 -0.854,3.416 -0.854,3.416c-0,0 -1.756,1.756 -1.756,1.756c-0,0 -1.793,0 -1.793,0c-0.276,-0 -0.5,0.224 -0.5,0.5l-0,2c-0,0.133 0.053,0.26 0.146,0.354l1,1c0.038,0.038 0.082,0.069 0.13,0.093l2,1c0.193,0.096 0.425,0.059 0.578,-0.093l0.853,-0.854c0,0 1.586,0 1.586,0c-0,-0 0.853,0.854 0.853,0.854c0.038,0.038 0.082,0.069 0.13,0.093l2,1c0.07,0.035 0.146,0.053 0.224,0.053l2,0c0.189,0 0.363,-0.107 0.447,-0.276l0.964,-1.928c-0,0 1.943,-1.942 1.943,-1.942c0.038,-0.038 0.069,-0.082 0.093,-0.13l0.862,-1.724c0,0 4.484,0 4.484,0c-0,-0 0.853,0.854 0.853,0.854c0.143,0.143 0.359,0.185 0.545,0.108c0.187,-0.077 0.309,-0.26 0.309,-0.462l0,-0.882c0,0 0.911,-1.822 0.911,-1.822c-0,0 1.688,-1.688 1.688,-1.688c-0,0 1.677,0.839 1.677,0.839c0.193,0.096 0.425,0.059 0.578,-0.093l1,-1c0.038,-0.038 0.069,-0.082 0.093,-0.13l0.862,-1.724c0,-0 3.691,0 3.691,0c0.054,0 0.107,-0.009 0.158,-0.026l2.589,-0.863c-0,0 0.806,1.613 0.806,1.613c0.024,0.048 0.055,0.092 0.093,0.13l3,3c0.017,0.016 0.035,0.032 0.054,0.046l4,3c0.131,0.098 0.302,0.126 0.458,0.074l2.589,-0.863c-0,0 0.645,1.29 0.645,1.29c-0,0 -0.746,0.745 -0.746,0.745c-0.125,0.126 -0.174,0.308 -0.13,0.479c0.044,0.172 0.176,0.307 0.347,0.356l6.905,1.973c0,-0 1.039,0.815 1.039,0.815c-0,0 -6.824,0.231 -6.824,0.231c-0.17,0.006 -0.326,0.098 -0.413,0.244c-0.087,0.147 -0.093,0.327 -0.017,0.48l1,2c0.059,0.118 0.163,0.208 0.289,0.25l2.936,0.979c0,0 2.945,1.963 2.945,1.963c0.017,0.012 0.035,0.022 0.053,0.031l1.724,0.862c0,0 0,14.54 0,14.54c-0,-0 -1.916,2.874 -1.916,2.874c-0.119,0.179 -0.111,0.414 0.021,0.584l6.86,8.819c-0,0 -0.955,4.776 -0.955,4.776c-0.019,0.095 -0.01,0.194 0.026,0.284l1.964,4.91c0,0 0,6.863 0,6.863c-0,-0 -0.993,5.959 -0.993,5.959c-0.019,0.113 0.002,0.23 0.059,0.33l3.983,6.97c-0,-0 1.937,4.844 1.937,4.844c0,-0 -0.963,6.74 -0.963,6.74c0,0 -2.577,3.437 -2.577,3.437c-0,-0 -4.592,-4.593 -4.592,-4.593c-0.094,-0.093 -0.221,-0.146 -0.354,-0.146l-3,0c-0.184,0 -0.354,0.101 -0.441,0.264c-0.087,0.163 -0.077,0.36 0.025,0.513l1.637,2.456c-0,-0 -2.361,0.787 -2.361,0.787c0,-0 -3.981,0.995 -3.981,0.995c-0.142,0.035 -0.261,0.131 -0.326,0.261l-0.891,1.782c0,-0 -4.76,0.952 -4.76,0.952c-0.064,0.013 -0.125,0.038 -0.179,0.074l-5.874,3.916c-0,0 -2.849,0 -2.849,0c-0.189,0 -0.363,0.107 -0.447,0.276l-0.908,1.815c0,0 -2.726,0.909 -2.726,0.909c-0,0 -3.919,0 -3.919,0c-0.133,0 -0.26,0.053 -0.354,0.146l-2,2c-0.054,0.055 -0.096,0.122 -0.12,0.196l-0.526,1.577c0,-0 -0.526,-1.577 -0.526,-1.577c-0.068,-0.204 -0.259,-0.342 -0.474,-0.342l-2,0c-0.15,0 -0.292,0.067 -0.387,0.183c-0.095,0.116 -0.133,0.268 -0.103,0.415l1,5c0.026,0.13 0.102,0.244 0.213,0.318l2.916,1.945c0,-0 1.76,2.639 1.76,2.639c0,-0 -1.815,2.723 -1.815,2.723c-0.086,0.128 -0.107,0.289 -0.058,0.435l2,6c0.024,0.074 0.066,0.141 0.12,0.196l4,4c0.055,0.054 0.122,0.096 0.196,0.12l2.86,0.954c-0,-0 3.908,4.884 3.908,4.884c0.011,0.015 0.023,0.029 0.036,0.042l3,3c0.048,0.047 0.105,0.085 0.168,0.11l4.824,1.93c-0,-0 1.838,3.676 1.838,3.676c0,0 -0.855,4.277 -0.855,4.277c-0,-0 -2.463,-0.821 -2.463,-0.821c-0.236,-0.079 -0.494,0.028 -0.605,0.25l-1.926,3.851c0,0 -3.851,1.926 -3.851,1.926c-0.011,0.006 -0.022,0.012 -0.033,0.018l-5,3c-0.114,0.068 -0.196,0.179 -0.228,0.308l-1,4c-0.026,0.102 -0.018,0.209 0.021,0.307l1.916,4.791c0,0 -0.899,1.799 -0.899,1.799c-0.068,0.136 -0.071,0.295 -0.007,0.433c0.063,0.138 0.186,0.239 0.333,0.276l3.476,0.869c-0,0 -1.486,4.457 -1.486,4.457c0,-0 -2.44,-4.068 -2.44,-4.068c-0.091,-0.151 -0.253,-0.243 -0.429,-0.243l-4.919,0c0,-0 -2.923,-0.974 -2.923,-0.974c-0.18,-0.06 -0.378,-0.013 -0.512,0.12l-1.886,1.887l-5.858,0.977l-5,1c-0.044,0.008 -0.086,0.023 -0.126,0.043l-5.74,2.87c-0,0 -2.759,-1.839 -2.759,-1.839c-0.047,-0.032 -0.1,-0.055 -0.156,-0.069l-4,-1c-0.039,-0.01 -0.08,-0.015 -0.121,-0.015l-3,-0c-0.276,0 -0.5,0.224 -0.5,0.5l0,3.691c0,-0 -3.276,1.638 -3.276,1.638c-0,0 -0.765,-1.529 -0.765,-1.529c-0.058,-0.154 -0.416,-1.123 -0.981,-2.948c-0.327,-1.055 -0.86,-1.435 -1.322,-1.559c-0.434,-0.116 -0.852,0.004 -1.127,0.126c0,-0 -2.752,-1.835 -2.752,-1.835c-0.168,-0.112 -0.386,-0.112 -0.554,-0l-2.723,1.815c0,0 -2.723,-1.815 -2.723,-1.815c-0.047,-0.032 -0.1,-0.055 -0.156,-0.069l-4,-1c-0.007,-0.002 -0.015,-0.004 -0.023,-0.005l-4.903,-0.981c0,0 -2.918,-1.945 -2.918,-1.945c-0.128,-0.086 -0.289,-0.107 -0.435,-0.058l-3,1c-0.148,0.049 -0.264,0.164 -0.315,0.312c-0.051,0.147 -0.029,0.31 0.057,0.439l1.686,2.529c-0,0 -1.171,0.586 -1.171,0.586c-0,-0 -1.745,-1.746 -1.745,-1.746c-0.153,-0.152 -0.385,-0.189 -0.578,-0.093l-3.814,1.907c-0,0 -2.804,-0.934 -2.804,-0.934c-0.103,-0.035 -0.213,-0.035 -0.316,-0l-2.638,0.879c0,-0 -1.678,-2.518 -1.678,-2.518c-0,0 0.967,-5.805 0.967,-5.805c0.005,-0.027 0.007,-0.054 0.007,-0.082l0,-3.919c-0,0 1.974,-5.923 1.974,-5.923c0.007,-0.02 0.012,-0.04 0.016,-0.06l0.963,-4.813c-0,0 3.847,-2.885 3.847,-2.885c0.073,-0.055 0.13,-0.129 0.164,-0.214l2,-5c0.084,-0.21 0.017,-0.45 -0.164,-0.586l-4,-3c-0.131,-0.098 -0.302,-0.126 -0.458,-0.074l-2.804,0.934c0,0 -5.814,-2.907 -5.814,-2.907c-0.119,-0.06 -0.256,-0.069 -0.382,-0.027l-2.707,0.902c0,-0 -2.781,-2.782 -2.781,-2.782c-0.134,-0.133 -0.332,-0.18 -0.512,-0.12l-2.707,0.902c0,-0 -1.756,-1.756 -1.756,-1.756c-0,-0 -2.979,-3.972 -2.979,-3.972c-0.014,-0.019 -0.03,-0.037 -0.046,-0.054l-1.782,-1.781c0,-0 0.891,-2.673 0.891,-2.673c0,-0 1.984,-3.968 1.984,-3.968c0.078,-0.155 0.069,-0.339 -0.022,-0.487c-0.091,-0.147 -0.252,-0.237 -0.425,-0.237l-1.849,-0c0,-0 -2.713,-1.809 -2.713,-1.809c0,0 -0.923,-3.691 -0.923,-3.691c0,-0 0.923,-3.691 0.923,-3.691c0,-0 2.839,-1.893 2.839,-1.893c0.169,-0.112 0.253,-0.315 0.213,-0.514l-1,-5c-0.046,-0.234 -0.252,-0.402 -0.49,-0.402l-2.066,-0c0,-0 1.482,-2.223 1.482,-2.223c0.08,-0.119 0.104,-0.267 0.067,-0.405c-0.037,-0.139 -0.131,-0.255 -0.259,-0.319l-1.928,-0.964c0,0 -1.796,-1.796 -1.796,-1.796c0,-0 0,-4.793 0,-4.793c0,-0.133 -0.053,-0.26 -0.146,-0.354l-1.51,-1.509c0,-0 1.38,-0.69 1.38,-0.69c0.018,-0.009 0.036,-0.019 0.053,-0.031l3,-2c0.149,-0.099 0.233,-0.269 0.222,-0.447c-0.011,-0.178 -0.116,-0.337 -0.275,-0.416l-1.613,-0.806c0,-0 0.863,-2.589 0.863,-2.589c0.004,-0.012 0.008,-0.024 0.011,-0.037l1,-4c0.026,-0.102 0.018,-0.209 -0.021,-0.307l-2,-5c-0.005,-0.013 -0.011,-0.025 -0.017,-0.038l-1.802,-3.605c-0,0 2.355,-1.57 2.355,-1.57c-0,-0 2.723,1.815 2.723,1.815c0.128,0.086 0.289,0.107 0.435,0.058l6,-2c0.126,-0.042 0.23,-0.132 0.289,-0.25l1,-2c0.08,-0.161 0.069,-0.352 -0.031,-0.501l-1.723,-2.584c0,-0 5.584,-3.723 5.584,-3.723c0.139,-0.093 0.223,-0.249 0.223,-0.416l0,-5c0,-0.276 -0.224,-0.5 -0.5,-0.5l-2.882,-0c0,-0 -1.618,-0.809 -1.618,-0.809c0,-0 0,-3.191 0,-3.191c0,-0 4.5,-0 4.5,-0c0.276,0 0.5,-0.224 0.5,-0.5l0,-4.882c0,0 1.947,-3.894 1.947,-3.894c0.035,-0.07 0.053,-0.146 0.053,-0.224l0,-5.793c-0,0 1.796,-1.796 1.796,-1.796c0,-0 1.928,-0.964 1.928,-0.964c0.18,-0.09 0.289,-0.281 0.275,-0.482c-0.015,-0.202 -0.149,-0.375 -0.341,-0.439l-3,-1c-0.051,-0.017 -0.104,-0.026 -0.158,-0.026l-2.306,-0c-0,0 0.78,-2.342 0.78,-2.342c0.017,-0.051 0.026,-0.104 0.026,-0.158l0,-2.849c0,0 1.768,-2.651 1.768,-2.651c-0,-0 4.732,-0 4.732,-0c0.024,-0 0.047,-0.002 0.071,-0.005l6.543,-0.935c0.167,0.698 0.521,2.012 0.964,2.708c0.364,0.573 1.025,1.202 1.512,1.627c0.001,0.001 -1.314,0.658 -1.314,0.658c-0.247,0.123 -0.347,0.424 -0.223,0.671l1,2c0.084,0.169 0.258,0.276 0.447,0.276l3,-0c0.276,-0 0.5,-0.224 0.5,-0.5l0,-3.793c-0,0 1.049,1.049 1.049,1.049c-0,-0 0.966,3.865 0.966,3.865c0.054,0.216 0.244,0.37 0.466,0.379c0.222,0.008 0.423,-0.131 0.493,-0.342l1,-3c0.017,-0.051 0.026,-0.104 0.026,-0.158l0,-2c0,-0.078 -0.018,-0.154 -0.053,-0.224l-0.839,-1.677c0,-0 0.746,-0.745 0.746,-0.745c0.093,-0.094 0.146,-0.221 0.146,-0.354l0,-2.882c0,0 0.724,-1.447 0.724,-1.447c-0,-0 1.552,0.776 1.552,0.776c0.041,0.02 0.084,0.035 0.128,0.044c0,-0 2.176,0.401 3.276,-0.025c0.825,-0.319 1.637,-0.001 1.637,-0.001c0.058,0.023 0.12,0.035 0.183,0.035l2.691,-0c-0,0 0.862,1.724 0.862,1.724c0.009,0.018 0.019,0.036 0.031,0.053l2,3c0.018,0.028 0.039,0.053 0.062,0.077l2,2c0.038,0.038 0.082,0.069 0.13,0.093l4,2c0.155,0.078 0.339,0.069 0.487,-0.022c0.147,-0.091 0.237,-0.252 0.237,-0.425l0,-2c0,-0.215 -0.138,-0.406 -0.342,-0.474l-2.803,-0.935c-0,0 -0.908,-1.815 -0.908,-1.815c-0.009,-0.018 -0.019,-0.036 -0.031,-0.053l-2,-3c-0.018,-0.028 -0.039,-0.053 -0.062,-0.077l-2,-2c-0.055,-0.054 -0.122,-0.096 -0.196,-0.12l-3,-1c-0.051,-0.017 -0.104,-0.026 -0.158,-0.026l-2.64,-0c0,-0 -0.504,-1.513 -0.504,-1.513c0,0 0.92,0.46 0.92,0.46c0.247,0.124 0.548,0.024 0.671,-0.223l1,-2c0.071,-0.141 0.071,-0.307 0,-0.448l-1,-2c-0.059,-0.118 -0.163,-0.208 -0.289,-0.25l-2.453,-0.818c0,-0 1.742,-3.484 1.742,-3.484c0.096,-0.193 0.059,-0.425 -0.093,-0.578c-0.153,-0.152 -0.385,-0.189 -0.578,-0.093l-1.814,0.907c-0,0 -2.257,-0.752 -2.257,-0.752c0,-0 0.604,-1.208 0.604,-1.208c0,-0 3.691,-0 3.691,-0c0.215,-0 0.406,-0.138 0.474,-0.342l1,-3c0.035,-0.103 0.035,-0.213 0,-0.316l-1,-3c-0.007,-0.023 -0.016,-0.044 -0.027,-0.066l-1,-2c-0.024,-0.048 -0.055,-0.092 -0.093,-0.13l-2.854,-2.853c0,-0 0,-1.484 0,-1.484c0,0 1.55,-0.775 1.55,-0.775c-0,0 6.45,1.843 6.45,1.843c-0,0 0,0.623 0,0.623c0,0.154 0.071,0.299 0.192,0.394c0.122,0.095 0.28,0.128 0.429,0.091l4,-1c0.166,-0.041 0.299,-0.165 0.353,-0.327l0.745,-2.232c-0,-0 1.37,1.37 1.37,1.37c0,0 1.964,3.928 1.964,3.928c0.123,0.247 0.424,0.347 0.671,0.223l0.658,-0.329c-0,0 -0.329,0.658 -0.329,0.658c-0.035,0.07 -0.053,0.146 -0.053,0.224l0,1c0,0.249 0.183,0.46 0.43,0.495c-0,0 0.848,0.12 1.488,0.108c0.069,-0.002 0.135,-0.005 0.2,-0.011Zm54.382,6.908c-0.189,0 -0.363,0.107 -0.447,0.276l-0.862,1.724c-0,0 -1.382,-0 -1.382,-0c0,-0 -0.638,-1.276 -0.638,-1.276c-0,-0 1.553,-0.777 1.553,-0.777c0.169,-0.084 0.276,-0.258 0.276,-0.447l0,-2c0,-0.078 -0.018,-0.154 -0.053,-0.224l-0.46,-0.92c0,0 1.743,0.581 1.743,0.581c-0,0 0.916,0.917 0.916,0.917c0.114,0.113 0.275,0.165 0.434,0.14c0.159,-0.026 0.295,-0.127 0.367,-0.27l0.862,-1.724c0,-0 0.882,-0 0.882,-0c-0,-0 -1.638,3.276 -1.638,3.276c-0.124,0.247 -0.024,0.548 0.223,0.671l0.106,0.053c-0,-0 -1.882,-0 -1.882,0Zm-37.038,-2.705c0.07,-0.051 0.139,-0.102 0.198,-0.152l0.142,-0.143l1.389,-0c-0,0 0.5,1 0.5,1c-0,-0 -1.001,-0 -1.001,-0c-0.224,-0.173 -0.553,-0.349 -0.878,-0.511c-0.108,-0.054 -0.238,-0.128 -0.35,-0.194Z"/></svg>