<?xml version="1.0" encoding="UTF-8" standalone="no"?><!DOCTYPE svg PUBLIC "-//W3C//DTD SVG 1.1//EN" "http://www.w3.org/Graphics/SVG/1.1/DTD/svg11.dtd"><svg width="101px" height="136px" version="1.1" xmlns="http://www.w3.org/2000/svg" xmlns:xlink="http://www.w3.org/1999/xlink" xml:space="preserve" xmlns:serif="http://www.serif.com/" style="fill-rule:evenodd;clip-rule:evenodd;stroke-linejoin:round;stroke-miterlimit:2;"><path id="greece" d="M55.825,125.468c0.025,0.01 0.05,0.017 0.077,0.022l4.903,0.981c-0,-0 2.918,1.945 2.918,1.945c0.082,0.055 0.178,0.084 0.277,0.084l4,0c0.133,0 0.26,-0.053 0.354,-0.146l0.799,-0.8c0,-0 3.726,0.931 3.726,0.931c0.062,0.016 0.128,0.019 0.192,0.01c-0,-0 1.109,-0.165 1.82,-0.007c0.495,0.11 0.626,0.64 0.626,0.64c0.058,0.219 0.256,0.372 0.483,0.372l3.964,-0.001c0.48,0.034 0.542,0.576 0.542,0.576c0.037,0.244 0.247,0.425 0.494,0.425l2,0c0.078,0 0.154,-0.018 0.224,-0.053l1.894,-0.947c0,-0 1.382,0 1.382,0c-0,0 -0,1.293 -0,1.293c0,-0 -0.854,0.853 -0.854,0.853c-0.113,0.114 -0.165,0.275 -0.14,0.434c0.026,0.159 0.127,0.295 0.27,0.367l2,1c0.141,0.071 0.307,0.071 0.448,0l2,-1c0.048,-0.024 0.092,-0.055 0.13,-0.093l0.853,-0.854c0,0 2.793,0 2.793,0c0.133,0 0.26,-0.053 0.354,-0.146l0.646,-0.647c0,0 0.392,0.392 0.392,0.392c-0,-0 -0.839,1.677 -0.839,1.677c-0.035,0.07 -0.053,0.146 -0.053,0.224l0,1.479c-0.542,-0.016 -1.454,-0.028 -2.523,0.022c-1.685,0.078 -3.96,-0.001 -3.96,-0.001l-5.017,0c-0.027,0 -0.054,0.002 -0.081,0.007c-0,-0 -3.18,0.535 -4.153,1.051c-0.308,0.164 -0.767,0.177 -1.204,0.157c-0.748,-0.033 -1.445,-0.201 -1.445,-0.201c-0.038,-0.009 -0.078,-0.014 -0.117,-0.014l-3.691,0c0,-0 -0.862,-1.724 -0.862,-1.724c-0.024,-0.048 -0.055,-0.092 -0.093,-0.13l-1,-1c-0.055,-0.054 -0.122,-0.096 -0.196,-0.12l-3,-1c-0.021,-0.007 -0.042,-0.013 -0.064,-0.017c0,-0 -1.791,-0.338 -2.845,-0.943c-0.704,-0.404 -1.205,-0.345 -1.756,-0.21c-0.382,0.093 -0.797,0.244 -1.418,0.15c-1.173,-0.179 -1.675,-0.806 -1.675,-0.806c-0.094,-0.126 -0.243,-0.2 -0.4,-0.2l-3,0c-0.078,0 -0.154,0.018 -0.224,0.053l-1.552,0.776c-0,0 -0.724,-1.447 -0.724,-1.447c-0,-0 -0,-1.675 -0,-1.675c-0,0 0.707,-0.707 0.707,-0.707c0,-0 0.793,-0 0.793,-0c0.189,-0 0.363,-0.107 0.447,-0.276l0.378,-0.756Zm-13.032,-46.968l2.707,2.707c0,0 -0,2.793 -0,2.793c-0,0.189 0.107,0.363 0.276,0.447l1.973,0.986c-0,0 2.123,1.416 2.123,1.416c0,-0 -2.03,0.677 -2.03,0.677c-0.126,0.042 -0.23,0.132 -0.289,0.25l-0.69,1.38c0,-0 -0.363,-0.363 -0.363,-0.363c0,-0 -0,-1.793 -0,-1.793c-0,-0.215 -0.138,-0.406 -0.342,-0.474l-3,-1c-0.012,-0.004 -0.024,-0.008 -0.037,-0.011l-4,-1c-0.177,-0.044 -0.364,0.011 -0.488,0.145c-0.124,0.134 -0.165,0.325 -0.107,0.498l1,3c0.007,0.023 0.016,0.044 0.027,0.066l1.97,3.94c-0,-0 0.987,4.934 0.987,4.934c0.019,0.097 0.067,0.186 0.136,0.256l1.746,1.745c-0,-0 -0.839,1.677 -0.839,1.677c-0.035,0.07 -0.053,0.146 -0.053,0.224l-0,2c0,0.041 0.005,0.082 0.015,0.121l0.562,2.249c0,0 -1.666,-1.666 -1.666,-1.666c-0,-0 -1.964,-3.928 -1.964,-3.928c-0.084,-0.169 -0.258,-0.276 -0.447,-0.276l-3,-0c-0.189,-0 -0.363,0.107 -0.447,0.276l-1,2c-0.035,0.07 -0.053,0.146 -0.053,0.224l-0,1.882c-0,-0 -0.407,0.815 -0.407,0.815c-0,-0 -0.619,-1.855 -0.619,-1.855c-0.007,-0.023 -0.016,-0.044 -0.027,-0.066l-1,-2c-0.009,-0.018 -0.019,-0.036 -0.031,-0.053l-1.916,-2.874c-0,-0 -0,-1.849 -0,-1.849c0,-0.276 -0.224,-0.5 -0.5,-0.5l-3,-0c-0.078,0 -0.154,0.018 -0.224,0.053l-2,1c-0.169,0.084 -0.276,0.258 -0.276,0.447l-0,2.793c0,-0 -1.089,-1.089 -1.089,-1.089c-0,-0 -2.803,-5.605 -2.803,-5.605c0,-0 1.746,-1.745 1.746,-1.745c0.093,-0.094 0.146,-0.221 0.146,-0.354l-0,-3c-0,-0.099 -0.029,-0.195 -0.084,-0.277l-2,-3c-0.048,-0.073 -0.115,-0.131 -0.192,-0.17l-3.815,-1.908c-0,0 -0.935,-2.803 -0.935,-2.803c-0.042,-0.126 -0.132,-0.23 -0.25,-0.289l-1.38,-0.69c0,0 1.51,-1.509 1.51,-1.509c0.023,-0.024 0.044,-0.049 0.062,-0.077l1.926,-2.889c0,-0 1.696,-0.848 1.696,-0.848c0,-0 2.804,0.934 2.804,0.934c0.214,0.072 0.449,-0.009 0.574,-0.197l1.852,-2.777c-0,-0 2.614,-0 2.614,-0c-0,-0 5.894,2.947 5.894,2.947c0.033,0.017 0.067,0.029 0.103,0.038l3.865,0.966c0,0 2.902,2.903 2.902,2.903c0.094,0.093 0.221,0.146 0.354,0.146l1.793,-0Zm56.206,-76c0.01,0.002 0.402,0.091 0.512,0.605c0.179,0.835 0.733,2.978 0.933,3.744c-0,-0 -1.74,1.74 -1.74,1.74c-0,0 -1.928,0.964 -1.928,0.964c-0.118,0.059 -0.208,0.163 -0.25,0.289l-1,3c-0.017,0.051 -0.026,0.104 -0.026,0.158l-0,2.849c-0,-0 -1.889,2.832 -1.889,2.832c0,0 -1.392,1.393 -1.392,1.393c-0,0 -0.745,-2.232 -0.745,-2.232c-0.068,-0.204 -0.259,-0.342 -0.474,-0.342l-5.938,-0c-0,0 -3.857,-0.964 -3.857,-0.964c0,-0 -2.928,-1.952 -2.928,-1.952c-0.128,-0.086 -0.289,-0.107 -0.435,-0.058l-3,1c-0.042,0.014 -0.082,0.033 -0.119,0.058l-2.797,1.864c0,0 -2.734,-0.911 -2.734,-0.911c-0,-0 -1.968,-0.984 -1.968,-0.984c-0.193,-0.096 -0.425,-0.059 -0.578,0.093l-3.916,3.917c-0,-0 -2.595,0.865 -2.595,0.865c0,-0 -1.781,-1.782 -1.781,-1.782c-0.176,-0.175 -0.455,-0.195 -0.654,-0.046l-4,3c-0.139,0.104 -0.214,0.272 -0.198,0.445c0.016,0.172 0.119,0.325 0.274,0.402l1.724,0.862c-0,0 -0,2.691 -0,2.691c-0,0.276 0.224,0.5 0.5,0.5l1.849,-0c-0,-0 5.79,3.861 5.79,3.861c0,-0 1.427,2.139 1.427,2.139c-0,-0 -0.859,-0 -0.859,-0c0,0 -1.853,-1.854 -1.853,-1.854c-0.024,-0.023 -0.049,-0.044 -0.077,-0.062l-2.958,-1.973c-0,0 -0.965,-0.965 -0.965,-0.965c-0.094,-0.093 -0.221,-0.146 -0.354,-0.146l-2,-0c-0.133,0 -0.26,0.053 -0.354,0.146l-1,1c-0.152,0.153 -0.189,0.385 -0.093,0.578l1,2c0.048,0.096 0.127,0.175 0.223,0.223l1.928,0.964c-0,-0 1.796,1.796 1.796,1.796c-0,0 -0,1.293 -0,1.293c-0,-0 -1.232,-0 -1.232,-0c-0,-0 -1.852,-2.777 -1.852,-2.777c-0.018,-0.028 -0.039,-0.053 -0.062,-0.077l-2,-2c-0.038,-0.038 -0.082,-0.069 -0.13,-0.093l-2,-1c-0.141,-0.071 -0.307,-0.071 -0.448,-0l-2,1c-0.173,0.086 -0.276,0.262 -0.276,0.446c-0,-0.167 -0.084,-0.322 -0.223,-0.415l-3,-2c-0.017,-0.012 -0.035,-0.022 -0.053,-0.031l-3.38,-1.69c0,0 1.51,-1.509 1.51,-1.509c0.133,-0.134 0.18,-0.332 0.12,-0.512l-1,-3c-0.049,-0.148 -0.164,-0.264 -0.312,-0.315c-0.147,-0.051 -0.31,-0.029 -0.439,0.057l-6,4c-0.139,0.093 -0.223,0.249 -0.223,0.416l-0,3.919c-0,-0 -0.974,2.923 -0.974,2.923c-0.049,0.146 -0.028,0.307 0.058,0.435l2,3c0.005,0.008 0.01,0.016 0.016,0.023l2.973,3.964c-0,-0 1.98,3.96 1.98,3.96c0.024,0.048 0.055,0.092 0.093,0.13l1.965,1.965c0,-0 1.956,2.932 1.956,2.932l0.608,1.217l-1.821,-1.822c-0.094,-0.093 -0.221,-0.146 -0.354,-0.146l-3,-0c-0.189,0 -0.363,0.107 -0.447,0.276l-1,2c-0.035,0.07 -0.053,0.146 -0.053,0.224l-0,2c-0,0.133 0.053,0.26 0.146,0.354l1.746,1.745c-0,-0 -0.765,1.528 -0.765,1.528c0,0 -1.627,0.814 -1.627,0.814c0,-0 -1.776,-0.888 -1.776,-0.888c-0.141,-0.071 -0.307,-0.071 -0.448,-0l-2,1c-0.169,0.084 -0.276,0.258 -0.276,0.447l-0,2c-0,0.276 0.224,0.5 0.5,0.5l2.882,-0c-0,0 1.894,0.947 1.894,0.947c0.07,0.035 0.146,0.053 0.224,0.053l2.691,-0c-0,0 0.862,1.724 0.862,1.724c0.065,0.13 0.184,0.226 0.326,0.261l3.621,0.905c-0,0 -0,1.61 -0,1.61c-0,0.167 0.084,0.323 0.223,0.416l2.958,1.973c0,-0 1.965,1.965 1.965,1.965c0.07,0.069 0.159,0.117 0.256,0.136l4.76,0.952c0,0 0.73,1.459 0.73,1.459c-0,0 -0.746,0.745 -0.746,0.745c-0.152,0.153 -0.189,0.385 -0.093,0.578l0.947,1.894c0,0 -0,2.882 -0,2.882c0,0.041 0.005,0.082 0.015,0.121l0.736,2.946c0,-0 -0.955,-0.478 -0.955,-0.478c0,0 -0.942,-0.943 -0.942,-0.943c-0.038,-0.038 -0.082,-0.069 -0.13,-0.093l-1.851,-0.926c-0,0 -0.91,-1.819 -0.91,-1.819c0,0 -0.989,-2.966 -0.989,-2.966c-0.068,-0.204 -0.259,-0.342 -0.474,-0.342l-2,-0c-0.078,-0 -0.154,0.018 -0.224,0.053l-5.894,2.947l-2.382,0l-0,-1.14c0,0 2.658,-0.886 2.658,-0.886c0.126,-0.042 0.23,-0.132 0.289,-0.25l1,-2c0.062,-0.124 0.07,-0.267 0.022,-0.397c0,0 -0.284,-1.01 -2.396,-1.322c-0.95,-0.14 -1.431,-0.046 -1.847,0.035c-0.313,0.062 -0.577,0.117 -1.096,-0.023c-0.914,-0.246 -1.532,-0.683 -1.73,-0.836c-0.001,-0.001 -0.953,-1.905 -0.953,-1.905c-0.084,-0.169 -0.258,-0.276 -0.447,-0.276l-1.793,-0c0,0 -1.853,-1.854 -1.853,-1.854c-0.114,-0.113 -0.275,-0.165 -0.434,-0.14c-0.159,0.026 -0.295,0.127 -0.367,0.27l-0.862,1.724c-0,-0 -3.629,0 -3.629,0c-0,0 -3.941,-0.985 -3.941,-0.985c-0.116,-0.029 -0.238,-0.016 -0.345,0.038l-1.894,0.947c-0,0 -3.675,-0 -3.675,-0c0,-0 -2.853,-2.854 -2.853,-2.854c-0.143,-0.143 -0.359,-0.185 -0.545,-0.108c-0.187,0.077 -0.309,0.26 -0.309,0.462l-0,1.691c-0,-0 -1,0.5 -1,0.5c-0,-0 -0,-1.191 -0,-1.191c0,-0.133 -0.053,-0.26 -0.146,-0.354l-1.943,-1.942c-0,-0 -0.948,-1.896 -0.948,-1.896c0,0 -0.989,-2.966 -0.989,-2.966c-0.068,-0.204 -0.259,-0.342 -0.474,-0.342l-1.5,-0c-0,-0 -0,-1 -0,-1c0,-0 2.293,-0 2.293,-0c-0,-0 0.853,0.854 0.853,0.854c0.153,0.152 0.385,0.189 0.578,0.093l2,-1c0.169,-0.084 0.276,-0.258 0.276,-0.447l-0,-2c0,-0.189 -0.107,-0.363 -0.276,-0.447l-2,-1c-0.07,-0.035 -0.146,-0.053 -0.224,-0.053l-1.882,-0c0,-0 -1.894,-0.947 -1.894,-0.947c-0.247,-0.124 -0.548,-0.024 -0.671,0.223l-0.69,1.38c0,-0 -1.412,-1.412 -1.412,-1.412c0,0 -0.966,-3.865 -0.966,-3.865c-0.041,-0.166 -0.165,-0.299 -0.327,-0.353l-2.803,-0.935c-0,0 -0.892,-1.783 -0.892,-1.783c0,0 -0.906,-2.718 -0.906,-2.718c0,0 2.843,-3.79 2.843,-3.79c0.098,-0.131 0.126,-0.302 0.074,-0.458l-0.902,-2.707c0,0 1.698,-1.698 1.698,-1.698c0,0 2.888,-0.963 2.888,-0.963c0.17,-0.056 0.297,-0.2 0.332,-0.376l0.994,-4.969c0,-0 0.808,-2.424 0.808,-2.424c0,0 1.484,0.742 1.484,0.742c0.247,0.124 0.548,0.024 0.671,-0.223l2,-4c0.08,-0.161 0.069,-0.352 -0.031,-0.501l-1.867,-2.801l0.163,-0.513c0.083,0.058 0.183,0.091 0.288,0.091l3,-0c0.054,0 0.107,-0.009 0.158,-0.026l3,-1c0.023,-0.007 0.044,-0.016 0.066,-0.027l1.677,-0.839c0,0 1.745,1.746 1.745,1.746c0.196,0.195 0.512,0.195 0.708,-0l2,-2c0.023,-0.024 0.044,-0.049 0.062,-0.077l1.945,-2.916c-0,-0 2.79,-1.861 2.79,-1.861c0,-0 2.731,-0 2.731,-0c-0,0 1.894,0.947 1.894,0.947c0.07,0.035 0.146,0.053 0.224,0.053l3,-0c0.133,-0 0.26,-0.053 0.354,-0.146l0.646,-0.647c0,0 0.646,0.647 0.646,0.647c0.128,0.127 0.314,0.176 0.487,0.128c0.174,-0.048 0.308,-0.186 0.352,-0.361l0.905,-3.621c0,-0 4.61,-0 4.61,-0c0.099,-0 0.195,-0.029 0.277,-0.084l2.949,-1.966c0.326,-0.11 2.209,-0.675 4.634,0.03c2.201,0.64 3.241,0.154 4.214,-0.413c0.359,-0.209 0.705,-0.435 1.116,-0.605c0.698,-0.287 1.092,-0.347 1.356,-0.426c0.405,-0.122 0.624,-0.258 0.901,-0.813c0.022,-0.043 0.073,-0.071 0.127,-0.106c0.114,-0.073 0.256,-0.136 0.411,-0.193c0.674,-0.248 1.577,-0.371 1.922,-0.411c0.001,-0 1.869,0.934 1.869,0.934c0.119,0.06 0.256,0.069 0.382,0.027l2.342,-0.78c-0,-0 -0,1.306 -0,1.306c0,0.167 0.084,0.323 0.223,0.416l3,2c0.149,0.1 0.34,0.111 0.501,0.031l1.814,-0.907c0,-0 2.77,0.923 2.77,0.923c0,0 3.968,1.984 3.968,1.984c0.07,0.035 0.146,0.053 0.224,0.053l3,-0c0.041,0 0.082,-0.005 0.121,-0.015l3.989,-0.997c-0,-0 4.988,-0.998 4.988,-0.998c0.044,-0.008 0.086,-0.023 0.126,-0.043l2,-1c0.169,-0.084 0.276,-0.258 0.276,-0.447l-0,-3c-0,-0.133 -0.053,-0.26 -0.146,-0.354l-1.854,-1.853c0,-0 -0,-1.293 -0,-1.293c0,-0 3.293,-0 3.293,-0c-0,-0 0.853,0.854 0.853,0.854c0.038,0.038 0.082,0.069 0.13,0.093l2,1c0.07,0.035 0.146,0.053 0.223,0.053Zm-34.624,71.582l0.271,0.272c0.094,0.093 0.221,0.146 0.354,0.146l2.691,-0c-0,0 0.638,1.276 0.638,1.276c0,0 -1.105,0.553 -1.105,0.553c-0,0 -0.777,-1.553 -0.777,-1.553c-0.072,-0.143 -0.208,-0.244 -0.367,-0.27c-0.159,-0.025 -0.32,0.027 -0.434,0.14l-0.646,0.647c-0,-0 -0.528,-0.529 -0.528,-0.529l-0.097,-0.682Zm-2.519,-4.933l-1.502,-1.503c-0.094,-0.093 -0.221,-0.146 -0.354,-0.146l-4.793,-0c0,0 -0.707,-0.707 -0.707,-0.707c0,-0 -0,-1.793 -0,-1.793c-0,-0.276 -0.224,-0.5 -0.5,-0.5l-0.793,-0c0,0 -3.853,-3.854 -3.853,-3.854c-0.038,-0.038 -0.082,-0.069 -0.13,-0.093l-3.928,-1.964c0,0 -0.511,-0.511 -0.511,-0.511c-0,-0 2.215,-1.477 2.215,-1.477c-0,-0 2.557,1.705 2.557,1.705c0.113,0.461 0.431,1.593 0.988,2.341c0.383,0.514 0.877,0.85 1.452,0.853c1.289,0.008 2.738,0.924 2.738,0.924c0.014,0.009 0.027,0.016 0.041,0.023l2,1c0.07,0.035 0.146,0.053 0.224,0.053l3.64,-0c-0,0 0.86,2.581 0.86,2.581c-0,0 -0,1.919 -0,1.919c0,0.054 0.009,0.107 0.026,0.158l0.33,0.991Zm-14.356,-18.031l0.691,1.382c-0,-0 -0.691,-0 -0.691,-0l-0,-1.382Zm2,-20.113c0,0.051 0.009,0.102 0.026,0.153l1,3c0.024,0.074 0.066,0.141 0.12,0.196l1.147,1.146c-0,0 -1.484,-0 -1.484,-0c0,-0 -0.809,-1.618 -0.809,-1.618l-0,-2.877Z"/></svg>