<?xml version="1.0" encoding="UTF-8" standalone="no"?><!DOCTYPE svg PUBLIC "-//W3C//DTD SVG 1.1//EN" "http://www.w3.org/Graphics/SVG/1.1/DTD/svg11.dtd"><svg width="171px" height="115px" version="1.1" xmlns="http://www.w3.org/2000/svg" xmlns:xlink="http://www.w3.org/1999/xlink" xml:space="preserve" xmlns:serif="http://www.serif.com/" style="fill-rule:evenodd;clip-rule:evenodd;stroke-linejoin:round;stroke-miterlimit:2;"><path id="iceland" d="M133.5,1.309l-1.618,-0.809c-0,0 -1.764,-0 -1.764,0l-1.894,0.947c-0.07,0.035 -0.146,0.053 -0.224,0.053c0,0 -0.882,0 -0.882,0c0,0 -1.617,0.808 -1.617,0.808c0.002,0.468 0.004,1.336 -0.001,1.699c-0.006,0.415 -0.002,2.179 -0.001,2.785l1.855,1.854c0.093,0.094 0.146,0.221 0.146,0.354l0,2c0,0.133 -0.053,0.26 -0.146,0.354c-0,-0 -0.854,0.853 -0.854,0.853l0,1.793c0,0.276 -0.224,0.5 -0.5,0.5l-2.5,0l0,1.5c-0,0.276 -0.224,0.5 -0.5,0.5l-2,0c-0.078,-0 -0.154,-0.018 -0.224,-0.053c0,0 -1.677,-0.839 -1.677,-0.839l-0.745,0.746c-0.114,0.113 -0.275,0.165 -0.434,0.14c-0.159,-0.026 -0.295,-0.127 -0.367,-0.27l-1,-2c-0.016,-0.031 -0.028,-0.063 -0.036,-0.096c-0,-0 -0.184,-0.696 -0.424,-1.242c-0.051,-0.117 -0.135,-0.257 -0.19,-0.347c-0.091,0.036 -0.2,0.089 -0.319,0.147c-0.445,0.216 -0.969,0.526 -1.201,0.666l-1.911,3.823l-0.987,3.946c-0.056,0.223 -0.256,0.379 -0.485,0.379c0,-0 -0.793,0 -0.793,-0l-1.853,1.854c-0.106,0.105 -0.254,0.158 -0.403,0.144c-0.149,-0.015 -0.284,-0.096 -0.367,-0.221l-2,-3c-0.012,-0.017 -0.022,-0.035 -0.031,-0.053c-0,-0 -1.926,-3.851 -1.926,-3.851c0,-0 -1.791,-0.896 -1.791,-0.896c0,0 -4.336,-0.867 -4.336,-0.867l0,2.39c-0,0.05 -0.008,0.1 -0.022,0.147c-0,0 -0.176,0.566 -0.211,1.07c-0.008,0.124 0.013,0.305 0.022,0.371c0.246,0.14 0.387,0.34 0.482,0.604c0.123,0.339 0.108,0.868 0.616,1.492c0.363,0.444 0.768,0.65 1.103,0.871c0.48,0.317 0.851,0.657 0.999,1.339c0.107,0.495 0.045,0.941 -0.043,1.383c-0.094,0.475 -0.238,0.945 0.013,1.525c0.282,0.652 0.208,1.513 0.086,2.346c-0.094,0.642 -0.236,1.26 -0.078,1.673c0.349,0.912 0.961,1.92 0.961,1.92c0.089,0.147 0.096,0.329 0.019,0.483l-1,2c-0.089,0.177 -0.274,0.285 -0.472,0.275c-0.198,-0.009 -0.372,-0.136 -0.442,-0.321c-0,0 -0.471,-1.25 -0.936,-1.882c-0.171,-0.232 -0.358,-0.733 -0.514,-1.329c-0.302,-1.144 -0.541,-2.659 -0.574,-2.868c0,0 -0.947,-3.79 -0.947,-3.79l-2.839,-1.893c-0.028,-0.018 -0.053,-0.039 -0.077,-0.062l-1,-1c-0.093,-0.094 -0.146,-0.221 -0.146,-0.354c0,0 0,-2.691 -0,-2.691l-1.724,-0.862c-0.169,-0.084 -0.276,-0.258 -0.276,-0.447c0,0 0,-1.5 -0,-1.5l-1.5,0c-0.189,0 -0.363,-0.107 -0.447,-0.276c-0,-0 -0.69,-1.38 -0.69,-1.38l-0.509,0.51c-0.094,0.093 -0.221,0.146 -0.354,0.146c-0,0 -0.882,0 -0.882,-0c0,-0 -1.704,0.852 -1.704,0.853c-0.052,0.183 -0.123,0.476 -0.144,0.768c-0.009,0.132 -0.009,0.264 0.016,0.38c0.01,0.051 0.019,0.1 0.052,0.131c0.372,0.341 0.279,0.647 0.212,0.776c-0.068,0.13 -0.215,0.28 -0.488,0.304c-0.272,0.024 -0.961,-0.164 -1.163,-0.22c-0.206,-0.022 -1.115,-0.109 -1.821,0.002c-0.559,0.088 -1.246,0.528 -1.578,0.76l0,1.746c0,0.154 -0.069,0.291 -0.178,0.383c0.025,0.104 0.069,0.257 0.139,0.424c0.215,0.513 0.256,0.827 0.245,1.012c-0.018,0.291 -0.139,0.441 -0.248,0.531c-0.052,0.425 -0.141,1.248 -0.128,1.861c0.003,0.164 0.036,0.381 0.048,0.454c0.416,0.378 0.837,1.252 1.103,2.2c0.095,0.335 0.044,0.814 -0.11,1.317c-0.297,0.976 -0.94,2.072 -0.94,2.072c-0.022,0.036 -0.048,0.07 -0.077,0.1l-1,1c-0.134,0.133 -0.332,0.18 -0.512,0.12l-3,-1c-0.204,-0.068 -0.342,-0.259 -0.342,-0.474c0,0 0,-2.732 -0,-2.732l-2.777,-1.852c-0.093,-0.062 -0.162,-0.152 -0.197,-0.258c-0,0 -0.989,-2.966 -0.989,-2.966l-0.984,-1.968c-0.011,-0.022 -0.02,-0.043 -0.027,-0.066c-0,0 -0.935,-2.803 -0.935,-2.803c0,-0 -1.591,-0.796 -1.591,-0.796l-1.776,0.888c-0.07,0.035 -0.146,0.053 -0.224,0.053c0,0 -0.515,0 -0.515,-0c-0.018,0.696 -0.045,1.939 -0.009,2.334c0.001,0.014 0.004,0.035 0.004,0.035l-0.011,-0.029c0.029,0.091 0.058,0.23 0.066,0.405c0.02,0.47 -0.018,1.389 -0.031,1.685l0.97,2.912c0.04,0.12 0.033,0.251 -0.02,0.367c0,-0 -0.256,0.561 -0.307,1.243c-0.032,0.414 0.009,0.879 0.269,1.271c0.286,0.429 0.423,1.12 0.443,1.885c0.042,1.584 -0.37,3.498 -0.37,3.498c-0.004,0.017 -0.009,0.035 -0.015,0.052c0,0 -0.974,2.923 -0.974,2.923l0,2.919c0,0.189 -0.107,0.363 -0.276,0.447l-2,1c-0.247,0.124 -0.548,0.024 -0.671,-0.223c-0,-0 -0.862,-1.724 -0.862,-1.724l-1.691,0c-0.276,-0 -0.5,-0.224 -0.5,-0.5c0,0 0,-4.191 -0,-4.191c-0,0 -1.178,0.589 -1.179,0.59c-0.226,0.282 -0.964,1.214 -1.463,1.94c-0.122,0.177 -0.242,0.377 -0.319,0.511c0.05,0.087 0.093,0.191 0.121,0.316c0.169,0.739 -0.001,2.581 -0.203,3.037c-0.052,0.118 -0.053,0.376 -0.057,0.676c-0.009,0.737 0.065,1.685 0.09,1.983l0.957,1.914c0.078,0.155 0.069,0.339 -0.022,0.487c-0.091,0.147 -0.252,0.237 -0.425,0.237l-2,-0c-0.215,0 -0.406,-0.138 -0.474,-0.342l-0.012,-0.035c-0.006,0.015 -0.012,0.028 -0.018,0.04c-0.027,0.056 -0.059,0.103 -0.093,0.142c-0.01,0.112 -0.039,0.437 -0.035,0.69c0.013,0.854 0.129,1.952 0.129,1.952c0.002,0.018 0.003,0.035 0.003,0.053l0,4c0,0.276 -0.224,0.5 -0.5,0.5l-1,-0c-0.215,0 -0.406,-0.138 -0.474,-0.342l-1,-3c-0.017,-0.051 -0.026,-0.104 -0.026,-0.158c0,0 0,-2.938 0,-2.938c0,-0 -0.951,-3.806 -0.951,-3.806c-0,-0 -0.684,-0.684 -0.684,-0.684l-2.707,0.902c-0.203,0.068 -0.426,-0.001 -0.555,-0.171c-0.13,-0.169 -0.138,-0.403 -0.019,-0.58c-0,-0 1.983,-2.974 1.983,-2.974c-0,-0 0.825,-1.65 0.825,-1.65c-0,-0 -0.392,-0.392 -0.392,-0.392l-0.646,0.647c-0.094,0.093 -0.221,0.146 -0.354,0.146l-1,-0c-0.161,0 -0.312,-0.077 -0.406,-0.208c-0.094,-0.13 -0.119,-0.298 -0.068,-0.45c-0,-0 0.78,-2.342 0.78,-2.342l-2.306,-0c-0.133,-0 -0.26,-0.053 -0.354,-0.146l-1,-1c-0.054,-0.055 -0.096,-0.122 -0.12,-0.196c-0,0 -0.963,-2.888 -0.963,-2.888l-0.917,-0.916c-0.113,-0.114 -0.165,-0.275 -0.14,-0.434c0.026,-0.159 0.127,-0.295 0.27,-0.367l2,-1c0.247,-0.124 0.548,-0.024 0.671,0.223l1.862,3.724c0,-0 2.191,-0 2.191,-0c0,-0 0,-1.191 -0,-1.191l-1.724,-0.862c-0.143,-0.072 -0.244,-0.208 -0.27,-0.367c-0.025,-0.159 0.027,-0.32 0.14,-0.434l1.943,-1.942l0.966,-1.932c-0,0 0.226,-0.44 0.338,-0.884c0.029,-0.113 0.051,-0.226 0.055,-0.329c0,-0.018 -0.001,-0.04 -0.003,-0.061c-0.978,-0.049 -3.546,-0.848 -4.022,-0.998l-0.923,-0c-0.136,-0 -0.266,-0.055 -0.36,-0.153c-0.094,-0.097 -0.145,-0.229 -0.14,-0.365c0,0 -0,-1.158 1.391,-1.47c0.483,-0.108 1.234,-0.36 1.853,-0.581l-0.968,-0.484c-0.096,-0.048 -0.175,-0.127 -0.223,-0.223c-0,-0 -0.553,-1.106 -0.553,-1.106l-0.553,1.106c-0.084,0.169 -0.258,0.276 -0.447,0.276l-1,-0c-0.189,0 -0.363,-0.107 -0.447,-0.276l-1,-2c-0.035,-0.07 -0.053,-0.146 -0.053,-0.224l-0,-3.64c-0,0 -2.581,-0.86 -2.581,-0.86l-0.919,-0c-0.276,-0 -0.5,-0.224 -0.5,-0.5c0,0 0,-1.5 -0,-1.5l-2.5,-0c-0.215,0 -0.406,-0.138 -0.474,-0.342c-0,0 -0.979,-2.936 -0.979,-2.936c-0,-0 -1.868,-2.802 -1.868,-2.802c0,0 -2.544,-0.848 -2.544,-0.848l-0.781,0.782c-0.153,0.152 -0.385,0.189 -0.578,0.093c0,0 -1.894,-0.947 -1.894,-0.947c-0,-0 -0.675,-0 -0.675,-0l-0.853,0.854c-0.196,0.195 -0.512,0.195 -0.708,-0c0,-0 -0.745,-0.746 -0.745,-0.746l-0.433,0.217c0.021,0.054 0.032,0.113 0.032,0.175l0,2c-0,0.276 -0.224,0.5 -0.5,0.5c0,-0 -0.349,-0 -0.349,-0c0,-0 1.155,0.77 1.155,0.77l0.747,-1.494c0.048,-0.096 0.127,-0.175 0.223,-0.223l2,-1c0.155,-0.078 0.339,-0.069 0.487,0.022c0.147,0.091 0.237,0.252 0.237,0.425c0,0 0,0.793 0,0.793l1.146,-1.147c0.143,-0.143 0.359,-0.185 0.545,-0.108c0.187,0.077 0.309,0.26 0.309,0.462l0,2.5c0,-0 0.293,-0 0.293,0l0.853,-0.854c0.094,-0.093 0.221,-0.146 0.354,-0.146l1,-0c0.276,-0 0.5,0.224 0.5,0.5c0,0 0,1.5 0,1.5l1.5,-0c0.202,0 0.385,0.122 0.462,0.309c0.077,0.186 0.035,0.402 -0.108,0.545l-1,1c-0.094,0.093 -0.221,0.146 -0.354,0.146c0,-0 -0.793,-0 -0.793,-0l-0.853,0.854c-0.094,0.093 -0.221,0.146 -0.354,0.146l-2,-0c-0.078,-0 -0.154,-0.018 -0.224,-0.053c0,0 -1.894,-0.947 -1.894,-0.947c-0,-0 -0.675,-0 -0.675,0c0,0 -0.707,0.707 -0.707,0.707c0,0 0,0.586 -0,0.586c-0,-0 0.796,0.796 0.796,0.796l3.928,1.964c0.048,0.024 0.092,0.055 0.13,0.093c-0,0 0.853,0.854 0.853,0.854l1.793,-0c0.276,-0 0.5,0.224 0.5,0.5l0,1c-0,0.276 -0.224,0.5 -0.5,0.5l-0.026,-0.001c-0.013,-0 -0.027,-0.002 -0.041,-0.004c-0.075,-0.003 -0.206,-0.002 -0.34,0.027c-0.062,0.013 -0.134,0.02 -0.173,0.07c-0.012,0.015 -0.001,0.038 0.002,0.066c0.007,0.049 0.022,0.104 0.045,0.164c0.41,1.078 0.951,1.903 0.951,1.903c0.024,0.037 0.043,0.076 0.056,0.117l0.969,2.906c0.083,0.108 0.192,0.295 0.223,0.56c0.028,0.239 -0.004,0.559 -0.237,0.949c-0.382,0.637 -0.973,1.949 -0.973,1.949c-0.048,0.105 -0.13,0.19 -0.232,0.241l-2,1c-0.155,0.078 -0.339,0.069 -0.487,-0.022c-0.147,-0.091 -0.237,-0.252 -0.237,-0.425l0,-1c-0,0.133 -0.053,0.26 -0.146,0.354l-1,1c-0.196,0.195 -0.512,0.195 -0.708,-0l-1,-1c-0.152,-0.153 -0.189,-0.385 -0.093,-0.578c-0,0 0.947,-1.894 0.947,-1.894l0,-1.882c0,-0.133 0.053,-0.26 0.146,-0.354c0,0 0.647,-0.646 0.647,-0.646c-0,-0 -1.5,-1.5 -1.5,-1.5c-0,-0 -0.293,-0 -0.293,0l0,3.5c0,0.133 -0.053,0.26 -0.146,0.354l-1,1c-0.143,0.143 -0.359,0.185 -0.545,0.108c-0.187,-0.077 -0.309,-0.26 -0.309,-0.462c0,0 0,-1.5 -0,-1.5l-1.5,-0c-0.173,-0 -0.334,-0.09 -0.425,-0.237c-0.091,-0.148 -0.1,-0.332 -0.022,-0.487c-0,0 0.839,-1.677 0.839,-1.677c-0,-0 -0.255,-0.255 -0.255,-0.255l-0.69,1.38c-0.103,0.207 -0.336,0.316 -0.562,0.263c-0.226,-0.054 -0.385,-0.255 -0.385,-0.487c0,-0 0,-3.5 -0,-3.5l-1.5,-0c-0.189,-0 -0.363,-0.107 -0.447,-0.276l-1.862,-3.724l-2.484,0l0.147,0.146c0.093,0.094 0.146,0.221 0.146,0.354c0,0 0,0.793 -0,0.793l0.854,0.853c0.143,0.143 0.185,0.359 0.108,0.545c-0.077,0.187 -0.26,0.309 -0.462,0.309c0,-0 -1.5,-0 -1.5,0l2.8,2.1c0.126,0.094 0.2,0.243 0.2,0.4l0,2c-0,0.173 -0.09,0.334 -0.237,0.425c-0.148,0.091 -0.332,0.1 -0.487,0.022c0,0 -5.894,-2.947 -5.894,-2.947c-0,-0 -0.382,-0 -0.382,-0c0,-0 0,1.25 0,1.25c0,0 3.764,2.823 3.764,2.823l1.96,0.98c0.018,0.009 0.036,0.019 0.053,0.031l3,2c0.125,0.083 0.206,0.218 0.221,0.367c0.014,0.149 -0.039,0.297 -0.144,0.403l-1,1c-0.169,0.168 -0.433,0.194 -0.631,0.062c-0,0 -2.874,-1.916 -2.874,-1.916l-2.849,-0c-0.054,0 -0.107,-0.009 -0.158,-0.026c-0,0 -1.855,-0.618 -1.855,-0.618l0.46,0.92c0.024,0.048 0.04,0.099 0.048,0.152c-0,-0 0.075,0.512 0.282,0.999c0.109,0.255 0.241,0.518 0.455,0.63c0.534,0.28 1.876,0.833 2.502,0.979c0.098,-0.065 0.259,-0.132 0.48,-0.157c0.663,-0.074 2.294,0.072 2.729,0.113l2.899,-0.966c0.192,-0.064 0.403,-0.006 0.536,0.146c0.132,0.153 0.16,0.371 0.069,0.552l-1,2c-0.065,0.13 -0.184,0.226 -0.326,0.261l-3.835,0.959l-0.071,0.101c0.206,0.064 0.574,0.078 0.992,0.083c1.192,0.014 2.748,-0.126 2.748,-0.126c0.228,-0.02 0.441,0.116 0.517,0.332c0.076,0.216 -0.004,0.455 -0.195,0.582l-3,2c-0.017,0.012 -0.035,0.022 -0.053,0.031l-2,1c-0.07,0.035 -0.146,0.053 -0.224,0.053l-1,-0c-0.276,0 -0.5,-0.224 -0.5,-0.5c0,-0 0,-1.732 0,-1.732l-5.777,-3.852c-0.028,-0.018 -0.053,-0.039 -0.077,-0.062c0,-0 -0.646,-0.647 -0.646,-0.647c0,0 -0.5,0.5 -0.5,0.5c0,0 0,0.675 0,0.675c0,-0 0.873,1.745 0.873,1.745l3.851,1.926c0.169,0.084 0.276,0.258 0.276,0.447l0,1c0,0.276 -0.224,0.5 -0.5,0.5l-1,-0c-0.078,0 -0.154,-0.018 -0.224,-0.053c0,0 -1.894,-0.947 -1.894,-0.947c-0,-0 -0.073,-0 -0.073,-0l0.638,1.276l0.034,0.089c0.01,0.032 0.063,0.201 0.171,0.37c0.076,0.118 0.172,0.267 0.342,0.265c0.392,-0.005 1.01,-0.135 1.448,-0.174c0.285,-0.026 0.52,-0.007 0.656,0.042c0.187,0.067 0.299,0.186 0.361,0.316c0.062,0.133 0.09,0.302 0.001,0.512c-0.037,0.086 -0.008,0.16 0.008,0.227c0.02,0.08 0.04,0.158 0.052,0.233c0.031,0.193 0.019,0.376 -0.068,0.559c-0.057,0.118 -0.194,0.296 -0.37,0.477c-0.318,0.325 -0.764,0.694 -0.764,0.694c-0.198,0.164 -0.489,0.15 -0.672,-0.032c0,-0 -0.853,-0.854 -0.853,-0.854l-1.793,-0c-0.189,-0 -0.363,-0.107 -0.447,-0.276c-0,-0 -0.926,-1.851 -0.926,-1.851c0,-0 -1.745,-0.873 -1.745,-0.873c-0,-0 -0.382,-0 -0.382,0l0,0.5c0,0.133 -0.053,0.26 -0.146,0.354l-1,1c-0.029,0.028 -0.06,0.052 -0.094,0.073c-0,0 -0.506,0.309 -0.836,0.838c-0.051,0.082 -0.106,0.16 -0.162,0.235l2.531,0l0.853,-0.854c0.196,-0.195 0.512,-0.195 0.708,0l1,1c0.031,0.032 0.059,0.068 0.081,0.107l0.565,0.735c0.151,-0.025 0.357,-0.042 0.586,-0.044c0.625,-0.007 1.453,0.058 1.453,0.058c0.26,0.02 0.461,0.237 0.461,0.498c0,-0 0,1.5 0,1.5l2,-0l0,-1.5c-0,-0.276 0.224,-0.5 0.5,-0.5c0,-0 2.882,0 2.882,-0c-0,-0 1.822,-0.911 1.822,-0.911l0.942,-0.943c0.143,-0.143 0.359,-0.185 0.545,-0.108c0.187,0.077 0.309,0.26 0.309,0.462c0,0 0,0.5 0,0.5c0,-0 1,-0 1,-0l0,-2.5c-0,-0.276 0.224,-0.5 0.5,-0.5l1,-0c0.133,-0 0.26,0.053 0.354,0.146c-0,0 0.853,0.854 0.853,0.854c0,-0 1.293,-0 1.293,-0l0,-1.5c0,-0.202 0.122,-0.385 0.309,-0.462c0.186,-0.077 0.402,-0.035 0.545,0.108c-0,0 0.646,0.647 0.646,0.647l1.646,-1.647c0.094,-0.093 0.221,-0.146 0.354,-0.146l2,-0c0.276,-0 0.5,0.224 0.5,0.5c-0,-0.202 0.122,-0.385 0.309,-0.462c0.186,-0.077 0.402,-0.035 0.545,0.108l1,1c0.054,0.055 0.096,0.122 0.12,0.196c0,-0 0.745,2.232 0.745,2.232l1.427,-1.428c0.196,-0.195 0.512,-0.195 0.708,0c-0,0 0.71,0.711 0.71,0.711l2.659,-1.773c0.177,-0.119 0.411,-0.111 0.58,0.019c0.17,0.129 0.239,0.352 0.171,0.555l-1,3c-0.024,0.074 -0.066,0.141 -0.12,0.196l-1,1c-0.094,0.093 -0.221,0.146 -0.354,0.146c-0,0 -1.191,0 -1.191,-0c0,-0 0.385,0.77 0.385,0.77l2.529,-1.686c0.082,-0.055 0.178,-0.084 0.277,-0.084l2,0c0.276,-0 0.5,0.224 0.5,0.5c0,0 0,1.5 0,1.5l2.5,0c0.191,0 0.357,0.107 0.441,0.265l0.002,0.002c0.034,0.063 0.203,0.392 0.241,0.718c0.044,0.382 -0.072,0.744 -0.438,0.951c-0.268,0.151 -0.821,0.345 -1.303,0.564c-0.238,0.108 -0.461,0.212 -0.572,0.335c-0.347,0.384 -2.678,1.826 -3.059,2.06l-1.958,1.959c-0.055,0.054 -0.122,0.096 -0.196,0.12c0,0 -2.803,0.935 -2.803,0.935c-0,-0 -0.747,1.492 -0.747,1.492l2.599,2.599l4.586,0l2.853,-2.854c0.196,-0.195 0.512,-0.195 0.708,0l1,1c0.152,0.153 0.189,0.385 0.093,0.578l-0.833,1.666c0.037,0.082 0.064,0.185 0.071,0.316c0.01,0.186 -0.028,0.49 -0.22,0.977c-0.343,0.874 -0.791,1.661 -0.965,1.956l0,0.861c0,0.215 -0.138,0.406 -0.342,0.474l-3,1c-0.044,0.015 -0.091,0.024 -0.138,0.026l-0.06,-0.002c-0.047,-0.003 -0.092,-0.014 -0.135,-0.029c-0.084,-0.031 -0.181,-0.09 -0.251,-0.207c-0.022,-0.036 -0.04,-0.076 -0.053,-0.118l-0,-0.001c-0.015,-0.047 -0.098,-0.295 -0.259,-0.491c-0.061,-0.074 -0.129,-0.159 -0.234,-0.153c-0.598,0.034 -2.416,0.01 -2.905,0.003c-0.142,0.07 -0.374,0.169 -0.603,0.198c-0.35,0.044 -0.685,-0.046 -0.9,-0.362c-0.078,-0.014 -0.252,-0.043 -0.388,-0.046c-0.625,-0.016 -1.482,0.098 -1.9,0.161l-0.885,1.771c-0.111,0.222 -0.369,0.329 -0.605,0.25c-0,0 -2.923,-0.974 -2.923,-0.974l-3.559,0l-0.886,2.658c-0.068,0.204 -0.259,0.342 -0.474,0.342c-0.215,-0 -0.406,-0.138 -0.474,-0.342c-0,0 -0.619,-1.855 -0.619,-1.855l-0.46,0.921c-0.024,0.048 -0.055,0.092 -0.093,0.13l-1,1c-0.196,0.195 -0.512,0.195 -0.708,-0c0,-0 -0.781,-0.782 -0.781,-0.782l-2.403,0.801c-0.052,0.237 -0.172,0.534 -0.444,0.767c-0.214,0.183 -0.526,0.336 -0.993,0.359c-0.955,0.049 -2.517,-0.684 -3.066,-0.958c0,-0 -2.604,0.868 -2.604,0.868c-0,-0 -0.747,1.492 -0.747,1.492l0.746,0.745c0.038,0.038 0.069,0.082 0.093,0.13c0,0 0.862,1.724 0.862,1.724c0,-0 1.61,-0 1.61,-0c-0,-0 2.811,-0.937 2.811,-0.937l0.916,-0.917c0.094,-0.093 0.221,-0.146 0.354,-0.146c0,-0 0.882,-0 0.882,-0l1.894,-0.947c0.07,-0.035 0.146,-0.053 0.224,-0.053l2,-0c0.116,-0 0.229,0.04 0.318,0.114c0,0 0.381,0.314 0.853,0.574c0.277,0.153 0.585,0.297 0.859,0.313c0.843,0.05 4.964,-0.001 4.964,-0.001l6.006,-0c0.189,0 0.363,0.107 0.447,0.276c0,0 0.964,1.928 0.964,1.928c-0,-0 0.688,0.688 0.688,0.688l1.677,-0.839c0.247,-0.123 0.547,-0.024 0.671,0.222c0.124,0.246 0.025,0.546 -0.221,0.671c0,-0 -0.795,0.402 -1.356,0.885c-0.129,0.111 -0.245,0.225 -0.329,0.34c-0.031,0.044 -0.065,0.118 -0.077,0.143c0.23,0.519 0.031,0.952 -0.353,1.348c-0.14,0.144 -0.307,0.284 -0.449,0.431c-0.057,0.059 -0.109,0.119 -0.147,0.183c-0.02,0.034 -0.038,0.068 -0.028,0.109c0.14,0.595 0.092,1.88 0.048,2.615l1.465,-0c0.276,0 0.5,0.224 0.5,0.5c-0,-0 -0,2.5 0,2.5c0,-0 1.14,-0 1.14,-0l0.886,-2.658c0.068,-0.204 0.259,-0.342 0.474,-0.342c-0,-0 0.833,-0 0.833,0l3.867,-2.9c0.024,-0.018 0.05,-0.034 0.076,-0.047l2,-1c0.155,-0.078 0.339,-0.069 0.487,0.022c0.147,0.091 0.237,0.252 0.237,0.425c-0,0 -0,1.764 -0.001,1.763c0.191,0.167 0.503,0.463 0.884,0.915c0.281,0.334 0.462,0.506 0.526,0.622c0.122,0.22 0.112,0.402 0.019,0.584c-0.037,0.074 -0.096,0.155 -0.196,0.237c-0.088,0.072 -0.24,0.164 -0.471,0.305c-0.307,0.188 -0.813,0.198 -1.37,0.032c-0.728,-0.216 -1.575,-0.688 -1.955,-0.913c-0.049,0.02 -0.103,0.046 -0.155,0.077c-0.126,0.077 -0.268,0.2 -0.282,0.412c-0.023,0.333 -0.245,0.731 -0.591,1.099c-0.546,0.58 -1.381,1.125 -1.594,1.26c-0,0 -1.814,1.814 -1.814,1.814c-0,0 -0,1.293 0,1.293l2.5,-0c0.202,-0 0.385,0.122 0.462,0.309c0.077,0.186 0.035,0.402 -0.108,0.545c-0,-0 -2.647,2.646 -2.647,2.646c0,-0 0.292,0.292 0.292,0.292c0.712,-0.717 2.283,-2.295 2.654,-2.652c0.55,-0.529 0.937,-0.939 2.275,-1.135c1.223,-0.179 3.119,-0.003 3.119,-0.003c0.215,0.021 0.393,0.177 0.441,0.388c-0,-0 0.168,0.743 0.221,1.35c0.029,0.323 0.018,0.614 -0.033,0.79c-0.078,0.266 -0.246,0.404 -0.416,0.46c-0.132,0.043 -0.294,0.051 -0.482,-0.042c-0.437,-0.217 -1.673,-0.412 -2.567,0.005c-0.489,0.228 -0.899,0.249 -1.241,0.271c-0.122,0.008 -0.231,-0.004 -0.317,0.053c-0.083,0.055 -0.119,0.17 -0.171,0.356c-0.2,0.723 -0.879,1.686 -1.415,2.367l0.933,-0c0.276,-0 0.5,0.224 0.5,0.5l-0,3c-0,0.133 -0.053,0.26 -0.146,0.354l-1,1c-0.094,0.093 -0.221,0.146 -0.354,0.146c-0,-0 -0.691,-0 -0.691,0l-0.862,1.724c-0.039,0.077 -0.097,0.144 -0.17,0.192l-3,2c-0.082,0.055 -0.178,0.084 -0.277,0.084c-0,-0 -2.793,-0 -2.793,-0l-1.853,1.854c-0.094,0.093 -0.221,0.146 -0.354,0.146l-2,-0c-0.229,-0 -0.429,-0.156 -0.485,-0.379c-0,0 -0.584,-2.334 -0.584,-2.334c0,0 -0.391,1.175 -0.391,1.175l0.907,1.814c0.096,0.193 0.059,0.425 -0.093,0.578c-0,-0 -0.746,0.745 -0.746,0.745l0.701,1.401l1.61,-0l2.923,-0.974c0.051,-0.017 0.104,-0.026 0.158,-0.026l3,-0c0.054,0 0.107,0.009 0.158,0.026c0,-0 2.842,0.947 2.842,0.947l2.842,-0.947c0.126,-0.042 0.263,-0.033 0.382,0.027c-0,-0 1.894,0.947 1.894,0.947c0,-0 2.573,-0 2.573,-0l0.862,-1.724c0.039,-0.077 0.097,-0.144 0.17,-0.192l3,-2c0.082,-0.055 0.178,-0.084 0.277,-0.084l2,-0c0.173,-0 0.334,0.09 0.425,0.237c0.091,0.148 0.1,0.332 0.022,0.487c0,-0 -0.839,1.677 -0.839,1.677c0,0 1.662,1.662 1.662,1.662c0,-0 2.477,0.826 2.477,0.826l0.806,-1.613c0.072,-0.143 0.208,-0.244 0.367,-0.27c0.159,-0.025 0.32,0.027 0.434,0.14l2,2c0.132,0.133 0.179,0.328 0.123,0.504c0.002,0.008 0.017,0.065 0.061,0.107c0.108,0.101 0.291,0.186 0.581,0.257c0.412,0.101 0.881,-0.028 1.299,-0.196c0.708,-0.284 1.28,-0.717 1.28,-0.717c0.119,-0.089 0.271,-0.122 0.416,-0.088c0.144,0.034 0.267,0.13 0.333,0.263l1,2c0.078,0.155 0.069,0.339 -0.022,0.487c-0.091,0.147 -0.252,0.237 -0.425,0.237c-0,-0 -2.5,-0 -2.5,0c-0,0 -0,0.396 0.001,0.398c0.165,0.371 0.841,1.804 1.84,2.736c1.134,1.058 4.495,2.728 4.849,2.902c0,0 2.891,0.964 2.891,0.964l2.919,-0c0.053,-0 0.106,0.008 0.157,0.025c-0,0 3.133,1.035 5.071,2.03c1.732,0.889 6.125,1.803 6.787,1.938c-0,-0 6.834,-0.976 6.834,-0.976c-0,-0 1.651,-0.826 1.651,-0.826l-0,-1.691c0,-0.276 0.224,-0.5 0.5,-0.5l4,-0c0.173,-0 0.334,0.09 0.425,0.237c0.018,0.028 0.032,0.057 0.043,0.088l1.032,-1.032l-0,-4.793c-0,-0.167 0.084,-0.323 0.223,-0.416l3,-2c0.047,-0.032 0.1,-0.055 0.156,-0.069l4,-1c0.007,-0.002 0.015,-0.004 0.023,-0.005l5,-1c0.032,-0.007 0.065,-0.01 0.098,-0.01c-0,-0 1.64,-0 1.64,-0l0.886,-2.658c0.045,-0.138 0.149,-0.248 0.283,-0.304c0.134,-0.055 0.285,-0.05 0.415,0.015c-0,-0 1.894,0.947 1.894,0.947c0,-0 3.675,-0 3.675,0c-0,0 2.77,-2.77 2.77,-2.77l0.963,-2.888c0.049,-0.149 0.167,-0.267 0.316,-0.316c-0,-0 2.936,-0.979 2.936,-0.979c0,-0 2.903,-1.936 2.903,-1.936l3.965,-3.965c0.094,-0.093 0.221,-0.146 0.354,-0.146c-0,-0 3.64,-0 3.64,-0c-0,-0 0.86,-2.581 0.86,-2.581l-0,-2.919c0,-0.184 0.101,-0.354 0.264,-0.441c0.163,-0.087 0.36,-0.077 0.513,0.025l5.874,3.916c0,-0 1.349,-0 1.349,-0l-0,-1.5c-0,-0.133 0.053,-0.26 0.146,-0.354c0,0 1.943,-1.942 1.943,-1.942l0.964,-1.928c0.123,-0.247 0.424,-0.347 0.671,-0.223c-0,-0 1.484,0.742 1.484,0.742c-0,-0 0.792,-2.376 0.792,-2.376c-0,-0 -0,-1.712 0,-1.712l-0.854,-0.853c-0.143,-0.143 -0.185,-0.359 -0.108,-0.545c0.077,-0.187 0.26,-0.309 0.462,-0.309c-0,-0 1.5,-0 1.5,-0l0,-1.5c0,-0.133 0.053,-0.26 0.146,-0.354c0,0 1.647,-1.646 1.647,-1.646l-2.647,-2.646l0.007,0.005c-0.01,-0.009 -0.02,-0.019 -0.029,-0.03c-0.033,-0.036 -0.2,-0.23 -0.303,-0.463c-0.114,-0.256 -0.14,-0.546 -0.026,-0.795c0.08,-0.172 0.227,-0.343 0.506,-0.457c0.238,-0.097 0.626,-0.161 1.238,-0.112c0.759,0.06 1.278,0.314 1.637,0.624c0.627,0.542 0.778,1.283 0.814,1.657c-0,-0 0.717,0.717 0.717,0.717l3.293,0l0,-1.5c-0,-0.189 0.107,-0.363 0.276,-0.447c0,-0 1.38,-0.69 1.38,-0.69l-0.51,-0.509c-0.143,-0.143 -0.185,-0.359 -0.108,-0.545c0.077,-0.187 0.26,-0.309 0.462,-0.309c0,-0 0.5,-0 0.5,-0l-2.8,-2.1c-0.158,-0.118 -0.231,-0.318 -0.188,-0.511c0.044,-0.192 0.197,-0.341 0.39,-0.379c-0,-0 3.816,-0.764 3.816,-0.764c0,0 -1.923,-1.282 -1.923,-1.282l-3.916,-0.979c-0.203,-0.051 -0.353,-0.222 -0.376,-0.43c-0.023,-0.208 0.086,-0.409 0.273,-0.502c0,-0 1.928,-0.964 1.928,-0.964l0.942,-0.943c0.153,-0.152 0.385,-0.189 0.578,-0.093l4,2c0.048,0.024 0.092,0.055 0.13,0.093c-0,0 0.646,0.647 0.646,0.647c0,-0 1.5,-1.5 1.5,-1.5c0,-0 0,-1.433 -0,-1.433l-2.658,-0.886c-0.138,-0.045 -0.248,-0.149 -0.304,-0.283c-0.055,-0.134 -0.05,-0.285 0.015,-0.415c-0,0 0.638,-1.276 0.638,-1.276l-4.191,-0c-0.24,0 -0.446,-0.17 -0.491,-0.405c-0.045,-0.236 0.083,-0.47 0.305,-0.559c0,-0 4.981,-1.993 4.981,-1.993c0,0 1.116,-0.557 1.116,-0.557c-0.384,-0.2 -0.807,-0.41 -1.049,-0.504c-0.077,0.007 -0.612,0.054 -1.076,0.142c-1.481,0.282 -3.658,0.859 -3.658,0.859c-0.15,0.04 -0.31,0.008 -0.433,-0.087c-0.123,-0.094 -0.195,-0.241 -0.195,-0.396l0,-1c-0,-0.215 0.138,-0.406 0.342,-0.474c-0,-0 2.658,-0.886 2.658,-0.886l0,-1.64c0,-0.276 0.224,-0.5 0.5,-0.5c0,-0 0.661,-0 0.661,-0c0,-0 1.752,-4.38 1.752,-4.38c0,0 -0.512,-0.512 -0.512,-0.512l-1.677,0.839c-0.136,0.068 -0.295,0.071 -0.433,0.007c-0.138,-0.063 -0.239,-0.186 -0.276,-0.333c-0,0 -0.905,-3.621 -0.905,-3.621l-2.61,-0c-0.041,0 -0.082,-0.005 -0.121,-0.015c-0,0 -3.641,-0.91 -3.641,-0.91l-2.809,4.682c-0.091,0.151 -0.253,0.243 -0.429,0.243l-1,-0c-0.184,-0 -0.354,-0.101 -0.441,-0.264c-0.087,-0.163 -0.077,-0.36 0.025,-0.513c-0,-0 3.839,-5.759 3.839,-5.759l-0.87,-1.74c-0.035,-0.07 -0.053,-0.146 -0.053,-0.224c0,-0 0,-1.306 -0,-1.306l-5.342,1.78c-0.126,0.042 -0.263,0.033 -0.382,-0.027l-2,-1c-0.222,-0.111 -0.329,-0.369 -0.25,-0.605l1,-3c0.024,-0.074 0.066,-0.141 0.12,-0.196c0,0 2.854,-2.853 2.854,-2.853c0,-0 0,-2.712 0,-2.712c0,0 -0.816,-2.449 -0.816,-2.449l-2.526,0.842c-0.103,0.035 -0.213,0.035 -0.316,0l-3,-1c-0.204,-0.068 -0.342,-0.259 -0.342,-0.474c0,0 0,-0.793 0,-0.793l-0.854,-0.853c-0.093,-0.094 -0.146,-0.221 -0.146,-0.354l0,-1c0,-0.189 0.107,-0.363 0.276,-0.447c0,-0 1.815,-0.908 1.815,-0.908c0,0 0.869,-2.607 0.869,-2.607l-0.907,-1.814c-0.021,-0.041 -0.035,-0.083 -0.043,-0.126l-0.063,0.126c-0.048,0.096 -0.127,0.175 -0.223,0.223l-2,1c-0.07,0.035 -0.146,0.053 -0.224,0.053c0,-0 -0.64,-0 -0.64,0c0,0 -0.86,2.581 -0.86,2.581l0,0.919c-0,0.173 -0.09,0.334 -0.237,0.425c-0.148,0.091 -0.332,0.1 -0.487,0.022l-6,-3c-0.169,-0.084 -0.276,-0.258 -0.276,-0.447c0,0 0,-0.919 -0,-0.919l-0.974,-2.923c-0.042,-0.126 -0.033,-0.263 0.027,-0.382c-0,0 0.742,-1.484 0.742,-1.484l-2.453,-0.818c-0.204,-0.068 -0.342,-0.259 -0.342,-0.474c0,-0 0,-2.691 -0,-2.691Zm-90.549,71.703l0.049,0.488l0.123,-0.425c-0.078,-0.047 -0.123,-0.075 -0.123,-0.075c0,-0 -0.018,0.004 -0.049,0.012Zm113.339,-6.722c-0.134,0.129 -0.29,0.21 -0.29,0.21c0.135,-0 0.262,-0.054 0.353,-0.147l-0.063,-0.063Zm-142.29,-4.79l-0.032,-0.196l-0.011,0.041c-0.005,0.015 -0.01,0.029 -0.015,0.044l-0.016,0.042l0.074,0.069Zm20.004,-4.5l-0.004,-0c0,-0 -0.048,0.03 -0.124,0.067l0.124,0.433l0.004,-0.5Zm21.157,-20.473l-0.018,-0.005l0,-0.001l0.018,0.006Zm-40.161,-5.027l-0.055,-0.444c-0.023,0.025 -0.052,0.058 -0.082,0.096l0.137,0.348Zm-0.52,-2.639l0,0l-0.002,-0.009c-0.002,-0.005 -0.003,-0.009 -0.005,-0.014l0.007,0.023Zm15.77,-5.243l-0.425,0.85l0.567,-0.567l-0.142,-0.283Zm48.688,-1.126l0.062,0.008l0.059,-0.498c-0.033,0.005 -0.059,-0.002 -0.059,-0.002c0,-0 -0.028,0.198 -0.062,0.492Zm0,0.004l0,-0l0.008,0.001l0.005,0.001l-0.013,-0.002Zm71.136,-15.005l2.009,-0.7c0,-0 -1.083,-1.084 -1.083,-1.084l-0.646,0.647c-0.038,0.038 -0.082,0.069 -0.13,0.093c-0,0 -1.851,0.926 -1.851,0.926l-0.587,1.174c0.25,-0.143 1.697,-0.96 2.033,-1.04c0.098,-0.023 0.182,-0.026 0.255,-0.016Zm-0.546,0.674l-0.011,-0.036c0.003,0.01 0.007,0.022 0.012,0.036l-0.001,0Zm0.915,-0.399c0.009,0.019 0.017,0.037 0.024,0.055c0.007,0.018 0.012,0.035 0.016,0.05c-0.01,-0.036 -0.023,-0.072 -0.04,-0.105Z"/></svg>