<?xml version="1.0" encoding="UTF-8" standalone="no"?><!DOCTYPE svg PUBLIC "-//W3C//DTD SVG 1.1//EN" "http://www.w3.org/Graphics/SVG/1.1/DTD/svg11.dtd"><svg width="68px" height="101px" version="1.1" xmlns="http://www.w3.org/2000/svg" xmlns:xlink="http://www.w3.org/1999/xlink" xml:space="preserve" xmlns:serif="http://www.serif.com/" style="fill-rule:evenodd;clip-rule:evenodd;stroke-linejoin:round;stroke-miterlimit:2;"><path id="ireland" d="M42.5,7l0,-2c0,0.078 0.018,0.154 0.053,0.224l0.888,1.776c-0,-0 -0.852,1.704 -0.852,1.704c0,-0 -1.943,1.942 -1.943,1.942c-0.173,0.174 -0.195,0.447 -0.052,0.646c0.144,0.199 0.41,0.265 0.63,0.155l4,-2c0.118,-0.059 0.208,-0.163 0.25,-0.289l1,-3c0.042,-0.126 0.033,-0.263 -0.027,-0.382l-0.947,-1.894c0,-0 0,-1.382 0,-1.382c0,-0 2.5,-0 2.5,-0c0.276,-0 0.5,-0.224 0.5,-0.5l0,-1.066c0,0 2.223,1.482 2.223,1.482c0.017,0.012 0.035,0.022 0.053,0.031l1.38,0.69c-0,-0 -4.51,4.509 -4.51,4.509c-0.143,0.143 -0.185,0.359 -0.108,0.545c0.031,0.075 0.079,0.139 0.138,0.189l-0.758,0.127c-0.158,0.026 -0.294,0.126 -0.365,0.269l-1,2c-0.035,0.07 -0.053,0.146 -0.053,0.224l0,1.849c-0,-0 -1.916,2.874 -1.916,2.874c-0.055,0.082 -0.084,0.178 -0.084,0.277l0,0.5c-0,-0 -2.5,-0 -2.5,-0c-0.276,0 -0.5,0.224 -0.5,0.5l0,0.066c0,-0 -0.723,-0.482 -0.723,-0.482c-0.168,-0.112 -0.386,-0.112 -0.554,-0l-1.5,1c-0.139,0.093 -0.223,0.249 -0.223,0.416l0,2c0,0.184 0.101,0.354 0.264,0.441c0.163,0.087 0.36,0.077 0.513,-0.025l1.281,-0.854l0.881,0.352l-1.255,1.674c0,-0 -2.37,0.948 -2.37,0.948c-0.063,0.025 -0.12,0.063 -0.168,0.11l-2,2c-0.104,0.105 -0.157,0.251 -0.144,0.399c0.013,0.148 0.092,0.282 0.214,0.367c0,-0 1.836,1.264 2.989,2.474c0.415,0.436 0.76,0.841 0.798,1.172c0.16,1.368 0.507,3.044 0.507,3.044c0.031,0.144 0.123,0.269 0.253,0.339c0.131,0.069 0.285,0.078 0.423,0.023l2.073,-0.829c-0,0 0.794,1.589 0.794,1.589c0.084,0.169 0.258,0.276 0.447,0.276l5,-0c0.099,0 0.195,-0.029 0.277,-0.084l3,-2c0.21,-0.14 0.283,-0.414 0.17,-0.64l-0.87,-1.74c-0,-0 1.562,-2.343 1.562,-2.343c-0,0 2.361,1.575 2.361,1.575c0,-0 0,1.732 0,1.732c0,0.078 0.018,0.154 0.053,0.224l1,2c0.084,0.169 0.258,0.276 0.447,0.276l1.793,-0c-0,-0 0.599,0.599 0.599,0.599c-0,-0 -0.839,1.677 -0.839,1.677c-0.078,0.155 -0.069,0.339 0.022,0.487c0.091,0.147 0.252,0.237 0.425,0.237l0.959,-0l3.066,0.511l-0.45,0.726c-0.122,0.197 -0.093,0.452 0.071,0.617l0.854,0.853c0,0 0,1.793 0,1.793c0,0.054 0.009,0.107 0.026,0.158l0.994,2.982c-0,-0 0.995,3.981 0.995,3.981c0.035,0.142 0.131,0.261 0.261,0.326l1.724,0.862c0,0 0,1.382 0,1.382c-0,-0 -1.724,0.862 -1.724,0.862c-0.247,0.123 -0.347,0.424 -0.223,0.671l0.947,1.894c0,0 0,0.382 0,0.382c-0,-0 -0.5,-0 -0.5,-0c-0.184,-0 -0.354,0.101 -0.441,0.264c-0.087,0.163 -0.077,0.36 0.025,0.513l1.94,2.911c0,0 0.961,5.766 0.961,5.766c-0.179,0.5 -0.844,2.374 -0.969,2.922c-0.012,0.018 -0.114,0.169 -0.199,0.271c-0.244,0.291 -0.596,0.659 -0.923,1.083c-0.627,0.811 -1.132,1.816 -0.881,2.884c0.365,1.552 0.082,4.094 0.008,4.691c0,0 -2.85,3.801 -2.85,3.801c-0,-0 -1.895,0.947 -1.895,0.947c-0.132,0.066 -0.229,0.188 -0.263,0.332c-0.034,0.144 -0.002,0.296 0.087,0.415l2.4,3.2c-0,-0 -4.691,-0 -4.691,-0c0,-0 -0.862,-1.724 -0.862,-1.724c-0.084,-0.169 -0.258,-0.276 -0.447,-0.276c-0.189,0 -0.363,0.107 -0.447,0.276l-0.69,1.38c0,-0 -1.509,-1.51 -1.509,-1.51c-0.123,-0.122 -0.3,-0.172 -0.469,-0.133c-0.169,0.04 -0.305,0.164 -0.359,0.329l-0.886,2.658c-0,0 -1.615,-0 -1.615,-0c-0.272,-0.028 -2.284,-0.22 -3.156,0.018c-0.879,0.239 -3.987,0.996 -3.987,0.996c-0.224,0.055 -0.382,0.255 -0.382,0.486l0,2.64c-0,-0 -2.365,0.788 -2.365,0.788c0,-0 -0.781,-0.782 -0.781,-0.782c-0.114,-0.113 -0.275,-0.165 -0.434,-0.14c-0.159,0.026 -0.295,0.127 -0.367,0.27l-0.964,1.928c0,-0 -2.452,2.452 -2.452,2.452c-0,-0 -0.69,-1.38 -0.69,-1.38c-0.084,-0.169 -0.258,-0.276 -0.447,-0.276l-4,0c-0.181,0 -0.348,0.098 -0.436,0.255c-0.089,0.158 -0.085,0.351 0.009,0.506c0,-0 0.646,1.053 0.957,1.91c0.133,0.366 0.366,0.771 0.515,1.123c0.026,0.06 0.05,0.138 0.068,0.201c-0.034,0.004 -0.07,0.006 -0.103,0.005c-1.34,-0.026 -3.166,1.013 -3.261,1.067l0.016,-0.008l-3.989,1.994c-0.048,0.024 -0.092,0.055 -0.13,0.093l-0.853,0.854c-0,0 -2.793,0 -2.793,0c-0.133,0 -0.26,0.053 -0.354,0.146l-0.853,0.854c-0,0 -2.675,0 -2.675,0c0,-0 -1.894,-0.947 -1.894,-0.947c-0.119,-0.06 -0.256,-0.069 -0.382,-0.027l-1.618,0.539c0,-0 1.192,-1.788 1.192,-1.788c0.025,-0.037 0.044,-0.077 0.058,-0.119l1,-3c0.051,-0.152 0.026,-0.32 -0.068,-0.45c-0.094,-0.131 -0.245,-0.208 -0.406,-0.208l-1,0c-0.099,0 -0.195,0.029 -0.277,0.084l-2.874,1.916c-0,0 -1.849,0 -1.849,0c-0.054,0 -0.107,0.009 -0.158,0.026l-0.991,0.33c0,-0 2.419,-2.419 2.419,-2.419c0,0 2.888,-0.963 2.888,-0.963c0.126,-0.042 0.23,-0.132 0.289,-0.25l1,-2c0.088,-0.175 0.065,-0.385 -0.057,-0.537c-0.122,-0.152 -0.322,-0.219 -0.511,-0.172l-4,1c-0.088,0.022 -0.168,0.067 -0.233,0.131l-1.853,1.854c-0,0 -3.586,0 -3.586,0c0,0 -0.853,-0.854 -0.853,-0.854c-0.094,-0.093 -0.221,-0.146 -0.354,-0.146l-1.066,0c0,-0 1.408,-2.112 1.408,-2.112c0,-0 3.882,-1.941 3.882,-1.941c0.048,-0.024 0.092,-0.055 0.13,-0.093l1.942,-1.943c0,-0 1.928,-0.964 1.928,-0.964c0.207,-0.103 0.316,-0.336 0.263,-0.562c-0.054,-0.226 -0.255,-0.385 -0.487,-0.385l-8.793,0l0.964,-0.964c0.403,0.057 1.185,0.126 1.942,-0.049c0.921,-0.213 2.832,0.01 2.832,0.01c0.018,0.002 0.036,0.003 0.055,0.003l3,0c0.173,0 0.334,-0.09 0.425,-0.237c0.091,-0.148 0.1,-0.332 0.022,-0.487l-0.947,-1.894c0,-0 0,-2.573 0,-2.573c0,0 1.724,-0.862 1.724,-0.862c0.169,-0.084 0.276,-0.258 0.276,-0.447l0,-0.623c0,0 6.629,-1.894 6.629,-1.894c0,0 3.992,-0.998 3.992,-0.998c0.013,-0.003 0.025,-0.007 0.037,-0.011l3,-1c0.192,-0.064 0.326,-0.237 0.341,-0.439c0.014,-0.201 -0.095,-0.392 -0.275,-0.482l-1.851,-0.926c-0,0 -0.926,-1.851 -0.926,-1.851c-0.072,-0.143 -0.208,-0.244 -0.367,-0.27c-0.159,-0.025 -0.32,0.027 -0.434,0.14l-2.853,2.854c-0,0 -5.793,0 -5.793,0c-0.041,0 -0.082,0.005 -0.121,0.015l-2.249,0.562c-0,0 1.666,-1.666 1.666,-1.666c0,-0 1.928,-0.964 1.928,-0.964c0.096,-0.048 0.175,-0.127 0.223,-0.223l2,-4c0.035,-0.07 0.053,-0.146 0.053,-0.224l0,-3.5c0,0 1.5,0 1.5,0c0.078,0 0.154,-0.018 0.224,-0.053l4,-2c0.118,-0.059 0.208,-0.163 0.25,-0.289l1,-3c0.079,-0.236 -0.028,-0.494 -0.25,-0.605l-2,-1c-0.107,-0.054 -0.229,-0.067 -0.345,-0.038l-3.941,0.985c0,-0 -3.438,-0 -3.438,-0c0,-0 0,-2.5 0,-2.5c0,-0.276 -0.224,-0.5 -0.5,-0.5l-3,-0c-0.078,0 -0.154,0.018 -0.224,0.053l-1.276,0.638c0,-0 0,-1.191 0,-1.191c0,-0.276 -0.224,-0.5 -0.5,-0.5l-2,0c-0.078,0 -0.154,0.018 -0.224,0.053l-1.276,0.638c0,-0 0,-3.691 0,-3.691c0,0 1.5,0 1.5,0c0.054,0 0.107,-0.009 0.158,-0.026l2.923,-0.974c0,0 0.919,0 0.919,0c0.232,0 0.433,-0.159 0.487,-0.385c0.053,-0.226 -0.056,-0.459 -0.263,-0.562l-1.851,-0.926c-0,0 -0.873,-1.745 -0.873,-1.745c-0,-0 -0,-0.302 -0,-0.302c0.645,0.076 1.702,0.138 2.623,-0.095c1.244,-0.316 2.776,0.005 2.776,0.005c0.147,0.03 0.3,-0.007 0.417,-0.102c0.116,-0.095 0.184,-0.238 0.184,-0.388l0,-3c0,-0.215 -0.138,-0.406 -0.342,-0.474l-2.888,-0.963c0,-0 -1.859,-1.859 -1.859,-1.859c-0,-0 -0.803,-1.605 -0.803,-1.605c0,-0 0.746,-0.745 0.746,-0.745c0.195,-0.196 0.195,-0.512 -0,-0.708l-0.854,-0.853c0,-0 0,-2.293 0,-2.293c0,-0 1.5,-0 1.5,-0c0.189,-0 0.363,-0.107 0.447,-0.276l0.862,-1.724c0,-0 2.484,-0 2.484,-0c-0,-0 0.853,0.854 0.853,0.854c0.094,0.093 0.221,0.146 0.354,0.146l2.691,-0c-0,-0 1.862,3.724 1.862,3.724c0.09,0.18 0.281,0.289 0.482,0.275c0.202,-0.015 0.375,-0.149 0.439,-0.341l0.886,-2.658c0,-0 4.522,-0 4.522,-0c-0,0 1.894,0.947 1.894,0.947c0.07,0.035 0.146,0.053 0.224,0.053l2,-0c0.276,-0 0.5,-0.224 0.5,-0.5l0,-2c0,-0.078 -0.018,-0.154 -0.053,-0.224l-0.839,-1.677c0,-0 1.662,-1.662 1.662,-1.662c0,0 2.888,-0.963 2.888,-0.963c0.126,-0.042 0.23,-0.132 0.289,-0.25l2,-4c0.096,-0.193 0.059,-0.425 -0.093,-0.578l-1,-1c-0.073,-0.072 -0.166,-0.121 -0.267,-0.138c-0,-0 -2.436,-0.427 -4.298,-0.384c-0.908,0.021 -1.689,0.177 -2.088,0.475c-0.357,0.266 -0.806,0.303 -1.212,0.271c-0.294,-0.023 -0.57,-0.085 -0.79,-0.149c-0,-0 0.656,-1.312 0.656,-1.312c-0,-0 2.726,-0.909 2.726,-0.909c0,-0 0.919,-0 0.919,-0c0.173,0 0.334,-0.09 0.425,-0.237c0.091,-0.148 0.1,-0.332 0.022,-0.487l-0.638,-1.276c0,-0 2.191,-0 2.191,-0c0.276,-0 0.5,-0.224 0.5,-0.5l0,-2c0,-0.078 -0.018,-0.154 -0.053,-0.224l-0.839,-1.677c0,-0 0.746,-0.745 0.746,-0.745c0.054,-0.055 0.096,-0.122 0.12,-0.196l0.886,-2.658c0,-0 0.64,-0 0.64,-0c0.054,-0 0.107,-0.009 0.158,-0.026l2.923,-0.974c0,-0 1.712,-0 1.712,-0c-0,-0 0.853,0.854 0.853,0.854c0.038,0.038 0.082,0.069 0.13,0.093l2,1c0.155,0.078 0.339,0.069 0.487,-0.022c0.147,-0.091 0.237,-0.252 0.237,-0.425Zm10.356,-0.149l-0.799,0.799l0.564,-0.094l0.235,-0.705Zm-10.356,-2.851c-0,-0.133 -0.053,-0.26 -0.146,-0.354l-0.147,-0.146c0,-0 0.293,-0 0.293,-0l-0,0.5Z"/></svg>