<?xml version="1.0" encoding="UTF-8" standalone="no"?><!DOCTYPE svg PUBLIC "-//W3C//DTD SVG 1.1//EN" "http://www.w3.org/Graphics/SVG/1.1/DTD/svg11.dtd"><svg width="187px" height="219px" version="1.1" xmlns="http://www.w3.org/2000/svg" xmlns:xlink="http://www.w3.org/1999/xlink" xml:space="preserve" xmlns:serif="http://www.serif.com/" style="fill-rule:evenodd;clip-rule:evenodd;stroke-linejoin:round;stroke-miterlimit:2;"><path id="italy" d="M128.186,218.488l0.102,-0.079c0.128,-0.091 0.212,-0.24 0.212,-0.409c0,-0.276 -0.224,-0.5 -0.5,-0.5l-3.691,0c0,0 -1.862,-3.724 -1.862,-3.724c-0.024,-0.048 -0.055,-0.092 -0.093,-0.13l-2,-2c-0.101,-0.1 -0.24,-0.153 -0.382,-0.145c-0,-0 -2.942,0.168 -4.93,0.001c-1.677,-0.142 -2.53,-1.61 -2.597,-1.731c-0.002,-0.003 -0.998,-1.995 -0.998,-1.995c-0.084,-0.169 -0.258,-0.276 -0.447,-0.276l-1.793,0c0,0 -1.853,-1.854 -1.853,-1.854c-0.024,-0.023 -0.049,-0.044 -0.077,-0.062l-3,-2c-0.082,-0.055 -0.178,-0.084 -0.277,-0.084l-2.793,0c0,0 -0.853,-0.854 -0.853,-0.854c-0.065,-0.064 -0.145,-0.109 -0.233,-0.131l-3.946,-0.987c-0,0 -1.911,-0.955 -1.911,-0.955c-0.144,-0.117 -0.986,-0.88 -0.768,-2.507c0.088,-0.66 0.215,-1.077 0.353,-1.338c0.061,-0.115 0.147,-0.202 0.175,-0.229c0.205,-0.009 0.385,-0.144 0.45,-0.341l0.935,-2.803c-0,-0 1.492,-0.747 1.492,-0.747c0,0 0.745,0.746 0.745,0.746c0.038,0.038 0.082,0.069 0.13,0.093l2,1c0.141,0.071 0.307,0.071 0.448,0l2,-1c0.096,-0.048 0.175,-0.127 0.223,-0.223l0.862,-1.724c0,-0 3.191,0 3.191,0c0,0 0,1.5 0,1.5c0,0.276 0.224,0.5 0.5,0.5l1.849,0c-0,0 2.874,1.916 2.874,1.916c0.082,0.055 0.178,0.084 0.277,0.084l2,0c0.054,0 0.107,-0.009 0.158,-0.026l2.923,-0.974c0,0 8.919,0 8.919,0c0.133,0 0.26,-0.053 0.354,-0.146l1.902,-1.903c-0,0 3.686,-0.921 3.686,-0.921c-0,-0 1.834,0.917 1.834,0.917c0.141,0.071 0.307,0.071 0.448,0l1.981,-0.99l4.073,-1.63l-0.729,2.917c-0,0 -1.903,1.902 -1.903,1.902c-0.023,0.024 -0.044,0.049 -0.062,0.077l-2,3c-0.036,0.054 -0.061,0.115 -0.074,0.179l-0.987,4.934c-0,0 -0.97,1.94 -0.97,1.94c-0.035,0.07 -0.053,0.146 -0.053,0.224l0,2c0,0.054 0.009,0.107 0.026,0.158l1,3c0.024,0.074 0.066,0.141 0.12,0.196l0.917,0.916c-0,0 0.826,2.477 0.826,2.477c-0,-0 -1.613,0.806 -1.613,0.806c-0.048,0.024 -0.092,0.055 -0.13,0.093l-1,1c-0.093,0.094 -0.146,0.221 -0.146,0.354l0,2.501c-0.687,0.002 -1.906,0.004 -2.496,-0.001c-0.817,-0.007 -1.423,-0.089 -2.818,-0.012Zm-34.24,-21.993l-0.011,0.001c-0.012,-0.002 -0.019,-0.003 -0.019,-0.003l0.03,0.002Zm5.554,-72.495l0.5,0l0.069,0.121c0.071,-0.313 0.197,-0.66 0.371,-0.36c0.037,0.065 0.232,0.406 0.444,0.803l1.126,2.422c0.104,0.196 0.205,0.377 0.281,0.514l1.502,0l0.853,-0.854c0.068,-0.067 0.154,-0.114 0.248,-0.135c0,0 1.213,-0.258 2.231,0.005c0.785,0.203 1.69,0.764 2.027,0.984l3.848,0c0.189,0 0.363,0.107 0.447,0.276c0,0 0.986,1.973 0.986,1.973l1.983,2.974c0.025,0.037 0.044,0.077 0.058,0.119c0,-0 0.935,2.803 0.935,2.803c-0,0 1.629,0.815 1.629,0.815l2.804,-0.934c0.11,-0.037 0.229,-0.034 0.337,0.007c-0,0 1.322,0.484 2.261,2.23c0.485,0.901 0.749,1.439 0.887,1.737l4.673,0c0.215,-0 0.406,0.138 0.474,0.342c0,-0 0.979,2.936 0.979,2.936l1.963,2.945c0.1,0.149 0.111,0.34 0.031,0.501c0,-0 -0.888,1.776 -0.888,1.776c0,0 0.796,1.591 0.796,1.591l2.803,0.935c0.074,0.024 0.141,0.066 0.196,0.12c-0,0 2.646,2.647 2.646,2.647l0.646,-0.647c0.038,-0.038 0.082,-0.069 0.13,-0.093l2,-1c0.218,-0.109 0.483,-0.045 0.627,0.151c0,0 1.002,1.388 1.842,1.86c0.36,0.203 0.648,0.621 0.84,1.134c0.312,0.837 0.394,1.921 0.411,2.208c-0,0 1.957,5.872 1.957,5.872l1.963,2.945c0.036,0.054 0.061,0.115 0.074,0.179l1,5c0.007,0.032 0.01,0.065 0.01,0.098c0,0 0,2.793 -0,2.793l1.854,1.853c0.093,0.094 0.146,0.221 0.146,0.354l0,3c-0,0.078 -0.018,0.154 -0.053,0.224l-1,2c-0.123,0.247 -0.424,0.347 -0.671,0.223c0,0 -1.677,-0.839 -1.677,-0.839c-0,0 -1.599,1.599 -1.599,1.599c0,0 0,0.759 -0.001,0.753c0.037,0.27 0.264,2.061 -0.014,3.162c-0.302,1.197 -2.116,3.215 -2.116,3.215c-0.041,0.046 -0.091,0.083 -0.145,0.11c-0,0 -1.724,0.862 -1.724,0.862c0,0 0,4.331 0,4.331c0,-0 2.581,0.86 2.581,0.86c0,0 1.801,-0 1.801,0c-0,0 1.689,-0.844 1.689,-0.844l0.944,-3.777c0.009,-0.036 0.021,-0.07 0.038,-0.103l1,-2c0.059,-0.118 0.163,-0.208 0.289,-0.25c-0,-0 2.837,-0.946 2.837,-0.946c0,-0 1.79,-2.685 1.79,-2.685l-0.959,-4.797c-0.033,-0.164 0.018,-0.333 0.136,-0.452l2,-2c0.017,-0.016 0.035,-0.032 0.054,-0.046l4,-3c0.12,-0.09 0.275,-0.122 0.421,-0.085c0,-0 3.379,0.845 3.379,0.845c0,-0 0,-9.11 -0,-9.11c-0,-0 -3.719,-2.789 -3.719,-2.789l-3.902,-0.976c-0.085,-0.021 -0.162,-0.064 -0.225,-0.124c0,0 -1.86,-1.789 -2.061,-2.07c-0.064,-0.09 -0.146,-0.332 -0.167,-0.678c-0.051,-0.858 0.075,-2.649 0.075,-2.649c0.005,-0.065 0.022,-0.129 0.052,-0.188c-0,0 0.984,-1.968 0.984,-1.968l0.989,-2.966c0.007,-0.023 0.016,-0.044 0.027,-0.066l2,-4c0.006,-0.011 0.012,-0.022 0.018,-0.033l3,-5c0.091,-0.151 0.253,-0.243 0.429,-0.243l4,-0c0.078,-0 0.154,0.018 0.224,0.053l2,1c0.143,0.072 0.244,0.208 0.27,0.367c0.025,0.159 -0.027,0.32 -0.14,0.434c-0,-0 -0.647,0.646 -0.647,0.646c0,0 1.563,1.563 1.563,1.563c0,-0 2.75,0.917 2.75,0.917l3.859,-0.965c0.146,-0.037 0.301,-0.005 0.422,0.086c0.12,0.09 0.193,0.231 0.199,0.382c-0,-0 0.017,0.453 0.202,0.907c0.104,0.257 0.261,0.524 0.533,0.668c0.294,0.157 0.452,0.318 0.548,0.47c0.115,0.182 0.152,0.366 0.154,0.568c0.003,0.244 -0.091,0.549 0.414,1.048c1.182,1.168 2.103,3.146 2.103,3.146c0.03,0.066 0.046,0.137 0.046,0.21c0,-0 0,0.732 0,0.732c0,0 2.751,1.835 2.751,1.835c0,-0 1.249,0.624 1.249,0.624l0,-4.191c0,-0.054 0.009,-0.107 0.026,-0.158c-0,-0 0.917,-2.752 0.917,-2.752c-0,0 -2.822,-3.762 -2.822,-3.762c0,0 -4.917,-4.917 -4.917,-4.917l-9.928,-4.964c-0.048,-0.024 -0.092,-0.055 -0.13,-0.093c0,-0 -2.956,-2.957 -2.956,-2.957c-0,0 -4.9,-2.94 -4.9,-2.94l-5.948,-1.983c-0.023,-0.007 -0.044,-0.016 -0.066,-0.027l-6,-3c-0.018,-0.009 -0.036,-0.019 -0.053,-0.031l-3,-2c-0.188,-0.125 -0.269,-0.36 -0.197,-0.574l1,-3c0.032,-0.097 0.093,-0.181 0.174,-0.242c-0,0 3.666,-2.75 3.666,-2.75c0,0 -0.721,-1.441 -0.721,-1.441c0,-0 -2.726,-0.909 -2.726,-0.909c-0,-0 -3.878,-0 -3.878,0l-5.959,0.993c-0.08,0.014 -0.163,0.007 -0.24,-0.019l-3,-1c-0.009,-0.003 -0.019,-0.006 -0.028,-0.01l-5,-2c-0.113,-0.045 -0.206,-0.131 -0.261,-0.24c-0,-0 -0.964,-1.928 -0.964,-1.928c0,0 -1.923,-1.923 -1.923,-1.923l-4.978,-3.983c-0.041,-0.032 -0.075,-0.07 -0.104,-0.113l-4,-6c-0.019,-0.028 -0.035,-0.059 -0.048,-0.091l-2,-5c-0.004,-0.009 -0.007,-0.019 -0.01,-0.028c-0,0 -1.996,-5.986 -1.996,-5.986l-1.994,-4.986c-0.004,-0.009 -0.007,-0.019 -0.01,-0.028c-0,0 -0.946,-2.837 -0.946,-2.837c-0,-0 -2.814,-1.876 -2.814,-1.876l-4.952,-1.981c-0.063,-0.025 -0.12,-0.063 -0.168,-0.11c0,-0 -3.942,-3.943 -3.942,-3.943l-3.672,-1.836c0.302,0.749 0.468,1.568 0.468,2.425c0,3.587 -2.913,6.5 -6.5,6.5c-3.587,-0 -6.5,-2.913 -6.5,-6.5c0,-3.587 2.913,-6.5 6.5,-6.5c1.493,-0 2.869,0.505 3.967,1.352l-2.383,-3.575c-0.055,-0.082 -0.084,-0.178 -0.084,-0.277c0,-0 0,-4.919 0,-4.919l-1.974,-5.923c-0.079,-0.236 0.028,-0.494 0.25,-0.605l2,-1c0.07,-0.035 0.146,-0.053 0.224,-0.053c0,-0 0.691,-0 0.691,-0l0.862,-1.724c0.084,-0.169 0.258,-0.276 0.447,-0.276c0,-0 0.191,-0 0.191,0c-0,0 -0.564,-1.127 -0.564,-1.127l-1.851,-0.926c-0.118,-0.059 -0.208,-0.163 -0.25,-0.289c-0,0 -0.963,-2.888 -0.963,-2.888l-1.917,-1.916c-0.195,-0.196 -0.195,-0.512 0,-0.708c0,0 1.917,-1.916 1.917,-1.916l0.963,-2.888c0.049,-0.149 0.167,-0.267 0.316,-0.316l3,-1c0.051,-0.017 0.104,-0.026 0.158,-0.026l2,-0c0.276,-0 0.5,0.224 0.5,0.5c0,-0 0,0.306 0,0.306c0,0 2.23,-0.743 2.23,-0.743l1.916,-1.917c0.038,-0.038 0.082,-0.069 0.13,-0.093c0,-0 1.724,-0.862 1.724,-0.862l0,-0.691c0,-0.215 0.138,-0.406 0.342,-0.474l3,-1c0.126,-0.042 0.263,-0.033 0.382,0.027c-0,-0 1.894,0.947 1.894,0.947c0,-0 1.573,-0 1.573,0c-0,0 0.846,-1.692 0.846,-1.692c-0,0 0.769,-2.308 0.769,-2.308l-1.306,-0c-0.276,0 -0.5,-0.224 -0.5,-0.5l0,-3c0,-0.189 0.107,-0.363 0.276,-0.447c0,-0 1.38,-0.69 1.38,-0.69c-0,0 -1.426,-1.426 -1.426,-1.426l-2.888,-0.963c-0.148,-0.049 -0.264,-0.164 -0.315,-0.312c-0.051,-0.147 -0.029,-0.31 0.057,-0.439l2,-3c0.048,-0.073 0.115,-0.131 0.192,-0.17c0,-0 1.928,-0.964 1.928,-0.964c-0,0 1.282,-1.282 1.282,-1.282c-0,0 -4.036,-0.807 -4.036,-0.807l-4.95,-0c-0.064,-0 -0.127,-0.012 -0.186,-0.036c0,0 -4.91,-1.964 -4.91,-1.964l-4.904,-0c-0.167,0 -0.323,-0.084 -0.416,-0.223c-0,0 -1.973,-2.958 -1.973,-2.958l-1.965,-1.965c-0.054,-0.055 -0.096,-0.122 -0.12,-0.196l-1,-3c-0.042,-0.126 -0.033,-0.263 0.027,-0.382c-0,0 0.46,-0.92 0.46,-0.92l-1.855,0.618c-0.012,0.004 -0.024,0.008 -0.037,0.011c0,0 -3.981,0.995 -3.981,0.995l-2.982,0.994c-0.09,0.03 -0.187,0.034 -0.279,0.011c-0,0 -3.821,-0.955 -3.821,-0.955c0,-0 -1.762,0.881 -1.762,0.881c0,-0 -1.796,1.796 -1.796,1.796l0,1.793c0,0.215 -0.138,0.406 -0.342,0.474l-3,1c-0.126,0.042 -0.263,0.033 -0.382,-0.027l-2,-1c-0.096,-0.048 -0.175,-0.127 -0.223,-0.223c-0,-0 -0.806,-1.613 -0.806,-1.613c-0,0 -2.392,0.798 -2.392,0.798l-0.908,1.815c-0.024,0.048 -0.055,0.092 -0.093,0.13c-0,-0 -0.647,0.646 -0.647,0.646l1.647,1.646c0.093,0.094 0.146,0.221 0.146,0.354l0,2c-0,0.276 -0.224,0.5 -0.5,0.5l-3,-0c-0.276,0 -0.5,-0.224 -0.5,-0.5c0,0 0,-1.5 0,-1.5c0,-0 -1.293,-0 -1.293,0c0,0 -1.707,1.707 -1.707,1.707c0,0 0,1.484 0,1.484l1.724,0.862c0.247,0.123 0.347,0.424 0.223,0.671c0,-0 -0.839,1.677 -0.839,1.677l0.746,0.745c0.195,0.196 0.195,0.512 -0,0.708l-1,1c-0.196,0.195 -0.512,0.195 -0.708,-0l-2,-2c-0.038,-0.038 -0.069,-0.082 -0.093,-0.13c-0,-0 -0.777,-1.553 -0.777,-1.553c0,-0 -1.48,0.74 -1.48,0.74l-0.942,0.943c-0.094,0.093 -0.221,0.146 -0.354,0.146l-2,-0c-0.078,-0 -0.154,-0.018 -0.224,-0.053l-2,-1c-0.118,-0.059 -0.208,-0.163 -0.25,-0.289c-0,0 -0.886,-2.658 -0.886,-2.658c-0,-0 -1.14,-0 -1.14,0l0,4.5c0,0.133 -0.053,0.26 -0.146,0.354c-0,-0 -1.943,1.942 -1.943,1.942c-0,0 -1.852,3.704 -1.852,3.704l0.888,1.776c0.071,0.141 0.071,0.307 0,0.448l-1,2c-0.084,0.169 -0.258,0.276 -0.447,0.276l-1,-0c-0.133,-0 -0.26,-0.053 -0.354,-0.146l-1,-1c-0.038,-0.038 -0.069,-0.082 -0.093,-0.13c-0,-0 -0.964,-1.928 -0.964,-1.928l-0.943,-0.942c0.094,0.093 0.221,0.146 0.354,0.146c0,-0 -0.324,-0.881 -0.324,-0.881c-0,0 0.075,-0.064 0.075,-0.064l0.304,0.812l0.001,-0.003l-0.279,-0.83c0.158,-0.12 0.547,-0.446 0.717,-0.837l0.113,-0.334c-0.003,-0.022 -0.008,-0.044 -0.017,-0.067l-0.164,-0.167l-0.088,0.007l-0.443,0.181c-0.028,0.011 -0.058,0.02 -0.088,0.027l-0.706,0.146c-0.026,0.005 -0.053,0.008 -0.08,0.01c-1.221,0.05 -2.229,-0.988 -2.379,-1.151l-1.996,-1.995c-0.093,-0.094 -0.146,-0.221 -0.146,-0.354c0,-0 0,-4.5 -0,-4.5c-0,-0 -1.191,-0 -1.191,0l-0.862,1.724c-0.039,0.077 -0.097,0.144 -0.17,0.192c0,0 -2.283,1.522 -2.283,1.522l1.23,0.615c0.237,0.118 0.34,0.401 0.235,0.645c0,-0 -0.326,0.773 0.006,1.619c0.12,0.305 0.1,0.563 0.007,0.78c-0.086,0.201 -0.244,0.374 -0.463,0.507c-0.456,0.277 -1.251,0.36 -1.695,0.385l-0.867,1.735c-0.048,0.096 -0.127,0.175 -0.223,0.223c-0,0 -1.928,0.964 -1.928,0.964l-0.942,0.943c-0.153,0.152 -0.385,0.189 -0.578,0.093c0,0 -1.894,-0.947 -1.894,-0.947c-0,-0 -1.764,-0 -1.764,0l-1.894,0.947c-0.022,0.011 -0.043,0.02 -0.066,0.027l-3,1c-0.103,0.035 -0.213,0.035 -0.316,0c-0,0 -2.707,-0.902 -2.707,-0.902l-0.781,0.782c-0.055,0.054 -0.122,0.096 -0.196,0.12c0,0 -2.658,0.886 -2.658,0.886c0,0 0,1.433 -0,1.433c-0,-0 0.796,0.796 0.796,0.796l1.928,0.964c0.169,0.084 0.276,0.258 0.276,0.447c0,-0 0,1.793 -0,1.793l1.854,1.853c0.038,0.038 0.069,0.082 0.093,0.13l1,2c0.071,0.141 0.071,0.307 0,0.448l-1,2c-0.024,0.048 -0.055,0.092 -0.093,0.13l-2,2c-0.038,0.038 -0.082,0.069 -0.13,0.093l-2,1c-0.07,0.035 -0.146,0.053 -0.224,0.053c-0,-0 -1.793,0 -1.793,-0c0,-0 -1.363,1.363 -1.363,1.363l1.38,0.69c0.169,0.084 0.276,0.258 0.276,0.447c0,-0 0,1.691 -0,1.691l3.724,1.862c0.096,0.048 0.175,0.127 0.223,0.223l1,2c0.096,0.193 0.059,0.425 -0.093,0.578c-0,-0 -0.917,0.916 -0.917,0.916l-0.963,2.888c-0.042,0.126 -0.132,0.23 -0.25,0.289c-0,0 -1.106,0.553 -1.106,0.553l1.106,0.553c0.169,0.084 0.276,0.258 0.276,0.447c0,0 0,2.882 0,2.882c0,-0 0.873,1.745 0.873,1.745c-0,0 3.745,1.873 3.745,1.873l6.882,-0c0.276,0 0.5,0.224 0.5,0.5l0,3c-0,0.133 -0.053,0.26 -0.146,0.354c-0,-0 -2.854,2.853 -2.854,2.853c0,0 0,0.293 -0,0.293c-0,-0 3.438,-0 3.438,-0c0,-0 3.753,-0.938 3.753,-0.938l1.893,-2.839c0.018,-0.028 0.039,-0.053 0.062,-0.077c0,0 3.943,-3.942 3.943,-3.942l0.964,-1.928c0.035,-0.069 0.085,-0.129 0.147,-0.176l4,-3c0.125,-0.094 0.287,-0.124 0.437,-0.081c0,0 6.981,1.995 6.981,1.995l4.98,0.996c0.097,0.019 0.186,0.067 0.256,0.136c-0,0 2.942,2.943 2.942,2.943c0,0 1.822,0.911 1.822,0.911l3.882,-0c0.176,-0 0.338,0.092 0.429,0.243l3,5c0.066,0.11 0.087,0.241 0.059,0.367c-0,-0 -0.262,1.324 0.955,3.659c1.179,2.261 1.851,4.452 2.003,4.976c0.344,0.381 1.556,1.851 2.043,4.151c0.439,2.069 0.185,4.741 0.061,5.76l2.608,0.87c0.126,0.042 0.23,0.132 0.289,0.25c0,0 1.908,3.815 1.908,3.815l2.499,0.833c0.09,-0.067 0.198,-0.123 0.324,-0.146c0.16,-0.03 0.353,-0.019 0.572,0.105c0.181,0.103 0.413,0.312 0.664,0.737c0.293,0.493 0.651,1.334 1.066,2.738c0.415,1.409 0.698,2.293 0.847,2.747l3.865,1.932l2.966,0.989c0.139,0.046 0.25,0.15 0.305,0.286c0,-0 0.597,1.518 0.903,1.848c0.123,0.132 0.306,0.508 0.47,0.983c0.21,0.61 0.428,1.398 0.55,1.857l2.614,-0c0.251,-0 0.463,0.186 0.496,0.435c-0,-0 0.081,0.626 0.292,1.141c0.048,0.116 0.102,0.226 0.166,0.317c0.02,0.029 0.041,0.056 0.064,0.079c0.012,0.011 0.033,0.027 0.04,0.031c0.303,0.033 0.686,0.255 1.047,0.597c0.662,0.627 1.314,1.627 1.314,1.627l0.166,0.325c-0.056,-0.342 -0.085,-0.694 -0.085,-1.052c0,-3.587 2.913,-6.5 6.5,-6.5c3.587,-0 6.5,2.913 6.5,6.5c0,3.587 -2.913,6.5 -6.5,6.5c-0.711,-0 -1.396,-0.115 -2.034,-0.332c0.093,0.175 0.193,0.335 0.316,0.419c0.39,0.267 0.983,0.907 1.45,1.42c0.254,0.279 0.456,0.518 0.544,0.576c0.211,0.14 1.467,0.741 1.837,0.917l2.887,-0c-0.276,0 -0.5,0.224 -0.5,0.5Zm-61.39,45.488c-0.035,0.008 -0.072,0.012 -0.11,0.012c-0,-0 -0.451,-0.284 -0.451,-0.284c-0,-0 0.178,0.567 -0.04,1.689c-0.219,1.128 -0.12,2.299 -0.05,2.855c0,-0 -2.495,1.663 -2.495,1.663c0,0 -1.668,-0.834 -1.668,-0.834c0,0 -3.796,-3.796 -3.796,-3.796c0,-0 0,-7.712 0,-7.712c0,0 0.963,-2.889 0.963,-2.889c0,-0 0.984,-1.968 0.984,-1.968c0.035,-0.07 0.053,-0.146 0.053,-0.224l0,-2c0,-0.189 -0.107,-0.363 -0.276,-0.447l-1.724,-0.862c0,-0 0,-1.484 0,-1.484c-0,0 0.854,-0.853 0.854,-0.853c0.093,-0.094 0.146,-0.221 0.146,-0.354l0,-4c0,-0.133 -0.053,-0.26 -0.146,-0.354l-0.854,-0.853c0,-0 0,-2.793 0,-2.793c0,-0.133 -0.053,-0.26 -0.146,-0.354l-1.965,-1.965l-1.812,-2.717c-0,0 0.732,-1.464 0.732,-1.464c0,0 3.691,0 3.691,0c0.078,0 0.154,-0.018 0.224,-0.053l6,-3c0.048,-0.024 0.092,-0.055 0.13,-0.093l4.781,-4.782c0,0 2.595,0.865 2.595,0.865c-0,0 1.833,1.833 1.833,1.833c-0,0 0.743,2.23 0.743,2.23c0,0 -0.306,0 -0.306,0c-0.202,0 -0.385,0.122 -0.462,0.309c-0.077,0.186 -0.035,0.402 0.108,0.545l2.893,2.892c0,0 0.961,4.804 0.961,4.804c0,-0 0,2.743 0,2.743c0,-0 -1.854,1.853 -1.854,1.853c-0.093,0.094 -0.146,0.221 -0.146,0.354l0,3c0,0.133 0.053,0.26 0.146,0.354l0.854,0.853c0,0 0,2.752 0,2.752c-0,-0 -0.983,5.895 -0.983,5.895c-0.187,0.423 -1.191,2.774 -1.013,4.207c0.047,0.383 -0.053,0.817 -0.192,1.271c-0.16,0.525 -0.378,1.07 -0.552,1.596c-0.271,0.814 -0.422,1.592 -0.24,2.213c0.032,0.109 0.049,0.201 0.05,0.279c0.001,0.037 0.005,0.066 -0.01,0.086c-0.011,0.015 -0.033,0.013 -0.051,0.018c-0.047,0.012 -0.095,0.015 -0.14,0.016c-0.125,0.001 -0.231,-0.021 -0.251,-0.026c-0.337,-0.078 -0.35,0.204 -0.288,0.486l-0.33,0c-0,-0.276 0.224,-0.5 0.5,-0.5l-0.849,0c0,-0 -2.874,-1.916 -2.874,-1.916c-0.082,-0.055 -0.178,-0.084 -0.277,-0.084l-3,0c0.276,0 0.5,0.224 0.5,0.5l-0.5,0c0,0 0.076,0.144 0.11,0.488Zm87.352,-29.679c0.008,0.019 0.015,0.04 0.021,0.061c0.005,0.02 0.01,0.042 0.012,0.064c-0.005,-0.04 -0.016,-0.081 -0.033,-0.125Zm-52.614,-37.039l0.008,-0.003c0.116,-0.044 0.254,-0.056 0.41,0.028c0.007,0.004 0.028,0.023 0.052,0.047c-0.048,0.057 -0.099,0.148 -0.145,0.245l-0.173,-0.087c0,0 0.144,0.66 -0.152,-0.23Zm0.488,-0.141l0.05,0.153c0.044,-0.018 0.08,0.011 0.104,0.117c-0.022,-0.103 -0.075,-0.198 -0.154,-0.27Zm-39.133,-79.978l0.014,0.494c-0.206,-0 -0.387,-0.126 -0.462,-0.311l0.448,-0.183Zm0.564,0.112l-0.147,0.351l-0.025,-0.498l0.025,-0.002l0.147,0.149Z"/></svg>