<?xml version="1.0" encoding="UTF-8" standalone="no"?><!DOCTYPE svg PUBLIC "-//W3C//DTD SVG 1.1//EN" "http://www.w3.org/Graphics/SVG/1.1/DTD/svg11.dtd"><svg width="652px" height="354px" version="1.1" xmlns="http://www.w3.org/2000/svg" xmlns:xlink="http://www.w3.org/1999/xlink" xml:space="preserve" xmlns:serif="http://www.serif.com/" style="fill-rule:evenodd;clip-rule:evenodd;stroke-linejoin:round;stroke-miterlimit:2;"><path id="kazakhstan" d="M651.655,161.919c-0.094,-0.035 -0.176,-0.099 -0.235,-0.183c-0.093,-0.135 -0.115,-0.307 -0.057,-0.461l-5.751,15.337l-15.788,5.92c-0.174,0.065 -0.297,0.222 -0.32,0.406l-1,8c-0.003,0.021 -0.004,0.041 -0.004,0.062l0,18.726c-0,-0 -10.611,6.752 -10.611,6.752c0,-0 -19.736,-2.961 -19.736,-2.961c-0,0 -9.929,-4.964 -9.929,-4.964c-0.131,-0.065 -0.283,-0.07 -0.417,-0.014c-0.134,0.056 -0.238,0.168 -0.283,0.306l-13,40c-0.053,0.164 -0.018,0.343 0.092,0.475l4.316,5.18c0,-0 -10.692,-0 -10.692,-0c0,0 -3.85,-4.812 -3.85,-4.812c-0.164,-0.206 -0.461,-0.249 -0.677,-0.098l-9.895,6.927c-0,0 -17.873,1.986 -17.873,1.986c-0.186,0.021 -0.345,0.143 -0.412,0.318c-0.067,0.174 -0.031,0.371 0.093,0.511l7.874,8.858c0,0 0,16.81 0,16.81c0,0.06 0.011,0.119 0.032,0.176l5.895,15.72c-0,-0 -6.803,7.775 -6.803,7.775c-0.091,0.104 -0.135,0.241 -0.122,0.379l0.937,9.365c-0,-0 -13.168,-1.881 -13.168,-1.881c-0,-0 -6.876,-8.841 -6.876,-8.841c-0.095,-0.122 -0.241,-0.193 -0.395,-0.193l-14.95,0c-0,-0 -19.952,-3.99 -19.952,-3.99c-0.032,-0.007 -0.065,-0.01 -0.098,-0.01l-16,-0c-0.099,-0 -0.195,0.029 -0.277,0.084l-5.775,3.85c0,-0 -6.689,-2.867 -6.689,-2.867c0,0 -9.947,-7.957 -9.947,-7.957c-0.132,-0.106 -0.309,-0.138 -0.47,-0.084l-18,6c-0.248,0.082 -0.39,0.342 -0.327,0.595l2.775,11.101c0,-0 -19.125,-6.694 -19.125,-6.694c-0.029,-0.01 -0.059,-0.018 -0.089,-0.022l-13,-2c-0.188,-0.029 -0.376,0.051 -0.486,0.207l-7,10c-0.005,0.007 -0.009,0.015 -0.014,0.022l-4.9,7.84c-0,0 -19.82,5.946 -19.82,5.946c-0.073,0.022 -0.14,0.061 -0.196,0.113l-14,13c-0.114,0.105 -0.172,0.257 -0.158,0.411l0.927,10.2c0,-0 -11.632,-4.474 -11.632,-4.474l2.58,-3.44c0.085,-0.085 0.319,-0.335 0.485,-0.668c0.159,-0.317 0.252,-0.702 0.164,-1.098c-0.084,-0.378 -0.331,-0.788 -0.92,-1.142c-0.684,-0.41 -1.921,-0.775 -4.072,-0.922c-6.062,-0.415 -14.094,-0.089 -15.752,-0.015c0,0 -11.782,-20.619 -11.782,-20.619c-0,0 0,-13.665 0,-13.665c0,-0.123 -0.045,-0.242 -0.127,-0.333l-10,-11.202c-0.017,-0.019 -0.036,-0.037 -0.056,-0.054l-11,-9c-0.199,-0.163 -0.489,-0.148 -0.671,0.033l-4.822,4.823c-2.131,-0.31 -17.364,-2.519 -21.774,-2.966c-1.461,-0.149 -3.803,0.243 -6.365,0.88c-5.075,1.261 -11.034,3.461 -12.517,4.019c0,-0 -13.773,-17.709 -13.773,-17.709c-0.025,-0.031 -0.053,-0.06 -0.084,-0.084l-39,-31c-0.131,-0.105 -0.306,-0.136 -0.466,-0.084l-43,14c-0.203,0.066 -0.342,0.255 -0.345,0.469l-0.994,78.506c0,0 -8.223,-0 -8.223,-0c0,0 -8.854,-14.757 -8.854,-14.757c-0.042,-0.071 -0.101,-0.13 -0.172,-0.172l-10,-6c-0.111,-0.067 -0.245,-0.088 -0.372,-0.058l-17,4c-0.061,0.015 -0.12,0.041 -0.172,0.077l-8.867,6.207c0,0 2.62,-9.604 2.62,-9.604c-0,-0 3.968,-6.945 3.968,-6.945c0.137,-0.24 0.054,-0.545 -0.186,-0.682l-7,-4c-0.132,-0.076 -0.292,-0.087 -0.434,-0.03l-4.694,1.877c0,0 -9.766,-9.767 -9.766,-9.767c-0.196,-0.195 -0.512,-0.195 -0.708,0l-2.992,2.993c0,-0 0.843,-7.584 0.843,-7.584c0.011,-0.096 -0.007,-0.192 -0.05,-0.279l-7,-14c-0.04,-0.081 -0.102,-0.149 -0.179,-0.198l-10.018,-6.375c0,-0 6.77,-1.693 6.77,-1.693c0,0 5.898,0.983 5.898,0.983c0.232,0.039 0.459,-0.089 0.546,-0.307l4,-10c0.024,-0.059 0.036,-0.122 0.036,-0.186l-0,-6.59c-0,-0 4.598,-0.92 4.598,-0.92c0.073,-0.014 0.142,-0.045 0.202,-0.09l3.773,-2.829c-0,-0 16.737,6.891 16.737,6.891c0.045,0.019 0.092,0.031 0.14,0.036l9.322,0.932c-0,-0 -5.732,13.373 -5.732,13.373c-0.066,0.155 -0.05,0.332 0.043,0.472c0.092,0.141 0.249,0.225 0.417,0.225l6,-0c0.208,0 0.395,-0.129 0.468,-0.324l2.908,-7.755c-0,0 7.745,-1.936 7.745,-1.936c0.006,-0.001 0.011,-0.003 0.016,-0.004l7,-2c0.082,-0.024 0.156,-0.067 0.217,-0.127l6,-6c0.195,-0.196 0.195,-0.512 -0,-0.708l-10,-10c-0.094,-0.093 -0.221,-0.146 -0.354,-0.146l-10,-0c-0.078,-0 -0.154,0.018 -0.224,0.053l-3.677,1.839c-0,-0 -5.518,-5.518 -5.518,-5.518c0,0 2.887,-7.698 2.887,-7.698c0.045,-0.121 0.042,-0.255 -0.008,-0.373l-6,-14c-0.044,-0.102 -0.12,-0.186 -0.217,-0.24l-9,-5c-0.119,-0.066 -0.26,-0.081 -0.391,-0.041c-0.13,0.041 -0.238,0.132 -0.299,0.254l-2.806,5.613c-0,-0 -20.589,-6.863 -20.589,-6.863c-0.103,-0.035 -0.213,-0.035 -0.316,-0l-9,3c-0.074,0.024 -0.141,0.066 -0.196,0.12l-9,9c-0.067,0.068 -0.113,0.153 -0.134,0.246l-1.861,8.374l-18.657,-9.328c0,0 5.283,-3.522 5.283,-3.522c0.203,-0.135 0.279,-0.397 0.18,-0.619l-4,-9c-0.013,-0.029 -0.028,-0.056 -0.046,-0.082l-9,-13c-0.093,-0.135 -0.247,-0.215 -0.411,-0.215l-13.64,-0c0,0 -3.886,-11.658 -3.886,-11.658c-0.029,-0.088 -0.082,-0.167 -0.154,-0.226l-5.711,-4.76c-0,0 6.849,-15.656 6.849,-15.656c0.068,-0.156 0.052,-0.336 -0.042,-0.477l-3.887,-5.831c-0,0 2.939,-15.677 2.939,-15.677c0,-0 3.874,-4.842 3.874,-4.842c-0,-0 5.58,-3.72 5.58,-3.72c0,-0 11.711,12.686 11.711,12.686c0.129,0.141 0.328,0.195 0.511,0.14l10,-3c0.134,-0.04 0.245,-0.135 0.306,-0.262c0.061,-0.126 0.066,-0.272 0.014,-0.403l-5.829,-14.573c0,0 11.589,-5.794 11.589,-5.794c0.143,-0.071 0.243,-0.207 0.269,-0.365l0.942,-5.653c0,0 10.654,-1.937 10.654,-1.937c0.15,-0.027 0.279,-0.121 0.351,-0.255l6.859,-12.737c-0,-0 13.291,-0 13.291,-0c0,-0 0.92,4.598 0.92,4.598c0.046,0.234 0.252,0.402 0.49,0.402l6,-0c0.133,0 0.26,-0.053 0.354,-0.146l7.531,-7.532c-0,0 4.678,8.421 4.678,8.421c0.082,0.147 0.233,0.244 0.401,0.256l13.869,0.99c-0,0 8.878,5.919 8.878,5.919c0,0 7.989,5.992 7.989,5.992c0.117,0.088 0.266,0.12 0.408,0.088l8.636,-1.919c0,0 4.819,8.674 4.819,8.674c0.088,0.159 0.255,0.257 0.437,0.257l6,-0c0.114,-0 0.224,-0.039 0.312,-0.11l10,-8c0.015,-0.011 0.029,-0.023 0.042,-0.036l3.853,-3.854c0,0 7.621,-0 7.621,-0c0,-0 8.865,6.895 8.865,6.895c0.133,0.103 0.31,0.133 0.47,0.078c0.16,-0.056 0.281,-0.188 0.322,-0.352l1.894,-7.576c0,0 8.356,0.929 8.356,0.929c-0,-0 6.87,8.833 6.87,8.833c0.075,0.096 0.183,0.162 0.303,0.184l16,3c0.219,0.042 0.439,-0.068 0.539,-0.267l2.764,-5.528c-0,0 6.541,3.738 6.541,3.738c0.075,0.043 0.161,0.066 0.248,0.066l13,-0c0.2,-0 0.381,-0.119 0.46,-0.303l3,-7c0.014,-0.035 0.025,-0.071 0.032,-0.108l2,-11c0.04,-0.218 -0.07,-0.437 -0.268,-0.536l-8,-4c-0.03,-0.015 -0.061,-0.027 -0.092,-0.035l-10.412,-2.84c-0,0 1.727,-3.454 1.727,-3.454c0.124,-0.247 0.024,-0.548 -0.223,-0.671l-5.177,-2.589c-0,0 16.207,-9.533 16.207,-9.533c0.22,-0.13 0.307,-0.405 0.201,-0.638l-4.911,-10.806c-0,0 1.802,-4.505 1.802,-4.505c-0,-0 17.682,-0.983 17.682,-0.983c0.219,-0.012 0.405,-0.166 0.457,-0.379c0.053,-0.213 -0.039,-0.436 -0.228,-0.549l-14.635,-8.781c0,0 1.842,-4.604 1.842,-4.604c0.075,-0.186 0.031,-0.398 -0.11,-0.54l-3.854,-3.853c0,-0 0,-10.345 0,-10.345c0,-0 8.498,-0.945 8.498,-0.945c0,0 16.944,1.994 16.944,1.994c0.068,0.008 0.138,0.001 0.204,-0.019l22.943,-6.982c-0,-0 16.94,-0.997 16.94,-0.997c0.153,-0.009 0.293,-0.087 0.381,-0.212l6.875,-9.822c-0,0 42.784,-5.97 42.784,-5.97c0.247,-0.034 0.431,-0.246 0.431,-0.495l0,-6.566c0,-0 6.571,-0.939 6.571,-0.939c0.162,-0.023 0.303,-0.125 0.376,-0.271l2.843,-5.686c0,-0 16.356,1.924 16.356,1.924c0,-0 1.89,4.724 1.89,4.724c0.082,0.205 0.289,0.332 0.509,0.312l10.676,-0.971c0,0 4.799,8.638 4.799,8.638c-0,0 2.986,18.913 2.986,18.913c0.027,0.17 0.139,0.314 0.297,0.382l7,3c0.164,0.07 0.354,0.047 0.497,-0.06l7.556,-5.667c0,-0 5.715,9.524 5.715,9.524c0.073,0.122 0.194,0.206 0.333,0.234c0.139,0.027 0.283,-0.006 0.396,-0.091l3.79,-2.843c0,0 8.376,2.792 8.376,2.792c0,0 -0.964,10.606 -0.964,10.606c-0.01,0.113 0.019,0.227 0.082,0.322l2,3c0.151,0.227 0.455,0.291 0.684,0.145l10.629,-6.764c0,-0 4.719,5.662 4.719,5.662c0.126,0.152 0.33,0.215 0.52,0.161c0.191,-0.054 0.331,-0.215 0.359,-0.41l0.949,-6.644c0,0 10.645,-1.935 10.645,-1.935c0.066,-0.012 0.129,-0.037 0.185,-0.074l25.457,-16.645c-0,0 1.717,5.153 1.717,5.153c0,0 -3.864,5.797 -3.864,5.797c-0.14,0.209 -0.102,0.491 0.089,0.655l21.926,18.936c-0,0 31.955,62.912 31.955,62.912c0.125,0.246 0.424,0.344 0.67,0.221l10,-5c0.118,-0.059 0.208,-0.163 0.25,-0.289l1.829,-5.484c-0.001,-0 6.249,2.678 6.249,2.678c-0,-0 0.955,5.73 0.955,5.73c0.04,0.241 0.249,0.418 0.493,0.418l4.61,-0c-0,-0 0.905,3.621 0.905,3.621c0.056,0.223 0.256,0.379 0.485,0.379l13,-0c0.099,-0 0.195,-0.029 0.277,-0.084l5.892,-3.927c-0,-0 12.663,-0.975 12.663,-0.975c-0,0 6.752,5.788 6.752,5.788c0,0 4.954,11.89 4.954,11.89c0.049,0.116 0.139,0.209 0.252,0.262l12.776,5.896c-0,0 1.946,8.758 1.946,8.758c0.045,0.204 0.211,0.358 0.417,0.387l14,2c0.135,0.019 0.271,-0.017 0.378,-0.1l8.489,-6.603l5.665,13.22l-0.094,0.253l0.343,0.507l-0.055,0.147Zm-305.783,183.252l-0.172,0.229c0.085,0.064 0.19,0.1 0.3,0.1l-0.128,-0.329Zm0.447,0.214l-0.016,0.013l0.032,-0.027l-0.016,0.014Z"/></svg>