<?xml version="1.0" encoding="UTF-8" standalone="no"?><!DOCTYPE svg PUBLIC "-//W3C//DTD SVG 1.1//EN" "http://www.w3.org/Graphics/SVG/1.1/DTD/svg11.dtd"><svg width="114px" height="69px" version="1.1" xmlns="http://www.w3.org/2000/svg" xmlns:xlink="http://www.w3.org/1999/xlink" xml:space="preserve" xmlns:serif="http://www.serif.com/" style="fill-rule:evenodd;clip-rule:evenodd;stroke-linejoin:round;stroke-miterlimit:2;"><path id="Läti" d="M88,16.5c0.108,0 0.213,-0.035 0.3,-0.1l3.753,-2.815c-0,0 7.723,3.862 7.723,3.862c0.07,0.035 0.146,0.053 0.224,0.053l2.5,0c-0,0 0,1.5 0,1.5c0,0.176 0.092,0.338 0.243,0.429l4.757,2.854c-0,0 0,3.566 0,3.566c-0,-0 -1.916,2.874 -1.916,2.874c-0.1,0.149 -0.111,0.34 -0.031,0.501l0.899,1.799c0,-0 -1.916,4.791 -1.916,4.791c-0.073,0.181 -0.033,0.387 0.1,0.529c0.134,0.142 0.337,0.193 0.522,0.131l2.708,-0.902c0,-0 1.526,1.514 1.526,1.514c-0,0 -0.84,1.692 -0.84,1.692c-0.122,0.247 -0.022,0.546 0.224,0.669l1.724,0.862c0,0 0,2.691 0,2.691c0,0.189 0.107,0.363 0.276,0.447l1.613,0.806c-0,0 -0.863,2.589 -0.863,2.589c-0.042,0.126 -0.033,0.263 0.027,0.382l1.947,3.894c0,0 0,4.382 0,4.382c-0,0 -2.5,0 -2.5,0c-0.099,-0 -0.195,0.029 -0.277,0.084l-3,2c-0.073,0.048 -0.131,0.115 -0.17,0.192l-1.964,3.928c0,-0 -0.943,0.942 -0.943,0.942c-0.054,0.055 -0.096,0.122 -0.12,0.196l-0.842,2.526c-0,-0 -2.526,-0.842 -2.526,-0.842c-0.051,-0.017 -0.104,-0.026 -0.158,-0.026l-1,0c-0.133,0 -0.26,0.053 -0.354,0.146l-0.781,0.782c-0,-0 -2.673,-0.891 -2.673,-0.891c-0,-0 -1.968,-0.984 -1.968,-0.984c-0.13,-0.065 -0.281,-0.07 -0.415,-0.015c-0.134,0.056 -0.238,0.166 -0.283,0.304l-0.935,2.803c0,0 -3.709,1.855 -3.709,1.855c-0,0 -1.731,0 -1.731,0c0,-0 -2.832,-1.889 -2.832,-1.889c-0,0 -8.908,-8.907 -8.908,-8.907c-0,-0 -0.964,-1.928 -0.964,-1.928c-0.075,-0.149 -0.219,-0.251 -0.385,-0.272l-8,-1c-0.021,-0.003 -0.041,-0.004 -0.062,-0.004l-1.67,-0c-0,0 -2.87,-6.697 -2.87,-6.697c-0.055,-0.127 -0.159,-0.225 -0.288,-0.272c-0.129,-0.048 -0.272,-0.04 -0.396,0.022l-2,1c-0.048,0.024 -0.092,0.055 -0.13,0.093l-2.853,2.854c-0,-0 -1.675,-0 -1.675,-0c0,-0 -1.894,-0.947 -1.894,-0.947c-0.141,-0.071 -0.307,-0.071 -0.448,-0l-1.834,0.917c-0,0 -3.802,-0.95 -3.802,-0.95c-0,-0 -2.982,-0.994 -2.982,-0.994c-0.051,-0.017 -0.104,-0.026 -0.158,-0.026l-2,-0c-0.133,-0 -0.26,0.053 -0.354,0.146l-0.781,0.782c-0,-0 -2.707,-0.902 -2.707,-0.902c-0.051,-0.017 -0.104,-0.026 -0.158,-0.026l-2,-0c-0.133,-0 -0.26,0.053 -0.354,0.146l-1.509,1.51c-0,-0 -0.69,-1.38 -0.69,-1.38c-0.024,-0.048 -0.055,-0.092 -0.093,-0.13l-2,-2c-0.153,-0.152 -0.385,-0.189 -0.578,-0.093l-2,1c-0.048,0.024 -0.092,0.055 -0.13,0.093l-0.781,0.782c-0,-0 -2.707,-0.902 -2.707,-0.902c-0.051,-0.017 -0.104,-0.026 -0.158,-0.026l-4.882,0c0,-0 -1.894,-0.947 -1.894,-0.947c-0.161,-0.08 -0.352,-0.069 -0.501,0.031l-2.945,1.963c0,-0 -2.918,0.973 -2.918,0.973c0,-0 -3.981,0.995 -3.981,0.995c-0.088,0.022 -0.168,0.067 -0.233,0.131l-2,2c-0.038,0.038 -0.069,0.082 -0.093,0.13l-0.964,1.928c0,-0 -1.299,1.298 -1.299,1.298c0.001,0 -1.667,-7.502 -1.667,-7.502c0,0 0.377,0 0.377,0c0.276,0 0.5,-0.224 0.5,-0.5l0,-5c0,-0.133 -0.053,-0.26 -0.146,-0.354l-0.746,-0.745c0,0 0.839,-1.677 0.839,-1.677c0.035,-0.07 0.053,-0.146 0.053,-0.224l0,-4.766c0,0 5.82,-4.85 5.82,-4.85c0.114,-0.095 0.18,-0.236 0.18,-0.384l0,-7.857c0,0 4.817,-7.707 4.817,-7.707c0,0 3.804,-0.951 3.804,-0.951c0.036,-0.009 0.07,-0.021 0.103,-0.038l7.552,-3.776c0,-0 1.777,3.553 1.777,3.553c0.024,0.048 0.055,0.092 0.093,0.13l6.924,6.923c-0,-0 2.962,7.899 2.962,7.899c0.04,0.105 0.114,0.195 0.211,0.253l5,3c0.102,0.061 0.222,0.084 0.339,0.064l6,-1c0.103,-0.017 0.198,-0.066 0.272,-0.139l7,-7c0.093,-0.094 0.146,-0.221 0.146,-0.354l0,-7c0,-0.028 -0.002,-0.055 -0.007,-0.082l-0.993,-5.959c0,-0 0,-4.808 0,-4.808c0,0 1.801,-2.701 1.801,-2.701c0,-0 4.797,-0.96 4.797,-0.96c0.044,-0.008 0.086,-0.023 0.126,-0.043l3.894,-1.947c0,0 1.522,0 1.522,0c-0,0 0.886,2.658 0.886,2.658c0.068,0.204 0.259,0.342 0.474,0.342c0.215,0 0.406,-0.138 0.474,-0.342l0.745,-2.232c-0,-0 3.427,3.428 3.427,3.428c0.038,0.038 0.082,0.069 0.13,0.093l1.928,0.964c-0,-0 0.942,0.943 0.942,0.943c0.065,0.064 0.145,0.109 0.233,0.131l3.621,0.905c0,0 0,1.61 0,1.61c0,0.133 0.053,0.26 0.146,0.354l7,7c0.094,0.093 0.221,0.146 0.354,0.146l2,0Z"/></svg>