<?xml version="1.0" encoding="UTF-8" standalone="no"?><!DOCTYPE svg PUBLIC "-//W3C//DTD SVG 1.1//EN" "http://www.w3.org/Graphics/SVG/1.1/DTD/svg11.dtd"><svg width="12px" height="12px" version="1.1" xmlns="http://www.w3.org/2000/svg" xmlns:xlink="http://www.w3.org/1999/xlink" xml:space="preserve" xmlns:serif="http://www.serif.com/" style="fill-rule:evenodd;clip-rule:evenodd;stroke-linejoin:round;stroke-miterlimit:2;"><path id="liechtenstein" d="M9.852,10.524l-0.205,-0.496l-0.023,0.023c-0.93,0.918 -2.216,1.449 -3.624,1.449c-3.036,0 -5.5,-2.464 -5.5,-5.5c0,-1.129 0.341,-2.178 0.927,-3.05l-0.415,0.221l0.428,-0.24c0.982,-1.461 2.648,-2.423 4.538,-2.431l0.498,0.048c-0,0 -0.035,-0.001 -0.035,-0.001c-0,-0 0.071,0.004 0.071,0.004l-0.038,-0.002c2.806,0.212 5.01,2.56 5.026,5.42c-0,0.007 -0.105,1.051 -0.105,1.051c-0,-0 -0.263,0.945 -0.263,0.945c-0.303,0.796 -0.787,1.503 -1.443,2.026l0.18,0.517l-0.017,0.016Zm-8.827,-7.372l-0.146,-0.274l-0,0l0.146,0.274Z"/></svg>