<?xml version="1.0" encoding="UTF-8" standalone="no"?><!DOCTYPE svg PUBLIC "-//W3C//DTD SVG 1.1//EN" "http://www.w3.org/Graphics/SVG/1.1/DTD/svg11.dtd"><svg width="92px" height="69px" version="1.1" xmlns="http://www.w3.org/2000/svg" xmlns:xlink="http://www.w3.org/1999/xlink" xml:space="preserve" xmlns:serif="http://www.serif.com/" style="fill-rule:evenodd;clip-rule:evenodd;stroke-linejoin:round;stroke-miterlimit:2;"><path id="Leedu" d="M51.385,67.935l-1.227,-0.409c-0.077,-0.026 -0.16,-0.033 -0.24,-0.019l-5.898,0.983c0,-0 -3.658,-0.915 -3.658,-0.915c-0,0 -2.902,-6.772 -2.902,-6.772c-0.047,-0.109 -0.131,-0.197 -0.236,-0.25l-3.96,-1.98c-0,-0 -3.936,-2.952 -3.936,-2.952c0,0 -1.828,-1.828 -1.828,-1.828c0,-0 0,-4.697 0,-4.697c-0,0 1.964,-4.91 1.964,-4.91c0.061,-0.153 0.043,-0.326 -0.048,-0.463l-4,-6c-0.093,-0.139 -0.249,-0.223 -0.416,-0.223l-8.862,0c0,-0 -4.881,-2.929 -4.881,-2.929c-0.011,-0.006 -0.022,-0.012 -0.033,-0.018l-5.766,-2.883c-0,-0 -0.958,-6.706 -0.958,-6.706c0,0 0,-3.964 0,-3.964c0,-0.157 -0.074,-0.306 -0.2,-0.4l-3.734,-2.801c-0,0 1.885,-7.543 1.885,-7.543c0,-0 1.903,-1.902 1.903,-1.902c0.038,-0.038 0.069,-0.082 0.093,-0.13l0.964,-1.928c-0,0 1.845,-1.845 1.845,-1.845c-0,0 3.865,-0.966 3.865,-0.966c0.013,-0.003 0.025,-0.007 0.037,-0.011l3,-1c0.042,-0.014 0.082,-0.033 0.119,-0.058l2.759,-1.839c-0,-0 1.74,0.87 1.74,0.87c0.07,0.035 0.146,0.053 0.224,0.053l4.919,0c-0,0 2.923,0.974 2.923,0.974c0.18,0.06 0.378,0.013 0.512,-0.12l0.942,-0.943c0,-0 1.605,-0.803 1.605,-0.803c0,0 1.688,1.688 1.688,1.688c0,0 0.964,1.928 0.964,1.928c0.072,0.143 0.208,0.244 0.367,0.27c0.159,0.025 0.32,-0.027 0.434,-0.14l1.853,-1.854c0,0 1.712,0 1.712,0c-0,0 2.923,0.974 2.923,0.974c0.18,0.06 0.378,0.013 0.512,-0.12l0.853,-0.854c0,0 1.712,0 1.712,0c-0,0 2.923,0.974 2.923,0.974c0.012,0.004 0.024,0.008 0.037,0.011l4,1c0.116,0.029 0.238,0.016 0.345,-0.038l1.776,-0.888c-0,0 1.776,0.888 1.776,0.888c0.07,0.035 0.146,0.053 0.224,0.053l2,0c0.133,0 0.26,-0.053 0.354,-0.146l2.942,-2.943c0,-0 1.453,-0.727 1.453,-0.727c0,0 2.791,6.513 2.791,6.513c0.079,0.184 0.26,0.303 0.46,0.303l1.969,0c-0,-0 7.703,0.963 7.703,0.963c0,-0 0.881,1.761 0.881,1.761c0.024,0.048 0.055,0.092 0.093,0.13l9,9c0.024,0.023 0.049,0.044 0.077,0.062l3,2c0.082,0.055 0.178,0.084 0.277,0.084l1.36,0l-0.85,3.402l-1,5c-0.03,0.147 0.008,0.299 0.103,0.415c0.095,0.116 0.237,0.183 0.387,0.183l4.066,0c-0,0 -1.482,2.223 -1.482,2.223c-0.055,0.082 -0.084,0.178 -0.084,0.277l0,2.423c0,0 -6.429,-0.918 -6.429,-0.918c-0.229,-0.033 -0.45,0.095 -0.535,0.309l-1.914,4.785c-0,-0 -2.78,0.927 -2.78,0.927c-0.074,0.024 -0.141,0.066 -0.196,0.12l-3,3c-0.093,0.094 -0.146,0.221 -0.146,0.354l0,3.951c-0,-0.001 -0.988,4.939 -0.988,4.939c0,0 -0.997,3.989 -0.997,3.989c-0.043,0.17 0.007,0.35 0.131,0.475l1.854,1.853c0,0 0,3.153 0,3.153c-0,-0 -3,-0.75 -3,-0.75c0,-0 0,-2.61 0,-2.61c0,-0.276 -0.224,-0.5 -0.5,-0.5l-4,0c-0.157,0 -0.306,0.074 -0.4,0.2l-2.85,3.8c0,0 -3.75,0 -3.75,0c-0.276,0 -0.5,0.224 -0.5,0.5l0,4.566c-0,0 -6.454,0.922 -6.454,0.922l-1.661,-0.553Z"/></svg>