<?xml version="1.0" encoding="UTF-8" standalone="no"?><!DOCTYPE svg PUBLIC "-//W3C//DTD SVG 1.1//EN" "http://www.w3.org/Graphics/SVG/1.1/DTD/svg11.dtd"><svg width="13px" height="18px" version="1.1" xmlns="http://www.w3.org/2000/svg" xmlns:xlink="http://www.w3.org/1999/xlink" xml:space="preserve" xmlns:serif="http://www.serif.com/" style="fill-rule:evenodd;clip-rule:evenodd;stroke-linejoin:round;stroke-miterlimit:2;"><path id="luxembourg" d="M10.468,17.175l-1.172,-0.586c0,0 -0.942,-0.943 -0.942,-0.943c-0.153,-0.152 -0.385,-0.189 -0.578,-0.093l-3.677,1.839c-0,-0 -0.745,-0.746 -0.745,-0.746c-0.094,-0.093 -0.221,-0.146 -0.354,-0.146l-0.691,-0c0,-0 -0.701,-1.401 -0.701,-1.401c0,-0 0.746,-0.745 0.746,-0.745c0.093,-0.094 0.146,-0.221 0.146,-0.354l0,-3c0,-0.099 -0.029,-0.195 -0.084,-0.277l-1.864,-2.797c-0,0 1.885,-5.656 1.885,-5.656c0,0 1.77,-1.77 1.77,-1.77c0,-0 2.903,-0 2.903,-0c-0,-0 -0.595,2.379 -0.595,2.379c-0.02,0.079 -0.02,0.163 -0,0.242l1,4c0.03,0.121 0.104,0.226 0.208,0.295l3,2c0.082,0.055 0.178,0.084 0.277,0.084l1.191,-0l-1.638,3.276c-0.011,0.022 -0.02,0.043 -0.027,0.066l-1,3c-0.06,0.18 -0.013,0.378 0.12,0.512l0.822,0.821Z"/></svg>