<?xml version="1.0" encoding="UTF-8" standalone="no"?><!DOCTYPE svg PUBLIC "-//W3C//DTD SVG 1.1//EN" "http://www.w3.org/Graphics/SVG/1.1/DTD/svg11.dtd"><svg width="40px" height="32px" version="1.1" xmlns="http://www.w3.org/2000/svg" xmlns:xlink="http://www.w3.org/1999/xlink" xml:space="preserve" xmlns:serif="http://www.serif.com/" style="fill-rule:evenodd;clip-rule:evenodd;stroke-linejoin:round;stroke-miterlimit:2;"><path id="macedonia" d="M1.5,10.929l0.629,0.726c0.12,0.138 0.306,0.199 0.485,0.16l1.493,-0.327c0.194,-0.042 0.344,-0.195 0.383,-0.39l0.952,-4.76c0,-0 3.676,-1.838 3.676,-1.838c0,-0 1.382,-0 1.382,-0c0,0 0,0.5 0,0.5c0,0.276 0.224,0.5 0.5,0.5l2,-0c0.189,0 0.363,-0.107 0.447,-0.276l0.862,-1.724c0,-0 0.691,-0 0.691,-0c0.078,-0 0.154,-0.018 0.224,-0.053l1.894,-0.947c0,-0 1.882,-0 1.882,-0c0.054,-0 0.107,-0.009 0.158,-0.026l2.923,-0.974c0,-0 2.919,-0 2.919,-0c0.054,0 0.107,-0.009 0.158,-0.026l2.804,-0.934c-0,-0 1.665,0.833 1.665,0.833c0,-0 1.926,3.851 1.926,3.851c0.048,0.096 0.127,0.175 0.223,0.223l1.973,0.986c-0,0 2.831,1.888 2.831,1.888c-0,-0 0.946,2.837 0.946,2.837c0.024,0.074 0.066,0.141 0.12,0.196l1.746,1.745c-0,-0 -0.839,1.677 -0.839,1.677c-0.035,0.07 -0.053,0.146 -0.053,0.224l-0,6.5l-2.5,0c-0.229,0 -0.429,0.156 -0.485,0.379l-0.786,3.143c0,0 -0.375,-0.376 -0.375,-0.376c-0.196,-0.195 -0.512,-0.195 -0.708,0l-0.853,0.854c-0,0 -2.675,0 -2.675,0c0,-0 -1.894,-0.947 -1.894,-0.947c-0.07,-0.035 -0.146,-0.053 -0.224,-0.053l-3,0c-0.099,0 -0.195,0.029 -0.277,0.084l-3,2c-0.055,0.037 -0.102,0.084 -0.139,0.139l-1.973,2.958c0,0 -1.611,1.612 -1.611,1.612c-0,-0 -1.646,-1.647 -1.646,-1.647c-0.153,-0.152 -0.385,-0.189 -0.578,-0.093l-1.968,0.984c0,-0 -2.889,0.963 -2.889,0.963c-0,0 -2.61,0 -2.61,0c0,-0 -0.862,-1.724 -0.862,-1.724c-0.084,-0.169 -0.258,-0.276 -0.447,-0.276l-2.64,0c0,-0 -0.886,-2.658 -0.886,-2.658c-0.042,-0.126 -0.132,-0.23 -0.25,-0.289l-1.795,-0.897l-0.899,-3.598c-0,0 0.917,-1.834 0.917,-1.834c0.071,-0.141 0.071,-0.307 0,-0.448l-0.888,-1.776c0,0 0.888,-1.776 0.888,-1.776c0.035,-0.07 0.053,-0.146 0.053,-0.224l-0,-5.071Zm-0.175,-0.965l-0.15,0.328l-0.152,-0.32l0.152,-0.18l0.15,0.172Z"/></svg>