<?xml version="1.0" encoding="UTF-8" standalone="no"?><!DOCTYPE svg PUBLIC "-//W3C//DTD SVG 1.1//EN" "http://www.w3.org/Graphics/SVG/1.1/DTD/svg11.dtd"><svg width="53px" height="70px" version="1.1" xmlns="http://www.w3.org/2000/svg" xmlns:xlink="http://www.w3.org/1999/xlink" xml:space="preserve" xmlns:serif="http://www.serif.com/" style="fill-rule:evenodd;clip-rule:evenodd;stroke-linejoin:round;stroke-miterlimit:2;"><path id="moldova" d="M28.645,9.024c0.246,-0.17 0.688,-0.367 1.461,-0.535c0.379,-0.083 0.694,-0.108 0.961,-0.089c0.003,0.001 0.704,0.201 0.704,0.201c0.375,0.208 0.62,0.519 0.891,0.767c0.29,0.267 0.749,0.972 1.144,1.606c0,0 0.765,1.282 0.765,1.282c0.09,0.151 0.253,0.244 0.429,0.244l3.61,0c-0,-0 0.866,3.464 0.866,3.464c-0,0 -1.94,4.85 -1.94,4.85c-0.075,0.186 -0.031,0.398 0.11,0.54l3.943,3.942c0,0 2.911,5.822 2.911,5.822c0,0 0,2.882 0,2.882c0,0.157 0.074,0.306 0.2,0.4l3.888,2.916c-0,-0 3.797,9.493 3.797,9.493c0,0 -2.246,1.498 -2.246,1.498c-0,-0 -1.723,-2.584 -1.723,-2.584c-0.083,-0.125 -0.218,-0.206 -0.367,-0.221c-0.149,-0.014 -0.297,0.039 -0.403,0.144l-1.781,1.782c-0,-0 -2.707,-0.902 -2.707,-0.902c-0.103,-0.035 -0.213,-0.035 -0.316,-0l-2.526,0.842c0,-0 -0.842,-2.526 -0.842,-2.526c-0.054,-0.165 -0.19,-0.289 -0.359,-0.329c-0.169,-0.039 -0.346,0.011 -0.469,0.133l-3,3c-0.124,0.125 -0.174,0.305 -0.131,0.475l0.97,3.879l-0.927,3.707c-0,-0 -3.858,2.893 -3.858,2.893c-0.034,0.025 -0.064,0.055 -0.09,0.088l-4,5c-0.071,0.088 -0.11,0.198 -0.11,0.312l0,3.705c-0,0 -2.438,1.65 -2.438,1.65c-0,-0 -1.651,-1.651 -1.651,-1.651c-0,-0 -0.602,-1.204 -0.602,-1.204c0,-0 0.191,-0 0.191,-0c0.215,0 0.406,-0.138 0.474,-0.342l1,-3c0.038,-0.112 0.034,-0.234 -0.01,-0.344l-1.945,-4.862c0,0 0.967,-4.834 0.967,-4.834c0,-0 1.995,-6.981 1.995,-6.981c0.02,-0.071 0.024,-0.146 0.012,-0.219l-1,-6c-0.008,-0.049 -0.023,-0.097 -0.046,-0.142l-3,-6c-0.024,-0.048 -0.055,-0.092 -0.093,-0.13l-4.928,-4.927c0,0 -1.962,-4.905 -1.962,-4.905c-0.025,-0.063 -0.063,-0.12 -0.11,-0.168l-3.893,-3.893c-0,0.001 -0.971,-4.851 -0.971,-4.851c-0.013,-0.064 -0.038,-0.125 -0.074,-0.179l-4,-6c-0.018,-0.028 -0.039,-0.053 -0.062,-0.077l-4.569,-4.568c-0,-0 2.366,-1.578 2.366,-1.578c0,0 2.849,0 2.849,0c0.064,0 0.127,-0.012 0.186,-0.036l4.91,-1.964c0,0 3.765,0 3.765,0c0.001,0 4.771,2.862 4.771,2.862c0.251,0.403 1.157,1.608 3.248,2.123c1.881,0.464 3.37,1.562 3.721,1.836c0.001,0.001 0.952,1.903 0.952,1.903c0.084,0.169 0.258,0.276 0.447,0.276c0,0 0.203,0.027 0.382,-0.178l0.263,-0.298Zm-0.369,0.03l-0.007,0.011l0.039,0.086l-0.032,-0.097Z"/></svg>