<?xml version="1.0" encoding="UTF-8" standalone="no"?><!DOCTYPE svg PUBLIC "-//W3C//DTD SVG 1.1//EN" "http://www.w3.org/Graphics/SVG/1.1/DTD/svg11.dtd"><svg width="31px" height="34px" version="1.1" xmlns="http://www.w3.org/2000/svg" xmlns:xlink="http://www.w3.org/1999/xlink" xml:space="preserve" xmlns:serif="http://www.serif.com/" style="fill-rule:evenodd;clip-rule:evenodd;stroke-linejoin:round;stroke-miterlimit:2;"><path id="montenegro" d="M1.296,20.411l1.928,-0.964c0.143,-0.072 0.244,-0.208 0.27,-0.367c0.025,-0.159 -0.027,-0.32 -0.14,-0.434l-0.917,-0.916c0,-0 -0.865,-2.595 -0.865,-2.595c0,0 0.782,-0.781 0.782,-0.781c0.195,-0.196 0.195,-0.512 -0,-0.708l-0.854,-0.853c0,-0 0,-0.586 0,-0.586c-0,0 0.707,-0.707 0.707,-0.707c0,0 1.793,0 1.793,0c0.276,0 0.5,-0.224 0.5,-0.5l0,-2.882c0,0 1.809,-3.618 1.809,-3.618c0,-0 1.573,0 1.573,0c-0,0 1.894,0.947 1.894,0.947c0.07,0.035 0.146,0.053 0.224,0.053l1,0c0.189,0 0.363,-0.107 0.447,-0.276c0.085,-0.17 0.067,-0.372 -0.047,-0.524l-2.74,-3.653c0,-0 0.547,-0.547 0.547,-0.547c0,0 2.484,-0 2.484,-0c-0,0 0.862,1.724 0.862,1.724c0.039,0.077 0.097,0.144 0.17,0.192l2.958,1.973c0,-0 2.965,2.965 2.965,2.965c0.024,0.023 0.049,0.044 0.077,0.062l3,2c0.037,0.025 0.077,0.044 0.119,0.058l2.936,0.979c0,0 2.945,1.963 2.945,1.963c0.037,0.025 0.077,0.044 0.119,0.058l2.526,0.842c-0,0 -0.728,2.184 -0.728,2.184c-0,-0 -1.64,0 -1.64,0c-0.078,0 -0.154,0.018 -0.224,0.053l-2,1c-0.209,0.105 -0.318,0.341 -0.261,0.568l0.7,2.801c0,0 -2.366,1.578 -2.366,1.578c-0,0 -1.489,0 -1.489,0c0,-0 -0.886,-2.658 -0.886,-2.658c-0.06,-0.181 -0.218,-0.312 -0.408,-0.338c-0.189,-0.025 -0.376,0.06 -0.482,0.219l-1.992,2.988c-0,0 -2.971,3.961 -2.971,3.961c0,-0 -1.975,1.974 -1.975,1.974c-0.152,0.153 -0.189,0.385 -0.093,0.578l0.975,1.951c0,-0 0.832,3.325 0.832,3.325c-0,0 -2,0 -2,0c0,-0 -0.886,-2.658 -0.886,-2.658c-0.024,-0.074 -0.066,-0.141 -0.12,-0.196l-4,-4c-0.055,-0.054 -0.122,-0.096 -0.196,-0.12l-2.658,-0.886c-0,-0 -0,-3.64 -0,-3.64c-0,-0.161 -0.077,-0.312 -0.208,-0.406c-0.13,-0.094 -0.298,-0.119 -0.45,-0.068l-2.707,0.902c0,-0 -1.428,-1.428 -1.428,-1.428l0.589,-0.589Z"/></svg>