<?xml version="1.0" encoding="UTF-8" standalone="no"?><!DOCTYPE svg PUBLIC "-//W3C//DTD SVG 1.1//EN" "http://www.w3.org/Graphics/SVG/1.1/DTD/svg11.dtd"><svg width="60px" height="70px" version="1.1" xmlns="http://www.w3.org/2000/svg" xmlns:xlink="http://www.w3.org/1999/xlink" xml:space="preserve" xmlns:serif="http://www.serif.com/" style="fill-rule:evenodd;clip-rule:evenodd;stroke-linejoin:round;stroke-miterlimit:2;"><path id="netherlands" d="M59.825,6.468l-0.179,0.178c-0.093,0.094 -0.146,0.221 -0.146,0.354l0,5.882c-0,-0 -1.947,3.894 -1.947,3.894c-0.035,0.07 -0.053,0.146 -0.053,0.224l0,4.5c-0,0 -4.5,-0 -4.5,-0c-0.276,0 -0.5,0.224 -0.5,0.5l0,4c0,0.189 0.107,0.363 0.276,0.447l2,1c0.07,0.035 0.146,0.053 0.224,0.053l2.5,-0c0,0 0,4.232 0,4.232c0,0 -5.777,3.852 -5.777,3.852c-0.23,0.153 -0.292,0.464 -0.139,0.693l1.839,2.759c0,-0 -0.778,1.555 -0.778,1.555c0,0 -5.571,1.857 -5.571,1.857c-0,0 -2.797,-1.864 -2.797,-1.864c-0.168,-0.112 -0.386,-0.112 -0.554,-0l-3,2c-0.21,0.14 -0.283,0.414 -0.17,0.64l1.99,3.981l1.933,4.831l-0.956,3.824c-0,0 -0.994,2.982 -0.994,2.982c-0.079,0.236 0.028,0.494 0.25,0.605l1.23,0.615c-0,-0 -2.257,1.505 -2.257,1.505c-0,-0 -1.973,0.986 -1.973,0.986c-0.143,0.072 -0.244,0.208 -0.27,0.367c-0.025,0.159 0.027,0.32 0.14,0.434l1.854,1.853c0,0 0,4.293 0,4.293c-0,0 -0.467,0 -0.467,0c-0.258,-0.034 -1.819,-0.221 -3.119,0.008c-0.796,0.139 -1.26,-0.417 -1.413,-0.646c-0.001,-0.001 -0.001,-1.655 -0.001,-1.655c-0,0 0.854,-0.853 0.854,-0.853c0.034,-0.034 0.062,-0.073 0.085,-0.115c0,-0 0.563,-1.037 1.016,-2.032c0.395,-0.866 0.211,-1.759 0.086,-2.172c0,0.001 0.906,-1.811 0.906,-1.811c0.124,-0.247 0.024,-0.548 -0.223,-0.671l-3.724,-1.862c0,-0 0,-1.691 0,-1.691c0,-0.276 -0.224,-0.5 -0.5,-0.5l-1,-0c-0.133,0 -0.26,0.053 -0.354,0.146l-0.853,0.854c-0,0 -2.586,-0 -2.586,-0c0,0 -0.853,-0.854 -0.853,-0.854c-0.094,-0.093 -0.221,-0.146 -0.354,-0.146l-0.691,-0c0,-0 -0.809,-1.618 -0.809,-1.618c0,-0 0,-1.882 0,-1.882c0,-0.276 -0.224,-0.5 -0.5,-0.5l-1,-0c-0.133,-0 -0.26,0.053 -0.354,0.146l-0.853,0.854c-0,0 -1.293,-0 -1.293,-0c0,-0 0,-1.5 0,-1.5c0,-0.184 -0.101,-0.354 -0.264,-0.441c-0.163,-0.087 -0.36,-0.077 -0.513,0.025l-2.659,1.773c-0,-0 -0.71,-0.711 -0.71,-0.711c-0.094,-0.093 -0.221,-0.146 -0.354,-0.146l-2,-0c-0.215,-0 -0.406,0.138 -0.474,0.342l-0.935,2.803c0,0 -1.815,0.908 -1.815,0.908c-0.169,0.084 -0.276,0.258 -0.276,0.447l0,0.59c0,0 -4.55,0.91 -4.55,0.91c0,-0 -1.832,-0 -1.832,-0c0,-0 -1.894,-0.947 -1.894,-0.947c-0.07,-0.035 -0.146,-0.053 -0.224,-0.053l-4.5,-0c0,-0 0,-2.14 0,-2.14c0,0 2.365,-0.788 2.365,-0.788c-0,0 1.781,1.782 1.781,1.782c0.108,0.107 0.26,0.16 0.411,0.143c0,-0 1.881,-0.226 2.832,-0.009c0.532,0.121 1.066,-0.045 1.509,-0.313c0.311,-0.188 0.574,-0.422 0.75,-0.599c-0,0 2.694,0.898 2.694,0.898c0.126,0.042 0.263,0.033 0.382,-0.027l2,-1c0.143,-0.072 0.244,-0.208 0.27,-0.367c0.025,-0.159 -0.027,-0.32 -0.14,-0.434l-1,-1c-0.065,-0.064 -0.145,-0.109 -0.233,-0.131l-4,-1c-0.17,-0.043 -0.35,0.007 -0.475,0.131l-0.853,0.854c-0,0 -1.675,-0 -1.675,-0c0,-0 -1.894,-0.947 -1.894,-0.947c-0.07,-0.035 -0.146,-0.053 -0.224,-0.053l-1.691,-0c0,-0 -0.809,-1.618 -0.809,-1.618c0,-0 0,-0.573 0,-0.573c0,0 1.601,-0.801 1.601,-0.801c0.579,0.04 2.814,0.175 3.902,-0.001c-0.009,0.086 -0.024,0.194 -0.047,0.276c-0.133,0.48 -0.399,0.984 -0.399,0.984c-0.081,0.155 -0.076,0.342 0.015,0.492c0.091,0.149 0.253,0.241 0.428,0.241l1.793,-0c-0,-0 0.853,0.854 0.853,0.854c0.094,0.093 0.221,0.146 0.354,0.146l1,-0c0.276,-0 0.5,-0.224 0.5,-0.5l0,-1c0,-0.133 -0.053,-0.26 -0.146,-0.354l-1.147,-1.146c0,-0 0.586,-0 0.586,-0c-0,-0 0.853,0.854 0.853,0.854c0.196,0.195 0.512,0.195 0.708,-0l1,-1c0.143,-0.143 0.185,-0.359 0.108,-0.545c-0.077,-0.187 -0.26,-0.309 -0.462,-0.309l-0.5,-0c0,-0 0,-1.5 0,-1.5c0,-0.133 -0.053,-0.26 -0.146,-0.354l-1,-1c-0.094,-0.093 -0.221,-0.146 -0.354,-0.146l-0.64,-0c0,-0 -0.82,-2.462 -0.82,-2.462c-0,0 1.871,-3.742 1.871,-3.742c-0,0 2.943,-2.942 2.943,-2.942c0.038,-0.038 0.069,-0.082 0.093,-0.13l2,-4c0.008,-0.016 0.015,-0.032 0.021,-0.048l3,-8c0.007,-0.018 0.012,-0.036 0.017,-0.055l1,-4c0.01,-0.039 0.015,-0.08 0.015,-0.121l0,-3.882c0,0 0.637,-1.274 0.637,-1.274c-0,0 0.509,0.51 0.509,0.51c0.094,0.093 0.221,0.146 0.354,0.146l4,-0c0.133,-0 0.26,-0.053 0.354,-0.146l3,-3c0.023,-0.024 0.044,-0.049 0.062,-0.077l1.973,-2.958c-0,-0 2.939,-2.94 2.939,-2.94c0,-0 3.839,-2.879 3.839,-2.879c-0,-0 3.833,-0 3.833,-0c0.041,0 0.082,-0.005 0.121,-0.015l3.975,-0.994c0,0 6.663,-0.951 6.663,-0.951c-0,-0 1.825,2.737 1.825,2.737c0.031,0.048 0.071,0.089 0.116,0.123l4,3c0.038,0.029 0.08,0.052 0.125,0.068Zm-51.376,39.274l0.758,0.758l0.586,-0l-0.918,-0.918l-0.426,0.16Zm14.242,-34.242l-0.191,-0c-0,-0 -0,-1.382 -0,-1.382c0,0 0.637,-1.274 0.637,-1.274c-0,0 0.363,0.363 0.363,0.363c-0,0 -0,0.675 -0,0.675l-0.809,1.618Z"/></svg>