<?xml version="1.0" encoding="UTF-8" standalone="no"?><!DOCTYPE svg PUBLIC "-//W3C//DTD SVG 1.1//EN" "http://www.w3.org/Graphics/SVG/1.1/DTD/svg11.dtd"><svg width="410px" height="492px" version="1.1" xmlns="http://www.w3.org/2000/svg" xmlns:xlink="http://www.w3.org/1999/xlink" xml:space="preserve" xmlns:serif="http://www.serif.com/" style="fill-rule:evenodd;clip-rule:evenodd;stroke-linejoin:round;stroke-miterlimit:2;"><path id="norway" d="M98.842,283.474l0.058,-0.174l-0.3,-0.6l0.095,-0.183c-0.773,0.028 -1.72,-0.018 -1.72,-0.018c-0.266,-0.013 -0.475,-0.232 -0.475,-0.499c-0,0 -0,-1.793 0,-1.793l-0.854,-0.853c-0.023,-0.024 -0.044,-0.049 -0.062,-0.077c-0,0 -1.084,-1.626 -1.084,-1.626l-0,2.349c0,0.215 -0.138,0.406 -0.342,0.474c0,0 -2.453,0.818 -2.453,0.818l0.742,1.484c0.035,0.07 0.053,0.146 0.053,0.224l-0,2c-0,0.202 -0.122,0.385 -0.309,0.462c-0.186,0.077 -0.402,0.035 -0.545,-0.108c0,-0 -1.646,-1.647 -1.646,-1.647c0,0 -0.5,0.5 -0.5,0.5l-0,0.793c-0,0.133 -0.053,0.26 -0.146,0.354l-1,1c-0.196,0.195 -0.512,0.195 -0.708,-0c0,-0 -0.146,-0.147 -0.146,-0.147l-0,0.793c0,0.133 -0.053,0.26 -0.146,0.354l-1,1c-0.094,0.093 -0.221,0.146 -0.354,0.146c-0,0 -1.793,0 -1.793,0c0,0 -0.363,0.363 -0.363,0.363l1.38,0.69c0.169,0.084 0.276,0.258 0.276,0.447l0,1c0,0.276 -0.224,0.5 -0.5,0.5c0,0 -1.793,0 -1.793,0c0,0 -0.5,0.5 -0.5,0.5l0.647,0.646c0.195,0.196 0.195,0.512 -0,0.708l-1,1c-0.066,0.065 -0.148,0.111 -0.237,0.132c-0,0 -1.618,0.387 -2.912,0.97c-0.136,0.061 -0.228,0.126 -0.272,0.211c-0.061,0.119 -0.015,0.253 0.032,0.376c0.12,0.305 0.35,0.56 0.394,0.609l2.995,2.994c0.122,0.123 0.172,0.3 0.133,0.469c-0.04,0.169 -0.164,0.305 -0.329,0.359c0,0 -2.923,0.975 -2.923,0.975l-3.935,2.951c-0.024,0.018 -0.05,0.034 -0.076,0.047c-0,0 -1.106,0.553 -1.106,0.553l1.106,0.553c0.159,0.079 0.264,0.238 0.275,0.416c0.011,0.178 -0.073,0.348 -0.222,0.447c0,0 -0.69,0.46 -0.692,0.461c0.519,-0.131 0.984,-0.257 1.252,-0.35c0.861,-0.296 2.849,-1.916 2.849,-1.916c0.199,-0.161 0.487,-0.145 0.668,0.035l1,1c0.195,0.196 0.195,0.512 -0,0.708l-2,2c-0.038,0.038 -0.082,0.069 -0.13,0.093c-0,0 -1.553,0.777 -1.553,0.777l1.776,3.552c0.035,0.07 0.053,0.146 0.053,0.224c-0,-0 -0,1.191 -0,1.191l3.276,-1.638c0.07,-0.035 0.146,-0.053 0.224,-0.053c-0,-0 0.882,-0 0.882,-0c-0,-0 3.822,-1.911 3.822,-1.911l3.942,-3.943c0.055,-0.054 0.122,-0.096 0.196,-0.12c-0,-0 2.658,-0.886 2.658,-0.886l-0,-1.64c0,-0.133 0.053,-0.26 0.146,-0.354c0,0 0.613,-0.612 0.613,-0.612c-0.322,-0.235 -0.801,-0.513 -1.281,-0.534c-0.489,-0.022 -0.478,0.501 -0.478,0.501c-0.001,0.189 -0.107,0.362 -0.276,0.446l-4,2c-0.193,0.096 -0.425,0.059 -0.578,-0.093c-0.152,-0.153 -0.189,-0.385 -0.093,-0.578l1,-2c0.039,-0.077 0.097,-0.144 0.17,-0.192c-0,-0 2.958,-1.973 2.958,-1.973l2.965,-2.965c0.024,-0.023 0.049,-0.044 0.077,-0.062c-0,-0 2.777,-1.852 2.777,-1.852l-0,-0.732c0,-0.133 0.053,-0.26 0.146,-0.354l2,-2c0.143,-0.143 0.359,-0.185 0.545,-0.108c0.187,0.077 0.309,0.26 0.309,0.462c-0,-0 -0,2.5 0,2.5l1.5,-0c0.276,0 0.5,0.224 0.5,0.5l-0,2c-0,0.215 -0.138,0.406 -0.342,0.474c0,0 -2.837,0.946 -2.837,0.946c-0,0 -1.387,2.08 -1.387,2.08l0.066,-0c0.054,0 0.107,0.009 0.158,0.026l3,1c0.126,0.042 0.23,0.132 0.289,0.25l1,2c0.065,0.13 0.07,0.281 0.015,0.415c-0.056,0.134 -0.166,0.238 -0.304,0.283c0,0 -2.888,0.963 -2.888,0.963l-1.916,1.917c-0.094,0.093 -0.221,0.146 -0.354,0.146c-0,-0 -1.833,-0 -1.833,0c-0,0 -3.104,2.327 -3.104,2.327l2.095,0.699c0.204,0.068 0.342,0.259 0.342,0.474l-0,2c0,0.276 -0.224,0.5 -0.5,0.5c-0,-0 -1.793,-0 -1.793,0c0,0 -0.281,0.281 -0.281,0.281l2.232,0.745c0.165,0.054 0.289,0.19 0.329,0.359c0.039,0.169 -0.011,0.346 -0.133,0.469l-2,2c-0.094,0.093 -0.221,0.146 -0.354,0.146l-4,-0c-0.028,0 -0.055,-0.002 -0.082,-0.007c-0,0 -5.84,-0.973 -5.84,-0.973c0,-0 -1.407,0.704 -1.407,0.704c-0,-0 0.702,1.403 0.702,1.403l1.851,0.926c0.169,0.084 0.276,0.258 0.276,0.447l-0,2c0,0.173 -0.09,0.334 -0.237,0.425c-0.148,0.091 -0.332,0.1 -0.487,0.022l-2,-1c-0.048,-0.024 -0.092,-0.055 -0.13,-0.093c0,-0 -0.853,-0.854 -0.853,-0.854c-0,-0 -2.586,-0 -2.586,-0l-0.853,0.854c-0.174,0.173 -0.447,0.195 -0.646,0.052c-0.199,-0.144 -0.265,-0.41 -0.155,-0.63c-0,0 1.839,-3.677 1.839,-3.677l-1.746,-1.745c-0.093,-0.094 -0.146,-0.221 -0.146,-0.354c-0,-0 -0,-2.691 -0,-2.691c-0,0 -1.618,-0.809 -1.618,-0.809c-0,-0 -1.382,-0 -1.382,0l-0,1.5c-0,0.276 -0.224,0.5 -0.5,0.5c-0,-0 -2.793,-0 -2.793,0c0,0 -0.707,0.707 -0.707,0.707c-0,0 -0,0.293 0,0.293l2.5,-0c0.202,0 0.385,0.122 0.462,0.309c0.077,0.186 0.035,0.402 -0.108,0.545l-1,1c-0.094,0.093 -0.221,0.146 -0.354,0.146c-0,-0 -1.882,-0 -1.882,-0c0,-0 -1.274,0.637 -1.274,0.637c0,-0 0.363,0.363 0.363,0.363l3.793,-0c0.202,-0 0.385,0.122 0.462,0.309c0.077,0.186 0.035,0.402 -0.108,0.545l-1,1c-0.094,0.093 -0.221,0.146 -0.354,0.146c-0,-0 -1.882,-0 -1.882,0c0,0 -1.822,0.911 -1.822,0.911l-0.942,0.943c-0.094,0.093 -0.221,0.146 -0.354,0.146l-1,-0c-0.276,0 -0.5,-0.224 -0.5,-0.5l-0,-1c-0,-0.078 0.018,-0.154 0.053,-0.224c-0,0 0.839,-1.677 0.839,-1.677c-0,-0 -1.255,-1.255 -1.255,-1.255l-0.69,1.38c-0.084,0.169 -0.258,0.276 -0.447,0.276l-1,-0c-0.078,-0 -0.154,-0.018 -0.224,-0.053c0,0 -1.552,-0.776 -1.552,-0.776c-0,-0 -0.553,1.105 -0.553,1.105l1.553,0.777c0.143,0.072 0.244,0.208 0.27,0.367c0.025,0.159 -0.027,0.32 -0.14,0.434l-1,1c-0.094,0.093 -0.221,0.146 -0.354,0.146c-0,-0 -1.793,-0 -1.793,0c0,0 -0.599,0.599 -0.599,0.599c0,-0 0.701,1.401 0.701,1.401l4.691,-0c0.202,-0 0.385,0.122 0.462,0.309c0.077,0.186 0.035,0.402 -0.108,0.545l-1,1c-0.038,0.038 -0.082,0.069 -0.13,0.093l-2,1c-0.07,0.035 -0.146,0.053 -0.224,0.053c-0,-0 -1.191,-0 -1.191,-0l0.638,1.276c0.078,0.155 0.069,0.339 -0.022,0.487c-0.091,0.147 -0.252,0.237 -0.425,0.237l-2,-0c-0.054,-0 -0.107,-0.009 -0.158,-0.026c-0,0 -2.589,-0.863 -2.589,-0.863l-0.806,1.613c-0.072,0.143 -0.208,0.244 -0.367,0.27c-0.159,0.025 -0.32,-0.027 -0.434,-0.14c0,-0 -0.146,-0.147 -0.146,-0.147c0,0 0,0.586 0,0.586c0,-0 0.707,0.707 0.707,0.707l3.793,-0c0.133,0 0.26,0.053 0.354,0.146c-0,0 0.853,0.854 0.853,0.854l0.793,-0c0.202,-0 0.385,0.122 0.462,0.309c0.077,0.186 0.035,0.402 -0.108,0.545l-1,1c-0.055,0.054 -0.122,0.096 -0.196,0.12c0,0 -1.855,0.619 -1.855,0.619l0.921,0.46c0.048,0.024 0.092,0.055 0.13,0.093l2,2c0.093,0.094 0.146,0.221 0.146,0.354l-0,1c0,0.173 -0.09,0.334 -0.237,0.425c-0.148,0.091 -0.332,0.1 -0.487,0.022c0,0 -1.894,-0.947 -1.894,-0.947l-0.882,-0c-0.078,0 -0.154,-0.018 -0.224,-0.053l-2,-1c-0.048,-0.024 -0.092,-0.055 -0.13,-0.093l-1,-1c-0.054,-0.055 -0.096,-0.122 -0.12,-0.196c-0,0 -0.963,-2.888 -0.963,-2.888c-0,0 -2.563,-2.563 -2.563,-2.563c0,0 -0.392,0.392 -0.392,0.392c0,-0 0.765,1.528 0.765,1.528l1.851,0.926c0.169,0.084 0.276,0.258 0.276,0.447c-0,0 -0,1.882 0,1.882c0,-0 0.888,1.776 0.888,1.776l2.889,1.926c0.055,0.037 0.102,0.084 0.139,0.139l2,3c0.055,0.082 0.084,0.178 0.084,0.277l-0,2c-0,0.276 -0.224,0.5 -0.5,0.5l-1,-0c-0.189,-0 -0.363,-0.107 -0.447,-0.276c-0,-0 -0.964,-1.928 -0.964,-1.928c0,0 -1.885,-1.885 -1.885,-1.885l-1.928,-0.964c-0.096,-0.048 -0.175,-0.127 -0.223,-0.223l-1,-2c-0.011,-0.022 -0.02,-0.043 -0.027,-0.066c-0,0 -0.963,-2.888 -0.963,-2.888c-0,0 -0.698,-0.698 -0.698,-0.698c-0,0 -2.673,0.891 -2.673,0.891l-1.968,0.984c-0.155,0.078 -0.339,0.069 -0.487,-0.022c-0.147,-0.091 -0.237,-0.252 -0.237,-0.425c-0,-0 -0,-0.793 0,-0.793l-1.146,1.147c-0.094,0.093 -0.221,0.146 -0.354,0.146l-1,-0c-0.133,-0 -0.26,-0.053 -0.354,-0.146c0,-0 -2.781,-2.782 -2.781,-2.782c-0,0 -2.673,0.891 -2.673,0.891c-0,0 -1.692,0.846 -1.692,0.846c-0,0 -0,0.484 -0,0.484c-0,-0 0.796,0.796 0.796,0.796l1.928,0.964c0.048,0.024 0.092,0.055 0.13,0.093l1,1c0.143,0.143 0.185,0.359 0.108,0.545c-0.077,0.187 -0.26,0.309 -0.462,0.309c-0,-0 -2.793,-0 -2.793,0c0,0 -0.5,0.5 -0.5,0.5c0,-0 0.5,0.5 0.5,0.5c0,-0 5.586,-0 5.586,0l1.853,-1.854c0.196,-0.195 0.512,-0.195 0.708,0c-0,0 0.853,0.854 0.853,0.854l0.793,-0c0.202,0 0.385,0.122 0.462,0.309c0.077,0.186 0.035,0.402 -0.108,0.545l-0.822,0.821l1.244,-0.622c0.033,-0.017 0.067,-0.029 0.103,-0.038l4,-1c0.039,-0.01 0.08,-0.015 0.121,-0.015l1,-0c0.133,0 0.26,0.053 0.354,0.146l1,1c0.093,0.094 0.146,0.221 0.146,0.354c-0,-0 -0,0.5 0,0.5l0.5,-0c0.276,0 0.5,0.224 0.5,0.5l-0,2c0,0.276 -0.224,0.5 -0.5,0.5l-1,-0c-0.133,-0 -0.26,-0.053 -0.354,-0.146c0,-0 -0.853,-0.854 -0.853,-0.854c-0,-0 -4.675,-0 -4.675,0c0,0 -1.745,0.873 -1.745,0.873c-0,-0 -0.765,1.528 -0.765,1.528c0,0 0.599,0.599 0.599,0.599l2.793,-0c0.202,0 0.385,0.122 0.462,0.309c0.077,0.186 0.035,0.402 -0.108,0.545l-1,1c-0.038,0.038 -0.082,0.069 -0.13,0.093c-0,0 -1.928,0.964 -1.928,0.964l-0.942,0.943c-0.196,0.195 -0.512,0.195 -0.708,-0c0,-0 -2.942,-2.943 -2.942,-2.943c-0,-0 -1.37,-0.685 -1.37,-0.685l-0.849,3.395c-0.051,0.203 -0.222,0.353 -0.43,0.376c-0.208,0.023 -0.409,-0.086 -0.502,-0.273l-2,-4c-0.035,-0.07 -0.053,-0.146 -0.053,-0.224l-0,1c0,0.276 -0.224,0.5 -0.5,0.5l-1,-0c-0.133,0 -0.26,-0.053 -0.354,-0.146c0,-0 -1.745,-1.746 -1.745,-1.746c0,0 -1.528,0.765 -1.528,0.765l-0.926,1.851c-0.103,0.207 -0.336,0.316 -0.562,0.263c-0.226,-0.054 -0.385,-0.255 -0.385,-0.487c-0,-0 -0,-0.5 0,-0.5c0,-0 -3.691,-0 -3.691,0c0,0 0.5,1 0.5,1l3.691,-0c0.078,-0 0.154,0.018 0.224,0.053l4,2c0.048,0.024 0.092,0.055 0.13,0.093l2,2c0.093,0.094 0.146,0.221 0.146,0.354c-0,-0 0,1.793 -0,1.793c-0,-0 1.653,1.653 1.653,1.653l3.726,-0.931c0.227,-0.057 0.463,0.052 0.568,0.261l1,2c0.035,0.07 0.053,0.146 0.053,0.224l-0,1c0,0.173 -0.09,0.334 -0.237,0.425c-0.148,0.091 -0.332,0.1 -0.487,0.022c0,0 -1.677,-0.839 -1.677,-0.839l-0.745,0.746c-0.153,0.152 -0.385,0.189 -0.578,0.093c0,0 -1.552,-0.776 -1.552,-0.776c-0,-0 -0.724,1.447 -0.724,1.447c-0,0 -0,1.675 0,1.675l0.146,-0.147c0.153,-0.152 0.385,-0.189 0.578,-0.093l2,1c0.169,0.084 0.276,0.258 0.276,0.447l-0,1c-0,0.215 -0.138,0.406 -0.342,0.474l-3,1c-0.126,0.042 -0.263,0.033 -0.382,-0.027l-2,-1c-0.169,-0.084 -0.276,-0.258 -0.276,-0.447l-0,-1c0,-0.133 0.053,-0.26 0.146,-0.354c0,0 0.854,-0.853 0.854,-0.853c-0,-0 -0,-3.675 -0,-3.675c-0,0 -0.911,-1.822 -0.911,-1.822l-0.943,-0.942c-0.038,-0.038 -0.069,-0.082 -0.093,-0.13c-0,-0 -0.862,-1.724 -0.862,-1.724c-0,-0 -2.382,-0 -2.382,0l-0.862,1.724c-0.072,0.143 -0.208,0.244 -0.367,0.27c-0.159,0.025 -0.32,-0.027 -0.434,-0.14c0,-0 -0.646,-0.647 -0.646,-0.647c-0,0 -0.293,0.293 -0.293,0.293l0.647,0.646c0.038,0.038 0.069,0.082 0.093,0.13l3,6c0.096,0.193 0.059,0.425 -0.093,0.578l-1,1c-0.094,0.093 -0.221,0.146 -0.354,0.146l-1,-0c-0.189,-0 -0.363,-0.107 -0.447,-0.276l-1,-2c-0.035,-0.07 -0.053,-0.146 -0.053,-0.224c-0,0 -0,-1.734 -0,-1.734c-0.368,-0.241 -1.116,-0.701 -1.576,-0.772c-0.438,-0.067 -0.7,-0.411 -0.73,-0.944c-0.019,-0.316 0.055,-0.715 0.138,-1.05c-0,-0 -2.214,-0 -2.214,-0c0,-0 -1.618,0.809 -1.618,0.809c-0,0 0,1.484 -0,1.484l0.854,0.853c0.195,0.196 0.195,0.512 -0,0.708c-0,-0 -0.647,0.646 -0.647,0.646c0,-0 0.589,0.589 0.589,0.589c0,0 1.896,0.948 1.896,0.948l2.966,0.989c0.204,0.068 0.342,0.259 0.342,0.474l-0,1c-0,0.276 -0.224,0.5 -0.5,0.5l-5,-0c-0.078,-0 -0.154,-0.018 -0.224,-0.053c0,0 -1.276,-0.638 -1.276,-0.638l-0,1.191c-0,0.133 -0.053,0.26 -0.146,0.354l-1,1c-0.196,0.195 -0.512,0.195 -0.708,-0l-1,-1c-0.133,-0.134 -0.18,-0.331 -0.121,-0.51c0,-0 0.294,-0.892 0.626,-1.525c0.162,-0.309 0.348,-0.557 0.512,-0.69c0.008,-0.068 0.032,-0.279 0.024,-0.422c-0.02,-0.362 -0.098,-0.754 -0.142,-0.955c0,0 -0.545,-0.545 -0.545,-0.545c0,0 -0.5,0.5 -0.5,0.5l-0,1.793c-0,0.202 -0.122,0.385 -0.309,0.462c-0.186,0.077 -0.402,0.035 -0.545,-0.108c0,-0 -0.942,-0.943 -0.942,-0.943c-0,-0 -2.586,-1.293 -2.586,-1.293l1.329,2.658c0.065,0.13 0.07,0.281 0.015,0.415c-0.056,0.134 -0.166,0.238 -0.304,0.283c0,0 -2.888,0.963 -2.888,0.963c0,0 -1.419,1.419 -1.419,1.419l0.991,-0.33c0.09,-0.03 0.187,-0.034 0.279,-0.011c0,-0 3.941,0.985 3.941,0.985l2.938,-0c0.078,0 0.154,0.018 0.224,0.053c-0,-0 3.894,1.947 3.894,1.947l2.882,-0c0.133,-0 0.26,0.053 0.354,0.146c-0,0 0.853,0.854 0.853,0.854c0,-0 1.586,-0 1.586,0l0.853,-0.854c0.055,-0.054 0.122,-0.096 0.196,-0.12l3,-1c0.126,-0.042 0.263,-0.033 0.382,0.027l2,1c0.247,0.123 0.347,0.424 0.223,0.671l-1,2c-0.111,0.222 -0.369,0.329 -0.605,0.25c-0,0 -2.589,-0.863 -2.589,-0.863l-0.806,1.613c-0.084,0.169 -0.258,0.276 -0.447,0.276l-3,-0c-0.276,0 -0.5,-0.224 -0.5,-0.5c-0,-0 -0,-0.5 -0,-0.5c-0,-0 -1.691,-0 -1.691,-0l0.638,1.276c0.078,0.155 0.069,0.339 -0.022,0.487c-0.091,0.147 -0.252,0.237 -0.425,0.237l-2,-0c-0.189,-0 -0.363,-0.107 -0.447,-0.276c-0,-0 -0.553,-1.106 -0.553,-1.106l-0.553,1.106c-0.024,0.048 -0.055,0.092 -0.093,0.13l-1,1c-0.147,0.146 -0.369,0.187 -0.558,0.103c-0.189,-0.085 -0.307,-0.277 -0.295,-0.484c-0,-0 0.107,-1.913 0.002,-2.921c-0.019,-0.182 -0.069,-0.311 -0.144,-0.397c-0.093,-0.107 -0.213,-0.14 -0.29,-0.151l-2.911,0.97c-0.152,0.051 -0.32,0.026 -0.45,-0.068c-0.131,-0.094 -0.208,-0.245 -0.208,-0.406c-0,0 -0,-1.61 -0,-1.61c-0,0 -3.232,-0.808 -3.232,-0.808l-0.821,1.642c-0.024,0.048 -0.055,0.092 -0.093,0.13c-0,-0 -0.943,0.942 -0.943,0.942l-0.964,1.928c-0.024,0.048 -0.055,0.092 -0.093,0.13l-1,1c-0.105,0.105 -0.252,0.157 -0.399,0.144c-0,-0 -0.992,-0.094 -1.693,-0.027c0.05,0.091 0.105,0.188 0.12,0.206c0.102,0.126 0.119,0.245 0.09,0.351l0.028,-0.028c-0,-0 -0,1.5 0,1.5c0,-0 1.419,-0 1.419,-0l2.923,-0.974c0.152,-0.051 0.32,-0.026 0.45,0.068c0.131,0.094 0.208,0.245 0.208,0.406c-0,-0 -0,1.691 0,1.691l1.724,0.862c0.143,0.072 0.244,0.208 0.27,0.367c0.025,0.159 -0.027,0.32 -0.14,0.434l-1,1c-0.055,0.054 -0.122,0.096 -0.196,0.12l-0.655,0.219l1.615,0.807c0,-0 1.675,-0 1.675,0l0.853,-0.854c0.094,-0.093 0.221,-0.146 0.354,-0.146l2,-0c0.189,-0 0.363,0.107 0.447,0.276l1,2c0.096,0.193 0.059,0.425 -0.093,0.578l-1,1c-0.115,0.114 -0.277,0.166 -0.437,0.139c-0.159,-0.027 -0.296,-0.129 -0.367,-0.274c0,-0 -0.475,-0.978 -0.822,-1.656c-0.068,0.062 -0.142,0.133 -0.203,0.201c-0.529,0.596 -1.103,1.504 -1.103,1.504c-0.091,0.144 -0.251,0.232 -0.422,0.232l-2,-0c-0.041,-0 -0.082,-0.005 -0.121,-0.015c-0,0 -3.726,-0.931 -3.726,-0.931c0,-0 -1.946,1.946 -1.946,1.946c0,-0 2.712,-0 2.712,-0l2.923,-0.974c0.103,-0.035 0.213,-0.035 0.316,-0l3,1c0.171,0.057 0.298,0.201 0.332,0.377c0.035,0.176 -0.027,0.358 -0.163,0.475c-0,0 -1.305,1.14 -3.332,1.122c-0.733,-0.007 -1.2,-0.008 -1.495,-0.007l-0,2.507c-0,0.238 -0.168,0.443 -0.401,0.49c-0.233,0.047 -0.467,-0.077 -0.56,-0.296c0,-0 -0.751,-1.8 -0.982,-2.84c-0.098,0.057 -0.2,0.128 -0.302,0.205c-0.457,0.342 -0.899,0.792 -0.899,0.792l-1.181,1.181c0.036,0.013 0.07,0.031 0.102,0.052l3,2c0.139,0.093 0.223,0.249 0.223,0.416c-0,-0 -0,0.691 0,0.691c0,-0 1.618,0.809 1.618,0.809c0,-0 0.801,-0 0.801,-0c-0,-0 2.811,-0.937 2.811,-0.937l1.916,-1.917c0.114,-0.113 0.275,-0.165 0.434,-0.14c0.159,0.026 0.295,0.127 0.367,0.27c0,0 0.747,1.494 0.747,1.494l2.529,-1.686c0.198,-0.132 0.462,-0.106 0.631,0.062c-0,0 0.853,0.854 0.853,0.854l1.793,-0c0.133,0 0.26,0.053 0.354,0.146c-0,0 1.745,1.746 1.745,1.746c-0,-0 1.401,-0.701 1.401,-0.701l-0,-3.691c0,-0.276 0.224,-0.5 0.5,-0.5c-0,-0 1.5,-0 1.5,-0l-0,-1.5c-0,-0.133 0.053,-0.26 0.146,-0.354l2,-2c0.143,-0.143 0.359,-0.185 0.545,-0.108c0.187,0.077 0.309,0.26 0.309,0.462l-0,2c0,0.078 -0.018,0.154 -0.053,0.224c0,-0 -0.947,1.894 -0.947,1.894c-0,0 -0,1.382 0,1.382l4.5,-0c0.189,-0 0.363,0.107 0.447,0.276c0,0 0.777,1.553 0.777,1.553c-0,0 3.105,-1.553 3.105,-1.553l-0.776,-1.552c-0.035,-0.07 -0.053,-0.146 -0.053,-0.224l-0,-2c-0,-0.078 0.018,-0.154 0.053,-0.224l1,-2c0.035,-0.069 0.085,-0.129 0.147,-0.176l4,-3c0.152,-0.114 0.354,-0.132 0.524,-0.047c0.169,0.084 0.276,0.258 0.276,0.447l-0,2c-0,0.133 -0.053,0.26 -0.146,0.354c-0,-0 -1.943,1.942 -1.943,1.942c-0,0 -0.911,1.822 -0.911,1.822c-0,0 -0,1.573 0,1.573c0,-0 1.558,0.779 1.558,0.779l3.821,-0.955c0.218,-0.055 0.445,0.043 0.556,0.239c0.111,0.195 0.077,0.441 -0.081,0.6l-1,1c-0.055,0.054 -0.122,0.096 -0.196,0.12c0,0 -2.888,0.963 -2.888,0.963c0,0 -0.77,0.77 -0.77,0.77l-0,1.793c0,0.161 -0.077,0.312 -0.208,0.406c-0.13,0.094 -0.298,0.119 -0.45,0.068c-0,0 -2.707,-0.902 -2.707,-0.902l-0.781,0.782c-0.094,0.093 -0.221,0.146 -0.354,0.146c-0,-0 -1.5,-0 -1.5,-0c-0,-0 -0,1.293 0,1.293l2.854,2.853c0.168,0.169 0.194,0.433 0.062,0.631l-2,3c-0.122,0.184 -0.35,0.265 -0.561,0.202c-0.211,-0.064 -0.355,-0.259 -0.355,-0.479c-0,0 -0,-1.793 0,-1.793c0,0 -1.599,-1.599 -1.599,-1.599l-1.677,0.839c-0.215,0.107 -0.475,0.047 -0.621,-0.143c-0.146,-0.19 -0.136,-0.458 0.024,-0.637c-0,0 0.794,-0.891 1.412,-1.499c0.18,-0.178 0.351,-0.331 0.49,-0.443c-0.212,-0.534 -0.922,-1.416 -0.922,-1.416c-0.008,-0.011 -0.016,-0.021 -0.023,-0.032c-0,0 -1.852,-2.777 -1.852,-2.777c0,-0 -2.423,-0 -2.423,0l-0.862,1.724c-0.048,0.096 -0.127,0.175 -0.223,0.223c-0,0 -1.928,0.964 -1.928,0.964l-0.942,0.943c-0.196,0.195 -0.512,0.195 -0.708,-0l-1,-1c-0.093,-0.094 -0.146,-0.221 -0.146,-0.354c-0,-0 0,-0.691 -0,-0.691c-0,0 -1.618,-0.809 -1.618,-0.809c-0,-0 -2.675,-0 -2.675,-0l-1.853,1.854c-0.153,0.152 -0.385,0.189 -0.578,0.093c0,0 -1.677,-0.839 -1.677,-0.839l-0.745,0.746c-0.094,0.093 -0.221,0.146 -0.354,0.146c-0,-0 -1.691,-0 -1.691,0l-0.862,1.724c-0.072,0.143 -0.208,0.244 -0.367,0.27c-0.159,0.025 -0.32,-0.027 -0.434,-0.14c0,-0 -0.853,-0.854 -0.853,-0.854l-1.793,-0c-0.078,-0 -0.154,-0.018 -0.224,-0.053c0,0 -1.776,-0.888 -1.776,-0.888c0,0 -1.156,0.578 -1.156,0.578c0,-0 0.363,0.363 0.363,0.363l0.793,-0c0.276,0 0.5,0.224 0.5,0.5l-0,4c-0,0.202 -0.122,0.385 -0.309,0.462c-0.186,0.077 -0.402,0.035 -0.545,-0.108c0,-0 -0.502,-0.503 -0.502,-0.503c0,0 0.216,0.649 0.216,0.649c0,-0 2.331,-0 2.331,-0l0.862,-1.724c0.084,-0.169 0.258,-0.276 0.447,-0.276l3,-0c0.133,-0 0.26,0.053 0.354,0.146l1,1c0.195,0.196 0.195,0.512 -0,0.708l-1,1c-0.094,0.093 -0.221,0.146 -0.354,0.146c-0,-0 -1.793,-0 -1.793,-0c0,-0 -1.5,1.5 -1.5,1.5l2.647,2.646c0.093,0.094 0.146,0.221 0.146,0.354c0,-0.133 0.053,-0.26 0.146,-0.354l1,-1c0.038,-0.038 0.082,-0.069 0.13,-0.093l2,-1c0.193,-0.096 0.425,-0.059 0.578,0.093l1,1c0.093,0.094 0.146,0.221 0.146,0.354l-0,6c-0,0.078 -0.018,0.154 -0.053,0.224l-1.996,3.991l1.325,-0.662c0.193,-0.096 0.425,-0.059 0.578,0.093c0.152,0.153 0.189,0.385 0.093,0.578c0,-0 -1.839,3.677 -1.839,3.677l1.746,1.745c0.195,0.196 0.195,0.512 -0,0.708c-0,-0 -0.746,0.745 -0.746,0.745l0.839,1.677c0.035,0.07 0.053,0.146 0.053,0.224l-0,-2c-0,-0.189 0.107,-0.363 0.276,-0.447c0,-0 1.851,-0.926 1.851,-0.926l0.926,-1.851c0.084,-0.169 0.258,-0.276 0.447,-0.276c-0,-0 0.793,-0 0.793,-0c-0,-0 0.5,-0.5 0.5,-0.5l-0.647,-0.646c-0.152,-0.153 -0.189,-0.385 -0.093,-0.578l2,-4c0.084,-0.169 0.258,-0.276 0.447,-0.276c0.189,0 0.363,0.107 0.447,0.276c0,0 0.69,1.38 0.69,1.38l0.509,-0.51c0.055,-0.054 0.122,-0.096 0.196,-0.12c-0,-0 2.888,-0.963 2.888,-0.963l1.916,-1.917c0.143,-0.143 0.359,-0.185 0.545,-0.108c0.187,0.077 0.309,0.26 0.309,0.462c-0,0 -0,1.793 0,1.793c0,-0 2.089,-2.089 2.089,-2.089l0.964,-1.928c0.084,-0.169 0.258,-0.276 0.447,-0.276l2,-0c0.173,-0 0.334,0.09 0.425,0.237c0.091,0.148 0.1,0.332 0.022,0.487c0,-0 -0.776,1.552 -0.776,1.552l1.553,0.777c0.169,0.084 0.276,0.258 0.276,0.447l-0,1c-0,0.276 -0.224,0.5 -0.5,0.5c-0,-0 -3.793,-0 -3.793,0c0,0 -1.796,1.796 -1.796,1.796c-0,0 -0.939,1.879 -0.939,1.879l-1.987,7.946c-0.061,0.245 -0.295,0.406 -0.546,0.375c-0.251,-0.031 -0.439,-0.243 -0.439,-0.496l-0,-6c-0,-0.054 0.009,-0.107 0.026,-0.158c-0,-0 0.902,-2.707 0.902,-2.707c-0,0 -0.475,-0.475 -0.475,-0.475c0,0 -3.596,2.697 -3.596,2.697c0,0 -2.697,3.596 -2.697,3.596c0,0 0.547,0.547 0.547,0.547l1.793,-0c0.276,-0 0.5,0.224 0.5,0.5l-0,2c-0,0.276 -0.224,0.5 -0.5,0.5c-0,-0 -1.882,-0 -1.882,0c0,0 -1.709,0.855 -1.709,0.855l-0.935,2.803c-0.049,0.149 -0.167,0.267 -0.316,0.316c0,0 -2.658,0.886 -2.658,0.886c-0,0 -0,3.14 0,3.14c0,-0 1,-0 1,-0l-0,-0.5c0,-0.133 0.053,-0.26 0.146,-0.354l1,-1c0.114,-0.113 0.275,-0.165 0.434,-0.14c0.159,0.026 0.295,0.127 0.367,0.27c0,0 0.862,1.724 0.862,1.724c0,-0 1.484,-0 1.484,0l1.853,-1.854c0.196,-0.195 0.512,-0.195 0.708,0l1,1c0.195,0.196 0.195,0.512 -0,0.708l-4,4c-0.196,0.195 -0.512,0.195 -0.708,-0c0,-0 -0.853,-0.854 -0.853,-0.854c-0,-0 -0.642,-0 -0.642,-0c0,-0 -1.5,1 -1.5,1l0.349,-0c0.202,0 0.385,0.122 0.462,0.309c0.077,0.186 0.035,0.402 -0.108,0.545c-0,-0 -0.943,0.942 -0.943,0.942l-0.964,1.928c-0.084,0.169 -0.258,0.276 -0.447,0.276c-0.189,-0 -0.363,-0.107 -0.447,-0.276c-0,-0 -0.862,-1.724 -0.862,-1.724c-0,-0 -1.191,-0 -1.191,0l-0,2.5c-0,0.189 -0.107,0.363 -0.276,0.447l-2,1c-0.07,0.035 -0.146,0.053 -0.224,0.053l-1,-0c-0.173,-0 -0.334,-0.09 -0.425,-0.237c-0.091,-0.148 -0.1,-0.332 -0.022,-0.487c-0,0 0.947,-1.894 0.947,-1.894c-0,-0 -0,-0.764 0,-0.764l-0.053,0.106c-0.072,0.143 -0.208,0.244 -0.367,0.27c-0.159,0.025 -0.32,-0.027 -0.434,-0.14c0,-0 -0.509,-0.51 -0.509,-0.51c-0,0 -1.637,3.274 -1.637,3.274c-0,0 -0,2.675 0,2.675c0,-0 0.5,0.5 0.5,0.5l0.646,-0.647c0.196,-0.195 0.512,-0.195 0.708,0c-0,0 0.646,0.647 0.646,0.647l0.646,-0.647c0.143,-0.143 0.359,-0.185 0.545,-0.108c0.187,0.077 0.309,0.26 0.309,0.462l-0,2c0,-0.078 0.018,-0.154 0.053,-0.224l1,-2c0.084,-0.169 0.258,-0.276 0.447,-0.276c-0,-0 0.793,-0 0.793,-0c-0,-0 0.77,-0.77 0.77,-0.77l0.963,-2.888c0.068,-0.204 0.259,-0.342 0.474,-0.342l1,-0c0.133,0 0.26,0.053 0.354,0.146c-0,0 0.942,0.943 0.942,0.943c0,0 1.822,0.911 1.822,0.911c0,-0 1.573,-0 1.573,0c-0,0 0.846,-1.692 0.846,-1.692l0.989,-2.966c0.068,-0.204 0.259,-0.342 0.474,-0.342l1,-0c0.276,-0 0.5,0.224 0.5,0.5c-0,-0 -0,2.306 -0,2.306l2.342,-0.78c0.152,-0.051 0.32,-0.026 0.45,0.068c0.131,0.094 0.208,0.245 0.208,0.406l-0,1c-0,0.189 -0.107,0.363 -0.276,0.447c-0,0 -1.973,0.986 -1.973,0.986c0,0 -2.932,1.956 -2.932,1.956c-0,-0 -2.341,2.34 -2.341,2.34c-0,0 3.084,0.771 3.084,0.771l2.938,-0c0.276,-0 0.5,0.224 0.5,0.5l-0,1c0,0.215 -0.138,0.406 -0.342,0.474c0,0 -2.923,0.975 -2.923,0.975c0,-0 -3.288,2.466 -3.288,2.466l1.277,0.638c0.169,0.084 0.276,0.258 0.276,0.447c0,0.189 -0.107,0.363 -0.276,0.447c-0,0 -3.106,1.553 -3.106,1.553l1.106,0.553c0.048,0.024 0.092,0.055 0.13,0.093c-0,0 0.781,0.782 0.781,0.782l2.707,-0.902c0.02,-0.007 0.04,-0.012 0.06,-0.016l5,-1c0.147,-0.03 0.299,0.008 0.415,0.103c0.116,0.095 0.183,0.237 0.183,0.387l-0,1c-0,0.208 -0.129,0.395 -0.324,0.468c-0,0 -7.41,2.779 -7.41,2.779l1.65,2.476c0.119,0.177 0.111,0.411 -0.019,0.58c-0.129,0.17 -0.352,0.239 -0.555,0.171l-3,-1c-0.042,-0.014 -0.082,-0.033 -0.119,-0.058c-0,0 -2.659,-1.773 -2.659,-1.773l-1.71,1.711c-0.196,0.195 -0.512,0.195 -0.708,-0l-1,-1c-0.133,-0.134 -0.18,-0.332 -0.12,-0.512c-0,-0 0.78,-2.342 0.78,-2.342c0,-0 -0.806,-0 -0.806,-0c-0,-0 0,11.25 0,11.25c0,0 3.735,2.801 3.735,2.801l2.923,0.975c0.126,0.042 0.23,0.132 0.289,0.25c0,0 1.915,3.83 1.915,3.83c0,0 4.734,1.894 4.734,1.894c0,-0 1.595,-0 1.595,-0l0.862,-1.724c0.084,-0.169 0.258,-0.276 0.447,-0.276c0.189,0 0.363,0.107 0.447,0.276c0,0 0.862,1.724 0.862,1.724l1.691,-0c0.202,0 0.385,0.122 0.462,0.309c0.077,0.186 0.035,0.402 -0.108,0.545c-0,-0 -1.51,1.509 -1.51,1.509l1.395,0.698c-0,-0 2.826,1.536 3.932,1.969c-0,-0 5.755,1.918 5.755,1.918l2.797,-1.864c0.082,-0.055 0.178,-0.084 0.277,-0.084c-0,-0 2.793,-0 2.793,-0c-0,-0 1.707,-1.707 1.707,-1.707l-0,-1.793c0,-0.22 0.144,-0.415 0.355,-0.479c0.211,-0.063 0.439,0.018 0.561,0.202c0,-0 1.584,2.376 1.584,2.376l1.584,-2.376c0.069,-0.104 0.174,-0.178 0.295,-0.208c-0,-0 3.847,-0.962 3.847,-0.963c0.481,-0.555 2.476,-2.89 2.809,-3.735c0.134,-0.342 0.485,-0.796 0.927,-1.252c0.706,-0.73 1.639,-1.491 2.038,-1.808l-0,-2.757c0,-0.276 0.224,-0.5 0.5,-0.5c-0,-0 1.793,-0 1.793,0c-0,0 1.5,-1.5 1.5,-1.5l-0.647,-0.646c-0.093,-0.094 -0.146,-0.221 -0.146,-0.354l-0,-1c-0,-0.229 0.156,-0.429 0.379,-0.485c-0,-0 3.777,-0.944 3.777,-0.944c-0,-0 0.535,-1.071 0.535,-1.071l-1.191,-0c-0.276,-0 -0.5,-0.224 -0.5,-0.5l-0,-1c0,-0.204 0.124,-0.388 0.314,-0.464c0,-0 4.905,-1.962 4.905,-1.962c0,-0 1.574,-1.574 1.574,-1.574l-2.647,-2.646c-0.113,-0.114 -0.165,-0.275 -0.14,-0.434c0.026,-0.159 0.127,-0.295 0.27,-0.367l2,-1c0.193,-0.096 0.425,-0.059 0.578,0.093l1,1c0.016,0.017 0.032,0.035 0.046,0.054c0,0 2.654,3.539 2.654,3.539l1.592,-1.593c0.055,-0.054 0.122,-0.096 0.196,-0.12c-0,-0 2.658,-0.886 2.658,-0.886l-0,-1.64c-0,-0.189 0.107,-0.363 0.276,-0.447c0,-0 1.815,-0.908 1.815,-0.908l0.935,-2.803c0.024,-0.074 0.066,-0.141 0.12,-0.196c0,0 0.854,-0.853 0.854,-0.853c-0,-0 -0,-3.586 0,-3.586l-3.854,-3.853c-0.113,-0.114 -0.165,-0.275 -0.14,-0.434c0.026,-0.159 0.127,-0.295 0.27,-0.367c0,-0 1.724,-0.862 1.724,-0.862c-0,-0 -0,-1.484 0,-1.484l-1.854,-1.853c-0.195,-0.196 -0.195,-0.512 0,-0.708l1,-1c0.106,-0.105 0.254,-0.158 0.403,-0.144c0.149,0.015 0.284,0.096 0.367,0.221l2,3c0.025,0.037 0.044,0.077 0.058,0.119c0,-0 0.886,2.658 0.886,2.658c0,-0 0.14,-0 0.14,0c-0,0 -0,-2.382 -0,-2.382l-0.947,-1.894c-0.05,-0.1 -0.065,-0.213 -0.043,-0.322l1,-5c0.046,-0.234 0.252,-0.402 0.49,-0.402l3,-0c0.15,-0 0.292,0.067 0.387,0.183c0.095,0.116 0.133,0.268 0.103,0.415c0,0 -0.99,4.952 -0.99,4.952c0,-0 0,8.817 -0,8.817c-0,0 3.79,6.633 3.79,6.633l4.71,-0c0.133,-0 0.26,0.053 0.354,0.146l3,3c0.054,0.055 0.096,0.122 0.12,0.196c0,-0 1.742,5.226 1.742,5.226c0,-0 0.164,-0.055 0.164,-0.055c-0,-0 1.12,-0.964 1.12,-0.965l-0,-3.048c0,-0.041 0.005,-0.082 0.015,-0.121c-0,-0 1.967,-7.87 1.967,-7.87l-1.963,-6.872c-0.04,-0.141 -0.016,-0.292 0.065,-0.414c-0,-0 1.945,-2.918 1.945,-2.918c0,-0 0.959,-4.793 0.959,-4.793l-0.973,-3.891c-0.037,-0.149 -0.004,-0.307 0.091,-0.429c0.095,-0.121 0.24,-0.192 0.394,-0.192l5,-0c0.031,0 0.061,0.003 0.092,0.008c-0,0 2.104,0.398 3.795,0.005c0.181,-0.042 0.345,-0.177 0.508,-0.352c0.215,-0.231 0.414,-0.536 0.6,-0.878c0.863,-1.59 1.419,-3.959 1.505,-4.338l-0,-6.945c-0,-0.028 0.002,-0.055 0.007,-0.082c-0,-0 0.967,-5.805 0.967,-5.805l-3.89,-5.836c-0.044,-0.066 -0.072,-0.142 -0.081,-0.222l-1,-9c-0.029,-0.264 0.153,-0.505 0.415,-0.548c-0,-0 5.749,-0.958 5.749,-0.958c-0,-0 1.85,-3.7 1.849,-3.7c0,-0 0.962,-6.731 0.962,-6.731c0,0 -3.799,-5.698 -3.799,-5.698l-2.837,-0.946c-0.074,-0.024 -0.141,-0.066 -0.196,-0.12l-4,-4c-0.104,-0.105 -0.157,-0.251 -0.144,-0.399l1,-11l0.986,-8.876l-3.945,-8.876c-0.051,-0.114 -0.057,-0.243 -0.017,-0.361c-0,-0 1.958,-5.874 1.958,-5.874l-0.974,-4.87c-0.022,-0.109 -0.007,-0.222 0.043,-0.322c-0,0 1.899,-3.799 1.899,-3.799l-3.916,-9.791c-0.061,-0.153 -0.043,-0.326 0.048,-0.463c-0,-0 3.885,-5.828 3.885,-5.828l-0.959,-4.797c-0.03,-0.148 0.009,-0.302 0.106,-0.418c-0,-0 4.949,-5.939 4.949,-5.939l1.971,-4.927c0.025,-0.063 0.063,-0.12 0.11,-0.168l4,-4c0.029,-0.028 0.062,-0.054 0.097,-0.075l5,-3c0.099,-0.059 0.216,-0.083 0.33,-0.066l6.744,1c0.026,0.004 0.053,0.011 0.079,0.019c-0,-0 5.823,1.861 5.823,1.861c0,0 2.781,-6.488 2.781,-6.488c-0,0 0,-8.599 -0,-8.599l-8.994,-4.858c-0.122,-0.066 -0.211,-0.179 -0.246,-0.312c-0.035,-0.134 -0.014,-0.276 0.06,-0.393c-0,-0 6.243,-9.98 6.243,-9.98c0,0 4.974,-9.947 4.974,-9.947l0.989,-2.966c0.007,-0.023 0.016,-0.044 0.027,-0.066c-0,0 1.947,-3.894 1.947,-3.894l-0,-6.382c-0,-0.026 0.002,-0.053 0.006,-0.079c0,0 1.987,-12.419 1.987,-12.419l-1.986,-11.92c-0.023,-0.134 0.011,-0.272 0.092,-0.381c0.082,-0.109 0.204,-0.18 0.339,-0.197c-0,-0 7.901,-0.988 7.901,-0.988c-0,0 6.628,-3.787 6.628,-3.787l-0.964,-8.674c-0.017,-0.151 0.036,-0.301 0.143,-0.409c0,0 2.949,-2.948 2.949,-2.948l6.965,-12.935c0.023,-0.043 0.052,-0.082 0.086,-0.117c0,0 5.854,-5.853 5.854,-5.853c-0,-0 -0,-6.675 -0,-6.675l-3.947,-7.894c-0.071,-0.141 -0.071,-0.307 -0,-0.448l2,-4c0.017,-0.034 0.038,-0.066 0.063,-0.096c-0,-0 4.934,-5.922 4.934,-5.922l2.971,-9.902c0.024,-0.079 0.067,-0.151 0.125,-0.21l9,-9c0.158,-0.157 0.402,-0.191 0.597,-0.083c-0,-0 8.543,4.746 8.543,4.746c0,0 3.714,-7.427 3.714,-7.427l-0,-14.882c-0,-0.157 0.074,-0.306 0.2,-0.4l4,-3c0.216,-0.162 0.522,-0.123 0.69,0.088c0,-0 3.824,4.779 3.824,4.779l7.22,-0.963c0.107,-0.014 0.216,0.007 0.31,0.06c0,-0 12.138,6.797 12.138,6.797c-0,-0 4.36,-5.233 4.36,-5.233l-4.499,-2.699c-0.117,-0.071 -0.201,-0.186 -0.231,-0.319c-0.03,-0.134 -0.004,-0.274 0.072,-0.387c-0,-0 1.983,-2.974 1.983,-2.974c-0,-0 2.952,-5.905 2.952,-5.905c0,-0 0.951,-5.706 0.951,-5.706l-3.86,-4.826c-0.097,-0.121 -0.132,-0.28 -0.096,-0.43c0.037,-0.151 0.141,-0.276 0.283,-0.339l9,-4c0.089,-0.04 0.189,-0.052 0.285,-0.036c0,-0 5.495,0.916 5.495,0.916l0.928,-6.494c0.029,-0.201 0.177,-0.365 0.374,-0.414l8,-2c0.218,-0.055 0.446,0.044 0.557,0.24c-0,-0 8.994,15.99 8.994,15.99c0,-0 4.899,7.838 4.899,7.838c-0,-0 11.597,3.865 11.597,3.865l8.797,-5.864c0.082,-0.055 0.178,-0.084 0.277,-0.084l4,-0c0.108,0 0.213,0.035 0.3,0.1c0,0 11.411,8.558 11.411,8.558l2.807,-10.29c0.044,-0.161 0.165,-0.289 0.324,-0.342c-0,-0 8.754,-2.918 8.754,-2.918c-0,-0 2.898,-9.661 2.898,-9.661l-0.992,-11.905c-0.007,-0.086 0.007,-0.171 0.043,-0.249l5,-11c0.009,-0.02 0.019,-0.039 0.031,-0.058c0,0 4.987,-7.98 4.987,-7.98l2.99,-5.979c0.098,-0.196 0.313,-0.305 0.529,-0.269c0,-0 5.862,0.977 5.862,0.977c0,-0 4.86,-1.944 4.86,-1.944l10.989,-4.995c0.127,-0.058 0.272,-0.06 0.401,-0.006c0.128,0.054 0.228,0.159 0.276,0.29c-0,0 3.928,10.803 3.928,10.803l10.809,4.913c0.068,0.031 0.129,0.077 0.177,0.135l5,6c0.075,0.09 0.116,0.203 0.116,0.32l-0,8c-0,0.103 -0.032,0.203 -0.09,0.287c-0,-0 -6.83,9.756 -6.83,9.756c0,-0 2.644,5.286 2.644,5.286c-0,0 3.334,-1.667 3.334,-1.667l0.952,-4.76c0.008,-0.044 0.023,-0.086 0.043,-0.126l2,-4c0.055,-0.109 0.148,-0.195 0.261,-0.24l5,-2c0.021,-0.009 0.043,-0.016 0.065,-0.021c-0,-0 3.777,-0.944 3.777,-0.944c-0,-0 1.881,-3.763 1.881,-3.763c-0,0 0.963,-2.889 0.963,-2.889c-0,-0 -0,-2.801 -0,-2.801l-0.947,-1.894c-0.091,-0.181 -0.063,-0.399 0.069,-0.552c0.133,-0.152 0.344,-0.21 0.536,-0.146l3,1c0.074,0.024 0.141,0.066 0.196,0.12c-0,0 2.942,2.943 2.942,2.943c0,0 1.822,0.911 1.822,0.911c0,-0 2.675,-0 2.675,-0c-0,-0 0.756,-0.756 0.756,-0.756c-0,0 0.936,-3.744 0.936,-3.744l-0.97,-3.879c-0.01,-0.039 -0.015,-0.08 -0.015,-0.121c-0,0 -0,-2.5 -0,-2.5l-2.5,-0c-0.078,-0 -0.154,-0.018 -0.224,-0.053c0,0 -1.394,-0.697 -1.394,-0.697l-0.889,5.332c-0.04,0.241 -0.249,0.418 -0.493,0.418l-2,-0c-0.146,-0 -0.285,-0.064 -0.38,-0.175c-0.095,-0.11 -0.136,-0.257 -0.114,-0.401c-0,-0 0.4,-2.493 0.015,-3.781c-0.26,-0.869 -0.595,-2.252 -0.806,-3.151c0,-0 -1.215,1.215 -1.215,1.215l-0,5.793c-0,0.173 -0.09,0.334 -0.237,0.425c-0.148,0.091 -0.332,0.1 -0.487,0.022c0,0 -1.894,-0.947 -1.894,-0.947l-1.882,-0c-0.276,0 -0.5,-0.224 -0.5,-0.5c-0,-0 -0,-1.36 -0,-1.36c-0,0 -3.295,0.824 -3.295,0.824l-2.928,1.952c-0.188,0.126 -0.438,0.109 -0.608,-0.041c-0.17,-0.15 -0.218,-0.396 -0.116,-0.599l1,-2c0.009,-0.018 0.019,-0.036 0.031,-0.053c-0,-0 1.963,-2.945 1.963,-2.945c-0,0 0.881,-2.643 0.881,-2.643c-0,0 -1.581,-1.581 -1.581,-1.581l-3.726,0.931c-0.247,0.062 -0.501,-0.072 -0.59,-0.312c-0.088,-0.239 0.017,-0.506 0.245,-0.62c0,-0 1.882,-0.941 1.882,-0.941c-0,0 1.612,-2.418 1.612,-2.418c-0,-0 -1.462,-0.731 -1.462,-0.731l-2.966,-0.989c-0.009,-0.003 -0.019,-0.006 -0.028,-0.01l-10,-4c-0.113,-0.045 -0.206,-0.131 -0.261,-0.24l-1,-2c-0.071,-0.141 -0.071,-0.307 -0,-0.448l1,-2c0.105,-0.209 0.341,-0.318 0.568,-0.261c0,-0 3.989,0.997 3.989,0.997c-0,0 9.98,1.996 9.98,1.996c0,0 5.881,0.98 5.878,0.981c0.586,-0.167 3.367,-0.936 5.016,-0.989c0.195,-0.006 0.352,-0.02 0.478,-0.044c0.046,-0.01 0.099,-0.027 0.135,-0.04c-0.008,-0.078 -0.028,-0.249 -0.051,-0.376c-0.057,-0.319 -0.109,-0.695 -0.039,-1.121c0.123,-0.751 0.605,-1.249 1.137,-1.615c0.386,-0.266 0.803,-0.432 0.98,-0.634c0.352,-0.4 0.544,-0.504 0.893,-1.8c0.142,-0.528 0.371,-0.799 0.606,-0.951c0.252,-0.163 0.536,-0.2 0.834,-0.183c0.142,0.009 0.289,0.032 0.43,0.032c0.079,0.001 0.16,-0.001 0.221,-0.078c0.12,-0.152 0.323,-0.289 0.609,-0.374c0.283,-0.085 0.67,-0.13 1.108,-0.141c1.281,-0.031 3.038,0.22 3.586,0.304c0.251,-0.156 0.792,-0.591 0.603,-1.36c-0.189,-0.772 -0.101,-1.409 -0.007,-1.953c0.065,-0.371 0.17,-0.678 0.041,-0.953c-0.179,-0.379 -0.445,-1.179 -0.662,-1.868l-0.439,0.879c-0.061,0.122 -0.169,0.213 -0.299,0.254c-0.131,0.04 -0.272,0.025 -0.391,-0.041c-0,-0 -0.687,-0.383 -1.289,-0.924c-0.455,-0.408 -0.846,-0.911 -0.956,-1.404c-0.08,-0.358 -0.392,-0.847 -0.722,-1.314c-0.506,-0.714 -1.078,-1.366 -1.154,-1.452c-0,-0 -1.8,-1.8 -1.8,-1.8l-4.738,0.947c-0.085,0.017 -0.174,0.012 -0.256,-0.016l-3,-1c-0.211,-0.07 -0.35,-0.271 -0.342,-0.493c0.009,-0.222 0.163,-0.412 0.379,-0.466c-0,-0 3.777,-0.944 3.777,-0.944c-0,-0 0.639,-1.279 0.639,-1.279l-2.453,-0.818c-0.204,-0.068 -0.342,-0.259 -0.342,-0.474c-0,0 -0,-2.691 0,-2.691c0,0 -1.35,-0.675 -1.35,-0.675l-2.75,3.666c-0.094,0.126 -0.243,0.2 -0.4,0.2l-2,-0c-0.161,0 -0.312,-0.077 -0.406,-0.208c-0.094,-0.13 -0.119,-0.298 -0.068,-0.45c-0,-0 0.934,-2.804 0.934,-2.804c0,0 -0.728,-1.456 -0.728,-1.456c0,0 -3.476,0.869 -3.476,0.869l-1.902,1.903c-0.143,0.143 -0.359,0.185 -0.545,0.108c-0.187,-0.077 -0.309,-0.26 -0.309,-0.462l-0,-3c-0,-0.078 0.018,-0.154 0.053,-0.224c-0,0 0.839,-1.677 0.839,-1.677l-1.746,-1.745c-0.038,-0.038 -0.069,-0.082 -0.093,-0.13c-0,-0 -0.897,-1.795 -0.897,-1.795c-0,0 -3.503,-0.875 -3.503,-0.875c0,-0 -1.756,1.756 -1.756,1.756c0,0 -2.897,4.828 -2.897,4.829l-0,2.861c0,0.202 -0.122,0.385 -0.309,0.462c-0.186,0.077 -0.402,0.035 -0.545,-0.108c0,-0 -0.427,-0.428 -0.427,-0.428c-0,-0 -1.667,5 -1.667,5l1.864,2.797c0.055,0.082 0.084,0.178 0.084,0.277l-0,3c-0,0.232 -0.159,0.433 -0.385,0.487c-0.226,0.053 -0.459,-0.056 -0.562,-0.263c-0,-0 -0.69,-1.38 -0.69,-1.38c0,0 -2.412,2.412 -2.412,2.412c0,-0 -0.951,3.806 -0.951,3.806l-0,5.938c0,0.041 -0.005,0.082 -0.015,0.121l-1,4c-0.022,0.088 -0.067,0.168 -0.131,0.233l-1,1c-0.143,0.143 -0.359,0.185 -0.545,0.108c-0.187,-0.077 -0.309,-0.26 -0.309,-0.462l-0,-1c0,-0.078 0.018,-0.154 0.053,-0.224c-0,0 0.947,-1.894 0.947,-1.894l-0,-10.882c-0,-0.078 0.018,-0.154 0.053,-0.224l0.662,-1.325c-0.066,0.032 -0.139,0.049 -0.215,0.049l-2,-0c-0.189,-0 -0.363,-0.107 -0.447,-0.276c-0,-0 -0.46,-0.921 -0.46,-0.921l-0.619,1.855c-0.054,0.165 -0.19,0.289 -0.359,0.329c-0.169,0.039 -0.346,-0.011 -0.469,-0.133l-1,-1c-0.093,-0.094 -0.146,-0.221 -0.146,-0.354l-0,-3c-0,-0.167 0.084,-0.323 0.223,-0.416c-0,-0 2.958,-1.973 2.958,-1.973c0,0 1.93,-1.93 1.93,-1.93c0,0 1.889,-2.832 1.889,-2.832c-0,-0 -0,-1.349 -0,-1.349c-0,-0 -0.349,-0 -0.349,-0c0,-0 -2.857,1.905 -2.852,1.901c-0.125,0.099 -1.195,0.943 -2.072,1.513c-0.455,0.296 -0.87,0.515 -1.112,0.572c-0.729,0.174 -3.151,0.013 -3.151,0.013c-0.195,-0.014 -0.364,-0.141 -0.432,-0.324c-0.069,-0.184 -0.024,-0.39 0.114,-0.529l1,-1c0.024,-0.023 0.049,-0.044 0.077,-0.062c-0,-0 2.958,-1.973 2.958,-1.973c0,0 1.819,-1.818 1.819,-1.818c-0,-0 -0,-0.484 -0,-0.484c-0,0 -1.618,-0.809 -1.618,-0.809l-1.882,-0c-0.276,0 -0.5,-0.224 -0.5,-0.5l-0,-1c0,-0.133 0.053,-0.26 0.146,-0.354l1,-1c0.055,-0.054 0.122,-0.096 0.196,-0.12l3,-1c0.103,-0.035 0.213,-0.035 0.316,-0c0,-0 2.342,0.78 2.342,0.78l-0,-0.306c0,-0.189 0.107,-0.363 0.276,-0.447c0,-0 1.724,-0.862 1.724,-0.862l-0,-1.691c0,-0.189 0.107,-0.363 0.276,-0.447c0,-0 1.804,-0.902 1.804,-0.903c0.195,-0.684 0.803,-2.85 0.925,-3.719c0.011,-0.079 -0.041,-0.127 -0.1,-0.166c-0.063,-0.042 -0.137,-0.075 -0.215,-0.103c-0.407,-0.147 -0.918,-0.163 -1.106,-0.163l-2.926,0.975c-0.152,0.051 -0.32,0.026 -0.45,-0.068c-0.131,-0.094 -0.208,-0.245 -0.208,-0.406c-0,-0 -0,-3.306 0,-3.306c0,-0 -2.308,0.769 -2.308,0.769l-1.968,0.984c-0.185,0.093 -0.408,0.062 -0.561,-0.078c-0,0 -1.595,-1.458 -2.495,-2.725c-0.254,-0.357 -0.454,-0.703 -0.564,-1.002c-0.034,-0.094 -0.06,-0.184 -0.078,-0.27c-0.058,0.036 -0.116,0.074 -0.165,0.111c-0.331,0.248 -0.671,0.555 -0.861,0.732l-0,4.785c0,0.133 -0.053,0.26 -0.146,0.354l-1,1c-0.114,0.113 -0.275,0.165 -0.434,0.14c-0.159,-0.026 -0.295,-0.127 -0.367,-0.27c-0,-0 -0.862,-1.724 -0.862,-1.724c-0,-0 -1.882,-0 -1.882,-0l0.638,1.276c0.078,0.155 0.069,0.339 -0.022,0.487c-0.091,0.147 -0.252,0.237 -0.425,0.237c-0,-0 -1.793,-0 -1.793,0c0,0 -0.5,0.5 -0.5,0.5c0,-0 1.357,1.357 1.357,1.357l2.659,-1.773c0.188,-0.126 0.438,-0.109 0.608,0.041c0.17,0.15 0.218,0.396 0.116,0.599c0,-0 -0.833,1.666 -0.833,1.666c0.52,0.489 1.611,1.532 1.808,1.841c0.221,0.347 0.893,0.881 0.893,0.881c0.055,0.044 0.1,0.101 0.132,0.164l1,2c0.086,0.171 0.066,0.376 -0.05,0.527c-0.116,0.152 -0.308,0.225 -0.495,0.187c-0,0 -4.402,-0.88 -4.402,-0.88l-0,2.39c0,0.133 -0.053,0.26 -0.146,0.354l-1,1c-0.038,0.038 -0.082,0.069 -0.13,0.093c-0,0 -1.724,0.862 -1.724,0.862c-0,0 -0,2.54 0,2.54l1.916,2.874c0.119,0.177 0.111,0.411 -0.019,0.58c-0.129,0.17 -0.352,0.239 -0.555,0.171c-0,0 -2.589,-0.863 -2.589,-0.863c0,0 -0.753,1.507 -0.753,1.507c-0,0 -0,1.801 0,1.801l0.974,2.923c0.051,0.152 0.026,0.32 -0.068,0.45c-0.094,0.131 -0.245,0.208 -0.406,0.208l-1,-0c-0.029,0 -0.057,-0.002 -0.086,-0.007c0,-0 -1.258,-0.22 -2.201,-0.555c-0.265,-0.094 -0.506,-0.202 -0.702,-0.315c-0.039,0.101 -0.08,0.215 -0.109,0.32c-0.242,0.877 -0.406,2.123 -0.406,2.123c-0.033,0.248 -0.245,0.434 -0.496,0.434c-0,-0 -0.5,-0 -0.5,0l-0,1.5c0,0.189 -0.107,0.363 -0.276,0.447l-2,1c-0.07,0.035 -0.146,0.053 -0.224,0.053l-1,-0c-0.276,-0 -0.5,-0.224 -0.5,-0.5l-0,-6c0,-0.038 0.004,-0.077 0.013,-0.114c0,-0 0.301,-1.28 0.622,-2.205c0.162,-0.469 0.347,-0.853 0.493,-1.015c0.314,-0.349 0.748,-1.438 0.872,-1.758c-0,-0 -0,-2.321 0,-2.321c-0.911,0.154 -2.644,0.484 -3.243,0.842c-0.323,0.193 -0.597,0.208 -0.819,0.151c-0.234,-0.061 -0.429,-0.211 -0.576,-0.423c-0.289,-0.417 -0.36,-1.114 -0.36,-1.114c-0.016,-0.182 0.069,-0.358 0.221,-0.459c-0,-0 2.958,-1.973 2.958,-1.973c0,0 1.908,-1.907 1.908,-1.907c0,-0 0.911,-1.822 0.911,-1.822c-0,-0 -0,-1.675 0,-1.675l-0.854,-0.853c-0.133,-0.134 -0.18,-0.332 -0.12,-0.512c-0,-0 0.934,-2.804 0.934,-2.804c0,0 -0.639,-1.279 -0.639,-1.279c-0,0 -3.427,2.57 -3.427,2.57c0,0 -1.931,3.863 -1.931,3.863l-0.989,2.966c-0.042,0.126 -0.132,0.23 -0.25,0.289c-0,0 -1.724,0.862 -1.724,0.862l-0,2.691c0,0.091 -0.025,0.18 -0.071,0.257l-3,5c-0.004,0.007 -0.009,0.014 -0.013,0.02c0,0 -3.983,5.974 -3.983,5.974c0,0 -1.874,3.749 -1.874,3.749l0.888,1.776c0.071,0.141 0.071,0.307 0,0.448l-2,4c-0.009,0.018 -0.019,0.036 -0.031,0.053l-2,3c-0.018,0.028 -0.039,0.053 -0.062,0.077l-4,4c-0.153,0.152 -0.385,0.189 -0.578,0.093l-2,-1c-0.168,-0.084 -0.275,-0.255 -0.276,-0.444c0,0 -0.021,-3.017 0,-4.013c0.022,-1.061 1.051,-3.209 1.051,-3.209c0.024,-0.05 0.056,-0.095 0.095,-0.135c0,0 1.943,-1.942 1.943,-1.942c0,-0 0.602,-1.204 0.602,-1.204l-0.191,-0c-0.215,0 -0.406,-0.138 -0.474,-0.342l-1,-3c-0.072,-0.214 0.009,-0.449 0.197,-0.574c-0,-0 2.777,-1.852 2.777,-1.852c-0,0 -0,-1.232 -0,-1.232l-2.5,-0c-0.161,0 -0.312,-0.077 -0.406,-0.208c-0.094,-0.13 -0.119,-0.298 -0.068,-0.45l1,-3c0.014,-0.042 0.033,-0.082 0.058,-0.119l4,-6c0.018,-0.028 0.039,-0.053 0.062,-0.077c0,0 3.854,-3.853 3.854,-3.853l-0,-1.793c-0,-0.133 0.053,-0.26 0.146,-0.354l3.822,-3.821l-1.244,0.622c-0.193,0.096 -0.425,0.059 -0.578,-0.093c0,-0 -0.745,-0.746 -0.745,-0.746c0,0 -5.605,2.803 -5.605,2.803l-0.942,0.943c-0.143,0.143 -0.359,0.185 -0.545,0.108c-0.187,-0.077 -0.309,-0.26 -0.309,-0.462c-0,-0 -0,-1.958 -0,-1.96c-0.04,-0.22 -0.27,-1.381 -0.952,-2.827c-0.015,-0.032 -0.031,-0.064 -0.048,-0.095l-0,1.882c-0,0.276 -0.224,0.5 -0.5,0.5l-3,-0c-0.202,0 -0.385,-0.122 -0.462,-0.309c-0.077,-0.186 -0.035,-0.402 0.108,-0.545c0,0 0.854,-0.853 0.854,-0.853c-0,-0 -0,-0.293 -0,-0.293l-1.5,-0c-0.133,0 -0.26,-0.053 -0.354,-0.146l-1,-1c-0.093,-0.094 -0.146,-0.221 -0.146,-0.354c-0,0 -0,-0.691 -0,-0.691c-0,0 -1.401,-0.701 -1.401,-0.701c-0,0 -0.491,0.491 -0.491,0.491c0,-0 0.803,1.605 0.803,1.605l0.943,0.942c0.093,0.094 0.146,0.221 0.146,0.354l-0,1c0,0.276 -0.224,0.5 -0.5,0.5c-0,-0 -1.191,-0 -1.191,-0l0.638,1.276c0.071,0.141 0.071,0.307 0,0.448l-1,2c-0.064,0.128 -0.18,0.222 -0.319,0.259c-0.138,0.037 -0.286,0.013 -0.405,-0.067l-3,-2c-0.073,-0.048 -0.131,-0.115 -0.17,-0.192c-0,-0 -0.553,-1.106 -0.553,-1.106c-0,0 -0.441,0.882 -0.441,0.882c0,-0 0.852,1.704 0.852,1.704c-0,-0 0.859,0.859 0.859,0.859l2.888,0.963c0.074,0.024 0.141,0.066 0.196,0.12l3,3c0.133,0.134 0.18,0.332 0.12,0.512l-1,3c-0.068,0.204 -0.259,0.342 -0.474,0.342l-1,-0c-0.133,-0 -0.26,-0.053 -0.354,-0.146c0,-0 -2.942,-2.943 -2.942,-2.943c-0,-0 -1.48,-0.74 -1.48,-0.74c-0,-0 -1.761,3.521 -1.761,3.521c0,-0 -0.769,2.308 -0.769,2.308l0.306,-0c0.167,0 0.323,0.084 0.416,0.223l2,3c0.055,0.082 0.084,0.178 0.084,0.277l-0,1c-0,0.146 -0.064,0.286 -0.176,0.381c-0.111,0.095 -0.259,0.136 -0.403,0.113c-0,-0 -1.841,-0.3 -3.169,-1.06c-0.975,-0.558 -1.628,-0.843 -1.848,-0.934c-0,-0 -2.67,-0 -2.67,-0c0,-0 -4.734,5.681 -4.734,5.681c-0,0 -0,1.701 0,1.701l0.947,1.894c0.065,0.13 0.07,0.281 0.015,0.415c-0.056,0.134 -0.166,0.238 -0.304,0.283l-0.742,0.248c0.053,0.079 0.084,0.175 0.084,0.278l-0,2c0,0.276 -0.224,0.5 -0.5,0.5c-0,-0 -0.882,-0 -0.882,-0c0,-0 -1.274,0.637 -1.274,0.637l0.51,0.509c0.093,0.094 0.146,0.221 0.146,0.354l-0,3c-0,0.133 -0.053,0.26 -0.146,0.354l-1,1c-0.094,0.093 -0.221,0.146 -0.354,0.146c-0,-0 -0.191,-0 -0.191,0c0,0 0.5,1 0.5,1l1.691,-0c0.133,0 0.26,0.053 0.354,0.146l2,2c0.113,0.114 0.165,0.275 0.14,0.434c-0.026,0.159 -0.127,0.295 -0.27,0.367c-0,0 -1.928,0.964 -1.928,0.964l-1.942,1.943c-0.094,0.093 -0.221,0.146 -0.354,0.146l-1,-0c-0.173,0 -0.334,-0.09 -0.425,-0.237c-0.091,-0.148 -0.1,-0.332 -0.022,-0.487l0.622,-1.244l-1.821,1.822c-0.094,0.093 -0.221,0.146 -0.354,0.146l-1,-0c-0.276,0 -0.5,-0.224 -0.5,-0.5c-0,-0 -0,-3.5 0,-3.5l-0.5,-0c-0.276,0 -0.5,-0.224 -0.5,-0.5c-0,0 -0,-0.919 0,-0.919c0,0 -0.816,-2.449 -0.816,-2.449c-0,0 -2.462,0.821 -2.462,0.821l-2.945,1.963c-0.047,0.032 -0.1,0.055 -0.156,0.069l-4,1c-0.149,0.037 -0.307,0.004 -0.429,-0.091c-0.121,-0.095 -0.192,-0.24 -0.192,-0.394l-0,-1c-0,-0.167 0.084,-0.323 0.223,-0.416l3,-2c0.037,-0.025 0.077,-0.044 0.119,-0.058l0.091,-0.031c-0.054,-0.007 -0.107,-0.023 -0.157,-0.048c0,0 -1.776,-0.888 -1.776,-0.888l-1.776,0.888c-0.155,0.078 -0.339,0.069 -0.487,-0.022c-0.147,-0.091 -0.237,-0.252 -0.237,-0.425l-0,-5c0,0.276 -0.224,0.5 -0.5,0.5l-2,-0c-0.276,0 -0.5,-0.224 -0.5,-0.5c-0,-0 -0,-1.691 -0,-1.691c-0,0 -1.401,-0.701 -1.401,-0.701c-0,0 -1.255,1.255 -1.255,1.255l1.38,0.69c0.169,0.084 0.276,0.258 0.276,0.447l-0,3c-0,0.189 -0.107,0.363 -0.276,0.447l-2,1c-0.13,0.065 -0.281,0.07 -0.415,0.015c-0.134,-0.056 -0.238,-0.166 -0.283,-0.304c-0,0 -0.983,-2.948 -0.982,-2.946c-0.165,-0.277 -0.933,-1.586 -1.033,-2.109c-0.019,-0.026 -0.191,-0.264 -0.338,-0.416c-0.262,-0.271 -0.595,-0.566 -0.878,-0.804l-0.81,3.238c-0.044,0.175 -0.178,0.313 -0.352,0.361c-0.173,0.048 -0.359,-0.001 -0.487,-0.128c0,-0 -1.646,-1.647 -1.646,-1.647c0,0 -0.5,0.5 -0.5,0.5c-0,0 -0,1.433 0,1.433l2.658,0.886c0.204,0.068 0.342,0.259 0.342,0.474c-0,0 -0,1.5 0,1.5l1.5,-0c0.189,0 0.363,0.107 0.447,0.276c0,0 0.777,1.553 0.777,1.553l1.552,-0.776c0.04,-0.02 0.082,-0.035 0.126,-0.043l5,-1c0.147,-0.03 0.299,0.008 0.415,0.103c0.116,0.095 0.183,0.237 0.183,0.387l-0,1c-0,0.157 -0.074,0.306 -0.2,0.4c-0,0 -2.8,2.1 -2.8,2.1l2.5,-0c0.202,0 0.385,0.122 0.462,0.309c0.077,0.186 0.035,0.402 -0.108,0.545c-0,-0 -0.854,0.853 -0.854,0.853l-0,2.793c0,0.173 -0.09,0.334 -0.237,0.425c-0.148,0.091 -0.332,0.1 -0.487,0.022c0,0 -1.276,-0.638 -1.276,-0.638c-0,0 -0,0.11 -0,0.11c-0,-0 0.97,2.909 0.97,2.909l1.994,4.986c0.053,0.133 0.047,0.282 -0.017,0.41l-1,2c-0.072,0.143 -0.208,0.244 -0.367,0.27c-0.159,0.025 -0.32,-0.027 -0.434,-0.14l-1,-1c-0.038,-0.038 -0.069,-0.082 -0.093,-0.13c-0,-0 -1.964,-3.928 -1.964,-3.928c0,0 -2.922,-2.922 -2.918,-2.919c-0.184,-0.146 -1.481,-1.192 -2.087,-2.099c-0.481,-0.721 -0.834,-2.094 -0.989,-2.778c0,-0 -2.095,-0 -2.095,0l-0,3.5c-0,0.078 -0.018,0.154 -0.053,0.224c0,-0 -0.947,1.894 -0.947,1.894l-0,2.882c-0,0.202 -0.122,0.385 -0.309,0.462c-0.186,0.077 -0.402,0.035 -0.545,-0.108c0,-0 -1.509,-1.51 -1.509,-1.51l-0.69,1.38c-0.024,0.048 -0.055,0.092 -0.093,0.13l-1,1c-0.196,0.195 -0.512,0.195 -0.708,-0l-1,-1c-0.038,-0.038 -0.069,-0.082 -0.093,-0.13c-0,-0 -0.615,-1.23 -0.615,-1.23l-1.522,2.283c-0.062,0.093 -0.152,0.162 -0.258,0.197c0,0 -2.658,0.886 -2.658,0.886c-0,0 -0,5.473 -0,5.473l2.9,3.867c0.006,0.007 0.011,0.015 0.016,0.023l2,3c0.119,0.177 0.111,0.411 -0.019,0.58c-0.129,0.17 -0.352,0.239 -0.555,0.171l-3,-1c-0.074,-0.024 -0.141,-0.066 -0.196,-0.12c0,-0 -2.463,-2.464 -2.463,-2.464c-0,-0 -1.713,4.282 -1.713,4.282l-0.996,2.986c-0.035,0.106 -0.104,0.196 -0.197,0.258c0,0 -2.857,1.905 -2.857,1.905l-0.946,2.837c-0.042,0.126 -0.132,0.23 -0.25,0.289l-2,1c-0.176,0.088 -0.387,0.065 -0.54,-0.059c-0.152,-0.124 -0.218,-0.326 -0.167,-0.516c-0,-0 0.249,-0.923 0.005,-1.726c-0.108,-0.355 -0.062,-0.843 0.09,-1.349c0.298,-0.984 0.963,-2.061 0.963,-2.061c0.038,-0.06 0.088,-0.112 0.148,-0.152c-0,-0 2.889,-1.926 2.889,-1.926c0,-0 0.888,-1.776 0.888,-1.776l-0,-3.882c0,-0.133 0.053,-0.26 0.146,-0.354c0,0 0.969,-0.968 0.971,-0.971c0.142,-0.207 0.784,-1.162 0.891,-1.763c0.108,-0.606 0.024,-1.568 0,-1.806l-0.982,-2.948c-0.035,-0.103 -0.035,-0.213 -0,-0.316c-0,-0 0.994,-2.982 0.994,-2.982c-0,0 0.95,-3.802 0.95,-3.802c0,0 -1.47,-2.94 -1.47,-2.94c0,0 -0.537,1.074 -0.537,1.074l-0.989,2.966c-0.068,0.204 -0.259,0.342 -0.474,0.342c-0,-0 -0.61,-0 -0.61,-0l-0.905,3.621c-0.056,0.223 -0.256,0.379 -0.485,0.379c-0,-0 -1.64,-0 -1.64,0c0,0 -0.833,2.5 -0.833,2.5c0,-0 0.882,2.645 0.882,2.645l3.815,1.908c0.169,0.084 0.276,0.258 0.276,0.447c0,0.189 -0.107,0.363 -0.276,0.447l-2,1c-0.107,0.054 -0.229,0.067 -0.345,0.038c-0,0 -3.726,-0.931 -3.726,-0.931c0,-0 -0.653,0.653 -0.653,0.653l-0,5.793c0,0.167 -0.084,0.323 -0.223,0.416l-3,2c-0.177,0.119 -0.411,0.111 -0.58,-0.019c-0.17,-0.129 -0.239,-0.352 -0.171,-0.555c-0,-0 0.976,-2.929 0.976,-2.932c0.009,-0.367 0.046,-1.982 -0.001,-2.884c-0.027,-0.513 0.154,-1.015 0.395,-1.429c0.228,-0.391 0.503,-0.699 0.653,-0.854c-0,0 0.951,-3.805 0.951,-3.805c-0,0 -0,-4.731 0,-4.731c0,0 -0.653,-0.653 -0.653,-0.653c-0,-0 -7.459,1.864 -7.459,1.864l-0.914,2.74c-0.014,0.042 -0.033,0.082 -0.058,0.119c0,0 -1.864,2.797 -1.864,2.797c-0,-0 0.667,2 0.667,2l1.427,-1.428c0.153,-0.152 0.385,-0.189 0.578,-0.093l2,1c0.169,0.084 0.276,0.258 0.276,0.447l-0,2c-0,0.173 -0.09,0.334 -0.237,0.425c-0.148,0.091 -0.332,0.1 -0.487,0.022c0,0 -1.605,-0.802 -1.605,-0.802c0,-0 -1.528,2.291 -1.528,2.291l0.711,0.71c0.054,0.055 0.096,0.122 0.12,0.196c0,-0 0.886,2.658 0.886,2.658l2.64,-0c0.133,-0 0.26,0.053 0.354,0.146l2,2c0.093,0.094 0.146,0.221 0.146,0.354l-0,6c0,0.202 -0.122,0.385 -0.309,0.462c-0.186,0.077 -0.402,0.035 -0.545,-0.108c0,-0 -0.646,-0.647 -0.646,-0.647l-0.646,0.647c-0.153,0.152 -0.385,0.189 -0.578,0.093l-2,-1c-0.048,-0.024 -0.092,-0.055 -0.13,-0.093l-1,-1c-0.122,-0.123 -0.172,-0.3 -0.133,-0.469c0.04,-0.169 0.164,-0.305 0.329,-0.359c-0,-0 2.658,-0.886 2.658,-0.886c-0,-0 -0,-1.331 0,-1.331l-3.724,-1.862c-0.077,-0.039 -0.144,-0.097 -0.192,-0.17c-0,0 -1.973,-2.958 -1.973,-2.958l-1.965,-1.965c-0.093,-0.094 -0.146,-0.221 -0.146,-0.354c-0,0 -0,-1.5 0,-1.5c0,-0 -2.382,-0 -2.382,-0c0,-0 -1.618,0.809 -1.618,0.809c-0,-0 -0,1.382 0,1.382l1.724,0.862c0.169,0.084 0.276,0.258 0.276,0.447c-0,-0 -0,1.654 0,1.654c0.479,0.176 1.419,0.506 2.266,0.703c0.459,0.108 0.886,0.183 1.172,0.147c0.481,-0.06 0.979,0.24 1.381,0.788c0.684,0.933 1.161,2.57 1.161,2.57c0.051,0.175 0.002,0.363 -0.126,0.492l-1,1c-0.196,0.195 -0.512,0.195 -0.708,-0c0,-0 -1.745,-1.746 -1.745,-1.746c0,0 -1.401,0.701 -1.401,0.701l-0,1.691c-0,0.22 -0.144,0.415 -0.355,0.479c-0.211,0.063 -0.439,-0.018 -0.561,-0.202c-0,0 -1.373,-2.059 -1.373,-2.059l-0.726,2.903c-0.057,0.23 -0.268,0.388 -0.505,0.379c-0.237,-0.01 -0.434,-0.184 -0.473,-0.418c-0,0 -0.965,-5.786 -0.964,-5.785c-0.289,-0.204 -0.795,-0.612 -1.003,-1.101c-0.239,-0.562 -0.982,-1.962 -0.982,-1.962c-0.038,-0.072 -0.058,-0.152 -0.058,-0.234c-0,-0 -0,-1.191 -0,-1.191c-0,0 -1,0.5 -1,0.5l-0,2.691c-0,0.078 -0.018,0.154 -0.053,0.224l-1,2c-0.009,0.018 -0.019,0.036 -0.031,0.053c0,0 -1.773,2.659 -1.773,2.659l1.711,1.71c0.093,0.094 0.146,0.221 0.146,0.354c-0,0 -0,1.882 0,1.882l0.947,1.894c0.077,0.154 0.07,0.337 -0.02,0.484c-0.09,0.147 -0.249,0.238 -0.421,0.24c0,-0 -2.325,0.027 -2.954,0.003c-0.058,0.042 -0.22,0.164 -0.336,0.276c-0.588,0.565 -1.318,1.524 -1.318,1.524c-0.146,0.191 -0.407,0.252 -0.622,0.144c0,0 -1.552,-0.776 -1.552,-0.776l-0.777,1.553c-0.024,0.048 -0.055,0.092 -0.093,0.13c-0,-0 -1.903,1.902 -1.903,1.902c0,-0 -0.845,3.38 -0.845,3.38l3.515,0.879c0.088,0.022 0.168,0.067 0.233,0.131l2,2c0.143,0.143 0.185,0.359 0.108,0.545c-0.077,0.187 -0.26,0.309 -0.462,0.309c-0,-0 -2.793,-0 -2.793,0c0,0 -1.281,1.281 -1.281,1.281l2.232,0.745c0.204,0.068 0.342,0.259 0.342,0.474l-0,3c-0,0.232 -0.159,0.433 -0.385,0.487c-0.226,0.053 -0.459,-0.056 -0.562,-0.263c-0,-0 -0.862,-1.724 -0.862,-1.724l-1.691,-0c-0.078,0 -0.154,-0.018 -0.224,-0.053c0,0 -1.677,-0.839 -1.677,-0.839l-0.924,0.924c0.067,0.025 0.128,0.063 0.179,0.114c-0,0 0.942,0.943 0.942,0.943l1.928,0.964c0.048,0.024 0.092,0.055 0.13,0.093l2,2c0.143,0.143 0.185,0.359 0.108,0.545c-0.077,0.187 -0.26,0.309 -0.462,0.309l-4,-0c-0.133,0 -0.26,-0.053 -0.354,-0.146c0,-0 -0.853,-0.854 -0.853,-0.854c-0,-0 -2.293,-0 -2.293,0l-0,2.5c-0,0.173 -0.09,0.334 -0.237,0.425c-0.148,0.091 -0.332,0.1 -0.487,0.022l-2,-1c-0.096,-0.048 -0.175,-0.127 -0.223,-0.223c-0,-0 -0.777,-1.553 -0.777,-1.553c0,-0 -5.276,2.638 -5.276,2.638l-0,3.691c-0,0.276 -0.224,0.5 -0.5,0.5c-0,-0 -1.5,-0 -1.5,0c-0,0 -0,2 -0,2c-0,-0 4.293,-0 4.293,0l1.853,-1.854c0.038,-0.038 0.082,-0.069 0.13,-0.093l2,-1c0.13,-0.065 0.281,-0.07 0.415,-0.015c0.134,0.056 0.238,0.166 0.283,0.304c0,-0 0.886,2.658 0.886,2.658c0,-0 1.331,-0 1.331,-0l0.862,-1.724c0.059,-0.118 0.163,-0.208 0.289,-0.25l3,-1c0.051,-0.017 0.104,-0.026 0.158,-0.026l1,-0c0.161,0 0.312,0.077 0.406,0.208c0.094,0.13 0.119,0.298 0.068,0.45c0,0 -0.78,2.342 -0.78,2.342l1.306,-0c0.078,0 0.154,0.018 0.224,0.053l2,1c0.048,0.024 0.092,0.055 0.13,0.093l2,2c0.143,0.143 0.185,0.359 0.108,0.545c-0.077,0.187 -0.26,0.309 -0.462,0.309l-2,-0c-0.133,0 -0.26,-0.053 -0.354,-0.146c0,-0 -0.942,-0.943 -0.942,-0.943c-0,-0 -1.704,-0.852 -1.704,-0.852c-0,0 -0.882,0.441 -0.882,0.441l1.106,0.553c0.169,0.084 0.276,0.258 0.276,0.447l-0,2c0,0.173 -0.09,0.334 -0.237,0.425c-0.148,0.091 -0.332,0.1 -0.487,0.022c0,0 -3.552,-1.776 -3.552,-1.776c-0,-0 -0.616,1.23 -0.616,1.23l0.746,0.745c0.023,0.024 0.044,0.049 0.062,0.077l2,3c0.132,0.198 0.106,0.462 -0.062,0.631c-0,-0 -0.854,0.853 -0.854,0.853l-0,1.793c0,0.276 -0.224,0.5 -0.5,0.5l-1,-0c-0.276,0 -0.5,-0.224 -0.5,-0.5c-0,0 -0,-2.691 -0,-2.691l-1.724,-0.862c-0.169,-0.084 -0.276,-0.258 -0.276,-0.447c-0,-0 -0,-1.882 0,-1.882c0,0 -0.637,-1.274 -0.637,-1.274l-0.509,0.51c-0.038,0.038 -0.082,0.069 -0.13,0.093l-2,1c-0.07,0.035 -0.146,0.053 -0.224,0.053l-2,-0c-0.173,0 -0.334,-0.09 -0.425,-0.237c-0.091,-0.148 -0.1,-0.332 -0.022,-0.487c-0,0 0.776,-1.552 0.776,-1.552c0,-0 -1.446,-0.723 -1.446,-0.723c-0.451,0.002 -2.074,0.009 -2.889,-0.001c-0.672,-0.008 -1.934,0.549 -2.494,0.813c-0,0 -0,1.187 0,1.187l1.5,-0c0.133,0 0.26,0.053 0.354,0.146l2,2c0.093,0.094 0.146,0.221 0.146,0.354c-0,0 -0,0.849 0,0.849l1.916,2.874c0.012,0.017 0.022,0.035 0.031,0.053l1,2c0.11,0.22 0.044,0.486 -0.155,0.63c-0.199,0.143 -0.472,0.121 -0.646,-0.052c0,-0 -0.942,-0.943 -0.942,-0.943c-0,-0 -1.742,-0.871 -1.742,-0.871c-0,-0 -2.607,0.869 -2.607,0.869c-0,-0 -0.237,0.473 -0.237,0.473l0.658,-0.329c0.193,-0.096 0.425,-0.059 0.578,0.093c-0,0 0.942,0.943 0.942,0.943l1.928,0.964c0.048,0.024 0.092,0.055 0.13,0.093l1,1c0.143,0.143 0.185,0.359 0.108,0.545c-0.077,0.187 -0.26,0.309 -0.462,0.309c-0,-0 -3.793,-0 -3.793,-0l-0.032,0.032c0.117,0.043 0.215,0.129 0.272,0.244l1,2c0.035,0.07 0.053,0.146 0.053,0.224l-0,1c0,0.133 -0.053,0.26 -0.146,0.354c-0,-0 -0.854,0.853 -0.854,0.853l-0,1.793c-0,0.202 -0.122,0.385 -0.309,0.462c-0.186,0.077 -0.402,0.035 -0.545,-0.108c0,-0 -2.146,-2.147 -2.146,-2.147c-0,0 -0,1.484 0,1.484l1.724,0.862c0.096,0.048 0.175,0.127 0.223,0.223l1,2c0.035,0.07 0.053,0.146 0.053,0.224l-0,1c-0,0.276 -0.224,0.5 -0.5,0.5l-1,-0c-0.133,0 -0.26,-0.053 -0.354,-0.146l-2,-2c-0.038,-0.038 -0.069,-0.082 -0.093,-0.13l-1,-2c-0.011,-0.022 -0.02,-0.043 -0.027,-0.066l-1,-3c-0.032,-0.094 -0.034,-0.195 -0.008,-0.291l0.059,-0.427c-0.411,-0.018 -1.07,0.024 -1.376,0.047c-0.349,0.303 -1.352,1.195 -1.796,1.807c-0.154,0.211 -0.17,0.473 -0.151,0.708c0.03,0.387 0.17,0.721 0.198,0.783c0.195,0.444 -0.297,0.658 -0.423,0.705l-0.029,0.01c-0,-0 -0.211,0.016 -0.369,-0.162l-0.927,-0.927c-0,-0 -1.704,-0.852 -1.704,-0.852c-0,0 -1.627,0.814 -1.627,0.814l-0.926,1.851c-0.084,0.169 -0.258,0.276 -0.447,0.276c-0.189,0 -0.363,-0.107 -0.447,-0.276c-0,-0 -0.806,-1.613 -0.806,-1.613c-0,0 -2.392,0.798 -2.392,0.798l-0.908,1.815c-0.103,0.207 -0.336,0.316 -0.562,0.263c-0.226,-0.054 -0.385,-0.255 -0.385,-0.487c-0,0 -0,-0.5 0,-0.5c0,-0 -1.293,-0 -1.293,0l0.147,0.146c0.113,0.114 0.165,0.275 0.14,0.434c-0.026,0.159 -0.127,0.295 -0.27,0.367l-2,1c-0.07,0.035 -0.146,0.053 -0.224,0.053c-0,-0 -1.793,-0 -1.793,0c0,0 0.892,0.892 0.892,0.892l1.677,-0.839c0.155,-0.078 0.339,-0.069 0.487,0.022c0.147,0.091 0.237,0.252 0.237,0.425c-0,-0 -0,0.793 -0,0.793l0.854,0.853c0.113,0.114 0.165,0.275 0.14,0.434c-0.026,0.159 -0.127,0.295 -0.27,0.367l-2,1c-0.07,0.035 -0.146,0.053 -0.224,0.053c-0,-0 -1.5,-0 -1.5,0c-0,0 -0,1.691 0,1.691c0,-0 1.249,-0.624 1.249,-0.624l2.974,-1.983c0.017,-0.012 0.035,-0.022 0.053,-0.031c0,-0 1.815,-0.908 1.815,-0.908c0,0 0.909,-2.726 0.909,-2.726l-0,-0.919c0,-0.133 0.053,-0.26 0.146,-0.354l1,-1c0.196,-0.195 0.512,-0.195 0.708,0l1,1c0.093,0.094 0.146,0.221 0.146,0.354c-0,-0 -0,1.5 -0,1.5c-0,-0 0.419,-0 0.419,-0l2.923,-0.974c0.152,-0.051 0.32,-0.026 0.45,0.068c0.131,0.094 0.208,0.245 0.208,0.406c-0,-0 0,1.793 -0,1.793l0.854,0.853c0.038,0.038 0.069,0.082 0.093,0.13l1,2c0.035,0.07 0.053,0.146 0.053,0.224l-0,1c0,0.276 -0.224,0.5 -0.5,0.5l-1,-0c-0.133,0 -0.26,-0.053 -0.354,-0.146c0,-0 -1.916,-1.917 -1.916,-1.917l-2.214,-0.738l1.708,0.854c0.048,0.024 0.092,0.055 0.13,0.093l1,1c0.143,0.143 0.185,0.359 0.108,0.545c-0.077,0.187 -0.26,0.309 -0.462,0.309l-4,-0c-0.133,0 -0.26,-0.053 -0.354,-0.146l-0.178,-0.179c-0.025,0.067 -0.063,0.128 -0.114,0.179c-0,-0 -1.147,1.146 -1.147,1.146l2.793,-0c0.276,-0 0.5,0.224 0.5,0.5l-0,3c0,0.202 -0.122,0.385 -0.309,0.462c-0.186,0.077 -0.402,0.035 -0.545,-0.108c0,-0 -0.853,-0.854 -0.853,-0.854c-0,-0 -1.293,-0 -1.293,0c-0,0 -0,0.293 0,0.293c0,-0 0.707,0.707 0.707,0.707c0,-0 2.586,-0 2.586,0l0.853,-0.854c0.038,-0.038 0.082,-0.069 0.13,-0.093l2,-1c0.07,-0.035 0.146,-0.053 0.224,-0.053l3,-0c0.276,0 0.5,0.224 0.5,0.5l-0,1c-0,0.215 -0.138,0.406 -0.342,0.474c0,0 -2.888,0.963 -2.888,0.963c0,0 -1.77,1.77 -1.77,1.77c-0,0 -0,3.642 0,3.642l1.916,2.874c0.132,0.198 0.106,0.462 -0.062,0.631l-1,1c-0.094,0.093 -0.221,0.146 -0.354,0.146l-1,-0c-0.224,0 -0.421,-0.15 -0.482,-0.366c0,0 -0.659,-2.367 -0.911,-3.483c-0.057,-0.254 -0.09,-0.458 -0.102,-0.582l-0.009,-0.023c-0.244,-0.528 -1.341,-2.008 -1.745,-2.546c-0,-0 -2.532,-0 -2.532,-0.001c-0.263,0.283 -0.785,0.837 -0.925,0.923c-0.216,0.133 -0.395,0.081 -0.478,0.047c-0.137,-0.055 -0.248,-0.153 -0.295,-0.323l-0.028,-0.062c-0.027,0.155 -0.125,0.291 -0.269,0.363c-0,0 -1.928,0.964 -1.928,0.964l-1.942,1.943c-0.196,0.195 -0.512,0.195 -0.708,-0l-1,-1c-0.093,-0.094 -0.146,-0.221 -0.146,-0.354c-0,0 -0,-0.5 -0,-0.5c-0,-0 -1.191,-0 -1.191,0l-0.862,1.724c-0.013,0.026 -0.029,0.052 -0.047,0.076c-0,0 -2.4,3.2 -2.4,3.2c-0,-0 1.793,-0 1.793,0l0.853,-0.854c0.196,-0.195 0.512,-0.195 0.708,0c-0,0 1.146,1.147 1.146,1.147l-0,-0.793c0,-0.276 0.224,-0.5 0.5,-0.5c-0,-0 2.919,-0 2.919,-0l2.923,-0.974c0.152,-0.051 0.32,-0.026 0.45,0.068c0.131,0.094 0.208,0.245 0.208,0.406c-0,-0 -0,1.5 0,1.5l2.5,-0c0.054,-0 0.107,0.009 0.158,0.026l6,2c0.126,0.042 0.23,0.132 0.289,0.25l1,2c0.096,0.193 0.059,0.425 -0.093,0.578c-0.153,0.152 -0.385,0.189 -0.578,0.093c0,0 -1.894,-0.947 -1.894,-0.947c-0,-0 -3.073,-0 -3.073,-0l0.638,1.276c0.035,0.07 0.053,0.146 0.053,0.224l0,3c0,0.276 -0.224,0.5 -0.5,0.5l-1,-0c-0.215,0 -0.406,-0.138 -0.474,-0.342c-0,0 -0.977,-2.929 -0.976,-2.928c-0.185,-0.264 -0.84,-1.239 -1.029,-2.079c-0.037,-0.016 -0.119,-0.048 -0.182,-0.06c-0.174,-0.033 -0.384,-0.04 -0.612,-0.033c-0.905,0.027 -2.05,0.287 -2.518,0.405c-0.007,0.065 -0.018,0.188 -0.01,0.274c0.044,0.502 0.268,1.085 0.268,1.085c0.022,0.057 0.033,0.117 0.033,0.178l-0,2c0,0.173 -0.09,0.334 -0.237,0.425c-0.148,0.091 -0.332,0.1 -0.487,0.022l-2,-1c-0.169,-0.084 -0.276,-0.258 -0.276,-0.447c-0,-0 -0,-2.5 -0,-2.5c-0,-0 -0.806,-0 -0.806,-0l0.78,2.342c0.043,0.129 0.032,0.271 -0.032,0.391c-0.063,0.121 -0.174,0.21 -0.305,0.248c0,-0 -1.256,0.35 -2.299,-0.008c-0.537,-0.184 -0.696,-0.494 -0.733,-0.755c-0.012,-0.08 -0.01,-0.162 0.002,-0.243l-1.824,-0.051c-0.072,0.067 -0.165,0.139 -0.28,0.207c-0.386,0.229 -1.093,0.534 -1.503,0.705c0,-0 0,0.164 0,0.164l1.5,-0c0.133,0 0.26,0.053 0.354,0.146l2,2c0.195,0.196 0.195,0.512 -0,0.708l-1,1c-0.196,0.195 -0.512,0.195 -0.708,-0c0,-0 -0.942,-0.943 -0.942,-0.943c-0,-0 -1.605,-0.803 -1.605,-0.803c-0,0 -0.688,0.688 -0.688,0.688l-0.964,1.928c-0.024,0.048 -0.055,0.092 -0.093,0.13l-1,1c-0.094,0.093 -0.221,0.146 -0.354,0.146l-1,-0c-0.189,0 -0.363,-0.107 -0.447,-0.276c-0,-0 -0.553,-1.106 -0.553,-1.106c0,0 -0.5,1 -0.5,1l-0,1.882c0,0.184 -0.101,0.354 -0.264,0.441c-0.163,0.087 -0.36,0.077 -0.513,-0.025c-0,0 -2.223,-1.482 -2.223,-1.482l0,0.066c-0,0.215 -0.138,0.406 -0.342,0.474c0,0 -2.379,0.793 -2.379,0.793c0,0 1.542,2.313 1.542,2.313l2.837,0.946c0.074,0.024 0.141,0.066 0.196,0.12l1,1c0.143,0.143 0.185,0.359 0.108,0.545c-0.077,0.187 -0.26,0.309 -0.462,0.309c-0,-0 -4.404,-0 -4.404,-0l2.59,1.036c0.19,0.076 0.314,0.26 0.314,0.464l0,1c-0,0.189 -0.107,0.363 -0.276,0.447l-2,1c-0.07,0.035 -0.146,0.053 -0.224,0.053l-1,-0c-0.028,0 -0.055,-0.002 -0.082,-0.007c-0,0 -3.702,-0.617 -3.702,-0.617l1.061,0.708c0.028,0.018 0.053,0.039 0.077,0.062l1,1c0.128,0.129 0.177,0.318 0.126,0.492c-0.05,0.175 -0.191,0.309 -0.369,0.349c0,0 -0.021,0.005 -0.06,0.013l2.949,-0c0.202,-0 0.385,0.122 0.462,0.309c0.077,0.186 0.035,0.402 -0.108,0.545l-1,1c-0.038,0.038 -0.082,0.069 -0.13,0.093c-0,0 -1.106,0.553 -1.106,0.553l1.106,0.553c0.143,0.072 0.244,0.208 0.27,0.367c0.025,0.159 -0.027,0.32 -0.14,0.434l-1,1c-0.196,0.195 -0.512,0.195 -0.708,-0c0,-0 -0.799,-0.8 -0.799,-0.8c-0,-0 -3.347,0.836 -3.347,0.836c-0,0 -0,0.301 0,0.301l1.724,0.862c0.143,0.072 0.244,0.208 0.27,0.367c0.025,0.159 -0.027,0.32 -0.14,0.434l-1,1c-0.094,0.093 -0.221,0.146 -0.354,0.146l-2,-0c-0.276,0 -0.5,-0.224 -0.5,-0.5c-0,0 -0,-0.849 -0,-0.849c-0,0 -1.578,-2.366 -1.578,-2.366c0,-0 -0.279,0.279 -0.279,0.279l1.773,2.659c0.055,0.082 0.084,0.178 0.084,0.277l-0,1c-0,0.133 -0.053,0.26 -0.146,0.354c-0,-0 -1.647,1.646 -1.647,1.646c0,-0 0.589,0.589 0.589,0.589c0,0 1.605,0.803 1.605,0.803c0,-0 0.599,-0.599 0.599,-0.599l-0,-1.793c0,-0.184 0.101,-0.354 0.264,-0.441c0.163,-0.087 0.36,-0.077 0.513,0.025l3,2c0.028,0.018 0.053,0.039 0.077,0.062l1,1c0.127,0.128 0.176,0.314 0.128,0.487c-0.048,0.174 -0.186,0.308 -0.361,0.352l-0.071,0.018c0.112,0.011 0.22,0.06 0.304,0.143c-0,0 0.853,0.854 0.853,0.854c0,-0 0.484,-0 0.484,-0l0.862,-1.724c0.123,-0.247 0.424,-0.347 0.671,-0.223c-0,-0 1.677,0.839 1.677,0.839l0.745,-0.746c0.055,-0.054 0.122,-0.096 0.196,-0.12l3,-1c0.152,-0.051 0.32,-0.026 0.45,0.068c0.131,0.094 0.208,0.245 0.208,0.406l-0,1c-0,0.133 -0.053,0.26 -0.146,0.354l-3,3c-0.038,0.038 -0.082,0.069 -0.13,0.093l-2,1c-0.04,0.02 -0.082,0.035 -0.126,0.043l0.126,0.063c0.169,0.084 0.276,0.258 0.276,0.447l-0,1c-0,0.276 -0.224,0.5 -0.5,0.5c-0,-0 -2.5,-0 -2.5,0l-0,1.5c-0,0.276 -0.224,0.5 -0.5,0.5l-2,-0c-0.276,-0 -0.5,-0.224 -0.5,-0.5l-0,-3c0,-0.133 0.053,-0.26 0.146,-0.354c0,0 0.51,-0.509 0.51,-0.509c-0,-0 -1.12,-0.56 -1.12,-0.56l-2.759,1.839c-0.037,0.025 -0.077,0.044 -0.119,0.058c0,0 -2.966,0.989 -2.966,0.989l-1.968,0.984c-0.022,0.011 -0.043,0.02 -0.066,0.027c0,0 -2.453,0.818 -2.453,0.818c0,0 0.432,0.864 0.432,0.864l0.509,-0.51c0.094,-0.093 0.221,-0.146 0.354,-0.146l3,-0c0.202,-0 0.385,0.122 0.462,0.309c0.077,0.186 0.035,0.402 -0.108,0.545c-0,-0 -0.854,0.853 -0.854,0.853c-0,0 -0,2.484 0,2.484l1.724,0.862c0.118,0.059 0.208,0.163 0.25,0.289l1,3c0.06,0.18 0.013,0.378 -0.12,0.512l-1,1c-0.106,0.105 -0.254,0.158 -0.403,0.144c-0.149,-0.015 -0.284,-0.096 -0.367,-0.221c-0,0 -1.905,-2.857 -1.905,-2.857c0,0 -2.544,-0.848 -2.544,-0.848c0,0 -1.635,1.635 -1.635,1.635c-0,0 -0,1.293 -0,1.293l0.5,-0c0.276,-0 0.5,0.224 0.5,0.5l-0,2c-0,0.189 -0.107,0.363 -0.276,0.447c-0,0 -1.553,0.777 -1.553,0.777c-0,-0 0.74,1.48 0.74,1.48l1.943,1.942c0.093,0.094 0.146,0.221 0.146,0.354l-0,2c0,0.161 -0.077,0.312 -0.208,0.406c-0.13,0.094 -0.298,0.119 -0.45,0.068l-3,-1c-0.106,-0.035 -0.196,-0.104 -0.258,-0.197c-0,0 -1.433,-2.149 -1.433,-2.149c0,-0 -0.651,1.953 -0.651,1.953c-0,0 -0,2.11 -0,2.11l1.276,-0.638c0.247,-0.124 0.548,-0.024 0.671,0.223c0,0 1.926,3.851 1.926,3.851l1.851,0.926c0.169,0.084 0.276,0.258 0.276,0.447c-0,0.189 -0.107,0.363 -0.276,0.447c-0,0 -1.724,0.862 -1.724,0.862l-0,3.691c0,0.173 -0.09,0.334 -0.237,0.425c-0.148,0.091 -0.332,0.1 -0.487,0.022c0,0 -1.848,-0.924 -1.847,-0.924c-0.322,0.053 -1.026,0.128 -1.941,-0.018c0.009,0.086 0.024,0.199 0.048,0.283c0.073,0.259 0.186,0.524 0.274,0.712l1.69,-0c0.133,0 0.26,0.053 0.354,0.146l1,1c0.195,0.196 0.195,0.512 -0,0.708l-1,1c-0.038,0.038 -0.082,0.069 -0.13,0.093c-0,0 -1.724,0.862 -1.724,0.862c-0,0 -0,0.882 0,0.882c0,-0 1.204,-0.602 1.204,-0.602l5.942,-5.943c0.143,-0.143 0.359,-0.185 0.545,-0.108c0.187,0.077 0.309,0.26 0.309,0.462l-0,2c0,0.078 -0.018,0.154 -0.053,0.224l-2,4c-0.024,0.048 -0.055,0.092 -0.093,0.13l-3,3c-0.038,0.038 -0.082,0.069 -0.13,0.093l-2,1c-0.07,0.035 -0.146,0.053 -0.224,0.053c-0,-0 -1.793,-0 -1.793,0l-2.853,2.854c-0.196,0.195 -0.512,0.195 -0.708,-0c0,-0 -0.853,-0.854 -0.853,-0.854l-0.793,-0c-0.078,0 -0.154,-0.018 -0.224,-0.053c0,0 -1.677,-0.839 -1.677,-0.839l-3.745,3.746c-0.094,0.093 -0.221,0.146 -0.354,0.146c-0,-0 -0.793,-0 -0.793,-0l1.586,0l0.853,-0.854c0.038,-0.038 0.082,-0.069 0.13,-0.093l2,-1c0.07,-0.035 0.146,-0.053 0.224,-0.053l5,-0c0.276,-0 0.5,0.224 0.5,0.5l-0,2c0,0.202 -0.122,0.385 -0.309,0.462c-0.186,0.077 -0.402,0.035 -0.545,-0.108c0,-0 -0.781,-0.782 -0.781,-0.782c-0,0 -5.365,1.788 -5.365,1.788c-0,0 0,1.433 -0,1.433l0.854,0.853c0.113,0.114 0.165,0.275 0.14,0.434c-0.026,0.159 -0.127,0.295 -0.27,0.367c-0,0 -1.928,0.964 -1.928,0.964l-1.942,1.943c-0.024,0.023 -0.049,0.044 -0.077,0.062c0,0 -2.777,1.852 -2.777,1.852c-0,-0 -0,1.423 0,1.423c0,-0 1.401,0.701 1.401,0.701l0.745,-0.746c0.094,-0.093 0.221,-0.146 0.354,-0.146l1,-0c0.078,0 0.154,0.018 0.224,0.053l2,1c0.169,0.084 0.276,0.258 0.276,0.447c-0,0.189 -0.107,0.363 -0.276,0.447c-0,0 -1.928,0.964 -1.928,0.964c0,-0 -2.089,2.089 -2.089,2.089l1.793,-0c0.195,0 0.372,0.113 0.454,0.29c0.082,0.177 0.053,0.385 -0.073,0.534c-0,-0 -0.987,1.148 -2.371,1.176c-0.243,0.005 -0.389,0.053 -0.46,0.152c-0.079,0.111 -0.059,0.245 -0.056,0.271c0.031,0.226 -0.072,0.366 -0.192,0.452l0.052,-0.021c-0,-0 -0.965,0.965 -0.965,0.965l-1.973,2.958c-0.093,0.139 -0.249,0.223 -0.416,0.223l-1,-0c-0.161,0 -0.312,-0.077 -0.406,-0.208c-0.094,-0.13 -0.119,-0.298 -0.068,-0.45l1,-3c-0.051,0.152 -0.026,0.32 0.068,0.45c0.063,0.087 0.15,0.15 0.248,0.182Zm-88.96,136.026l-0.106,0.053c-0.096,0.048 -0.175,0.127 -0.223,0.223l-0.977,1.955c-0.132,0.168 -0.614,0.801 -0.879,1.37c-0.163,0.35 -0.232,0.689 -0.197,0.94c-0.035,0.053 -0.138,0.206 -0.23,0.304c-0.346,0.367 -0.871,0.764 -1.211,1.007c-0,-0 -0.559,-0.559 -0.559,-0.559c0,-0 -0,-1.793 -0,-1.793c-0,-0.276 -0.224,-0.5 -0.5,-0.5l-0.793,-0c0,-0 0.147,-0.146 0.147,-0.146c0.195,-0.196 0.195,-0.512 -0,-0.708l-1.147,-1.146c0,-0 0.793,-0 0.793,-0c0.133,0 0.26,-0.053 0.354,-0.146l1,-1c0.133,-0.134 0.18,-0.332 0.12,-0.512l-0.618,-1.855c0,0 2.848,1.424 2.848,1.424c-0,-0 0.942,0.943 0.942,0.943c0.094,0.093 0.221,0.146 0.354,0.146l0.882,-0Zm-0.562,-6.572c-0.002,0.096 -0.002,0.191 -0,0.281c0.007,0.338 0.049,0.63 0.12,0.82c0.053,0.14 0.125,0.246 0.203,0.322c0.007,0.05 0.044,0.306 0.035,0.477c-0.019,0.353 -0.091,0.726 -0.133,0.919c-0,0.001 -0.545,0.546 -0.545,0.546l-1.5,-1.5c-0,-0 -0,-0.793 -0,-0.793l-0.001,0.001c0.001,-0.054 -0.008,-0.112 -0.031,-0.176c-0.004,-0.013 -0.034,-0.082 0.007,-0.142c0.075,-0.109 0.25,-0.158 0.567,-0.185c0.499,-0.042 0.927,-0.266 1.278,-0.57Zm3.464,-40.856l-0.258,0.086c0.067,0.201 0.256,0.342 0.474,0.342c-0,-0 -0.132,-0.204 -0.216,-0.428Zm28.098,-30.572l-0.106,0.053c-0.048,0.024 -0.092,0.055 -0.13,0.093l-0.853,0.854c-0,-0 -0.984,-0 -0.984,-0c0,0 0.5,-1 0.5,-1l1.573,0Zm4.645,-22.705l2.374,-1.187c0,0 0.599,0.599 0.599,0.599c-0,0 -0,1.183 -0,1.183l-2.973,-0.595Zm9.509,-1.372l-2.343,-1.562c0,0 1.575,-2.361 1.575,-2.361c-0,-0 4.732,-0 4.732,-0c0.173,-0 0.334,-0.09 0.425,-0.237c0.091,-0.148 0.1,-0.332 0.022,-0.487l-0.638,-1.276c0,-0 2.04,-0 2.04,-0c-0,0 2.651,1.768 2.651,1.768c-0,-0 -0,0.372 -0,0.372c-0,-0 -2.658,0.886 -2.658,0.886c-0.023,0.007 -0.044,0.016 -0.066,0.027l-5.74,2.87Zm4.27,-9.923l-2.806,-0c0,-0 2.245,-1.684 2.245,-1.684l0.561,1.684Zm19.982,-10.212c0.162,-0.157 0.292,-0.386 0.079,-0.627c0.132,0.142 0.17,0.35 0.095,0.53c-0.026,0.062 -0.063,0.117 -0.109,0.162l-0.065,-0.065Zm33.497,-48.739l0.626,-1.253c-0,0 0.943,-0.942 0.943,-0.942c0.038,-0.038 0.069,-0.082 0.093,-0.13l1,-2c0.035,-0.07 0.053,-0.146 0.053,-0.224l-0,-1c-0,-0.133 -0.053,-0.26 -0.146,-0.354l-0.854,-0.853c0,-0 -0,-0.586 -0,-0.586l1.089,1.089l0.911,1.822c-0,0 -0,1.573 -0,1.573c-0,-0 -1.724,0.862 -1.724,0.862c-0.096,0.048 -0.175,0.127 -0.223,0.223l-0.862,1.724c-0,-0 -0.691,-0 -0.691,-0c-0.077,-0 -0.15,0.017 -0.215,0.049Zm21.917,-36.959l-1.82,0.91c-0,-0 -1.675,-0 -1.675,-0c0,-0 0.049,-0.049 0.049,-0.049l3.446,-0.861Zm-1.051,-12.975l-3.151,1.576c-0,-0 -0,-0.073 -0,-0.073c0,0 0.836,-1.673 0.836,-1.673c0.224,-0.036 0.585,-0.08 0.951,-0.062c0.004,-0 1.279,0.224 1.279,0.224l0.085,0.008Zm26.78,-32.874c0.02,0.047 0.034,0.086 0.044,0.116c0.011,0.029 0.016,0.05 0.018,0.059c-0.012,-0.068 -0.033,-0.126 -0.062,-0.175Zm-1.196,-0.182l-1.117,-0.559c0,-0 0.664,-0.332 0.664,-0.332c0.134,0.262 0.306,0.599 0.453,0.891Zm16.922,-21.087c-0.02,0.007 -0.04,0.012 -0.058,0.016c-0.058,0.013 -0.099,0.012 -0.099,0.012c0.054,-0 0.108,-0.009 0.158,-0.026l-0.001,-0.002Zm-32.447,-13.637c-0.516,0.408 -1.003,0.76 -1.003,0.76c-0.065,0.047 -0.118,0.109 -0.154,0.181l-0.908,1.815c0,0 -2.803,0.935 -2.803,0.935c-0.204,0.068 -0.342,0.259 -0.342,0.474l-0,1.732c-0,0 -2.233,1.489 -2.233,1.489c0,-0 -0.767,-2.302 -0.767,-2.302c-0,-0 -0,-2.712 -0,-2.712c-0,0 0.77,-0.77 0.77,-0.77c0,0 2.888,-0.963 2.888,-0.963c0.074,-0.024 0.141,-0.066 0.196,-0.12l1.146,-1.147c-0,0 -0,0.793 -0,0.793c-0,0.154 0.071,0.3 0.193,0.394c0.121,0.095 0.28,0.129 0.429,0.091c0,-0 1.367,-0.345 2.588,-0.65Zm10.29,-3.335c-0.179,-0 -0.344,-0.095 -0.433,-0.25c-0.089,-0.155 -0.089,-0.345 -0,-0.5c-0,0 0.249,-0.43 0.373,-0.866c0.031,-0.108 0.054,-0.216 0.058,-0.316c0.001,-0.019 -0.001,-0.046 -0.003,-0.067c-0.007,-0.001 -0.014,-0.001 -0.02,-0.002c-0.851,-0.042 -2.174,0.633 -2.597,0.863c0,-0 -0.878,1.756 -0.878,1.756l-0,1.882c-0,0.276 -0.224,0.5 -0.5,0.5c-0,-0 -2.191,-0 -2.191,-0l0.638,1.276c0.102,0.203 0.054,0.448 -0.116,0.599c0,-0 -1.275,1.12 -1.797,1.982c-0.055,0.091 -0.106,0.217 -0.135,0.295c0.08,0.026 0.181,0.033 0.293,0.038c0.382,0.021 0.861,-0.053 1.326,-0.176c0.468,-0.123 0.921,-0.298 1.242,-0.494c0.134,-0.081 0.248,-0.147 0.287,-0.232c0.347,-0.743 1.967,-3.935 2.006,-4.013l1,-1.999c0.084,-0.169 0.258,-0.276 0.447,-0.276c0.189,-0 0.363,0.107 0.447,0.276l0.69,1.38l2.474,-2.475c0,0 1.455,-2.181 1.455,-2.181c-0,-0 -0.798,-0 -0.798,0l-1.852,2.777c-0.093,0.139 -0.249,0.223 -0.416,0.223l-0.954,-0c-0.029,0.002 -0.046,-0 -0.046,-0Zm5.102,1.613l-0.321,0.961c0,0 -0.157,-0.157 -0.157,-0.157c0.121,-0.209 0.29,-0.496 0.478,-0.804Zm2.908,-3.054l-1.335,0.89c0.127,-0.202 0.246,-0.442 0.371,-0.707c0.267,-0.569 0.588,-1.277 1.277,-1.86c0.804,-0.681 1.04,-0.957 1.104,-1.06c0.109,-0.173 0.098,-0.291 0.093,-0.354c-0.011,-0.128 -0.059,-0.219 -0.119,-0.289c-0.133,-0.276 -0.514,-1.058 -0.958,-1.91c-0.216,-0.415 -0.429,-0.694 -0.623,-0.882l1.387,-1.387c0,-0 1.793,-0 1.793,-0c0.276,0 0.5,-0.224 0.5,-0.5l-0,-0.5c0,-0 1.5,-0 1.5,-0c0.276,0 0.5,-0.224 0.5,-0.5l-0,-2c0,-0.133 -0.053,-0.26 -0.146,-0.354l-1.647,-1.646c0,-0 0.5,-0.5 0.5,-0.5c0,-0 2.793,-0 2.793,-0c0.202,0 0.385,-0.122 0.462,-0.309c0.077,-0.186 0.035,-0.402 -0.108,-0.545l-2,-2c-0.094,-0.093 -0.221,-0.146 -0.354,-0.146l-1.191,-0c0,0 0.5,-1 0.5,-1c0,-0 1.691,-0 1.691,-0c0.202,0 0.385,-0.122 0.462,-0.309c0.077,-0.186 0.035,-0.402 -0.108,-0.545l-1.647,-1.646c0,-0 0.647,-0.646 0.647,-0.646c0.02,-0.021 0.039,-0.044 0.056,-0.068c-0,0 0.687,-0.983 1.065,-2.13c0.172,-0.523 0.2,-1.016 0.173,-1.413c-0,0 1.852,0.617 1.852,0.617c-0,0 -0,4.578 -0,4.578c0,0 -0.985,3.941 -0.985,3.941c-0.05,0.2 0.028,0.411 0.197,0.53c0.169,0.119 0.393,0.122 0.565,0.007l1.788,-1.192c-0,0 -0.502,1.506 -0.502,1.506c-0,-0 -2.917,2.916 -2.917,2.916c-0.093,0.094 -0.146,0.221 -0.146,0.354l-0,4c-0,0.133 0.053,0.26 0.146,0.354l1,1c0.114,0.113 0.275,0.165 0.434,0.14c0.159,-0.026 0.295,-0.127 0.367,-0.27l1,-2c0.035,-0.07 0.053,-0.146 0.053,-0.224l-0,-1.793c-0,0 1.5,-1.5 1.5,-1.5c0,0 0.646,0.647 0.646,0.647c0.094,0.093 0.221,0.146 0.354,0.146l1,-0c0.276,-0 0.5,-0.224 0.5,-0.5l-0,-2.691c0,0 1.724,-0.862 1.724,-0.862c0.169,-0.084 0.276,-0.258 0.276,-0.447l-0,-1c-0,-0.133 -0.053,-0.26 -0.146,-0.354l-1.746,-1.745c0,0 0.701,-1.401 0.701,-1.401c0,-0 1.54,-0 1.54,-0c-0,0 2.651,1.768 2.651,1.768c-0,-0 -0,2.732 -0,2.732c0,0.041 0.005,0.082 0.015,0.121l0.965,3.859l-0.84,2.52l-1.64,-0c-0.054,0 -0.107,0.009 -0.158,0.026l-3,1c-0.074,0.024 -0.141,0.066 -0.196,0.12l-1,1c-0.038,0.038 -0.069,0.082 -0.093,0.13l-2.053,4.106c-0,-0 -0,-0.882 -0,-0.882c-0,-0.133 -0.053,-0.26 -0.146,-0.354l-1,-1c-0.196,-0.195 -0.512,-0.195 -0.708,0l-3,3c-0.064,0.065 -0.109,0.145 -0.131,0.233l-0.786,3.143c0,0 -0.375,-0.376 -0.375,-0.376c-0.094,-0.093 -0.221,-0.146 -0.354,-0.146l-1.191,-0c0,0 0.623,-1.247 0.623,-1.247c0.137,-0.201 0.858,-1.293 1.055,-2.14c0.183,-0.789 0.922,-1.825 0.922,-1.825c0.14,-0.199 0.116,-0.47 -0.055,-0.642l-1,-1c-0.196,-0.195 -0.512,-0.195 -0.708,0l-1,1c-0.041,0.042 -0.075,0.091 -0.1,0.144c0,-0 -0.768,1.662 -1.909,2.866c-0.47,0.496 -0.624,0.835 -0.657,1.035c-0.024,0.146 -0.007,0.267 0.03,0.368Zm0.941,-0.026l0.049,-0.033c-0,-0 -0.02,0.004 -0.051,0.009l0.002,0.024Zm0.072,-2.536c0.037,-0.001 0.066,-0.005 0.08,-0.008c0.009,-0.002 0.016,-0.003 0.016,-0.003l-0.096,0.011Zm14.201,-0.168l-0.665,-1.329c0,0 0.665,-1.329 0.665,-1.329c-0,-0 1.276,0.638 1.276,0.638c-0,0 -0,1.382 -0,1.382l-1.276,0.638Zm-20.503,-3.861c-0.053,0.088 -0.117,0.186 -0.177,0.26c-0.25,0.308 -0.561,0.609 -0.736,0.772c-0.001,-0 -1.601,-0 -1.601,-0l-1.5,-1.5l0.435,-0.435c0.71,0.213 2.553,0.749 3.579,0.903Zm1.063,-10.919l0.525,-1.049c0,-0 1.691,-0 1.691,-0c0.146,0 0.285,-0.064 0.38,-0.175c0.095,-0.111 0.136,-0.257 0.114,-0.402c0,0 -0.204,-1.315 -1.136,-2.272c-0.277,-0.285 -0.454,-0.755 -0.584,-1.208c-0.159,-0.558 -0.233,-1.102 -0.262,-1.348c0,-0.001 0.488,-0.977 0.488,-0.977c0,0 0.537,1.074 0.537,1.074c-0,-0 1.963,5.889 1.963,5.889c-0,0 -0,1.919 -0,1.919c-0,0.078 0.018,0.154 0.053,0.224l0.907,1.814c0,0 -0.88,2.641 -0.88,2.641c-0,0 -2.731,1.821 -2.731,1.821l-2.349,-0l-0,-1.232c0,-0 2.777,-1.852 2.777,-1.852c0.028,-0.018 0.053,-0.039 0.077,-0.062l1,-1c0.093,-0.094 0.146,-0.221 0.146,-0.354l-0,-2c-0,-0.189 -0.107,-0.363 -0.276,-0.447l-2,-1c-0.139,-0.07 -0.301,-0.07 -0.44,-0.004Zm-0.284,0.569l-0,1.382c-0,-0 -0.5,-0 -0.5,-0c-0.189,0 -0.363,0.107 -0.447,0.276l-0.69,1.38c0,-0 -0.509,-0.51 -0.509,-0.51c-0.153,-0.152 -0.385,-0.189 -0.578,-0.093l-1.677,0.839c-0,-0 -0.745,-0.746 -0.745,-0.746c-0.143,-0.143 -0.359,-0.185 -0.545,-0.108c-0.187,0.077 -0.309,0.26 -0.309,0.462l-0,0.919c-0,-0 -0.86,2.581 -0.86,2.581c-0,-0 -1.946,-0 -1.946,-0c-0,0 0.759,-2.278 0.759,-2.278c0,-0 1.963,-2.945 1.963,-2.945c0.012,-0.017 0.022,-0.035 0.031,-0.053l0.553,-1.106c0,0 0.553,1.106 0.553,1.106c0.123,0.247 0.424,0.347 0.671,0.223l1.894,-0.947c0,-0 1.882,-0 1.882,-0c0.189,-0 0.363,-0.107 0.447,-0.276l0.053,-0.106Zm8.144,-10.469l0.793,-2.379c0,0 4.917,-4.916 4.917,-4.916c0.054,-0.055 0.096,-0.122 0.12,-0.196l0.946,-2.837l2.08,-1.387l-0,0.985c0,-0 -1.951,5.854 -1.951,5.854c-0.269,0.382 -1.72,2.458 -1.995,3.001c-0.074,0.147 -0.26,0.348 -0.475,0.568c-0.439,0.449 -1.005,0.94 -1.261,1.158c-0,-0 -2.818,-0 -2.818,-0c-0.137,-0 -0.264,0.056 -0.356,0.149Zm37.903,-20.427l0.953,2.859c-0,0 -0,1.712 -0,1.712c0,-0 -1.854,1.853 -1.854,1.853c-0.054,0.055 -0.096,0.122 -0.12,0.196l-1,3c-0.042,0.126 -0.033,0.263 0.027,0.382l1.638,3.276c-0,-0 -4.691,-0 -4.691,-0c-0,-0 -0,-1.5 -0,-1.5c0,-0.276 -0.224,-0.5 -0.5,-0.5l-2,-0c-0.133,-0 -0.26,0.053 -0.354,0.146l-4.902,4.903c0,-0 -2.114,0.528 -2.114,0.528c-0,0 1.724,-1.723 1.724,-1.723c0.054,-0.055 0.096,-0.122 0.12,-0.196l1,-3c0.088,-0.262 -0.054,-0.545 -0.316,-0.632l-1.617,-0.539c0,-0 2.774,-0.978 2.774,-0.978c0.208,-0.074 0.344,-0.275 0.333,-0.495c-0.01,-0.221 -0.164,-0.408 -0.378,-0.462l-1.544,-0.386c-0,0 0.721,-1.442 0.721,-1.442c0.113,-0.226 0.04,-0.5 -0.17,-0.64l-1.626,-1.084c0,-0 1.349,-0 1.349,-0c0.041,0 0.082,-0.005 0.121,-0.015l4,-1c0.088,-0.022 0.168,-0.067 0.233,-0.131l2,-2c0.113,-0.114 0.165,-0.275 0.14,-0.434c-0.026,-0.159 -0.127,-0.295 -0.27,-0.367l-1.553,-0.777c-0,0 0.582,-1.165 0.582,-1.165c0,0 2.589,0.863 2.589,0.863c0.152,0.051 0.32,0.026 0.45,-0.068c0.131,-0.094 0.208,-0.245 0.208,-0.406l-0,-1.64c0,0 2.296,-0.765 2.296,-0.765l1.751,2.627Zm6.629,-7.731c-0.05,-0.082 -0.122,-0.205 -0.172,-0.312c-0.132,-0.277 -0.262,-0.605 -0.361,-0.866c0,-0 2.389,-0.797 2.389,-0.797c0,0 4.356,0.871 4.356,0.871c-0,0 -0.817,3.269 -0.817,3.269c-0,-0 -3.763,1.881 -3.763,1.881c0,-0 -2.718,0.906 -2.718,0.906l-3.329,-2.497l1.239,-1.239c0,0 1.646,1.647 1.646,1.647c0.196,0.195 0.512,0.195 0.708,-0l2,-2c0.14,-0.141 0.184,-0.351 0.112,-0.536c-0.072,-0.184 -0.247,-0.309 -0.445,-0.318c0,0 -0.484,-0.019 -0.845,-0.009Zm7.53,-3.253l0.779,-3.117c0.034,-0.136 0.009,-0.281 -0.069,-0.398l-1.283,-1.924c0,-0 2.479,0.62 2.479,0.62c0,-0.001 0.848,2.543 0.848,2.543c0,-0 -0.815,1.629 -0.815,1.629l-1.939,0.647Zm0.747,-13.458c0.02,-0.012 0.042,-0.024 0.06,-0.033c0.111,-0.05 0.243,-0.088 0.38,-0.119c0.504,-0.115 1.069,-0.127 1.112,-0.128c0,-0 1.995,-0 1.995,-0c0.167,-0 0.323,-0.084 0.416,-0.223l1.608,-2.412c0,0 2.576,3.435 2.576,3.435c0.087,0.116 0.22,0.188 0.365,0.199c0.144,0.01 0.286,-0.043 0.389,-0.145l1.427,-1.428c0,-0 0.647,1.939 0.647,1.939c-0,-0 -2.782,2.781 -2.782,2.781c-0.064,0.065 -0.109,0.145 -0.131,0.233l-0.933,3.733c-0,0 -2.378,0.793 -2.378,0.793c0,-0 -1.788,-2.682 -1.788,-2.682c-0.048,-0.073 -0.115,-0.131 -0.192,-0.17l-3.169,-1.585c0.735,-0.439 1.779,-1.102 2.296,-1.612c0.247,-0.244 0.324,-0.478 0.326,-0.679c0.003,-0.225 -0.088,-0.443 -0.289,-0.64c-0.232,-0.228 -0.682,-0.443 -1.139,-0.683c-0.307,-0.161 -0.626,-0.329 -0.796,-0.574Zm25.818,-3.758l-0.717,-2.869c-0,0 2.581,-2.581 2.581,-2.581c0,0 2.365,0.788 2.365,0.788c-0,0 -0,4.28 -0,4.28c-0,-0 -2,0.666 -2,0.666c-0,0 -0,-1.306 -0,-1.306c-0,-0.202 -0.122,-0.385 -0.309,-0.462c-0.186,-0.077 -0.402,-0.035 -0.545,0.108l-1.375,1.376Zm36.586,-4.542c0.043,0.015 0.21,0.076 0.365,0.155c0.087,0.044 0.214,0.141 0.287,0.198c-0.447,0.598 -2.35,2.345 -2.766,2.725c-0.001,0.001 -1.369,0.457 -2.226,0.743l1.707,-0.854c0.143,-0.072 0.244,-0.208 0.27,-0.367c0.025,-0.159 -0.027,-0.32 -0.14,-0.434l-2,-2c-0.153,-0.152 -0.385,-0.189 -0.578,-0.093l-1.276,0.638c-0,-0 -0,-1.984 -0,-1.984c-0,0 0.599,-0.599 0.599,-0.599c-0,0 1.677,0.839 1.677,0.839c0.033,0.017 0.067,0.029 0.103,0.038l3.978,0.995Zm1.673,-4.651c-0.073,0.191 -0.119,0.357 -0.145,0.502l-3.264,-0.816c-0.039,-0.01 -0.08,-0.015 -0.121,-0.015l-2.793,-0l-1.032,-1.032c0,0 2.055,-0.771 2.941,-0.982c0.289,-0.068 0.726,0.078 1.153,0.241c0.761,0.289 1.48,0.706 1.48,0.706c0.009,0.005 0.018,0.01 0.027,0.014c0,0 0.778,0.387 1.334,0.866c0.129,0.111 0.245,0.225 0.33,0.342c0.028,0.039 0.052,0.077 0.07,0.115c0.009,0.018 0.017,0.049 0.02,0.059Zm10.148,-7.219c-0.562,0.348 -2.959,1.977 -2.959,1.977c-0.071,0.048 -0.128,0.113 -0.166,0.189l-1.908,3.815c0,0 -1.854,0.618 -1.854,0.618c-0,0 0.683,-2.051 0.683,-2.051c0.017,-0.051 0.026,-0.104 0.026,-0.158l-0,-3c-0,-0.276 -0.224,-0.5 -0.5,-0.5l-1,-0c-0.189,0 -0.363,0.107 -0.447,0.276l-0.73,1.459c-0.143,-0.132 -0.289,-0.294 -0.38,-0.467c-0.064,-0.121 -0.064,-0.373 -0.068,-0.663c-0.011,-0.686 0.069,-1.546 0.105,-1.893c0.329,-0.363 1.425,-1.481 2.619,-1.722c1.105,-0.223 1.426,0.665 1.426,0.665c0.062,0.193 0.235,0.329 0.438,0.344c0.202,0.015 0.393,-0.094 0.484,-0.275l0.908,-1.815c-0,-0 2.377,-0.793 2.377,-0.793c0.201,0.43 0.531,1.113 0.836,1.636c0.241,0.414 0.285,1.193 0.23,1.786c-0.02,0.221 -0.096,0.492 -0.12,0.572Zm-7.491,-9.504l-1.541,1.54c-0.015,0.015 -0.029,0.031 -0.042,0.048c0,0 -1.355,1.755 -2.047,3.074c-0.026,0.05 -0.044,0.092 -0.081,0.104c-0.048,0.016 -0.1,-0.006 -0.157,-0.025c-0.185,-0.063 -0.379,-0.191 -0.575,-0.332c-0.436,-0.315 -0.866,-0.698 -1.182,-0.872c-0.281,-0.156 -0.53,-0.176 -0.708,-0.121c-0.506,0.154 -1.758,0.85 -2.044,1.011c0.003,-0.002 -3.657,0.913 -3.657,0.913l-0.653,-0.653l-0,-1.793c-0,-0.167 -0.084,-0.323 -0.223,-0.416l-2.492,-1.662c-0,0 0.314,-0.314 0.314,-0.314c-0,0 3.677,1.839 3.677,1.839c0.155,0.078 0.339,0.069 0.487,-0.022c0.147,-0.091 0.237,-0.252 0.237,-0.425l-0,-2.64c0,0 2,-0.666 2,-0.666c-0,-0 -0,1.306 -0,1.306c-0,0.167 0.084,0.323 0.223,0.416l3,2c0.153,0.102 0.35,0.112 0.513,0.025c0.163,-0.087 0.264,-0.257 0.264,-0.441l-0,-5.195c-0,0 2.071,3.452 2.071,3.452c0.101,0.168 0.289,0.261 0.484,0.24c0.194,-0.021 0.358,-0.154 0.419,-0.339l0.935,-2.803c-0,-0 1.815,-0.908 1.815,-0.908c0.222,-0.111 0.329,-0.369 0.25,-0.605l-0.727,-2.183c-0,0 3.441,0.689 3.441,0.689c-0.597,0.882 -1.852,2.505 -3.393,3.196c-0.924,0.414 -1.234,0.887 -1.299,1.255c-0.074,0.422 0.132,0.82 0.462,1.123c0.073,0.067 0.15,0.129 0.229,0.184Zm10.576,-3.661c0.704,0.5 2.721,1.815 2.944,1.961c0.089,0.074 0.725,0.639 0.794,1.629c0.071,1.017 0.029,2.276 0.009,2.748c-0,0 -1.717,1.717 -1.717,1.717c-0,-0 -1.403,-0 -1.403,0l-0.89,-3.562l-0,-3.879c0.018,-0.072 0.057,-0.214 0.118,-0.362c0.031,-0.075 0.101,-0.185 0.145,-0.252Zm-0.522,0.993c-0.035,0.02 -0.074,0.035 -0.114,0.046c-0.041,0.01 -0.083,0.016 -0.127,0.016c-0,-0 0.119,0.002 0.241,-0.062Zm0.249,-0.337l-0.029,0.094c0.012,-0.03 0.022,-0.061 0.029,-0.094Zm21.927,-8.826c0.032,-0.048 0.058,-0.106 0.072,-0.176l0.001,0.001c-0.013,0.063 -0.038,0.122 -0.073,0.175l-0.004,0.007c-0.09,0.132 -0.241,0.218 -0.413,0.218c-0,-0 0.268,-0.009 0.413,-0.218l0.004,-0.007Zm12.443,-3.795l-0.027,0.02c0,-0 -2.833,-0 -2.833,-0c-0.054,-0 -0.107,0.009 -0.158,0.026l-2.342,0.78l-0,-2.127c0.09,-0.116 0.208,-0.283 0.288,-0.451c0.097,-0.205 0.136,-0.417 0.11,-0.589c-0.026,-0.169 -0.103,-0.317 -0.242,-0.436c-0.124,-0.106 -0.327,-0.204 -0.658,-0.203c-0.537,0.002 -1.823,0.002 -2.793,0.001c0.001,0 1.93,-1.929 1.93,-1.929c0,0 2.707,0.902 2.707,0.902c0.18,0.06 0.378,0.013 0.512,-0.12c0.133,-0.134 0.18,-0.332 0.12,-0.512l-0.842,-2.526c0,0 1.577,-0.525 1.577,-0.525c0,-0 -0.683,2.051 -0.683,2.051c-0.058,0.173 -0.017,0.364 0.107,0.498c0.124,0.134 0.311,0.189 0.488,0.145l2.746,-0.686c-0,-0 -1.283,1.924 -1.283,1.924c-0.086,0.128 -0.107,0.289 -0.058,0.435l1,3c0.045,0.138 0.149,0.248 0.283,0.304c0.017,0.007 0.034,0.013 0.051,0.018Zm-5.5,-1.134l0.015,-0.015l-0.012,0.013l-0.003,0.002c-0.009,0.011 -0.02,0.021 -0.031,0.03l0.031,-0.03Z"/></svg>