<?xml version="1.0" encoding="UTF-8" standalone="no"?><!DOCTYPE svg PUBLIC "-//W3C//DTD SVG 1.1//EN" "http://www.w3.org/Graphics/SVG/1.1/DTD/svg11.dtd"><svg width="157px" height="148px" version="1.1" xmlns="http://www.w3.org/2000/svg" xmlns:xlink="http://www.w3.org/1999/xlink" xml:space="preserve" xmlns:serif="http://www.serif.com/" style="fill-rule:evenodd;clip-rule:evenodd;stroke-linejoin:round;stroke-miterlimit:2;"><path id="poland" d="M131.205,145.543l-5.883,-2.941c-0,-0 -3.932,-4.914 -3.932,-4.914c-0.094,-0.119 -0.238,-0.188 -0.39,-0.188l-10,-0c-0.133,0 -0.26,0.053 -0.354,0.146l-3.766,3.767c-0,0 -4.694,-1.877 -4.694,-1.877c-0.021,-0.009 -0.043,-0.016 -0.065,-0.021l-4,-1c-0.17,-0.043 -0.35,0.007 -0.475,0.131l-4.853,4.854c-0,0 -6.293,-0 -6.293,-0c-0,0 -0,-7.5 -0,-7.5c0,-0.238 -0.168,-0.444 -0.402,-0.49l-5,-1c-0.189,-0.038 -0.382,0.036 -0.498,0.19l-2.75,3.666c0,0 -3.456,-1.728 -3.456,-1.728c-0,-0 -1.93,-4.824 -1.93,-4.824c-0.005,-0.013 -0.011,-0.025 -0.017,-0.038l-3,-6c-0.062,-0.125 -0.175,-0.218 -0.31,-0.257l-7,-2c-0.044,-0.013 -0.091,-0.019 -0.137,-0.019l-3.61,0c0,0 -0.905,-3.621 -0.905,-3.621c-0.014,-0.056 -0.037,-0.109 -0.069,-0.156l-2,-3c-0.117,-0.176 -0.332,-0.259 -0.537,-0.208l-3.821,0.955c0,0 -7.834,-3.917 -7.834,-3.917c-0.175,-0.088 -0.385,-0.065 -0.537,0.057c-0.152,0.122 -0.219,0.322 -0.172,0.511l0.91,3.641c0,-0 -4.348,2.608 -4.348,2.608c0.001,0 -6.447,-6.448 -6.447,-6.448c-0,0 2.799,-4.665 2.799,-4.665c0.071,-0.119 0.09,-0.263 0.051,-0.397c-0.039,-0.134 -0.132,-0.245 -0.256,-0.307l-4,-2c-0.07,-0.035 -0.146,-0.053 -0.224,-0.053l-3.882,0c0,0 -5.822,-2.911 -5.822,-2.911c0,0 -2.942,-2.943 -2.942,-2.943c-0.074,-0.073 -0.169,-0.122 -0.272,-0.139l-5.518,-0.92c0,0 0.931,-6.516 0.931,-6.516c0.012,-0.087 0.002,-0.175 -0.031,-0.257l-2,-5c-0.008,-0.021 -0.018,-0.042 -0.03,-0.062l-3.912,-6.845c0,-0 0.971,-5.825 0.971,-5.825c0.005,-0.027 0.007,-0.054 0.007,-0.082l0,-7c0,-0.064 -0.012,-0.127 -0.036,-0.186l-1.945,-4.862c0,0 0.971,-4.854 0.971,-4.854c0.029,-0.142 -0.006,-0.29 -0.095,-0.405l-6.779,-8.716c-0,0 1.8,-2.7 1.8,-2.7c0.055,-0.082 0.084,-0.178 0.084,-0.277l0,-14.36c0,0 3.379,0.845 3.379,0.845c0.268,0.067 0.539,-0.096 0.606,-0.364l1,-4c0.006,-0.023 0.01,-0.046 0.012,-0.07l0.334,-3.222c0.016,-0.161 -0.046,-0.319 -0.167,-0.426c-0.121,-0.107 -0.287,-0.149 -0.444,-0.112l-2.261,0.526c0,-0 -0.303,-0.616 -0.303,-0.616c0,-0 6.555,-3.746 6.555,-3.746l10.967,-3.988l9.914,-3.776c0,-0 1.908,-0 1.908,-0c0.155,-0 0.301,-0.072 0.396,-0.195l3.93,-5.1c0,-0 3.866,-1.933 3.866,-1.933c-0,0 2.966,-0.989 2.966,-0.989c0.021,-0.007 0.042,-0.015 0.062,-0.025l8.896,-4.354c-0,0 11.468,0 11.468,0c0,0 0.924,4.996 0.924,4.996c0.007,0.035 0.017,0.069 0.031,0.102l3,7.19c0.077,0.186 0.259,0.308 0.461,0.308l10,-0c0.058,-0 0.117,-0.011 0.171,-0.031l5.895,-2.152c0,0 10.889,0.99 10.889,0.99c0.015,0.001 0.03,0.002 0.045,0.002l16.979,-0c0.411,0.034 6.901,0.578 8.921,0.99c2.081,0.425 6.853,0.032 7.131,0.009c-0.01,0.001 3.969,0.001 3.969,0.001c0.17,0 0.328,-0.086 0.42,-0.229l0.841,-1.303c0,0 0.385,0.386 0.385,0.386c0.017,0.016 0.035,0.032 0.054,0.046l4,3c0.024,0.018 0.05,0.034 0.076,0.047l3.837,1.918c-0,0 2.904,6.777 2.904,6.777c-0,-0 1.99,11.94 1.99,11.94c0.007,0.042 0.019,0.082 0.036,0.121l3.957,8.903c0,0 0,10.687 0,10.687c0,-0 -3.814,3.814 -3.814,3.814c0,-0 -4.125,2.595 -4.125,2.595c-0.074,0.047 -0.135,0.113 -0.176,0.191l-2.827,5.374c-0.112,0.212 -0.057,0.474 0.13,0.623l5,4c0.088,0.071 0.198,0.11 0.312,0.11c0,0 0.095,0.013 0.238,-0.06c0.03,-0.016 0.19,-0.09 0.371,-0.027c0.185,0.065 0.358,0.257 0.515,0.639c0.234,0.572 0.387,1.487 0.376,2.929c0,0.004 -0.095,1.814 -0.095,1.814c0,0 -0.076,0.58 -0.076,0.58c-0,0 -0.143,1.052 -0.143,1.052c0,-0 -0.258,1.103 -0.258,1.103c-0,0 -0.408,1.697 -0.408,1.697c-0,0 -0.328,0.932 -0.328,0.932c0,0 -0.333,0.927 -0.333,0.927c0,-0 -0.316,0.711 -0.316,0.711c-0.043,0.098 -0.054,0.207 -0.031,0.311l2,9c0.026,0.117 0.093,0.22 0.188,0.292l3.931,2.949c0,-0 3.691,5.535 3.691,5.535c-0,-0 -3.622,2.716 -3.622,2.716c-0.205,0.154 -0.261,0.438 -0.129,0.657l2.799,4.665c0,0 -2.651,2.652 -2.651,2.652c0,-0 -4.905,1.962 -4.905,1.962c-0.081,0.032 -0.152,0.086 -0.206,0.154l-15,19c-0.07,0.088 -0.108,0.198 -0.108,0.31l0,4c0,0.078 0.018,0.154 0.053,0.224l2.947,5.894c0,0 0,3.143 0,3.143l-4.295,-1.718Z"/></svg>