<?xml version="1.0" encoding="UTF-8" standalone="no"?><!DOCTYPE svg PUBLIC "-//W3C//DTD SVG 1.1//EN" "http://www.w3.org/Graphics/SVG/1.1/DTD/svg11.dtd"><svg width="51px" height="105px" version="1.1" xmlns="http://www.w3.org/2000/svg" xmlns:xlink="http://www.w3.org/1999/xlink" xml:space="preserve" xmlns:serif="http://www.serif.com/" style="fill-rule:evenodd;clip-rule:evenodd;stroke-linejoin:round;stroke-miterlimit:2;"><path id="portugal" d="M28.778,102.547l-5.643,1.881c0,-0 -1.781,-1.782 -1.781,-1.782c-0.094,-0.093 -0.221,-0.146 -0.354,-0.146l-6,0c-0.024,0 -0.047,0.002 -0.071,0.005l-6.236,0.891c-0,-0 1.785,-6.248 1.785,-6.248c-0,-0 0.996,-2.99 0.996,-2.99c0.017,-0.051 0.026,-0.104 0.026,-0.158l-0,-3c-0,-0.078 -0.018,-0.154 -0.053,-0.224l-0.947,-1.894c-0,-0 -0,-6.833 -0,-6.833c0,0.001 0.91,-4.549 0.91,-4.549c-0,-0 2.59,0 2.59,0c0.202,0 0.385,-0.122 0.462,-0.309c0.077,-0.186 0.035,-0.402 -0.108,-0.545l-3,-3c-0.153,-0.152 -0.385,-0.189 -0.578,-0.093l-3.894,1.947c-0,0 -2.242,0 -2.242,0c0,-0 0.789,-3.156 0.789,-3.156c0,0 3.795,-1.897 3.795,-1.897c0.247,-0.123 0.347,-0.424 0.223,-0.671l-0.947,-1.894c-0,-0 -0,-1.614 -0,-1.614c0,-0 2.777,-1.852 2.777,-1.852c0.159,-0.106 0.244,-0.293 0.219,-0.482c-0.026,-0.19 -0.157,-0.348 -0.338,-0.408l-3,-1c-0.152,-0.051 -0.32,-0.026 -0.45,0.068c-0.131,0.094 -0.208,0.245 -0.208,0.406l-0,0.882c-0,-0 -0.911,1.822 -0.911,1.822c0,-0 -0.847,0.847 -0.847,0.847c-0.354,0.109 -1.12,0.449 -1.238,1.386c-0.078,0.613 -0.049,1.855 -0.025,2.563c0,0 -3.979,-0 -3.979,-0c-0,-0 -0,-1.382 -0,-1.382c0,0 0.947,-1.894 0.947,-1.894c0.011,-0.022 0.02,-0.043 0.027,-0.066l1,-3c0.017,-0.051 0.026,-0.104 0.026,-0.158l-0,-2.919c0,0 0.86,-2.581 0.86,-2.581c0,0 0.64,0 0.64,0c0.189,0 0.363,-0.107 0.447,-0.276l2,-4c0.011,-0.022 0.02,-0.043 0.027,-0.066l1,-3c0.004,-0.012 0.008,-0.024 0.011,-0.037l1.905,-7.621c0,-0 1.61,0 1.61,0c0.276,0 0.5,-0.224 0.5,-0.5l-0,-1c-0,-0.189 -0.107,-0.363 -0.276,-0.447l-1.38,-0.69c0,0 0.51,-0.509 0.51,-0.509c0.064,-0.065 0.109,-0.145 0.131,-0.233l1,-4c0.01,-0.039 0.015,-0.08 0.015,-0.121l-0,-2.793c-0,0 1.854,-1.853 1.854,-1.853c0.038,-0.038 0.069,-0.082 0.093,-0.13l1,-2c0.078,-0.155 0.069,-0.339 -0.022,-0.487c-0.091,-0.147 -0.252,-0.237 -0.425,-0.237l-0.691,0c0,-0 -0.701,-1.401 -0.701,-1.401c0,-0 0.746,-0.745 0.746,-0.745c0.093,-0.094 0.146,-0.221 0.146,-0.354l-0,-2c0,-0.054 -0.009,-0.107 -0.026,-0.158l-1.974,-5.923c-0,-0 -0,-3.919 -0,-3.919c-0,-0.054 -0.009,-0.107 -0.026,-0.158l-0.863,-2.589c0,0 1.613,-0.806 1.613,-0.806c0.169,-0.084 0.276,-0.258 0.276,-0.447l-0,-1c-0,-0.276 -0.224,-0.5 -0.5,-0.5l-1.5,-0c-0,-0 -0,-3.25 -0,-3.25c-0,0 3.719,-2.789 3.719,-2.789c0,-0 3.902,-0.976 3.902,-0.976c0.036,-0.009 0.07,-0.021 0.103,-0.038l1.552,-0.776c0,-0 0.665,1.329 0.665,1.329c-0,-0 -0.888,1.776 -0.888,1.776c-0.035,0.07 -0.053,0.146 -0.053,0.224l0,3c0,0.189 0.107,0.363 0.276,0.447l2,1c0.161,0.08 0.352,0.069 0.501,-0.031l2.874,-1.916c0,0 2.768,0 2.768,0c-0,0 2.923,0.974 2.923,0.974c0.051,0.017 0.104,0.026 0.158,0.026l3,0c0.167,0 0.323,-0.084 0.416,-0.223l1.788,-2.682c0,0 2.638,0.879 2.638,0.879c0.103,0.035 0.213,0.035 0.316,0l2.923,-0.974c0,0 2.61,0 2.61,0c-0,0 0.809,1.618 0.809,1.618c0,0 0,4.882 0,4.882c0,0.161 0.077,0.312 0.208,0.406c0.13,0.094 0.298,0.119 0.45,0.068l2.638,-0.879c-0,0 1.627,2.441 1.627,2.441c0,-0 -0.834,1.668 -0.834,1.668c0,-0 -2.859,2.859 -2.859,2.859c-0,-0 -2.888,0.963 -2.888,0.963c-0.126,0.042 -0.23,0.132 -0.289,0.25l-1.862,3.724c-0,0 -1.691,0 -1.691,0c-0.276,0 -0.5,0.224 -0.5,0.5l0,3c0,0.054 0.009,0.107 0.026,0.158l1.974,5.923c0,0 0,4.801 0,4.801c-0,-0 -0.855,1.709 -0.855,1.709c0,0 -2.803,0.935 -2.803,0.935c-0.204,0.068 -0.342,0.259 -0.342,0.474l0,2c0,0.133 0.053,0.26 0.146,0.354l1.854,1.853c0,0 0,2.712 0,2.712c-0,-0 -0.963,2.889 -0.963,2.889c-0,0 -0.846,1.692 -0.846,1.692c-0,-0 -7.691,0 -7.691,0c-0.173,0 -0.334,0.09 -0.425,0.237c-0.091,0.148 -0.1,0.332 -0.022,0.487l1,2c0.024,0.048 0.055,0.092 0.093,0.13l1.917,1.916c-0,0 0.963,2.888 0.963,2.888c0.007,0.023 0.016,0.044 0.027,0.066l2,4c0.084,0.169 0.258,0.276 0.447,0.276l1.732,0c0,0 1.667,2.5 1.667,2.5c0,-0 -1.72,2.58 -1.72,2.58c0,-0 -2.837,0.946 -2.837,0.946c-0.126,0.042 -0.23,0.132 -0.289,0.25l-1,2c-0.035,0.07 -0.053,0.146 -0.053,0.224l0,6c0,0.099 0.029,0.195 0.084,0.277l2,3c0.062,0.093 0.152,0.162 0.258,0.197l2.658,0.886c-0,0 -0,1.331 -0,1.331c0,-0 -3.724,1.862 -3.724,1.862c-0.085,0.042 -0.156,0.108 -0.205,0.19l-3,5c-0.025,0.042 -0.044,0.088 -0.056,0.136l-1,4c-0.02,0.079 -0.02,0.163 -0,0.242l0.985,3.941c-0,-0 -0,1.67 -0,1.67l-2.722,1.815Z"/></svg>