<?xml version="1.0" encoding="UTF-8" standalone="no"?><!DOCTYPE svg PUBLIC "-//W3C//DTD SVG 1.1//EN" "http://www.w3.org/Graphics/SVG/1.1/DTD/svg11.dtd"><svg width="150px" height="105px" version="1.1" xmlns="http://www.w3.org/2000/svg" xmlns:xlink="http://www.w3.org/1999/xlink" xml:space="preserve" xmlns:serif="http://www.serif.com/" style="fill-rule:evenodd;clip-rule:evenodd;stroke-linejoin:round;stroke-miterlimit:2;"><path id="romania" d="M127.278,66.415l0.248,0.743c0.032,0.097 0.093,0.181 0.174,0.242l4,3c0.087,0.065 0.192,0.1 0.3,0.1l3,0c0.133,0 0.26,-0.053 0.354,-0.146l1.942,-1.943c0,-0 3.879,-1.939 3.879,-1.939c-0,-0 3.672,-0.918 3.672,-0.918c-0,-0 2.799,2.8 2.799,2.8c0.094,0.093 0.221,0.146 0.354,0.146l1.066,-0c-0,0 -1.482,2.223 -1.482,2.223c-0.055,0.082 -0.084,0.178 -0.084,0.277l-0,6.64c-0,-0 -2.581,0.86 -2.581,0.86c-0,0 -1.919,0 -1.919,0c-0.078,0 -0.154,0.018 -0.224,0.053l-1.677,0.839c-0,-0 -1.491,-1.491 -1.491,-1.491c0,0 0.839,-1.677 0.839,-1.677c0.096,-0.193 0.059,-0.425 -0.093,-0.578l-1,-1c-0.134,-0.133 -0.332,-0.18 -0.512,-0.12l-3,1c-0.204,0.068 -0.342,0.259 -0.342,0.474l-0,3.793c0,-0 -1.854,1.853 -1.854,1.853c-0.054,0.055 -0.096,0.122 -0.12,0.196l-1,3c-0.035,0.103 -0.035,0.213 -0,0.316l0.902,2.707c-0,-0 -1.782,1.781 -1.782,1.781c-0.093,0.094 -0.146,0.221 -0.146,0.354l-0,5c0,0.078 0.018,0.154 0.053,0.224l0.888,1.776c-0,-0 -0.888,1.776 -0.888,1.776c-0.017,0.033 -0.029,0.067 -0.038,0.103l-0.905,3.621c-0,0 -3.492,0 -3.492,0c0,-0 -1.894,-0.947 -1.894,-0.947c-0.022,-0.011 -0.043,-0.02 -0.066,-0.027l-2.658,-0.886c0,-0 0,-1.64 0,-1.64c0,-0.133 -0.053,-0.26 -0.146,-0.354l-1,-1c-0.094,-0.093 -0.221,-0.146 -0.354,-0.146l-3.793,-0c0,0 -0.853,-0.854 -0.853,-0.854c-0.094,-0.093 -0.221,-0.146 -0.354,-0.146l-1.882,0c0,-0 -3.894,-1.947 -3.894,-1.947c-0.022,-0.011 -0.043,-0.02 -0.066,-0.027l-3,-1c-0.051,-0.017 -0.104,-0.026 -0.158,-0.026l-3,0c-0.133,0 -0.26,0.053 -0.354,0.146l-1.853,1.854c-0,0 -2.793,0 -2.793,0c-0.054,0 -0.107,0.009 -0.158,0.026l-6,2c-0.042,0.014 -0.082,0.033 -0.119,0.058l-3,2c-0.055,0.037 -0.102,0.084 -0.139,0.139l-1.945,2.916c0,0 -2.79,1.861 -2.79,1.861c-0,0 -2.787,0 -2.787,0c-0,0 -7.941,-1.985 -7.941,-1.985c-0.039,-0.01 -0.08,-0.015 -0.121,-0.015l-2.882,0c0,-0 -1.894,-0.947 -1.894,-0.947c-0.07,-0.035 -0.146,-0.053 -0.224,-0.053l-3,0c-0.078,0 -0.154,0.018 -0.224,0.053l-1.894,0.947c-0,0 -2.731,0 -2.731,0c0,-0 -2.874,-1.916 -2.874,-1.916c-0.082,-0.055 -0.178,-0.084 -0.277,-0.084l-4.793,0c0,0 -0.853,-0.854 -0.853,-0.854c-0.094,-0.093 -0.221,-0.146 -0.354,-0.146l-5,0c-0.054,0 -0.107,0.009 -0.158,0.026l-2.923,0.974c-0,-0 -1.419,0 -1.419,0c0,-0 0,-2.293 0,-2.293c-0,0 1.854,-1.853 1.854,-1.853c0.093,-0.094 0.146,-0.221 0.146,-0.354l0,-1c0,-0.276 -0.224,-0.5 -0.5,-0.5l-1.793,0c0,0 -1.853,-1.854 -1.853,-1.854c-0.148,-0.147 -0.372,-0.187 -0.561,-0.101l-0.376,0.171l-0.97,-1.94c-0.048,-0.096 -0.127,-0.175 -0.223,-0.223l-1.815,-0.908c-0,0 -0.837,-2.51 -0.837,-2.51c0,0 0.635,-0.635 0.635,-0.635c0,-0 3.793,0 3.793,0c0.276,0 0.5,-0.224 0.5,-0.5l0,-1c0,-0.133 -0.053,-0.26 -0.146,-0.354l-2,-2c-0.038,-0.038 -0.082,-0.069 -0.13,-0.093l-2,-1c-0.07,-0.035 -0.146,-0.053 -0.224,-0.053l-1,0c-0.078,0 -0.154,0.018 -0.224,0.053l-2,1c-0.096,0.048 -0.175,0.127 -0.223,0.223l-0.964,1.928c0,-0 -1.589,1.589 -1.589,1.589c-0,-0 -0.611,-0.612 -0.611,-0.612c-0,0 -1.973,-2.958 -1.973,-2.958c-0.048,-0.073 -0.115,-0.131 -0.192,-0.17l-2,-1c-0.141,-0.071 -0.307,-0.071 -0.448,-0l-1.605,0.802c0,0 -1.755,-2.632 -1.755,-2.632c-0.093,-0.139 -0.249,-0.223 -0.416,-0.223l-1.793,0c0,0 -0.363,-0.363 -0.363,-0.363c0,-0 1.38,-0.69 1.38,-0.69c0.169,-0.084 0.276,-0.258 0.276,-0.447l0,-1c0,-0.133 -0.053,-0.26 -0.146,-0.354l-1,-1c-0.094,-0.093 -0.221,-0.146 -0.354,-0.146l-0.191,-0c0,0 1.638,-3.276 1.638,-3.276c0.065,-0.13 0.07,-0.281 0.015,-0.415c-0.056,-0.134 -0.166,-0.238 -0.304,-0.283l-2.966,-0.989c-0,-0 -3.896,-1.948 -3.896,-1.948c0,0 -3.859,-3.859 -3.859,-3.859l-0.937,-2.811l0,-2.919c0,-0.189 -0.107,-0.363 -0.276,-0.447l-1.815,-0.908c-0,0 -0.935,-2.803 -0.935,-2.803c-0.042,-0.126 -0.132,-0.23 -0.25,-0.289l-1.928,-0.964c0,0 -1.885,-1.885 -1.885,-1.885c-0,-0 -0.602,-1.204 -0.602,-1.204c0,0 6.191,0 6.191,0c0.167,0 0.323,-0.084 0.416,-0.223l1.852,-2.777c-0,0 2.525,0 2.525,0c-0,-0 0.853,0.854 0.853,0.854c0.114,0.113 0.275,0.165 0.434,0.14c0.159,-0.026 0.295,-0.127 0.367,-0.27l1.862,-3.724c0,0 0.691,0 0.691,0c0.276,0 0.5,-0.224 0.5,-0.5l0,-1.882c0,0 0.947,-1.894 0.947,-1.894c0.035,-0.07 0.053,-0.146 0.053,-0.224l0,-0.691c0,0 1.724,-0.862 1.724,-0.862c0.096,-0.048 0.175,-0.127 0.223,-0.223l1,-2c0.035,-0.07 0.053,-0.146 0.053,-0.224l0,-1.793c-0,0 1.854,-1.853 1.854,-1.853c0.093,-0.094 0.146,-0.221 0.146,-0.354l0,-2.793c0,0 2.854,-2.853 2.854,-2.853c0.054,-0.055 0.096,-0.122 0.12,-0.196l0.963,-2.888c0,0 1.917,-1.916 1.917,-1.916c0.093,-0.094 0.146,-0.221 0.146,-0.354l0,-2.691c0,0 1.724,-0.862 1.724,-0.862c0.077,-0.039 0.144,-0.097 0.192,-0.17l1.926,-2.889c0,-0 1.882,-0.941 1.882,-0.941c0.048,-0.024 0.092,-0.055 0.13,-0.093l0.781,-0.782c0,0 1.957,0.652 1.957,0.652c0.116,0.039 0.242,0.034 0.355,-0.014l1.75,-0.75c0.058,-0.025 0.112,-0.061 0.157,-0.106l1,-1c0.021,-0.022 0.04,-0.045 0.057,-0.069l2.045,-2.954c-0,0 1.768,-0.884 1.768,-0.884c0.048,-0.024 0.092,-0.055 0.13,-0.093l1.71,-1.711l2.659,1.773c0.082,0.055 0.178,0.084 0.277,0.084l6.691,0c-0,0 0.862,1.724 0.862,1.724c0.111,0.222 0.369,0.329 0.605,0.25l2.804,-0.934c-0,-0 1.814,0.907 1.814,0.907c0.1,0.05 0.213,0.065 0.322,0.043l4.832,-0.966c-0,-0 1.774,0.887 1.774,0.887c-0,-0 4.942,4.943 4.942,4.943c0.153,0.152 0.385,0.189 0.578,0.093l2,-1c0.048,-0.024 0.092,-0.055 0.13,-0.093l2.892,-2.893c0,-0 14.852,-2.971 14.852,-2.971c0.13,-0.026 0.244,-0.102 0.318,-0.213l2,-3c0.055,-0.082 0.084,-0.178 0.084,-0.277l0,-1.61c-0,0 3.621,-0.905 3.621,-0.905c0.036,-0.009 0.07,-0.021 0.103,-0.038l1.677,-0.839c0,0 4.71,4.711 4.71,4.711c0,-0 3.918,5.876 3.918,5.876c0,0 0.981,4.903 0.981,4.903c0.019,0.097 0.067,0.186 0.136,0.256l3.928,3.927c-0,-0 1.962,4.905 1.962,4.905c0.025,0.063 0.063,0.12 0.11,0.168l4.943,4.942c0,0 2.93,5.86 2.93,5.86c0,0 0.969,5.815 0.969,5.815c0,0 -1.969,6.892 -1.969,6.892c-0.003,0.013 -0.007,0.026 -0.009,0.039l-1,5c-0.019,0.095 -0.01,0.194 0.026,0.284l1.932,4.83c-0,-0 -0.828,2.484 -0.828,2.484c-0,0 -0.64,0 -0.64,0c-0.173,0 -0.334,0.09 -0.425,0.237c-0.091,0.148 -0.1,0.332 -0.022,0.487l1,2c0.024,0.048 0.055,0.092 0.093,0.13l2,2c0.169,0.168 0.434,0.194 0.632,0.061Z"/></svg>