<?xml version="1.0" encoding="UTF-8" standalone="no"?><!DOCTYPE svg PUBLIC "-//W3C//DTD SVG 1.1//EN" "http://www.w3.org/Graphics/SVG/1.1/DTD/svg11.dtd"><svg width="1177px" height="978px" version="1.1" xmlns="http://www.w3.org/2000/svg" xmlns:xlink="http://www.w3.org/1999/xlink" xml:space="preserve" xmlns:serif="http://www.serif.com/" style="fill-rule:evenodd;clip-rule:evenodd;stroke-linejoin:round;stroke-miterlimit:2;"><path id="russia" d="M1078.5,797.026c0.004,-0.075 -0.009,-0.152 -0.039,-0.223l-6,-14c-0.061,-0.142 -0.185,-0.248 -0.335,-0.287c-0.15,-0.039 -0.31,-0.006 -0.432,0.089l-8.832,6.87c-0,0 -13.448,-1.921 -13.448,-1.921c0,-0 -1.925,-8.662 -1.925,-8.662c-0.034,-0.153 -0.137,-0.281 -0.278,-0.346l-12.823,-5.918c-0,-0 -4.925,-11.82 -4.925,-11.82c-0.031,-0.073 -0.077,-0.137 -0.137,-0.188l-7,-6c-0.1,-0.086 -0.231,-0.129 -0.363,-0.119l-13,1c-0.086,0.007 -0.168,0.035 -0.239,0.083l-5.874,3.916c-0,0 -12.459,0 -12.459,0c0,0 -0.905,-3.621 -0.905,-3.621c-0.056,-0.223 -0.256,-0.379 -0.485,-0.379l-4.576,0c-0,-0 -0.931,-5.582 -0.931,-5.582c-0.028,-0.168 -0.139,-0.31 -0.296,-0.378l-7,-3c-0.129,-0.055 -0.274,-0.053 -0.402,0.004c-0.127,0.057 -0.225,0.165 -0.269,0.298l-1.935,5.803c0,0 -9.37,4.686 -9.37,4.686c-0,-0 -31.775,-62.557 -31.775,-62.557c-0.03,-0.058 -0.07,-0.11 -0.119,-0.152l-21.666,-18.712c-0,0 3.755,-5.633 3.755,-5.633c0.086,-0.128 0.107,-0.289 0.058,-0.435l-2,-6c-0.049,-0.147 -0.163,-0.263 -0.31,-0.314c-0.146,-0.051 -0.308,-0.031 -0.438,0.054l-25.915,16.944c0,0 -10.9,1.982 -10.9,1.982c-0.212,0.039 -0.376,0.208 -0.406,0.421l-0.841,5.887c0,-0 -4.28,-5.136 -4.28,-5.136c-0.161,-0.193 -0.44,-0.237 -0.652,-0.102l-10.587,6.737c-0,0 -1.631,-2.445 -1.631,-2.445c-0,-0.001 0.984,-10.825 0.984,-10.825c0.021,-0.231 -0.12,-0.446 -0.34,-0.519l-9,-3c-0.156,-0.052 -0.327,-0.024 -0.458,0.074l-3.556,2.667c-0,0 -5.715,-9.524 -5.715,-9.524c-0.073,-0.122 -0.194,-0.206 -0.333,-0.234c-0.139,-0.027 -0.283,0.006 -0.396,0.091l-7.769,5.827c0,-0 -6.48,-2.778 -6.48,-2.778c-0,0 -2.957,-18.727 -2.957,-18.727c-0.009,-0.058 -0.028,-0.114 -0.057,-0.165l-5,-9c-0.096,-0.173 -0.285,-0.273 -0.482,-0.255l-10.629,0.966c-0,0 -1.862,-4.654 -1.862,-4.654c-0.068,-0.17 -0.224,-0.289 -0.406,-0.311l-17,-2c-0.209,-0.024 -0.411,0.085 -0.505,0.273l-2.883,5.766c-0,0 -6.741,0.963 -6.741,0.963c-0.246,0.035 -0.429,0.246 -0.429,0.495l0,6.565c-0,-0 -42.569,5.94 -42.569,5.94c-0.138,0.019 -0.261,0.095 -0.341,0.208l-6.861,9.802c0,0 -16.758,0.986 -16.758,0.986c-0.04,0.002 -0.079,0.009 -0.117,0.021l-22.899,6.969c-0,0 -16.897,-1.988 -16.897,-1.988c-0.037,-0.004 -0.075,-0.004 -0.113,0l-9,1c-0.253,0.028 -0.445,0.242 -0.445,0.497l0,11c0,0.133 0.053,0.26 0.146,0.354l3.767,3.766c0,0 -1.877,4.694 -1.877,4.694c-0.091,0.228 -0.004,0.488 0.207,0.615l13.604,8.162c-0,0 -16.375,0.91 -16.375,0.91c-0.194,0.011 -0.364,0.133 -0.436,0.313l-2,5c-0.051,0.127 -0.048,0.269 0.009,0.393l4.814,10.59c-0,0 -16.613,9.772 -16.613,9.772c-0.157,0.093 -0.252,0.265 -0.246,0.448c0.007,0.183 0.112,0.348 0.276,0.43l5.553,2.777c0,-0 -1.776,3.552 -1.776,3.552c-0.067,0.134 -0.071,0.291 -0.009,0.428c0.061,0.137 0.18,0.239 0.324,0.278l10.953,2.987c-0,0 7.62,3.811 7.62,3.811c-0,-0.001 -1.923,10.575 -1.923,10.575c0,-0 -2.848,6.645 -2.848,6.645c0,0 -12.537,0 -12.537,0c-0,-0 -6.885,-3.934 -6.885,-3.934c-0.119,-0.068 -0.261,-0.084 -0.393,-0.045c-0.131,0.04 -0.241,0.132 -0.302,0.255l-2.832,5.663c0,0 -15.443,-2.896 -15.443,-2.896c0,0 -6.883,-8.85 -6.883,-8.85c-0.083,-0.107 -0.206,-0.175 -0.34,-0.19l-9,-1c-0.249,-0.028 -0.479,0.133 -0.54,0.376l-1.814,7.255c0,0 -8.394,-6.529 -8.394,-6.529c-0.088,-0.068 -0.196,-0.105 -0.307,-0.105l-8,0c-0.133,-0 -0.26,0.053 -0.354,0.146l-3.98,3.981c0,-0 -9.841,7.873 -9.841,7.873c-0,0 -5.531,0 -5.531,0c0,-0 -4.857,-8.743 -4.857,-8.743c-0.107,-0.193 -0.329,-0.293 -0.545,-0.245l-8.776,1.95c0,0 -7.816,-5.862 -7.816,-5.862c-0.007,-0.006 -0.015,-0.011 -0.023,-0.016l-9,-6c-0.072,-0.048 -0.155,-0.077 -0.241,-0.083l-13.73,-0.98c-0,-0 -4.869,-8.764 -4.869,-8.764c-0.076,-0.137 -0.212,-0.23 -0.368,-0.252c-0.155,-0.022 -0.312,0.031 -0.423,0.141l-7.853,7.854c-0,0 -5.383,-0 -5.383,-0c-0,0 -0.92,-4.598 -0.92,-4.598c-0.046,-0.234 -0.252,-0.402 -0.49,-0.402l-14,-0c-0.184,-0 -0.353,0.101 -0.44,0.263l-6.886,12.788c-0,0 -10.763,1.957 -10.763,1.957c-0.208,0.038 -0.37,0.202 -0.404,0.41l-0.958,5.749c-0,-0 -11.773,5.886 -11.773,5.886c-0.232,0.116 -0.337,0.391 -0.24,0.633l5.797,14.492c-0,0 -9.177,2.753 -9.177,2.753c-0,0 -11.789,-12.77 -11.789,-12.77c-0.166,-0.181 -0.44,-0.213 -0.644,-0.077l-6,4c-0.043,0.029 -0.081,0.063 -0.113,0.104l-4,5c-0.052,0.064 -0.086,0.139 -0.101,0.22l-3,16c-0.024,0.128 0.003,0.261 0.075,0.369l3.848,5.773c0,-0 -6.89,15.75 -6.89,15.75c-0.089,0.203 -0.033,0.442 0.138,0.584l5.891,4.909c-0,0 3.955,11.865 3.955,11.865c0.068,0.204 0.259,0.342 0.474,0.342l13.738,-0c0,-0 8.824,12.746 8.824,12.746c0,-0 3.81,8.572 3.81,8.572c-0,-0 -5.649,3.766 -5.649,3.766c-0.149,0.099 -0.233,0.269 -0.222,0.447c0.011,0.178 0.116,0.337 0.275,0.416l15.471,7.735c-0,0 -1.643,2.509 -1.643,2.509c0,0 -11.846,12.834 -11.846,12.834c-0,0 -16.816,1.978 -16.816,1.978c-0.189,0.023 -0.349,0.15 -0.413,0.329l-4.996,13.988c0,-0 -4.995,11.988 -4.995,11.988c-0.075,0.18 -0.038,0.388 0.095,0.531l11.878,12.868c-0,0 0.99,17.821 0.99,17.821c0.004,0.072 0.024,0.143 0.058,0.207l7.997,14.994l3.973,7.947l-0.149,-0.174c-0.113,-0.132 -0.285,-0.196 -0.456,-0.169c-0.17,0.026 -0.316,0.138 -0.384,0.297l-1.928,4.505c0,-0 -3.836,1.918 -3.836,1.918c-0.069,0.035 -0.129,0.085 -0.176,0.147l-2.949,3.931c0,0 -2.802,1.869 -2.802,1.869c-0,-0 -3.753,-0 -3.753,-0c0,0 -4.596,-1.839 -4.596,-1.839c0,0 0,-2.661 0,-2.661c0,-0.133 -0.053,-0.26 -0.146,-0.354l-6,-6c-0.011,-0.01 -0.022,-0.02 -0.033,-0.029l-2,-1.674c-0.09,-0.075 -0.204,-0.116 -0.321,-0.116l-1.671,-0c0,-0 -0.87,-2.024 -0.87,-2.024c-0.054,-0.127 -0.158,-0.225 -0.287,-0.273c-0.13,-0.047 -0.273,-0.039 -0.396,0.023l-1.776,0.888c-0,-0 -7.678,-3.839 -7.678,-3.839c-0,-0 -3.777,-4.721 -3.777,-4.721c0,0 0.94,-3.76 0.94,-3.76c0.051,-0.205 -0.032,-0.42 -0.208,-0.537l-3,-2c-0.082,-0.055 -0.178,-0.084 -0.277,-0.084l-2.849,-0c0,-0 -2.874,-1.916 -2.874,-1.916c-0.047,-0.032 -0.1,-0.055 -0.156,-0.069l-4,-1c-0.17,-0.043 -0.35,0.007 -0.475,0.131l-1.427,1.428c-0,0 -0.745,-2.232 -0.745,-2.232c-0.068,-0.204 -0.259,-0.342 -0.474,-0.342l-4,-0c-0.091,-0 -0.18,0.025 -0.257,0.071l-4.953,2.972c-0,0 -2.79,0.93 -2.79,0.93c0,-0 -2.5,-0.833 -2.5,-0.833c0,-0 0,-1.64 0,-1.64c0,-0.157 -0.074,-0.306 -0.2,-0.4l-4,-3c-0.06,-0.045 -0.129,-0.076 -0.202,-0.09l-4.852,-0.971c0,0 -2.892,-2.893 -2.892,-2.893c-0.038,-0.038 -0.082,-0.069 -0.13,-0.093l-4,-2c-0.07,-0.035 -0.146,-0.053 -0.224,-0.053l-2.849,-0c0,-0 -2.874,-1.916 -2.874,-1.916c-0.117,-0.078 -0.262,-0.103 -0.398,-0.069l-3.941,0.985c0,-0 -8.67,-0 -8.67,-0c-0,-0 -1.852,-2.777 -1.852,-2.777c-0.062,-0.093 -0.152,-0.162 -0.258,-0.197l-3,-1c-0.051,-0.017 -0.104,-0.026 -0.158,-0.026l-3.833,-0c-0,0 -3.867,-2.9 -3.867,-2.9c-0.087,-0.065 -0.192,-0.1 -0.3,-0.1l-3.849,-0c0,-0 -2.874,-1.916 -2.874,-1.916c-0.128,-0.086 -0.289,-0.107 -0.435,-0.058l-3,1c-0.162,0.054 -0.286,0.187 -0.327,0.353l-0.775,3.098c0,-0 -10.371,-11.315 -10.371,-11.315c-0.019,-0.02 -0.04,-0.039 -0.062,-0.057l-9,-7c-0.034,-0.026 -0.071,-0.048 -0.11,-0.065l-7,-3c-0.062,-0.026 -0.129,-0.04 -0.197,-0.04l-4.5,-0c0,-0 0,-3.5 0,-3.5c0,-0.249 -0.183,-0.46 -0.429,-0.495l-6.817,-0.974c0,0 -6.79,-7.76 -6.79,-7.76c0,0 -0.94,-4.701 -0.94,-4.701c-0,0 1.867,-3.733 1.867,-3.733c-0,-0 9.896,-6.927 9.896,-6.927c0.068,-0.048 0.123,-0.112 0.16,-0.186l2.951,-5.902c0,-0 4.914,-3.932 4.914,-3.932c0.184,-0.147 0.241,-0.403 0.135,-0.614l-3,-6c-0.024,-0.048 -0.055,-0.092 -0.093,-0.13l-3.538,-3.537c0,0 6.407,-3.661 6.407,-3.661c0,0 6.968,-2.986 6.968,-2.986c0,-0 4.995,-1.998 4.995,-1.998c0.08,-0.032 0.15,-0.084 0.204,-0.152l4,-5c0.114,-0.142 0.142,-0.335 0.072,-0.503c-0.07,-0.169 -0.226,-0.286 -0.407,-0.306l-9,-1c-0.132,-0.015 -0.264,0.024 -0.367,0.107l-4.818,3.854l-4.057,-0.811l0.411,-0.206c0.096,-0.048 0.175,-0.127 0.223,-0.223l0.964,-1.928c-0,0 0.943,-0.942 0.943,-0.942c0.113,-0.114 0.165,-0.275 0.14,-0.434c-0.026,-0.159 -0.127,-0.295 -0.27,-0.367l-1.724,-0.862c0,-0 0,-1.61 0,-1.61c0,0 0.974,-2.923 0.974,-2.923c0.021,-0.062 0.029,-0.128 0.025,-0.194c-0,0 -0.041,-0.537 0.13,-1.001c0.079,-0.213 0.201,-0.425 0.458,-0.471c1.143,-0.201 4.047,-1.01 4.047,-1.01c0.051,-0.015 0.099,-0.037 0.143,-0.066l3,-2c0.055,-0.037 0.102,-0.084 0.139,-0.139l1.852,-2.777c-0,0 3.682,0 3.682,0c0,0 4.952,0.99 4.952,0.99c0.162,0.033 0.329,-0.017 0.447,-0.132c0,-0 0.533,-0.521 1.217,-0.818c0.383,-0.166 0.821,-0.275 1.222,-0.087c1.708,0.8 2.555,-0.089 2.555,-0.089c0.1,-0.095 0.157,-0.226 0.157,-0.364l0,-1.938c-0,-0 0.972,-3.887 0.972,-3.887c-0,-0 0.939,-1.879 0.939,-1.879c-0,0 1.943,-1.942 1.943,-1.942c0.143,-0.143 0.185,-0.359 0.108,-0.545c-0.077,-0.187 -0.26,-0.309 -0.462,-0.309l-2.191,-0c0,0 0.638,-1.276 0.638,-1.276c0.071,-0.141 0.071,-0.307 0,-0.448l-0.947,-1.894c0,-0 0,-2.882 0,-2.882c-0,-0.276 -0.224,-0.5 -0.5,-0.5l-2.306,-0c-0,0 0.769,-2.308 0.769,-2.308c0,-0 0.846,-1.692 0.846,-1.692c0,-0 2.691,-0 2.691,-0c0.078,0 0.154,-0.018 0.224,-0.053l2,-1c0.18,-0.09 0.289,-0.281 0.275,-0.482c-0.015,-0.202 -0.149,-0.375 -0.341,-0.439l-5.803,-1.935c-0,0 -0.646,-1.29 -0.646,-1.29c0.486,-0.177 1.166,-0.484 1.639,-0.942c0.244,-0.236 0.706,-0.401 1.162,-0.534c0.774,-0.227 1.555,-0.329 1.555,-0.329c0.165,-0.022 0.308,-0.124 0.382,-0.272l0.986,-1.973c0,0 1.983,-2.974 1.983,-2.974c0.1,-0.149 0.111,-0.34 0.031,-0.501l-1.87,-3.74c-0,-0 1.839,-2.759 1.839,-2.759c0.08,-0.119 0.104,-0.267 0.067,-0.405c-0.037,-0.139 -0.131,-0.255 -0.259,-0.319l-2,-1c-0.193,-0.096 -0.425,-0.059 -0.578,0.093l-1.853,1.854c-0,-0 -1.586,-0 -1.586,-0c0,0 -3.853,-3.854 -3.853,-3.854c-0.094,-0.093 -0.221,-0.146 -0.354,-0.146l-2.793,-0c0,0 -1.796,-1.796 -1.796,-1.796c-0,-0 -0.964,-1.928 -0.964,-1.928c-0.072,-0.143 -0.208,-0.244 -0.367,-0.27c-0.159,-0.025 -0.32,0.027 -0.434,0.14l-1.745,1.746c0,-0 -1.605,-0.803 -1.605,-0.803c0,0 -1.942,-1.943 -1.942,-1.943c-0.038,-0.038 -0.082,-0.069 -0.13,-0.093l-2,-1c-0.07,-0.035 -0.146,-0.053 -0.224,-0.053l-1.849,-0c0,-0 -2.874,-1.916 -2.874,-1.916c-0.017,-0.012 -0.035,-0.022 -0.053,-0.031l-2,-1c-0.155,-0.078 -0.339,-0.069 -0.487,0.022c-0.147,0.091 -0.237,0.252 -0.237,0.425l0,3.5c-0,-0 -2.191,-0 -2.191,-0c0,-0 -0.862,-1.724 -0.862,-1.724c-0.048,-0.096 -0.127,-0.175 -0.223,-0.223l-1.928,-0.964c0,0 -2.859,-2.859 -2.859,-2.859c0,-0 -0.963,-2.888 -0.963,-2.888c-0.007,-0.023 -0.016,-0.044 -0.027,-0.066l-1,-2c-0.024,-0.048 -0.055,-0.092 -0.093,-0.13l-2,-2c-0.196,-0.195 -0.512,-0.195 -0.708,0l-1.916,1.917c-0,-0 -2.811,0.937 -2.811,0.937c-0,-0 -2.919,-0 -2.919,-0c-0.133,0 -0.26,0.053 -0.354,0.146l-1.916,1.917c-0,-0 -2.477,0.826 -2.477,0.826c0,-0 -0.806,-1.613 -0.806,-1.613c-0.084,-0.169 -0.258,-0.276 -0.447,-0.276l-1.882,-0c0,-0 -1.745,-0.873 -1.745,-0.873c-0,0 -0.926,-1.851 -0.926,-1.851c-0.084,-0.169 -0.258,-0.276 -0.447,-0.276l-7,-0c-0.189,-0 -0.363,0.107 -0.447,0.276l-0.69,1.38c0,-0 -1.452,-1.452 -1.452,-1.452c-0,-0 -1.911,-3.822 -1.911,-3.822c0,-0 0,-1.762 0,-1.762c0.209,-0.415 0.935,-1.889 1.062,-2.635c0.082,-0.484 -0.101,-0.794 -0.31,-0.917c-0.024,-0.027 -0.285,-0.33 -0.47,-0.6c-0.534,-0.784 -1.186,-1.929 -1.321,-2.168c-0.002,-0.004 -0.889,-2.665 -0.889,-2.665c0,0 0.782,-0.781 0.782,-0.781c0.077,-0.078 0.127,-0.178 0.141,-0.286c0,-0 0.271,-1.107 -2.412,-1.561c-0.668,-0.113 -1.066,-0.376 -1.294,-0.669c-0.303,-0.392 -0.29,-0.811 -0.29,-0.811c0.011,-0.199 -0.097,-0.385 -0.275,-0.474l-2,-1c-0.141,-0.071 -0.307,-0.071 -0.448,-0l-1.894,0.947c-0,-0 -1.675,-0 -1.675,-0c0,0 -0.853,-0.854 -0.853,-0.854c-0.055,-0.054 -0.122,-0.096 -0.196,-0.12l-3,-1c-0.051,-0.017 -0.104,-0.026 -0.158,-0.026l-3.191,-0c0,0 0.638,-1.276 0.638,-1.276c0.096,-0.193 0.059,-0.425 -0.093,-0.578l-0.854,-0.853c0,-0 0,-4.793 0,-4.793c0,-0.189 -0.107,-0.363 -0.276,-0.447l-1.553,-0.777c-0,0 0.638,-1.276 0.638,-1.276c0,-0 2.691,-0 2.691,-0c0.133,0 0.26,-0.053 0.354,-0.146l2,-2c0.195,-0.196 0.195,-0.512 -0,-0.708l-5.854,-5.853c0,-0 0,-2.793 0,-2.793c0,-0.054 -0.009,-0.107 -0.026,-0.158l-1,-3c-0.035,-0.106 -0.104,-0.196 -0.197,-0.258l-3,-2c-0.017,-0.012 -0.035,-0.022 -0.053,-0.031l-2,-1c-0.141,-0.071 -0.307,-0.071 -0.448,-0l-1.776,0.888c0,-0 -1.776,-0.888 -1.776,-0.888c-0.07,-0.035 -0.146,-0.053 -0.224,-0.053l-5,-0c-0.133,0 -0.26,0.053 -0.354,0.146l-2.853,2.854c-0,-0 -2.675,-0 -2.675,-0c0,-0 -1.894,-0.947 -1.894,-0.947c-0.022,-0.011 -0.043,-0.02 -0.066,-0.027l-3,-1c-0.262,-0.088 -0.545,0.054 -0.632,0.316l-0.705,2.113l-15.78,-21.496c-0,0 0.368,-1.104 0.368,-1.104c-0,-0 3.591,-1.796 3.591,-1.796c-0,0 3.776,1.888 3.776,1.888c0.07,0.035 0.146,0.053 0.224,0.053l6,-0c0.108,0 0.213,-0.035 0.3,-0.1l8,-6c0.161,-0.121 0.234,-0.326 0.185,-0.521l-1,-4c-0.035,-0.142 -0.131,-0.261 -0.261,-0.326l-3.494,-1.747c0,0 1.686,-2.529 1.686,-2.529c0.082,-0.123 0.106,-0.277 0.063,-0.419c-0.042,-0.143 -0.146,-0.259 -0.282,-0.318l-7,-3c-0.062,-0.026 -0.129,-0.04 -0.197,-0.04l-4.41,-0c0,-0 0.903,-5.418 0.903,-5.418c0.024,-0.14 -0.014,-0.283 -0.103,-0.394l-4,-5c-0.068,-0.086 -0.163,-0.147 -0.269,-0.173l-3.759,-0.94c-0,0 -2.862,-6.678 -2.862,-6.678c0,0 0,-2.897 0,-2.897c0,-0.126 -0.047,-0.247 -0.133,-0.34l-4.778,-5.165c-0,0 1.869,-4.295 1.869,-4.295c0.028,-0.063 0.042,-0.131 0.042,-0.2l0,-5.5c0,-0.064 -0.012,-0.127 -0.036,-0.186l-0.945,-2.362c0,0 0.971,-4.854 0.971,-4.854c0.007,-0.032 0.01,-0.065 0.01,-0.098l0,-4c0,-0.167 -0.084,-0.323 -0.223,-0.416l-3,-2c-0.006,-0.004 -0.013,-0.009 -0.02,-0.013l-5,-3c-0.031,-0.019 -0.064,-0.034 -0.099,-0.045l-6,-2c-0.126,-0.042 -0.263,-0.033 -0.382,0.027l-4,2c-0.011,0.006 -0.022,0.012 -0.033,0.018l-4.591,2.755c-0,-0 -1.613,-2.419 -1.613,-2.419c-0,-0 0.946,-3.786 0.946,-3.786c0.057,-0.227 -0.052,-0.463 -0.261,-0.568l-6,-3c-0.141,-0.071 -0.307,-0.071 -0.448,-0l-3.677,1.839c-0,-0 -2.745,-2.746 -2.745,-2.746c-0.038,-0.038 -0.082,-0.069 -0.13,-0.093l-2,-1c-0.141,-0.071 -0.307,-0.071 -0.448,-0l-3.276,1.638c0,-0 0,-7.191 0,-7.191c0,-0.078 -0.018,-0.154 -0.053,-0.224l-1.907,-3.814c-0,-0 0.934,-2.804 0.934,-2.804c0.079,-0.236 -0.028,-0.494 -0.25,-0.605l-1.724,-0.862c0,-0 0,-2.691 0,-2.691c0,-0.189 -0.107,-0.363 -0.276,-0.447l-1.554,-0.777c-0,-0 0.778,-1.568 0.778,-1.568c0.096,-0.193 0.057,-0.425 -0.096,-0.577l-2,-1.986c-0.134,-0.133 -0.331,-0.179 -0.51,-0.119l-1.977,0.659c-0,-0 1.599,-3.999 1.599,-3.999c0.053,-0.133 0.047,-0.282 -0.017,-0.41l-0.87,-1.74c-0,-0 1.839,-2.759 1.839,-2.759c0.055,-0.082 0.084,-0.178 0.084,-0.277l0,-4c0,-0.176 -0.092,-0.338 -0.243,-0.429l-4.757,-2.854c0,-0 0,-1.717 0,-1.717c0,-0.276 -0.224,-0.5 -0.5,-0.5l-2.36,-0c0,-0 0.811,-3.244 0.811,-3.244c0,-0 1.903,-1.902 1.903,-1.902c0.093,-0.094 0.146,-0.221 0.146,-0.354l0,-2.61c-0,0 3.621,-0.905 3.621,-0.905c0.223,-0.056 0.379,-0.256 0.379,-0.485l0,-2c0,-0.189 -0.107,-0.363 -0.276,-0.447l-1.795,-0.897c0,-0 -0.944,-3.777 -0.944,-3.777c-0.005,-0.022 -0.012,-0.044 -0.021,-0.065l-1.925,-4.814c-0,-0 1.925,-4.814 1.925,-4.814c0.041,-0.101 0.047,-0.213 0.018,-0.318l-2.93,-10.744c0,0 5.828,-6.799 5.828,-6.799c0.046,-0.054 0.081,-0.118 0.101,-0.188l1.949,-6.823c0,0 2.847,-1.898 2.847,-1.898c0.028,-0.018 0.053,-0.039 0.077,-0.062l2,-2c0.168,-0.169 0.194,-0.433 0.062,-0.631l-2.015,-3.021l-0.03,-0.037l-0.056,-0.054l-0.043,-0.031l-5.772,-3.848c0,0 0,-3.423 0,-3.423c-0,0 3.724,-1.862 3.724,-1.862c0.026,-0.013 0.052,-0.029 0.076,-0.047l3.919,-2.939c0,-0 3.843,-0.961 3.843,-0.961c-0,-0 3.938,-0 3.938,-0c0.099,-0 0.195,-0.029 0.277,-0.084l3,-2c0.011,-0.007 0.022,-0.015 0.033,-0.023c-0,-0 1.243,-0.978 2.909,-1.377c1.074,-0.257 2.33,-0.272 3.532,0.418c3.417,1.96 8.239,2.066 8.239,2.066c0.242,0.005 0.453,-0.164 0.5,-0.402l1,-5c0.033,-0.164 -0.018,-0.333 -0.136,-0.452l-5,-5c-0.094,-0.093 -0.221,-0.146 -0.354,-0.146l-6.945,-0c-0,0 -8.886,-1.975 -8.886,-1.975c-0,0 -3.669,-1.834 -3.669,-1.834c0,-0 0,-6.691 0,-6.691c0,-0.249 -0.183,-0.46 -0.429,-0.495l-5.842,-0.835c-0,0 12.112,-11.304 12.112,-11.304c0.018,-0.017 0.034,-0.035 0.049,-0.054l7.983,-9.978c0,-0 9.981,-9.98 9.981,-9.98c0.026,-0.027 0.049,-0.056 0.069,-0.087l11.991,-18.986c0,-0 7.99,-10.987 7.99,-10.987c0.01,-0.013 0.019,-0.028 0.028,-0.042l7,-12c0.093,-0.16 0.09,-0.36 -0.008,-0.517l-4.976,-7.962c-0,-0 -1.984,-4.959 -1.984,-4.959c-0.031,-0.078 -0.082,-0.147 -0.147,-0.201l-10.957,-8.964c0,-0 -6.669,-8.574 -6.669,-8.574c0,-0 5.629,-4.691 5.629,-4.691c0.061,-0.05 0.108,-0.115 0.14,-0.187l3,-7c0.039,-0.093 0.05,-0.196 0.03,-0.295l-1,-5c-0.022,-0.112 -0.082,-0.213 -0.17,-0.286l-5.908,-4.923c0,-0 -2.819,-6.579 -2.819,-6.579c-0,0 3.761,-3.76 3.761,-3.76c0.141,-0.142 0.185,-0.354 0.11,-0.54l-2,-5c-0.059,-0.149 -0.187,-0.26 -0.343,-0.299l-3.777,-0.944c0,-0 -3.673,-7.347 -3.673,-7.347c-0,-0 3.553,-1.777 3.553,-1.777c0.169,-0.084 0.276,-0.258 0.276,-0.447l0,-18.717c-0,0 4.757,-2.854 4.757,-2.854c0.169,-0.101 0.263,-0.292 0.24,-0.487l-2,-17c-0.008,-0.062 -0.026,-0.122 -0.056,-0.177l-7.991,-14.984c-0,-0 -7.888,-17.747 -7.888,-17.747c0,0 5.861,-9.767 5.861,-9.767c-0,0 7.993,-11.99 7.993,-11.99c0.044,-0.066 0.072,-0.142 0.081,-0.222l1,-9c0.013,-0.117 -0.016,-0.234 -0.081,-0.332l-3.983,-5.974c0,-0 -4.986,-9.973 -4.986,-9.973c-0.045,-0.091 -0.118,-0.166 -0.208,-0.215l-10.807,-5.895c-0,0 -2.913,-11.651 -2.913,-11.651c0,0 4.958,-15.866 4.958,-15.866c0.048,-0.152 0.02,-0.317 -0.074,-0.445c-0.094,-0.128 -0.244,-0.204 -0.403,-0.204l-4.685,-0c0,0 7.968,-7.082 7.968,-7.082c-0,-0 3.941,-1.971 3.941,-1.971c0.138,-0.069 0.236,-0.198 0.266,-0.349l0.987,-4.934c0,-0 1.885,-3.77 1.885,-3.77c0,-0 4.792,-1.917 4.792,-1.917c0,-0 3.967,-0.992 3.967,-0.992c0.142,-0.035 0.261,-0.131 0.326,-0.261l2,-4c0.011,-0.022 0.02,-0.043 0.027,-0.066l1,-3c0.017,-0.051 0.026,-0.104 0.026,-0.158l0,-3c0,-0.078 -0.018,-0.154 -0.053,-0.224l-0.46,-0.92c0,0 1.743,0.581 1.743,0.581c-0,0 2.916,2.917 2.916,2.917c0.038,0.038 0.082,0.069 0.13,0.093l2,1c0.07,0.035 0.146,0.053 0.224,0.053l3,-0c0.133,-0 0.26,-0.053 0.354,-0.146l1,-1c0.064,-0.065 0.109,-0.145 0.131,-0.233l1,-4c0.02,-0.079 0.02,-0.163 0,-0.242l-0.985,-3.941c0,0 0,-2.438 0,-2.438c-0,0 0.718,-0.957 0.718,-0.957c-0,0 5.7,0.95 5.7,0.95c0.063,0.011 0.128,0.009 0.19,-0.005l9,-2c0.248,-0.055 0.415,-0.286 0.39,-0.538l-0.882,-8.817c-0,-0 9.072,7.257 9.072,7.257c0.056,0.045 0.121,0.078 0.191,0.095l7.143,1.786c-0,-0 -4.376,4.375 -4.376,4.375c-0.071,0.072 -0.12,0.164 -0.138,0.265l-2,11c-0.044,0.244 0.098,0.485 0.334,0.563l9,3c0.051,0.017 0.104,0.026 0.158,0.026l11.972,-0c0,-0 8.875,0.986 8.875,0.986c-0,0 10.914,5.953 10.914,5.953c0.014,0.008 0.029,0.015 0.045,0.022l18.956,7.981c0,0 11.911,7.941 11.911,7.941c0,-0 11.96,12.956 11.96,12.956c0.024,0.027 0.052,0.051 0.082,0.072l12.986,8.99c0,0 14.987,11.989 14.987,11.989c0.027,0.022 0.057,0.041 0.088,0.057l11.973,5.986c-0,0 8.793,5.863 8.793,5.863c0,-0 1.965,11.786 1.965,11.786c0.003,0.017 0.006,0.033 0.011,0.05l2.972,10.9c0,-0 -1.97,13.795 -1.97,13.795c-0,0 -10.859,17.768 -10.859,17.768c0,0 -17.81,6.927 -17.81,6.927c-0,-0 -20.805,4.953 -20.805,4.953c0,-0 -22.847,-9.934 -22.847,-9.934c-0.027,-0.011 -0.055,-0.021 -0.083,-0.027l-20.944,-4.987c-0,-0 -15.948,-7.974 -15.948,-7.974c-0.009,-0.005 -0.018,-0.009 -0.027,-0.013l-13.9,-5.957c-0,0 -9.927,-10.919 -9.927,-10.919c-0.124,-0.137 -0.313,-0.194 -0.492,-0.149c-0.179,0.045 -0.318,0.185 -0.363,0.364l-2,8c-0.026,0.102 -0.018,0.209 0.021,0.307l2,5c0.059,0.149 0.187,0.26 0.343,0.299l3.902,0.976c-0,-0 3.498,2.623 3.498,2.623c-0,0 -4.663,5.596 -4.663,5.596c-0.166,0.199 -0.152,0.491 0.03,0.674l2,2c0.125,0.124 0.305,0.174 0.475,0.131l3.577,-0.894c-0,-0 1.838,4.595 1.838,4.595c0.005,0.013 0.011,0.025 0.017,0.038l2,4c0.069,0.138 0.198,0.236 0.349,0.266l4.881,0.976l4.917,3.934l3.931,2.949c0,-0 1.91,2.863 1.91,2.863c-0,0 1.959,6.858 1.959,6.858c0,0 0,13.784 0,13.784c-1.465,2.322 -2.962,5.956 -2.962,5.956c-0.042,0.102 -0.049,0.215 -0.02,0.322l2.989,10.959c-0,0 0.995,9.959 0.995,9.959c0.004,0.037 0.012,0.073 0.024,0.108l2,6c0.015,0.046 0.037,0.089 0.064,0.129l7,10c0.094,0.133 0.247,0.213 0.41,0.213l7.773,-0c0,-0 6.851,7.829 6.851,7.829c0.036,0.042 0.08,0.078 0.128,0.105l7,4c0.047,0.027 0.097,0.046 0.15,0.056l9.889,1.978c-0,0 3.909,2.932 3.909,2.932c0.14,0.105 0.324,0.129 0.486,0.064l5,-2c0.113,-0.045 0.206,-0.131 0.261,-0.24l3,-6c0.113,-0.226 0.04,-0.5 -0.17,-0.64l-2.777,-1.852c0,0 0,-10.732 0,-10.732c0,-0.259 -0.197,-0.475 -0.455,-0.498l-10.865,-0.988c0,0 -6.776,-4.84 -6.776,-4.84c0,0 -2.918,-6.81 -2.918,-6.81c-0,-0 -0.909,-6.364 -0.909,-6.364c-0.001,-0 4.423,-0 4.423,-0c0.276,0 0.5,-0.224 0.5,-0.5l0,-5.434c-0,0 7.353,0.92 7.353,0.92c0,-0 5.896,2.947 5.896,2.947c-0,0 5.974,3.983 5.974,3.983c0.023,0.016 0.048,0.029 0.074,0.041l9,4c0.021,0.009 0.043,0.017 0.066,0.024l6.846,1.956c0,-0 3.901,4.875 3.901,4.875c0.073,0.092 0.177,0.155 0.292,0.178l4.903,0.981c-0,-0 2.918,1.945 2.918,1.945c0.141,0.094 0.32,0.11 0.476,0.043c0.155,-0.068 0.266,-0.209 0.294,-0.377l0.911,-5.466c0,0 3.252,0.813 3.252,0.813c-0,0 0.897,1.795 0.897,1.795c0.098,0.196 0.313,0.305 0.529,0.269l6,-1c0.15,-0.025 0.28,-0.116 0.354,-0.248c0.074,-0.132 0.084,-0.29 0.028,-0.431l-1.994,-4.986c-0,-0 -2.996,-8.986 -2.996,-8.986c-0.003,-0.009 -0.006,-0.019 -0.01,-0.028l-2,-5c-0.01,-0.024 -0.022,-0.048 -0.035,-0.071l-2.941,-4.902c-0,-0 -0.969,-10.653 -0.969,-10.653c0,-0 15.777,-15.777 15.777,-15.777c0,-0 7.928,-3.964 7.928,-3.964c0.039,-0.019 0.075,-0.044 0.108,-0.073l9,-8c0.055,-0.049 0.099,-0.109 0.128,-0.177l2.87,-6.697c-0,-0 9.615,-0 9.615,-0c0,-0 8.789,1.953 8.789,1.953c-0,0 7.892,8.879 7.892,8.879c0.023,0.025 0.047,0.048 0.074,0.068l4,3c0.152,0.114 0.354,0.132 0.524,0.047c0.169,-0.084 0.276,-0.258 0.276,-0.447l0,-6.833c-0,-0 2.9,-3.867 2.9,-3.867c0.026,-0.035 0.048,-0.074 0.064,-0.114l1.993,-4.981c-0,0 2.99,-5.981 2.99,-5.981c0.029,-0.057 0.046,-0.119 0.051,-0.182l1,-12c0.013,-0.156 -0.047,-0.309 -0.164,-0.414l-9.851,-8.866c0,0 -0.978,-12.714 -0.978,-12.714c0,0 2.977,-10.916 2.977,-10.916c0.006,-0.022 0.011,-0.044 0.014,-0.066l2,-15c0.003,-0.022 0.004,-0.044 0.004,-0.066l0,-11c0,-0.122 -0.045,-0.241 -0.126,-0.332l-7.326,-8.242c0,0 12.934,-0.923 12.934,-0.923c0,-0 13.851,1.978 13.851,1.978c-0,0 11.712,6.833 11.712,6.833c0,-0 0.962,5.768 0.962,5.768c0.008,0.049 0.023,0.097 0.046,0.142l5.93,11.86c-0,-0 -0.917,6.416 -0.917,6.416c0,-0 -15.566,-0 -15.566,-0c-0.161,0 -0.313,0.078 -0.407,0.209l-4.989,6.985c-0,0 -4.988,5.986 -4.988,5.986c-0.075,0.09 -0.116,0.203 -0.116,0.32l0,6c0,0.154 0.071,0.3 0.193,0.395l8.903,6.924c-0,0 4.949,10.888 4.949,10.888c0.047,0.104 0.129,0.189 0.231,0.24l6,3c0.084,0.042 0.177,0.059 0.269,0.051l11,-1c0.075,-0.007 0.148,-0.031 0.212,-0.069l10,-6c0.114,-0.068 0.196,-0.179 0.228,-0.308l3.999,-15.995c-0,0 2.909,-10.667 2.909,-10.667c-0,0 8.662,-0.962 8.662,-0.962c0.124,-0.014 0.239,-0.074 0.321,-0.168l6.903,-7.889c0,0 6.858,-1.959 6.858,-1.959c0.051,-0.015 0.099,-0.037 0.142,-0.066c0,-0 10.472,-7.068 12.11,-9.101c1.559,-1.934 13.091,-12.184 13.898,-12.901c0.001,0 29.937,-15.966 29.937,-15.966c-0,0 14.534,-6.782 14.534,-6.782c0,-0 6.67,14.292 6.67,14.292c0,-0 -5.577,8.365 -5.577,8.365c-0.085,0.128 -0.107,0.288 -0.059,0.434c0.048,0.146 0.161,0.262 0.305,0.314l17.733,6.4c0.183,0.066 0.386,0.021 0.524,-0.116l11.853,-11.854c0,-0 19.793,-0 19.793,-0c0.088,0 0.174,-0.023 0.251,-0.067l18.98,-10.989c0,-0 14.311,-6.678 14.311,-6.678c-0,-0 0.959,17.262 0.959,17.262c0.014,0.252 0.214,0.454 0.466,0.471l15,1c0.178,0.012 0.35,-0.073 0.449,-0.222l8,-12c0.033,-0.049 0.057,-0.104 0.071,-0.162l4,-17c0.026,-0.114 0.013,-0.234 -0.04,-0.339l-8.873,-17.746c-0,-0 6.667,-10.478 6.667,-10.478c0,0 32.622,5.931 32.622,5.931c-0,0 27.887,10.956 27.887,10.956c-0,-0 26.943,20.956 26.943,20.956c0.015,0.011 0.031,0.022 0.047,0.032l22.935,13.961c0,-0 14.95,16.943 14.95,16.943c0.116,0.131 0.292,0.192 0.465,0.161c0.172,-0.032 0.315,-0.151 0.377,-0.315l11,-29c0.064,-0.166 0.033,-0.354 -0.079,-0.492l-12.992,-15.991c-0,0 -10.993,-14.99 -10.993,-14.99c-0.032,-0.044 -0.071,-0.082 -0.116,-0.114l-9.738,-6.816c0,0 3.943,-21.685 3.943,-21.685c0.005,-0.029 0.008,-0.059 0.008,-0.089l0,-21c0,-0.106 -0.034,-0.21 -0.097,-0.296l-10.789,-14.712c-0,-0 8.794,-12.703 8.794,-12.703c0,-0 12.997,-17.996 12.997,-17.996c0.033,-0.046 0.058,-0.097 0.075,-0.151l12.893,-43.64c0,-0 391.12,1.995 391.12,1.995c-0,0 -10.988,755.166 -10.988,755.166c-0,-0 -38.695,15.874 -38.695,15.874c-0.061,0.026 -0.117,0.063 -0.164,0.109l-7,7c-0.028,0.029 -0.054,0.062 -0.075,0.097l-5.854,9.757c-0,-0 -16.717,-0 -16.717,-0c-0.157,-0 -0.306,0.074 -0.4,0.2l-5.827,7.77l-12.274,-1.444Zm-787.044,52.065c0.035,-0.08 0.045,-0.169 0.012,-0.265l0.001,-0.001c0.026,0.069 0.037,0.146 0.03,0.224c-0.002,0.017 -0.004,0.033 -0.008,0.049l-0.035,-0.007Zm-243.955,-184.091c0,0.133 0.053,0.26 0.146,0.354l0.892,0.891c-0,0 -0.81,1.255 -0.81,1.255c-0,-0 -3.728,-0 -3.728,-0c-0.015,0 -0.029,0.001 -0.044,0.002c0,-0 -4.799,0.428 -6.856,0.008c-2.114,-0.431 -9.059,-1.008 -9.059,-1.008c-0.013,-0.001 -0.027,-0.002 -0.041,-0.002l-16.977,-0c-0,-0 -10.248,-0.932 -10.248,-0.932c-0,0 0.658,-1.317 0.658,-1.317c0,0 3.983,-5.974 3.983,-5.974c0.055,-0.082 0.084,-0.178 0.084,-0.277l0,-4.566c0,-0 6.474,-0.925 6.474,-0.925c-0,-0 3.905,0.976 3.905,0.976c0.016,0.004 0.033,0.008 0.05,0.01l7,1c0.156,0.022 0.313,-0.03 0.425,-0.141l2,-2c0.093,-0.094 0.146,-0.221 0.146,-0.354l0,-6.404c0,0 0.762,-1.906 0.762,-1.906c0,0 5.497,2.749 5.497,2.749c0,-0 4.984,2.99 4.984,2.99c0.077,0.046 0.166,0.071 0.257,0.071l8.732,-0c0,-0 3.706,5.559 3.706,5.559c0,-0 -1.902,4.755 -1.902,4.755c-0.024,0.059 -0.036,0.122 -0.036,0.186l0,5Z"/></svg>