<?xml version="1.0" encoding="UTF-8" standalone="no"?><!DOCTYPE svg PUBLIC "-//W3C//DTD SVG 1.1//EN" "http://www.w3.org/Graphics/SVG/1.1/DTD/svg11.dtd"><svg width="65px" height="95px" version="1.1" xmlns="http://www.w3.org/2000/svg" xmlns:xlink="http://www.w3.org/1999/xlink" xml:space="preserve" xmlns:serif="http://www.serif.com/" style="fill-rule:evenodd;clip-rule:evenodd;stroke-linejoin:round;stroke-miterlimit:2;"><path id="serbia" d="M3.5,14.025l-0,2.768l0.854,0.853c0.023,0.024 0.044,0.049 0.062,0.077c0,-0 1.852,2.777 1.852,2.777l2.732,-0c0.276,0 0.5,0.224 0.5,0.5l0,2c0,0.276 -0.224,0.5 -0.5,0.5c-0,-0 -2.882,-0 -2.882,-0c0,-0 -1.618,0.809 -1.618,0.809c0,0 0,1.573 0,1.573c0,-0 0.853,1.706 0.853,1.706l1.509,0.486l0.418,0.159l0.878,0.293c0.209,0.069 0.345,0.266 0.342,0.481l0,0.43l0.002,-0.002l0.037,0.657l-0.039,1.771l-0,0.134c-0,0.12 -0.034,0.211 -0.085,0.281l0.001,-0.001c0,0 -1.952,2.928 -1.952,2.928c0,0 -0.964,3.857 -0.964,3.857c0,-0 0,2.629 0,2.629l1.724,0.862c0.048,0.024 0.092,0.055 0.13,0.093l5,5c0.122,0.123 0.172,0.3 0.133,0.469c-0.04,0.169 -0.164,0.305 -0.329,0.359l-3,1c-0.051,0.017 -0.104,0.026 -0.158,0.026c-0,-0 -1.5,-0 -1.5,-0c0,-0 0,1.293 -0,1.293l1.854,1.853c0.023,0.024 0.044,0.049 0.062,0.077l2,3c0.1,0.149 0.111,0.34 0.031,0.501l-1,2c-0.111,0.222 -0.369,0.329 -0.605,0.25c-0,0 -2.707,-0.902 -2.707,-0.902c0,0 -1.527,1.527 -1.527,1.527c0,-0 0.78,1.559 0.78,1.559l2.889,1.926c0.028,0.018 0.053,0.039 0.077,0.062c-0,0 2.965,2.965 2.965,2.965c-0,0 2.903,1.936 2.903,1.936l2.936,0.979c0.042,0.014 0.082,0.033 0.119,0.058c0,-0 2.945,1.963 2.945,1.963l2.936,0.979c0.262,0.087 0.404,0.37 0.316,0.632l-1,3c-0.068,0.204 -0.259,0.342 -0.474,0.342c0,0 -1.882,-0 -1.882,0c0,0 -1.536,0.768 -1.536,0.768c0,-0 0.89,3.557 0.89,3.557c-0,0 1.901,3.802 1.901,3.802l3.851,1.926c0.147,0.073 0.248,0.214 0.271,0.377c0,0 1.062,7.538 1.062,7.538c-0,0 1.133,1.307 1.133,1.307c-0,-0 0.884,-0.194 0.884,-0.194l0.936,-4.679c0.03,-0.151 0.128,-0.28 0.266,-0.349l4,-2c0.07,-0.035 0.146,-0.053 0.224,-0.053l2,0c0.276,-0 0.5,0.224 0.5,0.5c0,0 0,0.5 0,0.5c0,0 1.191,0 1.191,-0l0.862,-1.724c0.084,-0.169 0.258,-0.276 0.447,-0.276c0,0 0.882,0 0.882,-0l1.894,-0.947c0.07,-0.035 0.146,-0.053 0.224,-0.053c0,0 1.919,-0 1.919,-0l2.923,-0.974c0.051,-0.017 0.104,-0.026 0.158,-0.026c-0,0 2.919,0 2.919,-0l2.923,-0.974c0.126,-0.042 0.263,-0.033 0.382,0.027c-0,-0 1.677,0.839 1.677,0.839c0,-0 1.688,-1.688 1.688,-1.688c0,-0 0.74,-1.48 0.74,-1.48l-1.553,-0.777c-0.169,-0.084 -0.276,-0.258 -0.276,-0.447l0,-6c0,-0.133 0.053,-0.26 0.146,-0.354l1,-1c0.094,-0.093 0.221,-0.146 0.354,-0.146c-0,0 2.732,0 2.732,-0l1.852,-2.777c0.018,-0.028 0.039,-0.053 0.062,-0.077c0,0 1.854,-1.853 1.854,-1.853c0,-0 0,-1.586 -0,-1.586c-0,0 -3.819,-3.818 -3.819,-3.818l-2.958,-1.973c-0.093,-0.062 -0.162,-0.152 -0.197,-0.258c-0,0 -0.989,-2.966 -0.989,-2.966l-0.984,-1.968c-0.017,-0.033 -0.029,-0.067 -0.038,-0.103l-1,-4c-0.043,-0.17 0.007,-0.35 0.131,-0.475c0,0 3.948,-3.948 3.948,-3.948l1.128,-2.097c0.023,-0.043 0.052,-0.082 0.087,-0.117c-0,0 0.583,-0.583 0.583,-0.583c-0,0 -0.765,-1.528 -0.765,-1.528l-1.851,-0.926c-0.118,-0.059 -0.208,-0.163 -0.25,-0.289l-1,-3c-0.06,-0.18 -0.013,-0.378 0.12,-0.512l1,-1c0.094,-0.093 0.221,-0.146 0.354,-0.146c0,0 3.5,-0 3.5,-0c0,-0 0,-0.293 -0,-0.293c-0,0 -1.796,-1.796 -1.796,-1.796c-0,-0 -1.822,-0.911 -1.822,-0.911c-0,0 -0.764,0 -0.764,0c0,0 -1.745,0.873 -1.745,0.873l-0.926,1.851c-0.024,0.048 -0.055,0.092 -0.093,0.13l-2,2c-0.196,0.195 -0.512,0.195 -0.708,-0l-1,-1c-0.023,-0.024 -0.044,-0.049 -0.062,-0.077c-0,0 -1.926,-2.889 -1.926,-2.889c-0,-0 -1.658,-0.829 -1.658,-0.829l-1.776,0.888c-0.226,0.113 -0.5,0.04 -0.64,-0.17c-0,0 -1.852,-2.777 -1.852,-2.777l-1.732,0c-0.133,-0 -0.26,-0.053 -0.354,-0.146l-1,-1c-0.113,-0.114 -0.165,-0.275 -0.14,-0.434c0.026,-0.159 0.127,-0.295 0.27,-0.367c0,-0 1.724,-0.862 1.724,-0.862c0,-0 0,-0.484 -0,-0.484c-0,0 -0.707,-0.707 -0.707,-0.707l-0.793,0c-0.173,0 -0.334,-0.09 -0.425,-0.237c-0.091,-0.148 -0.1,-0.332 -0.022,-0.487c-0,0 1.742,-3.484 1.742,-3.484l-2.453,-0.818c-0.023,-0.007 -0.044,-0.016 -0.066,-0.027l-4,-2c-0.048,-0.024 -0.092,-0.055 -0.13,-0.093l-4,-4c-0.054,-0.055 -0.096,-0.122 -0.12,-0.196l-0.209,-0.635l-0.005,-0.025l-0.017,-0.11l-26.795,-1.363Zm4.5,18.332l-0.143,-0.142l0.001,-0.003l0.142,0.145Zm-0.583,-3.551l0.169,0.056c0.008,-0.025 0.015,-0.051 0.019,-0.078c0.039,-0.237 -0.096,-0.467 -0.32,-0.549c0.293,0.115 0.249,0.357 0.132,0.571Zm-3.917,-14.781l26.795,1.363l-0.751,-5.057l-1.768,-0.884c-0.118,-0.059 -0.208,-0.163 -0.25,-0.289c-0,0 -0.935,-2.803 -0.935,-2.803l-1.815,-0.908c-0.048,-0.024 -0.092,-0.055 -0.13,-0.093l-2,-2c-0.038,-0.038 -0.069,-0.082 -0.093,-0.13c-0,-0 -0.862,-1.724 -0.862,-1.724l-6.691,0c-0.078,0 -0.154,-0.018 -0.224,-0.053c0,0 -1.894,-0.947 -1.894,-0.947c-0,0 -1.675,0 -1.675,0l-4.853,4.854c-0.153,0.152 -0.385,0.189 -0.578,0.093c0,0 -1.677,-0.839 -1.677,-0.839l-0.745,0.746c-0.038,0.038 -0.082,0.069 -0.13,0.093c-0,0 -1.851,0.926 -1.851,0.926c-0,-0 -0.833,1.665 -0.833,1.665c-0,0 0.897,2.692 0.897,2.692l0.917,0.916c0.195,0.196 0.195,0.512 -0,0.708c-0,-0 -0.647,0.646 -0.647,0.646c0,-0 0.5,0.5 0.5,0.5l0.844,0.003l0.074,0.013l0.092,0.033l0.082,0.05l0.071,0.065l0.058,0.077l0.042,0.087l0.024,0.096l0.006,0.076l-0,0.025Z"/></svg>