<?xml version="1.0" encoding="UTF-8" standalone="no"?><!DOCTYPE svg PUBLIC "-//W3C//DTD SVG 1.1//EN" "http://www.w3.org/Graphics/SVG/1.1/DTD/svg11.dtd"><svg width="50px" height="34px" version="1.1" xmlns="http://www.w3.org/2000/svg" xmlns:xlink="http://www.w3.org/1999/xlink" xml:space="preserve" xmlns:serif="http://www.serif.com/" style="fill-rule:evenodd;clip-rule:evenodd;stroke-linejoin:round;stroke-miterlimit:2;"><path id="slovenia" d="M24.858,31.096l-0.17,-0.487c-0,0 -0.178,0.13 -0.4,0.201c-0.002,0 -0.525,0.031 -0.525,0.031c-0.145,-0.032 -0.295,-0.103 -0.446,-0.227c-0.484,-0.399 -1.216,-1.132 -1.828,-1.765c0,-0 -1.125,-1.192 -1.125,-1.192c-0.102,-0.107 -0.245,-0.165 -0.392,-0.156c-0.148,0.008 -0.284,0.081 -0.372,0.199l-2.654,3.539c-0,-0 -0.592,-0.593 -0.592,-0.593c-0.094,-0.093 -0.221,-0.146 -0.354,-0.146l-2,-0c-0.078,-0 -0.154,0.018 -0.224,0.053l-1.677,0.839c-0,-0 -0.745,-0.746 -0.745,-0.746c-0.196,-0.195 -0.512,-0.195 -0.708,0l-1,1c-0.038,0.038 -0.069,0.082 -0.093,0.13l-0.69,1.38c0,-0 -1.509,-1.51 -1.509,-1.51c-0.094,-0.093 -0.221,-0.146 -0.354,-0.146l-1.793,-0c0,0 1,-1 1,-1c0,-0 2.793,-0 2.793,-0c0.276,-0 0.5,-0.224 0.5,-0.5l-0,-2c-0,-0.078 -0.018,-0.154 -0.053,-0.224l-1,-2c-0.048,-0.096 -0.127,-0.175 -0.223,-0.223l-3.613,-1.806c0,-0 0.863,-2.589 0.863,-2.589c0.051,-0.152 0.026,-0.32 -0.068,-0.45c-0.094,-0.131 -0.245,-0.208 -0.406,-0.208l-1.5,-0c0,-0 -0,-2.191 -0,-2.191c0,0 1.724,-0.862 1.724,-0.862c0.143,-0.072 0.244,-0.208 0.27,-0.367c0.025,-0.159 -0.027,-0.32 -0.14,-0.434l-2,-2c-0.055,-0.054 -0.122,-0.096 -0.196,-0.12l-2.379,-0.793c0,-0 0.721,-1.082 0.721,-1.082c0.032,-0.048 0.056,-0.102 0.07,-0.159c0.271,-1.115 1.166,-1.733 2.527,-2.001c0.097,-0.02 0.186,-0.067 0.257,-0.137l1.853,-1.854c0,-0 2.712,-0 2.712,-0c-0,0 2.889,0.963 2.889,0.963c0,0 1.968,0.984 1.968,0.984c0.045,0.023 0.093,0.038 0.142,0.046l6,1c0.159,0.027 0.321,-0.025 0.436,-0.139l3.965,-3.965c-0,-0 2.794,-1.863 2.794,-1.863c-0,-0 5.805,0.967 5.805,0.967c0.062,0.011 0.126,0.009 0.188,-0.004l2.002,-0.436c0.131,-0.028 0.244,-0.107 0.316,-0.22l0.89,-1.396c0,-0 3.593,-0.898 3.593,-0.898c-0,-0 2.816,1.877 2.816,1.877c0.172,0.115 0.396,0.112 0.565,-0.007c0.169,-0.119 0.247,-0.33 0.197,-0.53l-0.779,-3.118c-0,0 2.299,-1.2 2.299,-1.2c-0,0 2.495,1.248 2.495,1.248c-0,0 -0,2.048 -0,2.048l0.5,0.5c-0,0 -0.5,-0.496 -0.5,-0.496c-0,0 -0,0.117 -0,0.136c-0,0.102 0.025,0.184 0.064,0.249l1.627,3.254c-0,-0 -1.191,-0 -1.191,-0c-0.078,0 -0.154,0.018 -0.224,0.053l-2,1c-0.169,0.084 -0.276,0.258 -0.276,0.447l-0,1.5c-0,0 -2.5,-0 -2.5,-0c-0.189,-0 -0.363,0.107 -0.447,0.276l-0.941,1.882c0,-0 -2.763,1.842 -2.763,1.842c-0,0 -1.849,-0 -1.849,-0c-0.189,0 -0.363,0.107 -0.447,0.276l-1,2c-0.071,0.141 -0.071,0.307 -0,0.448l0.947,1.894c-0,0 -0,4.382 -0,4.382c-0,-0 -1.5,-0 -1.5,-0c-0.054,0 -0.107,0.009 -0.158,0.026l-3,1c-0.074,0.024 -0.141,0.066 -0.196,0.12l-1,1c-0.152,0.153 -0.189,0.385 -0.093,0.578l0.638,1.276c-0,-0 -0.191,-0 -0.191,-0c-0.276,0 -0.5,0.224 -0.5,0.5l-0,2c-0,0.078 0.018,0.154 0.053,0.224l0.742,1.484c-0,-0 -2.257,0.752 -2.257,0.752c0,0 -3.814,-1.907 -3.814,-1.907l-0.118,0.5l-0.106,-0.053c-0,-0 -0.051,0.041 -0.142,0.096Zm22.724,-26.823c0.07,0.101 0.175,0.158 0.262,0.189c0.087,0.032 0.156,0.038 0.156,0.038c-0.17,-0 -0.327,-0.086 -0.418,-0.227Zm0.636,0.163l0.005,0.011c-0.068,0.034 -0.144,0.053 -0.223,0.053c-0,-0 0.069,-0.006 0.156,-0.038c0.02,-0.007 0.041,-0.016 0.062,-0.026Z"/></svg>