<?xml version="1.0" encoding="UTF-8" standalone="no"?><!DOCTYPE svg PUBLIC "-//W3C//DTD SVG 1.1//EN" "http://www.w3.org/Graphics/SVG/1.1/DTD/svg11.dtd"><svg width="90px" height="43px" version="1.1" xmlns="http://www.w3.org/2000/svg" xmlns:xlink="http://www.w3.org/1999/xlink" xml:space="preserve" xmlns:serif="http://www.serif.com/" style="fill-rule:evenodd;clip-rule:evenodd;stroke-linejoin:round;stroke-miterlimit:2;"><path id="slovakia" d="M89.143,11.596l-1.59,3.18c-0.011,0.022 -0.02,0.043 -0.027,0.066l-0.989,2.966c-0,0 -0.948,1.896 -0.948,1.896c0,-0 -2.943,2.942 -2.943,2.942c-0.093,0.094 -0.146,0.221 -0.146,0.354l0,3.691c-0,-0 -1.675,0.837 -1.675,0.837c0,0 -3.604,0.901 -3.604,0.901c-0,0 -1.805,-2.706 -1.805,-2.706c-0.018,-0.028 -0.039,-0.053 -0.062,-0.077l-2,-2c-0.094,-0.093 -0.221,-0.146 -0.354,-0.146l-3,0c-0.054,0 -0.107,0.009 -0.158,0.026l-2.862,0.954c0,-0 -3.859,-0.965 -3.859,-0.965c-0.039,-0.01 -0.08,-0.015 -0.121,-0.015l-6,0c-0.229,0 -0.429,0.156 -0.485,0.379l-0.995,3.981c-0,0 -0.88,2.64 -0.88,2.64c-0,0 -2.64,0 -2.64,0c-0.108,0 -0.213,0.035 -0.3,0.1l-3.753,2.815c0,-0 -1.651,-0.826 -1.651,-0.826c0,0 -1.942,-1.943 -1.942,-1.943c-0.134,-0.133 -0.332,-0.18 -0.512,-0.12l-3,1c-0.204,0.068 -0.342,0.259 -0.342,0.474l0,2.61c0,-0 -3.512,0.878 -3.512,0.878c-0,-0 -4.89,-0.978 -4.89,-0.978c-0.199,-0.04 -0.402,0.044 -0.514,0.213l-2,3c-0.055,0.082 -0.084,0.178 -0.084,0.277l0,2.5c-0,-0 -1.5,0 -1.5,0c-0.054,0 -0.107,0.009 -0.158,0.026l-5.923,1.974c-0,0 -7.768,0 -7.768,0l-2.802,-1.869l-2.949,-3.931c-0.047,-0.062 -0.107,-0.112 -0.176,-0.147l-2,-1c-0.141,-0.071 -0.307,-0.071 -0.448,-0l-1.276,0.638c0,-0 0,-1.191 0,-1.191c0,-0.189 -0.107,-0.363 -0.276,-0.447l-1.815,-0.908c-0,0 -0.935,-2.803 -0.935,-2.803c-0.007,-0.023 -0.016,-0.044 -0.027,-0.066l-0.947,-1.894c0,-0 0,-1.764 0,-1.764c0,0 0.947,-1.894 0.947,-1.894c0.035,-0.07 0.053,-0.146 0.053,-0.224l0,-2.849c-0,0 3.721,-5.58 3.721,-5.58c-0,-0 3.658,0.914 3.658,0.914c0.039,0.01 0.08,0.015 0.121,0.015l4,0c0.133,0 0.26,-0.053 0.354,-0.146l3,-3c0.038,-0.038 0.069,-0.082 0.093,-0.13l0.862,-1.724c0,0 1.691,0 1.691,0c0.215,-0 0.406,-0.138 0.474,-0.342l1.921,-5.763c0,0 2.763,-0.921 2.763,-0.921c0.106,-0.035 0.196,-0.104 0.258,-0.197l1.905,-2.857c-0,0 2.76,-0.92 2.76,-0.92c0,0 1.919,0 1.919,0c0.084,0 0.166,-0.021 0.237,-0.06l0.299,0.746c0.045,0.113 0.131,0.206 0.24,0.261l4,2c0.217,0.108 0.479,0.046 0.624,-0.147l2.811,-3.748c-0,0 4.289,0.858 4.289,0.858c0,-0 0,7.59 0,7.59c0,0.276 0.224,0.5 0.5,0.5l7,0c0.133,-0 0.26,-0.053 0.354,-0.146l4.799,-4.8c0,-0 3.693,0.923 3.693,0.923c-0,-0 4.968,1.987 4.968,1.987c0.186,0.075 0.398,0.031 0.54,-0.11l3.853,-3.854c0,0 9.553,0 9.553,0c-0,-0 3.85,4.812 3.85,4.812c0.045,0.057 0.102,0.103 0.166,0.135l6,3l0.367,0.149Z"/></svg>