<?xml version="1.0" encoding="UTF-8" standalone="no"?><!DOCTYPE svg PUBLIC "-//W3C//DTD SVG 1.1//EN" "http://www.w3.org/Graphics/SVG/1.1/DTD/svg11.dtd"><svg width="213px" height="157px" version="1.1" xmlns="http://www.w3.org/2000/svg" xmlns:xlink="http://www.w3.org/1999/xlink" xml:space="preserve" xmlns:serif="http://www.serif.com/" style="fill-rule:evenodd;clip-rule:evenodd;stroke-linejoin:round;stroke-miterlimit:2;"><path id="spain" d="M86.767,141.558c0.035,-0.019 0.072,-0.033 0.112,-0.043l-3.941,0.985c0,0 -5.938,0 -5.938,0c-0.133,0 -0.26,0.053 -0.354,0.146l-1.965,1.965c0,0 -2.869,1.913 -2.869,1.913c-0,0 -5.894,0.983 -5.894,0.983c-0.137,0.023 -0.257,0.101 -0.334,0.216l-1.973,2.958c0,0 -2.965,2.965 -2.965,2.965c-0.023,0.024 -0.044,0.049 -0.062,0.077l-1.788,2.682c-0,-0 -2.574,-0.858 -2.574,-0.858c-0,-0 -2.945,-1.963 -2.945,-1.963c-0.017,-0.012 -0.035,-0.022 -0.053,-0.031l-1.882,-0.941c0,0 -1.842,-2.763 -1.842,-2.763c0,-0 0,-1.849 0,-1.849c0,-0.054 -0.009,-0.107 -0.026,-0.158l-1,-3c-0.068,-0.204 -0.259,-0.342 -0.474,-0.342l-1.5,0c0,-0 0,-1.382 0,-1.382c0,0 1.947,-3.894 1.947,-3.894c0.091,-0.181 0.063,-0.399 -0.069,-0.552c-0.133,-0.152 -0.344,-0.21 -0.536,-0.146l-2.707,0.902c0,-0 -3.781,-3.782 -3.781,-3.782c-0.055,-0.054 -0.122,-0.096 -0.196,-0.12l-2.658,-0.886c-0,-0 0,-2.64 0,-2.64c0,-0.232 -0.159,-0.433 -0.385,-0.487c-0.226,-0.053 -0.459,0.056 -0.562,0.263l-0.862,1.724c-0,-0 -7.191,0 -7.191,0c0,-0 0,-1.5 0,-1.5c0,-0.041 -0.005,-0.082 -0.015,-0.121l-0.97,-3.879c0,-0 0.952,-3.807 0.952,-3.807c0,0 2.887,-4.811 2.887,-4.811c-0,0 3.87,-1.935 3.87,-1.935c0.169,-0.084 0.276,-0.258 0.276,-0.447l0,-2c0,-0.215 -0.138,-0.406 -0.342,-0.474l-2.837,-0.946c-0,-0 -1.821,-2.731 -1.821,-2.731c0,-0 0,-5.731 0,-5.731c0,0 0.855,-1.709 0.855,-1.709c-0,-0 2.803,-0.935 2.803,-0.935c0.106,-0.035 0.196,-0.104 0.258,-0.197l2,-3c0.112,-0.168 0.112,-0.386 0,-0.554l-2,-3c-0.093,-0.139 -0.249,-0.223 -0.416,-0.223l-1.691,0c0,0 -1.846,-3.692 -1.846,-3.692c0,0 -0.989,-2.966 -0.989,-2.966c-0.024,-0.074 -0.066,-0.141 -0.12,-0.196l-1.943,-1.942c-0,-0 -0.602,-1.204 -0.602,-1.204c0,0 7.191,0 7.191,0c0.189,0 0.363,-0.107 0.447,-0.276l1,-2c0.011,-0.022 0.02,-0.043 0.027,-0.066l1,-3c0.017,-0.051 0.026,-0.104 0.026,-0.158l0,-3c0,-0.133 -0.053,-0.26 -0.146,-0.354l-1.854,-1.853c0,-0 0,-1.433 0,-1.433c0,0 2.658,-0.886 2.658,-0.886c0.126,-0.042 0.23,-0.132 0.289,-0.25l1,-2c0.035,-0.07 0.053,-0.146 0.053,-0.224l0,-5c0,-0.054 -0.009,-0.107 -0.026,-0.158l-1.974,-5.923c0,-0 0,-2.419 0,-2.419c0,0 1.5,0 1.5,0c0.189,0 0.363,-0.107 0.447,-0.276l1.908,-3.815c-0,-0 2.803,-0.935 2.803,-0.935c0.074,-0.024 0.141,-0.066 0.196,-0.12l3,-3c0.038,-0.038 0.069,-0.082 0.093,-0.13l1,-2c0.08,-0.161 0.069,-0.352 -0.031,-0.501l-2,-3c-0.125,-0.188 -0.36,-0.269 -0.574,-0.197l-2.342,0.78c0,0 0,-4.306 0,-4.306c0,-0.078 -0.018,-0.154 -0.053,-0.224l-1,-2c-0.084,-0.169 -0.258,-0.276 -0.447,-0.276l-3,0c-0.054,0 -0.107,0.009 -0.158,0.026l-2.842,0.947c0,-0 -2.842,-0.947 -2.842,-0.947c-0.214,-0.072 -0.449,0.009 -0.574,0.197l-1.852,2.777c0,0 -2.651,0 -2.651,0c0,-0 -2.923,-0.974 -2.923,-0.974c-0.051,-0.017 -0.104,-0.026 -0.158,-0.026l-3,0c-0.099,0 -0.195,0.029 -0.277,0.084l-2.759,1.839c0,0 -1.464,-0.732 -1.464,-0.732c0,-0 0,-2.573 0,-2.573c0,0 0.947,-1.894 0.947,-1.894c0.071,-0.141 0.071,-0.307 0,-0.448l-1,-2c-0.123,-0.247 -0.424,-0.347 -0.671,-0.223l-1.951,0.975c0,0 -3.946,0.987 -3.946,0.987c-0.065,0.016 -0.126,0.045 -0.179,0.085l-3.2,2.4c0,0 0,-1.849 0,-1.849c0,0 1.916,-2.874 1.916,-2.874c0.025,-0.037 0.044,-0.077 0.058,-0.119l1,-3c0.064,-0.192 0.006,-0.403 -0.146,-0.536c-0.153,-0.132 -0.371,-0.16 -0.552,-0.069l-0.316,0.158c0,-0 0.956,-1.434 0.956,-1.434c0.102,-0.153 0.112,-0.35 0.025,-0.513c-0.087,-0.163 -0.257,-0.264 -0.441,-0.264l-2.191,0c0,0 0.638,-1.276 0.638,-1.276c0.011,-0.022 0.02,-0.043 0.027,-0.066l1,-3c0.051,-0.152 0.026,-0.32 -0.068,-0.45c-0.094,-0.131 -0.245,-0.208 -0.406,-0.208l-2,-0c-0.099,-0 -0.195,0.029 -0.277,0.084l-2.223,1.482c0,-0 0,-0.859 0,-0.859c-0,0 1.854,-1.853 1.854,-1.853c0.093,-0.094 0.146,-0.221 0.146,-0.354l0,-2c0,-0.161 -0.077,-0.312 -0.208,-0.406c-0.13,-0.094 -0.298,-0.119 -0.45,-0.068l-2.526,0.842c0,-0 -0.842,-2.526 -0.842,-2.526c-0.068,-0.204 -0.259,-0.342 -0.474,-0.342l-1.306,0c-0,0 0.743,-2.23 0.743,-2.23c0,0 1.859,-1.859 1.859,-1.859c0,-0 3.822,-1.911 3.822,-1.911c0,0 2.882,0 2.882,0c0.054,0 0.107,-0.009 0.158,-0.026l2.923,-0.974c0,-0 1.919,0 1.919,0c0.078,0 0.154,-0.018 0.224,-0.053l2,-1c0.096,-0.048 0.175,-0.127 0.223,-0.223l1,-2c0.096,-0.193 0.059,-0.425 -0.093,-0.578l-1.569,-1.568c-0,-0 2.466,-1.645 2.466,-1.645c0,0 1.867,-0.933 1.867,-0.933c0,0 7.675,0 7.675,0c-0,0 2.853,2.854 2.853,2.854c0.094,0.093 0.221,0.146 0.354,0.146l1.691,0c-0,0 0.862,1.724 0.862,1.724c0.072,0.143 0.208,0.244 0.367,0.27c0.159,0.025 0.32,-0.027 0.434,-0.14l0.853,-0.854c0,0 6.793,0 6.793,0c0.03,0 0.06,-0.003 0.089,-0.008l10.874,-1.977c0,-0 5.879,1.959 5.879,1.959c0.028,0.01 0.058,0.017 0.087,0.021l6.995,0.999c-0,0 5.994,0.999 5.994,0.999c0.027,0.005 0.054,0.007 0.082,0.007l12,0c0.078,0 0.154,-0.018 0.224,-0.053l1.968,-0.984c-0,0 2.492,-0.831 2.492,-0.831c-0,0 0.842,2.526 0.842,2.526c0.068,0.204 0.259,0.342 0.474,0.342l1.959,0c-0,0 5.959,0.993 5.959,0.993c0.125,0.021 0.254,-0.007 0.359,-0.077l2.797,-1.864c-0,-0 2.754,0.918 2.754,0.918c-0,-0 4.986,1.994 4.986,1.994c0.079,0.032 0.164,0.043 0.248,0.032l7.815,-0.977c0,0 2.846,1.897 2.846,1.897c0.128,0.086 0.289,0.107 0.435,0.058l2.342,-0.78c-0,-0 -0,1.188 -0,1.188c-0,-0 -0.947,1.894 -0.947,1.894c-0.071,0.141 -0.071,0.307 -0,0.448l1,2c0.072,0.143 0.208,0.244 0.367,0.27c0.159,0.025 0.32,-0.027 0.434,-0.14l1.646,-1.647c0,0 0.646,0.647 0.646,0.647c0.055,0.054 0.122,0.096 0.196,0.12l6,2c0.051,0.017 0.104,0.026 0.158,0.026l0.691,0c-0,0 0.862,1.724 0.862,1.724c0.048,0.096 0.127,0.175 0.223,0.223l2,1c0.08,0.04 0.169,0.058 0.258,0.052l1.177,-0.081c-0,0 1.713,0.079 1.713,0.079c0.433,0.109 0.97,0.114 1.405,0.084l0.489,-0.056c-0,-0 0.828,0.829 0.828,0.829c0.038,0.038 0.082,0.069 0.13,0.093l2,1c0.022,0.011 0.043,0.02 0.066,0.027l3,1c0.044,0.015 0.091,0.024 0.138,0.026l0.02,0l0.02,-0.002c0.087,-0.011 0.44,-0.077 0.478,-0.458l0.027,-0.269l0.134,-0.156c0.087,-0.048 0.2,-0.084 0.345,-0.109c0.002,-0.001 0.513,0.068 0.513,0.068c0.156,0.113 0.247,0.286 0.366,0.423l0.378,0.172c-0,-0 -0.314,-0.11 -0.314,-0.11c0,-0 0.244,0.204 0.283,0.237c0.049,0.041 0.097,0.069 0.14,0.088c0.176,0.083 0.385,0.132 0.648,0.116c-0.002,0 4.982,0 4.982,0c0.276,0 0.5,-0.224 0.5,-0.5l-0,-2.64c0,0 2.365,-0.788 2.365,-0.788c-0,0 0.781,0.782 0.781,0.782c0.055,0.054 0.122,0.096 0.196,0.12l2.888,0.963c-0,0 0.916,0.917 0.916,0.917c0.055,0.054 0.122,0.096 0.196,0.12l1.42,0.474c-0.487,0.91 -0.762,1.949 -0.762,3.052c-0,3.587 2.913,6.5 6.5,6.5c2.384,-0 4.47,-1.286 5.598,-3.203c0.014,0.02 0.031,0.039 0.048,0.057l1,1c0.196,0.195 0.512,0.195 0.708,-0l0.942,-0.943c0,-0 1.822,-0.911 1.822,-0.911c0,0 0.764,0 0.764,0c-0,0 1.822,0.911 1.822,0.911c-0,-0 0.942,0.943 0.942,0.943c0.094,0.093 0.221,0.146 0.354,0.146l2,-0c0.078,-0 0.154,-0.018 0.224,-0.053l3.894,-1.947l3.447,-0c-0,-0 1.037,0.823 1.037,0.823c0,-0 0.589,1.177 0.589,1.177c-0,0 -1.191,-0 -1.191,-0c-0.276,0 -0.5,0.224 -0.5,0.5l-0,2c-0,0.054 0.009,0.107 0.026,0.158l0.974,2.923c-0,0 -0,3.669 -0,3.669c0,-0 -3.779,2.835 -3.779,2.835c-0,-0 -9.978,5.986 -9.978,5.986c-0.035,0.021 -0.068,0.047 -0.097,0.075l-2.902,2.903l-3.881,0.97l-6.992,1.998c-0,-0 -3.992,0.998 -3.992,0.998c-0.036,0.009 -0.07,0.021 -0.103,0.038l-4,2c-0.077,0.039 -0.144,0.097 -0.192,0.17l-2,3c-0.055,0.082 -0.084,0.178 -0.084,0.277l-0,2c0,0.133 0.053,0.26 0.146,0.354l0.647,0.646c-0,0 -1.5,1.5 -1.5,1.5c-0,0 -1.793,0 -1.793,0c-0.167,0 -0.323,0.084 -0.416,0.223l-2,3c-0.004,0.006 -0.009,0.013 -0.013,0.02l-2.994,4.99c0,-0 -3.981,5.972 -3.981,5.972c0,-0 -3.986,4.983 -3.986,4.983c-0.045,0.056 -0.078,0.121 -0.095,0.191l-1,4c-0.01,0.039 -0.015,0.08 -0.015,0.121l-0,4c-0,0.064 0.012,0.127 0.036,0.186l2,5c0.005,0.013 0.011,0.025 0.017,0.038l2,4c0.048,0.096 0.127,0.175 0.223,0.223l3.38,1.69c-0,-0 -2.426,2.426 -2.426,2.426c-0,-0 -2.888,0.963 -2.888,0.963c-0.042,0.014 -0.082,0.033 -0.119,0.058l-3,2c-0.073,0.048 -0.131,0.115 -0.17,0.192l-1.926,3.851c0,0 -1.851,0.926 -1.851,0.926c-0.118,0.059 -0.208,0.163 -0.25,0.289l-3,9c-0.035,0.103 -0.035,0.213 -0,0.316l0.78,2.342c0,0 -3.306,0 -3.306,0c-0.041,0 -0.082,0.005 -0.121,0.015l-8,2c-0.095,0.024 -0.181,0.075 -0.247,0.147c-0,-0 -2.024,2.204 -3.07,4.096c-0.003,0.006 -0.006,0.012 -0.009,0.018l-3.964,7.928c0,-0 -2.589,2.589 -2.589,2.589c-0,-0 -1.646,-1.647 -1.646,-1.647c-0.094,-0.093 -0.221,-0.146 -0.354,-0.146l-4,0c-0.215,0 -0.406,0.138 -0.474,0.342l-0.886,2.658c-0,0 -2.522,0 -2.522,0c0,-0 -1.894,-0.947 -1.894,-0.947c-0.033,-0.017 -0.067,-0.029 -0.103,-0.038l-4,-1c-0.092,-0.023 -0.189,-0.019 -0.279,0.011l-3,1c-0.02,0.006 -0.04,0.014 -0.059,0.023c0,0 -0.914,0.397 -3.705,-0.043c-1.074,-0.169 -1.581,-0.32 -1.795,-0.471c-0.005,-0.004 -0.013,-0.011 -0.013,-0.011c-0,0 0.059,0.113 0.064,0.156c0.013,0.108 -0.028,0.213 -0.084,0.253c-0.06,0.042 -0.12,0.059 -0.165,0.065l-0.006,-0.002l0.042,-0.011l-0.049,0.006l-0.029,-0.016l-0.059,-0.04l-0.087,-0.354c0.046,-0.051 0.103,-0.081 0.103,-0.081l-0.116,0.029l-0.117,-0.471Zm0,-0l0,-0.001l-0.022,0.013l0.022,-0.012Zm79.733,-41.058l-0,-0.293c-0,0 0.854,-0.853 0.854,-0.853l-0.354,0.146c0,0 0.387,-0.816 0.387,-0.816c0,-0 0.022,0.029 0.022,0.029c-0,0 -0.057,-0.226 0.059,-0.538c0.141,-0.378 0.485,-0.593 0.642,-0.675c0.001,-0 2.081,0 2.081,0c-0,-0 -0.602,1.204 -0.602,1.204c0,-0 -1.796,1.796 -1.796,1.796l-1.293,0Zm18.271,-14.436l6.442,-4.602c0,0 3.459,-0.865 3.459,-0.865c0,0 0.854,2.561 0.854,2.561c0.068,0.204 0.259,0.342 0.474,0.342l4.5,0c0,0 -0,2 -0,2c-0,0 -1.5,0 -1.5,0c-0.215,0 -0.406,0.138 -0.474,0.342l-0.989,2.966c-0,0 -0.91,1.819 -0.91,1.819c0,0 -1.627,0.814 -1.627,0.814c0,-0 -1.776,-0.888 -1.776,-0.888c-0.07,-0.035 -0.146,-0.053 -0.224,-0.053l-1.691,0c0,-0 -0.862,-1.724 -0.862,-1.724c-0.039,-0.077 -0.097,-0.144 -0.17,-0.192l-3,-2c-0.198,-0.132 -0.462,-0.106 -0.631,0.062l-0.646,0.647l-1.229,-1.229Zm22.729,-7.674l3,-0.75c-0,0 -0,0.36 -0,0.36c0,0.276 0.224,0.5 0.5,0.5l0.691,0c-0,0 0.809,1.618 0.809,1.618c-0,0 -0,0.675 -0,0.675c0,-0 -1.146,-1.147 -1.146,-1.147c-0.038,-0.038 -0.082,-0.069 -0.13,-0.093l-2,-1c-0.07,-0.035 -0.146,-0.053 -0.224,-0.053l-1.5,0l-0,-0.11Zm-30.5,-51.89l-0.128,-0.306l0.016,-0.082l0.112,-0.112l-0,0.5Zm-25.948,-4.5l-0.052,0l-0.031,0.001c-0.12,0.233 -0.41,0.418 -0.41,0.418c0.23,0 0.43,-0.157 0.485,-0.381c0.003,-0.013 0.006,-0.025 0.008,-0.038Zm-2.722,-0.27l-0.152,-0.321l0.04,-0.047l0.112,0.368Z"/></svg>