<?xml version="1.0" encoding="UTF-8" standalone="no"?><!DOCTYPE svg PUBLIC "-//W3C//DTD SVG 1.1//EN" "http://www.w3.org/Graphics/SVG/1.1/DTD/svg11.dtd"><svg width="208px" height="483px" version="1.1" xmlns="http://www.w3.org/2000/svg" xmlns:xlink="http://www.w3.org/1999/xlink" xml:space="preserve" xmlns:serif="http://www.serif.com/" style="fill-rule:evenodd;clip-rule:evenodd;stroke-linejoin:round;stroke-miterlimit:2;"><path id="sweden" d="M57.292,476.705l3.299,1.65c0,-0 0.869,2.607 0.869,2.607c0,-0 -0.654,1.308 -0.654,1.308c0,-0 -2.487,-1.659 -2.487,-1.659c-0,0 -1.747,-1.746 -1.747,-1.746l0.72,-2.16Zm-51.308,-105.205c-0.054,-0.002 -0.239,-0.021 -0.368,-0.178l-0.458,0.152c-0.236,0.079 -0.494,-0.028 -0.605,-0.25c-0,-0 -2.69,-5.38 -2.69,-5.38c0,0 -1.363,1.363 -1.363,1.363c0,0 -0,2.697 -0,2.697l1.964,4.91c0.024,0.059 0.036,0.122 0.036,0.186c0,0 0,11.066 0,11.066l2.223,-1.482c0.153,-0.102 0.35,-0.112 0.513,-0.025c0.163,0.087 0.264,0.257 0.264,0.441c0,0 0,1.349 -0,1.349l1.084,-1.626c0.093,-0.139 0.249,-0.223 0.416,-0.223l1,0c0.154,-0 0.299,0.071 0.394,0.192c0.095,0.122 0.128,0.28 0.091,0.429c0,0 -0.798,3.192 -0.798,3.192l3.192,-0.798c0.149,-0.037 0.307,-0.004 0.429,0.091c0.121,0.095 0.192,0.24 0.192,0.394l0,3c-0,0.015 -0.001,0.03 -0.002,0.045c-0,0 -0.992,10.916 -0.992,10.916c-0,-0 0.977,3.91 0.977,3.91l1.998,6.992c0.027,0.097 0.025,0.2 -0.007,0.295c0,0 -0.539,1.618 -0.539,1.618l1.788,-1.192c0.141,-0.094 0.32,-0.11 0.476,-0.043c0.155,0.068 0.266,0.209 0.294,0.377c0,-0 0.988,5.926 0.988,5.926c-0,-0 3.956,7.911 3.956,7.911c-0,0 4.93,7.889 4.93,7.889l2.91,1.94c0.139,0.093 0.223,0.249 0.223,0.416l0,5c0,0.276 -0.224,0.5 -0.5,0.5c-0,0 -2.5,0 -2.5,-0c0,-0 -0,3.419 0,3.419l0.974,2.923c0.088,0.262 -0.054,0.545 -0.316,0.632c-0.262,0.088 -0.545,-0.054 -0.632,-0.316c-0,0 -0.297,-0.89 -0.297,-0.89l-0.839,1.045c-0.089,0.111 -0.221,0.179 -0.363,0.186c-0.142,0.008 -0.28,-0.045 -0.381,-0.145c0,-0 -0.502,-0.503 -0.502,-0.503c0,0 0.319,0.957 0.319,0.957c0,0 1.976,3.951 1.976,3.951l2.99,4.984c0.019,0.031 0.034,0.064 0.045,0.099c0,-0 0.963,2.888 0.963,2.888l0.917,0.916c0.071,0.072 0.119,0.163 0.138,0.263c-0,-0 0.37,2.071 0.216,2.883c-0.099,0.523 -0.424,0.723 -0.733,0.707c-0.166,-0.008 -0.422,0.138 -0.684,0.28c-0.235,0.128 -0.467,0.271 -0.648,0.389l0.804,1.608c0.035,0.07 0.053,0.146 0.053,0.224c0,0 0,2.5 0,2.5l3.5,0c0.054,-0 0.107,0.009 0.158,0.026c0,-0 2.646,0.882 2.646,0.882c0.253,-0.352 0.689,-0.924 1.115,-1.328c0.376,-0.355 0.771,-0.569 1.063,-0.58c0.006,0 0.012,0 0.018,0c-0,0 9.732,0 9.732,-0c0,-0 1.706,-2.558 1.706,-2.559l-1.902,-4.755c-0.024,-0.059 -0.036,-0.122 -0.036,-0.186l-0,-4c0,-0.091 0.025,-0.18 0.071,-0.257l3,-5c0.049,-0.082 0.12,-0.148 0.205,-0.19l2,-1c0.119,-0.06 0.256,-0.069 0.382,-0.027c0,-0 2.051,0.683 2.051,0.683l-0.683,-2.051c-0.06,-0.18 -0.013,-0.378 0.12,-0.512l1,-1c0.094,-0.093 0.221,-0.146 0.354,-0.146c0,0 11.882,0 11.882,-0l1.894,-0.947c0.107,-0.054 0.229,-0.067 0.345,-0.038l4,1c0.101,0.025 0.188,0.08 0.253,0.153l2.126,-2.835l0,-3.833c0,-0.078 0.018,-0.154 0.053,-0.224c-0,0 1.984,-3.968 1.984,-3.968l0.989,-2.966c0.068,-0.204 0.259,-0.342 0.474,-0.342c-0,0 1.5,0 1.5,-0l-0,-2.5c-0,-0.078 0.018,-0.154 0.053,-0.224c-0,0 0.947,-1.894 0.947,-1.894l-0,-5.882c-0,-0.189 0.107,-0.363 0.276,-0.447c0,-0 1.553,-0.777 1.553,-0.777l-0.776,-1.552c-0.011,-0.022 -0.02,-0.043 -0.027,-0.066l-1,-3c-0.049,-0.146 -0.028,-0.307 0.058,-0.435c-0,-0 1.916,-2.874 1.916,-2.874l-0,-0.849c0,-0.078 0.018,-0.154 0.053,-0.224c-0,0 1.802,-3.605 1.802,-3.605l-2.632,-1.755c-0.125,-0.083 -0.206,-0.218 -0.221,-0.367c-0.014,-0.149 0.039,-0.297 0.144,-0.403c0,0 0.854,-0.853 0.854,-0.853l-0,-1.793c0,-0.276 0.224,-0.5 0.5,-0.5c-0,0 1.066,0 1.066,0c-0,0 -1.455,-2.181 -1.455,-2.181l-1.965,-1.965c-0.093,-0.094 -0.146,-0.221 -0.146,-0.354l-0,-1c-0,-0.276 0.224,-0.5 0.5,-0.5c-0,0 0.5,0 0.5,-0l-0,-2.5c-0,-0.276 0.224,-0.5 0.5,-0.5l1,0c0.133,0 0.26,0.053 0.354,0.146c-0,0 0.502,0.503 0.502,0.503l-0.33,-0.991c-0.051,-0.152 -0.026,-0.32 0.068,-0.45c0.094,-0.131 0.245,-0.208 0.406,-0.208c-0,0 0.691,0 0.691,-0c-0,-0 0.701,-1.401 0.701,-1.401l-0.746,-0.745c-0.038,-0.038 -0.069,-0.082 -0.093,-0.13l-1,-2c-0.078,-0.155 -0.069,-0.339 0.022,-0.487c0.091,-0.147 0.252,-0.237 0.425,-0.237l1,0c0.133,0 0.26,0.053 0.354,0.146l0.821,0.822l-0.586,-1.172l-0.943,-0.942c-0.038,-0.038 -0.069,-0.082 -0.093,-0.13l-1,-2c-0.071,-0.141 -0.071,-0.307 -0,-0.448c-0,0 0.776,-1.552 0.776,-1.552l-3.553,-1.777c-0.169,-0.084 -0.276,-0.258 -0.276,-0.447l-0,-1c-0,-0.161 0.077,-0.312 0.208,-0.406c0.13,-0.094 0.298,-0.119 0.45,-0.068c0,-0 2.923,0.974 2.923,0.974c0,0 2.419,0 2.419,-0c-0,-0 -0,-0.349 0,-0.349c0,0 -1.768,-2.651 -1.768,-2.651l-6.732,0c-0.133,-0 -0.26,-0.053 -0.354,-0.146l-1,-1c-0.195,-0.196 -0.195,-0.512 0,-0.708l1,-1c0.094,-0.093 0.221,-0.146 0.354,-0.146l6,0c0.028,-0 0.055,0.002 0.082,0.007c0,-0 5.032,0.838 5.032,0.838l-0.561,-1.121c-0.078,-0.155 -0.069,-0.339 0.022,-0.487c0.091,-0.147 0.252,-0.237 0.425,-0.237c0,0 1.187,0 1.187,-0c-0.049,-0.139 -0.089,-0.289 -0.109,-0.441c-0.071,-0.524 0.054,-1.077 0.642,-1.473c0.358,-0.242 0.932,-0.363 1.566,-0.38c0.953,-0.025 2.051,0.157 2.55,0.251c-0,0 1.664,-1.664 1.664,-1.664l0,-2.793c-0,-0.276 0.224,-0.5 0.5,-0.5c0,0 1.64,0 1.64,-0c-0,-0 0.86,-2.581 0.86,-2.581l0,-2.919c-0,-0.078 0.018,-0.154 0.053,-0.224l1,-2c0.072,-0.143 0.208,-0.244 0.367,-0.27c0.159,-0.025 0.32,0.027 0.434,0.14l2,2c0.093,0.094 0.146,0.221 0.146,0.354c0,0 -0,2.882 -0,2.882c-0,-0 0.637,1.274 0.637,1.274c-0,-0 1.474,-1.475 1.474,-1.475l1.973,-2.958c0.062,-0.093 0.152,-0.162 0.258,-0.197c-0,-0 2.658,-0.886 2.658,-0.886c0,-0 0,-1.489 0,-1.489c0,0 -1.768,-2.651 -1.768,-2.651l-1.732,0c-0.215,-0 -0.406,-0.138 -0.474,-0.342l-1,-3c-0.06,-0.18 -0.013,-0.378 0.12,-0.512l1,-1c0.055,-0.054 0.122,-0.096 0.196,-0.12c-0,-0 2.966,-0.989 2.966,-0.989c0,-0 3.87,-1.935 3.87,-1.935l3.932,-4.914c0.011,-0.015 0.023,-0.029 0.036,-0.042c0,0 1.428,-1.427 1.428,-1.427l-2.232,-0.745c-0.192,-0.064 -0.326,-0.237 -0.341,-0.439c-0.014,-0.201 0.095,-0.392 0.275,-0.482c0,-0 1.851,-0.926 1.851,-0.926c0,0 0.843,-1.685 0.843,-1.685c0,-0 -0.921,-3.686 -0.921,-3.686c-0,-0 -2.549,-2.549 -2.549,-2.549l-0.646,0.647c-0.196,0.195 -0.512,0.195 -0.708,-0l-2,-2c-0.038,-0.038 -0.069,-0.082 -0.093,-0.13c-0,-0 -2.964,-5.928 -2.964,-5.928l-1.943,-1.942c-0.023,-0.024 -0.044,-0.049 -0.062,-0.077l-2,-3c-0.025,-0.037 -0.044,-0.077 -0.058,-0.119c-0,0 -0.842,-2.526 -0.842,-2.526c-0,0 -2.184,0.728 -2.184,0.728l0,1.64c-0,0.173 -0.09,0.334 -0.237,0.425c-0.148,0.091 -0.332,0.1 -0.487,0.022l-2,-1c-0.118,-0.059 -0.208,-0.163 -0.25,-0.289c-0,0 -0.886,-2.658 -0.886,-2.658l-2.64,0c-0.133,0 -0.26,-0.053 -0.354,-0.146c0,-0 -0.942,-0.943 -0.942,-0.943l-1.928,-0.964c-0.247,-0.123 -0.347,-0.424 -0.223,-0.671c-0,0 0.927,-1.854 0.927,-1.854l-0.973,-5.84c-0.005,-0.027 -0.007,-0.054 -0.007,-0.082c-0,0 -0,-10.64 -0,-10.64l-2.658,-0.886c-0.165,-0.054 -0.289,-0.19 -0.329,-0.359c-0.039,-0.169 0.011,-0.346 0.133,-0.469c0,0 1.854,-1.853 1.854,-1.853c-0,-0 -0,-4.712 -0,-4.712l-0.974,-2.923c-0.06,-0.18 -0.013,-0.378 0.12,-0.512c0,0 1.782,-1.781 1.782,-1.781l-0.902,-2.707c-0.051,-0.152 -0.026,-0.32 0.068,-0.45c0.094,-0.131 0.245,-0.208 0.406,-0.208c-0,0 3.5,0 3.5,-0l-0,-5.5c0,-0.024 0.002,-0.047 0.005,-0.071l1,-7c0.002,-0.017 0.006,-0.034 0.01,-0.05c-0,-0 0.946,-3.786 0.946,-3.786l-1.877,-2.816c-0.032,-0.047 -0.055,-0.1 -0.069,-0.156l-1,-4c-0.043,-0.17 0.007,-0.35 0.131,-0.475l2,-2c0.196,-0.195 0.512,-0.195 0.708,0c-0,0 2.509,2.51 2.509,2.51l0.69,-1.38c0.084,-0.169 0.258,-0.276 0.447,-0.276c-0,0 2.5,0 2.5,-0l-0,-5.5c-0,-0.276 0.224,-0.5 0.5,-0.5c-0,0 1.306,0 1.306,-0c0,-0 -1.769,-5.308 -1.769,-5.308l-1.984,-3.968c-0.096,-0.193 -0.059,-0.425 0.093,-0.578l2,-2c0.106,-0.105 0.254,-0.158 0.403,-0.144c0.149,0.015 0.284,0.096 0.367,0.221l2,3c0.055,0.082 0.084,0.178 0.084,0.277c-0,0 -0,1.732 0,1.732c0,0 2.306,1.538 2.306,1.538l0.747,-1.494c0.123,-0.247 0.424,-0.347 0.671,-0.223c-0,-0 1.276,0.638 1.276,0.638c-0,-0 -0,-2.882 -0,-2.882l-1.724,-0.862c-0.159,-0.079 -0.264,-0.238 -0.275,-0.416c-0.011,-0.178 0.073,-0.348 0.222,-0.447c-0,-0 2.958,-1.973 2.958,-1.973c0,0 2.819,-2.818 2.819,-2.818l-0,-1.793c0,-0.167 0.084,-0.323 0.223,-0.416l3,-2c0.082,-0.055 0.178,-0.084 0.277,-0.084c-0,0 2.793,0 2.793,-0c-0,-0 1.796,-1.796 1.796,-1.796c0,-0 1.948,-3.896 1.948,-3.896l0.989,-2.966c0.054,-0.165 0.19,-0.289 0.359,-0.329c0.169,-0.039 0.346,0.011 0.469,0.133c-0,0 1.146,1.147 1.146,1.147l-0,-2.793c0,-0.189 0.107,-0.363 0.276,-0.447c0.17,-0.085 0.372,-0.067 0.524,0.047c0,0 3.521,2.641 3.521,2.641l1.732,-3.465c0.024,-0.048 0.055,-0.092 0.093,-0.13l3,-3c0.094,-0.093 0.221,-0.146 0.354,-0.146c-0,0 2.76,0 2.76,0l3.85,-4.812c0.068,-0.086 0.163,-0.147 0.269,-0.173c-0,-0 3.752,-0.938 3.752,-0.938l3.905,-9.763c0.002,-0.006 0.005,-0.011 0.007,-0.017l4,-9c0.025,-0.056 0.06,-0.107 0.103,-0.151c0,0 3.701,-3.7 3.701,-3.7l-4.754,-6.655c-0.06,-0.085 -0.093,-0.187 -0.093,-0.291c-0,0 -0,-3.793 -0,-3.793l-2.854,-2.853c-0.099,-0.1 -0.152,-0.236 -0.145,-0.377c0.006,-0.14 0.071,-0.271 0.179,-0.361c-0,-0 5.908,-4.923 5.908,-4.923c-0,-0 2.846,-6.641 2.846,-6.641l-3.85,-5.775c-0.082,-0.123 -0.106,-0.277 -0.063,-0.419c0.042,-0.143 0.146,-0.259 0.282,-0.318c0,0 6.885,-2.95 6.885,-2.95c-0,-0 3.693,-4.617 3.693,-4.617l-3.797,-5.696c-0.126,-0.188 -0.109,-0.438 0.041,-0.608c0.15,-0.17 0.396,-0.218 0.599,-0.116c-0,-0 7.085,3.543 7.085,3.543l-0.799,-3.998c-0.022,-0.109 -0.007,-0.222 0.043,-0.322l2,-4c0.105,-0.209 0.341,-0.318 0.568,-0.261c0,-0 3.611,0.903 3.611,0.903l1.821,-3.642c0.061,-0.123 0.171,-0.215 0.302,-0.255c0.132,-0.039 0.274,-0.023 0.393,0.045c0,-0 6.826,3.9 6.826,3.9l3.805,-0.951c0.072,-0.018 0.146,-0.02 0.219,-0.005c0,-0 4.952,0.99 4.952,0.99l9.11,0l-2.55,-3.188c-0.017,-0.02 -0.031,-0.041 -0.044,-0.064l-4,-7l-5.003,-9.005c-0.077,-0.139 -0.084,-0.306 -0.018,-0.45c-0,0 4.966,-10.925 4.966,-10.925c-0,0 0.976,-9.764 0.976,-9.764l-5.926,-10.865c-0.07,-0.127 -0.08,-0.279 -0.029,-0.415c-0,0 2.9,-7.734 2.9,-7.734l-3.822,-4.778c-0.054,-0.066 -0.089,-0.146 -0.103,-0.23l-1,-6c-0.01,-0.06 -0.009,-0.121 0.003,-0.18c-0,-0 2.951,-14.756 2.951,-14.756l-7.835,-8.814c-0.02,-0.023 -0.039,-0.048 -0.055,-0.075c0,0 -5.905,-9.841 -5.905,-9.841l-11.824,-3.942c-0.074,-0.024 -0.141,-0.066 -0.196,-0.12l-6,-6c-0.014,-0.015 -0.027,-0.029 -0.039,-0.045l-11,-14c-0.008,-0.01 -0.016,-0.021 -0.023,-0.032c-0,0 -3.766,-5.649 -3.766,-5.649c-0,0 -8.023,3.566 -8.023,3.566l3.595,4.494c0.089,0.111 0.127,0.254 0.103,0.394l-1,6c-0.008,0.049 -0.023,0.097 -0.046,0.142l-3,6c-0.009,0.018 -0.019,0.036 -0.031,0.053c0,0 -1.709,2.564 -1.709,2.564l4.55,2.73c0.125,0.075 0.212,0.202 0.236,0.345c0.024,0.144 -0.015,0.292 -0.109,0.404l-5,6c-0.154,0.185 -0.418,0.234 -0.628,0.116c-0,0 -12.355,-6.918 -12.355,-6.918l-7.335,0.978c-0.174,0.023 -0.347,-0.047 -0.456,-0.184c-0,0 -3.698,-4.621 -3.698,-4.621c0,-0 -3.412,2.559 -3.412,2.559l0,14.75c-0,0.078 -0.018,0.154 -0.053,0.224l-4,8c-0.061,0.122 -0.169,0.213 -0.299,0.254c-0.131,0.04 -0.272,0.025 -0.391,-0.041c0,0 -8.67,-4.817 -8.67,-4.817c-0,0 -8.644,8.644 -8.644,8.644l-2.964,9.88c-0.019,0.064 -0.052,0.124 -0.095,0.176c0,0 -4.963,5.956 -4.963,5.956c0,-0 -1.862,3.724 -1.862,3.724l3.888,7.776c0.035,0.07 0.053,0.146 0.053,0.224l0,7c-0,0.133 -0.053,0.26 -0.146,0.354c-0,-0 -5.949,5.948 -5.949,5.948l-6.965,12.935c-0.023,0.043 -0.052,0.082 -0.086,0.117c-0,-0 -2.831,2.83 -2.831,2.83l0.974,8.761c0.022,0.198 -0.076,0.39 -0.249,0.489l-7,4c-0.057,0.033 -0.12,0.054 -0.186,0.062c0,0 -7.483,0.936 -7.483,0.936l1.914,11.486c0.009,0.053 0.009,0.108 0.001,0.161c-0,-0 -1.994,12.461 -1.994,12.461l-0,6.46c-0,0.078 -0.018,0.154 -0.053,0.224c0,-0 -1.984,3.968 -1.984,3.968l-0.989,2.966c-0.007,0.023 -0.016,0.044 -0.027,0.066l-5,10c-0.007,0.014 -0.015,0.028 -0.023,0.041c-0,0 -5.974,9.548 -5.974,9.548l8.788,4.747c0.161,0.087 0.262,0.256 0.262,0.44l0,9c0,0.068 -0.014,0.135 -0.04,0.197l-3,7c-0.102,0.237 -0.367,0.358 -0.612,0.279c-0,0 -6.218,-1.987 -6.218,-1.987c-0,-0 -6.526,-0.968 -6.526,-0.968c-0,-0 -4.794,2.876 -4.794,2.876c0,0 -3.884,3.884 -3.884,3.884l-1.962,4.905c-0.019,0.048 -0.046,0.094 -0.08,0.134c0,0 -4.847,5.816 -4.847,5.816l0.953,4.766c0.026,0.13 -0,0.265 -0.074,0.375c0,0 -3.854,5.782 -3.854,5.782l3.902,9.755c0.053,0.133 0.047,0.282 -0.017,0.41c0,-0 -1.923,3.846 -1.923,3.846l0.966,4.832c0.017,0.085 0.012,0.174 -0.016,0.256c0,0 -1.938,5.816 -1.938,5.816l3.921,8.823c0.036,0.081 0.05,0.17 0.04,0.258c-0,0 -1,8.995 -1,8.995c0,0 -0.978,10.762 -0.978,10.762c0,0 3.751,3.751 3.751,3.751l2.888,0.963c0.106,0.035 0.196,0.104 0.258,0.197l4,6c0.068,0.102 0.096,0.226 0.079,0.348l-1,7c-0.008,0.053 -0.024,0.105 -0.048,0.153l-2,4c-0.071,0.143 -0.207,0.243 -0.365,0.269c0,0 -5.533,0.922 -5.533,0.922c0,0 0.935,8.409 0.935,8.409l3.932,5.899c0.07,0.105 0.098,0.234 0.077,0.359c0,0 -0.993,5.959 -0.993,5.959l-0,6.959c-0,0.036 -0.004,0.071 -0.011,0.106c-0,0 -0.618,2.817 -1.616,4.654c-0.497,0.916 -1.12,1.578 -1.76,1.727c-1.716,0.399 -3.816,0.071 -4.156,0.013c-0,0 -4.317,0 -4.317,0l0.845,3.379c0.018,0.072 0.02,0.146 0.005,0.219l-1,5c-0.013,0.064 -0.038,0.125 -0.074,0.179c0,0 -1.872,2.808 -1.872,2.808l1.937,6.778c0.024,0.084 0.025,0.173 0.004,0.258l-1.985,7.941l-0,3.938c0,0.215 -0.138,0.406 -0.342,0.474c0,0 -1.275,0.425 -1.275,0.425l-0.557,0.48c-0.085,0.073 -0.192,0.115 -0.304,0.12l-0.038,0.001Zm77.516,75.849l-0,-7.253c-0,0 1.957,-4.891 1.957,-4.891c-0,-0 1.954,-3.909 1.954,-3.909c-0,0 0.943,-0.942 0.943,-0.942c0.054,-0.055 0.096,-0.122 0.12,-0.196l1.007,-3.021l1.987,-6.955c-0,0 0.439,-0.879 0.439,-0.879c0,0 0.521,1.563 0.521,1.563c-0.329,0.34 -0.951,1.018 -1.388,1.712c-0.304,0.482 -0.514,0.978 -0.539,1.392c-0.068,1.115 -0.976,3.875 -0.976,3.875c-0.033,0.1 -0.033,0.209 -0.001,0.309c0,0 0.224,0.688 0.268,1.422c0.025,0.411 0.013,0.844 -0.196,1.129c-0.68,0.931 -2.018,3.026 -2.018,3.026c-0.029,0.046 -0.05,0.095 -0.063,0.148l-1,4c-0.002,0.007 -0.004,0.015 -0.005,0.023l-0.994,4.969c-0,0 -0.969,2.907 -0.969,2.907l-1.047,1.571Zm38.571,-42.356c-0.059,-0.056 -0.122,-0.1 -0.186,-0.131c-0.204,-0.1 -0.442,-0.12 -0.711,0.056c-0.168,0.11 -0.394,0.359 -0.629,0.875c-0.754,1.655 -1.042,4.15 -1.042,4.15c-0.002,0.019 -0.003,0.038 -0.003,0.057l0,5c0,0.276 0.224,0.5 0.5,0.5l1.793,0c-0,0 -0.089,0.089 -0.089,0.089c-0,0 -1.928,0.964 -1.928,0.964c-0.048,0.024 -0.092,0.055 -0.13,0.093l-2,2c-0.195,0.196 -0.195,0.512 0,0.708l0.51,0.509c-0,0 -1.38,0.69 -1.38,0.69c-0.048,0.024 -0.092,0.055 -0.13,0.093l-3,3c-0.054,0.055 -0.096,0.122 -0.12,0.196l-0.031,0.091c-0.021,-0.16 -0.119,-0.304 -0.271,-0.38l-1.815,-0.908c-0,0 -0.869,-2.607 -0.869,-2.607c-0,0 0.907,-1.814 0.907,-1.814c0.035,-0.07 0.053,-0.146 0.053,-0.224l0,-3c0,-0.078 -0.018,-0.154 -0.053,-0.224l-0.907,-1.814c-0,-0 0.897,-2.692 0.897,-2.692c0,0 2.917,-2.916 2.917,-2.916c0.023,-0.024 0.044,-0.049 0.062,-0.077l1.973,-2.958c-0,-0 2.474,-2.475 2.474,-2.475c0,0 0.69,1.38 0.69,1.38c0.064,0.128 0.18,0.222 0.319,0.259c0.138,0.037 0.286,0.013 0.405,-0.067l2.529,-1.686c0,0 0.617,1.234 0.617,1.234l-1.352,2.029Zm-116.818,-10.604l-0.608,-1.218c-0,0 2.606,-1.738 2.606,-1.738c0,0 1.457,-0.728 1.457,-0.728c-0,0 0.681,2.042 0.681,2.042c-0,-0 -1.581,0.79 -1.581,0.79l-2.555,0.852Zm0.472,-23.631l-0.299,0.1l0.003,0.009l0.456,0.322l-0.16,-0.431Zm132.796,-40.94c-0.257,0.269 -0.857,0.812 -0.857,0.812c-0.101,0.092 -0.161,0.221 -0.164,0.358c-0.003,0.137 0.05,0.269 0.146,0.366l0.854,0.853c0,0 -0,1.793 -0,1.793c0,0.167 0.084,0.323 0.223,0.416l0.598,0.399c-0,-0 -0.977,-0.244 -0.977,-0.244c0,-0 -0.897,-1.795 -0.897,-1.795c-0.084,-0.169 -0.258,-0.276 -0.447,-0.276l-1.691,-0l-0.862,-1.724c-0.048,-0.096 -0.127,-0.175 -0.223,-0.223l-0.921,-0.46c0,-0 1.562,-0.521 1.562,-0.521c-0,0 0.781,0.782 0.781,0.782c0.094,0.093 0.221,0.146 0.354,0.146l1,0c0.133,0 0.26,-0.053 0.354,-0.146l2,-2c0.168,-0.169 0.194,-0.433 0.062,-0.631l-0.613,-0.92c-0,-0 0.92,0.613 0.92,0.613c0.082,0.055 0.178,0.084 0.277,0.084l0.793,0c-0,-0 1,1 1,1c-0,0 -1.793,0 -1.793,0c-0.124,0 -0.244,0.046 -0.336,0.13c0,-0 -0.996,0.925 -1.095,1.089c-0.02,0.034 -0.036,0.067 -0.048,0.099Z"/></svg>