<?xml version="1.0" encoding="UTF-8" standalone="no"?><!DOCTYPE svg PUBLIC "-//W3C//DTD SVG 1.1//EN" "http://www.w3.org/Graphics/SVG/1.1/DTD/svg11.dtd"><svg width="71px" height="45px" version="1.1" xmlns="http://www.w3.org/2000/svg" xmlns:xlink="http://www.w3.org/1999/xlink" xml:space="preserve" xmlns:serif="http://www.serif.com/" style="fill-rule:evenodd;clip-rule:evenodd;stroke-linejoin:round;stroke-miterlimit:2;"><path id="switzerland" d="M51.879,11.879l-0.27,-0.505l-0.012,0.018c-0.694,1.031 -1.097,2.273 -1.097,3.608c0,3.587 2.913,6.5 6.5,6.5c1.358,0 2.619,-0.417 3.638,-1.155c0.039,0.041 0.086,0.076 0.138,0.102l4,2c0.07,0.035 0.146,0.053 0.224,0.053l2,0c0.189,0 0.363,-0.107 0.447,-0.276l0.964,-1.928l0.796,-0.796c0,-0 0.586,0 0.586,0c-0,-0 0.707,0.707 0.707,0.707c0,0 0,1.675 0,1.675c-0,-0 -0.911,1.822 -0.911,1.822c0,-0 -0.943,0.942 -0.943,0.942c-0.195,0.196 -0.195,0.512 0,0.708l1.854,1.853c0,0 0,1.293 0,1.293c-0,0 -2,0 -2,0c0,-0 0,-1.5 0,-1.5c0,-0.276 -0.224,-0.5 -0.5,-0.5l-2,0c-0.133,0 -0.26,0.053 -0.354,0.146l-2,2c-0.093,0.094 -0.146,0.221 -0.146,0.354l0,2c0,0.189 0.107,0.363 0.276,0.447l1.553,0.777c0,-0 -0.776,1.552 -0.776,1.552c-0.096,0.193 -0.059,0.425 0.093,0.578l0.647,0.646c-0,0 -0.293,0.293 -0.293,0.293c-0,-0 -1.589,-1.589 -1.589,-1.589c-0,-0 -0.964,-1.928 -0.964,-1.928c-0.123,-0.247 -0.424,-0.347 -0.671,-0.223l-2,1c-0.048,0.024 -0.092,0.055 -0.13,0.093l-0.853,0.854c-0,0 -1.675,0 -1.675,0c0,-0 -1.709,-0.855 -1.709,-0.855c-0,0 -0.935,-2.803 -0.935,-2.803c-0.068,-0.204 -0.259,-0.342 -0.474,-0.342l-2,-0c-0.276,-0 -0.5,0.224 -0.5,0.5l0,4.793c0,-0 -1.854,1.853 -1.854,1.853c-0.038,0.038 -0.069,0.082 -0.093,0.13l-2,4c-0.071,0.141 -0.071,0.307 -0,0.448l0.888,1.776c-0,-0 -0.75,1.5 -0.75,1.5c-0,-0 -0.484,-0 -0.484,-0c0,0 -0.796,-0.796 -0.796,-0.796c-0,-0 -0.964,-1.928 -0.964,-1.928c-0.024,-0.048 -0.055,-0.092 -0.093,-0.13l-0.623,-0.622c0.246,-0.243 0.535,-0.581 0.691,-0.952l-0.001,0l0.16,-0.468c0.013,-0.039 0.022,-0.081 0.025,-0.125c0.017,-0.244 -0.034,-0.493 -0.175,-0.732c-0.021,-0.036 -0.046,-0.068 -0.074,-0.098l-0.38,-0.386c-0.052,-0.053 -0.116,-0.094 -0.185,-0.119c-0.232,-0.085 -0.473,-0.068 -0.745,0.031l-0.487,0.199c-0,-0 -0.618,0.127 -0.618,0.127c-0.875,0.012 -1.561,-0.825 -1.561,-0.825c-0.009,-0.01 -0.018,-0.02 -0.027,-0.03l-1.854,-1.853c0,-0 0,-4.793 0,-4.793c0,-0.276 -0.224,-0.5 -0.5,-0.5l-2,-0c-0.189,-0 -0.363,0.107 -0.447,0.276l-0.941,1.882c0,-0 -2.889,1.926 -2.889,1.926c-0.149,0.099 -0.233,0.269 -0.222,0.447c0.011,0.178 0.116,0.337 0.275,0.416l1.627,0.813c-0.099,0.445 -0.167,1.164 0.132,1.923c0.003,0.008 0.006,0.018 0.008,0.026c-0.009,0.009 -0.021,0.019 -0.031,0.026c-0.057,0.039 -0.128,0.07 -0.204,0.097c-0.534,0.187 -1.299,0.168 -1.299,0.168c-0.192,-0.003 -0.37,0.104 -0.456,0.276l-0.926,1.851c0,0 -1.851,0.926 -1.851,0.926c-0.048,0.024 -0.092,0.055 -0.13,0.093l-0.745,0.746c0,-0 -1.677,-0.839 -1.677,-0.839c-0.07,-0.035 -0.146,-0.053 -0.224,-0.053l-2,-0c-0.078,0 -0.154,0.018 -0.224,0.053l-1.968,0.984c0,-0 -2.808,0.936 -2.808,0.936c0,-0 -2.679,-0.893 -2.679,-0.893c-0,-0 -1.905,-2.857 -1.905,-2.857c-0.093,-0.139 -0.249,-0.223 -0.416,-0.223l-0.5,-0c0,-0 0,-1.5 0,-1.5c0,-0.276 -0.224,-0.5 -0.5,-0.5l-1.191,-0c0,0 1.638,-3.276 1.638,-3.276c0.096,-0.193 0.059,-0.425 -0.093,-0.578l-0.854,-0.853c-0,-0 0,-1.793 0,-1.793c0,-0.215 -0.138,-0.406 -0.342,-0.474l-3,-1c-0.103,-0.035 -0.213,-0.035 -0.316,-0l-3,1c-0.074,0.024 -0.141,0.066 -0.196,0.12l-3,3c-0.152,0.153 -0.189,0.385 -0.093,0.578l0.638,1.276c-0,-0 -0.191,-0 -0.191,-0c-0.189,0 -0.363,0.107 -0.447,0.276l-0.862,1.724c-0,-0 -1.382,-0 -1.382,-0c0,-0 -0.5,-1 -0.5,-1c0,-0 1.191,-0 1.191,-0c0.276,0 0.5,-0.224 0.5,-0.5l0,-1.882c0,0 0.947,-1.894 0.947,-1.894c0.096,-0.193 0.059,-0.425 -0.093,-0.578l-1.647,-1.646c0,-0 1.647,-1.646 1.647,-1.646c0.093,-0.094 0.146,-0.221 0.146,-0.354l0,-0.793c-0,0 1.796,-1.796 1.796,-1.796c0,-0 1.822,-0.911 1.822,-0.911c0,-0 0.882,-0 0.882,-0c0.276,-0 0.5,-0.224 0.5,-0.5l0,-4.5c-0,-0 0.5,-0 0.5,-0c0.078,-0 0.154,-0.018 0.224,-0.053l2,-1c0.096,-0.048 0.175,-0.127 0.223,-0.223l0.964,-1.928c-0,0 1.943,-1.942 1.943,-1.942c0.038,-0.038 0.069,-0.082 0.093,-0.13l0.964,-1.928c-0,0 1.943,-1.942 1.943,-1.942c0.143,-0.143 0.185,-0.359 0.108,-0.545c-0.077,-0.187 -0.26,-0.309 -0.462,-0.309l-1.191,-0c0,0 0.638,-1.276 0.638,-1.276c0.035,-0.07 0.053,-0.146 0.053,-0.224l0,-1.5c0,-0 2,-0 2,-0c0,0 0,1.5 0,1.5c0,0.276 0.224,0.5 0.5,0.5l3,-0c0.133,-0 0.26,-0.053 0.354,-0.146l3.768,-3.769l0.462,0.692c0.125,0.188 0.36,0.269 0.574,0.197l2.842,-0.947c-0,0 2.842,0.947 2.842,0.947c0.126,0.042 0.263,0.033 0.382,-0.027l3.677,-1.839c0,0 1.745,1.746 1.745,1.746c0.153,0.152 0.385,0.189 0.578,0.093l2,-1c0.128,-0.064 0.222,-0.18 0.259,-0.319c0.037,-0.138 0.013,-0.286 -0.067,-0.405l-1.637,-2.456c0,0 2.147,-0.715 2.147,-0.715c0,-0 2.797,1.864 2.797,1.864c0.054,0.036 0.115,0.061 0.179,0.074l4.988,0.998c0,-0 3.905,0.976 3.905,0.976c-0,0 2.817,1.878 2.817,1.878c0,0 0.829,1.658 0.829,1.658l-0.258,0.516l-0.183,-0.016c-2.244,-0 -4.224,1.14 -5.39,2.873l0.269,0.505l-0,0.001Zm-25.576,-7.925l-0.149,0.277l-0.145,-0.246l0.145,-0.254l0.149,0.223Z"/></svg>