<?xml version="1.0" encoding="UTF-8" standalone="no"?><!DOCTYPE svg PUBLIC "-//W3C//DTD SVG 1.1//EN" "http://www.w3.org/Graphics/SVG/1.1/DTD/svg11.dtd"><svg width="297px" height="125px" version="1.1" xmlns="http://www.w3.org/2000/svg" xmlns:xlink="http://www.w3.org/1999/xlink" xml:space="preserve" xmlns:serif="http://www.serif.com/" style="fill-rule:evenodd;clip-rule:evenodd;stroke-linejoin:round;stroke-miterlimit:2;"><path id="turkey" d="M30.254,124.718l-0.711,-3.554c-0,0 1.753,-1.753 1.753,-1.753c0,-0 1.928,-0.964 1.928,-0.964c0.096,-0.048 0.175,-0.127 0.223,-0.223l0.806,-1.613c0,0 1.968,0.656 1.968,0.656c-0,0 -1.637,2.456 -1.637,2.456c-0.012,0.017 -0.022,0.035 -0.031,0.053l-0.926,1.851c0,0 -1.851,0.926 -1.851,0.926c-0.077,0.039 -0.144,0.097 -0.192,0.17l-1.33,1.995Zm156.159,-102.935c0.031,0.031 0.062,0.062 0.09,0.093c0.526,0.58 1.083,1.404 1.083,1.404c0.056,0.083 0.135,0.147 0.228,0.184l5,2c0.066,0.026 0.136,0.039 0.207,0.036c-0,-0 6.612,-0.289 7.872,-0.012c0.448,0.099 1.159,-0.04 1.927,-0.328c1.384,-0.518 2.999,-1.468 3.365,-1.688c-0.001,0.001 4.865,-0.972 4.865,-0.972c-0.001,0 3.788,-0 3.788,-0c0.481,0.347 2.149,1.539 2.932,1.944c0.935,0.484 4.145,1.049 4.145,1.049c0.028,0.005 0.057,0.007 0.085,0.007l4,-0c0.078,-0 0.154,-0.018 0.224,-0.053l3.981,-1.99c-0,-0 4.949,-1.98 4.949,-1.98c0,-0 3.967,-0.992 3.967,-0.992c0.07,-0.017 0.135,-0.05 0.191,-0.095l5,-4c0.015,-0.011 0.029,-0.023 0.042,-0.036l2.799,-2.8c0,-0 3.726,0.931 3.726,0.931c0.116,0.029 0.238,0.016 0.345,-0.038l1.894,-0.947c0,-0 3.832,-0 3.832,-0c0,0 4.952,0.99 4.952,0.99c0.164,0.033 0.333,-0.018 0.452,-0.136l1.853,-1.854c0,0 2.525,-0 2.525,-0c0,0 1.852,2.777 1.852,2.777c0.037,0.055 0.084,0.102 0.139,0.139l2.916,1.945c0,-0 1.945,2.916 1.945,2.916c0.062,0.093 0.152,0.162 0.258,0.197l2.836,0.946c0.209,0.31 0.716,1.031 1.224,1.51c0.339,0.319 0.699,0.522 0.994,0.562c0.074,0.085 0.418,0.483 0.651,0.855c0.74,1.187 1.609,3.02 1.898,3.644c0,0 -1.892,3.785 -1.892,3.785c-0.017,0.033 -0.029,0.067 -0.038,0.103l-1,4c-0.029,0.116 -0.016,0.238 0.038,0.345l3,6c0.055,0.109 0.148,0.195 0.261,0.24l5,2c0.059,0.024 0.122,0.036 0.186,0.036l4.793,-0c-0,0 2.599,2.599 2.599,2.599c-0,-0 -0.825,1.65 -0.825,1.65c-0,-0 -1.983,2.974 -1.983,2.974c-0.055,0.082 -0.084,0.178 -0.084,0.277l-0,3.5c-0,0 -5.5,-0 -5.5,-0c-0.276,-0 -0.5,0.224 -0.5,0.5l-0,3c0,0.099 0.029,0.195 0.084,0.277l1.916,2.874c-0,0 -0,2.849 -0,2.849c-0,0.054 0.009,0.107 0.026,0.158l0.974,2.923c-0,0 -0,3.919 -0,3.919c-0,0.033 0.003,0.066 0.01,0.098l1,5c0.03,0.151 0.128,0.28 0.266,0.349c0.833,0.416 1.271,0.807 1.399,1.255c0.086,0.3 0.015,0.609 -0.122,0.934c-0.173,0.411 -0.455,0.838 -0.767,1.288c-0.575,0.83 -1.248,1.731 -1.663,2.721c-0.449,1.072 -0.606,2.244 -0.087,3.541c0.257,0.642 0.894,1.454 1.732,2.369c1.177,1.284 2.754,2.8 4.094,4.384c0.814,0.961 1.539,1.947 2.023,2.921c0.449,0.905 0.69,1.794 0.553,2.639c-0.134,0.826 -0.64,1.594 -1.622,2.292c-1.079,0.765 -2.702,1.432 -5.012,1.978c-0.147,0.035 -0.27,0.052 -0.373,0.049c-0.045,-0.002 -0.082,0.007 -0.103,-0.016c-0.054,-0.059 -0.045,-0.155 -0.049,-0.265c-0.008,-0.229 0.026,-0.502 0.067,-0.802c0.082,-0.605 0.197,-1.304 0.178,-1.985c-0.021,-0.769 -0.212,-1.512 -0.738,-2.113c-0.441,-0.502 -1.125,-0.915 -2.188,-1.127c-0.867,-0.174 -1.459,-0.136 -1.91,0.005c-0.476,0.149 -0.808,0.415 -1.125,0.728c-0.468,0.462 -0.901,1.057 -2.145,1.264c-2.08,0.346 -4.514,-0.462 -7.028,-1.304c-2.659,-0.89 -5.4,-1.827 -7.915,-1.702c-1.526,0.075 -2.539,1.093 -3.482,2.296c-0.703,0.896 -1.365,1.901 -2.294,2.514c-0.032,-0.1 -0.065,-0.21 -0.095,-0.316c-0.233,-0.823 -0.583,-1.99 -1.193,-2.722c-0.497,-0.595 -1.15,-0.935 -2.009,-0.763c-1.661,0.332 -3.167,1.141 -4.664,1.982c-1.413,0.794 -2.819,1.617 -4.365,2.024c-2.834,0.747 -5.68,0.501 -8.48,0.319c-2.923,-0.19 -5.798,-0.311 -8.564,0.695c-9.295,3.38 -8.282,5.302 -17.915,6.977c-5.342,0.929 -7.183,0.185 -9.61,-1.063c-1.695,-0.871 -3.663,-1.969 -7.172,-2.926c-1.861,-0.508 -3.974,0.066 -6.088,1.03c-2.963,1.351 -5.931,3.47 -8.152,3.964c-0.667,0.148 -1.619,-0.055 -2.716,-0.388c-1.794,-0.546 -3.936,-1.472 -5.894,-2.146c-1.361,-0.468 -2.638,-0.814 -3.662,-0.855c-0.79,-0.031 -1.445,0.121 -1.92,0.477c-2.215,1.662 -1.787,4.177 -0.833,6.539c0.517,1.28 1.175,2.506 1.52,3.478c0.101,0.284 0.174,0.543 0.2,0.771c0.017,0.152 0.018,0.283 -0.034,0.388c-0.076,0.152 -0.239,0.122 -0.414,0.097c-0.251,-0.035 -0.531,-0.123 -0.82,-0.215c-0.521,-0.165 -1.064,-0.341 -1.537,-0.363c-0.419,-0.019 -0.793,0.073 -1.094,0.315c-1.64,1.311 -2.954,2.352 -4.055,2.873c-0.615,0.29 -1.144,0.417 -1.624,0.264c-0.396,-0.127 -0.742,-0.442 -1.078,-0.95c-0.391,-0.592 -0.752,-1.427 -1.107,-2.54l-0.271,-1.103l5.801,-5.8c0.124,-0.125 0.174,-0.305 0.131,-0.475l-1,-4c-0.041,-0.166 -0.165,-0.299 -0.327,-0.353l-3,-1c-0.214,-0.072 -0.449,0.009 -0.574,0.197l-1.852,2.777c0,0 -3.732,0 -3.732,0c-0.189,0 -0.363,0.107 -0.447,0.276l-0.908,1.815c0,0 -2.619,0.873 -2.619,0.873c-0.602,-0.269 -2.604,-1.179 -3.765,-1.89c-1.385,-0.849 -2.97,-1.981 -2.97,-1.981c-0.085,-0.06 -0.187,-0.093 -0.291,-0.093l-5,0c-0.133,0 -0.26,0.053 -0.354,0.146l-4,4c-0.013,0.013 -0.025,0.027 -0.036,0.042l-3.895,4.868c-0,-0 -3.836,0.959 -3.836,0.959c-0.056,0.014 -0.109,0.037 -0.156,0.069l-2.918,1.945c-0,0 -4.895,0.979 -4.895,0.979c-0,0 -5.951,0.992 -5.951,0.992c-0,0 -3.835,0 -3.835,0c-0.559,-0.296 -3.123,-1.661 -4.277,-2.435c-0.193,-0.129 -0.396,-0.297 -0.42,-0.317c-0.094,-0.168 -0.303,-0.472 -0.605,-0.852c-1.317,-1.654 -4.446,-5.225 -4.446,-5.225c-0.095,-0.109 -0.232,-0.171 -0.376,-0.171l-1.867,0c-0,-0 -6.885,-3.934 -6.885,-3.934c-0.029,-0.016 -0.059,-0.03 -0.09,-0.04l-3.021,-1.007l-7,-2c-0.097,-0.027 -0.2,-0.025 -0.295,0.007l-3,1c-0.149,0.049 -0.267,0.167 -0.316,0.316l-1,3c-0.004,0.012 -0.008,0.024 -0.011,0.037l-1.905,7.621c-0,-0 -4.61,0 -4.61,0c-0.077,0 -0.153,0.018 -0.222,0.052c0,-0 -3.59,1.79 -4.842,1.952c-0.748,0.097 -1.434,0.184 -1.987,0.174c-0.293,-0.006 -0.541,-0.032 -0.723,-0.124c-0.563,-0.284 -3.648,-1.824 -3.975,-1.987c0,-0 -2.751,-1.835 -2.751,-1.835c-0,0 -0,-3.732 -0,-3.732c-0,-0.133 -0.053,-0.26 -0.146,-0.354l-1,-1c-0.038,-0.038 -0.082,-0.069 -0.13,-0.093l-2,-1c-0.119,-0.06 -0.256,-0.069 -0.382,-0.027l-2.745,0.915c-0.303,-0.242 -0.874,-0.717 -1.28,-1.155c-0.004,-0.005 -0.832,-1.171 -0.832,-1.171c-0.012,-0.017 -0.025,-0.033 -0.039,-0.048c-0.624,-0.685 -1.642,-1.464 -1.642,-1.464c-0.088,-0.067 -0.194,-0.103 -0.304,-0.103l-5,-0c-0.276,-0 -0.5,0.224 -0.5,0.5l-0,1c-0,-0.133 -0.053,-0.26 -0.146,-0.354l-0.854,-0.853c-0,-0 -0,-0.484 -0,-0.484c0,0 1.724,-0.862 1.724,-0.862c0.048,-0.024 0.092,-0.055 0.13,-0.093l2,-2c0.152,-0.153 0.19,-0.386 0.093,-0.578c-0.097,-0.193 -0.306,-0.302 -0.519,-0.271c-0,0 -1.793,0.273 -2.802,0.011c-1.158,-0.301 -2.153,-0.029 -2.262,0.003c0.006,-0.002 -3.943,0.985 -3.943,0.985c-0.376,0.026 -3.015,0.201 -3.803,0.01c-0.535,-0.13 -0.623,-0.587 -0.623,-0.587c-0.024,-0.159 -0.122,-0.297 -0.264,-0.371c-0.142,-0.074 -0.311,-0.075 -0.455,-0.003l-1.776,0.888c0,-0 -0.882,-0.441 -0.882,-0.441c0,-0 1,-0.5 1,-0.5c0,-0 3.882,-0 3.882,-0c0.133,-0 0.26,-0.053 0.354,-0.146l1,-1c0.093,-0.094 0.146,-0.221 0.146,-0.354l-0,-3c-0,-0.202 -0.122,-0.385 -0.309,-0.462c-0.186,-0.077 -0.402,-0.035 -0.545,0.108l-0.646,0.647c-0,-0 -0.646,-0.647 -0.646,-0.647c-0.094,-0.093 -0.221,-0.146 -0.354,-0.146l-0.5,-0c-0,0 -0,-0.5 -0,-0.5c-0,-0.133 -0.053,-0.26 -0.146,-0.354l-1,-1c-0.153,-0.152 -0.385,-0.189 -0.578,-0.093l-1.552,0.776c-0,0 -0.724,-1.447 -0.724,-1.447c-0,-0 -0,-2.882 -0,-2.882c-0,-0.189 -0.107,-0.363 -0.276,-0.447l-0.823,-0.412c0.708,-0.208 1.515,-0.48 1.879,-0.727c0.306,-0.207 0.508,-0.569 0.588,-1.028c0.141,-0.814 -0.106,-1.968 -0.419,-2.606c-0.131,-0.267 -0.136,-0.721 -0.12,-1.166c0.027,-0.77 0.163,-1.525 0.163,-1.525c0.026,-0.146 -0.013,-0.296 -0.108,-0.41c-0.095,-0.113 -0.236,-0.179 -0.384,-0.179l-0.882,0c0,-0 -1.894,-0.947 -1.894,-0.947c-0.077,-0.039 -0.163,-0.057 -0.249,-0.052c-0,-0 -1.975,0.101 -2.923,0.002c-0.521,-0.055 -0.552,-0.518 -0.552,-0.518c-0.002,-0.072 -0.02,-0.144 -0.053,-0.209l-1,-2c-0.084,-0.169 -0.258,-0.276 -0.447,-0.276l-2,0c-0.133,0 -0.26,0.053 -0.354,0.146l-0.646,0.647c-0,-0 -0.646,-0.647 -0.646,-0.647c-0.038,-0.038 -0.082,-0.069 -0.13,-0.093l-2,-1c-0.016,-0.008 -0.032,-0.015 -0.049,-0.021l2.179,-2.178c0.084,-0.085 0.132,-0.193 0.143,-0.303l0.018,0.07c0.009,0.036 0.021,0.07 0.038,0.103l1,2c0.084,0.169 0.258,0.276 0.447,0.276l3,0c0.054,0 0.107,-0.009 0.158,-0.026l6,-2c0.199,-0.066 0.336,-0.25 0.342,-0.459c0.006,-0.21 -0.119,-0.401 -0.314,-0.479l-4.856,-1.943c-0,0 -1.551,-2.326 -1.551,-2.326c0,0 2.379,-0.793 2.379,-0.793c0.14,-0.046 0.252,-0.152 0.306,-0.288l2,-5c0.062,-0.154 0.043,-0.329 -0.05,-0.466c-0.093,-0.138 -0.248,-0.22 -0.414,-0.22l-2.61,0c0,0 -0.905,-3.621 -0.905,-3.621c-0.003,-0.013 -0.007,-0.025 -0.011,-0.037l-0.927,-2.782c0,0 2.882,-4.803 2.882,-4.803c0.071,-0.119 0.09,-0.263 0.051,-0.397c-0.039,-0.134 -0.132,-0.245 -0.256,-0.307l-2,-1c-0.119,-0.06 -0.256,-0.069 -0.382,-0.027l-5.923,1.974c-0,0 -4.419,0 -4.419,0c-0,-0 -0,-3.45 -0,-3.45c0,-0 0.961,-4.803 0.961,-4.803c-0,-0 1.858,-1.858 1.858,-1.858c-0,-0 2.958,-1.973 2.958,-1.973c0.028,-0.018 0.053,-0.039 0.077,-0.062l3.927,-3.928c-0,0 4.755,-1.902 4.755,-1.902c-0,0 3.843,0.961 3.843,0.961c0.007,0.002 0.015,0.004 0.023,0.005l5,1c0.085,0.017 0.174,0.012 0.256,-0.016l2.9,-0.966c0.688,0.063 4.523,0.389 7.022,-0.014c1.287,-0.208 2.494,0.008 3.729,0.283c1.324,0.295 2.677,0.658 4.17,0.723c3.076,0.132 5.259,-1.06 5.259,-1.06c0.162,-0.088 0.262,-0.257 0.262,-0.44l-0,-2c-0,-0.215 -0.138,-0.406 -0.342,-0.474l-2.03,-0.677c-0,-0 2.023,-1.349 2.023,-1.349c0,0 3.849,0 3.849,0c0.028,0 0.055,-0.002 0.082,-0.007l6,-1c0.013,-0.002 0.026,-0.005 0.039,-0.008l4,-1c0.216,-0.054 0.37,-0.244 0.379,-0.466c0.008,-0.222 -0.131,-0.423 -0.342,-0.493l-3,-1c-0.025,-0.009 -0.05,-0.015 -0.076,-0.019l-5.871,-0.979c-0,0 -4.648,-3.718 -4.648,-3.718c-0,0 0.824,-3.298 0.824,-3.298c0.719,0.019 2.269,0.048 3.635,-0.012c0.85,-0.038 1.645,0.286 2.41,0.566c0.921,0.337 1.808,0.611 2.674,0.423c1.054,-0.229 2.84,0.071 3.931,0.127c0.406,0.021 0.735,0.006 0.938,-0.049c0.184,-0.051 0.311,-0.137 0.394,-0.23c0.029,-0.015 0.34,-0.172 0.596,-0.262c0.667,-0.233 1.563,-0.452 1.951,-0.543c0.518,0.31 2.072,1.255 2.757,1.847c0.296,0.254 0.925,0.485 1.675,0.649c1.544,0.337 3.62,0.471 3.62,0.471c0.016,0.001 0.032,0.001 0.048,0.001c-0,-0 3.724,-0.119 4.936,-0.002c1.299,0.125 1.899,-0.065 4.24,-1.036c2.095,-0.87 2.321,-1.938 2.318,-2.366c0,0.001 0.878,-1.754 0.878,-1.754c-0,0 2.879,-1.919 2.879,-1.919c0,-0 14.916,-8.95 14.916,-8.95c-0,0 4.915,-0.983 4.915,-0.983c0.03,-0.006 0.059,-0.014 0.088,-0.026l4.91,-1.964c0,0 7.863,-0 7.863,-0c-0,0 5.959,0.993 5.959,0.993c0.027,0.005 0.054,0.007 0.082,0.007l6,0c0.041,0 0.082,-0.005 0.121,-0.015l4,-1c0.056,-0.014 0.109,-0.037 0.156,-0.069l2.41,-1.606c0,-0 0.828,3.311 0.828,3.311c0.022,0.088 0.067,0.168 0.131,0.233l3,3c0.017,0.016 0.035,0.032 0.054,0.046l4,3c0.14,0.105 0.324,0.129 0.486,0.064l4.85,-1.94c-0,0 3.515,0.879 3.515,0.879c0.093,0.722 0.268,2.463 -0.03,3.453c-0.166,0.552 0.073,1.166 0.579,1.722c0.849,0.933 2.431,1.746 2.655,1.858c-0.007,-0.003 2.968,1.98 2.968,1.98c0.115,0.077 0.258,0.103 0.393,0.07c0.136,-0.032 0.251,-0.119 0.32,-0.24c-0,-0 0.984,-1.742 2.817,-2.814c0.638,-0.374 1.416,-0.135 2.125,0.224c1.227,0.622 2.263,1.692 2.263,1.692c0.025,0.026 0.052,0.048 0.082,0.068l3.009,2.006c-0,-0 3.361,2.133 6.109,3.052c1.046,0.35 1.652,0.221 2.001,-0.031c0.39,-0.283 0.541,-0.773 0.562,-1.295c0.005,-0.109 0.007,-0.239 0.009,-0.365Zm-184.413,58.51l-0.5,-0.5c-0,-0 -0,-0.675 -0,-0.675c0,0 0.947,-1.894 0.947,-1.894c0.035,-0.07 0.053,-0.146 0.053,-0.224l-0,-1c0,-0.189 -0.107,-0.363 -0.276,-0.447l-1.724,-0.862c-0,-0 -0,-0.484 -0,-0.484c-0,0 0.707,-0.707 0.707,-0.707c0,-0 1.484,-0 1.484,-0c-0,0 0.809,1.618 0.809,1.618c-0,0 -0,2.764 -0,2.764c-0,-0 -0.911,1.822 -0.911,1.822l-0.589,0.589Zm8.415,-4.572c-0.018,-0.026 -0.038,-0.051 -0.061,-0.075l-1.854,-1.853c-0,-0 0,-0.484 0,-0.484c0,0 1.166,-0.583 1.166,-0.583l0.749,2.995Zm-7.55,-14.293l-2.365,-0.788c-0,-0 -0,-0.28 -0,-0.28c0,0 2.658,-0.886 2.658,-0.886c0.074,-0.024 0.141,-0.066 0.196,-0.12l0.916,-0.917c0,0 2.477,-0.826 2.477,-0.826c-0,0 0.806,1.613 0.806,1.613c0.048,0.096 0.127,0.175 0.223,0.223l1.724,0.862c-0,0 -0,1.191 -0,1.191c-0,-0 -0.5,-0 -0.5,-0c-0.173,-0 -0.334,0.09 -0.425,0.237c-0.091,0.148 -0.1,0.332 -0.022,0.487l0.776,1.552c0,0 -1.329,0.665 -1.329,0.665c0,-0 -2.882,-1.441 -2.882,-1.441c0,-0 1.106,-0.553 1.106,-0.553c0.096,-0.048 0.175,-0.127 0.223,-0.223l1,-2c0.078,-0.155 0.069,-0.339 -0.022,-0.487c-0.091,-0.147 -0.252,-0.237 -0.425,-0.237l-2,-0c-0.133,0 -0.26,0.053 -0.354,0.146l-1.781,1.782Zm7.005,-25.946l0.066,0.012l-0.094,0.032c-0.149,0.049 -0.267,0.167 -0.316,0.316l-0.946,2.837c-0,0 -2.08,1.387 -2.08,1.387c-0,-0 -0,-0.948 -0,-0.948c0,0 0.947,-1.894 0.947,-1.894c0.035,-0.07 0.053,-0.146 0.053,-0.224l-0,-0.679c0.408,-0.183 1.175,-0.514 1.787,-0.707c0.229,-0.072 0.547,-0.126 0.583,-0.132Zm1.166,-0.355c0.841,-0.522 1.998,-1.499 2.244,-1.709c-0.002,0.002 1.944,-0.971 1.944,-0.971c0.143,-0.072 0.244,-0.208 0.27,-0.367c0.025,-0.159 -0.027,-0.32 -0.14,-0.434l-1,-1c-0.094,-0.093 -0.221,-0.146 -0.354,-0.146l-9.691,-0c0,-0 -0.701,-1.401 -0.701,-1.401c0,-0 1.746,-1.745 1.746,-1.745c0.023,-0.024 0.044,-0.049 0.062,-0.077l2,-3c0.055,-0.082 0.084,-0.178 0.084,-0.277l-0,-2.919c0,0 0.909,-2.726 0.909,-2.726c-0,-0 1.815,-0.908 1.815,-0.908c0.048,-0.024 0.092,-0.055 0.13,-0.093l2,-2c0.125,-0.126 0.175,-0.309 0.13,-0.481c-0,0 -0.778,-2.963 -0.995,-3.978c-0.12,-0.56 -0.377,-0.884 -0.626,-1.08c-0.279,-0.22 -0.565,-0.286 -0.727,-0.306l-1.84,-0.92c0,0 -0.589,-0.589 -0.589,-0.589c0,0 4.549,-4.549 4.549,-4.549c-0,0 3.865,-0.966 3.865,-0.966c0.036,-0.009 0.07,-0.021 0.103,-0.038l1.968,-0.984c-0,0 2.77,-0.923 2.77,-0.923c-0,-0 1.709,0.854 1.709,0.854c-0,0 2.929,3.906 2.929,3.906c0.145,0.193 0.407,0.255 0.624,0.147l3.894,-1.947c0,-0 2.073,-0 2.073,-0c-0,-0 -0.638,1.276 -0.638,1.276c-0.071,0.141 -0.071,0.307 -0,0.448l2,4c0.009,0.018 0.019,0.036 0.031,0.053l2,3c0.031,0.048 0.071,0.089 0.116,0.123l4,3c0.024,0.018 0.05,0.034 0.076,0.047l4,2c0.022,0.011 0.043,0.02 0.066,0.027l5.658,1.886c-0,0 0,1.522 0,1.522c-0,-0 -0.855,1.709 -0.855,1.709c0,0 -2.645,0.882 -2.645,0.882c0,-0 -2.645,-0.882 -2.645,-0.882c-0,0 -0.908,-1.815 -0.908,-1.815c-0.103,-0.207 -0.336,-0.316 -0.562,-0.263c-0.226,0.054 -0.385,0.255 -0.385,0.487l-0,1.5c-0,-0 -0.293,-0 -0.293,-0c0,0 -1.853,-1.854 -1.853,-1.854c-0.119,-0.118 -0.288,-0.169 -0.452,-0.136l-5,1c-0.097,0.019 -0.186,0.067 -0.256,0.136l-1.745,1.746c0,-0 -1.677,-0.839 -1.677,-0.839c-0.07,-0.035 -0.146,-0.053 -0.224,-0.053l-3,-0c-0.078,-0 -0.154,0.018 -0.224,0.053l-2,1c-0.109,0.055 -0.195,0.148 -0.24,0.261l-1.943,4.856c0,0 -2.844,1.897 -2.844,1.897c-0,-0 -3.973,1.986 -3.973,1.986c-0.018,0.009 -0.036,0.019 -0.053,0.031l-2.945,1.963l-1.742,0.58Zm76.964,-15.627l-0.068,-0.059l0.012,-0.032l0.056,0.091Z"/></svg>