<?xml version="1.0" encoding="UTF-8" standalone="no"?><!DOCTYPE svg PUBLIC "-//W3C//DTD SVG 1.1//EN" "http://www.w3.org/Graphics/SVG/1.1/DTD/svg11.dtd"><svg width="155px" height="250px" version="1.1" xmlns="http://www.w3.org/2000/svg" xmlns:xlink="http://www.w3.org/1999/xlink" xml:space="preserve" xmlns:serif="http://www.serif.com/" style="fill-rule:evenodd;clip-rule:evenodd;stroke-linejoin:round;stroke-miterlimit:2;"><path id="uk" d="M42.532,246.826c0.07,-0.19 0.253,-0.326 0.468,-0.326l-2,0c-0.133,0 -0.26,0.053 -0.354,0.146l-0.853,0.854c-0,0 -0.661,0 -0.661,0c0.029,-0.019 0.058,-0.036 0.086,-0.05c0.19,-0.092 0.432,-0.365 0.63,-0.741c0.203,-0.386 0.393,-0.882 0.51,-1.209c-0.001,0 2.642,0 2.642,0c0.099,0 0.195,-0.029 0.277,-0.084l3,-2c0.066,-0.044 0.12,-0.102 0.159,-0.171c-0,0 0.908,-1.628 1.045,-2.108c0.031,-0.11 0.153,-0.215 0.265,-0.317c0.221,-0.203 0.514,-0.393 0.514,-0.393l-0,0c0.144,-0.088 0.24,-0.246 0.24,-0.427l-0,-0.75c0.402,-0.333 1.151,-1.125 0.996,-2.312c0.084,0.01 0.204,0.028 0.292,0.055c0.469,0.145 0.956,0.437 0.956,0.437c0.078,0.046 0.166,0.07 0.256,0.07l1,0c0.202,0 0.385,-0.122 0.462,-0.309c0.077,-0.186 0.035,-0.402 -0.108,-0.545l-0.179,-0.178c0.117,-0.043 0.215,-0.129 0.272,-0.244l0.964,-1.928c-0,0 3.943,-3.942 3.943,-3.942c0.093,-0.094 0.146,-0.221 0.146,-0.354l-0,-3.691c0,0 1.618,-0.809 1.618,-0.809c0,-0 1.882,0 1.882,0c0.133,0 0.26,-0.053 0.354,-0.146l1,-1c0.093,-0.094 0.146,-0.221 0.146,-0.354l-0,-2.793c-0,0 0.707,-0.707 0.707,-0.707c0,-0 6.731,0 6.731,0c0,-0 3.941,0.985 3.941,0.985c0.039,0.01 0.08,0.015 0.121,0.015l2.02,-0c0,-0 2.127,-0.088 3.671,-0.431c0.772,-0.171 1.403,-0.433 1.677,-0.73c0.516,-0.56 0.534,-1.231 0.405,-1.767c-0.056,-0.231 -0.139,-0.433 -0.21,-0.581l0.848,-1.695c-0,0 8.943,-8.942 8.943,-8.942c0.093,-0.094 0.146,-0.221 0.146,-0.354l-0,-1c-0,-0.276 -0.224,-0.5 -0.5,-0.5l-2,0c-0.133,0 -0.26,0.053 -0.354,0.146l-3.942,3.943c-0,0 -1.822,0.911 -1.822,0.911c-0,0 -1.882,0 -1.882,0c-0.133,0 -0.26,0.053 -0.354,0.146l-3.853,3.854c-0,-0 -4.586,0 -4.586,0c0,0 -1.769,-1.769 -1.769,-1.769c-0.09,-0.272 -0.328,-0.958 -0.589,-1.453c-0.191,-0.364 -0.428,-0.624 -0.618,-0.722c-0.025,-0.033 -0.134,-0.183 -0.196,-0.301c-0.296,-0.562 -0.558,-1.404 -0.558,-1.404c-0.043,-0.14 -0.146,-0.254 -0.281,-0.311c-0.135,-0.057 -0.288,-0.053 -0.42,0.013l-1.967,0.983c-0.105,0.034 -0.476,0.144 -0.869,0.17c-0.23,0.014 -0.475,0.019 -0.637,-0.104c-0.06,-0.045 -0.124,-0.083 -0.191,-0.112l0.046,-0.016c0.204,-0.068 0.342,-0.259 0.342,-0.474l-0,-1c-0,-0.276 -0.224,-0.5 -0.5,-0.5l-3.5,0c-0,-0 -0,-1.5 -0,-1.5c0,-0.133 -0.053,-0.26 -0.146,-0.354l-1,-1c-0.149,-0.148 -0.375,-0.188 -0.565,-0.099c-0,-0 -1.091,0.508 -2.026,1.013c-0.912,0.492 -1.974,0.987 -1.974,0.987c-0.041,0.019 -0.079,0.043 -0.113,0.072c0,0 -0.39,0.332 -0.864,0.596c-0.265,0.148 -0.556,0.288 -0.807,0.285c-0.157,-0.002 -0.329,0.042 -0.505,0.123l-0,-2.623c-0,-0.276 -0.224,-0.5 -0.5,-0.5l-1,0c-0.189,0 -0.363,0.107 -0.447,0.276l-0.862,1.724c-0,-0 -1.484,0 -1.484,0c0,-0 0.147,-0.146 0.147,-0.146c0.093,-0.094 0.146,-0.221 0.146,-0.354l-0,-3c0,-0.276 -0.224,-0.5 -0.5,-0.5l-1.793,0c0,-0 0.089,-0.089 0.089,-0.089c0,-0 1.928,-0.964 1.928,-0.964c0.048,-0.024 0.092,-0.055 0.13,-0.093l0.853,-0.854c0,0 2.793,0 2.793,0c0.133,0 0.26,-0.053 0.354,-0.146l2.853,-2.854c0,-0 1.793,0 1.793,0c0.099,0 0.195,-0.029 0.277,-0.084l3,-2c0.028,-0.018 0.053,-0.039 0.077,-0.062l3,-3c0.038,-0.038 0.069,-0.082 0.093,-0.13l1,-2c0.035,-0.07 0.053,-0.146 0.053,-0.224l-0,-1.764c0.305,-0.271 0.865,-0.86 1.163,-1.736l0.337,0l0.027,-0.008c0.121,-0.039 0.595,-0.223 0.443,-0.664c-0.024,-0.07 -0.161,-0.426 -0.329,-0.626c-0.209,-0.249 -0.475,-0.323 -0.712,-0.256c-0.126,0.036 -0.272,0.117 -0.398,0.309c-0.039,0.06 -0.08,0.14 -0.121,0.245l-0.483,0c-0.021,-0.158 -0.04,-0.348 -0.047,-0.544c-0.011,-0.273 -0.008,-0.56 0.077,-0.754c0.162,-0.365 0.451,-0.804 0.672,-1.209c0.184,-0.336 0.323,-0.656 0.365,-0.913c0.089,-0.556 0.017,-1.053 0.002,-1.147l-0.004,-0.021c-0.017,-0.099 -0.065,-0.192 -0.138,-0.266l-0.854,-0.853c-0,-0 -0,-3.793 -0,-3.793c-0,-0.276 -0.224,-0.5 -0.5,-0.5l-4,0c-0.078,0 -0.154,0.018 -0.224,0.053l-2,1c-0.096,0.048 -0.175,0.127 -0.223,0.223l-0.862,1.724c-0,0 -1.781,0 -1.781,0c0.101,-0.175 0.204,-0.364 0.294,-0.551c0.147,-0.309 0.256,-0.615 0.289,-0.859c0.02,-0.024 0.084,-0.098 0.136,-0.143c0.157,-0.133 0.37,-0.268 0.603,-0.402c0.551,-0.317 1.21,-0.62 1.629,-0.852c0.241,-0.134 0.417,-0.259 0.503,-0.35c0.129,-0.138 0.367,-0.282 0.633,-0.479c0.499,-0.368 1.082,-0.873 1.454,-1.648c0.455,-0.949 0.84,-1.693 0.956,-1.915c0.001,-0.001 0.947,-0.947 0.947,-0.947c0.038,-0.038 0.069,-0.082 0.093,-0.13l0.869,-1.737c0.568,-0.023 1.836,-0.061 2.64,0.011c0.457,0.041 0.905,-0.166 1.291,-0.517c0.416,-0.379 0.76,-0.924 0.974,-1.312c-0,0 1.555,0.778 1.555,0.778c0.07,0.035 0.146,0.053 0.224,0.053l2,0c0.078,0 0.154,-0.018 0.224,-0.053l1.894,-0.947c0,0 1.759,0 1.759,0c0.384,0.201 1.651,0.863 1.955,0.971c0.336,0.12 1.934,0.971 1.934,0.971c0.155,0.082 0.341,0.077 0.492,-0.014c0.15,-0.09 0.242,-0.253 0.242,-0.428l-0,-0.919l0.026,0.077c0.068,0.204 0.259,0.342 0.474,0.342l2,0c0.054,0 0.107,-0.009 0.158,-0.026l3,-1c0.138,-0.045 0.248,-0.149 0.304,-0.283c0.055,-0.134 0.05,-0.285 -0.015,-0.415l-1,-2c-0.123,-0.247 -0.424,-0.347 -0.671,-0.223l-1.677,0.839c-0,-0 -1.662,-1.662 -1.662,-1.662c0,-0 -0.897,-2.692 -0.897,-2.692c-0,0 0.893,-1.787 0.893,-1.787c0,0 1.983,-2.974 1.983,-2.974c0.102,-0.153 0.112,-0.35 0.025,-0.513c-0.087,-0.163 -0.257,-0.264 -0.441,-0.264l-1.5,0c0,-0 -0,-4.191 -0,-4.191c0,0 1.724,-0.862 1.724,-0.862c0.096,-0.048 0.175,-0.127 0.223,-0.223l1,-2c0.017,-0.033 0.029,-0.067 0.038,-0.103l0.983,-3.932c0.074,-0.134 0.227,-0.44 0.295,-0.792c0.072,-0.376 0.043,-0.793 -0.193,-1.148c-0.228,-0.342 -0.668,-0.661 -1.52,-0.747c-0.813,-0.081 -1.362,0.137 -1.74,0.452c-0.424,0.354 -0.627,0.858 -0.723,1.28c-0,0 -1.363,-0.681 -1.363,-0.681c-0.226,-0.113 -0.5,-0.04 -0.64,0.17l-1.373,2.059c-0,0 -0.726,-2.903 -0.726,-2.903c-0.056,-0.223 -0.256,-0.379 -0.485,-0.379l-1.64,0c0,-0 -0.886,-2.658 -0.886,-2.658c-0.024,-0.074 -0.066,-0.141 -0.12,-0.196l-1.873,-1.872c-0.062,-0.674 -0.255,-3.119 0.012,-4.69c0.285,-1.679 1.783,-2.667 1.783,-2.667c0.056,-0.037 0.103,-0.084 0.14,-0.14l2,-3c0.012,-0.017 0.022,-0.035 0.031,-0.053l0.862,-1.724c0,0 1.691,0 1.691,0c0.167,0 0.323,-0.084 0.416,-0.223l2,-3c0.108,-0.161 0.112,-0.371 0.011,-0.537c-0.101,-0.166 -0.289,-0.258 -0.482,-0.237l-9,1c-0.253,0.028 -0.445,0.242 -0.445,0.497l-0,1.61c0,-0 -3.621,0.905 -3.621,0.905c-0.013,0.003 -0.025,0.007 -0.037,0.011l-3,1c-0.233,0.077 -0.375,0.312 -0.336,0.554c0.004,0.024 0.01,0.047 0.017,0.07c-0.178,0.046 -0.543,0.128 -1.017,0.158c-0.073,-0.396 -0.221,-1.164 -0.315,-1.459c-0.076,-0.236 -0.201,-0.369 -0.279,-0.421c-0.108,-0.072 -0.219,-0.097 -0.327,-0.091c-0.907,0.049 -1.662,0.002 -2.276,-0.091c-1.389,-0.211 -2.013,-0.649 -2.013,-0.649c-0.175,-0.129 -0.414,-0.129 -0.59,-0.001c-0.176,0.128 -0.249,0.355 -0.18,0.562l0.974,2.923c-0,0 -0,1.712 -0,1.712c-0,-0 -4.146,-4.147 -4.146,-4.147c-0.094,-0.093 -0.221,-0.146 -0.354,-0.146l-3,0c-0.133,0 -0.26,0.053 -0.354,0.146l-1.646,1.647c-0,-0 -1.5,-1.5 -1.5,-1.5c-0,-0 -0,-1.586 -0,-1.586c-0,0 1.146,1.147 1.146,1.147c0.143,0.143 0.359,0.185 0.545,0.108c0.187,-0.077 0.309,-0.26 0.309,-0.462l0,-5.793c-0,0 3.854,-3.853 3.854,-3.853c0.054,-0.055 0.096,-0.122 0.12,-0.196l0.989,-2.966c0,-0 0.984,-1.968 0.984,-1.968c0.035,-0.07 0.053,-0.146 0.053,-0.224l-0,-2c0,-0.054 -0.009,-0.107 -0.026,-0.158l-1,-3c-0.042,-0.126 -0.132,-0.23 -0.25,-0.289l-1.724,-0.862c-0,-0 -0,-6.191 -0,-6.191c0,-0 1.419,0 1.419,0c-0,0 2.923,0.974 2.923,0.974c0.152,0.051 0.32,0.026 0.45,-0.068c0.131,-0.094 0.208,-0.245 0.208,-0.406l-0,-2c-0,-0.189 -0.107,-0.363 -0.276,-0.447l-3.724,-1.862c-0,-0 -0,-1.61 -0,-1.61c0,0 0.974,-2.923 0.974,-2.923c0.06,-0.18 0.013,-0.378 -0.12,-0.512c-0.134,-0.133 -0.332,-0.18 -0.512,-0.12l-3,1c-0.074,0.024 -0.141,0.066 -0.196,0.12l-1,1c-0.093,0.094 -0.146,0.221 -0.146,0.354l-0,3.919c-0,-0 -0.593,1.778 -0.593,1.778c0,-0 -0.46,-0.921 -0.46,-0.921c-0.024,-0.048 -0.055,-0.092 -0.093,-0.13l-1,-1c-0.143,-0.143 -0.359,-0.185 -0.545,-0.108c-0.187,0.077 -0.309,0.26 -0.309,0.462l-0,0.5c-0,0 -0.5,0 -0.5,0c-0.215,0 -0.406,0.138 -0.474,0.342l-0.026,0.077c-0,-0 -0,-0.712 -0,-0.712c-0,0 0.854,-0.853 0.854,-0.853c0.038,-0.038 0.069,-0.082 0.093,-0.13l0.964,-1.928c-0,0 3.943,-3.942 3.943,-3.942c0.093,-0.094 0.146,-0.221 0.146,-0.354l-0,-1c-0,-0.276 -0.224,-0.5 -0.5,-0.5l-2,0c-0.133,0 -0.26,0.053 -0.354,0.146l-7,7c-0.093,0.094 -0.146,0.221 -0.146,0.354l-0,2c-0,0.133 0.053,0.26 0.146,0.354l0.854,0.853l0,1.787c-0.002,-0.175 -0.097,-0.343 -0.259,-0.432c-0.226,-0.125 -0.511,-0.056 -0.655,0.158c-0,0 -0.388,0.574 -0.875,1.098c-0.285,0.307 -0.597,0.607 -0.884,0.713c-0.036,0.013 -0.065,0.027 -0.091,0.017c-0.06,-0.021 -0.082,-0.091 -0.111,-0.149c-0.051,-0.105 -0.083,-0.217 -0.102,-0.304c0.227,-0.394 0.799,-1.413 0.957,-1.955c0.136,-0.466 -0.074,-0.869 -0.438,-1.16c-0.058,-0.047 -0.121,-0.091 -0.184,-0.131l0.496,-0.495c0.093,-0.094 0.146,-0.221 0.146,-0.354l-0,-1.793c-0,0 0.854,-0.853 0.854,-0.853c0.093,-0.094 0.146,-0.221 0.146,-0.354l-0,-2c-0,-0.078 -0.018,-0.154 -0.053,-0.224l-0.776,-1.552c-0,-0 1.553,-0.777 1.553,-0.777c0.143,-0.072 0.244,-0.208 0.27,-0.367c0.025,-0.159 -0.027,-0.32 -0.14,-0.434l-0.854,-0.853c0,-0 -0,-1.586 -0,-1.586c-0,0 1.77,-1.77 1.77,-1.77c0,0 2.888,-0.963 2.888,-0.963c0.042,-0.014 0.082,-0.033 0.119,-0.058l3,-2c0.125,-0.083 0.206,-0.218 0.221,-0.367c0.014,-0.149 -0.039,-0.297 -0.144,-0.403l-1,-1c-0.196,-0.195 -0.512,-0.195 -0.708,0l-1.853,1.854c-0,0 -0.586,0 -0.586,0c0,0 1.147,-1.146 1.147,-1.146c0.143,-0.143 0.185,-0.359 0.108,-0.545c-0.077,-0.187 -0.26,-0.309 -0.462,-0.309l-1.191,0c0,0 0.638,-1.276 0.638,-1.276c0.035,-0.07 0.053,-0.146 0.053,-0.224l-0,-0.5c0,0 2.5,0 2.5,0c0.078,0 0.154,-0.018 0.224,-0.053l2,-1c0.143,-0.072 0.244,-0.208 0.27,-0.367c0.025,-0.159 -0.027,-0.32 -0.14,-0.434l-1,-1c-0.096,-0.095 -0.227,-0.148 -0.363,-0.146c-0.135,0.002 -0.264,0.06 -0.356,0.159c-0,-0 -0.364,0.366 -1.289,0.703l0.003,-0.004c0.04,-0.039 0.073,-0.084 0.098,-0.134l1,-2c0.078,-0.155 0.069,-0.339 -0.022,-0.487c-0.091,-0.147 -0.252,-0.237 -0.425,-0.237l-1,0c-0.133,0 -0.26,0.053 -0.354,0.146l-7.745,7.746c0,-0 -1.677,-0.839 -1.677,-0.839c-0.07,-0.035 -0.146,-0.053 -0.224,-0.053l-0.735,0c-0.117,-0.176 -0.286,-0.443 -0.439,-0.729c-0.133,-0.247 -0.26,-0.506 -0.31,-0.721l0.46,-0.085c0.423,-0.079 0.908,-0.218 1.344,-0.581c0.039,-0.032 0.082,-0.064 0.122,-0.092c0.078,0.087 0.171,0.151 0.281,0.188c0.113,0.038 0.253,0.053 0.431,-0.004c0.407,-0.132 2.085,-1.037 2.085,-1.037c0.166,-0.09 0.267,-0.266 0.261,-0.455c-0.006,-0.188 -0.118,-0.358 -0.289,-0.437c-0,-0 -1.03,-0.479 -1.974,-0.987c-0.284,-0.153 -0.606,-0.193 -0.948,-0.142l0.065,-0.064c0.093,-0.094 0.146,-0.221 0.146,-0.354l-0,-0.691c0,0 1.724,-0.862 1.724,-0.862c0.169,-0.084 0.276,-0.258 0.276,-0.447l-0,-1c-0,-0.276 -0.224,-0.5 -0.5,-0.5l-0.793,0c0,0 -0.77,-0.77 -0.77,-0.77c0,-0 -0.581,-1.743 -0.581,-1.743c0,0 0.92,0.46 0.92,0.46c0.07,0.035 0.146,0.053 0.224,0.053l3,0c0.276,0 0.5,-0.224 0.5,-0.5l-0,-1c-0,-0.276 -0.224,-0.5 -0.5,-0.5l-1.793,0c0,0 -0.707,-0.707 -0.707,-0.707c0,-0 0,-0.586 0,-0.586c0,0 0.146,0.147 0.146,0.147c0.094,0.093 0.221,0.146 0.354,0.146l2,0c0.078,0 0.154,-0.018 0.224,-0.053l2,-1c0.169,-0.084 0.276,-0.258 0.276,-0.447l-0,-1c-0,-0.276 -0.224,-0.5 -0.5,-0.5l-3.053,0c0.261,-0.44 0.521,-0.989 0.552,-1.468c0.005,-0.077 0.009,-0.15 0.012,-0.217l1.265,0.632c0.07,0.035 0.146,0.053 0.224,0.053l1,0c0.202,0 0.385,-0.122 0.462,-0.309c0.077,-0.186 0.035,-0.402 -0.108,-0.545l-0.647,-0.646c0,-0 0.647,-0.646 0.647,-0.646c0.195,-0.196 0.195,-0.512 -0,-0.708l-1,-1c-0.153,-0.152 -0.385,-0.189 -0.578,-0.093l-1.677,0.839c-0,-0 -0.255,-0.255 -0.255,-0.255c0,-0 1.274,-0.637 1.274,-0.637c0,0 0.882,0 0.882,0c0.276,0 0.5,-0.224 0.5,-0.5l-0,-2c-0,-0.276 -0.224,-0.5 -0.5,-0.5l-1,0c-0.133,0 -0.26,0.053 -0.354,0.146l-0.646,0.647c-0,-0 -0.646,-0.647 -0.646,-0.647c-0.196,-0.195 -0.512,-0.195 -0.708,0l-1.178,1.179c-0.006,-0.017 -0.013,-0.033 -0.021,-0.049l-0.947,-1.894c-0,-0 -0,-0.764 -0,-0.764c0,0 0.5,-1 0.5,-1c0,0 0.553,1.106 0.553,1.106c0.084,0.169 0.258,0.276 0.447,0.276l2,0c0.078,0 0.154,-0.018 0.224,-0.053l2,-1c0.169,-0.084 0.276,-0.258 0.276,-0.447l-0,-1c-0,-0.276 -0.224,-0.5 -0.5,-0.5l-2.793,0c0,0 -1.707,-1.707 -1.707,-1.707c-0,-0 -0,-0.293 -0,-0.293c0,-0 1.5,0 1.5,0c0.276,0 0.5,-0.224 0.5,-0.5l-0,-1c-0,-0.133 -0.053,-0.26 -0.146,-0.354l-1.854,-1.853c-0,-0 -0,-1.293 -0,-1.293c-0,0 0.191,0 0.191,0c-0,0 0.862,1.724 0.862,1.724c0.084,0.169 0.258,0.276 0.447,0.276l1,0c0.189,0 0.363,-0.107 0.447,-0.276l1,-2c0.071,-0.141 0.071,-0.307 0,-0.448l-0.329,-0.658c0,0 0.658,0.329 0.658,0.329c0.07,0.035 0.146,0.053 0.224,0.053l0.919,0c-0,0 2.923,0.974 2.923,0.974c0.192,0.064 0.403,0.006 0.536,-0.146c0.13,-0.151 0.159,-0.364 0.073,-0.544l1.325,0.663c0.155,0.078 0.339,0.069 0.487,-0.022c0.147,-0.091 0.237,-0.252 0.237,-0.425l-0,-1c0,-0.133 -0.053,-0.26 -0.146,-0.354l-1.943,-1.942c-0,-0 -0.964,-1.928 -0.964,-1.928c-0.024,-0.048 -0.055,-0.092 -0.093,-0.13l-1.147,-1.146c0,0 0.793,0 0.793,0c0.189,0 0.363,-0.107 0.447,-0.276l1,-2c0.096,-0.193 0.059,-0.425 -0.093,-0.578l-2.147,-2.146l5.712,-0c0.208,0.06 0.664,0.143 1.03,-0.082c0.292,-0.18 0.603,-0.566 0.55,-1.448c-0.026,-0.426 -0.166,-0.736 -0.359,-0.965c-0.283,-0.336 -0.694,-0.501 -1.108,-0.556c-0.467,-0.062 -0.925,0.017 -1.087,0.051l-1.445,0c-0,-0 -0,-1.691 -0,-1.691c-0,0 1.276,0.638 1.276,0.638c0.155,0.078 0.339,0.069 0.487,-0.022c0.147,-0.091 0.237,-0.252 0.237,-0.425l-0,-3c-0,-0.01 -0,-0.021 -0.001,-0.031c0,0 -0.089,-1.358 -0.005,-1.891c0.059,-0.378 0.534,-1.181 0.781,-1.578c0,0 0.518,0 0.518,0c-0,-0 0.5,0.5 0.5,0.5c-0,0 -0.647,0.646 -0.647,0.646c-0.164,0.164 -0.193,0.42 -0.071,0.617c0.122,0.197 0.363,0.285 0.583,0.211l1.855,-0.618c-0,0 -0.46,0.92 -0.46,0.92c-0.035,0.07 -0.053,0.146 -0.053,0.224l-0,2c-0,0.202 0.122,0.385 0.309,0.462c0.186,0.077 0.402,0.035 0.545,-0.108l2,-2c0.038,-0.038 0.069,-0.082 0.093,-0.13l0.777,-1.553c-0,-0 1.105,0.553 1.105,0.553c0,-0 -0.776,1.552 -0.776,1.552c-0.078,0.155 -0.069,0.339 0.022,0.487c0.091,0.147 0.252,0.237 0.425,0.237l1,0c0.133,0 0.26,-0.053 0.354,-0.146l1.853,-1.854c0,0 1.793,0 1.793,0c0.054,0 0.107,-0.009 0.158,-0.026l2.923,-0.974c0,0 2.919,0 2.919,0c0.054,0 0.107,-0.009 0.158,-0.026l2.707,-0.902c-0,0 0.781,0.782 0.781,0.782c0.134,0.133 0.332,0.18 0.512,0.12l3,-1c0.074,-0.024 0.141,-0.066 0.196,-0.12l0.853,-0.854c0,0 3.099,0 3.099,0c0,-0 -0.78,2.342 -0.78,2.342c-0.017,0.051 -0.026,0.104 -0.026,0.158l-0,1.938c0,0 -0.919,3.674 -0.919,3.674c0.001,0 -2.739,0.914 -2.739,0.914c-0.149,0.049 -0.267,0.167 -0.316,0.316l-0.921,2.763c-0,-0 -2.763,0.921 -2.763,0.921c-0.074,0.024 -0.141,0.066 -0.196,0.12l-3,3c-0.023,0.024 -0.044,0.049 -0.062,0.077l-1.852,2.777c0,0 -2.732,0 -2.732,0c-0.173,0 -0.334,0.09 -0.425,0.237c-0.091,0.148 -0.1,0.332 -0.022,0.487l0.638,1.276c-0,0 -5.191,0 -5.191,0c-0.173,0 -0.334,0.09 -0.425,0.237c-0.091,0.148 -0.1,0.332 -0.022,0.487l1,2c0.084,0.169 0.258,0.276 0.447,0.276l4.919,0c-0,0 2.376,0.792 2.376,0.792c-0,0 -0.604,1.208 -0.604,1.208l-1.725,0.001c-0,0 -0.961,0.066 -1.932,0c-0.711,-0.048 -0.972,-0.028 -1.067,-0.012c-0.262,0.044 -0.327,0.148 -0.353,0.19l-1.968,1.967c-0.038,0.038 -0.069,0.082 -0.093,0.13l-1,2c-0.096,0.193 -0.059,0.425 0.093,0.578l1,1c0.114,0.113 0.275,0.165 0.434,0.14c0.159,-0.026 0.295,-0.127 0.367,-0.27l0.063,-0.126c0.008,0.043 0.023,0.086 0.043,0.126l1,2c0.084,0.169 0.258,0.276 0.447,0.276l2,0c0.189,0 0.363,-0.107 0.447,-0.276l0.926,-1.851c-0,-0 1.745,-0.873 1.745,-0.873c0,0 3.882,0 3.882,0c0.099,0 0.195,-0.029 0.277,-0.084l3,-2c0.028,-0.018 0.053,-0.039 0.077,-0.062l0.853,-0.854c0,0 3.484,0 3.484,0c-0,0 0.862,1.724 0.862,1.724c0.123,0.247 0.424,0.347 0.671,0.223l1.894,-0.947c0,0 14.731,0 14.731,0c-0,0 2.731,1.821 2.731,1.821c-0,-0 0.868,2.605 0.868,2.605c0,0 -3.864,5.797 -3.864,5.797c-0.032,0.047 -0.055,0.1 -0.069,0.156l-0.995,3.981c-0,0 -1.973,5.918 -1.973,5.918c-0,0 -3.963,5.945 -3.963,5.945c-0.032,0.047 -0.055,0.1 -0.069,0.156l-0.966,3.865c-0,0 -0.868,0.867 -0.868,0.867c0,0 -2.832,1.889 -2.832,1.889c-0,0 -2.849,0 -2.849,0c-0.078,-0 -0.154,0.018 -0.224,0.053l-2,1c-0.026,0.013 -0.052,0.029 -0.076,0.047l-4,3c-0.172,0.129 -0.242,0.354 -0.174,0.558c0.068,0.204 0.259,0.342 0.474,0.342l2,0c0.078,0 0.154,-0.018 0.224,-0.053l2,-1c0.018,-0.009 0.036,-0.019 0.053,-0.031l2.659,-1.773c0,0 0.564,0.564 0.564,0.564c0,0 -0,1.793 -0,1.793c-0,0.276 0.224,0.5 0.5,0.5l1.793,0c-0,-0 0.707,0.707 0.707,0.707c0,0 -0,1.433 -0,1.433c-0,-0 -2.581,0.86 -2.581,0.86c-0,-0 -2.919,0 -2.919,0c-0.167,0 -0.323,0.084 -0.416,0.223l-2.003,3.004c0,-0 -0.498,0.725 -1.603,0.773c-1.369,0.06 -2.959,0 -2.959,0l-2.812,0c0,0 -1.853,-1.854 -1.853,-1.854c-0.196,-0.195 -0.512,-0.195 -0.708,0l-1,1c-0.195,0.196 -0.195,0.512 0,0.708l2,2c0.055,0.054 0.122,0.096 0.196,0.12l3,1c0.012,0.004 0.024,0.008 0.037,0.011l4,1c0.039,0.01 0.08,0.015 0.121,0.015l6,0c0.167,0 0.323,-0.084 0.416,-0.223l1.755,-2.632c0,-0 1.533,0.766 1.533,0.766c-0,-0 0.942,0.943 0.942,0.943c0.055,0.054 0.122,0.096 0.196,0.12l5.888,1.963c-0,0 2.873,2.873 2.873,2.873c-0,0 2.968,4.947 2.968,4.947c0.062,0.103 0.158,0.18 0.271,0.217l2.658,0.886c-0,0 -0,2.64 -0,2.64c0,0.033 0.003,0.066 0.01,0.098l1,5c0.002,0.013 0.006,0.026 0.009,0.039l2,7c0.024,0.082 0.067,0.156 0.127,0.217l1.854,1.853c-0,0 -0,3.793 -0,3.793c-0,0.078 0.018,0.154 0.053,0.224l1.947,3.894c-0,0 -0,1.882 -0,1.882c-0,0.229 0.156,0.429 0.379,0.485l3.967,0.992c-0,-0 4.812,1.925 4.812,1.925c-0,-0 2.903,4.839 2.903,4.839c0,-0 0.992,1.983 0.992,1.983c0.024,0.048 0.055,0.092 0.093,0.13l3.647,3.646c-0,0 -0.647,0.646 -0.647,0.646c-0.093,0.094 -0.146,0.221 -0.146,0.354l-0,5c-0,0.099 0.029,0.195 0.084,0.277l3.482,5.223c-0,0 -0.566,0 -0.566,0c-0,0 -0,-0.5 -0,-0.5c-0,-0.167 -0.084,-0.323 -0.223,-0.416l-3,-2c-0.082,-0.055 -0.178,-0.084 -0.277,-0.084l-3,0c-0.041,0 -0.082,0.005 -0.121,0.015l-4,1c-0.088,0.022 -0.168,0.067 -0.233,0.131l-1,1c-0.143,0.143 -0.185,0.359 -0.108,0.545c0.077,0.187 0.26,0.309 0.462,0.309l6.825,0c-0,0 4.819,3.856 4.819,3.856c0,-0 3.897,4.871 3.897,4.871c0,0 0.939,3.753 0.939,3.753c-0,0 -0.926,2.777 -0.926,2.777c-0,0 -3.944,4.931 -3.944,4.931c-0.088,0.109 -0.126,0.25 -0.104,0.389c0.021,0.138 0.1,0.261 0.217,0.339l3,2c0.037,0.025 0.077,0.044 0.119,0.058l3,1c0.18,0.06 0.378,0.013 0.512,-0.12l2,-2c0.038,-0.038 0.069,-0.082 0.093,-0.13l0.862,-1.724c0,0 8.573,0 8.573,0c-0,0 3.854,1.927 3.854,1.927c0,0 3.811,2.858 3.811,2.858c0,0 0.945,4.723 0.945,4.723c-0,0 -0.979,5.871 -0.979,5.871c0,0 -1.933,5.8 -1.933,5.8c-0,0 -2.616,1.744 -2.616,1.744c0,0 -1.74,-0.87 -1.74,-0.87c-0.193,-0.096 -0.425,-0.059 -0.578,0.093l-1,1c-0.152,0.153 -0.189,0.385 -0.093,0.578l0.947,1.894c-0,0 0,1.573 0,1.573c-0,-0 -1.276,0.638 -1.276,0.638c-0,0 -0.777,-1.553 -0.777,-1.553c-0.073,-0.146 -0.213,-0.247 -0.374,-0.271c-0.162,-0.023 -0.325,0.033 -0.437,0.152c-0,0 -1.382,1.488 -2.766,1.86c-1.752,0.471 -2.347,2.333 -2.347,2.333c-0.048,0.152 -0.02,0.317 0.074,0.446c0.094,0.128 0.244,0.204 0.403,0.204l2.5,0c-0,0 -0,2.292 -0,2.292c-0.292,0.259 -1.12,0.854 -2.446,0.711c-2.27,-0.245 -3.436,1.175 -3.436,1.175c-0.026,0.03 -0.048,0.063 -0.065,0.098l-1,2c-0.078,0.155 -0.069,0.339 0.022,0.487c0.091,0.147 0.252,0.237 0.425,0.237l2.191,0c-0,-0 -0.638,1.276 -0.638,1.276c-0.078,0.155 -0.069,0.339 0.022,0.487c0.091,0.147 0.252,0.237 0.425,0.237l3.938,0c0,-0 3.941,0.985 3.941,0.985c0.079,0.02 0.163,0.02 0.242,0l3.611,-0.903c0,0 0.728,1.456 0.728,1.456c0,0 -0.897,2.692 -0.897,2.692c-0,-0 -1.833,1.833 -1.833,1.833c-0,-0 -2.888,0.963 -2.888,0.963c-0.149,0.049 -0.267,0.167 -0.316,0.316l-0.868,2.604c-0.841,-0.109 -2.721,-0.29 -3.818,0.08c-0.91,0.308 -1.205,0.697 -1.312,0.955c-0.024,0.058 -0.041,0.114 -0.053,0.167l-2.633,0.878c-0.042,0.014 -0.082,0.033 -0.119,0.058l-2.759,1.839c0,0 -1.74,-0.87 -1.74,-0.87c-0.022,-0.011 -0.043,-0.02 -0.066,-0.027l-3,-1c-0.082,-0.028 -0.171,-0.033 -0.256,-0.016l-4.948,0.989c-0.42,-0.006 -3.18,-0.044 -3.983,0.002c-0.659,0.038 -2.028,0.567 -2.733,0.857c-0,-0 -0.791,-1.582 -0.791,-1.582c-0.091,-0.181 -0.282,-0.29 -0.484,-0.275c-0,0 -1.621,0.122 -2.81,0.11c-0.437,-0.004 -0.808,-0.013 -0.971,-0.077c-0.483,-0.189 -0.902,0.016 -1.204,0.399c-0.039,0.05 -0.076,0.102 -0.11,0.155c-0.498,-0.547 -1.288,-1.353 -2.076,-1.907c-0.648,-0.455 -1.309,-0.727 -1.837,-0.679c-0.399,0.036 -0.608,0.215 -0.717,0.41c-0.133,0.238 -0.127,0.618 0.121,1.045c0.346,0.594 1.185,1.409 1.754,1.927c-0,0.001 -3.231,1.616 -3.231,1.616c-0,0 -7.882,-0 -7.882,-0c-0.202,0 -0.385,0.122 -0.462,0.309c-0.077,0.186 -0.035,0.402 0.108,0.545l1.51,1.509c-0,0 -1.199,0.599 -1.199,0.599c-0.522,-0.162 -1.997,-0.606 -3.254,-0.838c-0.729,-0.135 -1.392,-0.191 -1.796,-0.115c-0.83,0.156 -1.485,0.542 -1.871,0.82c0,-0 -1.682,-1.683 -1.682,-1.683c-0.065,-0.064 -0.145,-0.109 -0.233,-0.131l-4,-1c-0.079,-0.02 -0.163,-0.02 -0.242,-0l-4,1c-0.013,0.003 -0.025,0.007 -0.037,0.011l-2.804,0.934c0,0 -1.814,-0.907 -1.814,-0.907c-0.155,-0.078 -0.339,-0.069 -0.487,0.022c-0.147,0.091 -0.237,0.252 -0.237,0.425l0,1.943c-0.077,0.332 -0.491,2.065 -0.93,2.801c-0.437,0.735 -0.278,1.64 -0.142,2.121c0,-0.001 -0.782,0.781 -0.782,0.781c-0.054,0.055 -0.096,0.122 -0.12,0.196l-0.864,2.591c-0.41,-0.051 -1.052,-0.08 -1.77,0.079c-0.13,0.029 -0.202,-0.074 -0.287,-0.176c-0.134,-0.16 -0.26,-0.362 -0.402,-0.565c-0.465,-0.668 -1.068,-1.327 -2.227,-1.27c-0.179,0.008 -0.319,0.004 -0.43,-0.016c-0.055,-0.01 -0.096,-0.009 -0.117,-0.035c-0.032,-0.041 -0.031,-0.097 -0.041,-0.155c-0.018,-0.098 -0.031,-0.203 -0.052,-0.312c-0.089,-0.473 -0.274,-1.006 -1.11,-1.429c-0.47,-0.238 -0.7,-0.505 -0.787,-0.762c-0.097,-0.289 0.014,-0.581 0.014,-0.581l-0.453,0.289l-0.093,-0.148c0.026,-0.214 0.093,-0.352 0.093,-0.352l-0.139,0.279l-0.312,-0.494l0.004,-0.009l-0.941,1.882c0,-0 -2.727,1.818 -2.727,1.818c-0.844,-0.134 -4.176,-0.674 -4.656,-0.921c-0.318,-0.163 -0.703,-0.09 -0.984,0.394c-0.33,0.57 -0.59,2.03 -0.693,2.674c-0,-0.001 -2.71,0.903 -2.71,0.903c-0.074,0.024 -0.141,0.066 -0.196,0.12l-2,2c-0.152,0.153 -0.189,0.385 -0.093,0.578l0.776,1.552c0,0 -0.829,0.415 -0.829,0.415c0,-0 0,-0.191 0,-0.191c0,-0.155 -0.072,-0.301 -0.194,-0.395c0,-0 -0.831,-0.649 -2.151,-1.08c-0.265,-0.087 -0.445,-0.179 -0.562,-0.276c-0.069,-0.058 -0.109,-0.135 -0.109,-0.135l-0.397,0.317c-0.159,-0.239 -0.087,-0.431 -0.087,-0.431l-0.348,-0l-0.12,-0.174Zm-0,-0l-0.01,0.027l0.009,-0.027l0.001,-0Zm63.643,-13.358c0.089,-0.033 0.168,-0.092 0.227,-0.17c-0,-0 0.354,-0.476 0.905,-0.903c0.156,-0.122 0.4,-0.115 0.628,-0.1c0.39,0.025 0.761,0.133 0.871,0.168c0.004,0.001 1.35,0.674 1.35,0.674c-0,-0 -1.363,1.363 -1.363,1.363c-0,0 -1.586,-0 -1.586,-0l-1.032,-1.032Zm-43.956,-23.347c-0.173,0.142 -0.321,0.279 -0.425,0.379c-0,-0 -0.294,-0 -0.294,-0c0,0 0,-0.14 0,-0.14l0.719,-0.239Zm-10.991,-1.337c-0.158,0.205 -0.297,0.404 -0.407,0.568c0,-0 -0.518,-0.259 -0.518,-0.259l0.925,-0.309Zm10.301,-41.96l-0.94,1.88l-0.688,0.688l-1.605,-0.803c0,0 -0.885,-0.885 -0.885,-0.885c-0,-0 -0.852,-1.704 -0.852,-1.704c0,0 0.814,-1.627 0.814,-1.627c-0,-0 1.528,-0.765 1.528,-0.765c0,0 0.688,0.688 0.688,0.688c0,0 0.964,1.928 0.964,1.928c0.048,0.096 0.127,0.175 0.223,0.223l0.753,0.377Zm-22.521,-34.807l0.016,-0.064l-0.8,-0.4c-0.155,-0.078 -0.339,-0.069 -0.487,0.022c-0.147,0.091 -0.237,0.252 -0.237,0.425l0,4.5c-0,-0 -0.5,-0 -0.5,-0c-0.173,-0 -0.334,0.09 -0.425,0.237c-0.091,0.148 -0.1,0.332 -0.022,0.487l1,2c0.123,0.247 0.424,0.347 0.671,0.223l1.276,-0.638c0,0 -0,0.073 -0,0.073c-0,-0 -0.539,1.079 -0.539,1.079c-0,-0 -1.079,0.539 -1.079,0.539c-0,-0 -1.882,-0 -1.882,-0c-0.276,-0 -0.5,0.224 -0.5,0.5l0,0.882c-0,-0 -0.911,1.822 -0.911,1.822c0,-0 -1.688,1.688 -1.688,1.688c0,-0 -1.605,-0.803 -1.605,-0.803c0,0 -0.942,-0.943 -0.942,-0.943c-0.153,-0.152 -0.385,-0.189 -0.578,-0.093l-1.951,0.975c0,0 -3.887,0.972 -3.887,0.972c0,-0 -0.129,-0 -0.129,-0c0,0 0.638,-1.276 0.638,-1.276c0.096,-0.193 0.059,-0.425 -0.093,-0.578l-1,-1c-0.094,-0.093 -0.221,-0.146 -0.354,-0.146l-1.691,-0c0,-0 -0.809,-1.618 -0.809,-1.618c0,-0 0,-1.882 0,-1.882c0,-0.167 -0.084,-0.323 -0.223,-0.416l-3,-2c-0.229,-0.153 -0.54,-0.091 -0.693,0.139l-2,3c-0.1,0.149 -0.111,0.34 -0.031,0.501l0.802,1.605c0,-0 -2.506,1.671 -2.506,1.671c-0,-0 -4.54,-0 -4.54,-0c0,-0 -0.862,-1.724 -0.862,-1.724c-0.116,-0.232 -0.391,-0.337 -0.633,-0.24l-1.94,0.776c-0.113,-0.594 -0.281,-1.54 -0.377,-2.37c-0.056,-0.478 -0.469,-1.116 -1.068,-1.745c-0.835,-0.876 -2.007,-1.78 -2.659,-2.26c-0,0 1.511,-1.511 1.511,-1.511c-0,0 2.405,-0.962 2.405,-0.962c0.085,-0.034 0.159,-0.091 0.214,-0.164l1.35,-1.8c0,-0 0.75,-0 0.75,-0c0.24,0 0.446,-0.17 0.491,-0.405c0.045,-0.236 -0.083,-0.47 -0.305,-0.559l-2.5,-1c-0.153,-0.061 -0.326,-0.043 -0.463,0.048l-0.723,0.482c0,-0 0,-0.798 0,-0.798c0,-0 1,-0.667 1,-0.667c-0,-0 1.223,0.815 1.223,0.815c0.153,0.102 0.35,0.112 0.513,0.025c0.163,-0.087 0.264,-0.257 0.264,-0.441l0,-0.5c0,-0 2.5,-0 2.5,-0c0.276,0 0.5,-0.224 0.5,-0.5l0,-0.849c0,0 1.916,-2.874 1.916,-2.874c0.055,-0.082 0.084,-0.178 0.084,-0.277l0,-1.882c0,0 0.833,-1.667 0.833,-1.667c0,0 5.749,-0.958 5.749,-0.958c0.183,-0.03 0.334,-0.159 0.392,-0.335l0.735,-2.203c-0,-0 0.955,-0.478 0.955,-0.478c-0,0 4.885,-0.977 4.885,-0.977c0,-0 3.91,-0 3.91,-0c-0,-0 1.385,0.231 1.385,0.231c-0,-0 1.156,0.578 1.156,0.578c-0,0 0,0.691 0,0.691c0,0.078 0.018,0.154 0.053,0.224l0.298,0.597c0,-0 0.649,2.25 0.649,2.25c0,-0 0,1.929 0,1.929c0,0.189 0.107,0.363 0.276,0.447l1.898,0.949c-0,-0 1.053,1.367 1.053,1.367c0,-0 0.733,2.199 0.733,2.199l-0.598,1.196l-2.139,1.426c-0.139,0.093 -0.223,0.249 -0.223,0.416l0,2c0,0.276 0.224,0.5 0.5,0.5l2,-0c0.189,-0 0.363,-0.107 0.447,-0.276l0.806,-1.613c0,0 2.477,0.826 2.477,0.826c-0,0 1.77,1.77 1.77,1.77l0,2.675l0,-0.882c0,-0.098 -0.029,-0.194 -0.083,-0.275c0,-0 -0.486,-0.718 -1.035,-1.079l-0.076,-0.152c0.028,-0.1 0.094,-0.194 0.103,-0.206l0.001,-0.002c0.035,-0.05 0.062,-0.108 0.077,-0.171c0.053,-0.226 -0.056,-0.459 -0.263,-0.562l-0.518,-0.259c0,-0 -0.259,-0.518 -0.259,-0.518c0.073,0.146 0.07,0.317 -0.006,0.459l-0.249,0.15l-0.184,-0.368Zm15.492,11.134l1.916,-2.874c0.012,-0.017 0.022,-0.035 0.031,-0.053l0.926,-1.851c-0,-0 1.127,-0.564 1.127,-0.564c0,0 0,3.984 0,3.984c-0,-0 -2.707,2.707 -2.707,2.707c-0,-0 -1.293,-0 -1.293,-0l0,-1.349Zm30.414,0.193l0.086,0.156c-0.041,-0 -0.082,-0.005 -0.121,-0.015l0.035,-0.141Zm0.517,-0.091c-0.008,0.014 -0.017,0.028 -0.027,0.041c-0.009,0.013 -0.019,0.025 -0.03,0.037c0.02,-0.022 0.039,-0.048 0.057,-0.078Zm-45.061,-8.988c0.111,-0.119 0.178,-0.283 0.074,-0.494c0.054,0.104 0.071,0.227 0.042,0.347c-0.016,0.066 -0.045,0.126 -0.083,0.178l-0.029,-0.028l-0.004,-0.003Zm24.591,-8.763c-0.068,-0.001 -0.214,-0.023 -0.339,-0.174c0.046,0.053 0.104,0.096 0.168,0.126c0.054,0.025 0.113,0.04 0.175,0.045l-0.004,0.003Zm-25.461,-17.502l0,2c0,0.078 0.018,0.154 0.053,0.224l0.638,1.276c-0,-0 -2.606,-0 -2.606,-0c0.059,-0.507 0.085,-1.217 -0.127,-1.701l-0.001,-0.002c0.007,-0.009 0.018,-0.022 0.026,-0.029c0.041,-0.038 0.091,-0.07 0.142,-0.099c0.205,-0.114 0.479,-0.18 0.479,-0.18l-0.001,0c0.094,-0.02 0.181,-0.066 0.251,-0.135l1,-1c0.097,-0.098 0.146,-0.226 0.146,-0.354Zm3,-11l0,1.882c-0,-0 -0.947,1.894 -0.947,1.894c-0.011,0.022 -0.02,0.043 -0.027,0.066l-1,3c-0.004,0.012 -0.008,0.024 -0.011,0.037l-1,4c-0.01,0.039 -0.015,0.08 -0.015,0.121c0,-0.128 -0.049,-0.256 -0.146,-0.354l-0.794,-0.793c0.171,-0.601 0.585,-2.009 0.889,-2.634c0.194,-0.396 0.261,-0.898 0.251,-1.42c-0.012,-0.641 -0.136,-1.312 -0.195,-1.785c0.057,-0.035 0.188,-0.114 0.286,-0.151c0.417,-0.156 0.945,-0.234 1.195,-0.294c0.136,-0.033 0.231,-0.075 0.279,-0.104c0.236,-0.144 0.265,-0.344 0.253,-0.486c-0.003,-0.045 -0.012,-0.1 -0.034,-0.158c0.032,-0.133 0.104,-0.413 0.184,-0.641c0.299,-0.86 0.79,-1.979 0.79,-1.979c0.029,-0.066 0.042,-0.134 0.042,-0.201Zm2.115,9.739c0.02,-0.094 0.091,-0.173 0.241,-0.218c0.017,-0.005 0.05,-0.015 0.101,-0.018c0.022,-0.002 0.18,0.028 0.18,0.028c-0,0 -0.273,-0.232 -0.636,-0.699c-0.001,-0 -0.001,-3.332 -0.001,-3.332c0,-0 0.382,-0 0.382,-0c-0,0 1.618,0.809 1.618,0.809l-0,4.191l-1,-0c0,0 0,-0.5 0,-0.5l-0.5,0.5l0,-0.5c0,-0 -0.087,0.038 -0.385,-0.261Zm-15.116,-3.548l0.001,-0.188c0.002,-0.335 0.168,-0.64 0.34,-0.905c0.231,-0.356 0.487,-0.652 0.599,-0.859c0.09,-0.166 0.15,-0.477 0.156,-0.838c0.012,-0.641 -0.1,-1.468 -0.1,-1.468c-0.033,-0.248 -0.245,-0.433 -0.495,-0.433l-2,-0c-0.133,-0 -0.26,0.053 -0.354,0.146l-1.146,1.147c0,-0 0,-1.484 0,-1.484l1.618,-0.809l0.382,-0c0,0 0,0.5 0,0.5c0,0.202 0.122,0.385 0.309,0.462c0.186,0.077 0.402,0.035 0.545,-0.108l1.427,-1.428c0,-0 0.719,2.155 0.719,2.155c0,0 0,1.801 0,1.801c-0,-0 -0.873,1.745 -0.873,1.745l-1.128,0.564Zm4.969,-7.366l-0.968,0.968c0,-0 0,-0.484 0,-0.484l0.968,-0.484Zm2.015,-2.952c-0.012,-0.047 -0.031,-0.093 -0.058,-0.136c-0.091,-0.147 -0.252,-0.237 -0.425,-0.237l-0.793,-0l1.87,-1.87l-0.541,2.165l-0.053,0.078Zm-4.475,-8.818l-0.784,0.392c-0.065,0.033 -0.136,0.05 -0.207,0.053l0.031,0.002c0.468,0.045 0.72,-0.224 0.952,-0.44l0.008,-0.007Zm-4.008,0.445l0,-0.416c-0.022,-0.041 0,-0.084 0,-0.084l0,0.084c0.019,0.035 0.071,0.07 0.2,0.072c-0.106,0.166 -0.2,0.344 -0.2,0.344Zm2.9,-0.01c-0.503,-0.038 -1.138,-0.04 -1.688,-0.031c0.941,-0.26 1.591,0 1.591,0c0.031,0.014 0.064,0.024 0.097,0.031Zm2.444,-1.127c0.098,-0.093 0.156,-0.224 0.156,-0.363l0,-1c0,-0.276 -0.224,-0.5 -0.5,-0.5l-0.793,-0c0,0 1.147,-1.146 1.147,-1.146c0.093,-0.094 0.146,-0.221 0.146,-0.354l0,-1c0,-0.167 -0.084,-0.323 -0.223,-0.416l-0.148,-0.099c0.049,-0.014 0.108,-0.039 0.172,-0.086c0.039,-0.028 0.248,-0.172 0.521,-0.247c0.245,-0.069 0.557,-0.081 0.815,0.191c0.744,0.788 1.721,1.048 2.125,1.125c-0.002,-0 0.738,0.739 0.738,0.739c0,0 0,0.675 0,0.675c-0,-0 -0.637,1.274 -0.637,1.274c0,-0 -0.509,-0.51 -0.509,-0.51c-0.196,-0.195 -0.512,-0.195 -0.708,0l-0.963,0.964c-0.177,0.115 -0.821,0.526 -1.339,0.753Zm-0.839,-5.294l-2.005,-1.337c0,0 0,-0.423 0,-0.423c0,0 1.401,-0.701 1.401,-0.701c0,0 0.599,0.599 0.599,0.599c0,0 0,1.793 0,1.793c0,0.023 0.002,0.046 0.005,0.069Zm0.485,-5.569l-0.004,0c0.004,-0 -1.486,-0 -1.486,-0l1.49,-0Zm2.433,-0.23c-0.076,0.047 -0.149,0.089 -0.216,0.128c-0.07,0.039 -0.159,0.081 -0.197,0.099c-0.459,-0.052 -1.666,-0.011 -1.965,0.001c0.116,-0.01 0.225,-0.061 0.309,-0.144l0.745,-0.746l1.324,0.662Zm-3.724,-15.864l0.947,0.948c0.133,0.132 0.33,0.18 0.508,0.122c0,-0 0.752,-0.235 1.724,0.009c0.852,0.214 1.576,0.14 1.966,0.066c-0,-0 0.449,0.449 0.449,0.449c-0,0 -0.647,0.646 -0.647,0.646c-0.036,0.037 -0.066,0.078 -0.09,0.124c0,-0 -0.776,1.496 -1.013,2.026c-0.122,0.275 -0.194,0.737 -0.328,1.163c-0.04,0.126 -0.086,0.249 -0.147,0.355c-0.054,0.093 -0.116,0.177 -0.217,0.209c-0.36,0.112 -0.855,0.097 -1.228,0.06c0.119,-0.345 0.341,-0.82 0.739,-1.239c0.962,-1.011 1.133,-2.275 1.133,-2.275c0.02,-0.143 -0.023,-0.288 -0.118,-0.397c-0.095,-0.109 -0.232,-0.172 -0.377,-0.172l-0.793,-0c0,0 -0.853,-0.854 -0.853,-0.854c-0.196,-0.195 -0.512,-0.195 -0.708,0l-0.781,0.782c-0,-0 -2.673,-0.891 -2.673,-0.891c-0,-0 -1.819,-0.91 -1.819,-0.91c-0,0 -0.386,-0.771 -0.386,-0.771c0,0 1.855,0.618 1.855,0.618c0.192,0.064 0.403,0.006 0.536,-0.146c0.132,-0.153 0.16,-0.371 0.069,-0.552l-1,-2c-0.048,-0.096 -0.127,-0.175 -0.223,-0.223l-2,-1c-0.07,-0.035 -0.146,-0.053 -0.224,-0.053l-1,-0c-0.133,-0 -0.26,0.053 -0.354,0.146l-0.71,0.711c0,-0 -2.151,-1.435 -2.151,-1.435c-0,0 0.422,-0.422 0.422,-0.422c0,-0 1.793,-0 1.793,-0c0.189,-0 0.363,-0.107 0.447,-0.276l0.777,-1.553c-0,-0 1.48,0.74 1.48,0.74c-0,-0 0.942,0.943 0.942,0.943c0.114,0.113 0.275,0.165 0.434,0.14c0.159,-0.026 0.295,-0.127 0.367,-0.27l1,-2c0.071,-0.141 0.071,-0.307 0,-0.448l-0.947,-1.894c0,-0 0,-1.073 0,-1.073c-0,0 1.091,0.546 1.091,0.546c0,-0 0.909,2.726 0.909,2.726c0,0 0,5.919 0,5.919c0,0.037 0.004,0.075 0.013,0.111c0.074,0.326 0.3,0.63 0.564,0.863c0.238,0.211 0.498,0.364 0.622,0.432Zm8.441,0.664c-0.05,0.128 -0.091,0.261 -0.116,0.345c0.005,-0.351 -0.024,-0.415 -0.024,-0.415l0.14,0.07Zm19.645,-9.521l0.626,-1.253c-0,0 0.796,-0.796 0.796,-0.796c0,-0 1.293,-0 1.293,-0c0,0 0,1.14 0,1.14c-0,-0 -2.658,0.886 -2.658,0.886c-0.02,0.006 -0.039,0.014 -0.057,0.023Zm1.714,-4.575l-0.01,-0.001l0.01,-0.01l0,0.011Zm-41.999,-4.165l0.656,0.328c-0,-0 -0.51,0.509 -0.51,0.509c-0.038,0.038 -0.069,0.082 -0.093,0.13l-0.862,1.724c-0,-0 -0.484,-0 -0.484,-0c0,0 -0.5,-0.5 -0.5,-0.5c0,-0 1.647,-1.646 1.647,-1.646c0.093,-0.094 0.146,-0.221 0.146,-0.354l-0,-0.191Zm4.568,-7.309l1.623,-0c-0,-0 0.809,-1.618 0.809,-1.618l0,-0.882c-0,-0.078 0.018,-0.154 0.053,-0.224l1,-2c0.048,-0.096 0.127,-0.175 0.223,-0.223c0,-0 1.724,-0.862 1.724,-0.862c0,0 -0,-3.484 -0,-3.484c-0,0 -0.5,-0.5 -0.5,-0.5l-0.646,0.647c-0.024,0.023 -0.049,0.044 -0.077,0.062c0,0 -2.958,1.973 -2.958,1.973c-0,-0 -2.819,2.818 -2.819,2.818l0,2.793c-0,0.276 -0.224,0.5 -0.5,0.5c0,-0 -1.5,-0 -1.5,0l0,1.5c0,0.202 -0.122,0.385 -0.309,0.462c-0.186,0.077 -0.402,0.035 -0.545,-0.108c0,-0 -2.509,-2.51 -2.509,-2.51c-0,0 -0.578,1.156 -0.578,1.156c0,0 0.814,1.627 0.814,1.627l1.851,0.926c0.143,0.072 0.244,0.208 0.27,0.367c0.025,0.159 -0.027,0.32 -0.14,0.434c-0,-0 -1.147,1.146 -1.147,1.146l1.793,-0c0.133,0 0.26,0.053 0.354,0.146c-0,0 1.146,1.147 1.146,1.147c0,-0 0,-0.586 0,-0.586l-0.854,-0.853c-0.18,-0.181 -0.196,-0.468 -0.036,-0.667c0,-0 0.738,-0.922 2.063,-2.066c0.518,-0.447 0.81,-0.739 0.895,-0.826c0.054,-0.12 0.151,-0.211 0.268,-0.258l-0.001,-0.009c0,-0 0.134,-0.037 0.224,-0.029l0.009,0.001Zm-0.716,3.15c-0.034,-0.041 -0.083,-0.077 -0.151,-0.108c-0.012,-0.005 -0.052,-0.024 -0.104,-0.051l0.004,-0.001c1.217,-0.252 1.845,-0.716 2.125,-0.99c-0,-0 1.274,-0 1.274,-0c0,0 0,0.293 0,0.293c0,-0 -0.707,0.707 -0.707,0.707c-0,-0 -0.793,-0 -0.793,-0c-0.276,-0 -0.5,0.224 -0.5,0.5l0,0.793l-1.146,-1.147l-0.002,0.004Zm0.344,-2.272l-0.013,-0.012c-0.05,-0.046 -0.092,-0.103 -0.121,-0.175c0.027,0.065 0.067,0.125 0.121,0.175l0.013,0.012Zm51.804,-23.878l0.293,-0c-0,-0 0.707,0.707 0.707,0.707c0,0 0,0.586 0,0.586c0,-0 -0.363,0.363 -0.363,0.363c-0,-0 -0.637,-1.274 -0.637,-1.274c0,-0 0,-0.382 -0,-0.382Zm3,-4.5c0,-0.276 -0.224,-0.5 -0.5,-0.5l-1,-0c-0.189,0 -0.363,0.107 -0.447,0.276l-0.553,1.106c-0,-0 -0.441,-0.882 -0.441,-0.882c0,0 0.852,-1.704 0.852,-1.704c-0,0 1.589,-1.589 1.589,-1.589c0,0 0.589,0.589 0.589,0.589c0,0 0.911,1.822 0.911,1.822c0,0 0,0.675 0,0.675c0,-0 -0.854,0.853 -0.854,0.853c-0.143,0.143 -0.185,0.359 -0.108,0.545c0.077,0.187 0.26,0.309 0.462,0.309l1.923,-0c0.168,0.054 0.606,0.2 1.017,0.388c0.273,0.125 0.547,0.248 0.648,0.396c0.175,0.253 0.434,0.779 0.638,1.216c-0.001,-0 -0.108,-0 -0.108,-0c0,-0 -1.894,-0.947 -1.894,-0.947c-0.07,-0.035 -0.146,-0.053 -0.224,-0.053l-2.5,-0c0,-0 0,-2.5 0,-2.5Z"/></svg>