<?xml version="1.0" encoding="UTF-8" standalone="no"?><!DOCTYPE svg PUBLIC "-//W3C//DTD SVG 1.1//EN" "http://www.w3.org/Graphics/SVG/1.1/DTD/svg11.dtd"><svg width="284px" height="189px" version="1.1" xmlns="http://www.w3.org/2000/svg" xmlns:xlink="http://www.w3.org/1999/xlink" xml:space="preserve" xmlns:serif="http://www.serif.com/" style="fill-rule:evenodd;clip-rule:evenodd;stroke-linejoin:round;stroke-miterlimit:2;"><path id="ukraine" d="M202.551,179l-0.048,-0.054c0.027,-0.251 0.239,-0.446 0.497,-0.446l-4,0c-0.078,0 -0.154,0.018 -0.224,0.053l-4,2c-0.048,0.024 -0.092,0.055 -0.13,0.093l-4,4c-0.015,0.016 -0.029,0.032 -0.042,0.049c-0,0 -0.95,1.235 -1.858,2.115c-0.344,0.333 -0.674,0.62 -0.936,0.727c-0.985,0.405 -2.828,0.781 -3.897,0.971c-0.135,0.024 -0.285,-0.028 -0.445,-0.099c-0.23,-0.101 -0.468,-0.256 -0.698,-0.428c-0.744,-0.559 -1.392,-1.308 -1.392,-1.308c-0.03,-0.034 -0.063,-0.064 -0.101,-0.089l-2.283,-1.522c0,-0 1.23,-0.615 1.23,-0.615c0.169,-0.084 0.276,-0.258 0.276,-0.447l-0,-2.919c0,0 0.974,-2.923 0.974,-2.923c0.018,-0.052 0.026,-0.107 0.026,-0.162c-0,0 -0.026,-3.593 -0.001,-3.962c0.007,-0.103 -0.013,-0.235 -0.101,-0.378c-0.065,-0.103 -0.197,-0.245 -0.388,-0.398c-0.784,-0.625 -2.773,-1.698 -2.773,-1.698c-0.073,-0.04 -0.154,-0.06 -0.237,-0.06l-2.766,-0c-0.493,-0.585 -2.058,-2.395 -2.983,-2.932c-1.048,-0.609 -2.101,-1.34 -2.954,-1.97c-0.37,-0.274 -0.899,-0.306 -1.464,-0.145c-0.709,0.201 -1.486,0.694 -1.879,0.965c0,0 -1.283,-0.642 -1.283,-0.642c-0,0 0.717,-1.434 0.717,-1.434c-0,0 2.862,-1.908 2.862,-1.908c0.282,-0.139 2.53,-1.247 3.978,-1.989c1.271,-0.651 1.88,-1.561 2.116,-2.004c-0,0 4.754,-0.951 4.754,-0.951c0.008,-0.001 0.016,-0.003 0.023,-0.005l4,-1c0.223,-0.056 0.379,-0.256 0.379,-0.485l-0,-3c-0,-0.054 -0.009,-0.107 -0.026,-0.158l-1,-3c-0.024,-0.074 -0.066,-0.141 -0.12,-0.196l-2,-2c-0.114,-0.113 -0.275,-0.165 -0.434,-0.14c-0.159,0.026 -0.295,0.127 -0.367,0.27l-0.806,1.613c-0,-0 -2.247,-0.749 -2.247,-0.749c-0,-0 -0,-1.64 -0,-1.64c0,-0.173 -0.09,-0.334 -0.237,-0.425c-0.148,-0.091 -0.332,-0.1 -0.487,-0.022l-3.894,1.947c-0,-0 -9.801,-0 -9.801,-0c0,-0 -2.847,-0.949 -2.847,-0.949c-0.397,-0.294 -2.452,-1.803 -3.066,-2.022c-0.287,-0.102 -0.712,-0.312 -1.09,-0.51c0.001,0.001 1.146,-0.572 1.146,-0.572c0.048,-0.024 0.092,-0.055 0.13,-0.093l1,-1c0.118,-0.119 0.17,-0.29 0.136,-0.455c-0.034,-0.164 -0.148,-0.301 -0.304,-0.363l-2.59,-1.036c0,-0 3.32,-0 3.32,-0c0.461,0.155 2.58,0.784 4.302,-0.05c0.581,-0.281 0.865,-0.443 0.994,-0.541c0.232,-0.175 0.267,-0.338 0.28,-0.437c0.01,-0.083 0.004,-0.163 -0.022,-0.239c0.158,-0.139 0.4,-0.26 0.639,-0.369c0.509,-0.233 1.03,-0.384 1.03,-0.384c0.134,-0.039 0.246,-0.132 0.308,-0.256l1,-2c0.078,-0.155 0.069,-0.339 -0.022,-0.487c-0.091,-0.147 -0.252,-0.237 -0.425,-0.237l-2,-0c-0.099,0 -0.195,0.029 -0.277,0.084l-2.797,1.864c0,0 -2.734,-0.911 -2.734,-0.911c-0,-0 -1.692,-0.846 -1.692,-0.846c-0,-0 -0,-4.691 -0,-4.691c0,-0.054 -0.009,-0.107 -0.026,-0.158l-0.974,-2.923c-0,-0 -0,-2.919 -0,-2.919c-0,-0.133 -0.053,-0.26 -0.146,-0.354l-3,-3c-0.196,-0.195 -0.512,-0.195 -0.708,0l-1,1c-0.168,0.169 -0.194,0.433 -0.062,0.631l1.916,2.874c-0,0 -0,1.849 -0,1.849c-0,0.054 0.009,0.107 0.026,0.158l0.947,2.842c-0,-0 -0.947,2.842 -0.947,2.842c-0.017,0.051 -0.026,0.104 -0.026,0.158l-0,1.5c-0,-0 -3,-0 -3,-0c-0,-0 0,-1.382 0,-1.382c0,0 0.947,-1.894 0.947,-1.894c0.078,-0.155 0.069,-0.339 -0.022,-0.487c-0.091,-0.147 -0.252,-0.237 -0.425,-0.237l-1,-0c-0.133,0 -0.26,0.053 -0.354,0.146l-0.745,0.746c0,-0 -1.677,-0.839 -1.677,-0.839c-0.193,-0.096 -0.425,-0.059 -0.578,0.093c-0.152,0.153 -0.189,0.385 -0.093,0.578l0.888,1.776c-0,-0 -0.796,1.591 -0.796,1.591c0,0 -2.726,0.909 -2.726,0.909c-0,-0 -3.919,-0 -3.919,-0c-0.054,-0 -0.107,0.009 -0.158,0.026l-3,1c-0.204,0.068 -0.342,0.259 -0.342,0.474l-0,2.882c-0,-0 -0.809,1.618 -0.809,1.618c-0,-0 -0.691,-0 -0.691,-0c-0.276,0 -0.5,0.224 -0.5,0.5l-0,0.919c-0,-0 -0.946,2.838 -0.946,2.838c-0,0 -3.927,4.909 -3.927,4.909c-0,0 -1.834,1.834 -1.834,1.834c-0,0 -1.793,-0 -1.793,-0c-0.078,-0 -0.154,0.018 -0.224,0.053l-2,1c-0.062,0.031 -0.118,0.075 -0.162,0.13c-0,-0 -1.051,1.284 -1.91,1.914c-0.287,0.211 -0.504,0.397 -0.668,0.556l-1.62,-2.43c-0.122,-0.184 -0.35,-0.265 -0.561,-0.202c-0.211,0.064 -0.355,0.259 -0.355,0.479l0,1.938c0,0 -0.985,3.941 -0.985,3.941c-0.01,0.039 -0.015,0.08 -0.015,0.121l0,2c0,0.189 0.107,0.363 0.276,0.447l1.726,0.863c0,0 0.653,1.19 0.653,1.19c0,-0 -0.948,-0 -0.948,-0c0,-0 -2.853,-2.854 -2.853,-2.854c-0.125,-0.124 -0.305,-0.174 -0.475,-0.131l-4,1c-0.036,0.009 -0.07,0.021 -0.103,0.038l-4,2c-0.048,0.024 -0.092,0.055 -0.13,0.093l-1.853,1.854c-0,-0 -2.626,-0 -2.626,-0c-0,0 -3.742,-2.806 -3.742,-2.806c-0,-0 -0.286,-0.857 -0.286,-0.857c0,-0 2.138,-1.421 2.138,-1.421c0.139,-0.092 0.223,-0.249 0.223,-0.416l-0,-3.825c0,0 3.851,-4.813 3.851,-4.813c-0,-0 3.949,-2.962 3.949,-2.962c0.092,-0.069 0.157,-0.167 0.185,-0.279l1,-4c0.02,-0.079 0.02,-0.163 0,-0.242l-0.931,-3.726c-0,0 2.227,-2.227 2.227,-2.227c0,-0 0.745,2.232 0.745,2.232c0.087,0.262 0.37,0.404 0.632,0.316l2.842,-0.947c-0,0 2.842,0.947 2.842,0.947c0.18,0.06 0.378,0.013 0.512,-0.12l1.568,-1.569c0,-0 1.662,2.492 1.662,2.492c0.153,0.23 0.464,0.292 0.693,0.139l3,-2c0.197,-0.131 0.275,-0.382 0.187,-0.602l-4,-10c-0.034,-0.085 -0.091,-0.159 -0.164,-0.214l-3.8,-2.85c-0,0 -0,-2.75 -0,-2.75c-0,-0.078 -0.018,-0.154 -0.053,-0.224l-3,-6c-0.024,-0.048 -0.055,-0.092 -0.093,-0.13l-3.767,-3.766c-0,-0 1.877,-4.694 1.877,-4.694c0.039,-0.098 0.047,-0.205 0.021,-0.307l-1,-4c-0.056,-0.223 -0.256,-0.379 -0.485,-0.379l-3.716,-0l-0.626,-1.05c-0.45,-0.722 -0.989,-1.515 -1.32,-1.818c-0.341,-0.313 -0.664,-0.689 -1.149,-0.941c-0.029,-0.015 -0.06,-0.027 -0.092,-0.036l-0.799,-0.229c-0.03,-0.009 -0.06,-0.014 -0.09,-0.017c-0.362,-0.035 -0.792,-0.011 -1.314,0.102c-0.898,0.196 -1.433,0.441 -1.755,0.649l-0.692,-1.384c-0.031,-0.061 -0.074,-0.116 -0.127,-0.16c0,-0 -1.814,-1.513 -4.2,-2.101c-2.01,-0.496 -2.674,-1.741 -2.674,-1.741c-0.042,-0.084 -0.108,-0.154 -0.189,-0.203l-5,-3c-0.077,-0.046 -0.166,-0.071 -0.257,-0.071l-4,-0c-0.064,-0 -0.127,0.012 -0.186,0.036l-4.91,1.964c-0,-0 -2.904,-0 -2.904,-0c-0.099,0 -0.195,0.029 -0.277,0.084l-2.974,1.983c-0,-0 -1.924,0.961 -1.924,0.961c0,0 -3.946,0.987 -3.946,0.987c-0.223,0.056 -0.379,0.256 -0.379,0.485l-0,1.849c-0,-0 -1.801,2.701 -1.801,2.701c-0,0 -14.797,2.96 -14.797,2.96c-0.097,0.019 -0.186,0.067 -0.256,0.136l-2.942,2.943c-0,0 -1.605,0.803 -1.605,0.803c-0,-0 -4.745,-4.746 -4.745,-4.746c-0.038,-0.038 -0.082,-0.069 -0.13,-0.093l-2,-1c-0.1,-0.05 -0.213,-0.065 -0.322,-0.043l-4.832,0.966c0,0 -1.846,-0.923 -1.846,-0.923c-0.119,-0.06 -0.256,-0.069 -0.382,-0.027l-2.589,0.863c0,-0 -0.806,-1.613 -0.806,-1.613c-0.084,-0.169 -0.258,-0.276 -0.447,-0.276l-6.849,-0c0,-0 -2.874,-1.916 -2.874,-1.916c-0.198,-0.132 -0.462,-0.106 -0.631,0.062l-1.942,1.943c-0,0 -1.204,0.602 -1.204,0.602c0,-0 -0,-1.191 -0,-1.191c-0,-0.189 -0.107,-0.363 -0.276,-0.447l-3.882,-1.941c0,0 -1.926,-2.889 -1.926,-2.889c-0.093,-0.139 -0.249,-0.223 -0.416,-0.223l-2.793,-0c0,0 -0.707,-0.707 -0.707,-0.707c-0,-0 -0,-1.793 -0,-1.793c-0,-0.189 -0.107,-0.363 -0.276,-0.447l-1.724,-0.862c-0,-0 -0,-3.484 -0,-3.484c0,0 2.854,-2.853 2.854,-2.853c0.038,-0.038 0.069,-0.082 0.093,-0.13l1,-2c0.011,-0.022 0.02,-0.043 0.027,-0.066l0.989,-2.966c0,-0 1.612,-3.224 1.612,-3.224c-0,0 3.739,1.496 3.739,1.496c0.154,0.062 0.329,0.043 0.466,-0.05c0.138,-0.093 0.22,-0.248 0.22,-0.414l-0,-4c-0,-0.078 -0.018,-0.154 -0.053,-0.224l-2.947,-5.894c-0,-0 -0,-3.708 -0,-3.708c0,-0 14.81,-18.759 14.81,-18.759c-0,-0 4.876,-1.951 4.876,-1.951c0.063,-0.025 0.12,-0.063 0.168,-0.11l3,-3c0.162,-0.163 0.193,-0.415 0.075,-0.611l-2.768,-4.614c-0,0 3.639,-2.729 3.639,-2.729c0.212,-0.159 0.263,-0.457 0.116,-0.677l-4,-6c-0.031,-0.048 -0.071,-0.089 -0.116,-0.123l-3.852,-2.889c-0,-0 -1.825,-8.211 -1.825,-8.211c0,-0 5.377,-0 5.377,-0c0.078,-0 0.154,-0.018 0.224,-0.053l6,-3c0.13,-0.065 0.226,-0.184 0.261,-0.326l0.905,-3.621c0,-0 7.61,-0 7.61,-0c0.033,-0 0.066,-0.003 0.098,-0.01l4.952,-0.99c-0,-0 9.9,-0 9.9,-0c0,0 4.94,0.988 4.94,0.988c0,-0 7.905,1.976 7.905,1.976c-0,0 2.928,1.952 2.928,1.952c0.117,0.078 0.262,0.103 0.398,0.069l3.678,-0.919c0,-0 2.801,3.734 2.801,3.734c0.077,0.103 0.191,0.172 0.318,0.193l5.703,0.951c-0,-0 0.905,2.714 0.905,2.714c0.064,0.192 0.237,0.326 0.439,0.341c0.201,0.014 0.392,-0.095 0.482,-0.275l1.806,-3.613c0,0 5.589,1.863 5.589,1.863c0.152,0.051 0.32,0.026 0.45,-0.068c0.131,-0.094 0.208,-0.245 0.208,-0.406l-0,-1.793c-0,0 2.146,2.147 2.146,2.147c0.134,0.133 0.332,0.18 0.512,0.12l2.589,-0.863c-0,0 1.806,3.613 1.806,3.613c0.093,0.187 0.294,0.296 0.502,0.273c0.208,-0.023 0.379,-0.173 0.43,-0.376l0.927,-3.709c0,0 3.478,-0.869 3.478,-0.869c0,-0 3.741,2.806 3.741,2.806c0,-0 1.953,2.928 1.953,2.928c0.083,0.125 0.218,0.206 0.367,0.221c0.149,0.014 0.297,-0.039 0.403,-0.144l2.781,-2.782c0,0 2.707,0.902 2.707,0.902c0.051,0.017 0.104,0.026 0.158,0.026c-0,0 0.166,0.024 0.342,-0.135l0.272,-0.246c0.413,-0.329 1.283,-0.877 2.452,-0.791c0.005,0.001 0.812,0.158 0.812,0.158c2.18,0.675 4.519,2.655 4.771,2.872l0.01,0.008l2.987,2.988c0.123,0.122 0.3,0.172 0.469,0.133c0.169,-0.04 0.305,-0.164 0.359,-0.329l1,-3c0.028,-0.082 0.033,-0.171 0.016,-0.256l-0.972,-4.86c0,-0 2.925,-7.799 2.925,-7.799c-0,-0 2.807,-3.743 2.807,-3.743c-0,-0 4.75,-0 4.75,-0c0.167,-0 0.323,-0.084 0.416,-0.223l1.491,-2.236c-0,0 5.955,1.44 5.955,1.44c-0,0 2.98,0.993 2.98,0.993c0.103,0.035 0.213,0.035 0.316,0l6,-2c0.204,-0.068 0.342,-0.259 0.342,-0.474l-0,-1.919c0,0 0.816,-2.449 0.816,-2.449c0,0 2.492,0.831 2.492,0.831c0,0 1.968,0.984 1.968,0.984c0.07,0.035 0.146,0.053 0.224,0.053l3,-0c0.133,-0 0.26,-0.053 0.354,-0.146l2.853,-2.854c0,-0 4.675,-0 4.675,-0c-0,0 1.894,0.947 1.894,0.947c0.141,0.071 0.307,0.071 0.448,0l1.776,-0.888c-0,0 1.749,0.874 1.749,0.874c-0,0 2.831,1.888 2.831,1.888c-0,-0 0.92,2.76 0.92,2.76c-0,0 -0,2.919 -0,2.919c-0,0.133 0.053,0.26 0.146,0.354l5.647,5.646c-0,0 -1.5,1.5 -1.5,1.5c-0,-0 -2.793,-0 -2.793,-0c-0.189,0 -0.363,0.107 -0.447,0.276l-1,2c-0.124,0.247 -0.024,0.548 0.223,0.671l1.724,0.862c0,0 0,4.691 0,4.691c0,0.133 0.053,0.26 0.146,0.354l0.746,0.745c-0,-0 -0.839,1.677 -0.839,1.677c-0.078,0.155 -0.069,0.339 0.022,0.487c0.091,0.147 0.252,0.237 0.425,0.237l3.919,-0c-0,0 2.811,0.937 2.811,0.937c-0,0 0.916,0.917 0.916,0.917c0.094,0.093 0.221,0.146 0.354,0.146l2,-0c0.078,-0 0.154,-0.018 0.224,-0.053l1.776,-0.888c-0,0 1.522,0.761 1.522,0.761c0.042,0.289 0.159,0.719 0.476,1.129c0.341,0.441 0.916,0.874 1.919,1.044c0.656,0.111 1.075,0.248 1.34,0.388c0.035,0.018 0.067,0.038 0.096,0.058l-0.707,0.707c-0.133,0.134 -0.18,0.332 -0.12,0.512l1,3c0.01,0.03 0.022,0.059 0.038,0.086c-0,0 0.772,1.379 1.393,2.287c0.224,0.329 0.445,0.597 0.616,0.76c-0.013,0.082 -0.038,0.212 -0.069,0.314c-0.262,0.859 -0.947,2.163 -0.947,2.163c-0.037,0.072 -0.057,0.151 -0.057,0.232l-0,2c-0,0.078 0.018,0.154 0.053,0.224l2,4c0.024,0.048 0.055,0.092 0.093,0.13l2,2c0.114,0.113 0.275,0.165 0.434,0.14c0.159,-0.026 0.295,-0.127 0.367,-0.27l0.862,-1.724c0,-0 6.382,-0 6.382,-0c-0,0 0.862,1.724 0.862,1.724c0.048,0.096 0.127,0.175 0.223,0.223l2,1c0.07,0.035 0.146,0.053 0.224,0.053l1.691,-0c-0,0 0.862,1.724 0.862,1.724c0.111,0.222 0.369,0.329 0.605,0.25l3,-1c0.074,-0.024 0.141,-0.066 0.196,-0.12l1.853,-1.854c0,-0 2.793,-0 2.793,-0c0.054,0 0.107,-0.009 0.158,-0.026l3,-1c0.074,-0.024 0.141,-0.066 0.196,-0.12l1.646,-1.647c0,0 1.589,1.589 1.589,1.589c0,0 0.948,1.896 0.948,1.896c-0,-0 0.989,2.966 0.989,2.966c0.024,0.074 0.066,0.141 0.12,0.196l3,3c0.038,0.038 0.082,0.069 0.13,0.093l1.851,0.926c0,-0 0.926,1.851 0.926,1.851c0.084,0.169 0.258,0.276 0.447,0.276l3,-0c0.276,0 0.5,-0.224 0.5,-0.5l-0,-3.191c-0,0 1.249,0.624 1.249,0.624c-0,0 2.974,1.983 2.974,1.983c0.082,0.055 0.178,0.084 0.277,0.084l1.882,-0c-0,0 1.822,0.911 1.822,0.911c-0,-0 1.942,1.943 1.942,1.943c0.038,0.038 0.082,0.069 0.13,0.093l2,1c0.193,0.096 0.425,0.059 0.578,-0.093l1.509,-1.51c0,0 0.69,1.38 0.69,1.38c0.024,0.048 0.055,0.092 0.093,0.13l2,2c0.094,0.093 0.221,0.146 0.354,0.146l2.793,-0c-0,-0 3.853,3.854 3.853,3.854c0.094,0.093 0.221,0.146 0.354,0.146l2,-0c0.133,-0 0.26,-0.053 0.354,-0.146l1.745,-1.746c-0,0 1.171,0.586 1.171,0.586c-0,-0 -1.686,2.529 -1.686,2.529c-0.1,0.149 -0.111,0.34 -0.031,0.501l1.87,3.74c0,0 -1.839,2.759 -1.839,2.759c-0.012,0.017 -0.022,0.035 -0.031,0.053l-0.884,1.769c-0.401,0.066 -1.187,0.214 -1.87,0.459c-0.468,0.167 -0.888,0.386 -1.147,0.637c-0.638,0.618 -1.766,0.872 -1.766,0.872c-0.149,0.035 -0.274,0.136 -0.339,0.275c-0.065,0.138 -0.063,0.299 0.006,0.436l1,2c0.059,0.118 0.163,0.208 0.289,0.25l4.855,1.619c-0,-0 -0.815,0.407 -0.815,0.407c-0,-0 -2.882,-0 -2.882,-0c-0.189,0 -0.363,0.107 -0.447,0.276l-1,2c-0.011,0.022 -0.02,0.043 -0.027,0.066l-1,3c-0.051,0.152 -0.026,0.32 0.068,0.45c0.094,0.131 0.245,0.208 0.406,0.208l2.5,-0c0,0 0,2.5 0,2.5c-0,0.078 0.018,0.154 0.053,0.224l0.888,1.776c-0,-0 -0.888,1.776 -0.888,1.776c-0.078,0.155 -0.069,0.339 0.022,0.487c0.091,0.147 0.252,0.237 0.425,0.237l1.793,-0c-0,-0 -1.147,1.146 -1.147,1.146c-0.038,0.038 -0.069,0.082 -0.093,0.13l-1,2c-0.017,0.033 -0.029,0.067 -0.038,0.103l-1,4c-0.01,0.039 -0.015,0.08 -0.015,0.121l0,1.694c-0.231,0.07 -0.687,0.135 -1.288,-0.147c-0.669,-0.313 -1.404,-0.202 -2.044,0.076c-0.569,0.247 -1.055,0.618 -1.315,0.838c0.001,-0 -4.755,-0.951 -4.755,-0.951c-0.032,-0.007 -0.065,-0.01 -0.098,-0.01l-4,-0c-0.167,0 -0.323,0.084 -0.416,0.223l-1.945,2.916c0,0 -2.85,1.901 -2.85,1.901c-0.459,0.127 -2.868,0.79 -3.876,0.968c-0.647,0.114 -1.025,0.573 -1.222,1.109c-0.188,0.51 -0.198,1.08 -0.194,1.312c0,-0.002 -0.971,2.913 -0.971,2.913c-0.017,0.051 -0.026,0.104 -0.026,0.158l0,2c0,0.189 0.107,0.363 0.276,0.447l1.38,0.69c-0,-0 -0.51,0.509 -0.51,0.509c-0.038,0.038 -0.069,0.082 -0.093,0.13l-0.926,1.851l-1.745,0.873l-7.882,-0c-0.189,0 -0.363,0.107 -0.447,0.276l-0.964,1.928c0,-0 -1.796,1.796 -1.796,1.796c-0,-0 -3.793,-0 -3.793,-0c-0.078,-0 -0.154,0.018 -0.224,0.053l-4,2c-0.096,0.048 -0.175,0.127 -0.223,0.223l-0.806,1.613c-0,-0 -2.589,-0.863 -2.589,-0.863c-0.103,-0.035 -0.213,-0.035 -0.316,-0l-3,1c-0.074,0.024 -0.141,0.066 -0.196,0.12l-1.853,1.854c-0,-0 -5.793,-0 -5.793,-0c-0.078,0 -0.154,0.018 -0.224,0.053l-2,1c-0.026,0.013 -0.052,0.029 -0.076,0.047l-4,3c-0.024,0.018 -0.046,0.038 -0.066,0.059c0,0 -1.72,1.85 -2.63,2.678c-0.015,-0.112 -0.029,-0.234 -0.042,-0.363c-0.046,-0.452 -0.09,-0.971 -0.191,-1.405c-0.083,-0.361 -0.211,-0.67 -0.382,-0.883c-0.764,-0.949 -2.321,-1.181 -2.321,-1.181c-0.183,-0.026 -0.366,0.053 -0.474,0.204c-0.108,0.15 -0.124,0.349 -0.041,0.515l0.888,1.776c-0,-0 -1.75,3.5 -1.75,3.5c-0,-0 -3.691,-0 -3.691,-0c-0.215,-0 -0.406,0.138 -0.474,0.342l-1,3c-0.035,0.103 -0.035,0.213 -0,0.316l0.994,2.982c-0,-0 0.995,3.981 0.995,3.981c0.012,0.048 0.031,0.094 0.056,0.136l3,5c0.009,0.015 0.019,0.029 0.029,0.043l3,4c0.028,0.038 0.062,0.072 0.1,0.1l4,3c0.131,0.098 0.302,0.126 0.458,0.074l3,-1c0.074,-0.024 0.141,-0.066 0.196,-0.12l1.646,-1.647c0,0 0.646,0.647 0.646,0.647c0.038,0.038 0.082,0.069 0.13,0.093l2,1c0.193,0.096 0.425,0.059 0.578,-0.093l1.942,-1.943c0,-0 1.742,-0.871 1.742,-0.871c0,-0 2.77,0.923 2.77,0.923c0,0 1.074,0.537 1.074,0.537c-0,0 -1.106,0.553 -1.106,0.553c-0.079,0.04 -0.147,0.1 -0.196,0.175c0,0 -0.387,0.637 -0.785,0.816c-0.18,0.081 -0.295,0.259 -0.295,0.456l0,4.691l-1.704,0.852c-0.033,0.012 -0.152,0.056 -0.27,0.076c-0.057,0.01 -0.167,0.008 -0.195,0.007c-0.096,-0.084 -0.298,-0.201 -0.575,-0.31c-0.864,-0.34 -2.63,-0.8 -2.63,-0.8c-0.229,-0.059 -0.468,0.049 -0.573,0.26l-0.777,1.553c0,0 -1.525,-0.762 -1.525,-0.762c0,-0 -2.974,-1.983 -2.974,-1.983c-0.082,-0.055 -0.178,-0.084 -0.277,-0.084l-3,-0c-0.189,-0 -0.363,0.107 -0.447,0.276l-0.973,1.946c-0.083,0.094 -0.319,0.342 -0.648,0.539c-0.248,0.147 -0.553,0.27 -0.889,0.241c-0.591,-0.052 -1.153,0.337 -1.659,0.97c-0.548,0.684 -1.056,1.668 -1.679,2.125c-0.22,0.161 -0.458,0.258 -0.458,0.258c0,0 0.132,0.033 0.17,0.065c0.043,0.036 0.078,0.082 0.081,0.124c0.011,0.131 -0.042,0.226 -0.118,0.294c-0.43,0.108 -0.38,-0.338 -0.38,-0.338l-0.449,-0Zm-81.264,-155.759l-0.146,-0.369l0.013,-0.011l0.133,0.38Z"/></svg>