<?xml version="1.0" encoding="UTF-8" standalone="no"?><!DOCTYPE svg PUBLIC "-//W3C//DTD SVG 1.1//EN" "http://www.w3.org/Graphics/SVG/1.1/DTD/svg11.dtd"><svg width="12px" height="12px" version="1.1" xmlns="http://www.w3.org/2000/svg" xmlns:xlink="http://www.w3.org/1999/xlink" xml:space="preserve" xmlns:serif="http://www.serif.com/" style="fill-rule:evenodd;clip-rule:evenodd;stroke-linejoin:round;stroke-miterlimit:2;"><path id="vatican" d="M3.482,10.865l-0.005,-0.015c-0.04,-0.126 -0.129,-0.235 -0.253,-0.297l-0.771,-0.386c-1.201,-0.988 -1.953,-2.491 -1.953,-4.167c-0,-3.036 2.464,-5.5 5.5,-5.5c3.036,0 5.5,2.464 5.5,5.5c0,3.036 -2.464,5.5 -5.5,5.5c-0.912,0 -1.772,-0.222 -2.518,-0.635Zm0.008,0.568c0.039,-0.056 0.067,-0.121 0.074,-0.198c-0.003,0.034 -0.008,0.067 -0.018,0.101c-0.01,0.037 -0.024,0.071 -0.041,0.104l-0.015,-0.007Zm0.056,-0.366l-0.005,-0.018l0.005,0.019c0.004,0.012 0.007,0.025 0.009,0.037l-0.009,-0.038Z"/></svg>