<?xml version="1.0" encoding="UTF-8" standalone="no"?><!DOCTYPE svg PUBLIC "-//W3C//DTD SVG 1.1//EN" "http://www.w3.org/Graphics/SVG/1.1/DTD/svg11.dtd"><svg width="363px" height="88px" version="1.1" xmlns="http://www.w3.org/2000/svg" xmlns:xlink="http://www.w3.org/1999/xlink" xml:space="preserve" xmlns:serif="http://www.serif.com/" style="fill-rule:evenodd;clip-rule:evenodd;stroke-linejoin:round;stroke-miterlimit:2;"><g id="nupp"><path d="M363,22.649c-0,-12.004 -9.746,-21.75 -21.75,-21.75l-319.5,-0c-12.004,-0 -21.75,9.746 -21.75,21.75l0,43.5c0,12.004 9.746,21.75 21.75,21.75l319.5,-0c12.004,-0 21.75,-9.746 21.75,-21.75l-0,-43.5Z" style="fill:#c6cf14;"/><path d="M20.941,54.47l-0,-27.851c-0,-0.829 -0.134,-1.433 -0.401,-1.812c-0.134,-0.213 -0.262,-0.349 -0.385,-0.408c-0.122,-0.06 -0.551,-0.219 -1.286,-0.48c-0.891,-0.308 -1.336,-0.935 -1.336,-1.883c-0,-0.615 0.217,-1.083 0.651,-1.403c0.434,-0.32 1.053,-0.48 1.854,-0.48l16.639,0l1.203,0.143c0.379,0.118 0.691,0.331 0.936,0.639c0.245,0.308 0.367,0.675 0.367,1.101c0,0.948 -0.445,1.575 -1.336,1.883c-0.735,0.261 -1.164,0.42 -1.287,0.48c-0.122,0.059 -0.25,0.195 -0.384,0.408c-0.267,0.379 -0.401,0.983 -0.401,1.812l0,29.805c0,2.013 0.05,3.416 0.151,4.21c0.1,0.793 0.306,1.509 0.618,2.149c0.289,0.592 0.612,1.018 0.969,1.279c0.356,0.26 1.035,0.556 2.038,0.888l-0,4.654l-0.735,-0c-2.896,-0 -5.302,-0.273 -7.217,-0.818c-2.25,-0.639 -4.221,-1.586 -5.914,-2.841c-1.693,-1.256 -2.896,-2.665 -3.608,-4.228c-0.758,-1.658 -1.136,-4.073 -1.136,-7.247Zm21.684,15.134l-0,-4.654c2.227,-0.308 4.087,-1.279 5.579,-2.913c1.693,-1.871 2.54,-4.559 2.54,-8.064l-0,-23.162c-0,-3.245 -1.17,-5.506 -3.509,-6.785c-0.69,-0.379 -1.141,-0.705 -1.353,-0.977c-0.211,-0.273 -0.317,-0.669 -0.317,-1.19c-0,-0.616 0.211,-1.054 0.635,-1.315c0.423,-0.26 1.113,-0.391 2.071,-0.391l8.186,0c0.691,0 1.153,0.018 1.387,0.054c0.234,0.035 0.462,0.124 0.685,0.266c0.579,0.355 0.868,0.841 0.868,1.457c0,0.521 -0.178,0.959 -0.534,1.314c-0.112,0.119 -0.591,0.438 -1.437,0.959c-0.98,0.569 -1.749,1.439 -2.305,2.611c-0.557,1.173 -0.836,2.505 -0.836,3.997l0,23.197c0,3.979 -0.824,7.247 -2.472,9.805c-1.203,1.895 -2.929,3.41 -5.179,4.547c-1.114,0.569 -2.45,0.983 -4.009,1.244Z" style="fill-rule:nonzero;"/><path d="M67.249,54.47l0,-27.851c0,-0.829 -0.134,-1.433 -0.401,-1.812c-0.134,-0.213 -0.262,-0.349 -0.384,-0.408c-0.123,-0.06 -0.551,-0.219 -1.286,-0.48c-0.891,-0.308 -1.337,-0.935 -1.337,-1.883c0,-0.615 0.217,-1.083 0.652,-1.403c0.434,-0.32 1.052,-0.48 1.854,-0.48l16.639,0l1.203,0.143c0.378,0.118 0.69,0.331 0.935,0.639c0.245,0.308 0.368,0.675 0.368,1.101c-0,0.948 -0.446,1.575 -1.337,1.883c-0.735,0.261 -1.164,0.42 -1.286,0.48c-0.123,0.059 -0.251,0.195 -0.384,0.408c-0.268,0.379 -0.401,0.983 -0.401,1.812l-0,29.805c-0,2.013 0.05,3.416 0.15,4.21c0.1,0.793 0.306,1.509 0.618,2.149c0.29,0.592 0.613,1.018 0.969,1.279c0.357,0.26 1.036,0.556 2.038,0.888l0,4.654l-0.735,-0c-2.895,-0 -5.301,-0.273 -7.217,-0.818c-2.249,-0.639 -4.221,-1.586 -5.914,-2.841c-1.692,-1.256 -2.895,-2.665 -3.608,-4.228c-0.757,-1.658 -1.136,-4.073 -1.136,-7.247Zm21.684,15.134l0,-4.654c2.228,-0.308 4.088,-1.279 5.58,-2.913c1.693,-1.871 2.539,-4.559 2.539,-8.064l0,-23.162c0,-3.245 -1.169,-5.506 -3.508,-6.785c-0.691,-0.379 -1.142,-0.705 -1.353,-0.977c-0.212,-0.273 -0.318,-0.669 -0.318,-1.19c0,-0.616 0.212,-1.054 0.635,-1.315c0.423,-0.26 1.114,-0.391 2.072,-0.391l8.186,0c0.69,0 1.152,0.018 1.386,0.054c0.234,0.035 0.462,0.124 0.685,0.266c0.579,0.355 0.869,0.841 0.869,1.457c-0,0.521 -0.178,0.959 -0.535,1.314c-0.111,0.119 -0.59,0.438 -1.437,0.959c-0.98,0.569 -1.748,1.439 -2.305,2.611c-0.557,1.173 -0.835,2.505 -0.835,3.997l-0,23.197c-0,3.979 -0.824,7.247 -2.473,9.805c-1.202,1.895 -2.929,3.41 -5.178,4.547c-1.114,0.569 -2.451,0.983 -4.01,1.244Z" style="fill-rule:nonzero;"/><path d="M126.12,19.194l0,4.086c-1.381,0.402 -2.433,1.024 -3.157,1.865c-0.724,0.84 -1.086,1.877 -1.086,3.108c-0,1.184 0.301,2.22 0.902,3.108c0.602,0.889 1.582,1.735 2.94,2.54c0.936,0.545 3.052,1.587 6.349,3.127c2.004,0.923 3.558,1.758 4.66,2.504c1.103,0.746 2.144,1.676 3.124,2.789c2.629,2.936 3.943,6.43 3.943,10.479c0,3.056 -0.713,5.85 -2.138,8.384c-1.426,2.534 -3.386,4.524 -5.881,5.968c-1.336,0.758 -2.801,1.356 -4.393,1.794c-1.593,0.438 -3.08,0.658 -4.461,0.658l0,-4.05c1.938,-0.498 3.336,-1.19 4.193,-2.078c0.858,-0.889 1.287,-2.09 1.287,-3.606c-0,-1.587 -0.669,-2.984 -2.005,-4.192c-0.891,-0.782 -2.584,-1.753 -5.079,-2.913c-2.739,-1.279 -4.616,-2.191 -5.629,-2.735c-1.014,-0.545 -1.988,-1.185 -2.924,-1.919c-4.188,-3.173 -6.281,-7.401 -6.281,-12.682c-0,-2.7 0.523,-5.192 1.57,-7.478c1.047,-2.285 2.506,-4.127 4.377,-5.524c2.606,-1.942 5.836,-3.02 9.689,-3.233Zm2.64,4.086l-0,-3.908c1.336,0.095 2.495,0.278 3.475,0.551c0.98,0.272 2.372,0.811 4.176,1.616c0.446,0.189 0.813,0.284 1.103,0.284c0.423,0 0.735,-0.154 0.935,-0.462l0.735,-1.03c0.357,-0.521 0.791,-0.781 1.303,-0.781c0.602,-0 1.042,0.23 1.32,0.692c0.278,0.462 0.418,1.19 0.418,2.185l-0,11.723c-0,0.687 -0.184,1.249 -0.552,1.688c-0.367,0.438 -0.84,0.657 -1.42,0.657c-0.445,-0 -0.857,-0.154 -1.236,-0.462c-0.2,-0.19 -0.362,-0.42 -0.484,-0.693c-0.123,-0.272 -0.24,-0.728 -0.351,-1.367c-0.245,-1.161 -0.668,-2.357 -1.27,-3.588c-0.601,-1.232 -1.303,-2.333 -2.105,-3.304c-1.603,-1.919 -3.619,-3.186 -6.047,-3.801Zm-4.377,42.274l-0,4.05c-1.827,-0 -3.842,-0.557 -6.048,-1.67c-0.824,-0.403 -1.392,-0.663 -1.704,-0.782c-0.311,-0.118 -0.612,-0.177 -0.902,-0.177c-0.445,-0 -0.779,0.077 -1.002,0.231c-0.223,0.154 -0.579,0.538 -1.069,1.154c-0.401,0.521 -0.836,0.782 -1.303,0.782c-1.248,-0 -1.871,-1.019 -1.871,-3.055l-0,-12.931c-0,-0.663 0.178,-1.226 0.534,-1.688c0.357,-0.462 0.802,-0.704 1.337,-0.728c0.49,-0.024 0.874,0.124 1.152,0.444c0.279,0.32 0.518,0.882 0.719,1.688c0.512,2.036 1.253,3.943 2.222,5.719c0.969,1.776 2.099,3.28 3.391,4.512c1.314,1.278 2.829,2.096 4.544,2.451Z" style="fill-rule:nonzero;"/><path d="M196.017,20.153l15.737,0c1.671,0 2.506,0.616 2.506,1.848c0,0.971 -0.445,1.61 -1.336,1.918c-0.735,0.261 -1.164,0.42 -1.287,0.48c-0.122,0.059 -0.25,0.195 -0.384,0.408c-0.267,0.379 -0.401,0.983 -0.401,1.812l0,35.56c0,0.829 0.134,1.433 0.401,1.812c0.134,0.213 0.262,0.349 0.384,0.408c0.123,0.059 0.552,0.219 1.287,0.48c0.891,0.308 1.336,0.947 1.336,1.918c0,1.232 -0.835,1.847 -2.506,1.847l-16.873,0c-0.98,0 -1.72,-0.159 -2.222,-0.479c-0.501,-0.32 -0.751,-0.8 -0.751,-1.439c-0,-1.042 0.534,-1.693 1.603,-1.954c0.869,-0.237 1.381,-0.385 1.537,-0.444c0.156,-0.059 0.312,-0.195 0.468,-0.408c0.334,-0.427 0.501,-1.102 0.501,-2.025l0,-41.742Zm-12.295,0l6.582,19.93l2.907,-10.764l-0,11.794l-7.718,27.531l-1.771,0l-12.964,-40.888c-0.445,-1.374 -0.913,-2.298 -1.403,-2.771c-0.29,-0.308 -0.791,-0.533 -1.504,-0.675c-1.447,-0.332 -2.171,-1.066 -2.171,-2.203c-0,-0.615 0.206,-1.095 0.618,-1.438c0.412,-0.344 1.008,-0.516 1.787,-0.516l15.637,0Zm-12.964,16.342l3.542,10.728l-0,10.693c-0,1.089 0.039,1.871 0.117,2.345c0.078,0.473 0.25,0.994 0.518,1.563c0.467,1.042 1.113,1.823 1.937,2.344l1.237,0.853c0.846,0.545 1.269,1.149 1.269,1.812c0,1.207 -0.835,1.811 -2.506,1.811l-8.386,0c-1.67,0 -2.506,-0.592 -2.506,-1.776c0,-0.379 0.073,-0.669 0.217,-0.87c0.145,-0.202 0.429,-0.432 0.852,-0.693c2.473,-1.421 3.709,-3.884 3.709,-7.389l0,-21.421Z" style="fill-rule:nonzero;"/><path d="M233.138,20.153l13.465,0l9.288,41.742c0.178,0.734 0.379,1.385 0.601,1.954c0.201,0.45 0.646,0.817 1.337,1.101c0.579,0.26 0.98,0.521 1.203,0.781c0.222,0.261 0.334,0.616 0.334,1.066c-0,1.232 -0.869,1.847 -2.606,1.847l-16.673,0c-0.668,0 -1.203,-0.171 -1.604,-0.515c-0.4,-0.343 -0.601,-0.799 -0.601,-1.367c0,-0.474 0.089,-0.829 0.267,-1.066c0.179,-0.237 0.58,-0.533 1.203,-0.888c0.446,-0.237 0.758,-0.498 0.936,-0.782c0.178,-0.284 0.267,-0.639 0.267,-1.066c0,-0.402 -0.033,-0.757 -0.1,-1.065l-1.069,-5.151l-9.322,-0l0.902,-4.228l7.484,0l-6.148,-28.881l0.836,-3.482Zm-2.306,9.024l1.704,7.353l-5.914,22.949c-0.178,0.663 -0.267,1.279 -0.267,1.847c0,1.492 0.657,2.558 1.971,3.198l1.17,0.568c0.735,0.355 1.102,0.947 1.102,1.776c0,1.184 -0.813,1.776 -2.439,1.776l-8.486,0c-0.824,0 -1.476,-0.183 -1.955,-0.55c-0.479,-0.367 -0.718,-0.871 -0.718,-1.51c-0,-0.687 0.49,-1.255 1.47,-1.705c0.913,-0.427 1.587,-0.811 2.021,-1.155c0.435,-0.343 0.852,-0.811 1.253,-1.403c0.624,-0.971 1.136,-2.262 1.537,-3.872l7.551,-29.272Zm2.306,-22.523c1.358,0 2.522,0.515 3.491,1.546c0.969,1.03 1.454,2.267 1.454,3.712c-0,1.444 -0.485,2.682 -1.454,3.712c-0.969,1.03 -2.133,1.545 -3.491,1.545c-1.359,0 -2.523,-0.515 -3.492,-1.545c-0.969,-1.03 -1.453,-2.268 -1.453,-3.712c-0,-1.445 0.484,-2.682 1.453,-3.712c0.969,-1.031 2.133,-1.546 3.492,-1.546Zm12.729,0c1.359,0 2.523,0.515 3.492,1.546c0.969,1.03 1.453,2.267 1.453,3.712c0,1.444 -0.484,2.682 -1.453,3.712c-0.969,1.03 -2.133,1.545 -3.492,1.545c-1.358,0 -2.522,-0.515 -3.491,-1.545c-0.969,-1.03 -1.453,-2.268 -1.453,-3.712c-0,-1.445 0.484,-2.682 1.453,-3.712c0.969,-1.031 2.133,-1.546 3.491,-1.546Z" style="fill-rule:nonzero;"/><path d="M281.016,20.153l17.775,32.825l0,15.666l-9.121,0l-22.686,-41.563c-0.49,-0.9 -0.891,-1.528 -1.203,-1.883c-0.312,-0.355 -0.713,-0.616 -1.203,-0.782l-1.27,-0.497c-0.334,-0.118 -0.601,-0.331 -0.802,-0.639c-0.2,-0.308 -0.3,-0.652 -0.3,-1.031c-0,-0.402 0.1,-0.775 0.3,-1.119c0.201,-0.343 0.468,-0.586 0.802,-0.728c0.379,-0.166 1.404,-0.249 3.074,-0.249l14.634,0Zm-13.999,12.47l3.542,6.252l-0,19.041c-0,1.658 0.261,3.02 0.785,4.085c0.523,1.066 1.353,1.942 2.489,2.629l1.002,0.604c0.579,0.355 0.869,0.888 0.869,1.599c0,0.544 -0.212,0.994 -0.635,1.35c-0.356,0.307 -1.091,0.461 -2.205,0.461l-7.718,0c-2.027,0 -3.041,-0.615 -3.041,-1.847c0,-0.426 0.106,-0.764 0.318,-1.012c0.212,-0.249 0.674,-0.586 1.386,-1.013c2.139,-1.255 3.208,-3.54 3.208,-6.856l0,-25.293Zm31.774,14.671l-3.541,-6.359l-0,-9.84c-0,-1.989 -0.273,-3.511 -0.819,-4.565c-0.546,-1.054 -1.509,-1.96 -2.89,-2.717c-0.468,-0.237 -0.791,-0.492 -0.969,-0.764c-0.178,-0.273 -0.267,-0.622 -0.267,-1.048c-0,-0.64 0.195,-1.107 0.585,-1.403c0.389,-0.296 1.019,-0.445 1.887,-0.445l8.353,0c1.136,0 1.882,0.19 2.239,0.569c0.378,0.379 0.568,0.829 0.568,1.35c-0,0.497 -0.106,0.87 -0.318,1.119c-0.211,0.249 -0.718,0.586 -1.52,1.012c-1.18,0.64 -2.071,1.623 -2.673,2.949c-0.423,0.971 -0.635,2.285 -0.635,3.943l0,16.199Z" style="fill-rule:nonzero;"/><path d="M325.454,19.194l-0,3.944c-1.96,0.497 -2.94,2.155 -2.94,4.973l-0,33.073c-0,1.279 0.167,2.262 0.501,2.949c0.289,0.568 0.902,1.054 1.837,1.456l0,4.015c-0.712,-0 -1.364,-0.06 -1.954,-0.178c-0.59,-0.119 -1.376,-0.355 -2.356,-0.711c-2.338,-0.852 -4.454,-2.155 -6.348,-3.907c-1.893,-1.753 -3.452,-3.849 -4.677,-6.288c-1.894,-3.813 -2.84,-8.325 -2.84,-13.535c-0,-5.044 0.846,-9.52 2.539,-13.428c1.693,-3.908 4.121,-6.975 7.284,-9.201c1.826,-1.303 3.786,-2.238 5.88,-2.806c0.869,-0.237 1.893,-0.356 3.074,-0.356Zm2.74,3.873l-0,-3.837c3.63,0.355 6.615,1.066 8.954,2.131c0.69,0.332 1.225,0.498 1.604,0.498c0.356,-0 0.629,-0.089 0.818,-0.267c0.19,-0.177 0.574,-0.681 1.153,-1.51c0.401,-0.592 0.902,-0.888 1.504,-0.888c0.623,0 1.063,0.184 1.319,0.551c0.256,0.367 0.385,0.977 0.385,1.829l-0,13.819c-0,1.8 -0.624,2.7 -1.872,2.7c-0.623,0 -1.085,-0.177 -1.386,-0.533c-0.301,-0.355 -0.585,-1.053 -0.852,-2.095c-0.334,-1.327 -0.936,-2.872 -1.804,-4.636c-0.869,-1.765 -1.704,-3.156 -2.506,-4.175c-0.913,-1.184 -1.938,-2.054 -3.074,-2.611c-1.136,-0.556 -2.55,-0.882 -4.243,-0.976Zm15.102,39.645c-0.891,0.947 -2.077,1.912 -3.559,2.895c-1.481,0.983 -2.879,1.758 -4.193,2.327c-1.203,0.497 -2.534,0.9 -3.992,1.208c-1.459,0.308 -2.746,0.462 -3.86,0.462l0,-4.015c0.646,-0.166 1.131,-0.367 1.454,-0.604c0.323,-0.236 0.596,-0.568 0.818,-0.994c0.379,-0.734 0.568,-1.67 0.568,-2.807l0,-10.373c0,-0.924 -0.167,-1.587 -0.501,-1.989c-0.156,-0.237 -0.312,-0.385 -0.467,-0.444c-0.156,-0.06 -0.669,-0.196 -1.537,-0.409c-1.07,-0.284 -1.604,-0.947 -1.604,-1.989c-0,-0.616 0.25,-1.09 0.752,-1.421c0.501,-0.332 1.241,-0.498 2.221,-0.498l13.332,0c1.002,0 1.709,0.148 2.121,0.445c0.412,0.296 0.618,0.811 0.618,1.545c0,0.45 -0.083,0.823 -0.25,1.119c-0.167,0.296 -0.473,0.61 -0.919,0.941c-0.445,0.332 -0.724,0.64 -0.835,0.924c-0.112,0.284 -0.167,0.805 -0.167,1.563l-0,12.114Z" style="fill-rule:nonzero;"/></g></svg>