<?xml version="1.0" encoding="UTF-8" standalone="no"?>
<!DOCTYPE svg PUBLIC "-//W3C//DTD SVG 1.1//EN" "http://www.w3.org/Graphics/SVG/1.1/DTD/svg11.dtd">
<svg width="305px" height="88px" version="1.1" xmlns="http://www.w3.org/2000/svg" xmlns:xlink="http://www.w3.org/1999/xlink" xml:space="preserve" xmlns:serif="http://www.serif.com/" style="fill-rule:evenodd;clip-rule:evenodd;stroke-linejoin:round;stroke-miterlimit:2;">
    <g transform="matrix(1,0,0,1,-566,-680)">
        <g id="nupp" transform="matrix(1,0,0,1,-248.5,-129.101)">
            <g transform="matrix(0.477968,0,0,1,504.088,-56)">
                <path d="M1287,887.75C1287,875.746 1266.61,866 1241.5,866L695.505,866C670.39,866 650,875.746 650,887.75L650,931.25C650,943.254 670.39,953 695.505,953L1241.5,953C1266.61,953 1287,943.254 1287,931.25L1287,887.75Z" style="fill:rgb(198,207,20);"/>
            </g>
            <g transform="matrix(2.10702,0,0,2.24027,-709.079,-1142.59)">
                <g transform="matrix(32.4756,0,0,32.4756,729.046,901.828)">
                    <path d="M0.307,-0.667L0.307,-0.093C0.307,-0.08 0.309,-0.071 0.314,-0.065C0.317,-0.062 0.319,-0.06 0.321,-0.059C0.324,-0.059 0.331,-0.056 0.344,-0.053C0.359,-0.05 0.367,-0.041 0.367,-0.026C0.367,-0.018 0.363,-0.011 0.354,-0.006C0.348,-0.002 0.338,-0 0.324,-0L0.077,-0C0.065,-0 0.056,-0.002 0.05,-0.007C0.043,-0.011 0.04,-0.017 0.04,-0.025C0.04,-0.039 0.047,-0.048 0.06,-0.052C0.07,-0.055 0.077,-0.058 0.078,-0.058C0.08,-0.059 0.082,-0.061 0.084,-0.064C0.088,-0.069 0.09,-0.077 0.09,-0.089L0.09,-0.578C0.09,-0.589 0.088,-0.597 0.084,-0.603C0.082,-0.605 0.08,-0.607 0.078,-0.608C0.077,-0.609 0.07,-0.611 0.06,-0.615C0.047,-0.619 0.04,-0.628 0.04,-0.641C0.04,-0.649 0.043,-0.656 0.05,-0.66C0.056,-0.664 0.065,-0.667 0.077,-0.667L0.307,-0.667ZM0.457,-0.327C0.486,-0.322 0.51,-0.317 0.526,-0.312C0.542,-0.306 0.556,-0.299 0.569,-0.289C0.583,-0.279 0.594,-0.267 0.601,-0.253C0.608,-0.239 0.612,-0.224 0.612,-0.208L0.612,-0.107C0.612,-0.097 0.615,-0.092 0.622,-0.092C0.625,-0.092 0.627,-0.093 0.629,-0.094C0.63,-0.095 0.633,-0.098 0.636,-0.103C0.644,-0.114 0.653,-0.119 0.661,-0.119C0.667,-0.119 0.672,-0.116 0.678,-0.11C0.683,-0.104 0.686,-0.099 0.686,-0.093C0.686,-0.083 0.681,-0.07 0.672,-0.056C0.662,-0.041 0.65,-0.028 0.636,-0.017C0.622,-0.006 0.608,0.001 0.592,0.006C0.577,0.011 0.558,0.013 0.537,0.013C0.494,0.013 0.461,0.001 0.437,-0.024C0.412,-0.048 0.4,-0.083 0.4,-0.126L0.4,-0.208C0.4,-0.227 0.4,-0.237 0.4,-0.24C0.398,-0.253 0.394,-0.264 0.386,-0.274C0.377,-0.285 0.363,-0.292 0.346,-0.294L0.346,-0.346C0.363,-0.349 0.376,-0.353 0.383,-0.36C0.39,-0.366 0.394,-0.372 0.397,-0.38C0.399,-0.387 0.4,-0.398 0.4,-0.413L0.4,-0.542C0.4,-0.563 0.396,-0.578 0.388,-0.588C0.38,-0.598 0.366,-0.606 0.345,-0.612L0.345,-0.667L0.358,-0.667C0.394,-0.667 0.425,-0.665 0.45,-0.663C0.488,-0.659 0.522,-0.647 0.551,-0.625C0.594,-0.595 0.615,-0.552 0.615,-0.496C0.615,-0.45 0.601,-0.413 0.572,-0.383C0.56,-0.371 0.546,-0.361 0.53,-0.353C0.514,-0.345 0.489,-0.336 0.457,-0.327Z" style="fill-rule:nonzero;"/>
                </g>
                <g transform="matrix(32.4756,0,0,32.4756,751.753,901.828)">
                    <path d="M0.307,-0.667L0.307,-0L0.077,-0C0.065,-0 0.056,-0.002 0.05,-0.007C0.043,-0.011 0.04,-0.017 0.04,-0.025C0.04,-0.039 0.047,-0.048 0.06,-0.052C0.07,-0.055 0.077,-0.058 0.078,-0.058C0.08,-0.059 0.082,-0.061 0.084,-0.064C0.088,-0.069 0.09,-0.077 0.09,-0.089L0.09,-0.578C0.09,-0.589 0.088,-0.597 0.084,-0.603C0.082,-0.605 0.08,-0.607 0.078,-0.608C0.077,-0.609 0.07,-0.611 0.06,-0.615C0.047,-0.619 0.04,-0.628 0.04,-0.641C0.04,-0.649 0.043,-0.656 0.05,-0.66C0.056,-0.664 0.065,-0.667 0.077,-0.667L0.307,-0.667ZM0.35,-0.667L0.547,-0.667L0.547,-0.494C0.547,-0.484 0.545,-0.476 0.541,-0.472C0.537,-0.467 0.531,-0.465 0.522,-0.465C0.515,-0.465 0.51,-0.466 0.507,-0.469C0.504,-0.472 0.5,-0.478 0.498,-0.487C0.485,-0.525 0.467,-0.554 0.443,-0.574C0.419,-0.594 0.388,-0.605 0.35,-0.609L0.35,-0.667ZM0.348,-0.311L0.348,-0.368C0.367,-0.377 0.381,-0.387 0.39,-0.397C0.399,-0.408 0.405,-0.423 0.41,-0.44C0.412,-0.453 0.416,-0.461 0.42,-0.466C0.424,-0.471 0.43,-0.473 0.438,-0.473C0.448,-0.473 0.456,-0.469 0.459,-0.461C0.462,-0.457 0.463,-0.447 0.463,-0.432L0.463,-0.246C0.463,-0.231 0.461,-0.22 0.458,-0.214C0.454,-0.208 0.448,-0.206 0.439,-0.206C0.431,-0.206 0.426,-0.208 0.421,-0.212C0.417,-0.217 0.414,-0.225 0.411,-0.235C0.406,-0.258 0.398,-0.275 0.387,-0.287C0.377,-0.299 0.364,-0.307 0.348,-0.311ZM0.351,-0L0.351,-0.053C0.372,-0.056 0.389,-0.061 0.403,-0.066C0.417,-0.072 0.431,-0.081 0.445,-0.093C0.459,-0.105 0.47,-0.118 0.478,-0.131C0.487,-0.143 0.494,-0.16 0.502,-0.182C0.506,-0.192 0.509,-0.199 0.513,-0.203C0.517,-0.207 0.522,-0.208 0.529,-0.208C0.538,-0.208 0.545,-0.206 0.548,-0.2C0.552,-0.195 0.554,-0.186 0.554,-0.172L0.554,-0L0.351,-0Z" style="fill-rule:nonzero;"/>
                </g>
                <g transform="matrix(32.4756,0,0,32.4756,770.814,901.828)">
                    <path d="M0.307,-0.667L0.307,-0L0.077,-0C0.065,-0 0.056,-0.002 0.05,-0.007C0.043,-0.011 0.04,-0.017 0.04,-0.025C0.04,-0.039 0.047,-0.048 0.06,-0.052C0.07,-0.055 0.077,-0.058 0.078,-0.058C0.08,-0.059 0.082,-0.061 0.084,-0.064C0.088,-0.069 0.09,-0.077 0.09,-0.089L0.09,-0.578C0.09,-0.589 0.088,-0.597 0.084,-0.603C0.082,-0.605 0.08,-0.607 0.078,-0.608C0.077,-0.609 0.07,-0.611 0.06,-0.615C0.047,-0.619 0.04,-0.628 0.04,-0.641C0.04,-0.649 0.043,-0.656 0.05,-0.66C0.056,-0.664 0.065,-0.667 0.077,-0.667L0.307,-0.667ZM0.35,-0.667L0.547,-0.667L0.547,-0.494C0.547,-0.484 0.545,-0.476 0.541,-0.472C0.537,-0.467 0.531,-0.465 0.522,-0.465C0.515,-0.465 0.51,-0.466 0.507,-0.469C0.504,-0.472 0.5,-0.478 0.498,-0.487C0.485,-0.525 0.467,-0.554 0.443,-0.574C0.419,-0.594 0.388,-0.605 0.35,-0.609L0.35,-0.667ZM0.348,-0.311L0.348,-0.368C0.367,-0.377 0.381,-0.387 0.39,-0.397C0.399,-0.408 0.405,-0.423 0.41,-0.44C0.412,-0.453 0.416,-0.461 0.42,-0.466C0.424,-0.471 0.43,-0.473 0.438,-0.473C0.448,-0.473 0.456,-0.469 0.459,-0.461C0.462,-0.457 0.463,-0.447 0.463,-0.432L0.463,-0.246C0.463,-0.231 0.461,-0.22 0.458,-0.214C0.454,-0.208 0.448,-0.206 0.439,-0.206C0.431,-0.206 0.426,-0.208 0.421,-0.212C0.417,-0.217 0.414,-0.225 0.411,-0.235C0.406,-0.258 0.398,-0.275 0.387,-0.287C0.377,-0.299 0.364,-0.307 0.348,-0.311ZM0.351,-0L0.351,-0.053C0.372,-0.056 0.389,-0.061 0.403,-0.066C0.417,-0.072 0.431,-0.081 0.445,-0.093C0.459,-0.105 0.47,-0.118 0.478,-0.131C0.487,-0.143 0.494,-0.16 0.502,-0.182C0.506,-0.192 0.509,-0.199 0.513,-0.203C0.517,-0.207 0.522,-0.208 0.529,-0.208C0.538,-0.208 0.545,-0.206 0.548,-0.2C0.552,-0.195 0.554,-0.186 0.554,-0.172L0.554,-0L0.351,-0Z" style="fill-rule:nonzero;"/>
                </g>
                <g transform="matrix(32.4756,0,0,32.4756,789.874,901.828)">
                    <path d="M0.294,-0.68L0.294,-0.625C0.266,-0.619 0.251,-0.596 0.251,-0.557L0.251,-0.103C0.251,-0.085 0.254,-0.071 0.259,-0.062C0.263,-0.054 0.272,-0.048 0.286,-0.042L0.286,0.013C0.275,0.013 0.266,0.012 0.257,0.011C0.248,0.009 0.237,0.006 0.223,0.001C0.188,-0.011 0.158,-0.029 0.13,-0.053C0.102,-0.077 0.079,-0.106 0.062,-0.139C0.034,-0.192 0.02,-0.254 0.02,-0.325C0.02,-0.395 0.032,-0.456 0.057,-0.51C0.082,-0.563 0.117,-0.606 0.164,-0.636C0.19,-0.654 0.219,-0.667 0.25,-0.675C0.262,-0.678 0.277,-0.68 0.294,-0.68ZM0.334,-0.626L0.334,-0.679C0.388,-0.674 0.431,-0.665 0.465,-0.65C0.475,-0.645 0.483,-0.643 0.489,-0.643C0.494,-0.643 0.498,-0.644 0.501,-0.647C0.503,-0.649 0.509,-0.656 0.518,-0.667C0.523,-0.676 0.531,-0.68 0.54,-0.68C0.549,-0.68 0.555,-0.677 0.559,-0.672C0.563,-0.667 0.564,-0.659 0.564,-0.647L0.564,-0.457C0.564,-0.432 0.555,-0.42 0.537,-0.42C0.528,-0.42 0.521,-0.422 0.517,-0.427C0.512,-0.432 0.508,-0.442 0.504,-0.456C0.5,-0.474 0.491,-0.496 0.478,-0.52C0.465,-0.544 0.453,-0.563 0.441,-0.577C0.428,-0.593 0.413,-0.605 0.396,-0.613C0.38,-0.621 0.359,-0.625 0.334,-0.626ZM0.555,-0.082C0.542,-0.069 0.525,-0.055 0.503,-0.042C0.482,-0.028 0.461,-0.018 0.442,-0.01C0.424,-0.003 0.405,0.003 0.384,0.007C0.362,0.011 0.343,0.013 0.327,0.013L0.327,-0.042C0.337,-0.044 0.344,-0.047 0.348,-0.05C0.353,-0.054 0.357,-0.058 0.36,-0.064C0.366,-0.074 0.369,-0.087 0.369,-0.103L0.369,-0.245C0.369,-0.258 0.366,-0.267 0.361,-0.272C0.359,-0.276 0.357,-0.278 0.354,-0.279C0.352,-0.279 0.345,-0.281 0.332,-0.284C0.316,-0.288 0.309,-0.297 0.309,-0.312C0.309,-0.32 0.312,-0.326 0.32,-0.331C0.327,-0.336 0.338,-0.338 0.352,-0.338L0.547,-0.338C0.562,-0.338 0.572,-0.336 0.578,-0.332C0.584,-0.328 0.587,-0.321 0.587,-0.311C0.587,-0.304 0.586,-0.299 0.583,-0.295C0.581,-0.291 0.576,-0.287 0.57,-0.282C0.563,-0.278 0.559,-0.273 0.558,-0.27C0.556,-0.266 0.555,-0.258 0.555,-0.248L0.555,-0.082Z" style="fill-rule:nonzero;"/>
                </g>
                <g transform="matrix(32.4756,0,0,32.4756,810.013,901.828)">
                    <path d="M0.307,-0L0.077,-0C0.065,-0 0.056,-0.002 0.05,-0.007C0.043,-0.011 0.04,-0.017 0.04,-0.025C0.04,-0.039 0.047,-0.048 0.06,-0.052C0.07,-0.055 0.077,-0.058 0.078,-0.058C0.08,-0.059 0.082,-0.061 0.084,-0.064C0.088,-0.069 0.09,-0.077 0.09,-0.089L0.09,-0.578C0.09,-0.589 0.088,-0.597 0.084,-0.603C0.082,-0.605 0.08,-0.607 0.078,-0.608C0.077,-0.609 0.07,-0.611 0.06,-0.615C0.047,-0.619 0.04,-0.628 0.04,-0.641C0.04,-0.649 0.043,-0.656 0.05,-0.66C0.056,-0.664 0.065,-0.667 0.077,-0.667L0.324,-0.667C0.338,-0.667 0.348,-0.665 0.354,-0.661C0.363,-0.655 0.367,-0.649 0.367,-0.64C0.367,-0.626 0.359,-0.617 0.344,-0.613C0.331,-0.61 0.324,-0.608 0.321,-0.607C0.319,-0.606 0.317,-0.604 0.314,-0.602C0.309,-0.596 0.307,-0.587 0.307,-0.574L0.307,-0ZM0.346,-0L0.346,-0.055C0.362,-0.058 0.375,-0.061 0.384,-0.064C0.393,-0.068 0.402,-0.073 0.411,-0.08C0.424,-0.091 0.437,-0.106 0.448,-0.125C0.46,-0.143 0.469,-0.164 0.476,-0.188C0.481,-0.205 0.486,-0.217 0.49,-0.223C0.495,-0.229 0.501,-0.231 0.51,-0.231C0.519,-0.231 0.526,-0.228 0.53,-0.22C0.532,-0.217 0.533,-0.209 0.533,-0.199L0.533,-0L0.346,-0Z" style="fill-rule:nonzero;"/>
                </g>
                <g transform="matrix(32.4756,0,0,32.4756,827.313,901.828)">
                    <path d="M0.32,-0L0.077,-0C0.065,-0 0.056,-0.002 0.05,-0.007C0.043,-0.011 0.04,-0.017 0.04,-0.025C0.04,-0.039 0.047,-0.048 0.06,-0.052C0.07,-0.055 0.077,-0.058 0.078,-0.058C0.08,-0.059 0.082,-0.061 0.084,-0.064C0.088,-0.069 0.09,-0.077 0.09,-0.089L0.09,-0.578C0.09,-0.589 0.088,-0.597 0.084,-0.603C0.082,-0.605 0.08,-0.607 0.078,-0.608C0.077,-0.609 0.07,-0.611 0.06,-0.615C0.047,-0.619 0.04,-0.628 0.04,-0.641C0.04,-0.649 0.043,-0.656 0.05,-0.66C0.056,-0.664 0.065,-0.667 0.077,-0.667L0.32,-0.667C0.332,-0.667 0.341,-0.664 0.347,-0.66C0.353,-0.656 0.356,-0.649 0.356,-0.641C0.356,-0.628 0.35,-0.619 0.337,-0.615C0.326,-0.611 0.32,-0.609 0.318,-0.608C0.316,-0.607 0.314,-0.605 0.313,-0.603C0.309,-0.597 0.307,-0.589 0.307,-0.578L0.307,-0.089C0.307,-0.077 0.309,-0.069 0.313,-0.064C0.314,-0.061 0.316,-0.059 0.318,-0.058C0.32,-0.058 0.326,-0.055 0.337,-0.052C0.35,-0.048 0.356,-0.039 0.356,-0.025C0.356,-0.017 0.353,-0.011 0.347,-0.007C0.341,-0.002 0.332,-0 0.32,-0Z" style="fill-rule:nonzero;"/>
                </g>
                <g transform="matrix(32.4756,0,0,32.4756,840.189,901.828)">
                    <path d="M0.307,-0.667L0.307,-0L0.077,-0C0.065,-0 0.056,-0.002 0.05,-0.007C0.043,-0.011 0.04,-0.017 0.04,-0.025C0.04,-0.039 0.047,-0.048 0.06,-0.052C0.07,-0.055 0.077,-0.058 0.078,-0.058C0.08,-0.059 0.082,-0.061 0.084,-0.064C0.088,-0.069 0.09,-0.077 0.09,-0.089L0.09,-0.578C0.09,-0.589 0.088,-0.597 0.084,-0.603C0.082,-0.605 0.08,-0.607 0.078,-0.608C0.077,-0.609 0.07,-0.611 0.06,-0.615C0.047,-0.619 0.04,-0.628 0.04,-0.641C0.04,-0.649 0.043,-0.656 0.05,-0.66C0.056,-0.664 0.065,-0.667 0.077,-0.667L0.307,-0.667ZM0.405,-0.14L0.405,-0.525C0.405,-0.549 0.402,-0.568 0.395,-0.582C0.391,-0.591 0.386,-0.597 0.379,-0.602C0.373,-0.606 0.363,-0.609 0.35,-0.612L0.35,-0.667C0.367,-0.667 0.382,-0.666 0.394,-0.665C0.435,-0.66 0.475,-0.642 0.514,-0.612C0.553,-0.582 0.581,-0.544 0.6,-0.496C0.619,-0.448 0.628,-0.395 0.628,-0.336C0.628,-0.27 0.616,-0.211 0.592,-0.159C0.567,-0.107 0.532,-0.067 0.487,-0.037C0.465,-0.023 0.444,-0.013 0.425,-0.008C0.406,-0.003 0.381,-0 0.35,-0L0.35,-0.053C0.364,-0.056 0.373,-0.06 0.379,-0.063C0.384,-0.065 0.389,-0.07 0.393,-0.076C0.397,-0.083 0.401,-0.091 0.403,-0.1C0.404,-0.109 0.405,-0.122 0.405,-0.14Z" style="fill-rule:nonzero;"/>
                </g>
            </g>
        </g>
    </g>
</svg>
