<?xml version="1.0" encoding="UTF-8" standalone="no"?><!DOCTYPE svg PUBLIC "-//W3C//DTD SVG 1.1//EN" "http://www.w3.org/Graphics/SVG/1.1/DTD/svg11.dtd"><svg width="208px" height="60px" version="1.1" xmlns="http://www.w3.org/2000/svg" xmlns:xlink="http://www.w3.org/1999/xlink" xml:space="preserve" xmlns:serif="http://www.serif.com/" style="fill-rule:evenodd;clip-rule:evenodd;stroke-linejoin:round;stroke-miterlimit:2;"><g><g id="nupp"><g><path d="M207.955,14.999c0,-8.278 -6.441,-15 -14.377,-15l-179.2,0c-7.935,0 -14.377,6.722 -14.377,15l-0,30c-0,8.279 6.442,15 14.377,15l179.2,0c7.936,0 14.377,-6.721 14.377,-15l0,-30Z" style="fill:#c6cf14;"/></g><g><g><path d="M28.483,44.073l-9.44,0c-0.466,0 -0.815,-0.086 -1.048,-0.301c-0.272,-0.173 -0.389,-0.431 -0.389,-0.776c0,-0.603 0.272,-0.991 0.777,-1.163c0.427,-0.13 0.66,-0.259 0.738,-0.259c0.039,-0.043 0.117,-0.129 0.194,-0.258c0.156,-0.216 0.233,-0.561 0.233,-1.078l0,-21.072c0,-0.474 -0.077,-0.819 -0.233,-1.077c-0.077,-0.086 -0.155,-0.173 -0.194,-0.216c-0.078,-0.043 -0.311,-0.129 -0.738,-0.301c-0.505,-0.173 -0.777,-0.56 -0.777,-1.121c0,-0.344 0.117,-0.646 0.389,-0.818c0.233,-0.173 0.582,-0.302 1.048,-0.302l9.44,-0c0.466,-0 0.816,0.129 1.049,0.302c0.272,0.172 0.388,0.474 0.388,0.818c0,0.561 -0.271,0.948 -0.776,1.121c-0.428,0.172 -0.661,0.258 -0.739,0.301c-0.038,0.043 -0.116,0.13 -0.194,0.216c-0.155,0.258 -0.233,0.603 -0.233,1.077l0,21.072c0,0.776 0.194,1.25 0.544,1.379l0.583,0.216c0.505,0.172 0.738,0.56 0.738,1.163c-0,0.733 -0.466,1.077 -1.36,1.077Zm7.031,-20.382l5.711,16.633c0.155,0.431 0.311,0.776 0.466,0.992c0.194,0.258 0.388,0.43 0.66,0.56c0.272,0.129 0.428,0.215 0.505,0.301c0.195,0.216 0.272,0.474 0.272,0.776c0,0.733 -0.466,1.12 -1.437,1.12l-9.517,0c-0.467,0 -0.816,-0.086 -1.049,-0.301c-0.272,-0.216 -0.389,-0.517 -0.389,-0.905c0,-0.474 0.233,-0.819 0.699,-1.077c0.311,-0.13 0.505,-0.259 0.583,-0.388c0.117,-0.086 0.156,-0.259 0.194,-0.431c0,-0.086 -0.077,-0.302 -0.155,-0.647l-2.447,-8.058c-0.195,-0.732 -0.311,-1.379 -0.311,-1.896c-0,-0.474 0.155,-1.034 0.544,-1.594l4.506,-7.111c0.466,-0.646 0.66,-1.335 0.66,-2.025c0,-0.388 -0.077,-0.775 -0.272,-1.12c-0.194,-0.345 -0.466,-0.56 -0.777,-0.69l-0.66,-0.344c-0.427,-0.173 -0.66,-0.518 -0.66,-0.992c-0,-0.344 0.116,-0.689 0.388,-0.904c0.194,-0.173 0.466,-0.259 0.894,-0.259l6.759,-0c0.427,-0 0.777,0.129 1.01,0.345c0.272,0.215 0.388,0.517 0.388,0.905c0,0.603 -0.31,1.034 -0.893,1.292l-1.01,0.431c-0.389,0.173 -0.932,0.561 -1.593,1.121c-0.466,0.474 -1.049,1.206 -1.787,2.24l-1.282,2.026Z" style="fill-rule:nonzero;"/></g><g><path d="M56.098,15.331l0,28.742l-8.935,0c-0.466,0 -0.815,-0.086 -1.048,-0.301c-0.272,-0.173 -0.389,-0.431 -0.389,-0.776c0,-0.603 0.272,-0.991 0.777,-1.163c0.388,-0.13 0.66,-0.259 0.699,-0.259c0.078,-0.043 0.156,-0.129 0.233,-0.258c0.156,-0.216 0.233,-0.561 0.233,-1.078l0,-21.072c0,-0.474 -0.077,-0.819 -0.233,-1.077c-0.077,-0.086 -0.155,-0.173 -0.233,-0.216c-0.039,-0.043 -0.311,-0.129 -0.699,-0.301c-0.505,-0.173 -0.777,-0.56 -0.777,-1.121c0,-0.344 0.117,-0.646 0.389,-0.818c0.233,-0.173 0.582,-0.302 1.048,-0.302l8.935,-0Zm1.67,-0l7.653,-0l0,7.455c0,0.431 -0.077,0.776 -0.233,0.948c-0.155,0.215 -0.388,0.302 -0.738,0.302c-0.272,-0 -0.466,-0.044 -0.583,-0.173c-0.116,-0.129 -0.272,-0.388 -0.349,-0.775c-0.505,-1.638 -1.205,-2.888 -2.137,-3.749c-0.932,-0.862 -2.136,-1.336 -3.613,-1.509l0,-2.499Zm-0.077,15.341l-0,-2.456c0.738,-0.388 1.282,-0.819 1.631,-1.25c0.35,-0.474 0.583,-1.121 0.777,-1.853c0.078,-0.56 0.233,-0.905 0.389,-1.121c0.155,-0.215 0.388,-0.301 0.699,-0.301c0.388,-0 0.699,0.172 0.816,0.517c0.116,0.172 0.155,0.603 0.155,1.25l0,8.015c0,0.646 -0.078,1.12 -0.194,1.379c-0.156,0.258 -0.389,0.344 -0.738,0.344c-0.311,0 -0.505,-0.086 -0.699,-0.258c-0.156,-0.216 -0.272,-0.56 -0.389,-0.991c-0.194,-0.991 -0.505,-1.724 -0.932,-2.241c-0.389,-0.517 -0.894,-0.862 -1.515,-1.034Zm0.116,13.401l0,-2.283c0.816,-0.13 1.476,-0.345 2.02,-0.561c0.544,-0.258 1.088,-0.646 1.632,-1.163c0.544,-0.517 0.971,-1.077 1.282,-1.638c0.349,-0.517 0.621,-1.249 0.932,-2.197c0.156,-0.431 0.272,-0.733 0.427,-0.905c0.156,-0.173 0.35,-0.216 0.622,-0.216c0.35,0 0.622,0.086 0.738,0.345c0.155,0.215 0.233,0.603 0.233,1.207l0,7.411l-7.886,0Z" style="fill-rule:nonzero;"/></g><g><path d="M78.898,15.331l0,28.742l-8.934,0c-0.467,0 -0.816,-0.086 -1.049,-0.301c-0.272,-0.173 -0.389,-0.431 -0.389,-0.776c0,-0.603 0.272,-0.991 0.777,-1.163c0.389,-0.13 0.661,-0.259 0.699,-0.259c0.078,-0.043 0.156,-0.129 0.234,-0.258c0.155,-0.216 0.233,-0.561 0.233,-1.078l-0,-21.072c-0,-0.474 -0.078,-0.819 -0.233,-1.077c-0.078,-0.086 -0.156,-0.173 -0.234,-0.216c-0.038,-0.043 -0.31,-0.129 -0.699,-0.301c-0.505,-0.173 -0.777,-0.56 -0.777,-1.121c0,-0.344 0.117,-0.646 0.389,-0.818c0.233,-0.173 0.582,-0.302 1.049,-0.302l8.934,-0Zm1.671,-0l7.652,-0l0,7.455c0,0.431 -0.077,0.776 -0.233,0.948c-0.155,0.215 -0.388,0.302 -0.738,0.302c-0.272,-0 -0.466,-0.044 -0.582,-0.173c-0.117,-0.129 -0.272,-0.388 -0.35,-0.775c-0.505,-1.638 -1.204,-2.888 -2.137,-3.749c-0.932,-0.862 -2.136,-1.336 -3.612,-1.509l-0,-2.499Zm-0.078,15.341l0,-2.456c0.738,-0.388 1.282,-0.819 1.632,-1.25c0.349,-0.474 0.582,-1.121 0.776,-1.853c0.078,-0.56 0.234,-0.905 0.389,-1.121c0.155,-0.215 0.388,-0.301 0.699,-0.301c0.389,-0 0.699,0.172 0.816,0.517c0.117,0.172 0.155,0.603 0.155,1.25l0,8.015c0,0.646 -0.077,1.12 -0.194,1.379c-0.155,0.258 -0.388,0.344 -0.738,0.344c-0.311,0 -0.505,-0.086 -0.699,-0.258c-0.156,-0.216 -0.272,-0.56 -0.389,-0.991c-0.194,-0.991 -0.505,-1.724 -0.932,-2.241c-0.388,-0.517 -0.893,-0.862 -1.515,-1.034Zm0.117,13.401l-0,-2.283c0.815,-0.13 1.476,-0.345 2.02,-0.561c0.543,-0.258 1.087,-0.646 1.631,-1.163c0.544,-0.517 0.971,-1.077 1.282,-1.638c0.35,-0.517 0.622,-1.249 0.932,-2.197c0.156,-0.431 0.272,-0.733 0.428,-0.905c0.155,-0.173 0.349,-0.216 0.621,-0.216c0.35,0 0.622,0.086 0.738,0.345c0.156,0.215 0.233,0.603 0.233,1.207l0,7.411l-7.885,0Z" style="fill-rule:nonzero;"/></g><g><path d="M101.697,15.331l0,24.735c0,0.56 0.078,0.948 0.272,1.206c0.117,0.13 0.195,0.216 0.272,0.259c0.117,-0 0.389,0.129 0.894,0.259c0.582,0.129 0.893,0.517 0.893,1.163c0,0.345 -0.155,0.646 -0.505,0.862c-0.233,0.172 -0.621,0.258 -1.165,0.258l-9.595,0c-0.466,0 -0.816,-0.086 -1.049,-0.301c-0.272,-0.173 -0.389,-0.431 -0.389,-0.776c0,-0.603 0.272,-0.991 0.777,-1.163c0.389,-0.13 0.661,-0.259 0.7,-0.259c0.077,-0.043 0.155,-0.129 0.233,-0.258c0.155,-0.216 0.233,-0.561 0.233,-1.078l-0,-21.072c-0,-0.474 -0.078,-0.819 -0.233,-1.077c-0.078,-0.086 -0.156,-0.173 -0.233,-0.216c-0.039,-0.043 -0.311,-0.129 -0.7,-0.301c-0.505,-0.173 -0.777,-0.56 -0.777,-1.121c0,-0.344 0.117,-0.646 0.389,-0.818c0.233,-0.173 0.583,-0.302 1.049,-0.302l8.934,-0Zm5.827,14.651c1.127,0.216 2.059,0.431 2.681,0.647c0.621,0.258 1.165,0.56 1.67,0.991c0.544,0.431 0.971,0.948 1.243,1.551c0.272,0.603 0.428,1.25 0.428,1.939l-0,4.353c-0,0.43 0.116,0.646 0.388,0.646c0.117,-0 0.194,-0.043 0.272,-0.086c0.039,-0.043 0.155,-0.173 0.272,-0.388c0.311,-0.474 0.66,-0.69 0.971,-0.69c0.233,0 0.427,0.13 0.66,0.388c0.195,0.259 0.311,0.474 0.311,0.733c0,0.431 -0.194,0.991 -0.544,1.594c-0.388,0.647 -0.854,1.207 -1.398,1.681c-0.544,0.474 -1.088,0.776 -1.709,0.991c-0.583,0.215 -1.321,0.302 -2.137,0.302c-1.67,-0 -2.952,-0.517 -3.885,-1.595c-0.971,-1.034 -1.437,-2.542 -1.437,-4.395l0,-4.913c-0.078,-0.56 -0.233,-1.034 -0.544,-1.465c-0.349,-0.474 -0.893,-0.775 -1.554,-0.862l0,-2.24c0.661,-0.13 1.166,-0.302 1.438,-0.604c0.272,-0.258 0.427,-0.517 0.544,-0.862c0.077,-0.301 0.116,-0.775 0.116,-1.422l0,-5.559c0,-0.904 -0.155,-1.551 -0.466,-1.982c-0.311,-0.431 -0.855,-0.775 -1.67,-1.034l-0,-2.37l0.505,-0c1.398,-0 2.602,0.086 3.573,0.172c1.477,0.173 2.797,0.69 3.924,1.638c1.67,1.293 2.486,3.146 2.486,5.559c0,1.982 -0.544,3.576 -1.67,4.869c-0.466,0.517 -1.01,0.948 -1.632,1.293c-0.621,0.345 -1.593,0.732 -2.836,1.12Z" style="fill-rule:nonzero;"/></g><g><path d="M120.12,35.67l-0,-16.504c-0,-0.474 -0.078,-0.819 -0.233,-1.077c-0.078,-0.086 -0.156,-0.173 -0.234,-0.216c-0.077,-0.043 -0.31,-0.129 -0.738,-0.301c-0.505,-0.173 -0.738,-0.56 -0.738,-1.121c0,-0.344 0.117,-0.646 0.35,-0.818c0.272,-0.173 0.621,-0.302 1.049,-0.302l9.478,-0l0.661,0.086c0.233,0.086 0.388,0.216 0.544,0.388c0.116,0.172 0.194,0.431 0.194,0.646c-0,0.561 -0.233,0.948 -0.738,1.121c-0.428,0.172 -0.661,0.258 -0.738,0.301c-0.078,0.043 -0.156,0.13 -0.233,0.216c-0.156,0.258 -0.234,0.603 -0.234,1.077l0,17.668c0,1.207 0.039,2.025 0.117,2.499c0.039,0.474 0.155,0.905 0.35,1.25c0.155,0.388 0.349,0.603 0.543,0.776c0.195,0.172 0.583,0.344 1.166,0.517l-0,2.758l-0.427,-0c-1.671,-0 -3.03,-0.173 -4.118,-0.474c-1.282,-0.388 -2.37,-0.948 -3.341,-1.681c-0.971,-0.733 -1.632,-1.594 -2.059,-2.499c-0.427,-0.991 -0.621,-2.413 -0.621,-4.31Zm12.275,8.964l0,-2.758c1.282,-0.173 2.331,-0.733 3.185,-1.724c0.972,-1.12 1.438,-2.672 1.438,-4.783l-0,-13.704c-0,-1.939 -0.661,-3.275 -1.981,-4.007c-0.389,-0.216 -0.661,-0.431 -0.777,-0.603c-0.117,-0.13 -0.195,-0.388 -0.195,-0.69c0,-0.388 0.117,-0.646 0.389,-0.775c0.233,-0.173 0.621,-0.259 1.165,-0.259l4.662,-0c0.388,-0 0.621,0.043 0.777,0.043c0.116,0.043 0.272,0.086 0.388,0.172c0.311,0.216 0.505,0.474 0.505,0.862c0,0.302 -0.116,0.56 -0.31,0.776c-0.078,0.086 -0.35,0.258 -0.816,0.56c-0.583,0.345 -1.01,0.862 -1.321,1.551c-0.311,0.69 -0.466,1.466 -0.466,2.37l-0,13.747c-0,2.37 -0.466,4.266 -1.399,5.817c-0.699,1.121 -1.67,1.983 -2.952,2.672c-0.622,0.345 -1.398,0.603 -2.292,0.733Z" style="fill-rule:nonzero;"/></g><g><path d="M158.956,15.331l0,24.735c0,0.56 0.078,0.948 0.272,1.206c0.117,0.13 0.195,0.216 0.272,0.259c0.117,-0 0.389,0.129 0.894,0.259c0.621,0.129 0.893,0.517 0.893,1.163c0,0.345 -0.155,0.646 -0.466,0.862c-0.272,0.172 -0.66,0.258 -1.243,0.258l-9.712,0c-0.543,0 -0.971,-0.086 -1.243,-0.301c-0.272,-0.173 -0.427,-0.474 -0.427,-0.819c0,-0.646 0.311,-1.034 0.893,-1.163c0.506,-0.13 0.816,-0.259 0.894,-0.259c0.078,-0.043 0.155,-0.129 0.272,-0.259c0.194,-0.258 0.272,-0.646 0.272,-1.206l-0,-24.735l8.429,-0Zm6.566,-0l-0,8.618c-0,0.431 -0.117,0.733 -0.311,0.992c-0.233,0.258 -0.505,0.387 -0.816,0.387c-0.311,0 -0.583,-0.129 -0.777,-0.344c-0.233,-0.216 -0.35,-0.561 -0.427,-0.948l-0.194,-1.293c-0.195,-1.293 -0.544,-2.456 -1.088,-3.404c-0.35,-0.561 -0.816,-1.078 -1.399,-1.423l0,-2.585l5.012,-0Zm-21.521,-0l4.972,-0l-0,2.585c-0.583,0.345 -1.049,0.862 -1.36,1.423c-0.544,0.948 -0.932,2.111 -1.126,3.404l-0.156,1.293c-0.077,0.387 -0.233,0.732 -0.427,0.948c-0.194,0.215 -0.466,0.344 -0.777,0.344c-0.349,0 -0.621,-0.129 -0.816,-0.387c-0.194,-0.259 -0.31,-0.561 -0.31,-0.992l-0,-8.618Z" style="fill-rule:nonzero;"/></g><g><path d="M175.456,15.331l7.653,-0l5.244,24.735c0.117,0.431 0.233,0.819 0.35,1.163c0.116,0.259 0.388,0.474 0.777,0.647c0.31,0.172 0.543,0.301 0.66,0.474c0.155,0.172 0.194,0.344 0.194,0.646c0,0.733 -0.505,1.077 -1.476,1.077l-9.478,0c-0.35,0 -0.661,-0.086 -0.894,-0.301c-0.233,-0.216 -0.35,-0.474 -0.35,-0.819c0,-0.259 0.039,-0.474 0.156,-0.646c0.116,-0.13 0.349,-0.302 0.699,-0.517c0.233,-0.13 0.427,-0.302 0.505,-0.431c0.117,-0.173 0.155,-0.388 0.155,-0.647c0,-0.258 0,-0.474 -0.038,-0.646l-0.622,-3.06l-5.283,0l0.505,-2.499l4.234,-0l-3.457,-17.108l0.466,-2.068Zm-1.321,5.386l0.971,4.353l-3.34,13.574c-0.117,0.388 -0.156,0.775 -0.156,1.077c0,0.905 0.35,1.551 1.127,1.896l0.66,0.345c0.389,0.215 0.622,0.56 0.622,1.077c-0,0.69 -0.466,1.034 -1.399,1.034l-4.817,0c-0.466,0 -0.854,-0.129 -1.126,-0.344c-0.272,-0.216 -0.389,-0.517 -0.389,-0.862c0,-0.431 0.272,-0.776 0.816,-1.034c0.544,-0.259 0.932,-0.474 1.165,-0.69c0.234,-0.172 0.467,-0.474 0.7,-0.819c0.349,-0.56 0.66,-1.335 0.893,-2.283l4.273,-17.324Z" style="fill-rule:nonzero;"/></g></g></g></g></svg>