<?xml version="1.0" encoding="UTF-8" standalone="no"?>
<!DOCTYPE svg PUBLIC "-//W3C//DTD SVG 1.1//EN" "http://www.w3.org/Graphics/SVG/1.1/DTD/svg11.dtd">
<svg width="305px" height="88px" version="1.1" xmlns="http://www.w3.org/2000/svg" xmlns:xlink="http://www.w3.org/1999/xlink" xml:space="preserve" xmlns:serif="http://www.serif.com/" style="fill-rule:evenodd;clip-rule:evenodd;stroke-linejoin:round;stroke-miterlimit:2;">
    <g transform="matrix(1,0,0,1,-566,-567)">
        <g id="nupp" transform="matrix(1,0,0,1,-248.5,-242.101)">
            <g transform="matrix(0.477968,0,0,1,504.088,-56)">
                <path d="M1287,887.75C1287,875.746 1266.61,866 1241.5,866L695.505,866C670.39,866 650,875.746 650,887.75L650,931.25C650,943.254 670.39,953 695.505,953L1241.5,953C1266.61,953 1287,943.254 1287,931.25L1287,887.75Z" style="fill:rgb(198,207,20);"/>
            </g>
            <g transform="matrix(2.10702,0,0,2.24027,-673.081,-1142.59)">
                <g transform="matrix(32.4756,0,0,32.4756,729.046,901.828)">
                    <path d="M0.265,-0.68L0.265,-0.624C0.245,-0.618 0.23,-0.609 0.219,-0.598C0.208,-0.586 0.203,-0.572 0.203,-0.555C0.203,-0.539 0.208,-0.525 0.216,-0.512C0.225,-0.5 0.239,-0.489 0.259,-0.478C0.273,-0.47 0.304,-0.456 0.352,-0.435C0.381,-0.422 0.404,-0.41 0.42,-0.4C0.436,-0.39 0.451,-0.377 0.466,-0.362C0.504,-0.321 0.523,-0.273 0.523,-0.218C0.523,-0.176 0.513,-0.137 0.492,-0.103C0.471,-0.068 0.443,-0.04 0.406,-0.021C0.387,-0.01 0.365,-0.002 0.342,0.004C0.319,0.01 0.297,0.013 0.277,0.013L0.277,-0.042C0.305,-0.049 0.326,-0.059 0.338,-0.071C0.351,-0.083 0.357,-0.1 0.357,-0.121C0.357,-0.142 0.347,-0.162 0.328,-0.178C0.315,-0.189 0.29,-0.202 0.253,-0.218C0.213,-0.236 0.186,-0.248 0.171,-0.256C0.156,-0.263 0.142,-0.272 0.128,-0.282C0.067,-0.326 0.037,-0.384 0.037,-0.457C0.037,-0.494 0.044,-0.528 0.06,-0.559C0.075,-0.591 0.096,-0.616 0.124,-0.635C0.162,-0.662 0.209,-0.677 0.265,-0.68ZM0.304,-0.624L0.304,-0.677C0.323,-0.676 0.34,-0.673 0.354,-0.67C0.369,-0.666 0.389,-0.659 0.416,-0.647C0.422,-0.645 0.427,-0.644 0.432,-0.644C0.438,-0.644 0.442,-0.646 0.445,-0.65L0.456,-0.664C0.461,-0.671 0.468,-0.675 0.475,-0.675C0.484,-0.675 0.49,-0.672 0.494,-0.665C0.498,-0.659 0.5,-0.649 0.5,-0.635L0.5,-0.474C0.5,-0.465 0.498,-0.457 0.492,-0.451C0.487,-0.445 0.48,-0.442 0.472,-0.442C0.465,-0.442 0.459,-0.444 0.454,-0.448C0.451,-0.451 0.448,-0.454 0.447,-0.458C0.445,-0.462 0.443,-0.468 0.441,-0.477C0.438,-0.493 0.432,-0.509 0.423,-0.526C0.414,-0.543 0.404,-0.558 0.392,-0.571C0.369,-0.598 0.339,-0.615 0.304,-0.624ZM0.24,-0.042L0.24,0.013C0.213,0.013 0.184,0.006 0.151,-0.01C0.139,-0.015 0.131,-0.019 0.126,-0.021C0.122,-0.022 0.118,-0.023 0.113,-0.023C0.107,-0.023 0.102,-0.022 0.099,-0.02C0.095,-0.018 0.09,-0.012 0.083,-0.004C0.077,0.003 0.071,0.007 0.064,0.007C0.046,0.007 0.037,-0.007 0.037,-0.035L0.037,-0.213C0.037,-0.222 0.039,-0.23 0.044,-0.236C0.05,-0.242 0.056,-0.246 0.064,-0.246C0.071,-0.246 0.077,-0.244 0.081,-0.24C0.085,-0.236 0.088,-0.228 0.091,-0.217C0.099,-0.189 0.11,-0.163 0.124,-0.138C0.138,-0.114 0.154,-0.093 0.173,-0.076C0.193,-0.059 0.215,-0.047 0.24,-0.042Z" style="fill-rule:nonzero;"/>
                </g>
                <g transform="matrix(32.4756,0,0,32.4756,747.234,901.828)">
                    <path d="M0.405,-0.667L0.405,-0.093C0.405,-0.08 0.407,-0.071 0.412,-0.065C0.415,-0.062 0.417,-0.06 0.419,-0.059C0.422,-0.059 0.429,-0.056 0.442,-0.053C0.458,-0.05 0.465,-0.041 0.465,-0.026C0.465,-0.018 0.461,-0.011 0.453,-0.006C0.446,-0.002 0.436,-0 0.421,-0L0.171,-0C0.157,-0 0.146,-0.002 0.139,-0.007C0.132,-0.011 0.128,-0.018 0.128,-0.026C0.128,-0.041 0.136,-0.05 0.151,-0.053C0.164,-0.056 0.172,-0.059 0.174,-0.059C0.176,-0.06 0.178,-0.062 0.181,-0.065C0.186,-0.071 0.188,-0.08 0.188,-0.093L0.188,-0.667L0.405,-0.667ZM0.574,-0.667L0.574,-0.467C0.574,-0.457 0.571,-0.45 0.566,-0.444C0.56,-0.438 0.553,-0.435 0.545,-0.435C0.537,-0.435 0.53,-0.438 0.525,-0.443C0.519,-0.448 0.516,-0.456 0.514,-0.465L0.509,-0.495C0.504,-0.525 0.495,-0.552 0.481,-0.574C0.472,-0.587 0.46,-0.599 0.445,-0.607L0.445,-0.667L0.574,-0.667ZM0.02,-0.667L0.148,-0.667L0.148,-0.607C0.133,-0.599 0.121,-0.587 0.113,-0.574C0.099,-0.552 0.089,-0.525 0.084,-0.495L0.08,-0.465C0.078,-0.456 0.074,-0.448 0.069,-0.443C0.064,-0.438 0.057,-0.435 0.049,-0.435C0.04,-0.435 0.033,-0.438 0.028,-0.444C0.023,-0.45 0.02,-0.457 0.02,-0.467L0.02,-0.667Z" style="fill-rule:nonzero;"/>
                </g>
                <g transform="matrix(32.4756,0,0,32.4756,766.516,901.828)">
                    <path d="M0.236,-0.667L0.433,-0.667L0.568,-0.093C0.571,-0.083 0.574,-0.074 0.577,-0.066C0.58,-0.06 0.587,-0.055 0.597,-0.051C0.605,-0.047 0.611,-0.044 0.614,-0.04C0.618,-0.036 0.619,-0.032 0.619,-0.025C0.619,-0.008 0.606,-0 0.581,-0L0.337,-0C0.328,-0 0.32,-0.002 0.314,-0.007C0.308,-0.012 0.305,-0.018 0.305,-0.026C0.305,-0.032 0.306,-0.037 0.309,-0.041C0.312,-0.044 0.318,-0.048 0.327,-0.053C0.333,-0.056 0.338,-0.06 0.34,-0.063C0.343,-0.067 0.344,-0.072 0.344,-0.078C0.344,-0.084 0.344,-0.089 0.343,-0.093L0.327,-0.164L0.191,-0.164L0.204,-0.222L0.313,-0.222L0.224,-0.619L0.236,-0.667ZM0.202,-0.542L0.227,-0.441L0.141,-0.126C0.138,-0.117 0.137,-0.108 0.137,-0.101C0.137,-0.08 0.146,-0.065 0.166,-0.057L0.183,-0.049C0.193,-0.044 0.199,-0.036 0.199,-0.024C0.199,-0.008 0.187,-0 0.163,-0L0.039,-0C0.027,-0 0.017,-0.003 0.01,-0.008C0.003,-0.013 0,-0.02 0,-0.028C0,-0.038 0.007,-0.046 0.021,-0.052C0.035,-0.058 0.045,-0.063 0.051,-0.068C0.057,-0.072 0.063,-0.079 0.069,-0.087C0.078,-0.1 0.086,-0.118 0.092,-0.14L0.202,-0.542Z" style="fill-rule:nonzero;"/>
                </g>
                <g transform="matrix(32.4756,0,0,32.4756,786.623,901.828)">
                    <path d="M0.307,-0.667L0.307,-0.093C0.307,-0.08 0.309,-0.071 0.314,-0.065C0.317,-0.062 0.319,-0.06 0.321,-0.059C0.324,-0.059 0.331,-0.056 0.344,-0.053C0.359,-0.05 0.367,-0.041 0.367,-0.026C0.367,-0.018 0.363,-0.011 0.354,-0.006C0.348,-0.002 0.338,-0 0.324,-0L0.077,-0C0.065,-0 0.056,-0.002 0.05,-0.007C0.043,-0.011 0.04,-0.017 0.04,-0.025C0.04,-0.039 0.047,-0.048 0.06,-0.052C0.07,-0.055 0.077,-0.058 0.078,-0.058C0.08,-0.059 0.082,-0.061 0.084,-0.064C0.088,-0.069 0.09,-0.077 0.09,-0.089L0.09,-0.578C0.09,-0.589 0.088,-0.597 0.084,-0.603C0.082,-0.605 0.08,-0.607 0.078,-0.608C0.077,-0.609 0.07,-0.611 0.06,-0.615C0.047,-0.619 0.04,-0.628 0.04,-0.641C0.04,-0.649 0.043,-0.656 0.05,-0.66C0.056,-0.664 0.065,-0.667 0.077,-0.667L0.307,-0.667ZM0.457,-0.327C0.486,-0.322 0.51,-0.317 0.526,-0.312C0.542,-0.306 0.556,-0.299 0.569,-0.289C0.583,-0.279 0.594,-0.267 0.601,-0.253C0.608,-0.239 0.612,-0.224 0.612,-0.208L0.612,-0.107C0.612,-0.097 0.615,-0.092 0.622,-0.092C0.625,-0.092 0.627,-0.093 0.629,-0.094C0.63,-0.095 0.633,-0.098 0.636,-0.103C0.644,-0.114 0.653,-0.119 0.661,-0.119C0.667,-0.119 0.672,-0.116 0.678,-0.11C0.683,-0.104 0.686,-0.099 0.686,-0.093C0.686,-0.083 0.681,-0.07 0.672,-0.056C0.662,-0.041 0.65,-0.028 0.636,-0.017C0.622,-0.006 0.608,0.001 0.592,0.006C0.577,0.011 0.558,0.013 0.537,0.013C0.494,0.013 0.461,0.001 0.437,-0.024C0.412,-0.048 0.4,-0.083 0.4,-0.126L0.4,-0.208C0.4,-0.227 0.4,-0.237 0.4,-0.24C0.398,-0.253 0.394,-0.264 0.386,-0.274C0.377,-0.285 0.363,-0.292 0.346,-0.294L0.346,-0.346C0.363,-0.349 0.376,-0.353 0.383,-0.36C0.39,-0.366 0.394,-0.372 0.397,-0.38C0.399,-0.387 0.4,-0.398 0.4,-0.413L0.4,-0.542C0.4,-0.563 0.396,-0.578 0.388,-0.588C0.38,-0.598 0.366,-0.606 0.345,-0.612L0.345,-0.667L0.358,-0.667C0.394,-0.667 0.425,-0.665 0.45,-0.663C0.488,-0.659 0.522,-0.647 0.551,-0.625C0.594,-0.595 0.615,-0.552 0.615,-0.496C0.615,-0.45 0.601,-0.413 0.572,-0.383C0.56,-0.371 0.546,-0.361 0.53,-0.353C0.514,-0.345 0.489,-0.336 0.457,-0.327Z" style="fill-rule:nonzero;"/>
                </g>
                <g transform="matrix(32.4756,0,0,32.4756,809.331,901.828)">
                    <path d="M0.405,-0.667L0.405,-0.093C0.405,-0.08 0.407,-0.071 0.412,-0.065C0.415,-0.062 0.417,-0.06 0.419,-0.059C0.422,-0.059 0.429,-0.056 0.442,-0.053C0.458,-0.05 0.465,-0.041 0.465,-0.026C0.465,-0.018 0.461,-0.011 0.453,-0.006C0.446,-0.002 0.436,-0 0.421,-0L0.171,-0C0.157,-0 0.146,-0.002 0.139,-0.007C0.132,-0.011 0.128,-0.018 0.128,-0.026C0.128,-0.041 0.136,-0.05 0.151,-0.053C0.164,-0.056 0.172,-0.059 0.174,-0.059C0.176,-0.06 0.178,-0.062 0.181,-0.065C0.186,-0.071 0.188,-0.08 0.188,-0.093L0.188,-0.667L0.405,-0.667ZM0.574,-0.667L0.574,-0.467C0.574,-0.457 0.571,-0.45 0.566,-0.444C0.56,-0.438 0.553,-0.435 0.545,-0.435C0.537,-0.435 0.53,-0.438 0.525,-0.443C0.519,-0.448 0.516,-0.456 0.514,-0.465L0.509,-0.495C0.504,-0.525 0.495,-0.552 0.481,-0.574C0.472,-0.587 0.46,-0.599 0.445,-0.607L0.445,-0.667L0.574,-0.667ZM0.02,-0.667L0.148,-0.667L0.148,-0.607C0.133,-0.599 0.121,-0.587 0.113,-0.574C0.099,-0.552 0.089,-0.525 0.084,-0.495L0.08,-0.465C0.078,-0.456 0.074,-0.448 0.069,-0.443C0.064,-0.438 0.057,-0.435 0.049,-0.435C0.04,-0.435 0.033,-0.438 0.028,-0.444C0.023,-0.45 0.02,-0.457 0.02,-0.467L0.02,-0.667Z" style="fill-rule:nonzero;"/>
                </g>
            </g>
        </g>
    </g>
</svg>
