<?xml version="1.0" encoding="UTF-8" standalone="no"?><!DOCTYPE svg PUBLIC "-//W3C//DTD SVG 1.1//EN" "http://www.w3.org/Graphics/SVG/1.1/DTD/svg11.dtd"><svg width="208px" height="60px" version="1.1" xmlns="http://www.w3.org/2000/svg" xmlns:xlink="http://www.w3.org/1999/xlink" xml:space="preserve" xmlns:serif="http://www.serif.com/" style="fill-rule:evenodd;clip-rule:evenodd;stroke-linejoin:round;stroke-miterlimit:2;"><g id="nupp"><g><path d="M207.954,15.001c0,-8.279 -7.345,-15 -16.391,-15l-175.171,-0c-9.047,-0 -16.392,6.721 -16.392,15l-0,30c-0,8.279 7.345,15 16.392,15l175.171,-0c9.046,-0 16.391,-6.721 16.391,-15l0,-30Z" style="fill:#c6cf14;"/></g><g><g><path d="M47.693,15.501l10.606,0c1.107,0 1.66,0.404 1.66,1.167c0,0.583 -0.276,0.987 -0.876,1.166c-0.507,0.18 -0.784,0.27 -0.876,0.315c-0.092,0.044 -0.185,0.134 -0.277,0.224c-0.184,0.269 -0.276,0.628 -0.276,1.122l-0,21.94c-0,0.538 0.092,0.897 0.276,1.122c0.092,0.134 0.185,0.224 0.277,0.269c0.092,-0 0.369,0.135 0.876,0.269c0.6,0.18 0.876,0.583 0.876,1.212c0,0.762 -0.553,1.121 -1.66,1.121l-11.39,0c-0.646,0 -1.153,-0.089 -1.522,-0.314c-0.323,-0.179 -0.461,-0.493 -0.461,-0.852c-0,-0.673 0.323,-1.077 1.06,-1.212c0.6,-0.134 0.923,-0.269 1.015,-0.269c0.138,-0.045 0.231,-0.135 0.323,-0.269c0.23,-0.269 0.369,-0.673 0.369,-1.256l-0,-25.755Zm-8.301,0l4.427,12.294l1.983,-6.64l-0,7.313l-5.211,16.96l-1.199,0l-8.762,-25.216c-0.277,-0.852 -0.599,-1.435 -0.922,-1.705c-0.185,-0.179 -0.554,-0.314 -1.015,-0.403c-0.968,-0.225 -1.475,-0.673 -1.475,-1.391c-0,-0.359 0.138,-0.673 0.415,-0.853c0.276,-0.224 0.691,-0.359 1.199,-0.359l10.56,0Zm-8.762,10.096l2.398,6.64l0,6.596c0,0.673 0.046,1.121 0.092,1.435c0.046,0.27 0.185,0.584 0.323,0.943c0.323,0.673 0.784,1.121 1.337,1.435l0.831,0.539c0.553,0.359 0.83,0.718 0.83,1.122c-0,0.762 -0.554,1.121 -1.661,1.121l-5.672,0c-1.106,0 -1.66,-0.359 -1.66,-1.077c0,-0.269 0.046,-0.448 0.139,-0.538c0.092,-0.135 0.276,-0.269 0.553,-0.449c1.66,-0.852 2.49,-2.378 2.49,-4.531l0,-13.236Z" style="fill-rule:nonzero;"/></g><g><path d="M75.971,15.501l-0,29.927l-10.607,0c-0.553,0 -0.968,-0.089 -1.245,-0.314c-0.323,-0.179 -0.461,-0.448 -0.461,-0.807c-0,-0.629 0.323,-1.032 0.922,-1.212c0.461,-0.134 0.784,-0.269 0.83,-0.269c0.092,-0.045 0.185,-0.135 0.277,-0.269c0.184,-0.225 0.277,-0.584 0.277,-1.122l-0,-21.94c-0,-0.494 -0.093,-0.853 -0.277,-1.122c-0.092,-0.09 -0.185,-0.18 -0.277,-0.224c-0.046,-0.045 -0.369,-0.135 -0.83,-0.315c-0.599,-0.179 -0.922,-0.583 -0.922,-1.166c-0,-0.359 0.138,-0.673 0.461,-0.853c0.277,-0.179 0.692,-0.314 1.245,-0.314l10.607,0Zm1.983,0l9.084,0l0,7.762c0,0.449 -0.092,0.808 -0.277,0.988c-0.184,0.224 -0.461,0.314 -0.876,0.314c-0.323,-0 -0.553,-0.045 -0.691,-0.18c-0.139,-0.134 -0.323,-0.404 -0.415,-0.807c-0.6,-1.705 -1.43,-3.007 -2.537,-3.904c-1.107,-0.897 -2.536,-1.391 -4.288,-1.57l-0,-2.603Zm-0.093,15.973l0,-2.557c0.876,-0.404 1.522,-0.853 1.937,-1.301c0.415,-0.494 0.692,-1.167 0.922,-1.93c0.093,-0.583 0.277,-0.942 0.462,-1.166c0.184,-0.225 0.461,-0.314 0.83,-0.314c0.461,-0 0.83,0.179 0.968,0.538c0.138,0.18 0.185,0.628 0.185,1.301l-0,8.346c-0,0.673 -0.093,1.166 -0.231,1.436c-0.185,0.269 -0.461,0.358 -0.876,0.358c-0.369,0 -0.6,-0.089 -0.83,-0.269c-0.185,-0.224 -0.323,-0.583 -0.461,-1.032c-0.231,-1.032 -0.6,-1.794 -1.107,-2.333c-0.461,-0.538 -1.061,-0.897 -1.799,-1.077Zm0.139,13.954l-0,-2.378c0.968,-0.134 1.752,-0.359 2.398,-0.583c0.645,-0.269 1.291,-0.673 1.936,-1.211c0.646,-0.539 1.153,-1.122 1.522,-1.705c0.415,-0.539 0.738,-1.302 1.107,-2.289c0.184,-0.448 0.323,-0.762 0.507,-0.942c0.185,-0.179 0.415,-0.224 0.738,-0.224c0.415,-0 0.738,0.089 0.876,0.359c0.185,0.224 0.277,0.628 0.277,1.256l-0,7.717l-9.361,0Z" style="fill-rule:nonzero;"/></g><g><path d="M103.451,15.501l11.99,20.281l-0,9.646l-6.134,0l-15.31,-25.619c-0.323,-0.584 -0.599,-0.943 -0.784,-1.167c-0.231,-0.224 -0.507,-0.404 -0.83,-0.493l-0.83,-0.315c-0.231,-0.044 -0.415,-0.179 -0.553,-0.403c-0.139,-0.18 -0.185,-0.359 -0.185,-0.628c0,-0.225 0.046,-0.449 0.185,-0.674c0.138,-0.224 0.322,-0.358 0.553,-0.448c0.231,-0.09 0.922,-0.18 2.075,-0.18l9.823,0Zm-9.408,7.718l2.398,3.858l0,11.756c0,0.987 0.138,1.839 0.507,2.512c0.369,0.628 0.923,1.167 1.661,1.616l0.691,0.359c0.415,0.224 0.6,0.538 0.6,0.987c-0,0.359 -0.139,0.628 -0.461,0.852c-0.231,0.18 -0.692,0.269 -1.476,0.269l-5.211,0c-1.337,0 -2.029,-0.359 -2.029,-1.121c-0,-0.27 0.092,-0.494 0.23,-0.629c0.139,-0.179 0.462,-0.358 0.923,-0.628c1.429,-0.762 2.167,-2.198 2.167,-4.217l0,-15.614Zm21.398,9.063l-2.398,-3.948l-0,-6.058c-0,-1.211 -0.185,-2.153 -0.554,-2.826c-0.369,-0.628 -1.014,-1.212 -1.937,-1.66c-0.322,-0.135 -0.507,-0.314 -0.645,-0.494c-0.139,-0.135 -0.185,-0.359 -0.185,-0.628c0,-0.404 0.139,-0.673 0.415,-0.853c0.231,-0.179 0.692,-0.314 1.245,-0.314l5.626,0c0.784,0 1.292,0.135 1.522,0.359c0.277,0.269 0.369,0.539 0.369,0.853c0,0.314 -0.046,0.538 -0.184,0.673c-0.139,0.179 -0.508,0.359 -1.015,0.628c-0.83,0.404 -1.429,0.987 -1.844,1.84c-0.277,0.583 -0.415,1.39 -0.415,2.422l-0,10.006Z" style="fill-rule:nonzero;"/></g><g><path d="M123.621,36.679l0,-17.184c0,-0.494 -0.092,-0.853 -0.277,-1.122c-0.092,-0.09 -0.184,-0.18 -0.276,-0.224c-0.092,-0.045 -0.369,-0.135 -0.876,-0.315c-0.6,-0.179 -0.877,-0.583 -0.877,-1.166c0,-0.359 0.139,-0.673 0.415,-0.853c0.323,-0.179 0.738,-0.314 1.246,-0.314l11.252,0l0.784,0.09c0.276,0.09 0.461,0.224 0.645,0.404c0.139,0.179 0.231,0.449 0.231,0.673c-0,0.583 -0.277,0.987 -0.876,1.166c-0.508,0.18 -0.784,0.27 -0.877,0.315c-0.092,0.044 -0.184,0.134 -0.276,0.224c-0.185,0.269 -0.277,0.628 -0.277,1.122l-0,18.395c-0,1.257 0.046,2.109 0.138,2.603c0.046,0.493 0.185,0.942 0.415,1.301c0.185,0.404 0.415,0.628 0.646,0.808c0.231,0.179 0.692,0.359 1.383,0.538l0,2.872l-0.507,-0c-1.983,-0 -3.597,-0.18 -4.888,-0.494c-1.522,-0.404 -2.813,-0.987 -3.966,-1.75c-1.153,-0.763 -1.937,-1.66 -2.444,-2.602c-0.507,-1.032 -0.738,-2.513 -0.738,-4.487Zm14.572,9.333l0,-2.872c1.522,-0.179 2.767,-0.763 3.782,-1.795c1.153,-1.166 1.706,-2.782 1.706,-4.98l0,-14.268c0,-2.019 -0.784,-3.41 -2.352,-4.173c-0.461,-0.224 -0.784,-0.448 -0.922,-0.628c-0.138,-0.135 -0.231,-0.404 -0.231,-0.718c0,-0.404 0.139,-0.673 0.462,-0.807c0.276,-0.18 0.737,-0.27 1.383,-0.27l5.534,0c0.461,0 0.738,0.045 0.922,0.045c0.138,0.045 0.323,0.09 0.461,0.18c0.369,0.224 0.6,0.493 0.6,0.897c-0,0.314 -0.139,0.583 -0.369,0.808c-0.092,0.089 -0.415,0.269 -0.969,0.583c-0.691,0.359 -1.199,0.897 -1.567,1.615c-0.369,0.718 -0.554,1.526 -0.554,2.468l0,14.313c0,2.468 -0.553,4.442 -1.66,6.057c-0.83,1.167 -1.983,2.064 -3.505,2.782c-0.738,0.359 -1.66,0.628 -2.721,0.763Zm-7.055,-38.811c0.876,-0 1.66,0.314 2.352,0.942c0.645,0.628 0.968,1.391 0.968,2.288c0,0.898 -0.323,1.66 -0.968,2.289c-0.692,0.628 -1.476,0.942 -2.352,0.942c-0.922,-0 -1.706,-0.314 -2.352,-0.942c-0.692,-0.629 -1.014,-1.391 -1.014,-2.289c-0,-0.897 0.322,-1.66 1.014,-2.288c0.646,-0.628 1.43,-0.942 2.352,-0.942Zm8.577,-0c0.923,-0 1.707,0.314 2.352,0.942c0.646,0.628 0.969,1.391 0.969,2.288c-0,0.898 -0.323,1.66 -0.969,2.289c-0.645,0.628 -1.429,0.942 -2.352,0.942c-0.922,-0 -1.706,-0.314 -2.352,-0.942c-0.645,-0.629 -0.968,-1.391 -0.968,-2.289c0,-0.897 0.323,-1.66 0.968,-2.288c0.646,-0.628 1.43,-0.942 2.352,-0.942Z" style="fill-rule:nonzero;"/></g><g><path d="M154.83,36.679l-0,-17.184c-0,-0.494 -0.093,-0.853 -0.277,-1.122c-0.092,-0.09 -0.184,-0.18 -0.277,-0.224c-0.092,-0.045 -0.369,-0.135 -0.876,-0.315c-0.599,-0.179 -0.876,-0.583 -0.876,-1.166c-0,-0.359 0.138,-0.673 0.415,-0.853c0.323,-0.179 0.738,-0.314 1.245,-0.314l11.252,0l0.784,0.09c0.277,0.09 0.461,0.224 0.646,0.404c0.138,0.179 0.23,0.449 0.23,0.673c0,0.583 -0.276,0.987 -0.876,1.166c-0.507,0.18 -0.784,0.27 -0.876,0.315c-0.092,0.044 -0.185,0.134 -0.277,0.224c-0.184,0.269 -0.276,0.628 -0.276,1.122l-0,18.395c-0,1.257 0.046,2.109 0.138,2.603c0.046,0.493 0.184,0.942 0.415,1.301c0.184,0.404 0.415,0.628 0.646,0.808c0.23,0.179 0.691,0.359 1.383,0.538l-0,2.872l-0.507,-0c-1.983,-0 -3.597,-0.18 -4.888,-0.494c-1.522,-0.404 -2.814,-0.987 -3.966,-1.75c-1.153,-0.763 -1.937,-1.66 -2.444,-2.602c-0.508,-1.032 -0.738,-2.513 -0.738,-4.487Zm14.572,9.333l0,-2.872c1.522,-0.179 2.767,-0.763 3.781,-1.795c1.153,-1.166 1.707,-2.782 1.707,-4.98l-0,-14.268c-0,-2.019 -0.784,-3.41 -2.352,-4.173c-0.461,-0.224 -0.784,-0.448 -0.922,-0.628c-0.139,-0.135 -0.231,-0.404 -0.231,-0.718c-0,-0.404 0.138,-0.673 0.461,-0.807c0.277,-0.18 0.738,-0.27 1.384,-0.27l5.533,0c0.462,0 0.738,0.045 0.923,0.045c0.138,0.045 0.322,0.09 0.461,0.18c0.369,0.224 0.599,0.493 0.599,0.897c0,0.314 -0.138,0.583 -0.369,0.808c-0.092,0.089 -0.415,0.269 -0.968,0.583c-0.692,0.359 -1.199,0.897 -1.568,1.615c-0.369,0.718 -0.553,1.526 -0.553,2.468l-0,14.313c-0,2.468 -0.554,4.442 -1.66,6.057c-0.831,1.167 -1.983,2.064 -3.505,2.782c-0.738,0.359 -1.66,0.628 -2.721,0.763Zm-7.056,-38.811c0.877,-0 1.661,0.314 2.352,0.942c0.646,0.628 0.969,1.391 0.969,2.288c-0,0.898 -0.323,1.66 -0.969,2.289c-0.691,0.628 -1.475,0.942 -2.352,0.942c-0.922,-0 -1.706,-0.314 -2.351,-0.942c-0.692,-0.629 -1.015,-1.391 -1.015,-2.289c0,-0.897 0.323,-1.66 1.015,-2.288c0.645,-0.628 1.429,-0.942 2.351,-0.942Zm8.578,-0c0.922,-0 1.706,0.314 2.352,0.942c0.645,0.628 0.968,1.391 0.968,2.288c0,0.898 -0.323,1.66 -0.968,2.289c-0.646,0.628 -1.43,0.942 -2.352,0.942c-0.922,-0 -1.706,-0.314 -2.352,-0.942c-0.646,-0.629 -0.968,-1.391 -0.968,-2.289c-0,-0.897 0.322,-1.66 0.968,-2.288c0.646,-0.628 1.43,-0.942 2.352,-0.942Z" style="fill-rule:nonzero;"/></g></g></g></svg>