<?xml version="1.0" encoding="UTF-8" standalone="no"?>
<!DOCTYPE svg PUBLIC "-//W3C//DTD SVG 1.1//EN" "http://www.w3.org/Graphics/SVG/1.1/DTD/svg11.dtd">
<svg width="632px" height="77px" version="1.1" xmlns="http://www.w3.org/2000/svg" xmlns:xlink="http://www.w3.org/1999/xlink" xml:space="preserve" xmlns:serif="http://www.serif.com/" style="fill-rule:evenodd;clip-rule:evenodd;stroke-linejoin:round;stroke-miterlimit:2;">
    <g transform="matrix(1,0,0,1,-404,-435)">
        <g transform="matrix(1.35425,0,0,1.43989,-569.927,-158.293)">
            <g transform="matrix(0.985661,0.168735,-0.168735,0.985661,85.2208,-114.874)">
                <path d="M739.21,415.069L749.192,415.069C750.252,415.069 750.782,415.436 750.782,416.171C750.782,416.75 750.499,417.132 749.934,417.316C749.468,417.471 749.196,417.566 749.118,417.602C749.041,417.637 748.959,417.718 748.875,417.845C748.705,418.072 748.62,418.432 748.62,418.926L748.62,440.142C748.62,440.636 748.705,440.997 748.875,441.223C748.959,441.35 749.041,441.431 749.118,441.467C749.196,441.502 749.468,441.597 749.934,441.753C750.499,441.936 750.782,442.318 750.782,442.897C750.782,443.632 750.252,443.999 749.192,443.999L738.489,443.999C737.868,443.999 737.398,443.904 737.08,443.713C736.762,443.522 736.603,443.236 736.603,442.855C736.603,442.233 736.942,441.844 737.62,441.689C738.171,441.548 738.496,441.459 738.595,441.424C738.694,441.389 738.793,441.308 738.892,441.18C739.104,440.926 739.21,440.523 739.21,439.972L739.21,415.069ZM731.41,415.069L735.586,426.959L737.43,420.537L737.43,427.574L732.534,443.999L731.41,443.999L723.187,419.605C722.904,418.785 722.608,418.234 722.297,417.951C722.113,417.768 721.795,417.633 721.343,417.549C720.425,417.351 719.965,416.913 719.965,416.235C719.965,415.867 720.096,415.581 720.358,415.376C720.619,415.171 720.997,415.069 721.491,415.069L731.41,415.069ZM723.187,424.818L725.434,431.219L725.434,437.599C725.434,438.249 725.458,438.715 725.508,438.997C725.557,439.28 725.667,439.591 725.836,439.93C726.133,440.552 726.543,441.018 727.066,441.329L727.85,441.837C728.387,442.162 728.655,442.523 728.655,442.918C728.655,443.639 728.125,443.999 727.066,443.999L721.746,443.999C720.686,443.999 720.156,443.646 720.156,442.94C720.156,442.713 720.202,442.54 720.294,442.42C720.386,442.3 720.566,442.162 720.834,442.007C722.403,441.159 723.187,439.69 723.187,437.599L723.187,424.818Z" style="fill:rgb(64,170,120);fill-rule:nonzero;stroke:black;stroke-width:0.71px;"/>
            </g>
            <g transform="matrix(0.990085,0.140469,-0.140469,0.990085,70.6226,-101.183)">
                <path d="M762.301,420.749L770.843,420.749L776.735,445.653C776.848,446.091 776.975,446.479 777.116,446.818C777.243,447.087 777.526,447.306 777.964,447.476C778.331,447.631 778.586,447.786 778.727,447.942C778.868,448.097 778.939,448.309 778.939,448.578C778.939,449.312 778.388,449.68 777.286,449.68L766.71,449.68C766.286,449.68 765.947,449.577 765.693,449.372C765.438,449.168 765.311,448.896 765.311,448.556C765.311,448.274 765.368,448.062 765.481,447.921C765.594,447.779 765.848,447.603 766.244,447.391C766.526,447.249 766.724,447.094 766.837,446.924C766.95,446.755 767.007,446.543 767.007,446.289C767.007,446.048 766.985,445.836 766.943,445.653L766.265,442.58L760.352,442.58L760.924,440.057L765.671,440.057L761.772,422.827L762.301,420.749ZM760.839,426.133L761.92,430.52L758.169,444.212C758.055,444.607 757.999,444.975 757.999,445.314C757.999,446.204 758.416,446.84 759.249,447.221L759.991,447.56C760.458,447.772 760.691,448.125 760.691,448.62C760.691,449.326 760.175,449.68 759.143,449.68L753.76,449.68C753.237,449.68 752.824,449.57 752.52,449.351C752.216,449.132 752.065,448.832 752.065,448.45C752.065,448.041 752.375,447.702 752.997,447.433C753.576,447.179 754.004,446.949 754.279,446.744C754.555,446.539 754.82,446.26 755.074,445.907C755.47,445.328 755.795,444.558 756.049,443.597L760.839,426.133ZM762.301,412.696C763.163,412.696 763.902,413.003 764.516,413.618C765.131,414.232 765.438,414.97 765.438,415.832C765.438,416.694 765.131,417.433 764.516,418.047C763.902,418.662 763.163,418.969 762.301,418.969C761.44,418.969 760.701,418.662 760.087,418.047C759.472,417.433 759.165,416.694 759.165,415.832C759.165,414.97 759.472,414.232 760.087,413.618C760.701,413.003 761.44,412.696 762.301,412.696ZM770.376,412.696C771.238,412.696 771.977,413.003 772.591,413.618C773.206,414.232 773.513,414.97 773.513,415.832C773.513,416.694 773.206,417.433 772.591,418.047C771.977,418.662 771.238,418.969 770.376,418.969C769.515,418.969 768.776,418.662 768.162,418.047C767.547,417.433 767.24,416.694 767.24,415.832C767.24,414.97 767.547,414.232 768.162,413.618C768.776,413.003 769.515,412.696 770.376,412.696Z" style="fill:rgb(64,170,120);fill-rule:nonzero;stroke:black;stroke-width:0.71px;"/>
            </g>
            <g transform="matrix(0.993218,0.11627,-0.11627,0.993218,58.0049,-87.4539)">
                <path d="M792.348,424.532L803.624,444.116L803.624,453.462L797.838,453.462L783.447,428.665C783.136,428.128 782.882,427.754 782.684,427.542C782.486,427.33 782.232,427.174 781.921,427.075L781.115,426.779C780.904,426.708 780.734,426.581 780.607,426.397C780.48,426.213 780.416,426.009 780.416,425.783C780.416,425.542 780.48,425.32 780.607,425.115C780.734,424.91 780.904,424.765 781.115,424.68C781.356,424.581 782.006,424.532 783.065,424.532L792.348,424.532ZM783.468,431.971L785.715,435.701L785.715,447.062C785.715,448.051 785.881,448.863 786.213,449.499C786.545,450.135 787.071,450.658 787.792,451.067L788.427,451.428C788.795,451.64 788.979,451.958 788.979,452.381C788.979,452.706 788.844,452.975 788.576,453.187C788.35,453.37 787.884,453.462 787.177,453.462L782.281,453.462C780.995,453.462 780.352,453.095 780.352,452.36C780.352,452.106 780.42,451.905 780.554,451.756C780.688,451.608 780.981,451.406 781.433,451.152C782.79,450.403 783.468,449.04 783.468,447.062L783.468,431.971ZM803.624,440.725L801.377,436.931L801.377,431.06C801.377,429.873 801.204,428.965 800.858,428.336C800.512,427.708 799.901,427.167 799.025,426.715C798.728,426.574 798.523,426.422 798.41,426.259C798.297,426.097 798.24,425.888 798.24,425.634C798.24,425.253 798.364,424.974 798.611,424.797C798.859,424.62 799.258,424.532 799.809,424.532L805.107,424.532C805.828,424.532 806.301,424.645 806.527,424.871C806.768,425.097 806.888,425.366 806.888,425.677C806.888,425.973 806.821,426.196 806.686,426.344C806.552,426.493 806.231,426.694 805.722,426.948C804.973,427.33 804.408,427.916 804.027,428.707C803.758,429.287 803.624,430.071 803.624,431.06L803.624,440.725Z" style="fill:rgb(64,170,120);fill-rule:nonzero;stroke:black;stroke-width:0.71px;"/>
            </g>
            <g transform="matrix(0.995535,0.0943902,-0.0943902,0.995535,46.7264,-74.1857)">
                <path d="M820.336,427.334L820.336,429.687C819.093,429.984 818.471,430.973 818.471,432.654L818.471,452.386C818.471,453.149 818.577,453.735 818.789,454.145C818.973,454.484 819.361,454.774 819.955,455.014L819.955,457.409C819.502,457.409 819.089,457.374 818.715,457.303C818.34,457.232 817.842,457.091 817.22,456.879C815.737,456.371 814.395,455.593 813.194,454.548C811.993,453.502 811.003,452.252 810.226,450.796C809.025,448.522 808.425,445.83 808.425,442.721C808.425,439.712 808.962,437.041 810.036,434.71C811.109,432.379 812.65,430.549 814.656,429.221C815.815,428.443 817.058,427.885 818.386,427.546C818.937,427.405 819.587,427.334 820.336,427.334ZM822.074,429.644L822.074,427.355C824.377,427.567 826.27,427.991 827.754,428.627C828.192,428.825 828.531,428.924 828.771,428.924C828.997,428.924 829.171,428.871 829.291,428.765C829.411,428.659 829.654,428.359 830.022,427.864C830.276,427.511 830.594,427.334 830.976,427.334C831.371,427.334 831.65,427.444 831.813,427.663C831.975,427.882 832.057,428.246 832.057,428.754L832.057,436.999C832.057,438.073 831.661,438.61 830.87,438.61C830.474,438.61 830.181,438.504 829.99,438.292C829.799,438.08 829.619,437.663 829.45,437.041C829.238,436.25 828.856,435.328 828.305,434.275C827.754,433.223 827.224,432.393 826.716,431.785C826.136,431.079 825.486,430.559 824.766,430.227C824.045,429.895 823.148,429.701 822.074,429.644ZM831.654,453.297C831.089,453.863 830.336,454.438 829.397,455.025C828.457,455.611 827.57,456.074 826.737,456.413C825.974,456.71 825.129,456.95 824.204,457.134C823.279,457.317 822.463,457.409 821.756,457.409L821.756,455.014C822.166,454.915 822.473,454.795 822.678,454.654C822.883,454.512 823.056,454.315 823.197,454.06C823.437,453.622 823.558,453.064 823.558,452.386L823.558,446.197C823.558,445.646 823.452,445.251 823.24,445.01C823.141,444.869 823.042,444.781 822.943,444.745C822.844,444.71 822.519,444.629 821.968,444.502C821.29,444.332 820.951,443.937 820.951,443.315C820.951,442.947 821.11,442.665 821.428,442.467C821.745,442.269 822.215,442.17 822.837,442.17L831.294,442.17C831.929,442.17 832.378,442.259 832.639,442.435C832.901,442.612 833.031,442.919 833.031,443.357C833.031,443.626 832.978,443.848 832.872,444.025C832.767,444.201 832.572,444.389 832.29,444.586C832.007,444.784 831.83,444.968 831.76,445.138C831.689,445.307 831.654,445.618 831.654,446.07L831.654,453.297Z" style="fill:rgb(64,170,120);fill-rule:nonzero;stroke:black;stroke-width:0.71px;"/>
            </g>
            <g transform="matrix(0.997799,0.0663182,-0.0663182,0.997799,32.3824,-55.0412)">
                <path d="M858.544,460.231L848.562,460.231C848.053,460.231 847.661,460.136 847.386,459.945C847.11,459.754 846.972,459.482 846.972,459.129C846.972,458.55 847.255,458.168 847.82,457.984C848.286,457.829 848.558,457.734 848.636,457.698C848.714,457.663 848.795,457.582 848.88,457.454C849.049,457.228 849.134,456.868 849.134,456.374L849.134,435.158C849.134,434.664 849.049,434.303 848.88,434.077C848.795,433.95 848.714,433.869 848.636,433.833C848.558,433.798 848.286,433.703 847.82,433.547C847.255,433.364 846.972,432.982 846.972,432.403C846.972,432.05 847.11,431.778 847.386,431.587C847.661,431.396 848.053,431.301 848.562,431.301L859.286,431.301C859.908,431.301 860.353,431.385 860.621,431.555C860.989,431.781 861.172,432.078 861.172,432.445C861.172,433.067 860.833,433.455 860.155,433.611C859.604,433.738 859.279,433.823 859.18,433.865C859.081,433.908 858.975,433.992 858.862,434.12C858.65,434.374 858.544,434.769 858.544,435.306L858.544,460.231ZM860.261,460.231L860.261,457.857C860.953,457.73 861.501,457.589 861.904,457.433C862.306,457.278 862.691,457.052 863.059,456.755C863.652,456.289 864.196,455.646 864.691,454.826C865.185,454.007 865.588,453.096 865.899,452.092C866.125,451.315 866.333,450.803 866.524,450.556C866.715,450.308 866.994,450.185 867.361,450.185C867.757,450.185 868.046,450.347 868.23,450.672C868.315,450.828 868.357,451.139 868.357,451.605L868.357,460.231L860.261,460.231Z" style="fill:rgb(64,170,120);fill-rule:nonzero;stroke:black;stroke-width:0.71px;"/>
            </g>
            <g transform="matrix(0.998805,0.0488653,-0.0488653,0.998805,23.6024,-41.8757)">
                <path d="M878.489,432.854L887.03,432.854L892.922,457.757C893.035,458.195 893.162,458.584 893.304,458.923C893.431,459.191 893.713,459.41 894.151,459.58C894.519,459.735 894.773,459.891 894.914,460.046C895.056,460.202 895.126,460.414 895.126,460.682C895.126,461.417 894.575,461.784 893.473,461.784L882.897,461.784C882.473,461.784 882.134,461.682 881.88,461.477C881.626,461.272 881.498,461 881.498,460.661C881.498,460.378 881.555,460.166 881.668,460.025C881.781,459.884 882.035,459.707 882.431,459.495C882.714,459.354 882.911,459.199 883.024,459.029C883.137,458.859 883.194,458.647 883.194,458.393C883.194,458.153 883.173,457.941 883.13,457.757L882.452,454.684L876.539,454.684L877.111,452.162L881.859,452.162L877.959,434.931L878.489,432.854ZM877.026,438.237L878.107,442.625L874.356,456.316C874.243,456.712 874.186,457.079 874.186,457.418C874.186,458.308 874.603,458.944 875.437,459.326L876.179,459.665C876.645,459.877 876.878,460.23 876.878,460.725C876.878,461.431 876.362,461.784 875.331,461.784L869.947,461.784C869.425,461.784 869.011,461.675 868.708,461.456C868.404,461.237 868.252,460.936 868.252,460.555C868.252,460.145 868.563,459.806 869.184,459.538C869.764,459.283 870.191,459.054 870.467,458.849C870.742,458.644 871.007,458.365 871.262,458.012C871.657,457.432 871.982,456.662 872.236,455.701L877.026,438.237ZM878.489,424.8C879.351,424.8 880.089,425.107 880.704,425.722C881.318,426.337 881.626,427.075 881.626,427.937C881.626,428.799 881.318,429.537 880.704,430.152C880.089,430.766 879.351,431.074 878.489,431.074C877.627,431.074 876.889,430.766 876.274,430.152C875.659,429.537 875.352,428.799 875.352,427.937C875.352,427.075 875.659,426.337 876.274,425.722C876.889,425.107 877.627,424.8 878.489,424.8ZM886.564,424.8C887.426,424.8 888.164,425.107 888.779,425.722C889.393,426.337 889.701,427.075 889.701,427.937C889.701,428.799 889.393,429.537 888.779,430.152C888.164,430.766 887.426,431.074 886.564,431.074C885.702,431.074 884.964,430.766 884.349,430.152C883.734,429.537 883.427,428.799 883.427,427.937C883.427,427.075 883.734,426.337 884.349,425.722C884.964,425.107 885.702,424.8 886.564,424.8Z" style="fill:rgb(64,170,120);fill-rule:nonzero;stroke:black;stroke-width:0.71px;"/>
            </g>
            <g transform="matrix(0.999578,0.029039,-0.029039,0.999578,13.8257,-25.798)">
                <path d="M908.427,434.179L908.427,463.109L898.444,463.109C897.936,463.109 897.544,463.014 897.268,462.823C896.993,462.632 896.855,462.36 896.855,462.007C896.855,461.428 897.137,461.046 897.703,460.863C898.169,460.707 898.441,460.612 898.519,460.577C898.596,460.541 898.677,460.46 898.762,460.333C898.932,460.107 899.017,459.747 899.017,459.252L899.017,438.036C899.017,437.542 898.932,437.182 898.762,436.956C898.677,436.828 898.596,436.747 898.519,436.712C898.441,436.676 898.169,436.581 897.703,436.426C897.137,436.242 896.855,435.861 896.855,435.281C896.855,434.928 896.993,434.656 897.268,434.465C897.544,434.274 897.936,434.179 898.444,434.179L908.427,434.179ZM915.018,448.125C916.29,448.379 917.268,448.627 917.954,448.867C918.639,449.107 919.257,449.411 919.808,449.778C920.755,450.386 921.479,451.188 921.981,452.184C922.482,453.18 922.733,454.293 922.733,455.522C922.733,457.938 921.843,459.824 920.063,461.181C919.144,461.887 918.13,462.385 917.021,462.675C915.912,462.965 914.46,463.109 912.666,463.109L910.144,463.109L910.144,460.884C910.709,460.842 911.154,460.76 911.479,460.64C911.804,460.52 912.093,460.319 912.348,460.036C912.814,459.513 913.047,458.701 913.047,457.599L913.047,452.788C913.047,452.081 912.987,451.53 912.867,451.135C912.747,450.739 912.524,450.379 912.199,450.054C911.959,449.799 911.698,449.616 911.415,449.503C911.133,449.39 910.73,449.298 910.207,449.227L910.207,447.023C910.73,446.98 911.136,446.91 911.426,446.811C911.716,446.712 911.98,446.55 912.221,446.323C912.447,446.111 912.637,445.836 912.793,445.497C912.948,445.158 913.033,444.847 913.047,444.564L913.047,439.732C913.047,439.351 912.984,438.951 912.856,438.535C912.729,438.118 912.574,437.789 912.39,437.549C912.122,437.224 911.822,436.984 911.489,436.828C911.157,436.673 910.709,436.567 910.144,436.51L910.144,434.179L912.581,434.179C915.803,434.179 918.261,434.843 919.957,436.171C920.734,436.779 921.327,437.514 921.737,438.376C922.147,439.237 922.352,440.17 922.352,441.173C922.352,442.162 922.143,443.095 921.726,443.971C921.309,444.847 920.727,445.575 919.978,446.154C919.427,446.606 918.791,446.973 918.07,447.256C917.35,447.539 916.332,447.828 915.018,448.125Z" style="fill:rgb(64,170,120);fill-rule:nonzero;stroke:black;stroke-width:0.71px;"/>
            </g>
            <g transform="matrix(0.999913,0.0131741,-0.0131741,0.999913,6.19177,-12.1351)">
                <path d="M938.069,463.907L927.514,463.907C927.005,463.907 926.613,463.812 926.337,463.621C926.062,463.43 925.924,463.158 925.924,462.805C925.924,462.226 926.207,461.844 926.772,461.661C927.238,461.505 927.51,461.41 927.588,461.375C927.666,461.339 927.747,461.258 927.832,461.131C928.001,460.905 928.086,460.544 928.086,460.05L928.086,438.834C928.086,438.34 928.001,437.98 927.832,437.753C927.747,437.626 927.666,437.545 927.588,437.51C927.51,437.474 927.238,437.379 926.772,437.224C926.207,437.04 925.924,436.658 925.924,436.079C925.924,435.726 926.062,435.454 926.337,435.263C926.613,435.072 927.005,434.977 927.514,434.977L938.069,434.977C938.577,434.977 938.969,435.072 939.245,435.263C939.52,435.454 939.658,435.726 939.658,436.079C939.658,436.658 939.376,437.04 938.81,437.224C938.344,437.379 938.072,437.474 937.994,437.51C937.917,437.545 937.835,437.626 937.751,437.753C937.581,437.98 937.496,438.34 937.496,438.834L937.496,460.05C937.496,460.544 937.581,460.905 937.751,461.131C937.835,461.258 937.917,461.339 937.994,461.375C938.072,461.41 938.344,461.505 938.81,461.661C939.376,461.844 939.658,462.226 939.658,462.805C939.658,463.158 939.52,463.43 939.245,463.621C938.969,463.812 938.577,463.907 938.069,463.907Z" style="fill:rgb(64,170,120);fill-rule:nonzero;stroke:black;stroke-width:0.71px;"/>
            </g>
            <g transform="matrix(0.999997,0.00241178,-0.00241178,0.999997,1.12211,-2.26898)">
                <path d="M948.682,434.603C949.926,434.603 950.95,435.097 951.755,436.086C952.561,437.075 952.963,438.333 952.963,439.859C952.963,440.495 952.886,441.155 952.73,441.84C952.575,442.526 952.271,443.568 951.819,444.967C951.169,446.945 950.713,448.524 950.452,449.703C950.19,450.883 950.032,452.038 949.975,453.169C949.947,453.748 949.837,454.158 949.647,454.398C949.456,454.638 949.148,454.758 948.725,454.758C948.357,454.758 948.085,454.656 947.909,454.451C947.732,454.246 947.63,453.911 947.601,453.444C947.516,452.498 947.446,451.83 947.389,451.441C947.333,451.053 947.199,450.449 946.987,449.629C946.648,448.301 946.209,446.874 945.673,445.348C945.037,443.554 944.638,442.324 944.475,441.66C944.313,440.996 944.231,440.268 944.231,439.477C944.231,438.206 944.62,437.089 945.397,436.129C946.202,435.111 947.297,434.603 948.682,434.603ZM948.576,456.454C949.707,456.454 950.674,456.857 951.48,457.662C952.285,458.467 952.688,459.435 952.688,460.566C952.688,461.71 952.285,462.685 951.48,463.49C950.674,464.296 949.707,464.698 948.576,464.698C947.432,464.698 946.457,464.296 945.651,463.49C944.846,462.685 944.443,461.71 944.443,460.566C944.443,459.435 944.846,458.467 945.651,457.662C946.457,456.857 947.432,456.454 948.576,456.454Z" style="fill:rgb(64,170,120);fill-rule:nonzero;stroke:black;stroke-width:0.72px;"/>
            </g>
            <g transform="matrix(0.999832,-0.018312,0.018312,0.999832,-8.33696,17.7831)">
                <path d="M978.374,434.623L978.374,437.06C977.498,437.3 976.83,437.671 976.371,438.173C975.912,438.674 975.682,439.293 975.682,440.027C975.682,440.734 975.873,441.352 976.254,441.882C976.636,442.412 977.258,442.917 978.12,443.397C978.713,443.722 980.055,444.344 982.146,445.262C983.418,445.813 984.404,446.311 985.103,446.757C985.802,447.202 986.463,447.756 987.085,448.42C988.752,450.172 989.586,452.256 989.586,454.673C989.586,456.495 989.134,458.163 988.229,459.674C987.325,461.186 986.082,462.373 984.499,463.235C983.651,463.687 982.722,464.044 981.712,464.305C980.702,464.567 979.759,464.698 978.883,464.698L978.883,462.281C980.112,461.985 980.998,461.571 981.542,461.042C982.086,460.512 982.358,459.795 982.358,458.89C982.358,457.944 981.935,457.11 981.087,456.389C980.522,455.923 979.448,455.344 977.865,454.651C976.127,453.888 974.937,453.344 974.294,453.019C973.651,452.694 973.033,452.313 972.439,451.875C969.783,449.982 968.455,447.459 968.455,444.309C968.455,442.698 968.787,441.211 969.451,439.847C970.115,438.484 971.041,437.385 972.228,436.551C973.881,435.393 975.929,434.75 978.374,434.623ZM980.048,437.06L980.048,434.729C980.896,434.785 981.631,434.895 982.252,435.057C982.874,435.22 983.757,435.541 984.902,436.022C985.184,436.135 985.417,436.191 985.601,436.191C985.87,436.191 986.067,436.099 986.195,435.916L986.661,435.301C986.887,434.99 987.162,434.835 987.487,434.835C987.869,434.835 988.148,434.972 988.325,435.248C988.501,435.524 988.59,435.958 988.59,436.551L988.59,443.546C988.59,443.955 988.473,444.291 988.24,444.552C988.007,444.814 987.706,444.944 987.339,444.944C987.056,444.944 986.795,444.853 986.555,444.669C986.428,444.556 986.325,444.418 986.248,444.256C986.17,444.093 986.096,443.821 986.025,443.44C985.87,442.747 985.601,442.034 985.22,441.299C984.838,440.564 984.393,439.907 983.884,439.328C982.867,438.183 981.588,437.428 980.048,437.06ZM977.272,462.281L977.272,464.698C976.113,464.698 974.834,464.365 973.436,463.701C972.913,463.461 972.552,463.306 972.355,463.235C972.157,463.164 971.966,463.129 971.782,463.129C971.5,463.129 971.288,463.175 971.147,463.267C971.005,463.359 970.779,463.588 970.468,463.956C970.214,464.267 969.939,464.422 969.642,464.422C968.851,464.422 968.455,463.814 968.455,462.599L968.455,454.885C968.455,454.489 968.568,454.153 968.794,453.878C969.02,453.602 969.303,453.457 969.642,453.443C969.953,453.429 970.196,453.518 970.373,453.708C970.55,453.899 970.702,454.235 970.829,454.715C971.154,455.93 971.623,457.068 972.238,458.127C972.853,459.187 973.57,460.084 974.389,460.819C975.223,461.582 976.184,462.069 977.272,462.281Z" style="fill:rgb(64,170,120);fill-rule:nonzero;stroke:black;stroke-width:0.72px;"/>
            </g>
            <g transform="matrix(0.999465,-0.032705,0.032705,0.999465,-14.6336,32.6648)">
                <path d="M1005.07,463.655L994.512,463.655C994.004,463.655 993.611,463.559 993.336,463.369C993.06,463.178 992.923,462.906 992.923,462.553C992.923,461.973 993.205,461.592 993.77,461.408C994.237,461.253 994.509,461.157 994.586,461.122C994.664,461.087 994.745,461.005 994.83,460.878C995,460.652 995.084,460.292 995.084,459.797L995.084,438.582C995.084,438.087 995,437.727 994.83,437.501C994.745,437.374 994.664,437.292 994.586,437.257C994.509,437.222 994.237,437.126 993.77,436.971C993.205,436.787 992.923,436.406 992.923,435.826C992.923,435.473 993.06,435.201 993.336,435.011C993.611,434.82 994.004,434.724 994.512,434.724L1005.07,434.724C1005.58,434.724 1005.97,434.82 1006.24,435.011C1006.52,435.201 1006.66,435.473 1006.66,435.826C1006.66,436.406 1006.37,436.787 1005.81,436.971C1005.34,437.126 1005.07,437.222 1004.99,437.257C1004.92,437.292 1004.83,437.374 1004.75,437.501C1004.58,437.727 1004.5,438.087 1004.5,438.582L1004.5,459.797C1004.5,460.292 1004.58,460.652 1004.75,460.878C1004.83,461.005 1004.92,461.087 1004.99,461.122C1005.07,461.157 1005.34,461.253 1005.81,461.408C1006.37,461.592 1006.66,461.973 1006.66,462.553C1006.66,462.906 1006.52,463.178 1006.24,463.369C1005.97,463.559 1005.58,463.655 1005.07,463.655Z" style="fill:rgb(64,170,120);fill-rule:nonzero;stroke:black;stroke-width:0.72px;"/>
            </g>
            <g transform="matrix(0.998781,-0.0493666,0.0493666,0.998781,-21.6345,50.3438)">
                <path d="M1022.09,434.217L1033.37,453.8L1033.37,463.147L1027.58,463.147L1013.19,438.35C1012.88,437.813 1012.62,437.438 1012.43,437.227C1012.23,437.015 1011.97,436.859 1011.66,436.76L1010.86,436.464C1010.65,436.393 1010.48,436.266 1010.35,436.082C1010.22,435.898 1010.16,435.693 1010.16,435.467C1010.16,435.227 1010.22,435.005 1010.35,434.8C1010.48,434.595 1010.65,434.45 1010.86,434.365C1011.1,434.266 1011.75,434.217 1012.81,434.217L1022.09,434.217ZM1013.21,441.656L1015.46,445.386L1015.46,456.746C1015.46,457.736 1015.62,458.548 1015.96,459.184C1016.29,459.82 1016.81,460.342 1017.53,460.752L1018.17,461.113C1018.54,461.324 1018.72,461.642 1018.72,462.066C1018.72,462.391 1018.59,462.66 1018.32,462.872C1018.09,463.055 1017.63,463.147 1016.92,463.147L1012.02,463.147C1010.74,463.147 1010.1,462.78 1010.1,462.045C1010.1,461.791 1010.16,461.589 1010.3,461.441C1010.43,461.293 1010.72,461.091 1011.18,460.837C1012.53,460.088 1013.21,458.725 1013.21,456.746L1013.21,441.656ZM1033.37,450.409L1031.12,446.616L1031.12,440.745C1031.12,439.558 1030.95,438.65 1030.6,438.021C1030.25,437.393 1029.64,436.852 1028.77,436.4C1028.47,436.259 1028.27,436.107 1028.15,435.944C1028.04,435.782 1027.98,435.573 1027.98,435.319C1027.98,434.938 1028.11,434.658 1028.35,434.482C1028.6,434.305 1029,434.217 1029.55,434.217L1034.85,434.217C1035.57,434.217 1036.04,434.33 1036.27,434.556C1036.51,434.782 1036.63,435.051 1036.63,435.361C1036.63,435.658 1036.56,435.881 1036.43,436.029C1036.29,436.177 1035.97,436.379 1035.46,436.633C1034.71,437.015 1034.15,437.601 1033.77,438.392C1033.5,438.972 1033.37,439.756 1033.37,440.745L1033.37,450.409Z" style="fill:rgb(64,170,120);fill-rule:nonzero;stroke:black;stroke-width:0.72px;"/>
            </g>
            <g transform="matrix(0.997525,-0.0703195,0.0703195,0.997525,-29.8994,74.0969)">
                <path d="M1041,453.259L1041,436.643C1041,436.148 1040.92,435.788 1040.75,435.562C1040.66,435.435 1040.58,435.354 1040.51,435.318C1040.43,435.283 1040.15,435.188 1039.69,435.032C1039.12,434.849 1038.84,434.474 1038.84,433.909C1038.84,433.542 1038.98,433.262 1039.25,433.072C1039.53,432.881 1039.92,432.786 1040.43,432.786L1050.99,432.786L1051.75,432.87C1051.99,432.941 1052.19,433.068 1052.34,433.252C1052.5,433.436 1052.58,433.655 1052.58,433.909C1052.58,434.474 1052.29,434.849 1051.73,435.032C1051.26,435.188 1050.99,435.283 1050.91,435.318C1050.83,435.354 1050.75,435.435 1050.67,435.562C1050.5,435.788 1050.41,436.148 1050.41,436.643L1050.41,454.425C1050.41,455.626 1050.44,456.463 1050.51,456.937C1050.57,457.41 1050.7,457.837 1050.9,458.219C1051.08,458.572 1051.29,458.826 1051.52,458.982C1051.74,459.137 1052.17,459.314 1052.81,459.512L1052.81,462.288L1052.34,462.288C1050.51,462.288 1048.98,462.126 1047.76,461.801C1046.34,461.419 1045.09,460.854 1044.01,460.105C1042.94,459.356 1042.17,458.516 1041.72,457.583C1041.24,456.594 1041,455.153 1041,453.259ZM1054.76,462.288L1054.76,459.512C1056.17,459.328 1057.35,458.749 1058.3,457.774C1059.37,456.657 1059.91,455.054 1059.91,452.963L1059.91,439.144C1059.91,437.208 1059.17,435.859 1057.68,435.096C1057.25,434.87 1056.96,434.675 1056.82,434.513C1056.69,434.35 1056.62,434.114 1056.62,433.803C1056.62,433.436 1056.76,433.174 1057.03,433.019C1057.29,432.863 1057.73,432.786 1058.34,432.786L1063.53,432.786C1063.97,432.786 1064.26,432.796 1064.41,432.817C1064.56,432.839 1064.7,432.892 1064.85,432.976C1065.21,433.188 1065.4,433.478 1065.4,433.845C1065.4,434.156 1065.28,434.418 1065.06,434.63C1064.99,434.7 1064.68,434.891 1064.15,435.202C1063.53,435.541 1063.04,436.06 1062.68,436.76C1062.33,437.459 1062.15,438.254 1062.15,439.144L1062.15,452.984C1062.15,455.358 1061.63,457.307 1060.59,458.833C1059.82,459.964 1058.73,460.868 1057.3,461.546C1056.6,461.885 1055.75,462.133 1054.76,462.288Z" style="fill:rgb(64,170,120);fill-rule:nonzero;stroke:black;stroke-width:0.72px;"/>
            </g>
            <g transform="matrix(0.994986,-0.100016,0.100016,0.994986,-40.4748,110.078)">
                <path d="M1095.2,451.29L1093.18,458.708L1087.61,458.708L1080.06,433.381C1079.95,432.999 1079.85,432.741 1079.75,432.607C1079.65,432.473 1079.49,432.356 1079.28,432.257C1078.83,432.074 1078.53,431.904 1078.39,431.749C1078.25,431.593 1078.18,431.36 1078.18,431.049C1078.18,430.625 1078.37,430.293 1078.75,430.053C1079.05,429.869 1079.53,429.778 1080.21,429.778L1089.64,429.778C1090.24,429.778 1090.64,429.792 1090.86,429.82C1091.08,429.848 1091.26,429.905 1091.4,429.989C1091.55,430.088 1091.66,430.23 1091.76,430.413C1091.86,430.597 1091.91,430.774 1091.91,430.943C1091.91,431.466 1091.66,431.84 1091.17,432.067C1090.8,432.25 1090.55,432.437 1090.42,432.628C1090.28,432.819 1090.22,433.091 1090.22,433.444C1090.22,433.67 1090.24,433.868 1090.28,434.038L1095.2,451.29ZM1096,448.259L1094.88,444.274L1097.32,435.352C1097.47,434.786 1097.56,434.44 1097.57,434.313C1097.6,434.002 1097.53,433.656 1097.36,433.275C1097.13,432.78 1096.78,432.455 1096.3,432.3L1095.6,432.045C1095.05,431.862 1094.77,431.501 1094.77,430.964C1094.77,430.583 1094.93,430.29 1095.24,430.085C1095.55,429.88 1095.98,429.778 1096.53,429.778L1101.73,429.778C1102.38,429.778 1102.8,429.841 1103,429.968C1103.34,430.18 1103.51,430.484 1103.51,430.88C1103.51,431.148 1103.45,431.36 1103.35,431.515C1103.24,431.671 1103.05,431.812 1102.76,431.939L1101.68,432.448C1101.23,432.66 1100.8,433.08 1100.38,433.709C1099.96,434.338 1099.64,435.055 1099.41,435.86L1096,448.259Z" style="fill:rgb(64,170,120);fill-rule:nonzero;stroke:black;stroke-width:0.72px;"/>
            </g>
            <g transform="matrix(0.992564,-0.121726,0.121726,0.992564,-47.3124,137.736)">
                <path d="M1116.55,428.887C1115.83,429.142 1115.32,429.488 1115.02,429.926C1114.72,430.364 1114.58,431.007 1114.58,431.854L1114.58,450.802C1114.58,452.046 1114.74,452.922 1115.08,453.43C1115.35,453.854 1115.84,454.158 1116.55,454.342L1116.55,456.673C1113.41,456.419 1110.78,455.239 1108.66,453.134C1105.91,450.392 1104.53,446.57 1104.53,441.667C1104.53,439.209 1104.89,436.987 1105.62,435.002C1106.35,433.017 1107.42,431.332 1108.85,429.947C1109.94,428.887 1111.11,428.082 1112.37,427.531C1113.63,426.98 1115.02,426.669 1116.55,426.598L1116.55,428.887ZM1118.28,428.887L1118.28,426.598C1119.81,426.669 1121.2,426.98 1122.47,427.531C1123.73,428.082 1124.91,428.887 1126,429.947C1128.88,432.759 1130.32,436.666 1130.32,441.667C1130.32,446.57 1128.94,450.392 1126.19,453.134C1124.07,455.253 1121.43,456.433 1118.28,456.673L1118.28,454.342C1118.65,454.257 1118.94,454.147 1119.14,454.013C1119.35,453.879 1119.53,453.685 1119.7,453.43C1120.09,452.851 1120.28,451.975 1120.28,450.802L1120.28,431.854C1120.28,431.106 1120.15,430.512 1119.89,430.074C1119.73,429.777 1119.52,429.544 1119.29,429.375C1119.06,429.205 1118.72,429.043 1118.28,428.887ZM1114.87,419.159C1115.34,419.159 1115.81,419.244 1116.29,419.413C1116.77,419.583 1117.46,419.901 1118.35,420.367C1119.66,421.045 1120.69,421.384 1121.44,421.384C1121.74,421.384 1121.99,421.286 1122.18,421.088C1122.38,420.89 1122.54,420.579 1122.65,420.155C1122.73,419.844 1122.83,419.629 1122.94,419.509C1123.04,419.389 1123.18,419.329 1123.35,419.329C1123.69,419.329 1123.93,419.41 1124.08,419.572C1124.23,419.735 1124.3,420.007 1124.3,420.388C1124.3,421.321 1124.02,422.289 1123.45,423.292C1122.66,424.719 1121.51,425.433 1119.98,425.433C1119.53,425.433 1119.08,425.369 1118.62,425.242C1118.17,425.115 1117.59,424.881 1116.88,424.542L1115.46,423.864C1114.53,423.426 1113.86,423.207 1113.45,423.207C1112.89,423.207 1112.46,423.596 1112.18,424.373C1112.07,424.712 1111.96,424.934 1111.87,425.04C1111.78,425.146 1111.65,425.199 1111.48,425.199C1110.86,425.199 1110.55,424.825 1110.55,424.076C1110.55,423.638 1110.65,423.115 1110.87,422.508C1111.08,421.9 1111.34,421.37 1111.65,420.918C1112.44,419.745 1113.52,419.159 1114.87,419.159Z" style="fill:rgb(64,170,120);fill-rule:nonzero;stroke:black;stroke-width:0.72px;"/>
            </g>
            <g transform="matrix(0.990016,-0.140957,0.140957,0.990016,-52.5196,163.939)">
                <path d="M1144.86,452.702L1134.3,452.702C1133.8,452.702 1133.4,452.607 1133.13,452.416C1132.85,452.226 1132.71,451.954 1132.71,451.6C1132.71,451.021 1133,450.64 1133.56,450.456C1134.03,450.3 1134.3,450.205 1134.38,450.17C1134.45,450.134 1134.54,450.053 1134.62,449.926C1134.79,449.7 1134.88,449.34 1134.88,448.845L1134.88,427.63C1134.88,427.135 1134.79,426.775 1134.62,426.549C1134.54,426.421 1134.45,426.34 1134.38,426.305C1134.3,426.27 1134.03,426.174 1133.56,426.019C1133,425.835 1132.71,425.454 1132.71,424.874C1132.71,424.521 1132.85,424.249 1133.13,424.058C1133.4,423.868 1133.8,423.772 1134.3,423.772L1144.86,423.772C1145.37,423.772 1145.76,423.868 1146.04,424.058C1146.31,424.249 1146.45,424.521 1146.45,424.874C1146.45,425.454 1146.16,425.835 1145.6,426.019C1145.13,426.174 1144.86,426.27 1144.78,426.305C1144.71,426.34 1144.62,426.421 1144.54,426.549C1144.37,426.775 1144.29,427.135 1144.29,427.63L1144.29,448.845C1144.29,449.34 1144.37,449.7 1144.54,449.926C1144.62,450.053 1144.71,450.134 1144.78,450.17C1144.86,450.205 1145.13,450.3 1145.6,450.456C1146.16,450.64 1146.45,451.021 1146.45,451.6C1146.45,451.954 1146.31,452.226 1146.04,452.416C1145.76,452.607 1145.37,452.702 1144.86,452.702Z" style="fill:rgb(64,170,120);fill-rule:nonzero;stroke:black;stroke-width:0.72px;"/>
            </g>
            <g transform="matrix(0.987025,-0.160564,0.160564,0.987025,-57.4102,190.174)">
                <path d="M1165.59,421.39L1165.59,446.293C1165.59,446.845 1165.7,447.24 1165.91,447.48C1166.03,447.622 1166.13,447.71 1166.23,447.745C1166.33,447.781 1166.65,447.869 1167.2,448.01C1167.88,448.166 1168.22,448.554 1168.22,449.176C1168.22,449.543 1168.04,449.84 1167.67,450.066C1167.4,450.236 1166.95,450.32 1166.31,450.32L1155.46,450.32C1154.84,450.32 1154.37,450.225 1154.05,450.034C1153.74,449.844 1153.58,449.557 1153.58,449.176C1153.58,448.554 1153.92,448.166 1154.59,448.01C1155.14,447.869 1155.47,447.781 1155.57,447.745C1155.67,447.71 1155.77,447.622 1155.87,447.48C1156.08,447.24 1156.18,446.845 1156.18,446.293L1156.18,421.39L1165.59,421.39ZM1172.93,421.39L1172.93,430.059C1172.93,430.468 1172.81,430.8 1172.58,431.055C1172.34,431.309 1172.04,431.436 1171.68,431.436C1171.32,431.436 1171.03,431.32 1170.8,431.087C1170.56,430.853 1170.41,430.532 1170.34,430.122L1170.13,428.829C1169.92,427.515 1169.51,426.378 1168.9,425.417C1168.52,424.824 1168,424.336 1167.35,423.955L1167.35,421.39L1172.93,421.39ZM1148.89,421.39L1154.47,421.39L1154.47,423.955C1153.8,424.336 1153.29,424.824 1152.92,425.417C1152.31,426.378 1151.9,427.515 1151.69,428.829L1151.48,430.122C1151.41,430.532 1151.26,430.853 1151.02,431.087C1150.79,431.32 1150.5,431.436 1150.14,431.436C1149.78,431.436 1149.48,431.309 1149.24,431.055C1149.01,430.8 1148.89,430.468 1148.89,430.059L1148.89,421.39Z" style="fill:rgb(64,170,120);fill-rule:nonzero;stroke:black;stroke-width:0.72px;"/>
            </g>
            <g transform="matrix(0.983631,-0.180197,0.180197,0.983631,-61.1807,218.761)">
                <path d="M1180.82,416.6C1182.06,416.6 1183.09,417.094 1183.89,418.083C1184.7,419.072 1185.1,420.33 1185.1,421.856C1185.1,422.492 1185.02,423.152 1184.87,423.838C1184.71,424.523 1184.41,425.565 1183.96,426.964C1183.31,428.942 1182.85,430.521 1182.59,431.701C1182.33,432.881 1182.17,434.036 1182.11,435.166C1182.08,435.745 1181.97,436.155 1181.78,436.395C1181.59,436.635 1181.29,436.756 1180.86,436.756C1180.49,436.756 1180.22,436.653 1180.05,436.448C1179.87,436.243 1179.77,435.908 1179.74,435.442C1179.65,434.495 1179.58,433.827 1179.53,433.439C1179.47,433.05 1179.34,432.446 1179.12,431.627C1178.79,430.298 1178.35,428.871 1177.81,427.345C1177.17,425.551 1176.78,424.322 1176.61,423.657C1176.45,422.993 1176.37,422.266 1176.37,421.474C1176.37,420.203 1176.76,419.087 1177.53,418.126C1178.34,417.108 1179.43,416.6 1180.82,416.6ZM1180.71,438.451C1181.84,438.451 1182.81,438.854 1183.62,439.659C1184.42,440.465 1184.83,441.432 1184.83,442.563C1184.83,443.707 1184.42,444.682 1183.62,445.488C1182.81,446.293 1181.84,446.696 1180.71,446.696C1179.57,446.696 1178.59,446.293 1177.79,445.488C1176.98,444.682 1176.58,443.707 1176.58,442.563C1176.58,441.432 1176.98,440.465 1177.79,439.659C1178.59,438.854 1179.57,438.451 1180.71,438.451Z" style="fill:rgb(64,170,120);fill-rule:nonzero;stroke:black;stroke-width:0.72px;"/>
            </g>
        </g>
    </g>
</svg>
