<?xml version="1.0" encoding="UTF-8" standalone="no"?>
<!DOCTYPE svg PUBLIC "-//W3C//DTD SVG 1.1//EN" "http://www.w3.org/Graphics/SVG/1.1/DTD/svg11.dtd">
<svg width="765px" height="89px" version="1.1" xmlns="http://www.w3.org/2000/svg" xmlns:xlink="http://www.w3.org/1999/xlink" xml:space="preserve" xmlns:serif="http://www.serif.com/" style="fill-rule:evenodd;clip-rule:evenodd;stroke-linejoin:round;stroke-miterlimit:2;">
    <g transform="matrix(1,0,0,1,-337,-423)">
        <g transform="matrix(1.35425,0,0,1.43989,-569.927,-158.293)">
            <g transform="matrix(0.97487,0.222774,-0.222774,0.97487,113.317,-138.14)">
                <path d="M689.643,404.274L699.626,404.274C700.685,404.274 701.215,404.641 701.215,405.376C701.215,405.955 700.933,406.337 700.368,406.52C699.901,406.676 699.629,406.771 699.552,406.807C699.474,406.842 699.393,406.923 699.308,407.05C699.138,407.276 699.053,407.637 699.053,408.131L699.053,429.347C699.053,429.841 699.138,430.202 699.308,430.428C699.393,430.555 699.474,430.636 699.552,430.671C699.629,430.707 699.901,430.802 700.368,430.958C700.933,431.141 701.215,431.523 701.215,432.102C701.215,432.837 700.685,433.204 699.626,433.204L688.923,433.204C688.301,433.204 687.831,433.109 687.513,432.918C687.195,432.727 687.036,432.441 687.036,432.06C687.036,431.438 687.375,431.049 688.054,430.894C688.605,430.753 688.93,430.664 689.029,430.629C689.127,430.594 689.226,430.512 689.325,430.385C689.537,430.131 689.643,429.728 689.643,429.177L689.643,404.274ZM681.844,404.274L686.019,416.164L687.863,409.742L687.863,416.779L682.967,433.204L681.844,433.204L673.62,408.809C673.338,407.99 673.041,407.439 672.73,407.156C672.546,406.973 672.229,406.838 671.776,406.754C670.858,406.556 670.399,406.118 670.399,405.44C670.399,405.072 670.529,404.786 670.791,404.581C671.052,404.376 671.43,404.274 671.925,404.274L681.844,404.274ZM673.62,414.023L675.867,420.424L675.867,426.803C675.867,427.453 675.892,427.92 675.941,428.202C675.991,428.485 676.1,428.796 676.27,429.135C676.566,429.757 676.976,430.223 677.499,430.534L678.283,431.042C678.82,431.367 679.088,431.728 679.088,432.123C679.088,432.844 678.559,433.204 677.499,433.204L672.179,433.204C671.119,433.204 670.589,432.851 670.589,432.144C670.589,431.918 670.635,431.745 670.727,431.625C670.819,431.505 670.999,431.367 671.268,431.212C672.836,430.364 673.62,428.895 673.62,426.803L673.62,414.023Z" style="fill:rgb(206,27,22);fill-rule:nonzero;stroke:black;stroke-width:0.71px;"/>
            </g>
            <g transform="matrix(0.982003,0.188865,-0.188865,0.982003,95.8729,-124.685)">
                <path d="M712.415,411.786L720.956,411.786L726.848,436.689C726.961,437.127 727.088,437.516 727.23,437.855C727.357,438.123 727.64,438.342 728.078,438.512C728.445,438.667 728.699,438.823 728.841,438.978C728.982,439.134 729.052,439.346 729.052,439.614C729.052,440.349 728.501,440.716 727.399,440.716L716.823,440.716C716.399,440.716 716.06,440.614 715.806,440.409C715.552,440.204 715.425,439.932 715.425,439.593C715.425,439.31 715.481,439.098 715.594,438.957C715.707,438.816 715.961,438.639 716.357,438.427C716.64,438.286 716.837,438.13 716.951,437.961C717.064,437.791 717.12,437.579 717.12,437.325C717.12,437.085 717.099,436.873 717.056,436.689L716.378,433.616L710.465,433.616L711.037,431.094L715.785,431.094L711.885,413.863L712.415,411.786ZM710.953,417.169L712.033,421.557L708.282,435.248C708.169,435.644 708.112,436.011 708.112,436.35C708.112,437.24 708.529,437.876 709.363,438.258L710.105,438.597C710.571,438.809 710.804,439.162 710.804,439.656C710.804,440.363 710.288,440.716 709.257,440.716L703.874,440.716C703.351,440.716 702.938,440.607 702.634,440.388C702.33,440.169 702.178,439.868 702.178,439.487C702.178,439.077 702.489,438.738 703.111,438.47C703.69,438.215 704.117,437.986 704.393,437.781C704.668,437.576 704.933,437.297 705.188,436.944C705.583,436.364 705.908,435.594 706.163,434.633L710.953,417.169ZM712.415,403.732C713.277,403.732 714.015,404.039 714.63,404.654C715.244,405.269 715.552,406.007 715.552,406.869C715.552,407.731 715.244,408.469 714.63,409.084C714.015,409.698 713.277,410.006 712.415,410.006C711.553,410.006 710.815,409.698 710.2,409.084C709.585,408.469 709.278,407.731 709.278,406.869C709.278,406.007 709.585,405.269 710.2,404.654C710.815,404.039 711.553,403.732 712.415,403.732ZM720.49,403.732C721.352,403.732 722.09,404.039 722.705,404.654C723.319,405.269 723.627,406.007 723.627,406.869C723.627,407.731 723.319,408.469 722.705,409.084C722.09,409.698 721.352,410.006 720.49,410.006C719.628,410.006 718.89,409.698 718.275,409.084C717.661,408.469 717.353,407.731 717.353,406.869C717.353,406.007 717.661,405.269 718.275,404.654C718.89,404.039 719.628,403.732 720.49,403.732Z" style="fill:rgb(206,27,22);fill-rule:nonzero;stroke:black;stroke-width:0.71px;"/>
            </g>
            <g transform="matrix(0.98699,0.160781,-0.160781,0.98699,81.1548,-111.335)">
                <path d="M742.27,416.871L753.546,436.455L753.546,445.802L747.759,445.802L733.369,421.004C733.058,420.467 732.803,420.093 732.606,419.881C732.408,419.669 732.153,419.514 731.843,419.415L731.037,419.118C730.825,419.047 730.656,418.92 730.528,418.737C730.401,418.553 730.338,418.348 730.338,418.122C730.338,417.882 730.401,417.659 730.528,417.454C730.656,417.249 730.825,417.105 731.037,417.02C731.277,416.921 731.927,416.871 732.987,416.871L742.27,416.871ZM733.39,424.311L735.636,428.041L735.636,439.401C735.636,440.39 735.802,441.203 736.134,441.838C736.466,442.474 736.993,442.997 737.713,443.407L738.349,443.767C738.717,443.979 738.9,444.297 738.9,444.721C738.9,445.046 738.766,445.314 738.498,445.526C738.271,445.71 737.805,445.802 737.099,445.802L732.203,445.802C730.917,445.802 730.274,445.434 730.274,444.7C730.274,444.445 730.341,444.244 730.475,444.096C730.61,443.947 730.903,443.746 731.355,443.492C732.711,442.743 733.39,441.379 733.39,439.401L733.39,424.311ZM753.546,433.064L751.299,429.27L751.299,423.399C751.299,422.212 751.126,421.305 750.78,420.676C750.433,420.047 749.822,419.507 748.946,419.054C748.65,418.913 748.445,418.761 748.332,418.599C748.219,418.436 748.162,418.228 748.162,417.974C748.162,417.592 748.286,417.313 748.533,417.136C748.78,416.96 749.179,416.871 749.731,416.871L755.029,416.871C755.75,416.871 756.223,416.984 756.449,417.211C756.689,417.437 756.809,417.705 756.809,418.016C756.809,418.313 756.742,418.535 756.608,418.684C756.474,418.832 756.152,419.033 755.644,419.288C754.895,419.669 754.33,420.255 753.948,421.047C753.68,421.626 753.546,422.41 753.546,423.399L753.546,433.064Z" style="fill:rgb(206,27,22);fill-rule:nonzero;stroke:black;stroke-width:0.71px;"/>
            </g>
            <g transform="matrix(0.990706,0.136023,-0.136023,0.990706,68.3139,-98.8282)">
                <path d="M770.117,420.973L770.117,423.326C768.873,423.623 768.252,424.612 768.252,426.293L768.252,446.025C768.252,446.788 768.358,447.374 768.57,447.784C768.753,448.123 769.142,448.413 769.735,448.653L769.735,451.048C769.283,451.048 768.87,451.013 768.496,450.942C768.121,450.872 767.623,450.73 767.001,450.518C765.518,450.01 764.175,449.233 762.974,448.187C761.773,447.141 760.784,445.891 760.007,444.436C758.806,442.161 758.206,439.469 758.206,436.36C758.206,433.351 758.743,430.68 759.816,428.349C760.89,426.018 762.43,424.188 764.437,422.86C765.595,422.083 766.839,421.524 768.167,421.185C768.718,421.044 769.368,420.973 770.117,420.973ZM771.855,423.284L771.855,420.995C774.158,421.207 776.051,421.63 777.535,422.266C777.973,422.464 778.312,422.563 778.552,422.563C778.778,422.563 778.951,422.51 779.071,422.404C779.192,422.298 779.435,421.998 779.803,421.503C780.057,421.15 780.375,420.973 780.756,420.973C781.152,420.973 781.431,421.083 781.594,421.302C781.756,421.521 781.837,421.885 781.837,422.393L781.837,430.638C781.837,431.712 781.442,432.249 780.65,432.249C780.255,432.249 779.962,432.143 779.771,431.931C779.58,431.719 779.4,431.302 779.23,430.68C779.018,429.889 778.637,428.967 778.086,427.915C777.535,426.862 777.005,426.032 776.496,425.424C775.917,424.718 775.267,424.198 774.546,423.866C773.826,423.534 772.929,423.34 771.855,423.284ZM781.435,446.936C780.869,447.502 780.117,448.077 779.177,448.664C778.238,449.25 777.351,449.713 776.518,450.052C775.755,450.349 774.91,450.589 773.985,450.773C773.059,450.956 772.243,451.048 771.537,451.048L771.537,448.653C771.947,448.554 772.254,448.434 772.459,448.293C772.664,448.152 772.837,447.954 772.978,447.699C773.218,447.261 773.338,446.703 773.338,446.025L773.338,439.836C773.338,439.285 773.232,438.89 773.021,438.649C772.922,438.508 772.823,438.42 772.724,438.385C772.625,438.349 772.3,438.268 771.749,438.141C771.071,437.971 770.732,437.576 770.732,436.954C770.732,436.587 770.89,436.304 771.208,436.106C771.526,435.908 771.996,435.809 772.618,435.809L781.074,435.809C781.71,435.809 782.159,435.898 782.42,436.074C782.682,436.251 782.812,436.558 782.812,436.996C782.812,437.265 782.759,437.487 782.653,437.664C782.547,437.841 782.353,438.028 782.07,438.226C781.788,438.423 781.611,438.607 781.541,438.777C781.47,438.946 781.435,439.257 781.435,439.709L781.435,446.936Z" style="fill:rgb(206,27,22);fill-rule:nonzero;stroke:black;stroke-width:0.71px;"/>
            </g>
            <g transform="matrix(0.994456,0.105152,-0.105152,0.994456,52.294,-81.0461)">
                <path d="M808.069,455.415L798.087,455.415C797.578,455.415 797.186,455.319 796.91,455.129C796.635,454.938 796.497,454.666 796.497,454.313C796.497,453.733 796.78,453.352 797.345,453.168C797.811,453.013 798.083,452.917 798.161,452.882C798.238,452.847 798.32,452.765 798.404,452.638C798.574,452.412 798.659,452.052 798.659,451.557L798.659,430.342C798.659,429.847 798.574,429.487 798.404,429.261C798.32,429.134 798.238,429.053 798.161,429.017C798.083,428.982 797.811,428.887 797.345,428.731C796.78,428.547 796.497,428.166 796.497,427.587C796.497,427.233 796.635,426.961 796.91,426.771C797.186,426.58 797.578,426.485 798.087,426.485L808.811,426.485C809.433,426.485 809.878,426.569 810.146,426.739C810.514,426.965 810.697,427.262 810.697,427.629C810.697,428.251 810.358,428.639 809.68,428.795C809.129,428.922 808.804,429.007 808.705,429.049C808.606,429.091 808.5,429.176 808.387,429.303C808.175,429.558 808.069,429.953 808.069,430.49L808.069,455.415ZM809.786,455.415L809.786,453.041C810.478,452.914 811.026,452.773 811.428,452.617C811.831,452.462 812.216,452.236 812.584,451.939C813.177,451.473 813.721,450.83 814.215,450.01C814.71,449.191 815.113,448.279 815.424,447.276C815.65,446.499 815.858,445.987 816.049,445.74C816.24,445.492 816.519,445.369 816.886,445.369C817.282,445.369 817.571,445.531 817.755,445.856C817.84,446.012 817.882,446.322 817.882,446.789L817.882,455.415L809.786,455.415Z" style="fill:rgb(206,27,22);fill-rule:nonzero;stroke:black;stroke-width:0.71px;"/>
            </g>
            <g transform="matrix(0.996271,0.0862784,-0.0862784,0.996271,42.5534,-68.8452)">
                <path d="M827.968,428.938L836.509,428.938L842.401,453.842C842.514,454.28 842.642,454.668 842.783,455.007C842.91,455.276 843.193,455.495 843.631,455.664C843.998,455.82 844.252,455.975 844.394,456.13C844.535,456.286 844.606,456.498 844.606,456.766C844.606,457.501 844.055,457.868 842.953,457.868L832.377,457.868C831.953,457.868 831.614,457.766 831.359,457.561C831.105,457.356 830.978,457.084 830.978,456.745C830.978,456.463 831.034,456.251 831.147,456.109C831.26,455.968 831.515,455.791 831.91,455.579C832.193,455.438 832.391,455.283 832.504,455.113C832.617,454.944 832.673,454.732 832.673,454.477C832.673,454.237 832.652,454.025 832.61,453.842L831.931,450.768L826.018,450.768L826.59,448.246L831.338,448.246L827.438,431.015L827.968,428.938ZM826.506,434.322L827.587,438.709L823.835,452.4C823.722,452.796 823.666,453.163 823.666,453.502C823.666,454.393 824.082,455.028 824.916,455.41L825.658,455.749C826.124,455.961 826.357,456.314 826.357,456.809C826.357,457.515 825.842,457.868 824.81,457.868L819.427,457.868C818.904,457.868 818.491,457.759 818.187,457.54C817.883,457.321 817.731,457.021 817.731,456.639C817.731,456.229 818.042,455.89 818.664,455.622C819.243,455.368 819.671,455.138 819.946,454.933C820.222,454.728 820.487,454.449 820.741,454.096C821.136,453.517 821.461,452.746 821.716,451.786L826.506,434.322ZM827.968,420.884C828.83,420.884 829.568,421.192 830.183,421.806C830.798,422.421 831.105,423.159 831.105,424.021C831.105,424.883 830.798,425.621 830.183,426.236C829.568,426.851 828.83,427.158 827.968,427.158C827.106,427.158 826.368,426.851 825.753,426.236C825.139,425.621 824.831,424.883 824.831,424.021C824.831,423.159 825.139,422.421 825.753,421.806C826.368,421.192 827.106,420.884 827.968,420.884ZM836.043,420.884C836.905,420.884 837.643,421.192 838.258,421.806C838.873,422.421 839.18,423.159 839.18,424.021C839.18,424.883 838.873,425.621 838.258,426.236C837.643,426.851 836.905,427.158 836.043,427.158C835.181,427.158 834.443,426.851 833.828,426.236C833.214,425.621 832.906,424.883 832.906,424.021C832.906,423.159 833.214,422.421 833.828,421.806C834.443,421.192 835.181,420.884 836.043,420.884Z" style="fill:rgb(206,27,22);fill-rule:nonzero;stroke:black;stroke-width:0.71px;"/>
            </g>
            <g transform="matrix(0.997874,0.0651773,-0.0651773,0.997874,31.7904,-54.0663)">
                <path d="M857.85,431.27L857.85,460.201L847.867,460.201C847.359,460.201 846.967,460.105 846.691,459.915C846.416,459.724 846.278,459.452 846.278,459.099C846.278,458.519 846.56,458.138 847.126,457.954C847.592,457.799 847.864,457.703 847.942,457.668C848.019,457.633 848.1,457.551 848.185,457.424C848.355,457.198 848.44,456.838 848.44,456.343L848.44,435.128C848.44,434.633 848.355,434.273 848.185,434.047C848.1,433.92 848.019,433.838 847.942,433.803C847.864,433.768 847.592,433.672 847.126,433.517C846.56,433.333 846.278,432.952 846.278,432.373C846.278,432.019 846.416,431.747 846.691,431.557C846.967,431.366 847.359,431.27 847.867,431.27L857.85,431.27ZM864.441,445.216C865.713,445.471 866.691,445.718 867.377,445.958C868.062,446.198 868.68,446.502 869.231,446.869C870.178,447.477 870.902,448.279 871.404,449.275C871.905,450.271 872.156,451.384 872.156,452.613C872.156,455.029 871.266,456.916 869.486,458.272C868.567,458.978 867.553,459.477 866.444,459.766C865.335,460.056 863.883,460.201 862.089,460.201L859.567,460.201L859.567,457.975C860.132,457.933 860.577,457.852 860.902,457.732C861.227,457.611 861.516,457.41 861.771,457.128C862.237,456.605 862.47,455.792 862.47,454.69L862.47,449.879C862.47,449.173 862.41,448.622 862.29,448.226C862.17,447.83 861.947,447.47 861.622,447.145C861.382,446.891 861.121,446.707 860.838,446.594C860.556,446.481 860.153,446.389 859.63,446.318L859.63,444.114C860.153,444.072 860.559,444.001 860.849,443.902C861.139,443.803 861.403,443.641 861.644,443.415C861.87,443.203 862.06,442.927 862.216,442.588C862.371,442.249 862.456,441.938 862.47,441.656L862.47,436.823C862.47,436.442 862.407,436.043 862.279,435.626C862.152,435.209 861.997,434.881 861.813,434.64C861.545,434.315 861.244,434.075 860.912,433.92C860.58,433.764 860.132,433.658 859.567,433.602L859.567,431.27L862.004,431.27C865.225,431.27 867.684,431.935 869.38,433.263C870.157,433.87 870.75,434.605 871.16,435.467C871.57,436.329 871.775,437.261 871.775,438.265C871.775,439.254 871.566,440.186 871.149,441.062C870.732,441.938 870.15,442.666 869.401,443.245C868.85,443.697 868.214,444.065 867.493,444.347C866.773,444.63 865.755,444.92 864.441,445.216Z" style="fill:rgb(206,27,22);fill-rule:nonzero;stroke:black;stroke-width:0.71px;"/>
            </g>
            <g transform="matrix(0.998821,0.0485521,-0.0485521,0.998821,23.4634,-41.8661)">
                <path d="M887.398,462.044L876.844,462.044C876.335,462.044 875.943,461.949 875.667,461.758C875.392,461.568 875.254,461.296 875.254,460.942C875.254,460.363 875.537,459.981 876.102,459.798C876.568,459.642 876.84,459.547 876.918,459.512C876.996,459.476 877.077,459.395 877.162,459.268C877.331,459.042 877.416,458.682 877.416,458.187L877.416,436.972C877.416,436.477 877.331,436.117 877.162,435.891C877.077,435.763 876.996,435.682 876.918,435.647C876.84,435.612 876.568,435.516 876.102,435.361C875.537,435.177 875.254,434.796 875.254,434.216C875.254,433.863 875.392,433.591 875.667,433.4C875.943,433.21 876.335,433.114 876.844,433.114L887.398,433.114C887.907,433.114 888.299,433.21 888.575,433.4C888.85,433.591 888.988,433.863 888.988,434.216C888.988,434.796 888.705,435.177 888.14,435.361C887.674,435.516 887.402,435.612 887.324,435.647C887.247,435.682 887.165,435.763 887.081,435.891C886.911,436.117 886.826,436.477 886.826,436.972L886.826,458.187C886.826,458.682 886.911,459.042 887.081,459.268C887.165,459.395 887.247,459.476 887.324,459.512C887.402,459.547 887.674,459.642 888.14,459.798C888.705,459.981 888.988,460.363 888.988,460.942C888.988,461.296 888.85,461.568 888.575,461.758C888.299,461.949 887.907,462.044 887.398,462.044Z" style="fill:rgb(206,27,22);fill-rule:nonzero;stroke:black;stroke-width:0.71px;"/>
            </g>
            <g transform="matrix(0.999304,0.0373101,-0.0373101,0.999304,17.89,-32.9106)">
                <path d="M898.054,433.349C899.298,433.349 900.322,433.844 901.127,434.833C901.933,435.822 902.336,437.079 902.336,438.605C902.336,439.241 902.258,439.902 902.102,440.587C901.947,441.272 901.643,442.314 901.191,443.713C900.541,445.691 900.085,447.27 899.824,448.45C899.563,449.63 899.404,450.785 899.347,451.915C899.319,452.495 899.209,452.904 899.019,453.145C898.828,453.385 898.521,453.505 898.097,453.505C897.729,453.505 897.457,453.402 897.281,453.198C897.104,452.993 897.002,452.657 896.973,452.191C896.889,451.244 896.818,450.577 896.761,450.188C896.705,449.799 896.571,449.195 896.359,448.376C896.02,447.048 895.582,445.621 895.045,444.095C894.409,442.3 894.01,441.071 893.847,440.407C893.685,439.743 893.604,439.015 893.604,438.224C893.604,436.952 893.992,435.836 894.769,434.875C895.575,433.858 896.67,433.349 898.054,433.349ZM897.948,455.2C899.079,455.2 900.047,455.603 900.852,456.408C901.657,457.214 902.06,458.182 902.06,459.312C902.06,460.457 901.657,461.432 900.852,462.237C900.047,463.042 899.079,463.445 897.948,463.445C896.804,463.445 895.829,463.042 895.024,462.237C894.218,461.432 893.815,460.457 893.815,459.312C893.815,458.182 894.218,457.214 895.024,456.408C895.829,455.603 896.804,455.2 897.948,455.2Z" style="fill:rgb(206,27,22);fill-rule:nonzero;stroke:black;stroke-width:0.71px;"/>
            </g>
            <g transform="matrix(0.999912,0.0132979,-0.0132979,0.999912,6.24856,-12.1422)">
                <path d="M930.502,463.8L919.947,463.8C919.439,463.8 919.047,463.704 918.771,463.514C918.496,463.323 918.358,463.051 918.358,462.698C918.358,462.118 918.64,461.737 919.206,461.553C919.672,461.398 919.944,461.302 920.022,461.267C920.099,461.232 920.18,461.15 920.265,461.023C920.435,460.797 920.52,460.437 920.52,459.942L920.52,438.727C920.52,438.232 920.435,437.872 920.265,437.646C920.18,437.519 920.099,437.437 920.022,437.402C919.944,437.367 919.672,437.271 919.206,437.116C918.64,436.932 918.358,436.551 918.358,435.972C918.358,435.618 918.496,435.346 918.771,435.156C919.047,434.965 919.439,434.869 919.947,434.869L930.502,434.869C931.011,434.869 931.403,434.965 931.678,435.156C931.954,435.346 932.092,435.618 932.092,435.972C932.092,436.551 931.809,436.932 931.244,437.116C930.778,437.271 930.506,437.367 930.428,437.402C930.35,437.437 930.269,437.519 930.184,437.646C930.015,437.872 929.93,438.232 929.93,438.727L929.93,459.942C929.93,460.734 930.135,461.2 930.545,461.341L931.202,461.553C931.738,461.723 932.007,462.104 932.007,462.698C932.007,463.432 931.505,463.8 930.502,463.8ZM938.344,443.262L944.745,460.006C944.914,460.458 945.091,460.801 945.275,461.034C945.458,461.267 945.698,461.447 945.995,461.574C946.292,461.716 946.483,461.822 946.567,461.892C946.765,462.09 946.864,462.351 946.864,462.676C946.864,463.425 946.334,463.8 945.275,463.8L934.614,463.8C934.105,463.8 933.713,463.694 933.438,463.482C933.162,463.27 933.024,462.966 933.024,462.57C933.024,462.118 933.286,461.765 933.808,461.511C934.133,461.355 934.352,461.225 934.465,461.119C934.579,461.013 934.642,460.868 934.656,460.684C934.656,460.585 934.6,460.359 934.487,460.006L931.774,451.91C931.519,451.161 931.392,450.525 931.392,450.002C931.392,449.508 931.597,448.971 932.007,448.391L937.072,441.249C937.553,440.585 937.793,439.892 937.793,439.172C937.793,438.776 937.687,438.409 937.475,438.07C937.263,437.731 936.981,437.49 936.627,437.349L935.864,437.031C935.384,436.833 935.144,436.501 935.144,436.035C935.144,435.654 935.292,435.343 935.589,435.103C935.787,434.947 936.112,434.869 936.564,434.869L944.109,434.869C944.603,434.869 944.988,434.979 945.264,435.198C945.54,435.417 945.677,435.724 945.677,436.12C945.677,436.713 945.352,437.137 944.702,437.392L943.579,437.837C943.113,438.006 942.519,438.388 941.799,438.981C941.262,439.433 940.598,440.189 939.806,441.249L938.344,443.262Z" style="fill:rgb(206,27,22);fill-rule:nonzero;stroke:black;stroke-width:0.71px;"/>
            </g>
            <g transform="matrix(0.999979,-0.00655514,0.00655514,0.999979,-3.02257,6.22462)">
                <path d="M960.942,436.993C960.222,437.247 959.713,437.594 959.416,438.032C959.12,438.47 958.971,439.113 958.971,439.96L958.971,458.908C958.971,460.151 959.141,461.027 959.48,461.536C959.748,461.96 960.236,462.264 960.942,462.447L960.942,464.779C957.806,464.525 955.178,463.345 953.058,461.239C950.303,458.498 948.925,454.676 948.925,449.773C948.925,447.315 949.289,445.093 950.017,443.108C950.744,441.122 951.822,439.437 953.249,438.053C954.337,436.993 955.51,436.188 956.767,435.637C958.025,435.086 959.416,434.775 960.942,434.704L960.942,436.993ZM962.68,436.993L962.68,434.704C964.206,434.775 965.602,435.086 966.866,435.637C968.131,436.188 969.307,436.993 970.395,438.053C973.277,440.865 974.719,444.771 974.719,449.773C974.719,454.676 973.341,458.498 970.586,461.239C968.466,463.359 965.831,464.539 962.68,464.779L962.68,462.447C963.048,462.363 963.334,462.253 963.539,462.119C963.744,461.985 963.931,461.79 964.1,461.536C964.482,460.957 964.673,460.081 964.673,458.908L964.673,439.96C964.673,439.211 964.545,438.618 964.291,438.18C964.122,437.883 963.92,437.65 963.687,437.481C963.454,437.311 963.118,437.149 962.68,436.993Z" style="fill:rgb(206,27,22);fill-rule:nonzero;stroke:black;stroke-width:0.72px;"/>
            </g>
            <g transform="matrix(0.999641,-0.0268043,0.0268043,0.999641,-12.088,26.316)">
                <path d="M988.871,435.117L988.871,460.021C988.871,460.572 988.977,460.968 989.189,461.208C989.302,461.349 989.408,461.437 989.507,461.473C989.606,461.508 989.931,461.596 990.482,461.738C991.16,461.893 991.499,462.282 991.499,462.903C991.499,463.271 991.315,463.567 990.948,463.793C990.68,463.963 990.235,464.048 989.613,464.048L978.888,464.048C978.38,464.048 977.988,463.952 977.712,463.762C977.437,463.571 977.299,463.299 977.299,462.946C977.299,462.366 977.582,461.985 978.147,461.801C978.613,461.646 978.885,461.55 978.963,461.515C979.04,461.48 979.122,461.398 979.206,461.271C979.376,461.045 979.461,460.685 979.461,460.19L979.461,438.975C979.461,438.48 979.376,438.12 979.206,437.894C979.122,437.767 979.04,437.686 978.963,437.65C978.885,437.615 978.613,437.52 978.147,437.364C977.582,437.18 977.299,436.799 977.299,436.22C977.299,435.866 977.437,435.594 977.712,435.404C977.988,435.213 978.38,435.117 978.888,435.117L988.871,435.117ZM995.378,449.869C996.678,450.067 997.677,450.286 998.377,450.526C999.076,450.766 999.708,451.091 1000.27,451.501C1000.87,451.939 1001.32,452.462 1001.64,453.069C1001.96,453.677 1002.12,454.32 1002.12,454.998L1002.12,459.385C1002.12,459.837 1002.27,460.063 1002.56,460.063C1002.68,460.063 1002.77,460.031 1002.85,459.968C1002.93,459.904 1003.04,459.781 1003.18,459.597C1003.53,459.117 1003.89,458.876 1004.26,458.876C1004.5,458.876 1004.74,459.004 1004.98,459.258C1005.22,459.512 1005.34,459.766 1005.34,460.021C1005.34,460.459 1005.13,460.992 1004.71,461.621C1004.3,462.25 1003.78,462.811 1003.16,463.306C1002.58,463.772 1001.95,464.108 1001.27,464.313C1000.59,464.518 999.793,464.62 998.875,464.62C997.01,464.62 995.554,464.087 994.509,463.02C993.463,461.953 992.94,460.466 992.94,458.558L992.94,454.998C992.94,454.207 992.933,453.747 992.919,453.62C992.848,453.055 992.651,452.567 992.326,452.158C991.916,451.663 991.33,451.374 990.567,451.289L990.567,449.021C991.33,448.908 991.874,448.71 992.199,448.428C992.481,448.173 992.675,447.884 992.781,447.559C992.887,447.234 992.94,446.753 992.94,446.117L992.94,440.501C992.94,439.611 992.767,438.947 992.421,438.509C992.075,438.071 991.45,437.724 990.545,437.47L990.545,435.117L991.096,435.117C992.665,435.117 994,435.174 995.102,435.287C996.741,435.442 998.204,435.979 999.489,436.898C1001.34,438.212 1002.27,440.084 1002.27,442.514C1002.27,444.507 1001.64,446.139 1000.4,447.41C999.878,447.947 999.267,448.385 998.567,448.724C997.868,449.063 996.805,449.445 995.378,449.869Z" style="fill:rgb(206,27,22);fill-rule:nonzero;stroke:black;stroke-width:0.72px;"/>
            </g>
            <g transform="matrix(0.998907,-0.0467365,0.0467365,0.998907,-20.5504,47.519)">
                <path d="M1018.8,436.013C1018.08,436.268 1017.57,436.614 1017.27,437.052C1016.98,437.49 1016.83,438.133 1016.83,438.98L1016.83,457.928C1016.83,459.172 1017,460.048 1017.34,460.556C1017.61,460.98 1018.09,461.284 1018.8,461.468L1018.8,463.799C1015.66,463.545 1013.03,462.365 1010.92,460.26C1008.16,457.518 1006.78,453.696 1006.78,448.793C1006.78,446.335 1007.15,444.113 1007.87,442.128C1008.6,440.143 1009.68,438.458 1011.11,437.073C1012.19,436.013 1013.37,435.208 1014.62,434.657C1015.88,434.106 1017.27,433.795 1018.8,433.724L1018.8,436.013ZM1020.54,436.013L1020.54,433.724C1022.06,433.795 1023.46,434.106 1024.72,434.657C1025.99,435.208 1027.16,436.013 1028.25,437.073C1031.13,439.885 1032.58,443.792 1032.58,448.793C1032.58,453.696 1031.2,457.518 1028.44,460.26C1026.32,462.379 1023.69,463.559 1020.54,463.799L1020.54,461.468C1020.9,461.383 1021.19,461.273 1021.39,461.139C1021.6,461.005 1021.79,460.811 1021.96,460.556C1022.34,459.977 1022.53,459.101 1022.53,457.928L1022.53,438.98C1022.53,438.232 1022.4,437.638 1022.15,437.2C1021.98,436.903 1021.78,436.67 1021.54,436.501C1021.31,436.331 1020.98,436.169 1020.54,436.013Z" style="fill:rgb(206,27,22);fill-rule:nonzero;stroke:black;stroke-width:0.72px;"/>
            </g>
            <g transform="matrix(0.997773,-0.0666987,0.0666987,0.997773,-28.5094,69.9591)">
                <path d="M1046.35,434.726C1045.62,434.98 1045.12,435.326 1044.82,435.764C1044.52,436.202 1044.38,436.845 1044.38,437.693L1044.38,456.64C1044.38,457.884 1044.54,458.76 1044.88,459.269C1045.15,459.692 1045.64,459.996 1046.35,460.18L1046.35,462.511C1043.21,462.257 1040.58,461.077 1038.46,458.972C1035.71,456.231 1034.33,452.409 1034.33,447.506C1034.33,445.047 1034.69,442.825 1035.42,440.84C1036.15,438.855 1037.22,437.17 1038.65,435.785C1039.74,434.726 1040.91,433.92 1042.17,433.369C1043.43,432.818 1044.82,432.507 1046.35,432.437L1046.35,434.726ZM1048.08,434.726L1048.08,432.437C1049.61,432.507 1051.01,432.818 1052.27,433.369C1053.53,433.92 1054.71,434.726 1055.8,435.785C1058.68,438.597 1060.12,442.504 1060.12,447.506C1060.12,452.409 1058.75,456.231 1055.99,458.972C1053.87,461.091 1051.24,462.271 1048.08,462.511L1048.08,460.18C1048.45,460.095 1048.74,459.986 1048.94,459.851C1049.15,459.717 1049.33,459.523 1049.5,459.269C1049.88,458.689 1050.08,457.813 1050.08,456.64L1050.08,437.693C1050.08,436.944 1049.95,436.35 1049.69,435.912C1049.53,435.616 1049.32,435.383 1049.09,435.213C1048.86,435.043 1048.52,434.881 1048.08,434.726Z" style="fill:rgb(206,27,22);fill-rule:nonzero;stroke:black;stroke-width:0.72px;"/>
            </g>
            <g transform="matrix(0.99609,-0.088348,0.088348,0.99609,-36.5019,95.5309)">
                <path d="M1074.67,431.188L1085.95,450.771L1085.95,460.118L1080.16,460.118L1065.77,435.321C1065.46,434.784 1065.2,434.409 1065.01,434.198C1064.81,433.986 1064.55,433.83 1064.24,433.731L1063.44,433.435C1063.22,433.364 1063.06,433.237 1062.93,433.053C1062.8,432.869 1062.74,432.664 1062.74,432.438C1062.74,432.198 1062.8,431.976 1062.93,431.771C1063.06,431.566 1063.22,431.421 1063.44,431.336C1063.68,431.237 1064.33,431.188 1065.39,431.188L1074.67,431.188ZM1065.79,438.627L1068.04,442.357L1068.04,453.717C1068.04,454.707 1068.2,455.519 1068.53,456.155C1068.87,456.791 1069.39,457.313 1070.11,457.723L1070.75,458.084C1071.12,458.295 1071.3,458.613 1071.3,459.037C1071.3,459.362 1071.17,459.631 1070.9,459.843C1070.67,460.026 1070.2,460.118 1069.5,460.118L1064.6,460.118C1063.32,460.118 1062.67,459.751 1062.67,459.016C1062.67,458.762 1062.74,458.56 1062.88,458.412C1063.01,458.264 1063.3,458.062 1063.76,457.808C1065.11,457.059 1065.79,455.696 1065.79,453.717L1065.79,438.627ZM1085.95,447.38L1083.7,443.587L1083.7,437.716C1083.7,436.529 1083.53,435.621 1083.18,434.992C1082.83,434.364 1082.22,433.823 1081.35,433.371C1081.05,433.23 1080.85,433.078 1080.73,432.915C1080.62,432.753 1080.56,432.544 1080.56,432.29C1080.56,431.909 1080.69,431.629 1080.93,431.453C1081.18,431.276 1081.58,431.188 1082.13,431.188L1087.43,431.188C1088.15,431.188 1088.62,431.301 1088.85,431.527C1089.09,431.753 1089.21,432.022 1089.21,432.332C1089.21,432.629 1089.14,432.852 1089.01,433C1088.87,433.148 1088.55,433.35 1088.04,433.604C1087.3,433.986 1086.73,434.572 1086.35,435.363C1086.08,435.943 1085.95,436.727 1085.95,437.716L1085.95,447.38Z" style="fill:rgb(206,27,22);fill-rule:nonzero;stroke:black;stroke-width:0.72px;"/>
            </g>
            <g transform="matrix(0.993925,-0.110058,0.110058,0.993925,-43.7356,122.731)">
                <path d="M1100.13,428.615L1108.67,428.615L1114.56,453.519C1114.68,453.957 1114.8,454.345 1114.94,454.685C1115.07,454.953 1115.35,455.172 1115.79,455.342C1116.16,455.497 1116.41,455.652 1116.56,455.808C1116.7,455.963 1116.77,456.175 1116.77,456.444C1116.77,457.178 1116.22,457.546 1115.11,457.546L1104.54,457.546C1104.11,457.546 1103.78,457.443 1103.52,457.238C1103.27,457.034 1103.14,456.762 1103.14,456.422C1103.14,456.14 1103.19,455.928 1103.31,455.787C1103.42,455.645 1103.68,455.469 1104.07,455.257C1104.35,455.115 1104.55,454.96 1104.66,454.79C1104.78,454.621 1104.83,454.409 1104.83,454.155C1104.83,453.914 1104.81,453.703 1104.77,453.519L1104.09,450.446L1098.18,450.446L1098.75,447.924L1103.5,447.924L1099.6,430.693L1100.13,428.615ZM1098.67,433.999L1099.75,438.386L1096,452.078C1095.88,452.473 1095.83,452.841 1095.83,453.18C1095.83,454.07 1096.24,454.706 1097.08,455.087L1097.82,455.426C1098.29,455.638 1098.52,455.992 1098.52,456.486C1098.52,457.193 1098,457.546 1096.97,457.546L1091.59,457.546C1091.07,457.546 1090.65,457.436 1090.35,457.217C1090.04,456.998 1089.89,456.698 1089.89,456.316C1089.89,455.907 1090.2,455.568 1090.83,455.299C1091.4,455.045 1091.83,454.815 1092.11,454.61C1092.38,454.405 1092.65,454.126 1092.9,453.773C1093.3,453.194 1093.62,452.424 1093.88,451.463L1098.67,433.999Z" style="fill:rgb(206,27,22);fill-rule:nonzero;stroke:black;stroke-width:0.72px;"/>
            </g>
            <g transform="matrix(0.989886,-0.141865,0.141865,0.989886,-52.8938,164.524)">
                <path d="M1145,445.804L1142.99,453.222L1137.41,453.222L1129.87,427.895C1129.75,427.514 1129.65,427.256 1129.55,427.121C1129.45,426.987 1129.29,426.871 1129.08,426.772C1128.63,426.588 1128.33,426.419 1128.19,426.263C1128.05,426.108 1127.98,425.875 1127.98,425.564C1127.98,425.14 1128.17,424.808 1128.55,424.568C1128.85,424.384 1129.34,424.292 1130.02,424.292L1139.45,424.292C1140.04,424.292 1140.45,424.306 1140.66,424.334C1140.88,424.363 1141.06,424.419 1141.2,424.504C1141.35,424.603 1141.47,424.744 1141.57,424.928C1141.66,425.112 1141.71,425.288 1141.71,425.458C1141.71,425.98 1141.47,426.355 1140.97,426.581C1140.61,426.765 1140.35,426.952 1140.22,427.143C1140.09,427.333 1140.02,427.605 1140.02,427.959C1140.02,428.185 1140.04,428.383 1140.08,428.552L1145,445.804ZM1145.8,442.773L1144.68,438.789L1147.12,429.866C1147.27,429.301 1147.36,428.955 1147.37,428.828C1147.4,428.517 1147.33,428.171 1147.16,427.789C1146.93,427.295 1146.58,426.97 1146.1,426.814L1145.4,426.56C1144.85,426.376 1144.58,426.016 1144.58,425.479C1144.58,425.097 1144.73,424.804 1145.04,424.599C1145.35,424.394 1145.78,424.292 1146.33,424.292L1151.53,424.292C1152.18,424.292 1152.6,424.356 1152.8,424.483C1153.14,424.695 1153.31,424.998 1153.31,425.394C1153.31,425.663 1153.25,425.875 1153.15,426.03C1153.04,426.185 1152.85,426.327 1152.57,426.454L1151.48,426.963C1151.03,427.174 1150.6,427.595 1150.18,428.224C1149.76,428.852 1149.44,429.569 1149.22,430.375L1145.8,442.773Z" style="fill:rgb(206,27,22);fill-rule:nonzero;stroke:black;stroke-width:0.72px;"/>
            </g>
            <g transform="matrix(0.986036,-0.166533,0.166533,0.986036,-58.7539,198.35)">
                <path d="M1166.25,422.304C1165.53,422.558 1165.02,422.904 1164.72,423.343C1164.42,423.781 1164.28,424.423 1164.28,425.271L1164.28,444.219C1164.28,445.462 1164.44,446.338 1164.78,446.847C1165.05,447.271 1165.54,447.575 1166.25,447.758L1166.25,450.09C1163.11,449.835 1160.48,448.656 1158.36,446.55C1155.61,443.809 1154.23,439.987 1154.23,435.084C1154.23,432.626 1154.59,430.404 1155.32,428.419C1156.05,426.433 1157.13,424.748 1158.55,423.364C1159.64,422.304 1160.81,421.499 1162.07,420.948C1163.33,420.396 1164.72,420.086 1166.25,420.015L1166.25,422.304ZM1167.98,422.304L1167.98,420.015C1169.51,420.086 1170.91,420.396 1172.17,420.948C1173.43,421.499 1174.61,422.304 1175.7,423.364C1178.58,426.175 1180.02,430.082 1180.02,435.084C1180.02,439.987 1178.64,443.809 1175.89,446.55C1173.77,448.67 1171.13,449.85 1167.98,450.09L1167.98,447.758C1168.35,447.674 1168.64,447.564 1168.84,447.43C1169.05,447.296 1169.24,447.101 1169.4,446.847C1169.79,446.268 1169.98,445.392 1169.98,444.219L1169.98,425.271C1169.98,424.522 1169.85,423.929 1169.6,423.491C1169.43,423.194 1169.22,422.961 1168.99,422.791C1168.76,422.622 1168.42,422.459 1167.98,422.304ZM1164.57,412.576C1165.04,412.576 1165.51,412.661 1165.99,412.83C1166.47,413 1167.16,413.318 1168.05,413.784C1169.36,414.462 1170.39,414.801 1171.14,414.801C1171.44,414.801 1171.69,414.702 1171.88,414.504C1172.08,414.307 1172.24,413.996 1172.35,413.572C1172.43,413.261 1172.53,413.046 1172.64,412.925C1172.74,412.805 1172.88,412.745 1173.05,412.745C1173.39,412.745 1173.63,412.827 1173.78,412.989C1173.93,413.152 1174,413.424 1174,413.805C1174,414.738 1173.72,415.705 1173.16,416.709C1172.36,418.136 1171.21,418.849 1169.68,418.849C1169.23,418.849 1168.78,418.786 1168.32,418.659C1167.87,418.531 1167.29,418.298 1166.59,417.959L1165.16,417.281C1164.23,416.843 1163.56,416.624 1163.15,416.624C1162.59,416.624 1162.16,417.012 1161.88,417.79C1161.77,418.129 1161.66,418.351 1161.57,418.457C1161.48,418.563 1161.35,418.616 1161.18,418.616C1160.56,418.616 1160.25,418.242 1160.25,417.493C1160.25,417.055 1160.35,416.532 1160.57,415.924C1160.78,415.317 1161.04,414.787 1161.35,414.335C1162.14,413.162 1163.22,412.576 1164.57,412.576Z" style="fill:rgb(206,27,22);fill-rule:nonzero;stroke:black;stroke-width:0.72px;"/>
            </g>
            <g transform="matrix(0.982003,-0.188865,0.188865,0.982003,-62.7768,230.96)">
                <path d="M1194.38,444.879L1183.82,444.879C1183.31,444.879 1182.92,444.784 1182.64,444.593C1182.37,444.402 1182.23,444.13 1182.23,443.777C1182.23,443.198 1182.51,442.816 1183.08,442.633C1183.55,442.477 1183.82,442.382 1183.89,442.346C1183.97,442.311 1184.05,442.23 1184.14,442.103C1184.31,441.877 1184.39,441.516 1184.39,441.022L1184.39,419.806C1184.39,419.312 1184.31,418.951 1184.14,418.725C1184.05,418.598 1183.97,418.517 1183.89,418.482C1183.82,418.446 1183.55,418.351 1183.08,418.196C1182.51,418.012 1182.23,417.63 1182.23,417.051C1182.23,416.698 1182.37,416.426 1182.64,416.235C1182.92,416.044 1183.31,415.949 1183.82,415.949L1194.38,415.949C1194.88,415.949 1195.28,416.044 1195.55,416.235C1195.83,416.426 1195.96,416.698 1195.96,417.051C1195.96,417.63 1195.68,418.012 1195.12,418.196C1194.65,418.351 1194.38,418.446 1194.3,418.482C1194.22,418.517 1194.14,418.598 1194.06,418.725C1193.89,418.951 1193.8,419.312 1193.8,419.806L1193.8,441.022C1193.8,441.516 1193.89,441.877 1194.06,442.103C1194.14,442.23 1194.22,442.311 1194.3,442.346C1194.38,442.382 1194.65,442.477 1195.12,442.633C1195.68,442.816 1195.96,443.198 1195.96,443.777C1195.96,444.13 1195.83,444.402 1195.55,444.593C1195.28,444.784 1194.88,444.879 1194.38,444.879Z" style="fill:rgb(206,27,22);fill-rule:nonzero;stroke:black;stroke-width:0.72px;"/>
            </g>
            <g transform="matrix(0.977245,-0.212112,0.212112,0.977245,-66.4434,264.022)">
                <path d="M1214.92,412.764L1214.92,437.667C1214.92,438.218 1215.02,438.614 1215.24,438.854C1215.35,438.995 1215.45,439.084 1215.55,439.119C1215.65,439.154 1215.98,439.242 1216.53,439.384C1217.21,439.539 1217.55,439.928 1217.55,440.549C1217.55,440.917 1217.36,441.214 1217,441.44C1216.73,441.609 1216.27,441.694 1215.64,441.694L1204.79,441.694C1204.16,441.694 1203.7,441.599 1203.38,441.408C1203.06,441.217 1202.9,440.931 1202.9,440.549C1202.9,439.928 1203.24,439.539 1203.92,439.384C1204.47,439.242 1204.79,439.154 1204.89,439.119C1204.99,439.084 1205.09,438.995 1205.19,438.854C1205.4,438.614 1205.51,438.218 1205.51,437.667L1205.51,412.764L1214.92,412.764ZM1222.25,412.764L1222.25,421.432C1222.25,421.842 1222.13,422.174 1221.9,422.428C1221.67,422.683 1221.37,422.81 1221,422.81C1220.65,422.81 1220.35,422.693 1220.12,422.46C1219.89,422.227 1219.74,421.906 1219.67,421.496L1219.45,420.203C1219.24,418.889 1218.83,417.751 1218.22,416.791C1217.84,416.197 1217.33,415.71 1216.68,415.328L1216.68,412.764L1222.25,412.764ZM1198.22,412.764L1203.79,412.764L1203.79,415.328C1203.13,415.71 1202.61,416.197 1202.24,416.791C1201.64,417.751 1201.23,418.889 1201.02,420.203L1200.8,421.496C1200.73,421.906 1200.58,422.227 1200.35,422.46C1200.11,422.693 1199.82,422.81 1199.47,422.81C1199.1,422.81 1198.8,422.683 1198.57,422.428C1198.33,422.174 1198.22,421.842 1198.22,421.432L1198.22,412.764Z" style="fill:rgb(206,27,22);fill-rule:nonzero;stroke:black;stroke-width:0.72px;"/>
            </g>
            <g transform="matrix(0.971724,-0.236119,0.236119,0.971724,-68.4124,301.01)">
                <path d="M1229.93,406.622C1231.17,406.622 1232.2,407.117 1233,408.106C1233.81,409.095 1234.21,410.352 1234.21,411.878C1234.21,412.514 1234.13,413.175 1233.98,413.86C1233.82,414.545 1233.52,415.587 1233.07,416.986C1232.42,418.964 1231.96,420.543 1231.7,421.723C1231.44,422.903 1231.28,424.058 1231.22,425.189C1231.19,425.768 1231.09,426.178 1230.89,426.418C1230.7,426.658 1230.4,426.778 1229.97,426.778C1229.6,426.778 1229.33,426.676 1229.16,426.471C1228.98,426.266 1228.88,425.93 1228.85,425.464C1228.76,424.517 1228.69,423.85 1228.64,423.461C1228.58,423.073 1228.45,422.469 1228.23,421.649C1227.89,420.321 1227.46,418.894 1226.92,417.368C1226.28,415.573 1225.88,414.344 1225.72,413.68C1225.56,413.016 1225.48,412.288 1225.48,411.497C1225.48,410.225 1225.87,409.109 1226.64,408.148C1227.45,407.131 1228.55,406.622 1229.93,406.622ZM1229.82,428.474C1230.95,428.474 1231.92,428.876 1232.73,429.682C1233.53,430.487 1233.93,431.455 1233.93,432.585C1233.93,433.73 1233.53,434.705 1232.73,435.51C1231.92,436.316 1230.95,436.718 1229.82,436.718C1228.68,436.718 1227.7,436.316 1226.9,435.51C1226.09,434.705 1225.69,433.73 1225.69,432.585C1225.69,431.455 1226.09,430.487 1226.9,429.682C1227.7,428.876 1228.68,428.474 1229.82,428.474Z" style="fill:rgb(206,27,22);fill-rule:nonzero;stroke:black;stroke-width:0.73px;"/>
            </g>
        </g>
    </g>
</svg>
