<?xml version="1.0" encoding="UTF-8" standalone="no"?><!DOCTYPE svg PUBLIC "-//W3C//DTD SVG 1.1//EN" "http://www.w3.org/Graphics/SVG/1.1/DTD/svg11.dtd"><svg width="562px" height="200px" version="1.1" xmlns="http://www.w3.org/2000/svg" xmlns:xlink="http://www.w3.org/1999/xlink" xml:space="preserve" xmlns:serif="http://www.serif.com/" style="fill-rule:evenodd;clip-rule:evenodd;stroke-linecap:round;stroke-linejoin:round;stroke-miterlimit:1.5;"><path d="M561.384,50c0,-27.596 -22.404,-50 -50,-50l-461.384,0c-27.596,0 -50,22.404 -50,50l0,100c0,27.596 22.404,50 50,50l461.384,0c27.596,0 50,-22.404 50,-50l0,-100Z" style="fill-opacity:0;"/><clipPath id="_clip1"><path d="M561.384,50c0,-27.596 -22.404,-50 -50,-50l-461.384,0c-27.596,0 -50,22.404 -50,50l0,100c0,27.596 22.404,50 50,50l461.384,0c27.596,0 50,-22.404 50,-50l0,-100Z"/></clipPath><g clip-path="url(#_clip1)"><g id="mängu-logo" serif:id="mängu logo"><g id="lennuk"><path d="M280.697,163.653c11.591,0.454 26.987,-6.768 26.987,-6.768l2.521,-5.362l22.487,-5.806c0,0 23.781,-6.521 24.162,-4.918c0.382,1.603 1.163,3.765 1.892,4.022c0.729,0.256 2.483,1.207 3.782,-0.671c1.299,-1.877 0,-5.362 0,-5.362l6.304,-1.34c-0,-0 0.069,3.215 -0,3.351c-2.953,3.151 -7.652,6.455 -8.826,16.086c1.907,26.561 20.415,21.303 22.695,20.778c2.279,-0.525 16.195,-7.587 13.238,-26.81c-4.717,-13.54 -15.129,-13.405 -15.129,-13.405l-0,-2.011c-0,-0 11.251,-2.494 17.651,-3.351c0.727,2.885 0.576,5.043 4.412,4.691c3.837,-0.351 5.674,-6.702 5.674,-6.702c-0,-0 45.092,-9.803 45.388,-8.713c0.297,1.089 -0.087,3.956 3.668,3.346c3.755,-0.61 4.528,-6.028 4.528,-6.028c53.559,-11.406 89.516,-28.15 89.516,-28.15c-0,-0 -1.506,-1.456 -1.261,-0.671c-55.361,17.628 -68.713,19.438 -68.713,19.438l-44.128,9.383l-26.476,4.692l-35.303,5.362l-63.039,4.692l1.891,-4.021l44.128,-9.384l0.63,-2.011l1.261,0l-0,-1.34c-0,-0 -44.613,6.866 -44.758,6.032c-0.146,-0.834 0.928,-12.862 -0.631,-16.756c-1.558,-3.895 -0.788,-7.972 -9.456,-16.757c-8.667,-8.785 -23.324,-10.054 -23.324,-10.054l-1.261,-54.291l-1.261,0l-1.261,54.291c0,0 -14.657,1.269 -23.324,10.054c-8.668,8.785 -7.898,12.862 -9.456,16.757c-1.559,3.894 -0.485,15.922 -0.631,16.756c-0.145,0.834 -44.758,-6.032 -44.758,-6.032l0,1.34l1.261,0l0.631,2.011l44.127,9.384l1.891,4.021l-63.039,-4.692l-35.302,-5.362l-26.477,-4.692l-44.128,-9.383c0,-0 -13.352,-1.81 -68.713,-19.438c0.246,-0.785 -1.261,0.671 -1.261,0.671c0,-0 35.957,16.744 89.517,28.15c-0,0 0.772,5.418 4.527,6.028c3.755,0.61 3.372,-2.257 3.668,-3.346c0.296,-1.09 45.388,8.713 45.388,8.713c0,-0 1.837,6.351 5.674,6.702c3.836,0.352 3.685,-1.806 4.413,-4.691c6.399,0.857 17.651,3.351 17.651,3.351l-0,2.011c-0,-0 -10.413,-0.135 -15.13,13.405c-2.957,19.223 9.698,25.615 13.238,26.81c2.224,0.751 22.049,3.102 22.695,-20.778c-1.174,-9.631 -5.872,-12.935 -8.826,-16.086c-0.069,-0.136 0,-3.351 0,-3.351l6.304,1.34c0,0 -1.299,3.485 0,5.362c1.299,1.878 3.054,0.927 3.783,0.671c0.728,-0.257 1.509,-2.419 1.891,-4.022c0.381,-1.603 24.162,4.918 24.162,4.918l22.487,5.806l2.522,5.362c-0,0 14.375,7.222 27.227,6.768Z" style="fill:#fff;stroke:#000;stroke-width:1.8px;"/><path d="M278.685,79.135l1.261,-54.291l1.261,0l1.261,54.291l-3.783,0Z" style="fill:#000100;stroke:#000;stroke-width:1.8px;"/><path d="M266.708,100.583l12.608,0.671l-0,9.383l-2.616,0.785l-13.98,0.61l3.988,-11.449Z" style="fill:#000100;stroke:#000;stroke-width:1.8px;"/><path d="M295.076,100.583l-12.608,0.671l-0,9.383l2.615,0.785l13.98,0.61l-3.987,-11.449Z" style="fill:#000100;stroke:#000;stroke-width:1.8px;"/><path d="M253.47,103.935l3.782,-2.681c-0,-0 -4.255,9.338 -4.413,12.735c-2.311,-0.892 -2.521,-2.011 -2.521,-2.011l3.152,-8.043Z" style="fill:#000100;stroke:#000;stroke-width:1.8px;"/><path d="M308.314,103.935l-3.782,-2.681c-0,-0 4.254,9.338 4.412,12.735c2.312,-0.892 2.522,-2.011 2.522,-2.011l-3.152,-8.043Z" style="fill:#000100;stroke:#000;stroke-width:1.8px;"/><path d="M259.143,101.254l5.674,-0c-0,-0 -3.618,9.136 -3.783,10.054c-0.164,0.917 -1.844,-0.643 -6.934,2.681c2.447,-7.705 5.076,-13.078 5.043,-12.735Z" style="fill:#000100;stroke:#000;stroke-width:1.8px;"/><path d="M302.64,101.254l-5.673,-0c-0,-0 3.618,9.136 3.782,10.054c0.165,0.917 1.845,-0.643 6.935,2.681c-2.447,-7.705 -5.077,-13.078 -5.044,-12.735Z" style="fill:#000100;stroke:#000;stroke-width:1.8px;"/><path d="M245.881,122.715l1.285,6.69l-44.733,-9.384l-0.639,-2.011l-1.278,0l0,-1.34l45.365,6.045Z"/><path d="M315.272,122.715l-1.284,6.69l44.732,-9.384l0.639,-2.011l1.278,0l-0,-1.34l-45.365,6.045Z"/><ellipse cx="378.603" cy="158.273" rx="19.542" ry="22.166" style="fill:#fff;stroke:#000;stroke-width:1.8px;"/><ellipse cx="378.603" cy="158.226" rx="13.554" ry="16.086"/><ellipse cx="378.288" cy="157.556" rx="5.043" ry="5.362" style="fill:#0071cd;stroke:#000;stroke-width:1.8px;"/><ellipse cx="182.865" cy="158.273" rx="19.542" ry="22.166" style="fill:#fff;stroke:#000;stroke-width:1.8px;"/><ellipse cx="183.18" cy="158.226" rx="13.554" ry="16.086"/><ellipse cx="183.496" cy="157.556" rx="5.043" ry="5.362" style="fill:#0071cd;stroke:#000;stroke-width:1.8px;"/></g><g id="mask"><path d="M280.547,169.62c2.563,0.793 6.615,-1.902 9.456,-3.351c2.615,-1.008 17.758,-13.633 18.281,-14.746c0.523,-1.113 0.63,-3.351 0.63,-3.351c0,-0 0.88,0.251 1.892,-0c0.071,-1.137 -0.02,-1.968 1.26,-4.692c1.281,-2.724 1.641,-4.706 1.892,-7.373c0.251,-2.666 -1.138,-4.763 -1.892,-6.702c-0.753,-1.939 0,-9.384 0,-9.384c0,-0 -12.023,-0.876 -22.694,-2.681c-3.161,-2.581 -8.825,-2.681 -8.825,-2.681l0.03,-0c-0,-0 -5.665,0.1 -8.826,2.681c-10.671,1.805 -22.694,2.681 -22.694,2.681c-0,-0 0.753,7.445 -0,9.384c-0.754,1.939 -2.142,4.036 -1.891,6.702c0.251,2.667 0.611,4.649 1.891,7.373c1.28,2.724 1.189,3.555 1.261,4.692c1.011,0.251 1.891,-0 1.891,-0c-0,-0 0.108,2.238 0.63,3.351c0.523,1.113 15.666,13.738 18.282,14.746c2.841,1.449 6.892,4.144 9.456,3.351" style="fill:#0e4d82;stroke:#000;stroke-width:1.8px;"/><path d="M251.578,124.713l20.803,-2.681c0,-0 5.148,-2.01 8.196,-2.011c3.612,-0.001 7.564,2.011 7.564,2.011l20.803,2.681" style="fill:none;stroke:#000;stroke-width:1.8px;"/><path d="M250.948,136.777c-0,0 21.636,-4.113 28.998,-4.021c7.382,0.092 28.368,4.021 28.368,4.021" style="fill:none;stroke:#000;stroke-width:1.8px;"/><path d="M251.578,142.81c0,-0 2.148,0.9 4.413,1.34c2.265,0.441 22.388,3.559 24.586,3.352c2.219,0.141 21.69,-2.911 23.955,-3.352c2.264,-0.44 4.412,-1.34 4.412,-1.34" style="fill:none;stroke:#000;stroke-width:1.8px;"/><path d="M254.1,148.842c-0,0 7.128,3.423 8.826,4.022c1.697,0.599 11.692,4.737 17.02,4.692c5.329,-0.045 -4.698,-0.045 0.631,-0c5.328,0.045 15.323,-4.093 17.02,-4.692c1.698,-0.599 8.826,-4.022 8.826,-4.022" style="fill:none;stroke:#000;stroke-width:1.8px;"/><path d="M249.151,121.064c-0,0 -1.608,-1.356 -3.877,-6.405c-0.111,-0.37 -0.712,-1.21 -1.26,-0c-0.784,4.367 -1.505,6.953 -0.631,12.735c0.874,5.782 4.136,9.603 3.783,9.383c-0.353,-0.219 0.63,-4.691 0.63,-4.691l1.891,-3.352l-0.536,-7.67Z" style="fill:none;stroke:#000;stroke-width:1.8px;"/><path d="M312.234,120.394c-0,0 1.607,-1.356 3.876,-6.405c0.111,-0.371 0.712,-1.211 1.261,-0c0.783,4.367 1.504,6.953 0.63,12.735c-0.874,5.782 -4.135,9.603 -3.782,9.383c0.353,-0.219 -0.631,-4.692 -0.631,-4.692l-1.891,-3.351l0.537,-7.67Z" style="fill:none;stroke:#000;stroke-width:1.8px;"/></g><g transform="matrix(1.35425,0,0,1.43989,-718.033,-259.959)"><g transform="matrix(0.969941,-0.243339,0.243339,0.969941,-41.4586,148.292)"><path d="M610.951,230.823l4.174,9.91c0.541,1.279 1.246,1.919 2.117,1.919l0.791,-0.02l8.268,0c1.82,0 2.73,0.62 2.73,1.86c0,0.909 -0.316,1.615 -0.949,2.116c-0.633,0.501 -1.537,0.752 -2.71,0.752l-9.119,-0c-2.506,-0 -4.247,-1.187 -5.223,-3.561l-5.717,-13.768l-2.65,6.528c-1.266,3.126 -2.166,5.239 -2.7,6.34c-0.535,1.101 -1.151,2.12 -1.85,3.056c-2.519,3.403 -5.69,5.104 -9.515,5.104c-2.782,-0 -5.037,-0.87 -6.765,-2.611c-1.728,-1.741 -2.591,-4.022 -2.591,-6.845c-0,-3.679 1.358,-6.916 4.075,-9.712c1.463,-1.49 3.296,-2.694 5.499,-3.61c2.202,-0.917 4.385,-1.375 6.547,-1.375c1.029,-0 1.863,0.234 2.503,0.702c0.639,0.468 0.959,1.078 0.959,1.83c0,0.818 -0.343,1.47 -1.028,1.958c-0.396,0.277 -1.161,0.475 -2.295,0.594c-2.638,0.237 -4.754,0.837 -6.35,1.8c-1.345,0.817 -2.407,1.872 -3.185,3.165c-0.778,1.292 -1.167,2.644 -1.167,4.055c0,1.49 0.379,2.667 1.138,3.531c0.758,0.864 1.79,1.296 3.095,1.296c1.609,-0 3.004,-0.68 4.184,-2.038c1.18,-1.358 2.476,-3.771 3.887,-7.24l6.845,-16.873l-2.038,-0c-1.82,-0 -2.73,-0.627 -2.73,-1.88c0,-0.91 0.317,-1.612 0.95,-2.106c0.633,-0.495 1.529,-0.742 2.69,-0.742l6.567,-0c1.715,-0 2.971,0.099 3.769,0.297c0.798,0.197 1.566,0.606 2.304,1.226c1.53,1.279 2.295,3.079 2.295,5.4c-0,2.11 -0.623,3.986 -1.869,5.628c-1.247,1.642 -2.892,2.747 -4.936,3.314Zm-4.451,-3.719l0.574,-0.04c1.503,-0.092 2.624,-0.382 3.363,-0.87c1.424,-0.937 2.136,-2.196 2.136,-3.779c0,-1.819 -0.87,-2.729 -2.611,-2.729l-0.435,-0l-3.027,7.418Z" style="fill:#fff;fill-rule:nonzero;stroke:#000;stroke-width:0.73px;stroke-linecap:butt;stroke-miterlimit:2;"/></g><g transform="matrix(0.98327,-0.182154,0.182154,0.98327,-32.1437,116.056)"><path d="M622.338,227.22c-0,0.99 0.745,1.484 2.235,1.484l5.875,0c1.662,0 2.493,0.587 2.493,1.761c-0,0.804 -0.294,1.43 -0.881,1.879c-0.586,0.448 -1.407,0.672 -2.462,0.672l-5.599,0c-2.083,0 -3.669,-0.514 -4.757,-1.543c-1.088,-1.028 -1.632,-2.532 -1.632,-4.51c0,-2.545 0.861,-4.741 2.582,-6.587c1.721,-1.846 3.768,-2.769 6.142,-2.769c1.727,-0 3.115,0.451 4.164,1.355c1.048,0.903 1.572,2.093 1.572,3.57c0,1.781 -0.725,3.099 -2.176,3.957c-0.804,0.487 -2.004,0.731 -3.6,0.731l-3.956,0Zm0.949,-3.6l2.176,0c1.411,0 2.097,-0.31 2.058,-0.929c-0.04,-0.699 -0.495,-1.049 -1.365,-1.049c-1.214,0 -2.17,0.659 -2.869,1.978Z" style="fill:#fff;fill-rule:nonzero;stroke:#000;stroke-width:0.72px;stroke-linecap:butt;stroke-miterlimit:2;"/></g><g transform="matrix(0.988387,-0.151958,0.151958,0.988387,-27.6282,98.6414)"><path d="M638.911,225.767l2.235,0c1.662,0 2.492,0.587 2.492,1.761c0,0.804 -0.293,1.43 -0.88,1.879c-0.587,0.448 -1.408,0.672 -2.463,0.672l-3.145,0c-1.16,0 -2.074,-0.237 -2.74,-0.712c-0.666,-0.474 -0.999,-1.121 -0.999,-1.938c0,-0.435 0.139,-0.989 0.416,-1.662l3.264,-8.031l0.217,-0.554c0.607,-1.49 1.583,-2.235 2.928,-2.235c0.554,-0 1.032,0.184 1.434,0.554c0.402,0.369 0.604,0.811 0.604,1.325c-0,0.422 -0.179,1.068 -0.535,1.938l-2.828,7.003Zm2.611,-17.131c0.765,0 1.414,0.267 1.948,0.802c0.534,0.534 0.801,1.183 0.801,1.948c0,0.765 -0.267,1.414 -0.801,1.948c-0.534,0.535 -1.183,0.802 -1.948,0.802c-0.765,-0 -1.415,-0.267 -1.949,-0.802c-0.534,-0.534 -0.801,-1.183 -0.801,-1.948c0,-0.765 0.267,-1.414 0.801,-1.948c0.534,-0.535 1.184,-0.802 1.949,-0.802Z" style="fill:#fff;fill-rule:nonzero;stroke:#000;stroke-width:0.72px;stroke-linecap:butt;stroke-miterlimit:2;"/></g><g transform="matrix(0.991598,-0.129361,0.129361,0.991598,-24.1433,85.0223)"><path d="M650.862,218.63l-0.376,0.909c-0.58,1.306 -1.405,1.959 -2.473,1.959c-0.54,-0 -1.025,-0.188 -1.454,-0.564c-0.428,-0.376 -0.643,-0.808 -0.643,-1.296c0,-0.461 0.192,-1.074 0.574,-1.839l2.631,-5.341c0.646,-1.279 1.451,-1.919 2.413,-1.919c0.515,-0 0.956,0.168 1.326,0.504c0.369,0.337 0.554,0.736 0.554,1.197c-0,0.119 -0.04,0.376 -0.119,0.772c-0.053,0.29 -0.079,0.547 -0.079,0.771c-0,0.831 0.31,1.682 0.929,2.552l1.128,1.563c1.147,1.595 1.721,3.138 1.721,4.628c-0,1.662 -0.62,3.05 -1.859,4.164c-1.24,1.115 -2.783,1.672 -4.629,1.672l-4.135,-0c-1.674,-0 -2.512,-0.58 -2.512,-1.741c0,-0.804 0.297,-1.434 0.89,-1.889c0.594,-0.455 1.411,-0.682 2.453,-0.682l2.295,-0c1.833,-0 2.749,-0.666 2.749,-1.998c0,-0.488 -0.171,-1.062 -0.514,-1.721l-0.87,-1.701Z" style="fill:#fff;fill-rule:nonzero;stroke:#000;stroke-width:0.72px;stroke-linecap:butt;stroke-miterlimit:2;"/></g><g transform="matrix(0.994381,-0.105859,0.105859,0.994381,-20.2904,70.7649)"><path d="M663.82,222.206l2.235,0c1.662,0 2.493,0.587 2.493,1.761c-0,0.804 -0.294,1.431 -0.881,1.879c-0.586,0.448 -1.407,0.673 -2.462,0.673l-3.146,-0c-1.16,-0 -2.073,-0.238 -2.739,-0.713c-0.666,-0.474 -0.999,-1.12 -0.999,-1.938c-0,-0.435 0.138,-0.989 0.415,-1.662l3.264,-8.031l0.218,-0.554c0.606,-1.49 1.582,-2.235 2.927,-2.235c0.554,-0 1.032,0.184 1.434,0.554c0.403,0.369 0.604,0.811 0.604,1.325c-0,0.422 -0.178,1.068 -0.534,1.939l-2.829,7.002Zm2.611,-17.13c0.765,-0 1.414,0.267 1.949,0.801c0.534,0.534 0.801,1.183 0.801,1.948c-0,0.765 -0.267,1.415 -0.801,1.949c-0.535,0.534 -1.184,0.801 -1.949,0.801c-0.765,-0 -1.414,-0.267 -1.948,-0.801c-0.534,-0.534 -0.802,-1.184 -0.802,-1.949c0,-0.765 0.268,-1.414 0.802,-1.948c0.534,-0.534 1.183,-0.801 1.948,-0.801Z" style="fill:#fff;fill-rule:nonzero;stroke:#000;stroke-width:0.72px;stroke-linecap:butt;stroke-miterlimit:2;"/></g><g transform="matrix(0.997196,-0.0748398,0.0748398,0.997196,-14.9807,50.5729)"><path d="M692.967,220.863l2.354,0c1.662,0 2.492,0.587 2.492,1.761c0,0.804 -0.293,1.431 -0.88,1.879c-0.587,0.449 -1.401,0.673 -2.443,0.673l-4.015,-0c-0.871,-0 -1.576,-0.231 -2.117,-0.693c-0.541,-0.461 -0.811,-1.068 -0.811,-1.819c-0,-0.515 0.178,-1.214 0.534,-2.097l1.859,-4.53c0.106,-0.264 0.159,-0.508 0.159,-0.732c-0,-0.857 -0.436,-1.286 -1.306,-1.286c-0.672,0 -1.338,0.303 -1.998,0.91c-0.659,0.607 -1.187,1.411 -1.582,2.413l-2.216,5.46c-0.725,1.767 -1.78,2.651 -3.165,2.651c-0.541,-0 -1.002,-0.178 -1.385,-0.534c-0.382,-0.356 -0.573,-0.778 -0.573,-1.266c-0,-0.383 0.099,-0.831 0.297,-1.346l0.217,-0.534l2.235,-5.519c0.198,-0.488 0.297,-0.87 0.297,-1.147c0,-0.29 -0.132,-0.544 -0.395,-0.762c-0.264,-0.217 -0.574,-0.326 -0.93,-0.326c-1.424,0 -2.552,1.029 -3.383,3.086l-2.314,5.677c-0.726,1.781 -1.774,2.671 -3.145,2.671c-0.541,-0 -1.006,-0.175 -1.395,-0.524c-0.389,-0.35 -0.584,-0.775 -0.584,-1.276c0,-0.396 0.099,-0.844 0.297,-1.346l0.218,-0.534l3.936,-9.692c0.554,-1.359 1.385,-2.038 2.493,-2.038c1.147,0 1.859,0.541 2.136,1.622c0.897,-0.765 1.625,-1.272 2.186,-1.523c0.56,-0.251 1.249,-0.376 2.067,-0.376c1.767,0 3.093,0.772 3.976,2.315c1.477,-1.543 3.139,-2.315 4.985,-2.315c1.266,0 2.324,0.366 3.175,1.098c0.85,0.732 1.276,1.632 1.276,2.7c-0,0.673 -0.145,1.365 -0.435,2.077l-2.117,5.222Z" style="fill:#fff;fill-rule:nonzero;stroke:#000;stroke-width:0.72px;stroke-linecap:butt;stroke-miterlimit:2;"/></g><g transform="matrix(0.998991,-0.0449141,0.0449141,0.998991,-9.31602,31.5141)"><path d="M704,218.758l2.235,0c1.662,0 2.492,0.587 2.492,1.761c0,0.804 -0.293,1.431 -0.88,1.879c-0.587,0.449 -1.408,0.673 -2.463,0.673l-3.145,-0c-1.16,-0 -2.074,-0.238 -2.74,-0.712c-0.666,-0.475 -0.999,-1.121 -0.999,-1.939c0,-0.435 0.139,-0.989 0.416,-1.662l3.264,-8.031l0.217,-0.554c0.607,-1.49 1.583,-2.235 2.928,-2.235c0.554,0 1.032,0.185 1.434,0.554c0.402,0.369 0.603,0.811 0.603,1.325c0,0.422 -0.178,1.068 -0.534,1.939l-2.828,7.002Zm2.611,-17.13c0.765,-0 1.414,0.267 1.948,0.801c0.534,0.534 0.801,1.183 0.801,1.948c0,0.765 -0.267,1.415 -0.801,1.949c-0.534,0.534 -1.183,0.801 -1.948,0.801c-0.765,-0 -1.415,-0.267 -1.949,-0.801c-0.534,-0.534 -0.801,-1.184 -0.801,-1.949c0,-0.765 0.267,-1.414 0.801,-1.948c0.534,-0.534 1.184,-0.801 1.949,-0.801Z" style="fill:#fff;fill-rule:nonzero;stroke:#000;stroke-width:0.72px;stroke-linecap:butt;stroke-miterlimit:2;"/></g><g transform="matrix(0.999707,-0.0242185,0.0242185,0.999707,-5.181,17.2029)"><path d="M724.145,218.185l2.374,0c1.674,0 2.512,0.587 2.512,1.761c-0,0.804 -0.297,1.431 -0.89,1.879c-0.594,0.449 -1.411,0.673 -2.453,0.673l-4.135,-0c-0.804,-0 -1.48,-0.244 -2.027,-0.732c-0.547,-0.488 -0.821,-1.101 -0.821,-1.84c-0,-0.448 0.185,-1.121 0.554,-2.017l1.741,-4.313c0.184,-0.448 0.283,-0.811 0.296,-1.088c0.013,-0.316 -0.115,-0.587 -0.385,-0.811c-0.271,-0.224 -0.617,-0.336 -1.039,-0.336c-1.358,-0 -2.453,1.022 -3.284,3.066l-2.334,5.737c-0.699,1.74 -1.741,2.611 -3.125,2.611c-0.567,-0 -1.049,-0.172 -1.444,-0.515c-0.396,-0.342 -0.594,-0.764 -0.594,-1.266c0,-0.369 0.106,-0.811 0.317,-1.325l0.217,-0.534l3.996,-9.851c0.514,-1.279 1.391,-1.919 2.631,-1.919c1.015,0 1.741,0.448 2.176,1.345c1.411,-1.081 2.756,-1.622 4.035,-1.622c1.24,0 2.262,0.356 3.067,1.068c0.804,0.712 1.206,1.616 1.206,2.71c0,0.607 -0.145,1.273 -0.435,1.998l-2.156,5.321Z" style="fill:#fff;fill-rule:nonzero;stroke:#000;stroke-width:0.72px;stroke-linecap:butt;stroke-miterlimit:2;"/></g><g transform="matrix(1,0.000100347,-0.000100347,1,0.0222805,-0.073043)"><path d="M734.526,216.203c-0,0.989 0.745,1.484 2.235,1.484l5.875,-0c1.662,-0 2.493,0.587 2.493,1.76c-0,0.805 -0.294,1.431 -0.88,1.879c-0.587,0.449 -1.408,0.673 -2.463,0.673l-5.598,0c-2.084,0 -3.67,-0.514 -4.758,-1.543c-1.088,-1.029 -1.632,-2.532 -1.632,-4.51c0,-2.545 0.861,-4.741 2.582,-6.587c1.721,-1.847 3.768,-2.77 6.142,-2.77c1.727,0 3.115,0.452 4.164,1.355c1.048,0.904 1.572,2.094 1.572,3.571c0,1.78 -0.725,3.099 -2.176,3.956c-0.804,0.488 -2.004,0.732 -3.6,0.732l-3.956,0Zm0.949,-3.6l2.176,-0c1.412,-0 2.097,-0.31 2.058,-0.93c-0.04,-0.699 -0.495,-1.048 -1.365,-1.048c-1.213,-0 -2.17,0.659 -2.869,1.978Z" style="fill:#fff;fill-rule:nonzero;stroke:#000;stroke-width:0.72px;stroke-linecap:butt;stroke-miterlimit:2;"/></g><g transform="matrix(0.998935,0.0461415,-0.0461415,0.998935,11.0451,-34.5585)"><path d="M772.786,207.113l3.996,-9.673c0.435,-1.068 0.87,-1.747 1.305,-2.038c0.435,-0.29 1.246,-0.435 2.433,-0.435l10.207,0c1.82,0 2.73,0.62 2.73,1.86c0,0.817 -0.3,1.5 -0.9,2.047c-0.6,0.547 -1.342,0.821 -2.225,0.821l-8.961,-0l-3.007,7.418l2.987,-0c1.477,-0 2.216,0.64 2.216,1.919c-0,0.778 -0.304,1.441 -0.91,1.988c-0.607,0.547 -1.346,0.821 -2.216,0.821l-3.996,-0l-4.391,10.8l14.183,0c1.477,0 2.216,0.62 2.216,1.86c-0,0.817 -0.3,1.5 -0.9,2.047c-0.601,0.547 -1.342,0.821 -2.226,0.821l-15.192,0l-0.257,0.554c-0.923,2.057 -1.645,3.501 -2.166,4.332c-0.521,0.831 -1.204,1.635 -2.048,2.413c-2.202,2.018 -4.734,3.027 -7.596,3.027c-2.334,-0 -4.256,-0.692 -5.766,-2.077c-1.51,-1.385 -2.265,-3.145 -2.265,-5.282c0,-1.332 0.323,-2.578 0.969,-3.738c0.647,-1.161 1.524,-2.064 2.631,-2.71c1.438,-0.831 3.383,-1.247 5.836,-1.247l7.002,0l4.392,-10.8l-0.653,-0c-1.477,-0 -2.215,-0.646 -2.215,-1.939c-0,-0.778 0.303,-1.437 0.91,-1.978c0.606,-0.541 1.345,-0.811 2.215,-0.811l1.662,-0Zm-8.229,20.256l-5.223,0c-2.584,0 -3.877,0.917 -3.877,2.75c0,0.751 0.287,1.381 0.861,1.889c0.573,0.508 1.282,0.761 2.126,0.761c1.187,0 2.325,-0.481 3.413,-1.444c1.087,-0.962 1.988,-2.281 2.7,-3.956Z" style="fill:#fff;fill-rule:nonzero;stroke:#000;stroke-width:0.71px;stroke-linecap:butt;stroke-miterlimit:2;"/></g><g transform="matrix(0.996527,0.0832671,-0.0832671,0.996527,21.3376,-64.6586)"><path d="M801.646,219.169l2.295,-0c0.91,-0 1.556,0.135 1.938,0.405c0.383,0.271 0.574,0.716 0.574,1.336c-0,0.804 -0.294,1.434 -0.88,1.889c-0.587,0.455 -1.408,0.682 -2.463,0.682l-3.541,0c-1.108,0 -1.846,-0.428 -2.216,-1.286c-0.725,0.858 -1.635,1.286 -2.729,1.286l-2.888,0c-1.161,0 -2.124,-0.363 -2.889,-1.088c-0.764,-0.725 -1.147,-1.642 -1.147,-2.749c0,-0.633 0.172,-1.372 0.514,-2.216l2.691,-6.607c0.751,-1.833 1.78,-2.75 3.086,-2.75c0.567,0 1.048,0.182 1.444,0.544c0.395,0.363 0.593,0.808 0.593,1.336c0,0.395 -0.105,0.85 -0.316,1.365l-0.218,0.534l-2.077,5.084l-0.218,0.593c-0.118,0.343 -0.184,0.6 -0.197,0.771c-0.027,0.594 0.356,0.891 1.147,0.891c1.635,-0 2.723,-0.66 3.264,-1.979l2.472,-6.092c0.739,-1.846 1.781,-2.77 3.126,-2.77c0.554,0 1.029,0.185 1.424,0.554c0.396,0.37 0.594,0.811 0.594,1.326c-0,0.408 -0.172,1.041 -0.515,1.899l-2.868,7.042Z" style="fill:#fff;fill-rule:nonzero;stroke:#000;stroke-width:0.71px;stroke-linecap:butt;stroke-miterlimit:2;"/></g><g transform="matrix(0.993687,0.112184,-0.112184,0.993687,30.3332,-88.9142)"><path d="M812.045,214.277l-0.672,1.662c-0.607,1.477 -1.398,2.215 -2.374,2.215c-0.594,0 -1.088,-0.178 -1.484,-0.534c-0.395,-0.356 -0.593,-0.798 -0.593,-1.325c-0,-0.304 0.145,-0.818 0.435,-1.543l2.235,-5.519c0.541,-1.332 1.306,-1.998 2.295,-1.998c0.976,-0 1.576,0.461 1.8,1.384l0.158,0.614c0.079,0.316 0.198,0.514 0.356,0.593c0.159,0.079 0.548,0.119 1.168,0.119l4.628,-0c1.728,-0 2.592,0.606 2.592,1.82c-0,1.674 -1.095,2.512 -3.284,2.512l-0.218,0.198c-2.096,2.004 -3.145,3.554 -3.145,4.648c0,1.095 0.607,1.642 1.82,1.642l2.493,0c1.674,0 2.512,0.58 2.512,1.741c-0,0.818 -0.294,1.451 -0.881,1.899c-0.586,0.448 -1.407,0.673 -2.462,0.673l-3.877,-0c-1.319,-0 -2.397,-0.455 -3.235,-1.365c-0.837,-0.91 -1.256,-2.091 -1.256,-3.541c0,-0.923 0.224,-1.82 0.673,-2.691c0.448,-0.87 1.239,-1.938 2.374,-3.204l-2.058,-0Z" style="fill:#fff;fill-rule:nonzero;stroke:#000;stroke-width:0.71px;stroke-linecap:butt;stroke-miterlimit:2;"/></g><g transform="matrix(0.989776,0.142628,-0.142628,0.989776,40.7622,-114.882)"><path d="M832.748,211.481c1.913,0 3.485,0.607 4.718,1.82c1.233,1.213 1.85,2.756 1.85,4.629c-0,1.411 -0.323,2.812 -0.969,4.203c-0.647,1.392 -1.484,2.503 -2.513,3.334c-0.685,0.54 -1.394,0.913 -2.126,1.117c-0.732,0.205 -1.757,0.307 -3.076,0.307c-2.15,-0 -3.6,-0.257 -4.352,-0.772c-1.767,-1.213 -2.651,-3.006 -2.651,-5.38c0,-2.506 0.904,-4.675 2.71,-6.508c1.807,-1.833 3.943,-2.75 6.409,-2.75Zm-0.474,4.214c-0.976,-0 -1.866,0.481 -2.671,1.444c-0.804,0.962 -1.206,2.024 -1.206,3.184c-0,1.53 0.857,2.295 2.571,2.295c1.002,0 1.774,-0.31 2.315,-0.93c0.896,-1.015 1.345,-2.176 1.345,-3.481c-0,-0.752 -0.218,-1.358 -0.653,-1.82c-0.435,-0.462 -1.002,-0.692 -1.701,-0.692Z" style="fill:#fff;fill-rule:nonzero;stroke:#000;stroke-width:0.71px;stroke-linecap:butt;stroke-miterlimit:2;"/></g><g transform="matrix(0.984024,0.178033,-0.178033,0.984024,54.2024,-145.589)"><path d="M849.35,213.815c1.912,0 3.484,0.607 4.717,1.82c1.233,1.213 1.85,2.756 1.85,4.629c-0,1.411 -0.323,2.812 -0.969,4.204c-0.647,1.391 -1.484,2.502 -2.513,3.333c-0.685,0.54 -1.394,0.913 -2.126,1.117c-0.732,0.205 -1.757,0.307 -3.076,0.307c-2.15,-0 -3.6,-0.257 -4.352,-0.772c-1.767,-1.213 -2.651,-3.006 -2.651,-5.38c0,-2.506 0.904,-4.675 2.71,-6.508c1.807,-1.833 3.943,-2.75 6.41,-2.75Zm-0.475,4.214c-0.976,-0 -1.866,0.481 -2.671,1.444c-0.804,0.962 -1.206,2.024 -1.206,3.185c-0,1.529 0.857,2.294 2.571,2.294c1.002,0 1.774,-0.31 2.315,-0.93c0.896,-1.015 1.345,-2.176 1.345,-3.481c-0,-0.752 -0.218,-1.358 -0.653,-1.82c-0.435,-0.462 -1.002,-0.692 -1.701,-0.692Z" style="fill:#fff;fill-rule:nonzero;stroke:#000;stroke-width:0.71px;stroke-linecap:butt;stroke-miterlimit:2;"/></g><g transform="matrix(0.976855,0.213901,-0.213901,0.976855,69.4495,-177.467)"><path d="M860.943,230.647l-5.163,12.7c-0.712,1.753 -1.754,2.63 -3.126,2.63c-0.527,0 -0.979,-0.174 -1.355,-0.524c-0.376,-0.349 -0.563,-0.768 -0.563,-1.256c-0,-0.409 0.164,-1.028 0.494,-1.859l9.535,-23.501c0.488,-1.186 1.332,-1.78 2.532,-1.78c0.83,0 1.49,0.396 1.978,1.187c0.923,-0.976 2.05,-1.464 3.382,-1.464c1.385,0 2.503,0.524 3.353,1.573c0.851,1.048 1.276,2.43 1.276,4.144c0,3.244 -1.009,5.888 -3.026,7.932c-0.66,0.673 -1.339,1.134 -2.038,1.385c-0.699,0.251 -1.675,0.376 -2.927,0.376c-1.346,-0 -2.272,-0.092 -2.78,-0.277c-0.507,-0.185 -1.032,-0.607 -1.572,-1.266Zm1.622,-4.036c0.329,0.581 0.643,0.957 0.939,1.128c0.297,0.171 0.769,0.257 1.415,0.257c0.936,0 1.668,-0.349 2.195,-1.048c1.069,-1.411 1.603,-2.862 1.603,-4.352c-0,-1.279 -0.607,-1.919 -1.82,-1.919c-1.332,0 -2.288,0.772 -2.868,2.315c-0.066,0.171 -0.119,0.316 -0.159,0.435l-1.305,3.184Z" style="fill:#fff;fill-rule:nonzero;stroke:#000;stroke-width:0.71px;stroke-linecap:butt;stroke-miterlimit:2;"/></g><g transform="matrix(0.958242,0.285957,-0.285957,0.958242,103.878,-239.539)"><path d="M887.494,231.6l2.176,-0c1.661,-0 2.492,0.58 2.492,1.74c0,0.805 -0.297,1.435 -0.89,1.89c-0.593,0.455 -1.411,0.682 -2.453,0.682l-2.532,0c-1.134,0 -1.906,-0.442 -2.314,-1.325c-0.989,0.883 -1.946,1.325 -2.869,1.325l-2.255,0c-1.45,0 -2.621,-0.518 -3.511,-1.553c-0.89,-1.035 -1.335,-2.39 -1.335,-4.065c-0,-2.532 0.873,-4.797 2.621,-6.795c1.747,-1.998 3.722,-2.997 5.924,-2.997c1.688,0 2.921,0.587 3.699,1.761c0.66,-0.989 1.524,-1.484 2.592,-1.484c0.58,0 1.065,0.185 1.454,0.554c0.389,0.369 0.583,0.824 0.583,1.365c0,0.369 -0.105,0.811 -0.316,1.325l-0.218,0.534l-2.848,7.043Zm-7.181,0.099l0.495,-0c1.081,-0 1.8,-0.442 2.156,-1.326l1.384,-3.422c0.185,-0.448 0.277,-0.824 0.277,-1.127c0,-0.357 -0.174,-0.666 -0.524,-0.93c-0.349,-0.264 -0.768,-0.396 -1.256,-0.396c-0.963,0 -1.899,0.561 -2.809,1.682c-0.91,1.121 -1.365,2.281 -1.365,3.481c0,1.358 0.547,2.038 1.642,2.038Z" style="fill:#fff;fill-rule:nonzero;stroke:#000;stroke-width:0.7px;stroke-linecap:butt;stroke-miterlimit:2;"/></g><g transform="matrix(0.930175,0.367116,-0.367116,0.930175,150.745,-309.999)"><path d="M898.756,231.552l-0.375,0.91c-0.581,1.305 -1.405,1.958 -2.473,1.958c-0.541,-0 -1.025,-0.188 -1.454,-0.564c-0.429,-0.376 -0.643,-0.808 -0.643,-1.296c0,-0.461 0.191,-1.074 0.574,-1.839l2.631,-5.341c0.646,-1.279 1.45,-1.919 2.413,-1.919c0.514,0 0.956,0.168 1.325,0.504c0.37,0.337 0.554,0.736 0.554,1.197c0,0.119 -0.039,0.376 -0.118,0.772c-0.053,0.29 -0.08,0.547 -0.08,0.771c0,0.831 0.31,1.682 0.93,2.552l1.128,1.563c1.147,1.595 1.721,3.138 1.721,4.629c-0,1.661 -0.62,3.049 -1.86,4.164c-1.239,1.114 -2.782,1.671 -4.629,1.671l-4.134,0c-1.675,0 -2.512,-0.58 -2.512,-1.741c-0,-0.804 0.297,-1.434 0.89,-1.889c0.593,-0.455 1.411,-0.682 2.453,-0.682l2.295,-0c1.833,-0 2.749,-0.666 2.749,-1.998c0,-0.488 -0.171,-1.062 -0.514,-1.721l-0.871,-1.701Z" style="fill:#fff;fill-rule:nonzero;stroke:#000;stroke-width:0.7px;stroke-linecap:butt;stroke-miterlimit:2;"/></g></g></g></g></svg>