<?xml version="1.0" encoding="UTF-8" standalone="no"?>
<!DOCTYPE svg PUBLIC "-//W3C//DTD SVG 1.1//EN" "http://www.w3.org/Graphics/SVG/1.1/DTD/svg11.dtd">
<svg width="100%" height="100%" viewBox="0 0 1167 345" version="1.1" xmlns="http://www.w3.org/2000/svg" xmlns:xlink="http://www.w3.org/1999/xlink" xml:space="preserve" xmlns:serif="http://www.serif.com/" style="fill-rule:evenodd;clip-rule:evenodd;stroke-linecap:round;stroke-linejoin:round;stroke-miterlimit:1.5;">
    <g transform="matrix(1,0,0,1,-385.024,-295.932)">
        <g id="mängu-logo" serif:id="mängu logo" transform="matrix(1.35425,0,0,1.43989,-297.976,0.215105)">
            <g id="lennuk">
                <path d="M935.191,419.097C953.578,419.775 978,409 978,409L982,401L1017.67,392.338C1017.67,392.338 1055.39,382.609 1056,385C1056.61,387.391 1057.84,390.617 1059,391C1060.16,391.383 1062.94,392.801 1065,390C1067.06,387.199 1065,382 1065,382L1075,380C1075,380 1075.11,384.797 1075,385C1070.32,389.701 1062.86,394.63 1061,409C1064.02,448.627 1093.38,440.783 1097,440C1100.62,439.217 1122.69,428.68 1118,400C1110.52,379.799 1094,380 1094,380L1094,377C1094,377 1111.85,373.279 1122,372C1123.15,376.306 1122.91,379.525 1129,379C1135.09,378.475 1138,369 1138,369C1138,369 1209.53,354.375 1210,356C1210.47,357.625 1209.86,361.903 1215.82,360.993C1221.77,360.083 1223,352 1223,352C1307.96,334.982 1365,310 1365,310C1365,310 1362.61,307.829 1363,309C1275.18,335.3 1254,338 1254,338L1184,352L1142,359L1086,367L986,374L989,368L1059,354L1060,351L1062,351L1062,349C1062,349 991.231,359.244 991,358C990.769,356.756 992.472,338.81 990,333C987.528,327.19 988.749,321.107 975,308C961.251,294.893 938,293 938,293L936,212L934,212L932,293C932,293 908.749,294.893 895,308C881.251,321.107 882.472,327.19 880,333C877.528,338.81 879.231,356.756 879,358C878.769,359.244 808,349 808,349L808,351L810,351L811,354L881,368L884,374L784,367L728,359L686,352L616,338C616,338 594.82,335.3 507,309C507.389,307.829 505,310 505,310C505,310 562.038,334.982 647,352C647,352 648.226,360.083 654.182,360.993C660.139,361.903 659.53,357.625 660,356C660.47,354.375 732,369 732,369C732,369 734.914,378.475 741,379C747.086,379.525 746.846,376.306 748,372C758.151,373.279 776,377 776,377L776,380C776,380 759.482,379.799 752,400C747.31,428.68 767.384,438.217 773,440C776.527,441.12 807.976,444.627 809,409C807.138,394.63 799.685,389.701 795,385C794.891,384.797 795,380 795,380L805,382C805,382 802.94,387.199 805,390C807.06,392.801 809.844,391.383 811,391C812.156,390.617 813.395,387.391 814,385C814.605,382.609 852.329,392.338 852.329,392.338L888,401L892,409C892,409 914.803,419.775 935.191,419.097Z" style="fill:white;stroke:black;stroke-width:1.29px;"/>
                <path d="M932,293L934,212L936,212L938,293L932,293Z" style="fill:rgb(0,1,0);stroke:black;stroke-width:1.29px;"/>
                <path d="M913,325L933,326L933,340L928.851,341.17L906.675,342.081L913,325Z" style="fill:rgb(0,1,0);stroke:black;stroke-width:1.29px;"/>
                <g transform="matrix(-1,0,0,1,1871,0)">
                    <path d="M913,325L933,326L933,340L928.851,341.17L906.675,342.081L913,325Z" style="fill:rgb(0,1,0);stroke:black;stroke-width:1.29px;"/>
                </g>
                <path d="M892,330L898,326C898,326 891.251,339.933 891,345C887.333,343.67 887,342 887,342L892,330Z" style="fill:rgb(0,1,0);stroke:black;stroke-width:1.29px;"/>
                <g transform="matrix(-1,0,0,1,1871,0)">
                    <path d="M892,330L898,326C898,326 891.251,339.933 891,345C887.333,343.67 887,342 887,342L892,330Z" style="fill:rgb(0,1,0);stroke:black;stroke-width:1.29px;"/>
                </g>
                <path d="M901,326L910,326C910,326 904.261,339.631 904,341C903.739,342.369 901.074,340.041 893,345C896.881,333.505 901.053,325.489 901,326Z" style="fill:rgb(0,1,0);stroke:black;stroke-width:1.29px;"/>
                <g transform="matrix(-1,0,0,1,1871,0)">
                    <path d="M901,326L910,326C910,326 904.261,339.631 904,341C903.739,342.369 901.074,340.041 893,345C896.881,333.505 901.053,325.489 901,326Z" style="fill:rgb(0,1,0);stroke:black;stroke-width:1.29px;"/>
                </g>
                <g transform="matrix(1.0137,0,0,1,-11.0685,0)">
                    <path d="M878.99,358.02L881,368L811,354L810,351L808,351L808,349L878.99,358.02Z"/>
                </g>
                <g transform="matrix(-1.0137,0,0,1,1881.07,0)">
                    <path d="M878.99,358.02L881,368L811,354L810,351L808,351L808,349L878.99,358.02Z"/>
                </g>
                <g transform="matrix(1.05085,0,0,1.04751,269.263,-17.9601)">
                    <ellipse cx="781.5" cy="409.57" rx="29.5" ry="31.57" style="fill:white;stroke:black;stroke-width:1.23px;"/>
                </g>
                <g transform="matrix(-1.075,0,0,1.04348,1927.92,-16.8261)">
                    <ellipse cx="779" cy="410" rx="20" ry="23"/>
                </g>
                <g transform="matrix(-1,0,0,1,1869,0)">
                    <circle cx="779" cy="410" r="8" style="fill:rgb(0,113,205);stroke:black;stroke-width:1.29px;"/>
                </g>
                <g transform="matrix(1.05085,0,0,1.04751,-41.2373,-17.9601)">
                    <ellipse cx="781.5" cy="409.57" rx="29.5" ry="31.57" style="fill:white;stroke:black;stroke-width:1.23px;"/>
                </g>
                <g transform="matrix(1.075,0,0,1.04348,-56.925,-16.8261)">
                    <ellipse cx="779" cy="410" rx="20" ry="23"/>
                </g>
                <g transform="matrix(1,0,0,1,2,0)">
                    <circle cx="779" cy="410" r="8" style="fill:rgb(0,113,205);stroke:black;stroke-width:1.29px;"/>
                </g>
            </g>
            <g id="mask" transform="matrix(1,0,0,1,-4,-13)">
                <path d="M938.953,441C943.019,442.183 949.446,438.162 953.953,436C958.102,434.496 982.124,415.66 982.953,414C983.782,412.34 983.953,409 983.953,409C983.953,409 985.348,409.375 986.953,409C987.066,407.303 986.922,406.064 988.953,402C990.983,397.936 991.555,394.978 991.953,391C992.351,387.022 990.148,383.893 988.953,381C987.757,378.107 988.953,367 988.953,367C988.953,367 969.88,365.693 952.953,363C947.938,359.149 938.953,359 938.953,359L939,359C939,359 930.014,359.149 925,363C908.073,365.693 889,367 889,367C889,367 890.196,378.107 889,381C887.804,383.893 885.602,387.022 886,391C886.398,394.978 886.969,397.936 889,402C891.031,406.064 890.886,407.303 891,409C892.604,409.375 894,409 894,409C894,409 894.171,412.34 895,414C895.829,415.66 919.851,434.496 924,436C928.507,438.162 934.933,442.183 939,441" style="fill:rgb(14,77,130);stroke:black;stroke-width:1.29px;"/>
                <g transform="matrix(1,0,0,1,1,0)">
                    <path d="M892,374L925,370C925,370 933.165,367.001 938,367C943.73,366.998 950,370 950,370L983,374" style="fill:none;stroke:black;stroke-width:1.29px;"/>
                </g>
                <path d="M892,392C892,392 926.321,385.864 938,386C949.71,386.137 983,392 983,392" style="fill:none;stroke:black;stroke-width:1.29px;"/>
                <path d="M893,401C893,401 896.408,402.343 900,403C903.592,403.657 935.514,408.309 939,408C942.52,408.211 973.408,403.657 977,403C980.592,402.343 984,401 984,401" style="fill:none;stroke:black;stroke-width:1.29px;"/>
                <g transform="matrix(1,0,0,1,1,0)">
                    <path d="M896,410C896,410 907.307,415.106 910,416C912.693,416.894 928.547,423.067 937,423C945.453,422.933 929.547,422.933 938,423C946.453,423.067 962.307,416.894 965,416C967.693,415.106 979,410 979,410" style="fill:none;stroke:black;stroke-width:1.29px;"/>
                </g>
                <path d="M889.149,368.557C889.149,368.557 886.599,366.533 883,359C882.823,358.447 881.87,357.194 881,359C879.758,365.516 878.614,369.374 880,378C881.386,386.626 886.56,392.327 886,392C885.44,391.673 887,385 887,385L890,380L889.149,368.557Z" style="fill:none;stroke:black;stroke-width:1.29px;"/>
                <g transform="matrix(-1,0,0,1,1878.37,-1)">
                    <path d="M889.149,368.557C889.149,368.557 886.599,366.533 883,359C882.823,358.447 881.87,357.194 881,359C879.758,365.516 878.614,369.374 880,378C881.386,386.626 886.56,392.327 886,392C885.44,391.673 887,385 887,385L890,380L889.149,368.557Z" style="fill:none;stroke:black;stroke-width:1.29px;"/>
                </g>
            </g>
            <g transform="matrix(1,0,0,1,-21,42)">
                <g transform="matrix(0.969856,-0.24368,0.24368,0.969856,-45.9631,158.281)">
                    <path d="M684.13,241.054L693.074,262.29C694.232,265.032 695.744,266.402 697.609,266.402L699.305,266.36L717.023,266.36C720.923,266.36 722.873,267.688 722.873,270.344C722.873,272.294 722.195,273.806 720.838,274.88C719.482,275.954 717.546,276.491 715.031,276.491L695.49,276.491C690.121,276.491 686.39,273.947 684.299,268.861L672.049,239.358L666.369,253.346C663.656,260.044 661.727,264.572 660.583,266.932C659.438,269.292 658.117,271.475 656.619,273.481C651.222,280.772 644.426,284.417 636.23,284.417C630.268,284.417 625.435,282.552 621.734,278.822C618.032,275.092 616.181,270.203 616.181,264.155C616.181,256.271 619.091,249.334 624.913,243.343C628.049,240.149 631.977,237.571 636.697,235.607C641.416,233.643 646.093,232.661 650.727,232.661C652.932,232.661 654.719,233.162 656.09,234.166C657.46,235.169 658.145,236.476 658.145,238.086C658.145,239.839 657.411,241.237 655.941,242.283C655.093,242.876 653.454,243.3 651.024,243.555C645.372,244.063 640.837,245.349 637.417,247.412C634.535,249.164 632.26,251.425 630.593,254.194C628.925,256.964 628.092,259.86 628.092,262.884C628.092,266.077 628.904,268.599 630.529,270.45C632.154,272.301 634.365,273.227 637.163,273.227C640.611,273.227 643.599,271.771 646.128,268.861C648.657,265.95 651.434,260.779 654.458,253.346L669.124,217.189L664.758,217.189C660.858,217.189 658.908,215.847 658.908,213.162C658.908,211.212 659.587,209.707 660.943,208.648C662.299,207.588 664.221,207.058 666.708,207.058L680.781,207.058C684.455,207.058 687.146,207.27 688.856,207.694C690.566,208.118 692.212,208.994 693.794,210.322C697.072,213.063 698.711,216.92 698.711,221.894C698.711,226.415 697.376,230.435 694.706,233.954C692.035,237.472 688.51,239.839 684.13,241.054ZM674.592,233.085L675.821,233C679.043,232.802 681.445,232.18 683.027,231.135C686.079,229.128 687.605,226.43 687.605,223.038C687.605,219.139 685.74,217.189 682.01,217.189L681.078,217.189L674.592,233.085Z" style="fill:white;fill-rule:nonzero;stroke:black;stroke-width:0.73px;stroke-linecap:butt;stroke-miterlimit:2;"/>
                </g>
                <g transform="matrix(0.983219,-0.18243,0.18243,0.983219,-33.1708,130.813)">
                    <path d="M708.613,233.288C708.613,235.408 710.21,236.468 713.403,236.468L725.993,236.468C729.553,236.468 731.334,237.725 731.334,240.24C731.334,241.964 730.705,243.306 729.447,244.267C728.19,245.228 726.431,245.708 724.17,245.708L712.174,245.708C707.709,245.708 704.311,244.606 701.979,242.402C699.648,240.198 698.482,236.976 698.482,232.737C698.482,227.283 700.326,222.578 704.014,218.622C707.702,214.666 712.089,212.688 717.176,212.688C720.878,212.688 723.852,213.655 726.099,215.591C728.345,217.527 729.469,220.077 729.469,223.242C729.469,227.057 727.914,229.883 724.806,231.72C723.082,232.766 720.51,233.288 717.091,233.288L708.613,233.288ZM710.648,225.574L715.311,225.574C718.334,225.574 719.804,224.91 719.719,223.581C719.634,222.084 718.659,221.335 716.794,221.335C714.194,221.335 712.146,222.748 710.648,225.574Z" style="fill:white;fill-rule:nonzero;stroke:black;stroke-width:0.72px;stroke-linecap:butt;stroke-miterlimit:2;"/>
                </g>
                <g transform="matrix(0.988329,-0.152337,0.152337,0.988329,-27.972,113.739)">
                    <path d="M744.053,230.177L748.843,230.177C752.404,230.177 754.184,231.434 754.184,233.949C754.184,235.673 753.555,237.015 752.298,237.976C751.04,238.937 749.281,239.417 747.02,239.417L740.28,239.417C737.794,239.417 735.837,238.909 734.41,237.891C732.982,236.874 732.269,235.489 732.269,233.737C732.269,232.805 732.566,231.618 733.159,230.177L740.153,212.967L740.62,211.78C741.919,208.587 744.011,206.99 746.893,206.99C748.08,206.99 749.104,207.386 749.966,208.177C750.828,208.968 751.259,209.915 751.259,211.017C751.259,211.921 750.878,213.306 750.115,215.171L744.053,230.177ZM749.648,193.468C751.287,193.468 752.679,194.04 753.824,195.185C754.968,196.329 755.54,197.721 755.54,199.36C755.54,200.999 754.968,202.391 753.824,203.535C752.679,204.68 751.287,205.252 749.648,205.252C748.009,205.252 746.618,204.68 745.473,203.535C744.329,202.391 743.756,200.999 743.756,199.36C743.756,197.721 744.329,196.329 745.473,195.185C746.618,194.04 748.009,193.468 749.648,193.468Z" style="fill:white;fill-rule:nonzero;stroke:black;stroke-width:0.72px;stroke-linecap:butt;stroke-miterlimit:2;"/>
                </g>
                <g transform="matrix(0.991551,-0.129717,0.129717,0.991551,-24.2268,99.4877)">
                    <path d="M769.708,214.866L768.902,216.816C767.659,219.614 765.893,221.013 763.604,221.013C762.445,221.013 761.406,220.61 760.488,219.805C759.57,218.999 759.11,218.074 759.11,217.028C759.11,216.039 759.52,214.725 760.34,213.086L765.977,201.641C767.362,198.9 769.086,197.529 771.149,197.529C772.251,197.529 773.198,197.89 773.989,198.61C774.78,199.331 775.176,200.186 775.176,201.175C775.176,201.429 775.091,201.98 774.921,202.828C774.808,203.45 774.752,204.001 774.752,204.481C774.752,206.261 775.416,208.084 776.744,209.949L779.16,213.298C781.619,216.717 782.848,220.024 782.848,223.217C782.848,226.778 781.52,229.752 778.863,232.14C776.207,234.528 772.901,235.722 768.945,235.722L760.085,235.722C756.496,235.722 754.702,234.478 754.702,231.991C754.702,230.268 755.338,228.918 756.609,227.943C757.881,226.968 759.633,226.481 761.866,226.481L766.783,226.481C770.711,226.481 772.675,225.054 772.675,222.2C772.675,221.154 772.307,219.925 771.573,218.512L769.708,214.866Z" style="fill:white;fill-rule:nonzero;stroke:black;stroke-width:0.72px;stroke-linecap:butt;stroke-miterlimit:2;"/>
                </g>
                <g transform="matrix(0.994333,-0.106308,0.106308,0.994333,-20.2098,84.4053)">
                    <path d="M797.386,222.53L802.176,222.53C805.737,222.53 807.517,223.788 807.517,226.303C807.517,228.027 806.888,229.369 805.631,230.33C804.373,231.291 802.614,231.771 800.353,231.771L793.614,231.771C791.127,231.771 789.17,231.263 787.743,230.245C786.316,229.228 785.602,227.843 785.602,226.091C785.602,225.159 785.899,223.972 786.492,222.53L793.486,205.321L793.953,204.134C795.253,200.941 797.344,199.344 800.226,199.344C801.413,199.344 802.437,199.739 803.299,200.531C804.161,201.322 804.592,202.269 804.592,203.371C804.592,204.275 804.211,205.66 803.448,207.525L797.386,222.53ZM802.981,185.822C804.62,185.822 806.012,186.394 807.157,187.539C808.301,188.683 808.873,190.075 808.873,191.714C808.873,193.353 808.301,194.745 807.157,195.889C806.012,197.034 804.62,197.606 802.981,197.606C801.342,197.606 799.951,197.034 798.806,195.889C797.662,194.745 797.089,193.353 797.089,191.714C797.089,190.075 797.662,188.683 798.806,187.539C799.951,186.394 801.342,185.822 802.981,185.822Z" style="fill:white;fill-rule:nonzero;stroke:black;stroke-width:0.72px;stroke-linecap:butt;stroke-miterlimit:2;"/>
                </g>
                <g transform="matrix(0.997172,-0.0751577,0.0751577,0.997172,-14.9236,61.1563)">
                    <path d="M860.071,219.62L865.115,219.62C868.676,219.62 870.456,220.878 870.456,223.393C870.456,225.117 869.827,226.459 868.57,227.42C867.312,228.38 865.567,228.861 863.335,228.861L854.73,228.861C852.865,228.861 851.353,228.366 850.194,227.377C849.036,226.388 848.456,225.088 848.456,223.478C848.456,222.375 848.838,220.878 849.601,218.984L853.585,209.277C853.812,208.712 853.925,208.189 853.925,207.709C853.925,205.872 852.992,204.954 851.127,204.954C849.686,204.954 848.259,205.604 846.846,206.904C845.433,208.203 844.302,209.927 843.455,212.075L838.707,223.774C837.153,227.561 834.892,229.454 831.925,229.454C830.766,229.454 829.777,229.073 828.958,228.31C828.138,227.547 827.728,226.643 827.728,225.597C827.728,224.777 827.94,223.817 828.364,222.715L828.83,221.57L833.62,209.744C834.044,208.698 834.256,207.879 834.256,207.285C834.256,206.663 833.974,206.119 833.408,205.653C832.843,205.187 832.179,204.954 831.416,204.954C828.364,204.954 825.948,207.158 824.168,211.566L819.208,223.732C817.654,227.547 815.407,229.454 812.468,229.454C811.31,229.454 810.314,229.08 809.48,228.331C808.646,227.582 808.23,226.671 808.23,225.597C808.23,224.749 808.442,223.788 808.865,222.715L809.332,221.57L817.767,200.8C818.954,197.889 820.734,196.434 823.108,196.434C825.567,196.434 827.093,197.592 827.686,199.909C829.608,198.27 831.169,197.182 832.37,196.646C833.571,196.109 835.047,195.84 836.8,195.84C840.586,195.84 843.426,197.493 845.32,200.8C848.485,197.493 852.045,195.84 856.002,195.84C858.714,195.84 860.982,196.624 862.805,198.193C864.628,199.761 865.539,201.69 865.539,203.979C865.539,205.42 865.228,206.904 864.606,208.43L860.071,219.62Z" style="fill:white;fill-rule:nonzero;stroke:black;stroke-width:0.72px;stroke-linecap:butt;stroke-miterlimit:2;"/>
                </g>
                <g transform="matrix(0.998972,-0.0453231,0.0453231,0.998972,-9.27564,39.5655)">
                    <path d="M883.647,215.093L888.437,215.093C891.997,215.093 893.778,216.35 893.778,218.865C893.778,220.589 893.149,221.931 891.891,222.892C890.634,223.853 888.875,224.333 886.614,224.333L879.874,224.333C877.387,224.333 875.43,223.825 874.003,222.807C872.576,221.79 871.863,220.405 871.863,218.653C871.863,217.721 872.159,216.534 872.753,215.093L879.747,197.883L880.213,196.696C881.513,193.503 883.604,191.906 886.487,191.906C887.674,191.906 888.698,192.302 889.56,193.093C890.422,193.884 890.853,194.831 890.853,195.933C890.853,196.837 890.471,198.222 889.708,200.087L883.647,215.093ZM889.242,178.384C890.881,178.384 892.273,178.956 893.417,180.101C894.562,181.245 895.134,182.637 895.134,184.276C895.134,185.915 894.562,187.307 893.417,188.451C892.273,189.596 890.881,190.168 889.242,190.168C887.603,190.168 886.211,189.596 885.067,188.451C883.922,187.307 883.35,185.915 883.35,184.276C883.35,182.637 883.922,181.245 885.067,180.101C886.211,178.956 887.603,178.384 889.242,178.384Z" style="fill:white;fill-rule:nonzero;stroke:black;stroke-width:0.72px;stroke-linecap:butt;stroke-miterlimit:2;"/>
                </g>
                <g transform="matrix(0.999694,-0.0247227,0.0247227,0.999694,-5.2432,22.1042)">
                    <path d="M926.72,213.859L931.806,213.859C935.395,213.859 937.19,215.117 937.19,217.632C937.19,219.356 936.554,220.698 935.282,221.659C934.011,222.62 932.259,223.1 930.026,223.1L921.167,223.1C919.443,223.1 917.995,222.577 916.822,221.532C915.649,220.486 915.063,219.172 915.063,217.589C915.063,216.629 915.458,215.187 916.25,213.266L919.98,204.025C920.376,203.064 920.588,202.287 920.616,201.694C920.644,201.016 920.369,200.436 919.789,199.956C919.21,199.475 918.468,199.235 917.564,199.235C914.653,199.235 912.308,201.425 910.527,205.805L905.525,218.098C904.028,221.828 901.795,223.693 898.828,223.693C897.613,223.693 896.581,223.326 895.734,222.591C894.886,221.857 894.462,220.952 894.462,219.878C894.462,219.087 894.688,218.141 895.14,217.038L895.606,215.894L904.169,194.784C905.271,192.043 907.15,190.673 909.807,190.673C911.983,190.673 913.537,191.633 914.469,193.555C917.493,191.238 920.376,190.079 923.117,190.079C925.773,190.079 927.963,190.842 929.687,192.368C931.411,193.894 932.273,195.83 932.273,198.175C932.273,199.475 931.962,200.902 931.34,202.457L926.72,213.859Z" style="fill:white;fill-rule:nonzero;stroke:black;stroke-width:0.72px;stroke-linecap:butt;stroke-miterlimit:2;"/>
                </g>
                <g transform="matrix(1,-0.000501729,0.000501729,1,-0.111271,0.469005)">
                    <path d="M948.879,209.591C948.879,211.71 950.475,212.77 953.669,212.77L966.258,212.77C969.819,212.77 971.599,214.027 971.599,216.542C971.599,218.266 970.97,219.608 969.713,220.569C968.455,221.53 966.696,222.01 964.435,222.01L952.439,222.01C947.975,222.01 944.576,220.908 942.245,218.704C939.914,216.5 938.748,213.278 938.748,209.04C938.748,203.586 940.592,198.88 944.28,194.924C947.967,190.968 952.355,188.99 957.441,188.99C961.143,188.99 964.118,189.958 966.364,191.893C968.611,193.829 969.734,196.379 969.734,199.544C969.734,203.359 968.18,206.185 965.071,208.022C963.347,209.068 960.776,209.591 957.357,209.591L948.879,209.591ZM950.913,201.876L955.576,201.876C958.6,201.876 960.069,201.212 959.985,199.884C959.9,198.386 958.925,197.637 957.06,197.637C954.46,197.637 952.411,199.05 950.913,201.876Z" style="fill:white;fill-rule:nonzero;stroke:black;stroke-width:0.72px;stroke-linecap:butt;stroke-miterlimit:2;"/>
                </g>
                <g transform="matrix(0.998963,0.0455277,-0.0455277,0.998963,11.131,-44.8896)">
                    <path d="M1031.1,190.083L1039.66,169.355C1040.59,167.066 1041.52,165.611 1042.46,164.989C1043.39,164.368 1045.13,164.057 1047.67,164.057L1069.54,164.057C1073.44,164.057 1075.39,165.385 1075.39,168.041C1075.39,169.793 1074.75,171.256 1073.46,172.429C1072.18,173.601 1070.59,174.188 1068.7,174.188L1049.49,174.188L1043.05,190.083L1049.45,190.083C1052.62,190.083 1054.2,191.454 1054.2,194.195C1054.2,195.862 1053.55,197.282 1052.25,198.455C1050.95,199.628 1049.37,200.214 1047.5,200.214L1038.94,200.214L1029.53,223.359L1059.92,223.359C1063.09,223.359 1064.67,224.687 1064.67,227.343C1064.67,229.095 1064.03,230.558 1062.74,231.73C1061.45,232.903 1059.87,233.489 1057.97,233.489L1025.42,233.489L1024.87,234.676C1022.89,239.085 1021.34,242.179 1020.22,243.959C1019.11,245.74 1017.65,247.464 1015.84,249.131C1011.12,253.454 1005.69,255.616 999.56,255.616C994.558,255.616 990.439,254.133 987.203,251.165C983.968,248.198 982.35,244.426 982.35,239.848C982.35,236.994 983.042,234.323 984.427,231.836C985.812,229.349 987.691,227.414 990.065,226.029C993.145,224.249 997.313,223.359 1002.57,223.359L1017.58,223.359L1026.99,200.214L1025.59,200.214C1022.42,200.214 1020.84,198.83 1020.84,196.06C1020.84,194.393 1021.49,192.98 1022.79,191.821C1024.09,190.663 1025.67,190.083 1027.54,190.083L1031.1,190.083ZM1013.46,233.489L1002.27,233.489C996.734,233.489 993.964,235.453 993.964,239.381C993.964,240.992 994.579,242.342 995.808,243.43C997.038,244.518 998.556,245.061 1000.37,245.061C1002.91,245.061 1005.35,244.03 1007.68,241.967C1010.01,239.904 1011.94,237.078 1013.46,233.489Z" style="fill:white;fill-rule:nonzero;stroke:black;stroke-width:0.71px;stroke-linecap:butt;stroke-miterlimit:2;"/>
                </g>
                <g transform="matrix(0.996599,0.0824084,-0.0824084,0.996599,22.1527,-86.5014)">
                    <path d="M1092.83,215.868L1097.74,215.868C1099.69,215.868 1101.08,216.157 1101.9,216.737C1102.72,217.316 1103.13,218.27 1103.13,219.598C1103.13,221.322 1102.5,222.671 1101.24,223.646C1099.98,224.621 1098.23,225.109 1095.96,225.109L1088.38,225.109C1086,225.109 1084.42,224.19 1083.63,222.353C1082.08,224.19 1080.12,225.109 1077.78,225.109L1071.59,225.109C1069.1,225.109 1067.04,224.331 1065.4,222.777C1063.76,221.223 1062.94,219.259 1062.94,216.885C1062.94,215.529 1063.31,213.946 1064.05,212.138L1069.81,197.98C1071.42,194.052 1073.62,192.088 1076.42,192.088C1077.64,192.088 1078.67,192.476 1079.52,193.253C1080.37,194.031 1080.79,194.984 1080.79,196.115C1080.79,196.962 1080.56,197.937 1080.11,199.039L1079.64,200.184L1075.19,211.078L1074.73,212.35C1074.47,213.084 1074.33,213.635 1074.3,214.003C1074.25,215.274 1075.07,215.91 1076.76,215.91C1080.27,215.91 1082.6,214.497 1083.76,211.671L1089.06,198.616C1090.64,194.659 1092.87,192.681 1095.75,192.681C1096.94,192.681 1097.96,193.077 1098.8,193.868C1099.65,194.659 1100.08,195.606 1100.08,196.708C1100.08,197.584 1099.71,198.941 1098.97,200.777L1092.83,215.868Z" style="fill:white;fill-rule:nonzero;stroke:black;stroke-width:0.71px;stroke-linecap:butt;stroke-miterlimit:2;"/>
                </g>
                <g transform="matrix(0.993802,0.111161,-0.111161,0.993802,32.2205,-120.921)">
                    <path d="M1115.12,205.35L1113.68,208.911C1112.38,212.076 1110.68,213.659 1108.59,213.659C1107.32,213.659 1106.26,213.277 1105.41,212.514C1104.57,211.751 1104.14,210.804 1104.14,209.674C1104.14,209.024 1104.45,207.922 1105.07,206.368L1109.86,194.541C1111.02,191.687 1112.66,190.26 1114.78,190.26C1116.87,190.26 1118.16,191.249 1118.64,193.227L1118.98,194.541C1119.15,195.219 1119.4,195.643 1119.74,195.813C1120.08,195.982 1120.91,196.067 1122.24,196.067L1132.16,196.067C1135.86,196.067 1137.71,197.367 1137.71,199.967C1137.71,203.556 1135.37,205.35 1130.68,205.35L1130.21,205.774C1125.72,210.07 1123.47,213.39 1123.47,215.736C1123.47,218.081 1124.77,219.254 1127.37,219.254L1132.71,219.254C1136.3,219.254 1138.1,220.497 1138.1,222.984C1138.1,224.736 1137.47,226.093 1136.21,227.053C1134.95,228.014 1133.19,228.495 1130.93,228.495L1122.62,228.495C1119.8,228.495 1117.49,227.52 1115.69,225.57C1113.9,223.62 1113,221.091 1113,217.982C1113,216.004 1113.48,214.082 1114.44,212.217C1115.4,210.352 1117.1,208.063 1119.53,205.35L1115.12,205.35Z" style="fill:white;fill-rule:nonzero;stroke:black;stroke-width:0.71px;stroke-linecap:butt;stroke-miterlimit:2;"/>
                </g>
                <g transform="matrix(0.989952,0.141403,-0.141403,0.989952,44.2678,-158.284)">
                    <path d="M1159.51,199.326C1163.61,199.326 1166.98,200.626 1169.62,203.226C1172.26,205.826 1173.58,209.132 1173.58,213.145C1173.58,216.169 1172.89,219.171 1171.5,222.153C1170.12,225.134 1168.32,227.515 1166.12,229.295C1164.65,230.454 1163.13,231.252 1161.56,231.69C1160,232.128 1157.8,232.347 1154.97,232.347C1150.37,232.347 1147.26,231.796 1145.65,230.694C1141.86,228.094 1139.97,224.251 1139.97,219.164C1139.97,213.795 1141.9,209.146 1145.77,205.218C1149.64,201.29 1154.22,199.326 1159.51,199.326ZM1158.49,208.355C1156.4,208.355 1154.49,209.387 1152.77,211.45C1151.04,213.513 1150.18,215.787 1150.18,218.274C1150.18,221.552 1152.02,223.191 1155.69,223.191C1157.84,223.191 1159.49,222.527 1160.65,221.199C1162.57,219.023 1163.54,216.536 1163.54,213.739C1163.54,212.128 1163.07,210.828 1162.14,209.839C1161.2,208.85 1159.99,208.355 1158.49,208.355Z" style="fill:white;fill-rule:nonzero;stroke:black;stroke-width:0.71px;stroke-linecap:butt;stroke-miterlimit:2;"/>
                </g>
                <g transform="matrix(0.984319,0.1764,-0.1764,0.984319,60.2279,-202.914)">
                    <path d="M1195.01,204.273C1199.11,204.273 1202.48,205.573 1205.12,208.173C1207.76,210.773 1209.08,214.079 1209.08,218.092C1209.08,221.115 1208.39,224.118 1207,227.099C1205.62,230.081 1203.83,232.461 1201.62,234.242C1200.15,235.4 1198.63,236.199 1197.06,236.637C1195.5,237.075 1193.3,237.294 1190.47,237.294C1185.87,237.294 1182.76,236.743 1181.15,235.641C1177.36,233.041 1175.47,229.198 1175.47,224.111C1175.47,218.742 1177.4,214.093 1181.27,210.165C1185.15,206.237 1189.72,204.273 1195.01,204.273ZM1193.99,213.302C1191.9,213.302 1189.99,214.333 1188.27,216.396C1186.55,218.459 1185.68,220.734 1185.68,223.221C1185.68,226.499 1187.52,228.138 1191.19,228.138C1193.34,228.138 1194.99,227.474 1196.15,226.146C1198.07,223.97 1199.04,221.483 1199.04,218.685C1199.04,217.074 1198.57,215.774 1197.64,214.785C1196.7,213.796 1195.49,213.302 1193.99,213.302Z" style="fill:white;fill-rule:nonzero;stroke:black;stroke-width:0.71px;stroke-linecap:butt;stroke-miterlimit:2;"/>
                </g>
                <g transform="matrix(0.977256,0.212062,-0.212062,0.977256,79.1116,-250.387)">
                    <path d="M1220.03,240.317L1208.97,267.53C1207.44,271.289 1205.21,273.168 1202.27,273.168C1201.14,273.168 1200.17,272.794 1199.37,272.045C1198.56,271.296 1198.16,270.399 1198.16,269.353C1198.16,268.477 1198.52,267.149 1199.22,265.368L1219.65,215.011C1220.7,212.467 1222.51,211.196 1225.08,211.196C1226.86,211.196 1228.27,212.044 1229.32,213.739C1231.3,211.648 1233.71,210.602 1236.57,210.602C1239.53,210.602 1241.93,211.726 1243.75,213.972C1245.57,216.219 1246.49,219.179 1246.49,222.853C1246.49,229.804 1244.32,235.47 1240,239.85C1238.59,241.292 1237.13,242.281 1235.63,242.818C1234.13,243.355 1232.04,243.623 1229.36,243.623C1226.48,243.623 1224.49,243.425 1223.4,243.03C1222.32,242.634 1221.19,241.73 1220.03,240.317ZM1223.51,231.669C1224.22,232.913 1224.89,233.718 1225.52,234.086C1226.16,234.453 1227.17,234.637 1228.55,234.637C1230.56,234.637 1232.13,233.888 1233.26,232.39C1235.55,229.366 1236.69,226.258 1236.69,223.065C1236.69,220.323 1235.39,218.953 1232.79,218.953C1229.94,218.953 1227.89,220.606 1226.65,223.912C1226.51,224.28 1226.39,224.591 1226.31,224.845L1223.51,231.669Z" style="fill:white;fill-rule:nonzero;stroke:black;stroke-width:0.71px;stroke-linecap:butt;stroke-miterlimit:2;"/>
                </g>
                <g transform="matrix(0.959179,0.2828,-0.2828,0.959179,121.903,-341.506)">
                    <path d="M1276.83,242.264L1281.49,242.264C1285.05,242.264 1286.83,243.508 1286.83,245.994C1286.83,247.718 1286.19,249.068 1284.92,250.043C1283.65,251.017 1281.9,251.505 1279.67,251.505L1274.24,251.505C1271.81,251.505 1270.16,250.558 1269.28,248.665C1267.16,250.558 1265.11,251.505 1263.14,251.505L1258.3,251.505C1255.19,251.505 1252.69,250.396 1250.78,248.177C1248.87,245.959 1247.92,243.055 1247.92,239.467C1247.92,234.041 1249.79,229.187 1253.54,224.906C1257.28,220.625 1261.51,218.484 1266.23,218.484C1269.85,218.484 1272.49,219.742 1274.16,222.257C1275.57,220.137 1277.42,219.078 1279.71,219.078C1280.95,219.078 1281.99,219.473 1282.83,220.264C1283.66,221.056 1284.08,222.031 1284.08,223.189C1284.08,223.981 1283.85,224.927 1283.4,226.029L1282.93,227.174L1276.83,242.264ZM1261.44,242.476L1262.5,242.476C1264.82,242.476 1266.36,241.529 1267.12,239.636L1270.09,232.303C1270.48,231.342 1270.68,230.537 1270.68,229.887C1270.68,229.124 1270.31,228.46 1269.56,227.894C1268.81,227.329 1267.91,227.047 1266.87,227.047C1264.8,227.047 1262.8,228.248 1260.85,230.65C1258.9,233.052 1257.92,235.539 1257.92,238.11C1257.92,241.021 1259.1,242.476 1261.44,242.476Z" style="fill:white;fill-rule:nonzero;stroke:black;stroke-width:0.7px;stroke-linecap:butt;stroke-miterlimit:2;"/>
                </g>
                <g transform="matrix(0.932215,0.361906,-0.361906,0.932215,182.096,-446.453)">
                    <path d="M1300.95,242.023L1300.15,243.972C1298.9,246.77 1297.14,248.169 1294.85,248.169C1293.69,248.169 1292.65,247.766 1291.73,246.961C1290.81,246.156 1290.36,245.23 1290.36,244.184C1290.36,243.195 1290.76,241.881 1291.58,240.242L1297.22,228.797C1298.61,226.056 1300.33,224.686 1302.39,224.686C1303.5,224.686 1304.44,225.046 1305.23,225.767C1306.02,226.487 1306.42,227.342 1306.42,228.331C1306.42,228.585 1306.34,229.136 1306.17,229.984C1306.05,230.606 1306,231.157 1306,231.637C1306,233.418 1306.66,235.24 1307.99,237.106L1310.4,240.454C1312.86,243.874 1314.09,247.18 1314.09,250.373C1314.09,253.934 1312.76,256.908 1310.11,259.296C1307.45,261.684 1304.14,262.878 1300.19,262.878L1291.33,262.878C1287.74,262.878 1285.95,261.634 1285.95,259.148C1285.95,257.424 1286.58,256.074 1287.85,255.1C1289.12,254.125 1290.88,253.637 1293.11,253.637L1298.03,253.637C1301.95,253.637 1303.92,252.21 1303.92,249.356C1303.92,248.31 1303.55,247.081 1302.82,245.668L1300.95,242.023Z" style="fill:white;fill-rule:nonzero;stroke:black;stroke-width:0.7px;stroke-linecap:butt;stroke-miterlimit:2;"/>
                </g>
            </g>
        </g>
    </g>
</svg>
