<?xml version="1.0" encoding="UTF-8" standalone="no"?><!DOCTYPE svg PUBLIC "-//W3C//DTD SVG 1.1//EN" "http://www.w3.org/Graphics/SVG/1.1/DTD/svg11.dtd"><svg width="450px" height="161px" version="1.1" xmlns="http://www.w3.org/2000/svg" xmlns:xlink="http://www.w3.org/1999/xlink" xml:space="preserve" xmlns:serif="http://www.serif.com/" style="fill-rule:evenodd;clip-rule:evenodd;stroke-linecap:round;stroke-linejoin:round;stroke-miterlimit:1.5;"><path d="M450,40.079c0,-22.12 -17.959,-40.079 -40.079,-40.079l-369.842,0c-22.12,0 -40.079,17.959 -40.079,40.079l-0,80.159c-0,22.121 17.959,40.08 40.079,40.08l369.842,-0c22.12,-0 40.079,-17.959 40.079,-40.08l0,-80.159Z" style="fill-opacity:0;"/><clipPath id="_clip1"><path d="M450,40.079c0,-22.12 -17.959,-40.079 -40.079,-40.079l-369.842,0c-22.12,0 -40.079,17.959 -40.079,40.079l-0,80.159c-0,22.121 17.959,40.08 40.079,40.08l369.842,-0c22.12,-0 40.079,-17.959 40.079,-40.08l0,-80.159Z"/></clipPath><g clip-path="url(#_clip1)"><g id="mängu-logo" serif:id="mängu logo"><g id="lennuk"><path d="M225.004,131.182c9.291,0.365 21.632,-5.424 21.632,-5.424l2.021,-4.299l18.026,-4.653c-0,-0 19.062,-5.228 19.368,-3.943c0.306,1.285 0.932,3.018 1.516,3.224c0.584,0.205 1.991,0.967 3.032,-0.538c1.041,-1.505 -0,-4.298 -0,-4.298l5.053,-1.074c-0,-0 0.055,2.577 -0,2.686c-2.367,2.526 -6.133,5.174 -7.074,12.895c1.528,21.29 16.364,17.076 18.191,16.655c1.827,-0.421 12.982,-6.082 10.612,-21.491c-3.781,-10.853 -12.128,-10.745 -12.128,-10.745l0,-1.612c0,-0 9.02,-2 14.149,-2.686c0.583,2.313 0.462,4.042 3.537,3.76c3.076,-0.281 4.548,-5.372 4.548,-5.372c0,-0 36.146,-7.858 36.383,-6.985c0.237,0.873 -0.07,3.172 2.94,2.683c3.01,-0.489 3.629,-4.832 3.629,-4.832c42.933,-9.143 71.755,-22.565 71.755,-22.565c0,-0 -1.207,-1.167 -1.01,-0.538c-44.377,14.13 -55.08,15.581 -55.08,15.581l-35.372,7.522l-21.224,3.761l-28.297,4.298l-50.532,3.761l1.516,-3.224l35.372,-7.521l0.505,-1.612l1.011,-0l-0,-1.075c-0,0 -35.761,5.504 -35.878,4.836c-0.117,-0.669 0.744,-10.31 -0.505,-13.432c-1.249,-3.122 -0.632,-6.39 -7.58,-13.432c-6.948,-7.042 -18.697,-8.059 -18.697,-8.059l-1.01,-43.519l-1.011,-0l-1.011,43.519c0,-0 -11.749,1.017 -18.696,8.059c-6.948,7.042 -6.331,10.31 -7.58,13.432c-1.249,3.122 -0.389,12.763 -0.505,13.432c-0.117,0.668 -35.878,-4.836 -35.878,-4.836l-0,1.075l1.01,-0l0.506,1.612l35.372,7.521l1.516,3.224l-50.532,-3.761l-28.298,-4.298l-21.223,-3.761l-35.372,-7.522c-0,0 -10.703,-1.451 -55.08,-15.581c0.197,-0.629 -1.011,0.538 -1.011,0.538c0,-0 28.823,13.422 71.756,22.565c-0,0 0.619,4.343 3.629,4.832c3.01,0.489 2.702,-1.81 2.94,-2.683c0.237,-0.873 36.383,6.985 36.383,6.985c-0,-0 1.472,5.091 4.547,5.372c3.076,0.282 2.954,-1.447 3.538,-3.76c5.129,0.686 14.149,2.686 14.149,2.686l-0,1.612c-0,-0 -8.347,-0.108 -12.128,10.745c-2.37,15.409 7.774,20.533 10.612,21.491c1.782,0.602 17.674,2.486 18.191,-16.655c-0.941,-7.721 -4.707,-10.369 -7.074,-12.895c-0.055,-0.109 -0,-2.686 -0,-2.686l5.053,1.074c-0,0 -1.041,2.793 -0,4.298c1.041,1.505 2.448,0.743 3.032,0.538c0.584,-0.206 1.21,-1.939 1.516,-3.224c0.305,-1.285 19.368,3.943 19.368,3.943l18.025,4.653l2.022,4.299c-0,-0 11.522,5.789 21.825,5.424Z" style="fill:#fff;stroke:#000;stroke-width:1.8px;"/><path d="M223.391,63.434l1.011,-43.519l1.011,-0l1.01,43.519l-3.032,-0Z" style="fill:#000100;stroke:#000;stroke-width:1.8px;"/><path d="M213.79,80.627l10.107,0.537l-0,7.522l-2.097,0.629l-11.206,0.489l3.196,-9.177Z" style="fill:#000100;stroke:#000;stroke-width:1.8px;"/><path d="M236.53,80.627l-10.107,0.537l0,7.522l2.097,0.629l11.206,0.489l-3.196,-9.177Z" style="fill:#000100;stroke:#000;stroke-width:1.8px;"/><path d="M203.179,83.313l3.032,-2.149c-0,-0 -3.411,7.486 -3.538,10.208c-1.852,-0.714 -2.021,-1.612 -2.021,-1.612l2.527,-6.447Z" style="fill:#000100;stroke:#000;stroke-width:1.8px;"/><path d="M247.141,83.313l-3.032,-2.149c0,-0 3.411,7.486 3.538,10.208c1.852,-0.714 2.021,-1.612 2.021,-1.612l-2.527,-6.447Z" style="fill:#000100;stroke:#000;stroke-width:1.8px;"/><path d="M207.727,81.164l4.547,-0c0,-0 -2.9,7.324 -3.032,8.059c-0.131,0.736 -1.478,-0.515 -5.558,2.149c1.961,-6.176 4.069,-10.482 4.043,-10.208Z" style="fill:#000100;stroke:#000;stroke-width:1.8px;"/><path d="M242.594,81.164l-4.548,-0c-0,-0 2.9,7.324 3.032,8.059c0.131,0.736 1.478,-0.515 5.558,2.149c-1.961,-6.176 -4.069,-10.482 -4.042,-10.208Z" style="fill:#000100;stroke:#000;stroke-width:1.8px;"/><path d="M197.096,98.367l1.029,5.362l-35.856,-7.521l-0.513,-1.612l-1.024,-0l-0,-1.075l36.364,4.846Z"/><path d="M252.719,98.367l-1.03,5.362l35.857,-7.521l0.512,-1.612l1.025,-0l-0,-1.075l-36.364,4.846Z"/><ellipse cx="303.484" cy="126.87" rx="15.665" ry="17.768" style="fill:#fff;stroke:#000;stroke-width:1.8px;"/><ellipse cx="303.484" cy="126.832" rx="10.864" ry="12.895"/><ellipse cx="303.232" cy="126.295" rx="4.043" ry="4.298" style="fill:#0071cd;stroke:#000;stroke-width:1.8px;"/><ellipse cx="146.583" cy="126.87" rx="15.665" ry="17.768" style="fill:#fff;stroke:#000;stroke-width:1.8px;"/><ellipse cx="146.836" cy="126.832" rx="10.864" ry="12.895"/><ellipse cx="147.088" cy="126.295" rx="4.043" ry="4.298" style="fill:#0071cd;stroke:#000;stroke-width:1.8px;"/></g><g id="mask"><path d="M224.883,135.966c2.055,0.636 5.303,-1.525 7.58,-2.687c2.097,-0.807 14.235,-10.927 14.654,-11.82c0.419,-0.892 0.506,-2.686 0.506,-2.686c-0,0 0.705,0.202 1.516,0c0.057,-0.911 -0.016,-1.577 1.01,-3.761c1.027,-2.183 1.315,-3.772 1.516,-5.91c0.201,-2.137 -0.912,-3.818 -1.516,-5.373c-0.604,-1.554 0,-7.521 0,-7.521c0,-0 -9.638,-0.703 -18.191,-2.149c-2.534,-2.069 -7.075,-2.15 -7.075,-2.15l0.024,0c0,0 -4.54,0.081 -7.074,2.15c-8.554,1.446 -18.192,2.149 -18.192,2.149c0,-0 0.605,5.967 0,7.521c-0.604,1.555 -1.717,3.236 -1.516,5.373c0.202,2.138 0.49,3.727 1.516,5.91c1.027,2.184 0.954,2.85 1.011,3.761c0.811,0.202 1.516,0 1.516,0c0,0 0.086,1.794 0.505,2.686c0.419,0.893 12.558,11.013 14.655,11.82c2.277,1.162 5.524,3.323 7.579,2.687" style="fill:#0e4d82;stroke:#000;stroke-width:1.8px;"/><path d="M201.663,99.969l16.675,-2.15c0,0 4.126,-1.611 6.569,-1.611c2.896,-0.001 6.064,1.611 6.064,1.611l16.676,2.15" style="fill:none;stroke:#000;stroke-width:1.8px;"/><path d="M201.157,109.639c0,0 17.343,-3.297 23.245,-3.223c5.917,0.073 22.739,3.223 22.739,3.223" style="fill:none;stroke:#000;stroke-width:1.8px;"/><path d="M201.663,114.475c-0,-0 1.722,0.721 3.537,1.074c1.815,0.354 17.946,2.853 19.707,2.687c1.779,0.113 17.387,-2.333 19.202,-2.687c1.816,-0.353 3.538,-1.074 3.538,-1.074" style="fill:none;stroke:#000;stroke-width:1.8px;"/><path d="M203.684,119.31c-0,0 5.714,2.744 7.074,3.224c1.361,0.48 9.373,3.797 13.644,3.761c4.271,-0.036 -3.766,-0.036 0.505,-0c4.272,0.036 12.283,-3.281 13.644,-3.761c1.361,-0.48 7.074,-3.224 7.074,-3.224" style="fill:none;stroke:#000;stroke-width:1.8px;"/><path d="M199.717,97.044c-0,-0 -1.289,-1.087 -3.107,-5.135c-0.09,-0.296 -0.572,-0.97 -1.011,0c-0.628,3.501 -1.206,5.574 -0.505,10.209c0.7,4.634 3.314,7.697 3.031,7.521c-0.283,-0.175 0.506,-3.76 0.506,-3.76l1.516,-2.687l-0.43,-6.148Z" style="fill:none;stroke:#000;stroke-width:1.8px;"/><path d="M250.283,96.507c0,-0 1.289,-1.088 3.107,-5.135c0.09,-0.297 0.572,-0.97 1.011,0c0.628,3.501 1.206,5.574 0.505,10.208c-0.7,4.635 -3.314,7.698 -3.031,7.522c0.283,-0.176 -0.506,-3.761 -0.506,-3.761l-1.516,-2.686l0.43,-6.148Z" style="fill:none;stroke:#000;stroke-width:1.8px;"/></g><g transform="matrix(1.35425,0,0,1.43989,-722.545,-271.803)"><g transform="matrix(0.969511,-0.245048,0.245048,0.969511,-40.8594,147.682)"><path d="M597.745,229.289l3.28,7.787c0.425,1.005 0.979,1.507 1.663,1.507l0.621,-0.015l6.497,-0c1.43,-0 2.145,0.487 2.145,1.461c0,0.715 -0.249,1.269 -0.746,1.663c-0.497,0.394 -1.207,0.591 -2.129,0.591l-7.165,-0c-1.969,-0 -3.337,-0.933 -4.104,-2.798l-4.491,-10.818l-2.083,5.129c-0.995,2.456 -1.702,4.117 -2.122,4.982c-0.419,0.865 -0.904,1.665 -1.453,2.401c-1.979,2.673 -4.471,4.01 -7.476,4.01c-2.186,0 -3.958,-0.684 -5.315,-2.052c-1.358,-1.367 -2.036,-3.16 -2.036,-5.377c-0,-2.891 1.067,-5.435 3.201,-7.632c1.151,-1.171 2.591,-2.116 4.321,-2.836c1.731,-0.72 3.445,-1.08 5.145,-1.08c0.808,-0 1.463,0.184 1.966,0.551c0.502,0.368 0.754,0.847 0.754,1.438c-0,0.642 -0.27,1.155 -0.809,1.539c-0.31,0.217 -0.911,0.373 -1.802,0.466c-2.073,0.187 -3.736,0.658 -4.99,1.414c-1.056,0.643 -1.891,1.472 -2.502,2.487c-0.611,1.016 -0.917,2.078 -0.917,3.186c0,1.171 0.298,2.096 0.894,2.775c0.596,0.678 1.406,1.018 2.432,1.018c1.264,-0 2.36,-0.534 3.287,-1.601c0.928,-1.067 1.946,-2.964 3.055,-5.689l5.377,-13.257l-1.601,-0c-1.43,-0 -2.145,-0.493 -2.145,-1.477c0,-0.715 0.249,-1.267 0.747,-1.655c0.497,-0.389 1.201,-0.583 2.113,-0.583l5.16,-0c1.347,-0 2.334,0.078 2.961,0.233c0.627,0.155 1.231,0.477 1.811,0.964c1.202,1.005 1.803,2.419 1.803,4.243c-0,1.658 -0.49,3.132 -1.469,4.422c-0.979,1.29 -2.272,2.157 -3.878,2.603Zm-3.497,-2.922l0.451,-0.031c1.181,-0.073 2.062,-0.301 2.642,-0.684c1.119,-0.736 1.679,-1.725 1.679,-2.969c-0,-1.429 -0.684,-2.144 -2.052,-2.144l-0.342,-0l-2.378,5.828Z" style="fill:#fff;fill-rule:nonzero;stroke:#000;stroke-width:0.73px;stroke-linecap:butt;stroke-miterlimit:2;"/></g><g transform="matrix(0.982856,-0.184374,0.184374,0.982856,-32.2704,114.862)"><path d="M606.698,226.403c0,0.778 0.586,1.166 1.757,1.166l4.616,0c1.305,0 1.958,0.461 1.958,1.383c0,0.632 -0.23,1.125 -0.691,1.477c-0.462,0.352 -1.107,0.528 -1.935,0.528l-4.399,0c-1.637,0 -2.883,-0.404 -3.738,-1.212c-0.855,-0.808 -1.282,-1.989 -1.282,-3.544c-0,-1.999 0.676,-3.725 2.028,-5.175c1.352,-1.451 2.961,-2.176 4.826,-2.176c1.357,-0 2.448,0.355 3.272,1.064c0.823,0.71 1.235,1.645 1.235,2.806c0,1.399 -0.57,2.435 -1.709,3.108c-0.632,0.384 -1.575,0.575 -2.829,0.575l-3.109,0Zm0.746,-2.828l1.71,-0c1.109,-0 1.648,-0.244 1.617,-0.731c-0.032,-0.549 -0.389,-0.824 -1.073,-0.824c-0.953,0 -1.704,0.519 -2.254,1.555Z" style="fill:#fff;fill-rule:nonzero;stroke:#000;stroke-width:0.72px;stroke-linecap:butt;stroke-miterlimit:2;"/></g><g transform="matrix(0.988014,-0.154362,0.154362,0.988014,-27.931,97.512)"><path d="M619.742,225.229l1.757,-0c1.305,-0 1.958,0.461 1.958,1.383c-0,0.632 -0.231,1.124 -0.692,1.477c-0.461,0.352 -1.106,0.528 -1.935,0.528l-2.471,0c-0.912,0 -1.629,-0.186 -2.153,-0.559c-0.523,-0.374 -0.785,-0.881 -0.785,-1.524c0,-0.342 0.109,-0.777 0.327,-1.305l2.564,-6.31l0.171,-0.436c0.477,-1.171 1.244,-1.756 2.301,-1.756c0.435,0 0.81,0.145 1.126,0.435c0.316,0.29 0.474,0.637 0.474,1.042c0,0.331 -0.139,0.839 -0.419,1.523l-2.223,5.502Zm2.052,-13.46c0.601,-0 1.111,0.21 1.531,0.629c0.419,0.42 0.629,0.93 0.629,1.531c0,0.601 -0.21,1.112 -0.629,1.531c-0.42,0.42 -0.93,0.63 -1.531,0.63c-0.601,-0 -1.111,-0.21 -1.531,-0.63c-0.42,-0.419 -0.63,-0.93 -0.63,-1.531c0,-0.601 0.21,-1.111 0.63,-1.531c0.42,-0.419 0.93,-0.629 1.531,-0.629Z" style="fill:#fff;fill-rule:nonzero;stroke:#000;stroke-width:0.72px;stroke-linecap:butt;stroke-miterlimit:2;"/></g><g transform="matrix(0.991253,-0.131978,0.131978,0.991253,-24.5466,84.142)"><path d="M629.122,219.601l-0.295,0.715c-0.456,1.026 -1.104,1.539 -1.943,1.539c-0.425,-0 -0.806,-0.148 -1.143,-0.443c-0.336,-0.295 -0.505,-0.635 -0.505,-1.018c0,-0.363 0.151,-0.845 0.451,-1.445l2.067,-4.197c0.508,-1.005 1.14,-1.508 1.896,-1.508c0.404,0 0.752,0.133 1.042,0.397c0.29,0.264 0.435,0.577 0.435,0.94c-0,0.093 -0.031,0.295 -0.093,0.606c-0.042,0.228 -0.063,0.43 -0.063,0.606c0,0.653 0.244,1.321 0.731,2.005l0.886,1.228c0.901,1.254 1.352,2.466 1.352,3.637c0,1.306 -0.487,2.396 -1.461,3.272c-0.974,0.875 -2.186,1.313 -3.637,1.313l-3.248,0c-1.316,0 -1.974,-0.456 -1.974,-1.368c-0,-0.632 0.233,-1.126 0.699,-1.484c0.467,-0.357 1.109,-0.536 1.928,-0.536l1.803,-0c1.44,-0 2.16,-0.523 2.16,-1.57c-0,-0.383 -0.135,-0.834 -0.404,-1.352l-0.684,-1.337Z" style="fill:#fff;fill-rule:nonzero;stroke:#000;stroke-width:0.72px;stroke-linecap:butt;stroke-miterlimit:2;"/></g><g transform="matrix(0.994065,-0.108784,0.108784,0.994065,-20.8015,70.2517)"><path d="M639.253,222.388l1.756,0c1.306,0 1.959,0.461 1.959,1.383c-0,0.633 -0.231,1.125 -0.692,1.477c-0.461,0.352 -1.106,0.528 -1.935,0.528l-2.471,0c-0.912,0 -1.63,-0.186 -2.153,-0.559c-0.523,-0.373 -0.785,-0.881 -0.785,-1.523c0,-0.342 0.109,-0.777 0.327,-1.306l2.564,-6.31l0.171,-0.435c0.477,-1.171 1.244,-1.757 2.3,-1.757c0.436,0 0.811,0.146 1.127,0.436c0.316,0.29 0.474,0.637 0.474,1.041c0,0.332 -0.14,0.839 -0.419,1.523l-2.223,5.502Zm2.052,-13.46c0.601,0 1.111,0.21 1.531,0.63c0.419,0.42 0.629,0.93 0.629,1.531c0,0.601 -0.21,1.111 -0.629,1.531c-0.42,0.419 -0.93,0.629 -1.531,0.629c-0.601,0 -1.112,-0.21 -1.531,-0.629c-0.42,-0.42 -0.63,-0.93 -0.63,-1.531c0,-0.601 0.21,-1.111 0.63,-1.531c0.419,-0.42 0.93,-0.63 1.531,-0.63Z" style="fill:#fff;fill-rule:nonzero;stroke:#000;stroke-width:0.72px;stroke-linecap:butt;stroke-miterlimit:2;"/></g><g transform="matrix(0.99696,-0.0779202,0.0779202,0.99696,-15.5558,50.7131)"><path d="M662.225,221.302l1.85,-0c1.305,-0 1.958,0.461 1.958,1.383c0,0.632 -0.23,1.124 -0.691,1.477c-0.462,0.352 -1.101,0.528 -1.92,0.528l-3.155,0c-0.684,0 -1.238,-0.181 -1.663,-0.544c-0.425,-0.362 -0.637,-0.839 -0.637,-1.43c-0,-0.404 0.14,-0.953 0.419,-1.647l1.461,-3.559c0.083,-0.208 0.125,-0.399 0.125,-0.576c-0,-0.673 -0.342,-1.01 -1.026,-1.01c-0.529,0 -1.052,0.239 -1.57,0.715c-0.518,0.477 -0.932,1.109 -1.243,1.896l-1.741,4.29c-0.57,1.389 -1.399,2.083 -2.487,2.083c-0.425,-0 -0.787,-0.14 -1.088,-0.42c-0.3,-0.28 -0.451,-0.611 -0.451,-0.995c0,-0.3 0.078,-0.652 0.234,-1.057l0.17,-0.419l1.757,-4.337c0.155,-0.383 0.233,-0.683 0.233,-0.901c-0,-0.228 -0.104,-0.427 -0.311,-0.598c-0.207,-0.171 -0.451,-0.257 -0.73,-0.257c-1.119,0 -2.005,0.808 -2.658,2.425l-1.819,4.461c-0.57,1.398 -1.393,2.098 -2.471,2.098c-0.425,-0 -0.79,-0.138 -1.096,-0.412c-0.305,-0.275 -0.458,-0.609 -0.458,-1.003c-0,-0.31 0.078,-0.663 0.233,-1.057l0.171,-0.419l3.093,-7.616c0.435,-1.067 1.088,-1.601 1.958,-1.601c0.902,0 1.461,0.425 1.679,1.275c0.704,-0.601 1.277,-1 1.717,-1.197c0.441,-0.197 0.982,-0.295 1.624,-0.295c1.389,-0 2.43,0.606 3.125,1.818c1.16,-1.212 2.466,-1.818 3.916,-1.818c0.995,-0 1.826,0.287 2.495,0.862c0.668,0.575 1.002,1.282 1.002,2.122c0,0.528 -0.114,1.072 -0.342,1.632l-1.663,4.103Z" style="fill:#fff;fill-rule:nonzero;stroke:#000;stroke-width:0.72px;stroke-linecap:butt;stroke-miterlimit:2;"/></g><g transform="matrix(0.998828,-0.0483953,0.0483953,0.998828,-10.0112,32.4478)"><path d="M670.857,219.578l1.756,-0c1.306,-0 1.959,0.461 1.959,1.383c-0,0.632 -0.231,1.124 -0.692,1.477c-0.461,0.352 -1.106,0.528 -1.935,0.528l-2.471,0c-0.912,0 -1.629,-0.186 -2.153,-0.559c-0.523,-0.373 -0.785,-0.881 -0.785,-1.524c0,-0.342 0.109,-0.777 0.327,-1.305l2.564,-6.31l0.171,-0.436c0.477,-1.17 1.244,-1.756 2.301,-1.756c0.435,0 0.81,0.145 1.126,0.435c0.316,0.29 0.474,0.638 0.474,1.042c0,0.331 -0.139,0.839 -0.419,1.523l-2.223,5.502Zm2.052,-13.46c0.601,0 1.111,0.21 1.531,0.629c0.419,0.42 0.629,0.93 0.629,1.531c0,0.601 -0.21,1.112 -0.629,1.531c-0.42,0.42 -0.93,0.63 -1.531,0.63c-0.601,-0 -1.112,-0.21 -1.531,-0.63c-0.42,-0.419 -0.63,-0.93 -0.63,-1.531c0,-0.601 0.21,-1.111 0.63,-1.531c0.419,-0.419 0.93,-0.629 1.531,-0.629Z" style="fill:#fff;fill-rule:nonzero;stroke:#000;stroke-width:0.72px;stroke-linecap:butt;stroke-miterlimit:2;"/></g><g transform="matrix(0.999609,-0.0279526,0.0279526,0.999609,-5.95581,18.9191)"><path d="M686.695,219.098l1.865,-0c1.316,-0 1.974,0.461 1.974,1.383c0,0.632 -0.233,1.124 -0.699,1.477c-0.467,0.352 -1.109,0.528 -1.928,0.528l-3.248,0c-0.632,0 -1.163,-0.192 -1.593,-0.575c-0.43,-0.383 -0.645,-0.865 -0.645,-1.445c-0,-0.353 0.145,-0.881 0.435,-1.586l1.368,-3.388c0.145,-0.352 0.223,-0.637 0.233,-0.855c0.01,-0.248 -0.091,-0.461 -0.303,-0.637c-0.212,-0.176 -0.484,-0.264 -0.816,-0.264c-1.067,-0 -1.927,0.803 -2.58,2.409l-1.834,4.507c-0.549,1.368 -1.368,2.052 -2.456,2.052c-0.445,-0 -0.824,-0.135 -1.134,-0.404c-0.311,-0.27 -0.467,-0.601 -0.467,-0.995c0,-0.29 0.083,-0.637 0.249,-1.041l0.171,-0.42l3.14,-7.74c0.404,-1.005 1.093,-1.508 2.067,-1.508c0.798,0 1.367,0.352 1.709,1.057c1.109,-0.85 2.166,-1.274 3.171,-1.274c0.974,-0 1.777,0.279 2.409,0.839c0.632,0.559 0.948,1.269 0.948,2.129c0,0.477 -0.114,1 -0.342,1.57l-1.694,4.181Z" style="fill:#fff;fill-rule:nonzero;stroke:#000;stroke-width:0.72px;stroke-linecap:butt;stroke-miterlimit:2;"/></g><g transform="matrix(0.999992,-0.00411411,0.00411411,0.999992,-0.907645,2.83892)"><path d="M694.779,217.482c0,0.777 0.586,1.166 1.757,1.166l4.616,-0c1.305,-0 1.958,0.461 1.958,1.383c0,0.632 -0.23,1.124 -0.691,1.477c-0.462,0.352 -1.107,0.528 -1.935,0.528l-4.399,0c-1.637,0 -2.883,-0.404 -3.738,-1.212c-0.855,-0.808 -1.282,-1.99 -1.282,-3.544c-0,-2 0.676,-3.725 2.028,-5.176c1.352,-1.45 2.961,-2.176 4.826,-2.176c1.357,0 2.448,0.355 3.272,1.065c0.823,0.71 1.235,1.645 1.235,2.806c0,1.398 -0.57,2.435 -1.709,3.108c-0.632,0.383 -1.575,0.575 -2.829,0.575l-3.109,0Zm0.746,-2.829l1.71,0c1.109,0 1.648,-0.243 1.617,-0.73c-0.032,-0.549 -0.389,-0.824 -1.073,-0.824c-0.953,0 -1.704,0.518 -2.254,1.554Z" style="fill:#fff;fill-rule:nonzero;stroke:#000;stroke-width:0.72px;stroke-linecap:butt;stroke-miterlimit:2;"/></g><g transform="matrix(0.999166,0.0408323,-0.0408323,0.999166,9.65415,-28.8149)"><path d="M724.909,210.256l3.139,-7.6c0.342,-0.84 0.684,-1.373 1.026,-1.601c0.342,-0.228 0.979,-0.342 1.912,-0.342l8.02,-0c1.43,-0 2.145,0.487 2.145,1.461c-0,0.642 -0.236,1.179 -0.707,1.609c-0.472,0.43 -1.055,0.645 -1.749,0.645l-7.041,-0l-2.362,5.828l2.347,0c1.16,0 1.74,0.503 1.74,1.508c0,0.611 -0.238,1.132 -0.714,1.562c-0.477,0.43 -1.057,0.645 -1.741,0.645l-3.14,-0l-3.45,8.486l11.144,-0c1.16,-0 1.74,0.487 1.74,1.461c0,0.642 -0.235,1.179 -0.707,1.609c-0.471,0.43 -1.054,0.645 -1.748,0.645l-11.937,-0l-0.202,0.435c-0.725,1.616 -1.293,2.751 -1.702,3.404c-0.409,0.652 -0.945,1.284 -1.608,1.896c-1.731,1.585 -3.72,2.378 -5.969,2.378c-1.834,-0 -3.344,-0.544 -4.53,-1.632c-1.187,-1.088 -1.78,-2.471 -1.78,-4.15c-0,-1.047 0.254,-2.026 0.762,-2.938c0.507,-0.911 1.196,-1.621 2.067,-2.129c1.129,-0.653 2.657,-0.979 4.585,-0.979l5.502,-0l3.45,-8.486l-0.513,-0c-1.16,-0 -1.74,-0.508 -1.74,-1.523c-0,-0.612 0.238,-1.13 0.714,-1.555c0.477,-0.425 1.057,-0.637 1.741,-0.637l1.306,0Zm-6.466,15.916l-4.103,-0c-2.031,-0 -3.046,0.72 -3.046,2.16c-0,0.591 0.225,1.085 0.676,1.484c0.45,0.399 1.007,0.599 1.67,0.599c0.933,-0 1.827,-0.379 2.682,-1.135c0.854,-0.756 1.562,-1.793 2.121,-3.108Z" style="fill:#fff;fill-rule:nonzero;stroke:#000;stroke-width:0.71px;stroke-linecap:butt;stroke-miterlimit:2;"/></g><g transform="matrix(0.997059,0.0766437,-0.0766437,0.997059,19.2527,-55.6896)"><path d="M747.58,219.595l1.803,-0c0.715,-0 1.223,0.106 1.523,0.318c0.301,0.213 0.451,0.562 0.451,1.049c-0,0.632 -0.231,1.127 -0.692,1.485c-0.461,0.357 -1.106,0.536 -1.935,0.536l-2.782,-0c-0.87,-0 -1.45,-0.337 -1.741,-1.01c-0.569,0.673 -1.284,1.01 -2.144,1.01l-2.27,-0c-0.911,-0 -1.668,-0.285 -2.269,-0.855c-0.601,-0.57 -0.901,-1.29 -0.901,-2.16c-0,-0.498 0.134,-1.078 0.404,-1.741l2.114,-5.191c0.59,-1.441 1.398,-2.161 2.424,-2.161c0.446,0 0.824,0.143 1.135,0.428c0.311,0.285 0.466,0.634 0.466,1.049c0,0.311 -0.083,0.668 -0.249,1.072l-0.171,0.42l-1.632,3.994l-0.17,0.467c-0.094,0.269 -0.146,0.471 -0.156,0.606c-0.021,0.466 0.28,0.699 0.902,0.699c1.284,0 2.139,-0.518 2.564,-1.554l1.943,-4.787c0.58,-1.451 1.399,-2.176 2.456,-2.176c0.435,-0 0.808,0.145 1.119,0.435c0.311,0.29 0.466,0.637 0.466,1.041c-0,0.322 -0.135,0.819 -0.404,1.492l-2.254,5.534Z" style="fill:#fff;fill-rule:nonzero;stroke:#000;stroke-width:0.71px;stroke-linecap:butt;stroke-miterlimit:2;"/></g><g transform="matrix(0.994547,0.104291,-0.104291,0.994547,27.4676,-77.0392)"><path d="M755.762,215.651l-0.529,1.306c-0.476,1.16 -1.098,1.74 -1.865,1.74c-0.466,0 -0.855,-0.14 -1.165,-0.419c-0.311,-0.28 -0.467,-0.627 -0.467,-1.042c0,-0.238 0.114,-0.642 0.342,-1.212l1.756,-4.336c0.425,-1.047 1.026,-1.57 1.803,-1.57c0.767,-0 1.239,0.363 1.415,1.088l0.124,0.482c0.062,0.248 0.156,0.404 0.28,0.466c0.124,0.062 0.43,0.093 0.917,0.093l3.637,0c1.357,0 2.036,0.477 2.036,1.43c-0,1.316 -0.86,1.974 -2.58,1.974l-0.171,0.155c-1.648,1.575 -2.471,2.793 -2.471,3.653c-0,0.86 0.476,1.29 1.43,1.29l1.958,-0c1.316,-0 1.974,0.456 1.974,1.368c-0,0.642 -0.231,1.139 -0.692,1.492c-0.461,0.352 -1.106,0.528 -1.935,0.528l-3.046,0c-1.036,0 -1.883,-0.357 -2.541,-1.072c-0.658,-0.715 -0.987,-1.643 -0.987,-2.782c-0,-0.726 0.176,-1.43 0.528,-2.114c0.352,-0.684 0.974,-1.523 1.865,-2.518l-1.616,0Z" style="fill:#fff;fill-rule:nonzero;stroke:#000;stroke-width:0.71px;stroke-linecap:butt;stroke-miterlimit:2;"/></g><g transform="matrix(0.991125,0.132934,-0.132934,0.991125,36.745,-99.47)"><path d="M771.978,213.347c1.502,-0 2.738,0.476 3.707,1.43c0.968,0.953 1.453,2.165 1.453,3.637c-0,1.108 -0.254,2.209 -0.762,3.302c-0.507,1.094 -1.165,1.967 -1.974,2.619c-0.538,0.425 -1.095,0.718 -1.67,0.879c-0.576,0.16 -1.381,0.24 -2.417,0.24c-1.689,0 -2.829,-0.202 -3.42,-0.606c-1.388,-0.953 -2.082,-2.362 -2.082,-4.227c-0,-1.969 0.709,-3.673 2.129,-5.114c1.42,-1.44 3.098,-2.16 5.036,-2.16Zm-0.373,3.31c-0.767,0 -1.466,0.379 -2.099,1.135c-0.632,0.756 -0.948,1.591 -0.948,2.502c0,1.202 0.674,1.803 2.021,1.803c0.787,0 1.394,-0.243 1.818,-0.73c0.705,-0.798 1.057,-1.71 1.057,-2.736c0,-0.59 -0.171,-1.067 -0.513,-1.43c-0.342,-0.362 -0.787,-0.544 -1.336,-0.544Z" style="fill:#fff;fill-rule:nonzero;stroke:#000;stroke-width:0.71px;stroke-linecap:butt;stroke-miterlimit:2;"/></g><g transform="matrix(0.986128,0.165984,-0.165984,0.986128,48.4763,-125.72)"><path d="M785.069,215.061c1.502,0 2.738,0.477 3.706,1.43c0.969,0.953 1.454,2.166 1.454,3.637c-0,1.109 -0.254,2.21 -0.762,3.303c-0.508,1.093 -1.166,1.966 -1.974,2.619c-0.539,0.425 -1.096,0.717 -1.671,0.878c-0.575,0.161 -1.38,0.241 -2.416,0.241c-1.689,-0 -2.829,-0.202 -3.42,-0.606c-1.388,-0.954 -2.083,-2.363 -2.083,-4.228c0,-1.969 0.71,-3.673 2.13,-5.113c1.419,-1.441 3.098,-2.161 5.036,-2.161Zm-0.373,3.311c-0.767,-0 -1.467,0.378 -2.099,1.134c-0.632,0.757 -0.948,1.591 -0.948,2.503c0,1.202 0.674,1.803 2.021,1.803c0.787,-0 1.393,-0.244 1.818,-0.731c0.705,-0.798 1.057,-1.71 1.057,-2.735c0,-0.591 -0.171,-1.068 -0.513,-1.43c-0.342,-0.363 -0.787,-0.544 -1.336,-0.544Z" style="fill:#fff;fill-rule:nonzero;stroke:#000;stroke-width:0.71px;stroke-linecap:butt;stroke-miterlimit:2;"/></g><g transform="matrix(0.980016,0.198918,-0.198918,0.980016,61.3976,-152.446)"><path d="M794.249,228.137l-4.056,9.979c-0.56,1.378 -1.378,2.067 -2.456,2.067c-0.414,-0 -0.769,-0.137 -1.064,-0.412c-0.296,-0.275 -0.443,-0.604 -0.443,-0.987c-0,-0.321 0.129,-0.808 0.388,-1.461l7.492,-18.464c0.383,-0.933 1.046,-1.399 1.989,-1.399c0.653,-0 1.171,0.311 1.554,0.932c0.726,-0.766 1.612,-1.15 2.658,-1.15c1.088,0 1.966,0.412 2.635,1.236c0.668,0.824 1.002,1.909 1.002,3.256c-0,2.549 -0.793,4.626 -2.378,6.233c-0.518,0.528 -1.052,0.891 -1.601,1.088c-0.549,0.196 -1.316,0.295 -2.3,0.295c-1.057,-0 -1.785,-0.073 -2.184,-0.218c-0.399,-0.145 -0.811,-0.476 -1.236,-0.995Zm1.275,-3.17c0.259,0.456 0.505,0.751 0.738,0.886c0.233,0.134 0.604,0.202 1.112,0.202c0.735,-0 1.31,-0.275 1.725,-0.824c0.839,-1.109 1.259,-2.248 1.259,-3.419c-0,-1.005 -0.477,-1.508 -1.43,-1.508c-1.047,0 -1.798,0.606 -2.254,1.819c-0.052,0.134 -0.093,0.248 -0.124,0.341l-1.026,2.503Z" style="fill:#fff;fill-rule:nonzero;stroke:#000;stroke-width:0.71px;stroke-linecap:butt;stroke-miterlimit:2;"/></g><g transform="matrix(0.964916,0.262557,-0.262557,0.964916,89.1057,-202.705)"><path d="M815.125,228.682l1.71,0c1.306,0 1.958,0.456 1.958,1.368c0,0.632 -0.233,1.127 -0.699,1.484c-0.466,0.358 -1.109,0.537 -1.927,0.537l-1.99,-0c-0.891,-0 -1.497,-0.347 -1.818,-1.042c-0.777,0.695 -1.529,1.042 -2.254,1.042l-1.772,-0c-1.139,-0 -2.059,-0.407 -2.758,-1.22c-0.7,-0.814 -1.05,-1.879 -1.05,-3.194c0,-1.99 0.687,-3.77 2.06,-5.339c1.373,-1.57 2.924,-2.355 4.655,-2.355c1.326,0 2.295,0.461 2.906,1.383c0.518,-0.777 1.197,-1.165 2.036,-1.165c0.456,-0 0.837,0.145 1.143,0.435c0.305,0.29 0.458,0.647 0.458,1.072c0,0.29 -0.083,0.637 -0.249,1.042l-0.171,0.419l-2.238,5.533Zm-5.642,0.078l0.389,0c0.85,0 1.414,-0.347 1.694,-1.041l1.088,-2.689c0.145,-0.352 0.218,-0.648 0.218,-0.886c-0,-0.28 -0.138,-0.523 -0.412,-0.731c-0.275,-0.207 -0.604,-0.31 -0.987,-0.31c-0.757,-0 -1.492,0.44 -2.207,1.321c-0.715,0.88 -1.073,1.792 -1.073,2.735c0,1.067 0.43,1.601 1.29,1.601Z" style="fill:#fff;fill-rule:nonzero;stroke:#000;stroke-width:0.7px;stroke-linecap:butt;stroke-miterlimit:2;"/></g><g transform="matrix(0.943782,0.33057,-0.33057,0.943782,123.956,-256.957)"><path d="M824.079,228.31l-0.295,0.715c-0.456,1.026 -1.104,1.539 -1.943,1.539c-0.425,-0 -0.805,-0.148 -1.142,-0.443c-0.337,-0.295 -0.505,-0.635 -0.505,-1.018c-0,-0.363 0.15,-0.844 0.45,-1.445l2.068,-4.197c0.507,-1.005 1.139,-1.508 1.896,-1.508c0.404,0 0.751,0.133 1.041,0.397c0.29,0.264 0.435,0.577 0.435,0.94c0,0.093 -0.031,0.295 -0.093,0.606c-0.041,0.228 -0.062,0.43 -0.062,0.606c-0,0.653 0.243,1.322 0.73,2.005l0.886,1.228c0.902,1.254 1.352,2.466 1.352,3.637c0,1.306 -0.487,2.396 -1.461,3.272c-0.974,0.875 -2.186,1.313 -3.636,1.313l-3.249,0c-1.316,0 -1.974,-0.456 -1.974,-1.367c0,-0.633 0.233,-1.127 0.7,-1.485c0.466,-0.357 1.108,-0.536 1.927,-0.536l1.803,-0c1.44,-0 2.16,-0.523 2.16,-1.57c0,-0.383 -0.134,-0.834 -0.404,-1.352l-0.684,-1.337Z" style="fill:#fff;fill-rule:nonzero;stroke:#000;stroke-width:0.7px;stroke-linecap:butt;stroke-miterlimit:2;"/></g></g></g></g></svg>