<?xml version="1.0" encoding="UTF-8" standalone="no"?>
<!DOCTYPE svg PUBLIC "-//W3C//DTD SVG 1.1//EN" "http://www.w3.org/Graphics/SVG/1.1/DTD/svg11.dtd">
<svg width="631px" height="75px" version="1.1" xmlns="http://www.w3.org/2000/svg" xmlns:xlink="http://www.w3.org/1999/xlink" xml:space="preserve" xmlns:serif="http://www.serif.com/" style="fill-rule:evenodd;clip-rule:evenodd;stroke-linejoin:round;stroke-miterlimit:2;">
    <g transform="matrix(1,0,0,1,-412,-437)">
        <g transform="matrix(1.35425,0,0,1.43989,-569.927,-158.293)">
            <g transform="matrix(0.986621,0.163031,-0.163031,0.986621,82.2535,-112.141)">
                <path d="M745.062,416.152L755.044,416.152C756.104,416.152 756.634,416.519 756.634,417.254C756.634,417.834 756.351,418.215 755.786,418.399C755.32,418.554 755.048,418.649 754.97,418.685C754.892,418.72 754.811,418.801 754.726,418.929C754.557,419.155 754.472,419.515 754.472,420.009L754.472,441.225C754.472,441.72 754.557,442.08 754.726,442.306C754.811,442.433 754.892,442.514 754.97,442.55C755.048,442.585 755.32,442.68 755.786,442.836C756.351,443.019 756.634,443.401 756.634,443.98C756.634,444.715 756.104,445.082 755.044,445.082L744.341,445.082C743.719,445.082 743.25,444.987 742.932,444.796C742.614,444.605 742.455,444.319 742.455,443.938C742.455,443.316 742.794,442.928 743.472,442.772C744.023,442.631 744.348,442.543 744.447,442.507C744.546,442.472 744.645,442.391 744.744,442.264C744.956,442.009 745.062,441.606 745.062,441.055L745.062,416.152ZM737.262,416.152L741.437,428.042L743.281,421.62L743.281,428.657L738.385,445.082L737.262,445.082L729.039,420.688C728.756,419.868 728.459,419.317 728.149,419.035C727.965,418.851 727.647,418.717 727.195,418.632C726.276,418.434 725.817,417.996 725.817,417.318C725.817,416.95 725.948,416.664 726.209,416.459C726.471,416.255 726.849,416.152 727.343,416.152L737.262,416.152ZM729.039,425.901L731.285,432.302L731.285,438.682C731.285,439.332 731.31,439.798 731.36,440.08C731.409,440.363 731.519,440.674 731.688,441.013C731.985,441.635 732.395,442.101 732.917,442.412L733.702,442.921C734.238,443.246 734.507,443.606 734.507,444.001C734.507,444.722 733.977,445.082 732.917,445.082L727.598,445.082C726.538,445.082 726.008,444.729 726.008,444.023C726.008,443.797 726.054,443.623 726.146,443.503C726.238,443.383 726.418,443.246 726.686,443.09C728.255,442.242 729.039,440.773 729.039,438.682L729.039,425.901Z" style="fill:white;fill-rule:nonzero;stroke:black;stroke-width:0.71px;"/>
            </g>
            <g transform="matrix(0.99081,0.135262,-0.135262,0.99081,67.9103,-98.3795)">
                <path d="M768.175,421.638L776.717,421.638L782.609,446.542C782.722,446.98 782.849,447.368 782.99,447.707C783.117,447.976 783.4,448.195 783.838,448.364C784.205,448.52 784.46,448.675 784.601,448.831C784.742,448.986 784.813,449.198 784.813,449.467C784.813,450.201 784.262,450.569 783.16,450.569L772.584,450.569C772.16,450.569 771.821,450.466 771.566,450.261C771.312,450.056 771.185,449.784 771.185,449.445C771.185,449.163 771.242,448.951 771.355,448.809C771.468,448.668 771.722,448.492 772.118,448.28C772.4,448.138 772.598,447.983 772.711,447.813C772.824,447.644 772.881,447.432 772.881,447.178C772.881,446.937 772.859,446.725 772.817,446.542L772.139,443.469L766.226,443.469L766.798,440.946L771.545,440.946L767.646,423.715L768.175,421.638ZM766.713,427.022L767.794,431.409L764.043,445.1C763.929,445.496 763.873,445.863 763.873,446.203C763.873,447.093 764.29,447.729 765.123,448.11L765.865,448.449C766.331,448.661 766.565,449.014 766.565,449.509C766.565,450.215 766.049,450.569 765.017,450.569L759.634,450.569C759.111,450.569 758.698,450.459 758.394,450.24C758.09,450.021 757.939,449.721 757.939,449.339C757.939,448.93 758.249,448.59 758.871,448.322C759.45,448.068 759.878,447.838 760.153,447.633C760.429,447.428 760.694,447.149 760.948,446.796C761.344,446.217 761.669,445.447 761.923,444.486L766.713,427.022ZM768.175,413.585C769.037,413.585 769.776,413.892 770.39,414.506C771.005,415.121 771.312,415.859 771.312,416.721C771.312,417.583 771.005,418.321 770.39,418.936C769.776,419.551 769.037,419.858 768.175,419.858C767.313,419.858 766.575,419.551 765.961,418.936C765.346,418.321 765.039,417.583 765.039,416.721C765.039,415.859 765.346,415.121 765.961,414.506C766.575,413.892 767.313,413.585 768.175,413.585ZM776.25,413.585C777.112,413.585 777.851,413.892 778.465,414.506C779.08,415.121 779.387,415.859 779.387,416.721C779.387,417.583 779.08,418.321 778.465,418.936C777.851,419.551 777.112,419.858 776.25,419.858C775.389,419.858 774.65,419.551 774.036,418.936C773.421,418.321 773.114,417.583 773.114,416.721C773.114,415.859 773.421,415.121 774.036,414.506C774.65,413.892 775.389,413.585 776.25,413.585Z" style="fill:white;fill-rule:nonzero;stroke:black;stroke-width:0.71px;"/>
            </g>
            <g transform="matrix(0.993777,0.111389,-0.111389,0.993777,55.4767,-84.5612)">
                <path d="M798.261,425.284L809.537,444.867L809.537,454.214L803.751,454.214L789.36,429.417C789.049,428.88 788.795,428.505 788.597,428.293C788.399,428.081 788.145,427.926 787.834,427.827L787.028,427.53C786.816,427.46 786.647,427.332 786.52,427.149C786.393,426.965 786.329,426.76 786.329,426.534C786.329,426.294 786.393,426.071 786.52,425.867C786.647,425.662 786.816,425.517 787.028,425.432C787.269,425.333 787.919,425.284 788.978,425.284L798.261,425.284ZM789.381,432.723L791.628,436.453L791.628,447.813C791.628,448.802 791.794,449.615 792.126,450.251C792.458,450.886 792.984,451.409 793.705,451.819L794.34,452.179C794.708,452.391 794.891,452.709 794.891,453.133C794.891,453.458 794.757,453.726 794.489,453.938C794.263,454.122 793.796,454.214 793.09,454.214L788.194,454.214C786.908,454.214 786.265,453.847 786.265,453.112C786.265,452.858 786.332,452.656 786.467,452.508C786.601,452.359 786.894,452.158 787.346,451.904C788.703,451.155 789.381,449.791 789.381,447.813L789.381,432.723ZM809.537,441.476L807.29,437.682L807.29,431.812C807.29,430.625 807.117,429.717 806.771,429.088C806.425,428.459 805.814,427.919 804.938,427.467C804.641,427.325 804.436,427.174 804.323,427.011C804.21,426.849 804.153,426.64 804.153,426.386C804.153,426.004 804.277,425.725 804.524,425.549C804.772,425.372 805.171,425.284 805.722,425.284L811.02,425.284C811.741,425.284 812.214,425.397 812.44,425.623C812.681,425.849 812.801,426.117 812.801,426.428C812.801,426.725 812.734,426.947 812.599,427.096C812.465,427.244 812.144,427.446 811.635,427.7C810.886,428.081 810.321,428.668 809.939,429.459C809.671,430.038 809.537,430.822 809.537,431.812L809.537,441.476Z" style="fill:white;fill-rule:nonzero;stroke:black;stroke-width:0.71px;"/>
            </g>
            <g transform="matrix(0.995962,0.0897737,-0.0897737,0.995962,44.3512,-71.1813)">
                <path d="M826.253,427.943L826.253,430.295C825.009,430.592 824.388,431.581 824.388,433.263L824.388,452.994C824.388,453.757 824.494,454.344 824.706,454.754C824.889,455.093 825.278,455.382 825.871,455.623L825.871,458.017C825.419,458.017 825.006,457.982 824.631,457.912C824.257,457.841 823.759,457.7 823.137,457.488C821.654,456.979 820.311,456.202 819.11,455.156C817.909,454.111 816.92,452.86 816.143,451.405C814.942,449.13 814.342,446.438 814.342,443.33C814.342,440.32 814.878,437.65 815.952,435.318C817.026,432.987 818.566,431.157 820.573,429.829C821.731,429.052 822.975,428.494 824.303,428.155C824.854,428.013 825.504,427.943 826.253,427.943ZM827.991,430.253L827.991,427.964C830.294,428.176 832.187,428.6 833.671,429.236C834.109,429.433 834.448,429.532 834.688,429.532C834.914,429.532 835.087,429.479 835.207,429.373C835.327,429.267 835.571,428.967 835.939,428.473C836.193,428.119 836.511,427.943 836.892,427.943C837.288,427.943 837.567,428.052 837.729,428.271C837.892,428.49 837.973,428.854 837.973,429.363L837.973,437.607C837.973,438.681 837.578,439.218 836.786,439.218C836.391,439.218 836.098,439.112 835.907,438.9C835.716,438.688 835.536,438.271 835.366,437.65C835.154,436.858 834.773,435.937 834.222,434.884C833.671,433.831 833.141,433.001 832.632,432.394C832.053,431.687 831.403,431.168 830.682,430.836C829.962,430.504 829.065,430.309 827.991,430.253ZM837.571,453.906C837.005,454.471 836.253,455.047 835.313,455.633C834.374,456.219 833.487,456.682 832.653,457.021C831.89,457.318 831.046,457.558 830.121,457.742C829.195,457.926 828.379,458.017 827.673,458.017L827.673,455.623C828.083,455.524 828.39,455.404 828.595,455.262C828.8,455.121 828.973,454.923 829.114,454.669C829.354,454.231 829.474,453.673 829.474,452.994L829.474,446.806C829.474,446.255 829.368,445.859 829.156,445.619C829.057,445.478 828.959,445.389 828.86,445.354C828.761,445.319 828.436,445.237 827.885,445.11C827.206,444.941 826.867,444.545 826.867,443.923C826.867,443.556 827.026,443.273 827.344,443.075C827.662,442.878 828.132,442.779 828.754,442.779L837.21,442.779C837.846,442.779 838.295,442.867 838.556,443.044C838.817,443.22 838.948,443.528 838.948,443.966C838.948,444.234 838.895,444.457 838.789,444.633C838.683,444.81 838.489,444.997 838.206,445.195C837.924,445.393 837.747,445.576 837.676,445.746C837.606,445.916 837.571,446.226 837.571,446.679L837.571,453.906Z" style="fill:white;fill-rule:nonzero;stroke:black;stroke-width:0.71px;"/>
            </g>
            <g transform="matrix(0.997346,0.0728033,-0.0728033,0.997346,35.7064,-59.9578)">
                <path d="M854.201,459.82L843.646,459.82C843.138,459.82 842.746,459.724 842.47,459.534C842.195,459.343 842.057,459.071 842.057,458.718C842.057,458.138 842.339,457.757 842.905,457.573C843.371,457.418 843.643,457.322 843.721,457.287C843.798,457.252 843.879,457.17 843.964,457.043C844.134,456.817 844.219,456.457 844.219,455.962L844.219,434.747C844.219,434.252 844.134,433.892 843.964,433.666C843.879,433.539 843.798,433.457 843.721,433.422C843.643,433.387 843.371,433.291 842.905,433.136C842.339,432.952 842.057,432.571 842.057,431.992C842.057,431.638 842.195,431.366 842.47,431.176C842.746,430.985 843.138,430.889 843.646,430.889L854.201,430.889C854.71,430.889 855.102,430.985 855.377,431.176C855.653,431.366 855.791,431.638 855.791,431.992C855.791,432.571 855.508,432.952 854.943,433.136C854.477,433.291 854.205,433.387 854.127,433.422C854.049,433.457 853.968,433.539 853.883,433.666C853.714,433.892 853.629,434.252 853.629,434.747L853.629,455.962C853.629,456.457 853.714,456.817 853.883,457.043C853.968,457.17 854.049,457.252 854.127,457.287C854.205,457.322 854.477,457.418 854.943,457.573C855.508,457.757 855.791,458.138 855.791,458.718C855.791,459.071 855.653,459.343 855.377,459.534C855.102,459.724 854.71,459.82 854.201,459.82Z" style="fill:white;fill-rule:nonzero;stroke:black;stroke-width:0.71px;"/>
            </g>
            <g transform="matrix(0.998724,0.050495,-0.050495,0.998724,24.4247,-43.2582)">
                <path d="M878.904,456.916L878.904,436.866C878.904,435.99 878.65,435.495 878.141,435.382L877.314,435.17C876.636,435.001 876.297,434.612 876.297,434.004C876.297,433.623 876.456,433.337 876.774,433.146C877.092,432.955 877.562,432.86 878.183,432.86L878.883,432.839L888.314,432.839L888.886,432.818L889.649,432.902C890.2,433.058 890.476,433.404 890.476,433.941C890.476,434.506 890.193,434.888 889.628,435.085L888.95,435.297C888.526,435.439 888.314,435.905 888.314,436.696L888.314,454.415C888.314,457 887.466,458.971 885.771,460.328C884.965,460.964 883.941,461.462 882.698,461.822C881.454,462.182 880.14,462.362 878.755,462.362C878.515,462.362 878.106,462.348 877.526,462.32L877.526,459.862C877.625,459.791 877.696,459.741 877.738,459.713C878.021,459.501 878.222,459.328 878.342,459.194C878.462,459.06 878.565,458.894 878.65,458.696C878.819,458.23 878.904,457.636 878.904,456.916ZM875.619,459.862L875.619,462.193C873.853,461.91 872.44,461.423 871.38,460.731C870.419,460.095 869.674,459.314 869.144,458.389C868.614,457.463 868.349,456.47 868.349,455.411C868.349,454.125 868.791,453.023 869.674,452.104C870.557,451.186 871.613,450.727 872.842,450.727C874.015,450.727 875.015,451.14 875.841,451.967C876.668,452.793 877.081,453.786 877.081,454.944C877.081,455.849 876.777,456.689 876.17,457.467C875.76,457.989 875.167,458.42 874.389,458.759C874.135,458.887 874.001,458.986 873.987,459.056C873.973,459.127 874.033,459.215 874.167,459.321C874.301,459.427 874.467,459.522 874.665,459.607C874.877,459.692 875.195,459.777 875.619,459.862Z" style="fill:white;fill-rule:nonzero;stroke:black;stroke-width:0.71px;"/>
            </g>
            <g transform="matrix(0.999475,0.0323942,-0.0323942,0.999475,15.4649,-28.6379)">
                <path d="M901.783,434.022L910.324,434.022L916.216,458.925C916.33,459.364 916.457,459.752 916.598,460.091C916.725,460.36 917.008,460.579 917.446,460.748C917.813,460.904 918.067,461.059 918.209,461.214C918.35,461.37 918.421,461.582 918.421,461.85C918.421,462.585 917.87,462.952 916.768,462.952L906.192,462.952C905.768,462.952 905.429,462.85 905.174,462.645C904.92,462.44 904.793,462.168 904.793,461.829C904.793,461.547 904.849,461.335 904.962,461.193C905.075,461.052 905.33,460.875 905.725,460.663C906.008,460.522 906.206,460.367 906.319,460.197C906.432,460.028 906.488,459.816 906.488,459.561C906.488,459.321 906.467,459.109 906.425,458.925L905.746,455.852L899.833,455.852L900.406,453.33L905.153,453.33L901.253,436.099L901.783,434.022ZM900.321,439.406L901.402,443.793L897.65,457.484C897.537,457.88 897.481,458.247 897.481,458.586C897.481,459.477 897.898,460.112 898.731,460.494L899.473,460.833C899.939,461.045 900.172,461.398 900.172,461.893C900.172,462.599 899.657,462.952 898.625,462.952L893.242,462.952C892.719,462.952 892.306,462.843 892.002,462.624C891.698,462.405 891.546,462.105 891.546,461.723C891.546,461.313 891.857,460.974 892.479,460.706C893.058,460.451 893.486,460.222 893.761,460.017C894.037,459.812 894.302,459.533 894.556,459.18C894.952,458.601 895.276,457.83 895.531,456.87L900.321,439.406Z" style="fill:white;fill-rule:nonzero;stroke:black;stroke-width:0.71px;"/>
            </g>
            <g transform="matrix(0.999983,0.00587486,-0.00587486,0.999983,2.7422,-5.45122)">
                <path d="M942.563,435.109L942.563,460.012C942.563,460.563 942.669,460.959 942.881,461.199C942.994,461.34 943.1,461.428 943.199,461.464C943.298,461.499 943.623,461.587 944.174,461.729C944.852,461.884 945.191,462.273 945.191,462.894C945.191,463.262 945.008,463.559 944.64,463.785C944.372,463.954 943.927,464.039 943.305,464.039L932.581,464.039C932.072,464.039 931.68,463.944 931.404,463.753C931.129,463.562 930.991,463.29 930.991,462.937C930.991,462.357 931.274,461.976 931.839,461.792C932.305,461.637 932.577,461.542 932.655,461.506C932.733,461.471 932.814,461.39 932.899,461.262C933.068,461.036 933.153,460.676 933.153,460.182L933.153,438.966C933.153,438.471 933.068,438.111 932.899,437.885C932.814,437.758 932.733,437.677 932.655,437.641C932.577,437.606 932.305,437.511 931.839,437.355C931.274,437.172 930.991,436.79 930.991,436.211C930.991,435.858 931.129,435.586 931.404,435.395C931.68,435.204 932.072,435.109 932.581,435.109L942.563,435.109ZM944.365,452.954L944.365,450.686C944.972,450.545 945.4,450.397 945.647,450.241C945.894,450.086 946.11,449.846 946.293,449.521C946.59,448.97 946.739,448.228 946.739,447.295L946.739,440.513C946.739,439.849 946.689,439.355 946.59,439.03C946.491,438.705 946.293,438.408 945.997,438.139C945.587,437.744 945.036,437.497 944.344,437.398L944.344,435.109C947.254,435.109 949.402,435.384 950.787,435.935C952.383,436.571 953.648,437.546 954.58,438.86C955.527,440.202 956,441.848 956,443.798C956,445.974 955.52,447.755 954.559,449.139C953.598,450.51 952.256,451.52 950.532,452.17C949.105,452.693 947.049,452.954 944.365,452.954Z" style="fill:white;fill-rule:nonzero;stroke:black;stroke-width:0.72px;"/>
            </g>
            <g transform="matrix(0.999913,-0.0131741,0.0131741,0.999913,-6.03257,12.6462)">
                <path d="M960.411,455.757L960.411,439.141C960.411,438.646 960.326,438.286 960.157,438.06C960.072,437.933 959.991,437.852 959.913,437.816C959.835,437.781 959.563,437.686 959.097,437.53C958.532,437.346 958.249,436.972 958.249,436.407C958.249,436.039 958.387,435.76 958.663,435.57C958.938,435.379 959.33,435.283 959.839,435.283L970.394,435.283L971.157,435.368C971.397,435.439 971.595,435.566 971.75,435.75C971.905,435.933 971.983,436.152 971.983,436.407C971.983,436.972 971.701,437.346 971.135,437.53C970.669,437.686 970.397,437.781 970.319,437.816C970.242,437.852 970.16,437.933 970.076,438.06C969.906,438.286 969.821,438.646 969.821,439.141L969.821,456.923C969.821,458.124 969.853,458.961 969.917,459.434C969.98,459.908 970.111,460.335 970.309,460.717C970.493,461.07 970.697,461.324 970.923,461.48C971.15,461.635 971.581,461.812 972.216,462.01L972.216,464.786L971.75,464.786C969.913,464.786 968.387,464.623 967.172,464.299C965.745,463.917 964.495,463.352 963.421,462.603C962.347,461.854 961.584,461.013 961.132,460.081C960.651,459.092 960.411,457.651 960.411,455.757ZM974.166,464.786L974.166,462.01C975.579,461.826 976.759,461.247 977.706,460.272C978.78,459.155 979.316,457.552 979.316,455.46L979.316,441.642C979.316,439.706 978.575,438.357 977.091,437.594C976.653,437.368 976.367,437.173 976.233,437.011C976.098,436.848 976.031,436.612 976.031,436.301C976.031,435.933 976.166,435.672 976.434,435.517C976.702,435.361 977.14,435.283 977.748,435.283L982.941,435.283C983.379,435.283 983.672,435.294 983.82,435.315C983.969,435.336 984.113,435.389 984.255,435.474C984.622,435.686 984.806,435.976 984.806,436.343C984.806,436.654 984.693,436.915 984.467,437.127C984.396,437.198 984.092,437.389 983.555,437.7C982.934,438.039 982.446,438.558 982.093,439.257C981.74,439.957 981.563,440.752 981.563,441.642L981.563,455.482C981.563,457.855 981.04,459.805 979.995,461.331C979.232,462.462 978.137,463.366 976.71,464.044C976.003,464.383 975.155,464.631 974.166,464.786ZM967.49,427.23C968.352,427.23 969.09,427.537 969.705,428.152C970.319,428.766 970.627,429.504 970.627,430.366C970.627,431.228 970.319,431.967 969.705,432.581C969.09,433.196 968.352,433.503 967.49,433.503C966.628,433.503 965.89,433.196 965.275,432.581C964.661,431.967 964.353,431.228 964.353,430.366C964.353,429.504 964.661,428.766 965.275,428.152C965.89,427.537 966.628,427.23 967.49,427.23ZM975.586,427.23C976.448,427.23 977.186,427.537 977.801,428.152C978.416,428.766 978.723,429.504 978.723,430.366C978.723,431.228 978.416,431.967 977.801,432.581C977.186,433.196 976.448,433.503 975.586,433.503C974.724,433.503 973.986,433.196 973.371,432.581C972.757,431.967 972.449,431.228 972.449,430.366C972.449,429.504 972.757,428.766 973.371,428.152C973.986,427.537 974.724,427.23 975.586,427.23Z" style="fill:white;fill-rule:nonzero;stroke:black;stroke-width:0.72px;"/>
            </g>
            <g transform="matrix(0.999497,-0.0317104,0.0317104,0.999497,-14.2115,31.5065)">
                <path d="M997.721,434.302L997.721,436.739C996.845,436.98 996.177,437.35 995.718,437.852C995.259,438.354 995.029,438.972 995.029,439.707C995.029,440.413 995.22,441.031 995.602,441.561C995.983,442.091 996.605,442.596 997.467,443.076C998.06,443.401 999.402,444.023 1001.49,444.942C1002.76,445.493 1003.75,445.991 1004.45,446.436C1005.15,446.881 1005.81,447.435 1006.43,448.1C1008.1,449.852 1008.93,451.936 1008.93,454.352C1008.93,456.175 1008.48,457.842 1007.58,459.354C1006.67,460.866 1005.43,462.052 1003.85,462.914C1003,463.367 1002.07,463.723 1001.06,463.985C1000.05,464.246 999.106,464.377 998.23,464.377L998.23,461.961C999.459,461.664 1000.35,461.251 1000.89,460.721C1001.43,460.191 1001.71,459.474 1001.71,458.57C1001.71,457.623 1001.28,456.789 1000.43,456.069C999.869,455.602 998.795,455.023 997.212,454.331C995.474,453.568 994.284,453.024 993.641,452.699C992.998,452.374 992.38,451.992 991.787,451.554C989.13,449.661 987.802,447.139 987.802,443.988C987.802,442.377 988.134,440.89 988.798,439.526C989.462,438.163 990.388,437.064 991.575,436.231C993.228,435.072 995.277,434.429 997.721,434.302ZM999.395,436.739L999.395,434.408C1000.24,434.465 1000.98,434.574 1001.6,434.737C1002.22,434.899 1003.1,435.22 1004.25,435.701C1004.53,435.814 1004.76,435.87 1004.95,435.87C1005.22,435.87 1005.42,435.779 1005.54,435.595L1006.01,434.98C1006.23,434.669 1006.51,434.514 1006.84,434.514C1007.22,434.514 1007.5,434.652 1007.67,434.927C1007.85,435.203 1007.94,435.637 1007.94,436.231L1007.94,443.225C1007.94,443.635 1007.82,443.97 1007.59,444.232C1007.35,444.493 1007.05,444.624 1006.69,444.624C1006.4,444.624 1006.14,444.532 1005.9,444.348C1005.77,444.235 1005.67,444.097 1005.6,443.935C1005.52,443.772 1005.44,443.5 1005.37,443.119C1005.22,442.427 1004.95,441.713 1004.57,440.978C1004.19,440.244 1003.74,439.586 1003.23,439.007C1002.21,437.863 1000.94,437.107 999.395,436.739ZM996.619,461.961L996.619,464.377C995.46,464.377 994.182,464.045 992.783,463.381C992.26,463.14 991.9,462.985 991.702,462.914C991.504,462.844 991.313,462.808 991.13,462.808C990.847,462.808 990.635,462.854 990.494,462.946C990.352,463.038 990.126,463.268 989.816,463.635C989.561,463.946 989.286,464.101 988.989,464.101C988.198,464.101 987.802,463.494 987.802,462.279L987.802,454.564C987.802,454.168 987.915,453.833 988.141,453.557C988.367,453.282 988.65,453.137 988.989,453.123C989.3,453.108 989.544,453.197 989.72,453.388C989.897,453.578 990.049,453.914 990.176,454.394C990.501,455.609 990.971,456.747 991.585,457.807C992.2,458.866 992.917,459.763 993.736,460.498C994.57,461.261 995.531,461.749 996.619,461.961Z" style="fill:white;fill-rule:nonzero;stroke:black;stroke-width:0.72px;"/>
            </g>
            <g transform="matrix(0.998925,-0.0463611,0.0463611,0.998925,-20.3789,47.3476)">
                <path d="M1024.42,463.007L1013.87,463.007C1013.36,463.007 1012.97,462.912 1012.69,462.721C1012.42,462.53 1012.28,462.258 1012.28,461.905C1012.28,461.326 1012.56,460.944 1013.13,460.76C1013.59,460.605 1013.87,460.51 1013.94,460.474C1014.02,460.439 1014.1,460.358 1014.19,460.23C1014.36,460.004 1014.44,459.644 1014.44,459.15L1014.44,437.934C1014.44,437.439 1014.36,437.079 1014.19,436.853C1014.1,436.726 1014.02,436.645 1013.94,436.609C1013.87,436.574 1013.59,436.479 1013.13,436.323C1012.56,436.14 1012.28,435.758 1012.28,435.179C1012.28,434.826 1012.42,434.554 1012.69,434.363C1012.97,434.172 1013.36,434.077 1013.87,434.077L1024.42,434.077C1024.93,434.077 1025.32,434.172 1025.6,434.363C1025.88,434.554 1026.01,434.826 1026.01,435.179C1026.01,435.758 1025.73,436.14 1025.16,436.323C1024.7,436.479 1024.43,436.574 1024.35,436.609C1024.27,436.645 1024.19,436.726 1024.11,436.853C1023.94,437.079 1023.85,437.439 1023.85,437.934L1023.85,459.15C1023.85,459.644 1023.94,460.004 1024.11,460.23C1024.19,460.358 1024.27,460.439 1024.35,460.474C1024.43,460.51 1024.7,460.605 1025.16,460.76C1025.73,460.944 1026.01,461.326 1026.01,461.905C1026.01,462.258 1025.88,462.53 1025.6,462.721C1025.32,462.912 1024.93,463.007 1024.42,463.007Z" style="fill:white;fill-rule:nonzero;stroke:black;stroke-width:0.72px;"/>
            </g>
            <g transform="matrix(0.99737,-0.0724846,0.0724846,0.99737,-30.7319,76.4966)">
                <path d="M1052.92,461.669L1042.37,461.669C1041.86,461.669 1041.47,461.573 1041.19,461.382C1040.92,461.192 1040.78,460.92 1040.78,460.567C1040.78,459.987 1041.06,459.606 1041.63,459.422C1042.09,459.267 1042.37,459.171 1042.44,459.136C1042.52,459.101 1042.6,459.019 1042.69,458.892C1042.86,458.666 1042.94,458.306 1042.94,457.811L1042.94,436.596C1042.94,436.101 1042.86,435.741 1042.69,435.515C1042.6,435.388 1042.52,435.306 1042.44,435.271C1042.37,435.236 1042.09,435.14 1041.63,434.985C1041.06,434.801 1040.78,434.42 1040.78,433.84C1040.78,433.487 1040.92,433.215 1041.19,433.024C1041.47,432.834 1041.86,432.738 1042.37,432.738L1052.92,432.738C1053.43,432.738 1053.82,432.834 1054.1,433.024C1054.38,433.215 1054.51,433.487 1054.51,433.84C1054.51,434.42 1054.23,434.801 1053.66,434.985C1053.2,435.14 1052.93,435.236 1052.85,435.271C1052.77,435.306 1052.69,435.388 1052.61,435.515C1052.44,435.741 1052.35,436.101 1052.35,436.596L1052.35,457.811C1052.35,458.602 1052.56,459.069 1052.97,459.21L1053.62,459.422C1054.16,459.592 1054.43,459.973 1054.43,460.567C1054.43,461.301 1053.93,461.669 1052.92,461.669ZM1060.77,441.131L1067.17,457.875C1067.34,458.327 1067.51,458.67 1067.7,458.903C1067.88,459.136 1068.12,459.316 1068.42,459.443C1068.71,459.585 1068.9,459.69 1068.99,459.761C1069.19,459.959 1069.29,460.22 1069.29,460.545C1069.29,461.294 1068.76,461.669 1067.7,461.669L1057.04,461.669C1056.53,461.669 1056.13,461.563 1055.86,461.351C1055.58,461.139 1055.45,460.835 1055.45,460.439C1055.45,459.987 1055.71,459.634 1056.23,459.38C1056.56,459.224 1056.77,459.094 1056.89,458.988C1057,458.882 1057.06,458.737 1057.08,458.553C1057.08,458.454 1057.02,458.228 1056.91,457.875L1054.19,449.779C1053.94,449.03 1053.81,448.394 1053.81,447.871C1053.81,447.377 1054.02,446.84 1054.43,446.26L1059.49,439.118C1059.97,438.454 1060.21,437.761 1060.21,437.041C1060.21,436.645 1060.11,436.278 1059.9,435.939C1059.68,435.6 1059.4,435.359 1059.05,435.218L1058.29,434.9C1057.81,434.702 1057.57,434.37 1057.57,433.904C1057.57,433.523 1057.71,433.212 1058.01,432.971C1058.21,432.816 1058.53,432.738 1058.99,432.738L1066.53,432.738C1067.03,432.738 1067.41,432.848 1067.68,433.067C1067.96,433.286 1068.1,433.593 1068.1,433.989C1068.1,434.582 1067.77,435.006 1067.12,435.26L1066,435.706C1065.53,435.875 1064.94,436.257 1064.22,436.85C1063.68,437.302 1063.02,438.058 1062.23,439.118L1060.77,441.131Z" style="fill:white;fill-rule:nonzero;stroke:black;stroke-width:0.72px;"/>
            </g>
            <g transform="matrix(0.995504,-0.0947162,0.0947162,0.995504,-38.6954,103.445)">
                <path d="M1083.25,432.131C1082.53,432.385 1082.02,432.731 1081.72,433.169C1081.42,433.607 1081.27,434.25 1081.27,435.098L1081.27,454.046C1081.27,455.289 1081.44,456.165 1081.78,456.674C1082.05,457.098 1082.54,457.402 1083.25,457.585L1083.25,459.917C1080.11,459.662 1077.48,458.483 1075.36,456.377C1072.61,453.636 1071.23,449.814 1071.23,444.911C1071.23,442.453 1071.59,440.231 1072.32,438.246C1073.05,436.26 1074.12,434.575 1075.55,433.191C1076.64,432.131 1077.81,431.326 1079.07,430.775C1080.33,430.223 1081.72,429.913 1083.25,429.842L1083.25,432.131ZM1084.98,432.131L1084.98,429.842C1086.51,429.913 1087.9,430.223 1089.17,430.775C1090.43,431.326 1091.61,432.131 1092.7,433.191C1095.58,436.002 1097.02,439.909 1097.02,444.911C1097.02,449.814 1095.64,453.636 1092.89,456.377C1090.77,458.497 1088.13,459.677 1084.98,459.917L1084.98,457.585C1085.35,457.501 1085.64,457.391 1085.84,457.257C1086.05,457.123 1086.23,456.928 1086.4,456.674C1086.79,456.095 1086.98,455.219 1086.98,454.046L1086.98,435.098C1086.98,434.349 1086.85,433.756 1086.59,433.318C1086.42,433.021 1086.22,432.788 1085.99,432.618C1085.76,432.449 1085.42,432.286 1084.98,432.131Z" style="fill:white;fill-rule:nonzero;stroke:black;stroke-width:0.72px;"/>
            </g>
            <g transform="matrix(0.993083,-0.117412,0.117412,0.993083,-46.0347,132.049)">
                <path d="M1111.08,427.819L1111.08,456.749L1101.09,456.749C1100.58,456.749 1100.19,456.653 1099.92,456.463C1099.64,456.272 1099.5,456 1099.5,455.647C1099.5,455.067 1099.79,454.686 1100.35,454.502C1100.82,454.347 1101.09,454.251 1101.17,454.216C1101.24,454.181 1101.33,454.099 1101.41,453.972C1101.58,453.746 1101.66,453.386 1101.66,452.891L1101.66,431.676C1101.66,431.181 1101.58,430.821 1101.41,430.595C1101.33,430.468 1101.24,430.387 1101.17,430.351C1101.09,430.316 1100.82,430.221 1100.35,430.065C1099.79,429.881 1099.5,429.5 1099.5,428.921C1099.5,428.567 1099.64,428.295 1099.92,428.105C1100.19,427.914 1100.58,427.819 1101.09,427.819L1111.08,427.819ZM1115.36,450.687L1115.36,433.965C1115.36,432.933 1115.21,432.114 1114.91,431.506C1114.73,431.111 1114.5,430.821 1114.23,430.637C1113.96,430.454 1113.54,430.298 1112.96,430.171L1112.96,427.819C1113.71,427.819 1114.35,427.847 1114.87,427.903C1116.66,428.101 1118.4,428.864 1120.08,430.192C1121.75,431.478 1122.99,433.152 1123.79,435.215C1124.62,437.307 1125.04,439.624 1125.04,442.167C1125.04,445.05 1124.51,447.61 1123.45,449.85C1122.39,452.09 1120.87,453.852 1118.89,455.138C1117.93,455.76 1117.04,456.184 1116.21,456.41C1115.39,456.636 1114.3,456.749 1112.96,456.749L1112.96,454.46C1113.55,454.304 1113.97,454.163 1114.2,454.036C1114.43,453.909 1114.63,453.711 1114.81,453.442C1115.02,453.132 1115.16,452.782 1115.24,452.393C1115.32,452.005 1115.36,451.436 1115.36,450.687Z" style="fill:white;fill-rule:nonzero;stroke:black;stroke-width:0.72px;"/>
            </g>
            <g transform="matrix(0.989926,-0.141586,0.141586,0.989926,-52.8638,163.95)">
                <path d="M1129.23,445.008L1129.23,428.391C1129.23,427.897 1129.14,427.537 1128.97,427.311C1128.89,427.183 1128.81,427.102 1128.73,427.067C1128.65,427.031 1128.38,426.936 1127.91,426.781C1127.35,426.597 1127.07,426.223 1127.07,425.657C1127.07,425.29 1127.2,425.011 1127.48,424.82C1127.76,424.629 1128.15,424.534 1128.66,424.534L1139.21,424.534L1139.97,424.619C1140.21,424.689 1140.41,424.817 1140.57,425C1140.72,425.184 1140.8,425.403 1140.8,425.657C1140.8,426.223 1140.52,426.597 1139.95,426.781C1139.49,426.936 1139.21,427.031 1139.14,427.067C1139.06,427.102 1138.98,427.183 1138.89,427.311C1138.72,427.537 1138.64,427.897 1138.64,428.391L1138.64,446.173C1138.64,447.374 1138.67,448.212 1138.73,448.685C1138.8,449.158 1138.93,449.586 1139.13,449.967C1139.31,450.32 1139.52,450.575 1139.74,450.73C1139.97,450.886 1140.4,451.062 1141.03,451.26L1141.03,454.037L1140.57,454.037C1138.73,454.037 1137.2,453.874 1135.99,453.549C1134.56,453.168 1133.31,452.602 1132.24,451.854C1131.16,451.105 1130.4,450.264 1129.95,449.331C1129.47,448.342 1129.23,446.901 1129.23,445.008ZM1142.98,454.037L1142.98,451.26C1144.4,451.076 1145.58,450.497 1146.52,449.522C1147.6,448.406 1148.13,446.802 1148.13,444.711L1148.13,430.892C1148.13,428.957 1147.39,427.607 1145.91,426.844C1145.47,426.618 1145.18,426.424 1145.05,426.261C1144.92,426.099 1144.85,425.862 1144.85,425.551C1144.85,425.184 1144.98,424.923 1145.25,424.767C1145.52,424.612 1145.96,424.534 1146.57,424.534L1151.76,424.534C1152.2,424.534 1152.49,424.545 1152.64,424.566C1152.79,424.587 1152.93,424.64 1153.07,424.725C1153.44,424.937 1153.62,425.226 1153.62,425.594C1153.62,425.905 1153.51,426.166 1153.28,426.378C1153.21,426.449 1152.91,426.639 1152.37,426.95C1151.75,427.289 1151.26,427.809 1150.91,428.508C1150.56,429.207 1150.38,430.002 1150.38,430.892L1150.38,444.732C1150.38,447.106 1149.86,449.056 1148.81,450.582C1148.05,451.712 1146.95,452.617 1145.53,453.295C1144.82,453.634 1143.97,453.881 1142.98,454.037Z" style="fill:white;fill-rule:nonzero;stroke:black;stroke-width:0.72px;"/>
            </g>
            <g transform="matrix(0.986061,-0.166387,0.166387,0.986061,-58.6558,198.406)">
                <path d="M1166.31,419.77L1166.31,422.208C1165.43,422.448 1164.76,422.819 1164.3,423.32C1163.84,423.822 1163.62,424.44 1163.62,425.175C1163.62,425.881 1163.81,426.5 1164.19,427.029C1164.57,427.559 1165.19,428.064 1166.05,428.545C1166.65,428.87 1167.99,429.491 1170.08,430.41C1171.35,430.961 1172.34,431.459 1173.04,431.904C1173.74,432.349 1174.4,432.904 1175.02,433.568C1176.68,435.32 1177.52,437.404 1177.52,439.82C1177.52,441.643 1177.07,443.31 1176.16,444.822C1175.26,446.334 1174.01,447.521 1172.43,448.383C1171.58,448.835 1170.65,449.192 1169.64,449.453C1168.63,449.714 1167.69,449.845 1166.82,449.845L1166.82,447.429C1168.04,447.132 1168.93,446.719 1169.48,446.189C1170.02,445.659 1170.29,444.942 1170.29,444.038C1170.29,443.091 1169.87,442.258 1169.02,441.537C1168.45,441.071 1167.38,440.491 1165.8,439.799C1164.06,439.036 1162.87,438.492 1162.23,438.167C1161.58,437.842 1160.96,437.461 1160.37,437.023C1157.72,435.129 1156.39,432.607 1156.39,429.456C1156.39,427.845 1156.72,426.358 1157.38,424.995C1158.05,423.631 1158.97,422.533 1160.16,421.699C1161.81,420.54 1163.86,419.898 1166.31,419.77ZM1167.98,422.208L1167.98,419.876C1168.83,419.933 1169.56,420.042 1170.18,420.205C1170.81,420.367 1171.69,420.689 1172.83,421.169C1173.12,421.282 1173.35,421.339 1173.53,421.339C1173.8,421.339 1174,421.247 1174.13,421.063L1174.59,420.449C1174.82,420.138 1175.1,419.982 1175.42,419.982C1175.8,419.982 1176.08,420.12 1176.26,420.396C1176.43,420.671 1176.52,421.106 1176.52,421.699L1176.52,428.693C1176.52,429.103 1176.41,429.438 1176.17,429.7C1175.94,429.961 1175.64,430.092 1175.27,430.092C1174.99,430.092 1174.73,430 1174.49,429.816C1174.36,429.703 1174.26,429.566 1174.18,429.403C1174.1,429.241 1174.03,428.969 1173.96,428.587C1173.8,427.895 1173.53,427.181 1173.15,426.447C1172.77,425.712 1172.33,425.055 1171.82,424.475C1170.8,423.331 1169.52,422.575 1167.98,422.208ZM1165.2,447.429L1165.2,449.845C1164.05,449.845 1162.77,449.513 1161.37,448.849C1160.85,448.609 1160.49,448.453 1160.29,448.383C1160.09,448.312 1159.9,448.277 1159.71,448.277C1159.43,448.277 1159.22,448.323 1159.08,448.414C1158.94,448.506 1158.71,448.736 1158.4,449.103C1158.15,449.414 1157.87,449.57 1157.57,449.57C1156.78,449.57 1156.39,448.962 1156.39,447.747L1156.39,440.032C1156.39,439.636 1156.5,439.301 1156.73,439.025C1156.95,438.75 1157.24,438.605 1157.57,438.591C1157.88,438.577 1158.13,438.665 1158.31,438.856C1158.48,439.047 1158.63,439.382 1158.76,439.863C1159.09,441.078 1159.56,442.215 1160.17,443.275C1160.79,444.335 1161.5,445.232 1162.32,445.967C1163.16,446.73 1164.12,447.217 1165.2,447.429Z" style="fill:white;fill-rule:nonzero;stroke:black;stroke-width:0.72px;"/>
            </g>
            <g transform="matrix(0.982615,-0.185652,0.185652,0.982615,-62.1568,226.58)">
                <path d="M1186.1,415.658C1187.34,415.658 1188.37,416.153 1189.17,417.142C1189.98,418.131 1190.38,419.388 1190.38,420.914C1190.38,421.55 1190.3,422.211 1190.15,422.896C1189.99,423.581 1189.69,424.623 1189.24,426.022C1188.59,428 1188.13,429.579 1187.87,430.759C1187.61,431.939 1187.45,433.094 1187.39,434.225C1187.36,434.804 1187.26,435.214 1187.06,435.454C1186.87,435.694 1186.57,435.814 1186.14,435.814C1185.78,435.814 1185.5,435.712 1185.33,435.507C1185.15,435.302 1185.05,434.966 1185.02,434.5C1184.93,433.553 1184.86,432.886 1184.81,432.497C1184.75,432.109 1184.62,431.505 1184.4,430.685C1184.07,429.357 1183.63,427.93 1183.09,426.404C1182.45,424.609 1182.06,423.38 1181.89,422.716C1181.73,422.052 1181.65,421.324 1181.65,420.533C1181.65,419.261 1182.04,418.145 1182.81,417.184C1183.62,416.167 1184.71,415.658 1186.1,415.658ZM1185.99,437.51C1187.12,437.51 1188.09,437.912 1188.9,438.718C1189.7,439.523 1190.11,440.491 1190.11,441.621C1190.11,442.766 1189.7,443.741 1188.9,444.546C1188.09,445.352 1187.12,445.754 1185.99,445.754C1184.85,445.754 1183.87,445.352 1183.07,444.546C1182.26,443.741 1181.86,442.766 1181.86,441.621C1181.86,440.491 1182.26,439.523 1183.07,438.718C1183.87,437.912 1184.85,437.51 1185.99,437.51Z" style="fill:white;fill-rule:nonzero;stroke:black;stroke-width:0.72px;"/>
            </g>
        </g>
    </g>
</svg>
