<?xml version="1.0" encoding="UTF-8" standalone="no"?><!DOCTYPE svg PUBLIC "-//W3C//DTD SVG 1.1//EN" "http://www.w3.org/Graphics/SVG/1.1/DTD/svg11.dtd"><svg width="1440px" height="810px" version="1.1" xmlns="http://www.w3.org/2000/svg" xmlns:xlink="http://www.w3.org/1999/xlink" xml:space="preserve" xmlns:serif="http://www.serif.com/" style="fill-rule:evenodd;clip-rule:evenodd;stroke-linecap:round;stroke-linejoin:round;stroke-miterlimit:1.5;"><path d="M1440,202.5c-0,-111.763 -90.737,-202.5 -202.5,-202.5l-1035,0c-111.763,0 -202.5,90.737 -202.5,202.5l0,405c0,111.763 90.737,202.5 202.5,202.5l1035,0c111.763,0 202.5,-90.737 202.5,-202.5l-0,-405Z"/><clipPath id="_clip1"><path d="M1440,202.5c-0,-111.763 -90.737,-202.5 -202.5,-202.5l-1035,0c-111.763,0 -202.5,90.737 -202.5,202.5l0,405c0,111.763 90.737,202.5 202.5,202.5l1035,0c111.763,0 202.5,-90.737 202.5,-202.5l-0,-405Z"/></clipPath><g clip-path="url(#_clip1)"><g id="mängu-logo" serif:id="mängu logo"><ellipse cx="720" cy="190" rx="1367.88" ry="858.875" style="fill:url(#_Radial2);"/><g id="lennuk"><path d="M720.01,351.568c24.901,0.977 57.975,-14.537 57.975,-14.537l5.417,-11.52l48.307,-12.472c0,-0 51.088,-14.009 51.908,-10.566c0.819,3.443 2.497,8.088 4.062,8.639c1.566,0.552 5.336,2.594 8.126,-1.439c2.79,-4.034 -0,-11.52 -0,-11.52l13.542,-2.879c0,-0 0.148,6.907 0,7.199c-6.344,6.769 -16.437,13.867 -18.959,34.558c4.095,57.059 43.856,45.764 48.753,44.636c4.897,-1.128 34.791,-16.299 28.439,-57.596c-10.133,-29.086 -32.502,-28.797 -32.502,-28.797l0,-4.32c0,-0 24.172,-5.358 37.919,-7.2c1.564,6.2 1.238,10.835 9.48,10.08c8.242,-0.756 12.188,-14.399 12.188,-14.399c0,-0 96.871,-21.058 97.507,-18.719c0.636,2.34 -0.188,8.501 7.878,7.19c8.067,-1.31 9.727,-12.949 9.727,-12.949c115.06,-24.505 192.304,-60.476 192.304,-60.476c0,0 -3.235,-3.126 -2.708,-1.44c-118.93,37.869 -147.614,41.757 -147.614,41.757l-94.798,20.159l-56.879,10.079l-75.838,11.519l-135.425,10.079l4.062,-8.639l94.798,-20.159l1.355,-4.319l2.708,-0l0,-2.88c0,-0 -95.839,14.751 -96.152,12.959c-0.313,-1.792 1.993,-27.631 -1.354,-35.997c-3.348,-8.367 -1.694,-17.126 -20.314,-35.998c-18.62,-18.872 -50.108,-21.598 -50.108,-21.598l-2.708,-116.632l-2.709,0l-2.708,116.632c-0,-0 -31.488,2.726 -50.107,21.598c-18.62,18.872 -16.967,27.631 -20.314,35.998c-3.348,8.366 -1.042,34.205 -1.355,35.997c-0.312,1.792 -96.152,-12.959 -96.152,-12.959l0,2.88l2.709,-0l1.354,4.319l94.798,20.159l4.063,8.639l-135.426,-10.079l-75.838,-11.519l-56.879,-10.079l-94.797,-20.159c-0,0 -28.684,-3.888 -147.614,-41.757c0.527,-1.686 -2.709,1.44 -2.709,1.44c0,0 77.244,35.971 192.304,60.476c0,-0 1.661,11.639 9.727,12.949c8.067,1.311 7.243,-4.85 7.879,-7.19c0.636,-2.339 97.506,18.719 97.506,18.719c0,-0 3.946,13.643 12.188,14.399c8.242,0.755 7.917,-3.88 9.48,-10.08c13.747,1.842 37.919,7.2 37.919,7.2l0,4.32c0,-0 -22.369,-0.289 -32.502,28.797c-6.352,41.297 20.834,55.028 28.439,57.596c4.776,1.613 47.367,6.663 48.754,-44.636c-2.522,-20.691 -12.615,-27.789 -18.96,-34.558c-0.148,-0.292 0,-7.199 0,-7.199l13.543,2.879c-0,0 -2.79,7.486 -0,11.52c2.79,4.033 6.559,1.991 8.125,1.439c1.566,-0.551 3.244,-5.196 4.063,-8.639c0.819,-3.443 51.907,10.566 51.907,10.566l48.308,12.472l5.417,11.52c-0,-0 30.881,15.514 58.491,14.537Z" style="fill:#fff;stroke:#000;stroke-width:1.8px;"/><path d="M715.689,170.003l2.708,-116.632l2.709,0l2.708,116.632l-8.125,-0Z" style="fill:#000100;stroke:#000;stroke-width:1.8px;"/><path d="M689.958,216.079l27.085,1.44l0,20.159l-5.619,1.685l-30.032,1.312l8.566,-24.596Z" style="fill:#000100;stroke:#000;stroke-width:1.8px;"/><path d="M750.9,216.079l-27.086,1.44l0,20.159l5.62,1.685l30.032,1.312l-8.566,-24.596Z" style="fill:#000100;stroke:#000;stroke-width:1.8px;"/><path d="M661.519,223.279l8.125,-5.76c0,0 -9.14,20.062 -9.479,27.358c-4.966,-1.915 -5.418,-4.319 -5.418,-4.319l6.772,-17.279Z" style="fill:#000100;stroke:#000;stroke-width:1.8px;"/><path d="M779.339,223.279l-8.126,-5.76c0,0 9.14,20.062 9.48,27.358c4.966,-1.915 5.417,-4.319 5.417,-4.319l-6.771,-17.279Z" style="fill:#000100;stroke:#000;stroke-width:1.8px;"/><path d="M673.707,217.519l12.188,0c0,0 -7.772,19.628 -8.125,21.599c-0.353,1.971 -3.963,-1.382 -14.897,5.759c5.256,-16.552 10.905,-28.093 10.834,-27.358Z" style="fill:#000100;stroke:#000;stroke-width:1.8px;"/><path d="M767.151,217.519l-12.189,0c0,0 7.773,19.628 8.126,21.599c0.353,1.971 3.963,-1.382 14.897,5.759c-5.256,-16.552 -10.906,-28.093 -10.834,-27.358Z" style="fill:#000100;stroke:#000;stroke-width:1.8px;"/><path d="M645.216,263.624l2.76,14.371l-96.096,-20.159l-1.373,-4.319l-2.746,-0l0,-2.88l97.455,12.987Z"/><path d="M794.287,263.624l-2.76,14.371l96.097,-20.159l1.372,-4.319l2.746,-0l0,-2.88l-97.455,12.987Z"/><ellipse cx="930.338" cy="340.011" rx="41.982" ry="47.617" style="fill:#fff;stroke:#000;stroke-width:1.8px;"/><ellipse cx="930.338" cy="339.91" rx="29.116" ry="34.557"/><ellipse cx="929.661" cy="338.47" rx="10.834" ry="11.519" style="fill:#0071cd;stroke:#000;stroke-width:1.8px;"/><ellipse cx="509.842" cy="340.011" rx="41.982" ry="47.617" style="fill:#fff;stroke:#000;stroke-width:1.8px;"/><ellipse cx="510.519" cy="339.91" rx="29.116" ry="34.557"/><ellipse cx="511.197" cy="338.47" rx="10.834" ry="11.519" style="fill:#0071cd;stroke:#000;stroke-width:1.8px;"/></g><g id="mask"><path d="M719.687,364.389c5.508,1.703 14.211,-4.086 20.314,-7.2c5.619,-2.165 38.151,-29.287 39.274,-31.678c1.122,-2.39 1.354,-7.199 1.354,-7.199c-0,-0 1.89,0.54 4.063,-0c0.153,-2.443 -0.042,-4.228 2.708,-10.079c2.75,-5.852 3.524,-10.111 4.063,-15.839c0.539,-5.729 -2.444,-10.234 -4.063,-14.399c-1.619,-4.165 0,-20.159 0,-20.159c0,0 -25.829,-1.882 -48.753,-5.759c-6.791,-5.545 -18.96,-5.76 -18.96,-5.76l0.065,0c-0,0 -12.169,0.215 -18.96,5.76c-22.924,3.877 -48.753,5.759 -48.753,5.759c-0,0 1.619,15.994 -0,20.159c-1.619,4.165 -4.602,8.67 -4.063,14.399c0.539,5.728 1.313,9.987 4.063,15.839c2.75,5.851 2.555,7.636 2.708,10.079c2.173,0.54 4.063,-0 4.063,-0c0,-0 0.232,4.809 1.355,7.199c1.122,2.391 33.654,29.513 39.273,31.678c6.103,3.114 14.806,8.903 20.314,7.2" style="fill:#0e4d82;stroke:#000;stroke-width:1.8px;"/><path d="M657.456,267.916l44.69,-5.76c0,0 11.058,-4.318 17.606,-4.32c7.76,-0.002 16.251,4.32 16.251,4.32l44.69,5.76" style="fill:none;stroke:#000;stroke-width:1.8px;"/><path d="M656.102,293.834c-0,-0 46.479,-8.836 62.295,-8.64c15.859,0.197 60.942,8.64 60.942,8.64" style="fill:none;stroke:#000;stroke-width:1.8px;"/><path d="M657.456,306.793c0,-0 4.615,1.933 9.48,2.88c4.865,0.946 48.095,7.644 52.816,7.199c4.767,0.304 46.596,-6.253 51.461,-7.199c4.865,-0.947 9.48,-2.88 9.48,-2.88" style="fill:none;stroke:#000;stroke-width:1.8px;"/><path d="M662.873,319.752c0,-0 15.313,7.352 18.96,8.639c3.646,1.287 25.117,10.176 36.564,10.079c11.448,-0.096 -10.093,-0.096 1.355,0c11.447,0.097 32.918,-8.792 36.565,-10.079c3.646,-1.287 18.959,-8.639 18.959,-8.639" style="fill:none;stroke:#000;stroke-width:1.8px;"/><path d="M652.24,260.078c0,-0 -3.452,-2.914 -8.327,-13.761c-0.239,-0.795 -1.53,-2.6 -2.708,0c-1.683,9.382 -3.232,14.937 -1.354,27.358c1.877,12.421 8.884,20.63 8.125,20.159c-0.758,-0.471 1.354,-10.08 1.354,-10.08l4.063,-7.199l-1.153,-16.477Z" style="fill:none;stroke:#000;stroke-width:1.8px;"/><path d="M787.76,258.638c-0,-0 3.452,-2.914 8.327,-13.761c0.239,-0.795 1.53,-2.6 2.708,0c1.683,9.382 3.232,14.937 1.354,27.358c-1.877,12.421 -8.884,20.63 -8.125,20.159c0.758,-0.471 -1.354,-10.079 -1.354,-10.079l-4.063,-7.2l1.153,-16.477Z" style="fill:none;stroke:#000;stroke-width:1.8px;"/></g><g transform="matrix(1.35425,0,0,1.43989,-569.927,-158.293)"><g transform="matrix(0.986621,0.163031,-0.163031,0.986621,82.2535,-112.141)"><path d="M745.062,416.152l9.982,0c1.06,0 1.59,0.367 1.59,1.102c-0,0.58 -0.283,0.961 -0.848,1.145c-0.466,0.155 -0.738,0.25 -0.816,0.286c-0.078,0.035 -0.159,0.116 -0.244,0.244c-0.169,0.226 -0.254,0.586 -0.254,1.08l-0,21.216c-0,0.495 0.085,0.855 0.254,1.081c0.085,0.127 0.166,0.208 0.244,0.244c0.078,0.035 0.35,0.13 0.816,0.286c0.565,0.183 0.848,0.565 0.848,1.144c-0,0.735 -0.53,1.102 -1.59,1.102l-10.703,0c-0.622,0 -1.091,-0.095 -1.409,-0.286c-0.318,-0.191 -0.477,-0.477 -0.477,-0.858c-0,-0.622 0.339,-1.01 1.017,-1.166c0.551,-0.141 0.876,-0.229 0.975,-0.265c0.099,-0.035 0.198,-0.116 0.297,-0.243c0.212,-0.255 0.318,-0.658 0.318,-1.209l-0,-24.903Zm-7.8,0l4.175,11.89l1.844,-6.422l0,7.037l-4.896,16.425l-1.123,0l-8.223,-24.394c-0.283,-0.82 -0.58,-1.371 -0.89,-1.653c-0.184,-0.184 -0.502,-0.318 -0.954,-0.403c-0.919,-0.198 -1.378,-0.636 -1.378,-1.314c0,-0.368 0.131,-0.654 0.392,-0.859c0.262,-0.204 0.64,-0.307 1.134,-0.307l9.919,0Zm-8.223,9.749l2.246,6.401l0,6.38c0,0.65 0.025,1.116 0.075,1.398c0.049,0.283 0.159,0.594 0.328,0.933c0.297,0.622 0.707,1.088 1.229,1.399l0.785,0.509c0.536,0.325 0.805,0.685 0.805,1.08c-0,0.721 -0.53,1.081 -1.59,1.081l-5.319,0c-1.06,0 -1.59,-0.353 -1.59,-1.059c0,-0.226 0.046,-0.4 0.138,-0.52c0.092,-0.12 0.272,-0.257 0.54,-0.413c1.569,-0.848 2.353,-2.317 2.353,-4.408l-0,-12.781Z" style="fill:#fff;fill-rule:nonzero;stroke:#000;stroke-width:0.71px;stroke-linecap:butt;stroke-miterlimit:2;"/></g><g transform="matrix(0.99081,0.135262,-0.135262,0.99081,67.9103,-98.3795)"><path d="M768.175,421.638l8.542,0l5.892,24.904c0.113,0.438 0.24,0.826 0.381,1.165c0.127,0.269 0.41,0.488 0.848,0.657c0.367,0.156 0.622,0.311 0.763,0.467c0.141,0.155 0.212,0.367 0.212,0.636c-0,0.734 -0.551,1.102 -1.653,1.102l-10.576,-0c-0.424,-0 -0.763,-0.103 -1.018,-0.308c-0.254,-0.205 -0.381,-0.477 -0.381,-0.816c-0,-0.282 0.057,-0.494 0.17,-0.636c0.113,-0.141 0.367,-0.317 0.763,-0.529c0.282,-0.142 0.48,-0.297 0.593,-0.467c0.113,-0.169 0.17,-0.381 0.17,-0.635c-0,-0.241 -0.022,-0.453 -0.064,-0.636l-0.678,-3.073l-5.913,-0l0.572,-2.523l4.747,0l-3.899,-17.231l0.529,-2.077Zm-1.462,5.384l1.081,4.387l-3.751,13.691c-0.114,0.396 -0.17,0.763 -0.17,1.103c-0,0.89 0.417,1.526 1.25,1.907l0.742,0.339c0.466,0.212 0.7,0.565 0.7,1.06c-0,0.706 -0.516,1.06 -1.548,1.06l-5.383,-0c-0.523,-0 -0.936,-0.11 -1.24,-0.329c-0.304,-0.219 -0.455,-0.519 -0.455,-0.901c-0,-0.409 0.31,-0.749 0.932,-1.017c0.579,-0.254 1.007,-0.484 1.282,-0.689c0.276,-0.205 0.541,-0.484 0.795,-0.837c0.396,-0.579 0.721,-1.349 0.975,-2.31l4.79,-17.464Zm1.462,-13.437c0.862,-0 1.601,0.307 2.215,0.921c0.615,0.615 0.922,1.353 0.922,2.215c0,0.862 -0.307,1.6 -0.922,2.215c-0.614,0.615 -1.353,0.922 -2.215,0.922c-0.862,0 -1.6,-0.307 -2.214,-0.922c-0.615,-0.615 -0.922,-1.353 -0.922,-2.215c-0,-0.862 0.307,-1.6 0.922,-2.215c0.614,-0.614 1.352,-0.921 2.214,-0.921Zm8.075,-0c0.862,-0 1.601,0.307 2.215,0.921c0.615,0.615 0.922,1.353 0.922,2.215c0,0.862 -0.307,1.6 -0.922,2.215c-0.614,0.615 -1.353,0.922 -2.215,0.922c-0.861,0 -1.6,-0.307 -2.214,-0.922c-0.615,-0.615 -0.922,-1.353 -0.922,-2.215c-0,-0.862 0.307,-1.6 0.922,-2.215c0.614,-0.614 1.353,-0.921 2.214,-0.921Z" style="fill:#fff;fill-rule:nonzero;stroke:#000;stroke-width:0.71px;stroke-linecap:butt;stroke-miterlimit:2;"/></g><g transform="matrix(0.993777,0.111389,-0.111389,0.993777,55.4767,-84.5612)"><path d="M798.261,425.284l11.276,19.583l-0,9.347l-5.786,-0l-14.391,-24.797c-0.311,-0.537 -0.565,-0.912 -0.763,-1.124c-0.198,-0.212 -0.452,-0.367 -0.763,-0.466l-0.806,-0.297c-0.212,-0.07 -0.381,-0.198 -0.508,-0.381c-0.127,-0.184 -0.191,-0.389 -0.191,-0.615c-0,-0.24 0.064,-0.463 0.191,-0.667c0.127,-0.205 0.296,-0.35 0.508,-0.435c0.241,-0.099 0.891,-0.148 1.95,-0.148l9.283,-0Zm-8.88,7.439l2.247,3.73l-0,11.36c-0,0.989 0.166,1.802 0.498,2.438c0.332,0.635 0.858,1.158 1.579,1.568l0.635,0.36c0.368,0.212 0.551,0.53 0.551,0.954c0,0.325 -0.134,0.593 -0.402,0.805c-0.226,0.184 -0.693,0.276 -1.399,0.276l-4.896,-0c-1.286,-0 -1.929,-0.367 -1.929,-1.102c0,-0.254 0.067,-0.456 0.202,-0.604c0.134,-0.149 0.427,-0.35 0.879,-0.604c1.357,-0.749 2.035,-2.113 2.035,-4.091l-0,-15.09Zm20.156,8.753l-2.247,-3.794l0,-5.87c0,-1.187 -0.173,-2.095 -0.519,-2.724c-0.346,-0.629 -0.957,-1.169 -1.833,-1.621c-0.297,-0.142 -0.502,-0.293 -0.615,-0.456c-0.113,-0.162 -0.17,-0.371 -0.17,-0.625c0,-0.382 0.124,-0.661 0.371,-0.837c0.248,-0.177 0.647,-0.265 1.198,-0.265l5.298,-0c0.721,-0 1.194,0.113 1.42,0.339c0.241,0.226 0.361,0.494 0.361,0.805c-0,0.297 -0.067,0.519 -0.202,0.668c-0.134,0.148 -0.455,0.35 -0.964,0.604c-0.749,0.381 -1.314,0.968 -1.696,1.759c-0.268,0.579 -0.402,1.363 -0.402,2.353l-0,9.664Z" style="fill:#fff;fill-rule:nonzero;stroke:#000;stroke-width:0.71px;stroke-linecap:butt;stroke-miterlimit:2;"/></g><g transform="matrix(0.995962,0.0897737,-0.0897737,0.995962,44.3512,-71.1813)"><path d="M826.253,427.943l-0,2.352c-1.244,0.297 -1.865,1.286 -1.865,2.968l-0,19.731c-0,0.763 0.106,1.35 0.318,1.76c0.183,0.339 0.572,0.628 1.165,0.869l0,2.394c-0.452,0 -0.865,-0.035 -1.24,-0.105c-0.374,-0.071 -0.872,-0.212 -1.494,-0.424c-1.483,-0.509 -2.826,-1.286 -4.027,-2.332c-1.201,-1.045 -2.19,-2.296 -2.967,-3.751c-1.201,-2.275 -1.801,-4.967 -1.801,-8.075c-0,-3.01 0.536,-5.68 1.61,-8.012c1.074,-2.331 2.614,-4.161 4.621,-5.489c1.158,-0.777 2.402,-1.335 3.73,-1.674c0.551,-0.142 1.201,-0.212 1.95,-0.212Zm1.738,2.31l-0,-2.289c2.303,0.212 4.196,0.636 5.68,1.272c0.438,0.197 0.777,0.296 1.017,0.296c0.226,0 0.399,-0.053 0.519,-0.159c0.12,-0.106 0.364,-0.406 0.732,-0.9c0.254,-0.354 0.572,-0.53 0.953,-0.53c0.396,-0 0.675,0.109 0.837,0.328c0.163,0.219 0.244,0.583 0.244,1.092l0,8.244c0,1.074 -0.395,1.611 -1.187,1.611c-0.395,0 -0.688,-0.106 -0.879,-0.318c-0.191,-0.212 -0.371,-0.629 -0.541,-1.25c-0.212,-0.792 -0.593,-1.713 -1.144,-2.766c-0.551,-1.053 -1.081,-1.883 -1.59,-2.49c-0.579,-0.707 -1.229,-1.226 -1.95,-1.558c-0.72,-0.332 -1.617,-0.527 -2.691,-0.583Zm9.58,23.653c-0.566,0.565 -1.318,1.141 -2.258,1.727c-0.939,0.586 -1.826,1.049 -2.66,1.388c-0.763,0.297 -1.607,0.537 -2.532,0.721c-0.926,0.184 -1.742,0.275 -2.448,0.275l-0,-2.394c0.41,-0.099 0.717,-0.219 0.922,-0.361c0.205,-0.141 0.378,-0.339 0.519,-0.593c0.24,-0.438 0.36,-0.996 0.36,-1.675l0,-6.188c0,-0.551 -0.106,-0.947 -0.318,-1.187c-0.099,-0.141 -0.197,-0.23 -0.296,-0.265c-0.099,-0.035 -0.424,-0.117 -0.975,-0.244c-0.679,-0.169 -1.018,-0.565 -1.018,-1.187c0,-0.367 0.159,-0.65 0.477,-0.848c0.318,-0.197 0.788,-0.296 1.41,-0.296l8.456,-0c0.636,-0 1.085,0.088 1.346,0.265c0.261,0.176 0.392,0.484 0.392,0.922c0,0.268 -0.053,0.491 -0.159,0.667c-0.106,0.177 -0.3,0.364 -0.583,0.562c-0.282,0.198 -0.459,0.381 -0.53,0.551c-0.07,0.17 -0.105,0.48 -0.105,0.933l-0,7.227Z" style="fill:#fff;fill-rule:nonzero;stroke:#000;stroke-width:0.71px;stroke-linecap:butt;stroke-miterlimit:2;"/></g><g transform="matrix(0.997346,0.0728033,-0.0728033,0.997346,35.7064,-59.9578)"><path d="M854.201,459.82l-10.555,-0c-0.508,-0 -0.9,-0.096 -1.176,-0.286c-0.275,-0.191 -0.413,-0.463 -0.413,-0.816c-0,-0.58 0.282,-0.961 0.848,-1.145c0.466,-0.155 0.738,-0.251 0.816,-0.286c0.077,-0.035 0.158,-0.117 0.243,-0.244c0.17,-0.226 0.255,-0.586 0.255,-1.081l-0,-21.215c-0,-0.495 -0.085,-0.855 -0.255,-1.081c-0.085,-0.127 -0.166,-0.209 -0.243,-0.244c-0.078,-0.035 -0.35,-0.131 -0.816,-0.286c-0.566,-0.184 -0.848,-0.565 -0.848,-1.144c-0,-0.354 0.138,-0.626 0.413,-0.816c0.276,-0.191 0.668,-0.287 1.176,-0.287l10.555,0c0.509,0 0.901,0.096 1.176,0.287c0.276,0.19 0.414,0.462 0.414,0.816c-0,0.579 -0.283,0.96 -0.848,1.144c-0.466,0.155 -0.738,0.251 -0.816,0.286c-0.078,0.035 -0.159,0.117 -0.244,0.244c-0.169,0.226 -0.254,0.586 -0.254,1.081l-0,21.215c-0,0.495 0.085,0.855 0.254,1.081c0.085,0.127 0.166,0.209 0.244,0.244c0.078,0.035 0.35,0.131 0.816,0.286c0.565,0.184 0.848,0.565 0.848,1.145c-0,0.353 -0.138,0.625 -0.414,0.816c-0.275,0.19 -0.667,0.286 -1.176,0.286Z" style="fill:#fff;fill-rule:nonzero;stroke:#000;stroke-width:0.71px;stroke-linecap:butt;stroke-miterlimit:2;"/></g><g transform="matrix(0.998724,0.050495,-0.050495,0.998724,24.4247,-43.2582)"><path d="M878.904,456.916l-0,-20.05c-0,-0.876 -0.254,-1.371 -0.763,-1.484l-0.827,-0.212c-0.678,-0.169 -1.017,-0.558 -1.017,-1.166c-0,-0.381 0.159,-0.667 0.477,-0.858c0.318,-0.191 0.788,-0.286 1.409,-0.286l0.7,-0.021l9.431,-0l0.572,-0.021l0.763,0.084c0.551,0.156 0.827,0.502 0.827,1.039c-0,0.565 -0.283,0.947 -0.848,1.144l-0.678,0.212c-0.424,0.142 -0.636,0.608 -0.636,1.399l0,17.719c0,2.585 -0.848,4.556 -2.543,5.913c-0.806,0.636 -1.83,1.134 -3.073,1.494c-1.244,0.36 -2.558,0.54 -3.943,0.54c-0.24,0 -0.649,-0.014 -1.229,-0.042l0,-2.458c0.099,-0.071 0.17,-0.121 0.212,-0.149c0.283,-0.212 0.484,-0.385 0.604,-0.519c0.12,-0.134 0.223,-0.3 0.308,-0.498c0.169,-0.466 0.254,-1.06 0.254,-1.78Zm-3.285,2.946l-0,2.331c-1.766,-0.283 -3.179,-0.77 -4.239,-1.462c-0.961,-0.636 -1.706,-1.417 -2.236,-2.342c-0.53,-0.926 -0.795,-1.919 -0.795,-2.978c0,-1.286 0.442,-2.388 1.325,-3.307c0.883,-0.918 1.939,-1.377 3.168,-1.377c1.173,-0 2.173,0.413 2.999,1.24c0.827,0.826 1.24,1.819 1.24,2.977c0,0.905 -0.304,1.745 -0.911,2.523c-0.41,0.522 -1.003,0.953 -1.781,1.292c-0.254,0.128 -0.388,0.227 -0.402,0.297c-0.014,0.071 0.046,0.159 0.18,0.265c0.134,0.106 0.3,0.201 0.498,0.286c0.212,0.085 0.53,0.17 0.954,0.255Z" style="fill:#fff;fill-rule:nonzero;stroke:#000;stroke-width:0.71px;stroke-linecap:butt;stroke-miterlimit:2;"/></g><g transform="matrix(0.999475,0.0323942,-0.0323942,0.999475,15.4649,-28.6379)"><path d="M901.783,434.022l8.541,0l5.892,24.903c0.114,0.439 0.241,0.827 0.382,1.166c0.127,0.269 0.41,0.488 0.848,0.657c0.367,0.156 0.621,0.311 0.763,0.466c0.141,0.156 0.212,0.368 0.212,0.636c-0,0.735 -0.551,1.102 -1.653,1.102l-10.576,0c-0.424,0 -0.763,-0.102 -1.018,-0.307c-0.254,-0.205 -0.381,-0.477 -0.381,-0.816c-0,-0.282 0.056,-0.494 0.169,-0.636c0.113,-0.141 0.368,-0.318 0.763,-0.53c0.283,-0.141 0.481,-0.296 0.594,-0.466c0.113,-0.169 0.169,-0.381 0.169,-0.636c0,-0.24 -0.021,-0.452 -0.063,-0.636l-0.679,-3.073l-5.913,0l0.573,-2.522l4.747,0l-3.9,-17.231l0.53,-2.077Zm-1.462,5.384l1.081,4.387l-3.752,13.691c-0.113,0.396 -0.169,0.763 -0.169,1.102c-0,0.891 0.417,1.526 1.25,1.908l0.742,0.339c0.466,0.212 0.699,0.565 0.699,1.06c0,0.706 -0.515,1.059 -1.547,1.059l-5.383,0c-0.523,0 -0.936,-0.109 -1.24,-0.328c-0.304,-0.219 -0.456,-0.519 -0.456,-0.901c0,-0.41 0.311,-0.749 0.933,-1.017c0.579,-0.255 1.007,-0.484 1.282,-0.689c0.276,-0.205 0.541,-0.484 0.795,-0.837c0.396,-0.579 0.72,-1.35 0.975,-2.31l4.79,-17.464Z" style="fill:#fff;fill-rule:nonzero;stroke:#000;stroke-width:0.71px;stroke-linecap:butt;stroke-miterlimit:2;"/></g><g transform="matrix(0.999983,0.00587486,-0.00587486,0.999983,2.7422,-5.45122)"><path d="M942.563,435.109l0,24.903c0,0.551 0.106,0.947 0.318,1.187c0.113,0.141 0.219,0.229 0.318,0.265c0.099,0.035 0.424,0.123 0.975,0.265c0.678,0.155 1.017,0.544 1.017,1.165c0,0.368 -0.183,0.665 -0.551,0.891c-0.268,0.169 -0.713,0.254 -1.335,0.254l-10.724,-0c-0.509,-0 -0.901,-0.095 -1.177,-0.286c-0.275,-0.191 -0.413,-0.463 -0.413,-0.816c0,-0.58 0.283,-0.961 0.848,-1.145c0.466,-0.155 0.738,-0.25 0.816,-0.286c0.078,-0.035 0.159,-0.116 0.244,-0.244c0.169,-0.226 0.254,-0.586 0.254,-1.08l-0,-21.216c-0,-0.495 -0.085,-0.855 -0.254,-1.081c-0.085,-0.127 -0.166,-0.208 -0.244,-0.244c-0.078,-0.035 -0.35,-0.13 -0.816,-0.286c-0.565,-0.183 -0.848,-0.565 -0.848,-1.144c0,-0.353 0.138,-0.625 0.413,-0.816c0.276,-0.191 0.668,-0.286 1.177,-0.286l9.982,-0Zm1.802,17.845l-0,-2.268c0.607,-0.141 1.035,-0.289 1.282,-0.445c0.247,-0.155 0.463,-0.395 0.646,-0.72c0.297,-0.551 0.446,-1.293 0.446,-2.226l-0,-6.782c-0,-0.664 -0.05,-1.158 -0.149,-1.483c-0.099,-0.325 -0.297,-0.622 -0.593,-0.891c-0.41,-0.395 -0.961,-0.642 -1.653,-0.741l-0,-2.289c2.91,-0 5.058,0.275 6.443,0.826c1.596,0.636 2.861,1.611 3.793,2.925c0.947,1.342 1.42,2.988 1.42,4.938c0,2.176 -0.48,3.957 -1.441,5.341c-0.961,1.371 -2.303,2.381 -4.027,3.031c-1.427,0.523 -3.483,0.784 -6.167,0.784Z" style="fill:#fff;fill-rule:nonzero;stroke:#000;stroke-width:0.72px;stroke-linecap:butt;stroke-miterlimit:2;"/></g><g transform="matrix(0.999913,-0.0131741,0.0131741,0.999913,-6.03257,12.6462)"><path d="M960.411,455.757l0,-16.616c0,-0.495 -0.085,-0.855 -0.254,-1.081c-0.085,-0.127 -0.166,-0.208 -0.244,-0.244c-0.078,-0.035 -0.35,-0.13 -0.816,-0.286c-0.565,-0.184 -0.848,-0.558 -0.848,-1.123c0,-0.368 0.138,-0.647 0.414,-0.837c0.275,-0.191 0.667,-0.287 1.176,-0.287l10.555,0l0.763,0.085c0.24,0.071 0.438,0.198 0.593,0.382c0.155,0.183 0.233,0.402 0.233,0.657c0,0.565 -0.282,0.939 -0.848,1.123c-0.466,0.156 -0.738,0.251 -0.816,0.286c-0.077,0.036 -0.159,0.117 -0.243,0.244c-0.17,0.226 -0.255,0.586 -0.255,1.081l0,17.782c0,1.201 0.032,2.038 0.096,2.511c0.063,0.474 0.194,0.901 0.392,1.283c0.184,0.353 0.388,0.607 0.614,0.763c0.227,0.155 0.658,0.332 1.293,0.53l0,2.776l-0.466,-0c-1.837,-0 -3.363,-0.163 -4.578,-0.487c-1.427,-0.382 -2.677,-0.947 -3.751,-1.696c-1.074,-0.749 -1.837,-1.59 -2.289,-2.522c-0.481,-0.989 -0.721,-2.43 -0.721,-4.324Zm13.755,9.029l0,-2.776c1.413,-0.184 2.593,-0.763 3.54,-1.738c1.074,-1.117 1.61,-2.72 1.61,-4.812l0,-13.818c0,-1.936 -0.741,-3.285 -2.225,-4.048c-0.438,-0.226 -0.724,-0.421 -0.858,-0.583c-0.135,-0.163 -0.202,-0.399 -0.202,-0.71c0,-0.368 0.135,-0.629 0.403,-0.784c0.268,-0.156 0.706,-0.234 1.314,-0.234l5.193,0c0.438,0 0.731,0.011 0.879,0.032c0.149,0.021 0.293,0.074 0.435,0.159c0.367,0.212 0.551,0.502 0.551,0.869c-0,0.311 -0.113,0.572 -0.339,0.784c-0.071,0.071 -0.375,0.262 -0.912,0.573c-0.621,0.339 -1.109,0.858 -1.462,1.557c-0.353,0.7 -0.53,1.495 -0.53,2.385l0,13.84c0,2.373 -0.523,4.323 -1.568,5.849c-0.763,1.131 -1.858,2.035 -3.285,2.713c-0.707,0.339 -1.555,0.587 -2.544,0.742Zm-6.676,-37.556c0.862,-0 1.6,0.307 2.215,0.922c0.614,0.614 0.922,1.352 0.922,2.214c-0,0.862 -0.308,1.601 -0.922,2.215c-0.615,0.615 -1.353,0.922 -2.215,0.922c-0.862,0 -1.6,-0.307 -2.215,-0.922c-0.614,-0.614 -0.922,-1.353 -0.922,-2.215c0,-0.862 0.308,-1.6 0.922,-2.214c0.615,-0.615 1.353,-0.922 2.215,-0.922Zm8.096,-0c0.862,-0 1.6,0.307 2.215,0.922c0.615,0.614 0.922,1.352 0.922,2.214c-0,0.862 -0.307,1.601 -0.922,2.215c-0.615,0.615 -1.353,0.922 -2.215,0.922c-0.862,0 -1.6,-0.307 -2.215,-0.922c-0.614,-0.614 -0.922,-1.353 -0.922,-2.215c0,-0.862 0.308,-1.6 0.922,-2.214c0.615,-0.615 1.353,-0.922 2.215,-0.922Z" style="fill:#fff;fill-rule:nonzero;stroke:#000;stroke-width:0.72px;stroke-linecap:butt;stroke-miterlimit:2;"/></g><g transform="matrix(0.999497,-0.0317104,0.0317104,0.999497,-14.2115,31.5065)"><path d="M997.721,434.302l0,2.437c-0.876,0.241 -1.544,0.611 -2.003,1.113c-0.459,0.502 -0.689,1.12 -0.689,1.855c0,0.706 0.191,1.324 0.573,1.854c0.381,0.53 1.003,1.035 1.865,1.515c0.593,0.325 1.935,0.947 4.027,1.866c1.271,0.551 2.257,1.049 2.956,1.494c0.7,0.445 1.36,0.999 1.982,1.664c1.667,1.752 2.501,3.836 2.501,6.252c-0,1.823 -0.452,3.49 -1.357,5.002c-0.904,1.512 -2.147,2.698 -3.73,3.56c-0.848,0.453 -1.777,0.809 -2.787,1.071c-1.01,0.261 -1.953,0.392 -2.829,0.392l-0,-2.416c1.229,-0.297 2.116,-0.71 2.66,-1.24c0.544,-0.53 0.816,-1.247 0.816,-2.151c-0,-0.947 -0.424,-1.781 -1.272,-2.501c-0.565,-0.467 -1.639,-1.046 -3.222,-1.738c-1.738,-0.763 -2.928,-1.307 -3.571,-1.632c-0.643,-0.325 -1.261,-0.707 -1.854,-1.145c-2.657,-1.893 -3.985,-4.415 -3.985,-7.566c0,-1.611 0.332,-3.098 0.996,-4.462c0.664,-1.363 1.59,-2.462 2.777,-3.295c1.653,-1.159 3.702,-1.802 6.146,-1.929Zm1.674,2.437l0,-2.331c0.848,0.057 1.583,0.166 2.205,0.329c0.621,0.162 1.504,0.483 2.649,0.964c0.282,0.113 0.516,0.169 0.699,0.169c0.269,0 0.467,-0.091 0.594,-0.275l0.466,-0.615c0.226,-0.311 0.502,-0.466 0.827,-0.466c0.381,-0 0.66,0.138 0.837,0.413c0.176,0.276 0.265,0.71 0.265,1.304l-0,6.994c-0,0.41 -0.117,0.745 -0.35,1.007c-0.233,0.261 -0.533,0.392 -0.901,0.392c-0.282,-0 -0.544,-0.092 -0.784,-0.276c-0.127,-0.113 -0.23,-0.251 -0.307,-0.413c-0.078,-0.163 -0.152,-0.435 -0.223,-0.816c-0.155,-0.692 -0.424,-1.406 -0.805,-2.141c-0.382,-0.734 -0.827,-1.392 -1.335,-1.971c-1.018,-1.144 -2.296,-1.9 -3.837,-2.268Zm-2.776,25.222l-0,2.416c-1.159,-0 -2.437,-0.332 -3.836,-0.996c-0.523,-0.241 -0.883,-0.396 -1.081,-0.467c-0.198,-0.07 -0.389,-0.106 -0.572,-0.106c-0.283,0 -0.495,0.046 -0.636,0.138c-0.142,0.092 -0.368,0.322 -0.678,0.689c-0.255,0.311 -0.53,0.466 -0.827,0.466c-0.791,0 -1.187,-0.607 -1.187,-1.822l0,-7.715c0,-0.396 0.113,-0.731 0.339,-1.007c0.226,-0.275 0.509,-0.42 0.848,-0.434c0.311,-0.015 0.555,0.074 0.731,0.265c0.177,0.19 0.329,0.526 0.456,1.006c0.325,1.215 0.795,2.353 1.409,3.413c0.615,1.059 1.332,1.956 2.151,2.691c0.834,0.763 1.795,1.251 2.883,1.463Z" style="fill:#fff;fill-rule:nonzero;stroke:#000;stroke-width:0.72px;stroke-linecap:butt;stroke-miterlimit:2;"/></g><g transform="matrix(0.998925,-0.0463611,0.0463611,0.998925,-20.3789,47.3476)"><path d="M1024.42,463.007l-10.554,-0c-0.509,-0 -0.901,-0.095 -1.177,-0.286c-0.275,-0.191 -0.413,-0.463 -0.413,-0.816c0,-0.579 0.283,-0.961 0.848,-1.145c0.466,-0.155 0.738,-0.25 0.816,-0.286c0.078,-0.035 0.159,-0.116 0.244,-0.244c0.169,-0.226 0.254,-0.586 0.254,-1.08l-0,-21.216c-0,-0.495 -0.085,-0.855 -0.254,-1.081c-0.085,-0.127 -0.166,-0.208 -0.244,-0.244c-0.078,-0.035 -0.35,-0.13 -0.816,-0.286c-0.565,-0.183 -0.848,-0.565 -0.848,-1.144c0,-0.353 0.138,-0.625 0.413,-0.816c0.276,-0.191 0.668,-0.286 1.177,-0.286l10.554,-0c0.509,-0 0.901,0.095 1.177,0.286c0.275,0.191 0.413,0.463 0.413,0.816c0,0.579 -0.283,0.961 -0.848,1.144c-0.466,0.156 -0.738,0.251 -0.816,0.286c-0.077,0.036 -0.159,0.117 -0.243,0.244c-0.17,0.226 -0.255,0.586 -0.255,1.081l0,21.216c0,0.494 0.085,0.854 0.255,1.08c0.084,0.128 0.166,0.209 0.243,0.244c0.078,0.036 0.35,0.131 0.816,0.286c0.565,0.184 0.848,0.566 0.848,1.145c0,0.353 -0.138,0.625 -0.413,0.816c-0.276,0.191 -0.668,0.286 -1.177,0.286Z" style="fill:#fff;fill-rule:nonzero;stroke:#000;stroke-width:0.72px;stroke-linecap:butt;stroke-miterlimit:2;"/></g><g transform="matrix(0.99737,-0.0724846,0.0724846,0.99737,-30.7319,76.4966)"><path d="M1052.92,461.669l-10.554,-0c-0.509,-0 -0.901,-0.096 -1.177,-0.287c-0.275,-0.19 -0.413,-0.462 -0.413,-0.815c0,-0.58 0.283,-0.961 0.848,-1.145c0.466,-0.155 0.738,-0.251 0.816,-0.286c0.078,-0.035 0.159,-0.117 0.244,-0.244c0.169,-0.226 0.254,-0.586 0.254,-1.081l-0,-21.215c-0,-0.495 -0.085,-0.855 -0.254,-1.081c-0.085,-0.127 -0.166,-0.209 -0.244,-0.244c-0.078,-0.035 -0.35,-0.131 -0.816,-0.286c-0.565,-0.184 -0.848,-0.565 -0.848,-1.145c0,-0.353 0.138,-0.625 0.413,-0.816c0.276,-0.19 0.668,-0.286 1.177,-0.286l10.554,0c0.509,0 0.901,0.096 1.177,0.286c0.275,0.191 0.413,0.463 0.413,0.816c-0,0.58 -0.283,0.961 -0.848,1.145c-0.466,0.155 -0.738,0.251 -0.816,0.286c-0.078,0.035 -0.159,0.117 -0.244,0.244c-0.169,0.226 -0.254,0.586 -0.254,1.081l0,21.215c0,0.791 0.205,1.258 0.615,1.399l0.657,0.212c0.537,0.17 0.805,0.551 0.805,1.145c0,0.734 -0.501,1.102 -1.505,1.102Zm7.842,-20.538l6.401,16.744c0.17,0.452 0.346,0.795 0.53,1.028c0.184,0.233 0.424,0.413 0.72,0.54c0.297,0.142 0.488,0.247 0.573,0.318c0.198,0.198 0.296,0.459 0.296,0.784c0,0.749 -0.529,1.124 -1.589,1.124l-10.661,-0c-0.509,-0 -0.901,-0.106 -1.176,-0.318c-0.276,-0.212 -0.413,-0.516 -0.413,-0.912c-0,-0.452 0.261,-0.805 0.784,-1.059c0.325,-0.156 0.544,-0.286 0.657,-0.392c0.113,-0.106 0.176,-0.251 0.19,-0.435c0,-0.099 -0.056,-0.325 -0.169,-0.678l-2.713,-8.096c-0.254,-0.749 -0.381,-1.385 -0.381,-1.908c-0,-0.494 0.204,-1.031 0.614,-1.611l5.066,-7.142c0.48,-0.664 0.72,-1.357 0.72,-2.077c0,-0.396 -0.106,-0.763 -0.318,-1.102c-0.212,-0.339 -0.494,-0.58 -0.847,-0.721l-0.763,-0.318c-0.481,-0.198 -0.721,-0.53 -0.721,-0.996c-0,-0.381 0.148,-0.692 0.445,-0.933c0.198,-0.155 0.523,-0.233 0.975,-0.233l7.545,0c0.495,0 0.88,0.11 1.155,0.329c0.276,0.219 0.414,0.526 0.414,0.922c-0,0.593 -0.325,1.017 -0.975,1.271l-1.124,0.446c-0.466,0.169 -1.059,0.551 -1.78,1.144c-0.537,0.452 -1.201,1.208 -1.992,2.268l-1.463,2.013Z" style="fill:#fff;fill-rule:nonzero;stroke:#000;stroke-width:0.72px;stroke-linecap:butt;stroke-miterlimit:2;"/></g><g transform="matrix(0.995504,-0.0947162,0.0947162,0.995504,-38.6954,103.445)"><path d="M1083.25,432.131c-0.72,0.254 -1.229,0.6 -1.526,1.038c-0.296,0.438 -0.445,1.081 -0.445,1.929l0,18.948c0,1.243 0.17,2.119 0.509,2.628c0.268,0.424 0.756,0.728 1.462,0.911l0,2.332c-3.136,-0.255 -5.764,-1.434 -7.884,-3.54c-2.755,-2.741 -4.133,-6.563 -4.133,-11.466c0,-2.458 0.364,-4.68 1.092,-6.665c0.727,-1.986 1.805,-3.671 3.232,-5.055c1.088,-1.06 2.261,-1.865 3.518,-2.416c1.258,-0.552 2.649,-0.862 4.175,-0.933l0,2.289Zm1.738,-0l0,-2.289c1.526,0.071 2.922,0.381 4.186,0.933c1.265,0.551 2.441,1.356 3.529,2.416c2.883,2.811 4.324,6.718 4.324,11.72c-0,4.903 -1.378,8.725 -4.133,11.466c-2.12,2.12 -4.755,3.3 -7.906,3.54l0,-2.332c0.368,-0.084 0.654,-0.194 0.859,-0.328c0.205,-0.134 0.392,-0.329 0.561,-0.583c0.382,-0.579 0.573,-1.455 0.573,-2.628l-0,-18.948c-0,-0.749 -0.128,-1.342 -0.382,-1.78c-0.169,-0.297 -0.371,-0.53 -0.604,-0.7c-0.233,-0.169 -0.569,-0.332 -1.007,-0.487Z" style="fill:#fff;fill-rule:nonzero;stroke:#000;stroke-width:0.72px;stroke-linecap:butt;stroke-miterlimit:2;"/></g><g transform="matrix(0.993083,-0.117412,0.117412,0.993083,-46.0347,132.049)"><path d="M1111.08,427.819l-0,28.93l-9.983,-0c-0.509,-0 -0.901,-0.096 -1.176,-0.286c-0.276,-0.191 -0.414,-0.463 -0.414,-0.816c0,-0.58 0.283,-0.961 0.848,-1.145c0.467,-0.155 0.739,-0.251 0.816,-0.286c0.078,-0.035 0.159,-0.117 0.244,-0.244c0.17,-0.226 0.254,-0.586 0.254,-1.081l0,-21.215c0,-0.495 -0.084,-0.855 -0.254,-1.081c-0.085,-0.127 -0.166,-0.208 -0.244,-0.244c-0.077,-0.035 -0.349,-0.13 -0.816,-0.286c-0.565,-0.184 -0.848,-0.565 -0.848,-1.144c0,-0.354 0.138,-0.626 0.414,-0.816c0.275,-0.191 0.667,-0.286 1.176,-0.286l9.983,-0Zm4.281,22.868l-0,-16.722c-0,-1.032 -0.149,-1.851 -0.445,-2.459c-0.184,-0.395 -0.41,-0.685 -0.678,-0.869c-0.269,-0.183 -0.693,-0.339 -1.272,-0.466l-0,-2.352c0.749,-0 1.385,0.028 1.907,0.084c1.795,0.198 3.533,0.961 5.214,2.289c1.667,1.286 2.904,2.96 3.709,5.023c0.834,2.092 1.251,4.409 1.251,6.952c-0,2.883 -0.53,5.443 -1.59,7.683c-1.06,2.24 -2.579,4.002 -4.557,5.288c-0.961,0.622 -1.854,1.046 -2.681,1.272c-0.826,0.226 -1.911,0.339 -3.253,0.339l-0,-2.289c0.593,-0.156 1.007,-0.297 1.24,-0.424c0.233,-0.127 0.434,-0.325 0.604,-0.594c0.212,-0.31 0.357,-0.66 0.434,-1.049c0.078,-0.388 0.117,-0.957 0.117,-1.706Z" style="fill:#fff;fill-rule:nonzero;stroke:#000;stroke-width:0.72px;stroke-linecap:butt;stroke-miterlimit:2;"/></g><g transform="matrix(0.989926,-0.141586,0.141586,0.989926,-52.8638,163.95)"><path d="M1129.23,445.008l-0,-16.617c-0,-0.494 -0.085,-0.854 -0.255,-1.08c-0.084,-0.128 -0.166,-0.209 -0.243,-0.244c-0.078,-0.036 -0.35,-0.131 -0.816,-0.286c-0.565,-0.184 -0.848,-0.558 -0.848,-1.124c-0,-0.367 0.138,-0.646 0.413,-0.837c0.276,-0.191 0.668,-0.286 1.177,-0.286l10.554,0l0.763,0.085c0.241,0.07 0.438,0.198 0.594,0.381c0.155,0.184 0.233,0.403 0.233,0.657c-0,0.566 -0.283,0.94 -0.848,1.124c-0.466,0.155 -0.738,0.25 -0.816,0.286c-0.078,0.035 -0.159,0.116 -0.244,0.244c-0.169,0.226 -0.254,0.586 -0.254,1.08l0,17.782c0,1.201 0.032,2.039 0.095,2.512c0.064,0.473 0.195,0.901 0.393,1.282c0.183,0.353 0.388,0.608 0.614,0.763c0.226,0.156 0.657,0.332 1.293,0.53l0,2.777l-0.466,-0c-1.837,-0 -3.363,-0.163 -4.578,-0.488c-1.427,-0.381 -2.678,-0.947 -3.752,-1.695c-1.073,-0.749 -1.836,-1.59 -2.289,-2.523c-0.48,-0.989 -0.72,-2.43 -0.72,-4.323Zm13.755,9.029l-0,-2.777c1.413,-0.184 2.593,-0.763 3.539,-1.738c1.074,-1.116 1.611,-2.72 1.611,-4.811l0,-13.819c0,-1.935 -0.742,-3.285 -2.225,-4.048c-0.438,-0.226 -0.724,-0.42 -0.859,-0.583c-0.134,-0.162 -0.201,-0.399 -0.201,-0.71c0,-0.367 0.134,-0.628 0.403,-0.784c0.268,-0.155 0.706,-0.233 1.314,-0.233l5.192,0c0.438,0 0.732,0.011 0.88,0.032c0.148,0.021 0.293,0.074 0.434,0.159c0.368,0.212 0.551,0.501 0.551,0.869c0,0.311 -0.113,0.572 -0.339,0.784c-0.07,0.071 -0.374,0.261 -0.911,0.572c-0.622,0.339 -1.109,0.859 -1.462,1.558c-0.354,0.699 -0.53,1.494 -0.53,2.384l-0,13.84c-0,2.374 -0.523,4.324 -1.569,5.85c-0.763,1.13 -1.858,2.035 -3.285,2.713c-0.706,0.339 -1.554,0.586 -2.543,0.742Z" style="fill:#fff;fill-rule:nonzero;stroke:#000;stroke-width:0.72px;stroke-linecap:butt;stroke-miterlimit:2;"/></g><g transform="matrix(0.986061,-0.166387,0.166387,0.986061,-58.6558,198.406)"><path d="M1166.31,419.77l0,2.438c-0.876,0.24 -1.543,0.611 -2.002,1.112c-0.46,0.502 -0.689,1.12 -0.689,1.855c-0,0.706 0.19,1.325 0.572,1.854c0.381,0.53 1.003,1.035 1.865,1.516c0.594,0.325 1.936,0.946 4.027,1.865c1.272,0.551 2.257,1.049 2.957,1.494c0.699,0.445 1.36,1 1.981,1.664c1.668,1.752 2.501,3.836 2.501,6.252c0,1.823 -0.452,3.49 -1.356,5.002c-0.905,1.512 -2.148,2.699 -3.73,3.561c-0.848,0.452 -1.777,0.809 -2.787,1.07c-1.011,0.261 -1.954,0.392 -2.83,0.392l0,-2.416c1.229,-0.297 2.116,-0.71 2.66,-1.24c0.544,-0.53 0.816,-1.247 0.816,-2.151c-0,-0.947 -0.424,-1.78 -1.272,-2.501c-0.565,-0.466 -1.639,-1.046 -3.221,-1.738c-1.738,-0.763 -2.929,-1.307 -3.571,-1.632c-0.643,-0.325 -1.262,-0.706 -1.855,-1.144c-2.656,-1.894 -3.985,-4.416 -3.985,-7.567c0,-1.611 0.333,-3.098 0.997,-4.461c0.664,-1.364 1.589,-2.462 2.776,-3.296c1.653,-1.159 3.702,-1.801 6.146,-1.929Zm1.675,2.438l-0,-2.332c0.848,0.057 1.582,0.166 2.204,0.329c0.622,0.162 1.505,0.484 2.649,0.964c0.283,0.113 0.516,0.17 0.7,0.17c0.268,-0 0.466,-0.092 0.593,-0.276l0.466,-0.614c0.226,-0.311 0.502,-0.467 0.827,-0.467c0.381,0 0.661,0.138 0.837,0.414c0.177,0.275 0.265,0.71 0.265,1.303l0,6.994c0,0.41 -0.116,0.745 -0.35,1.007c-0.233,0.261 -0.533,0.392 -0.9,0.392c-0.283,-0 -0.544,-0.092 -0.785,-0.276c-0.127,-0.113 -0.229,-0.25 -0.307,-0.413c-0.078,-0.162 -0.152,-0.434 -0.222,-0.816c-0.156,-0.692 -0.424,-1.406 -0.806,-2.14c-0.381,-0.735 -0.826,-1.392 -1.335,-1.972c-1.017,-1.144 -2.296,-1.9 -3.836,-2.267Zm-2.777,25.221l0,2.416c-1.158,0 -2.437,-0.332 -3.836,-0.996c-0.523,-0.24 -0.883,-0.396 -1.081,-0.466c-0.198,-0.071 -0.388,-0.106 -0.572,-0.106c-0.283,-0 -0.495,0.046 -0.636,0.137c-0.141,0.092 -0.367,0.322 -0.678,0.689c-0.254,0.311 -0.53,0.467 -0.827,0.467c-0.791,-0 -1.187,-0.608 -1.187,-1.823l0,-7.715c0,-0.396 0.114,-0.731 0.34,-1.007c0.226,-0.275 0.508,-0.42 0.847,-0.434c0.311,-0.014 0.555,0.074 0.732,0.265c0.176,0.191 0.328,0.526 0.455,1.007c0.325,1.215 0.795,2.352 1.41,3.412c0.614,1.06 1.331,1.957 2.151,2.692c0.834,0.763 1.794,1.25 2.882,1.462Z" style="fill:#fff;fill-rule:nonzero;stroke:#000;stroke-width:0.72px;stroke-linecap:butt;stroke-miterlimit:2;"/></g><g transform="matrix(0.982615,-0.185652,0.185652,0.982615,-62.1568,226.58)"><path d="M1186.1,415.658c1.243,0 2.267,0.495 3.073,1.484c0.805,0.989 1.208,2.246 1.208,3.772c-0,0.636 -0.078,1.297 -0.233,1.982c-0.156,0.685 -0.46,1.727 -0.912,3.126c-0.65,1.978 -1.105,3.557 -1.367,4.737c-0.261,1.18 -0.42,2.335 -0.477,3.466c-0.028,0.579 -0.137,0.989 -0.328,1.229c-0.191,0.24 -0.498,0.36 -0.922,0.36c-0.367,0 -0.639,-0.102 -0.816,-0.307c-0.177,-0.205 -0.279,-0.541 -0.307,-1.007c-0.085,-0.947 -0.156,-1.614 -0.212,-2.003c-0.057,-0.388 -0.191,-0.992 -0.403,-1.812c-0.339,-1.328 -0.777,-2.755 -1.314,-4.281c-0.636,-1.795 -1.035,-3.024 -1.198,-3.688c-0.162,-0.664 -0.243,-1.392 -0.243,-2.183c-0,-1.272 0.388,-2.388 1.165,-3.349c0.806,-1.017 1.901,-1.526 3.286,-1.526Zm-0.106,21.852c1.13,-0 2.098,0.402 2.903,1.208c0.806,0.805 1.208,1.773 1.208,2.903c0,1.145 -0.402,2.12 -1.208,2.925c-0.805,0.806 -1.773,1.208 -2.903,1.208c-1.145,0 -2.12,-0.402 -2.925,-1.208c-0.806,-0.805 -1.208,-1.78 -1.208,-2.925c-0,-1.13 0.402,-2.098 1.208,-2.903c0.805,-0.806 1.78,-1.208 2.925,-1.208Z" style="fill:#fff;fill-rule:nonzero;stroke:#000;stroke-width:0.72px;stroke-linecap:butt;stroke-miterlimit:2;"/></g></g><g id="Koroona-eri-stamp" serif:id="Koroona eri stamp"><path d="M819.137,384.434c0,-1.549 -1.181,-2.805 -2.639,-2.805l-193.922,-0c-1.457,-0 -2.639,1.256 -2.639,2.805l0,49.829c0,1.549 1.182,2.805 2.639,2.805l193.922,0c1.458,0 2.639,-1.256 2.639,-2.805l0,-49.829Zm-5.278,2.806l0,44.217c0,-0 -188.644,-0 -188.644,-0c0,-0 0,-44.217 0,-44.217l188.644,0Z" style="fill:#ce1b16;"/><path d="M643.489,418.469l-6.259,-0c-0.302,-0 -0.534,-0.061 -0.698,-0.181c-0.163,-0.12 -0.245,-0.292 -0.245,-0.514c0,-0.366 0.168,-0.606 0.503,-0.722c0.276,-0.098 0.438,-0.158 0.484,-0.18c0.046,-0.023 0.094,-0.074 0.144,-0.154c0.101,-0.143 0.151,-0.37 0.151,-0.681l0,-13.377c0,-0.311 -0.05,-0.539 -0.151,-0.681c-0.05,-0.08 -0.098,-0.131 -0.144,-0.154c-0.046,-0.022 -0.208,-0.082 -0.484,-0.18c-0.335,-0.116 -0.503,-0.356 -0.503,-0.722c0,-0.222 0.082,-0.394 0.245,-0.514c0.164,-0.12 0.396,-0.181 0.698,-0.181l6.259,0c0.301,0 0.534,0.061 0.697,0.181c0.163,0.12 0.245,0.292 0.245,0.514c0,0.366 -0.167,0.606 -0.503,0.722c-0.276,0.098 -0.437,0.158 -0.483,0.18c-0.047,0.023 -0.095,0.074 -0.145,0.154c-0.101,0.142 -0.151,0.37 -0.151,0.681l0,13.377c0,0.498 0.122,0.792 0.365,0.881l0.389,0.134c0.319,0.107 0.478,0.348 0.478,0.722c-0,0.463 -0.298,0.695 -0.892,0.695Zm4.65,-12.949l3.795,10.557c0.101,0.285 0.206,0.501 0.314,0.648c0.109,0.147 0.252,0.26 0.428,0.34c0.176,0.09 0.289,0.156 0.339,0.201c0.117,0.125 0.176,0.289 0.176,0.494c0,0.472 -0.314,0.709 -0.943,0.709l-6.321,-0c-0.302,-0 -0.534,-0.067 -0.698,-0.201c-0.163,-0.134 -0.245,-0.325 -0.245,-0.575c0,-0.285 0.155,-0.507 0.465,-0.668c0.193,-0.098 0.323,-0.18 0.39,-0.247c0.067,-0.067 0.105,-0.158 0.113,-0.274c-0,-0.062 -0.034,-0.205 -0.101,-0.427l-1.608,-5.105c-0.151,-0.472 -0.227,-0.873 -0.227,-1.203c0,-0.311 0.122,-0.65 0.365,-1.015l3.004,-4.503c0.285,-0.419 0.427,-0.856 0.427,-1.31c-0,-0.249 -0.063,-0.481 -0.189,-0.695c-0.125,-0.214 -0.293,-0.365 -0.502,-0.454l-0.453,-0.201c-0.285,-0.124 -0.427,-0.334 -0.427,-0.628c-0,-0.24 0.088,-0.436 0.264,-0.588c0.117,-0.098 0.31,-0.147 0.578,-0.147l4.474,0c0.293,0 0.522,0.069 0.685,0.208c0.164,0.138 0.245,0.331 0.245,0.581c0,0.374 -0.192,0.641 -0.578,0.802l-0.666,0.28c-0.277,0.107 -0.628,0.348 -1.056,0.722c-0.318,0.285 -0.712,0.761 -1.181,1.43l-0.867,1.269Z" style="fill:#ce1b16;fill-rule:nonzero;"/><path d="M661.524,401.311c-0.428,0.16 -0.729,0.378 -0.905,0.655c-0.176,0.276 -0.264,0.681 -0.264,1.216l-0,11.946c-0,0.784 0.1,1.336 0.301,1.657c0.16,0.267 0.449,0.459 0.868,0.574l-0,1.47c-1.86,-0.16 -3.419,-0.904 -4.676,-2.231c-1.634,-1.728 -2.45,-4.138 -2.45,-7.229c-0,-1.551 0.215,-2.951 0.647,-4.203c0.431,-1.252 1.07,-2.314 1.916,-3.187c0.646,-0.668 1.341,-1.176 2.087,-1.523c0.745,-0.348 1.571,-0.544 2.476,-0.588l-0,1.443Zm1.03,-0l0,-1.443c0.905,0.044 1.732,0.24 2.482,0.588c0.75,0.347 1.448,0.855 2.093,1.523c1.709,1.773 2.564,4.236 2.564,7.39c-0,3.091 -0.817,5.501 -2.451,7.229c-1.257,1.336 -2.819,2.08 -4.688,2.231l0,-1.47c0.218,-0.053 0.388,-0.122 0.509,-0.207c0.122,-0.084 0.233,-0.207 0.333,-0.367c0.226,-0.365 0.34,-0.918 0.34,-1.657l-0,-11.946c-0,-0.473 -0.076,-0.847 -0.227,-1.123c-0.1,-0.187 -0.22,-0.334 -0.358,-0.441c-0.138,-0.107 -0.337,-0.209 -0.597,-0.307Z" style="fill:#ce1b16;fill-rule:nonzero;"/><path d="M678.101,400.228l-0,15.702c-0,0.347 0.063,0.596 0.188,0.748c0.067,0.089 0.13,0.145 0.189,0.167c0.058,0.022 0.251,0.078 0.578,0.167c0.402,0.098 0.603,0.343 0.603,0.735c0,0.232 -0.109,0.419 -0.327,0.561c-0.159,0.107 -0.423,0.161 -0.791,0.161l-6.36,-0c-0.301,-0 -0.534,-0.061 -0.697,-0.181c-0.164,-0.12 -0.245,-0.292 -0.245,-0.514c-0,-0.366 0.167,-0.606 0.502,-0.722c0.277,-0.098 0.438,-0.158 0.484,-0.18c0.046,-0.023 0.094,-0.074 0.145,-0.154c0.1,-0.143 0.151,-0.37 0.151,-0.681l-0,-13.377c-0,-0.311 -0.051,-0.539 -0.151,-0.681c-0.051,-0.08 -0.099,-0.131 -0.145,-0.154c-0.046,-0.022 -0.207,-0.082 -0.484,-0.18c-0.335,-0.116 -0.502,-0.356 -0.502,-0.722c-0,-0.222 0.081,-0.394 0.245,-0.514c0.163,-0.12 0.396,-0.181 0.697,-0.181l5.92,0Zm3.858,9.301c0.771,0.125 1.364,0.263 1.778,0.414c0.415,0.152 0.79,0.356 1.125,0.615c0.352,0.276 0.622,0.606 0.811,0.989c0.188,0.383 0.283,0.788 0.283,1.216l-0,2.766c-0,0.285 0.088,0.427 0.264,0.427c0.067,0 0.123,-0.02 0.169,-0.06c0.046,-0.04 0.111,-0.118 0.195,-0.234c0.21,-0.303 0.423,-0.454 0.641,-0.454c0.143,0 0.285,0.08 0.427,0.241c0.143,0.16 0.214,0.32 0.214,0.481c0,0.276 -0.124,0.612 -0.371,1.008c-0.247,0.397 -0.555,0.751 -0.923,1.063c-0.344,0.294 -0.717,0.505 -1.119,0.635c-0.402,0.129 -0.876,0.193 -1.42,0.193c-1.106,0 -1.969,-0.336 -2.589,-1.009c-0.62,-0.672 -0.93,-1.61 -0.93,-2.812l-0,-2.245c-0,-0.499 -0.004,-0.789 -0.013,-0.869c-0.042,-0.356 -0.159,-0.664 -0.352,-0.922c-0.243,-0.312 -0.59,-0.494 -1.043,-0.548l0,-1.43c0.453,-0.071 0.775,-0.196 0.968,-0.374c0.167,-0.16 0.283,-0.343 0.346,-0.548c0.062,-0.205 0.094,-0.507 0.094,-0.908l-0,-3.541c-0,-0.562 -0.103,-0.98 -0.308,-1.257c-0.205,-0.276 -0.576,-0.494 -1.112,-0.654l-0,-1.484l0.326,0c0.93,0 1.722,0.036 2.376,0.107c0.972,0.098 1.839,0.437 2.601,1.016c1.098,0.828 1.647,2.009 1.647,3.541c-0,1.256 -0.369,2.285 -1.106,3.087c-0.31,0.338 -0.673,0.614 -1.087,0.828c-0.415,0.214 -1.046,0.455 -1.892,0.722Z" style="fill:#ce1b16;fill-rule:nonzero;"/><path d="M695.847,401.311c-0.428,0.16 -0.729,0.378 -0.905,0.655c-0.176,0.276 -0.264,0.681 -0.264,1.216l-0,11.946c-0,0.784 0.1,1.336 0.301,1.657c0.16,0.267 0.449,0.459 0.868,0.574l-0,1.47c-1.86,-0.16 -3.419,-0.904 -4.676,-2.231c-1.633,-1.728 -2.45,-4.138 -2.45,-7.229c-0,-1.551 0.215,-2.951 0.647,-4.203c0.431,-1.252 1.07,-2.314 1.917,-3.187c0.645,-0.668 1.34,-1.176 2.086,-1.523c0.745,-0.348 1.571,-0.544 2.476,-0.588l-0,1.443Zm1.03,-0l0,-1.443c0.905,0.044 1.733,0.24 2.482,0.588c0.75,0.347 1.448,0.855 2.093,1.523c1.709,1.773 2.564,4.236 2.564,7.39c-0,3.091 -0.817,5.501 -2.451,7.229c-1.257,1.336 -2.819,2.08 -4.688,2.231l0,-1.47c0.218,-0.053 0.388,-0.122 0.509,-0.207c0.122,-0.084 0.233,-0.207 0.333,-0.367c0.227,-0.365 0.34,-0.918 0.34,-1.657l-0,-11.946c-0,-0.473 -0.076,-0.847 -0.227,-1.123c-0.1,-0.187 -0.22,-0.334 -0.358,-0.441c-0.138,-0.107 -0.337,-0.209 -0.597,-0.307Z" style="fill:#ce1b16;fill-rule:nonzero;"/><path d="M712.172,401.311c-0.427,0.16 -0.728,0.378 -0.904,0.655c-0.176,0.276 -0.264,0.681 -0.264,1.216l-0,11.946c-0,0.784 0.1,1.336 0.301,1.657c0.159,0.267 0.449,0.459 0.867,0.574l0,1.47c-1.86,-0.16 -3.418,-0.904 -4.675,-2.231c-1.634,-1.728 -2.451,-4.138 -2.451,-7.229c0,-1.551 0.216,-2.951 0.648,-4.203c0.431,-1.252 1.07,-2.314 1.916,-3.187c0.645,-0.668 1.341,-1.176 2.087,-1.523c0.745,-0.348 1.571,-0.544 2.475,-0.588l0,1.443Zm1.031,-0l0,-1.443c0.905,0.044 1.732,0.24 2.482,0.588c0.75,0.347 1.448,0.855 2.093,1.523c1.709,1.773 2.564,4.236 2.564,7.39c-0,3.091 -0.817,5.501 -2.451,7.229c-1.257,1.336 -2.82,2.08 -4.688,2.231l0,-1.47c0.218,-0.053 0.388,-0.122 0.509,-0.207c0.122,-0.084 0.233,-0.207 0.333,-0.367c0.226,-0.365 0.339,-0.918 0.339,-1.657l0,-11.946c0,-0.473 -0.075,-0.847 -0.226,-1.123c-0.1,-0.187 -0.22,-0.334 -0.358,-0.441c-0.138,-0.107 -0.337,-0.209 -0.597,-0.307Z" style="fill:#ce1b16;fill-rule:nonzero;"/><path d="M729.001,400.228l6.686,12.348l0,5.893l-3.431,-0l-8.534,-15.635c-0.184,-0.338 -0.335,-0.574 -0.452,-0.708c-0.117,-0.134 -0.268,-0.232 -0.452,-0.294l-0.478,-0.187c-0.126,-0.045 -0.226,-0.125 -0.302,-0.241c-0.075,-0.115 -0.113,-0.245 -0.113,-0.387c0,-0.152 0.038,-0.292 0.113,-0.421c0.076,-0.129 0.176,-0.221 0.302,-0.274c0.142,-0.062 0.528,-0.094 1.156,-0.094l5.505,0Zm-5.266,4.691l1.332,2.352l0,7.162c0,0.624 0.099,1.136 0.296,1.537c0.196,0.401 0.509,0.73 0.936,0.989l0.377,0.227c0.218,0.133 0.327,0.334 0.327,0.601c-0,0.205 -0.08,0.374 -0.239,0.508c-0.134,0.116 -0.411,0.174 -0.83,0.174l-2.903,-0c-0.762,-0 -1.143,-0.232 -1.143,-0.695c-0,-0.161 0.039,-0.288 0.119,-0.381c0.079,-0.094 0.253,-0.221 0.521,-0.381c0.805,-0.472 1.207,-1.332 1.207,-2.579l-0,-9.514Zm11.952,5.519l-1.332,-2.392l-0,-3.702c-0,-0.748 -0.103,-1.321 -0.308,-1.717c-0.205,-0.396 -0.568,-0.737 -1.087,-1.022c-0.176,-0.089 -0.298,-0.185 -0.365,-0.288c-0.067,-0.102 -0.1,-0.233 -0.1,-0.394c-0,-0.24 0.073,-0.416 0.22,-0.528c0.146,-0.111 0.383,-0.167 0.71,-0.167l3.142,0c0.427,0 0.708,0.072 0.842,0.214c0.142,0.143 0.214,0.312 0.214,0.508c-0,0.187 -0.04,0.327 -0.12,0.421c-0.079,0.093 -0.27,0.22 -0.572,0.381c-0.444,0.24 -0.779,0.61 -1.005,1.109c-0.159,0.365 -0.239,0.86 -0.239,1.483l0,6.094Z" style="fill:#ce1b16;fill-rule:nonzero;"/><path d="M744.208,400.228l5.065,0l3.494,15.702c0.067,0.276 0.142,0.521 0.226,0.735c0.076,0.169 0.243,0.307 0.503,0.414c0.218,0.098 0.369,0.196 0.452,0.294c0.084,0.098 0.126,0.231 0.126,0.401c0,0.463 -0.327,0.695 -0.98,0.695l-6.272,-0c-0.251,-0 -0.452,-0.065 -0.603,-0.194c-0.151,-0.129 -0.226,-0.301 -0.226,-0.515c-0,-0.178 0.033,-0.311 0.1,-0.401c0.067,-0.089 0.218,-0.2 0.453,-0.334c0.167,-0.089 0.285,-0.187 0.352,-0.294c0.067,-0.107 0.1,-0.24 0.1,-0.401c0,-0.151 -0.012,-0.285 -0.037,-0.4l-0.403,-1.938l-3.506,0l0.339,-1.59l2.816,-0l-2.313,-10.864l0.314,-1.31Zm-0.867,3.395l0.641,2.766l-2.225,8.632c-0.067,0.249 -0.1,0.481 -0.1,0.695c-0,0.561 0.247,0.962 0.741,1.202l0.44,0.214c0.277,0.134 0.415,0.357 0.415,0.668c0,0.446 -0.306,0.669 -0.917,0.669l-3.193,-0c-0.31,-0 -0.555,-0.07 -0.735,-0.208c-0.18,-0.138 -0.27,-0.327 -0.27,-0.568c-0,-0.258 0.184,-0.472 0.553,-0.641c0.343,-0.16 0.597,-0.305 0.76,-0.434c0.164,-0.129 0.321,-0.305 0.472,-0.528c0.234,-0.365 0.427,-0.851 0.578,-1.457l2.84,-11.01Z" style="fill:#ce1b16;fill-rule:nonzero;"/><path d="M768.402,400.228l-0,18.241l-5.92,-0c-0.302,-0 -0.534,-0.061 -0.698,-0.181c-0.163,-0.12 -0.245,-0.292 -0.245,-0.514c0,-0.366 0.168,-0.606 0.503,-0.722c0.277,-0.098 0.438,-0.158 0.484,-0.18c0.046,-0.023 0.094,-0.074 0.145,-0.154c0.1,-0.143 0.15,-0.37 0.15,-0.681l0,-13.377c0,-0.311 -0.05,-0.539 -0.15,-0.681c-0.051,-0.08 -0.099,-0.131 -0.145,-0.154c-0.046,-0.022 -0.207,-0.082 -0.484,-0.18c-0.335,-0.116 -0.503,-0.356 -0.503,-0.722c0,-0.222 0.082,-0.394 0.245,-0.514c0.164,-0.12 0.396,-0.181 0.698,-0.181l5.92,0Zm1.118,0l5.065,0l-0,4.731c-0,0.276 -0.05,0.476 -0.151,0.601c-0.1,0.125 -0.26,0.187 -0.477,0.187c-0.185,0 -0.319,-0.04 -0.403,-0.12c-0.083,-0.08 -0.163,-0.245 -0.238,-0.494c-0.319,-1.034 -0.786,-1.822 -1.402,-2.366c-0.616,-0.543 -1.414,-0.868 -2.394,-0.975l0,-1.564Zm-0.063,9.728l0,-1.55c0.486,-0.249 0.846,-0.521 1.081,-0.815c0.235,-0.294 0.406,-0.686 0.515,-1.176c0.067,-0.338 0.155,-0.572 0.264,-0.701c0.109,-0.129 0.264,-0.194 0.465,-0.194c0.268,0 0.453,0.111 0.553,0.334c0.059,0.116 0.088,0.379 0.088,0.789l0,5.091c0,0.418 -0.044,0.708 -0.132,0.868c-0.088,0.161 -0.249,0.241 -0.484,0.241c-0.192,-0 -0.343,-0.063 -0.452,-0.187c-0.109,-0.125 -0.197,-0.334 -0.264,-0.628c-0.142,-0.615 -0.346,-1.087 -0.609,-1.417c-0.264,-0.329 -0.606,-0.548 -1.025,-0.655Zm0.076,8.513l-0,-1.444c0.544,-0.089 0.995,-0.213 1.351,-0.374c0.356,-0.16 0.714,-0.405 1.074,-0.735c0.361,-0.329 0.648,-0.67 0.861,-1.022c0.214,-0.352 0.417,-0.817 0.61,-1.396c0.092,-0.285 0.188,-0.479 0.289,-0.582c0.1,-0.102 0.239,-0.153 0.415,-0.153c0.234,-0 0.398,0.073 0.49,0.22c0.092,0.147 0.138,0.403 0.138,0.768l-0,4.718l-5.228,-0Z" style="fill:#ce1b16;fill-rule:nonzero;"/><path d="M783.508,400.228l0,15.702c0,0.347 0.063,0.596 0.189,0.748c0.067,0.089 0.13,0.145 0.188,0.167c0.059,0.022 0.252,0.078 0.578,0.167c0.403,0.098 0.604,0.343 0.604,0.735c-0,0.232 -0.109,0.419 -0.327,0.561c-0.159,0.107 -0.423,0.161 -0.792,0.161l-6.359,-0c-0.302,-0 -0.534,-0.061 -0.698,-0.181c-0.163,-0.12 -0.245,-0.292 -0.245,-0.514c0,-0.366 0.168,-0.606 0.503,-0.722c0.276,-0.098 0.438,-0.158 0.484,-0.18c0.046,-0.023 0.094,-0.074 0.144,-0.154c0.101,-0.143 0.151,-0.37 0.151,-0.681l0,-13.377c0,-0.311 -0.05,-0.539 -0.151,-0.681c-0.05,-0.08 -0.098,-0.131 -0.144,-0.154c-0.046,-0.022 -0.208,-0.082 -0.484,-0.18c-0.335,-0.116 -0.503,-0.356 -0.503,-0.722c0,-0.222 0.082,-0.394 0.245,-0.514c0.164,-0.12 0.396,-0.181 0.698,-0.181l5.919,0Zm3.859,9.301c0.77,0.125 1.363,0.263 1.778,0.414c0.415,0.152 0.79,0.356 1.125,0.615c0.352,0.276 0.622,0.606 0.81,0.989c0.189,0.383 0.283,0.788 0.283,1.216l0,2.766c0,0.285 0.088,0.427 0.264,0.427c0.067,0 0.124,-0.02 0.17,-0.06c0.046,-0.04 0.111,-0.118 0.195,-0.234c0.209,-0.303 0.423,-0.454 0.641,-0.454c0.142,0 0.284,0.08 0.427,0.241c0.142,0.16 0.214,0.32 0.214,0.481c-0,0.276 -0.124,0.612 -0.371,1.008c-0.247,0.397 -0.555,0.751 -0.924,1.063c-0.343,0.294 -0.716,0.505 -1.119,0.635c-0.402,0.129 -0.875,0.193 -1.42,0.193c-1.106,0 -1.969,-0.336 -2.589,-1.009c-0.62,-0.672 -0.93,-1.61 -0.93,-2.812l0,-2.245c0,-0.499 -0.004,-0.789 -0.012,-0.869c-0.042,-0.356 -0.159,-0.664 -0.352,-0.922c-0.243,-0.312 -0.591,-0.494 -1.043,-0.548l-0,-1.43c0.452,-0.071 0.775,-0.196 0.967,-0.374c0.168,-0.16 0.283,-0.343 0.346,-0.548c0.063,-0.205 0.094,-0.507 0.094,-0.908l0,-3.541c0,-0.562 -0.102,-0.98 -0.308,-1.257c-0.205,-0.276 -0.576,-0.494 -1.112,-0.654l0,-1.484l0.327,0c0.93,0 1.722,0.036 2.375,0.107c0.972,0.098 1.839,0.437 2.602,1.016c1.097,0.828 1.646,2.009 1.646,3.541c0,1.256 -0.368,2.285 -1.106,3.087c-0.31,0.338 -0.672,0.614 -1.087,0.828c-0.415,0.214 -1.045,0.455 -1.891,0.722Z" style="fill:#ce1b16;fill-rule:nonzero;"/><path d="M801.845,418.469l-6.259,-0c-0.302,-0 -0.534,-0.061 -0.697,-0.181c-0.164,-0.12 -0.246,-0.292 -0.246,-0.514c0,-0.366 0.168,-0.606 0.503,-0.722c0.277,-0.098 0.438,-0.158 0.484,-0.18c0.046,-0.023 0.094,-0.074 0.145,-0.154c0.1,-0.143 0.15,-0.37 0.15,-0.681l0,-13.377c0,-0.311 -0.05,-0.539 -0.15,-0.681c-0.051,-0.08 -0.099,-0.131 -0.145,-0.154c-0.046,-0.022 -0.207,-0.082 -0.484,-0.18c-0.335,-0.116 -0.503,-0.356 -0.503,-0.722c0,-0.222 0.082,-0.394 0.246,-0.514c0.163,-0.12 0.395,-0.181 0.697,-0.181l6.259,0c0.302,0 0.534,0.061 0.697,0.181c0.164,0.12 0.245,0.292 0.245,0.514c0,0.366 -0.167,0.606 -0.502,0.722c-0.277,0.098 -0.438,0.158 -0.484,0.18c-0.046,0.023 -0.094,0.074 -0.145,0.154c-0.1,0.142 -0.15,0.37 -0.15,0.681l-0,13.377c-0,0.311 0.05,0.538 0.15,0.681c0.051,0.08 0.099,0.131 0.145,0.154c0.046,0.022 0.207,0.082 0.484,0.18c0.335,0.116 0.502,0.356 0.502,0.722c0,0.222 -0.081,0.394 -0.245,0.514c-0.163,0.12 -0.395,0.181 -0.697,0.181Z" style="fill:#ce1b16;fill-rule:nonzero;"/></g><g transform="matrix(1.35425,0,0,1.43989,-574.916,-191.41)"><g transform="matrix(0.969856,-0.24368,0.24368,0.969856,-45.9631,158.281)"><path d="M684.13,241.054l8.944,21.236c1.158,2.742 2.67,4.112 4.535,4.112l1.696,-0.042l17.718,-0c3.9,-0 5.85,1.328 5.85,3.984c-0,1.95 -0.678,3.462 -2.035,4.536c-1.356,1.074 -3.292,1.611 -5.807,1.611l-19.541,-0c-5.369,-0 -9.1,-2.544 -11.191,-7.63l-12.25,-29.503l-5.68,13.988c-2.713,6.698 -4.642,11.226 -5.786,13.586c-1.145,2.36 -2.466,4.543 -3.964,6.549c-5.397,7.291 -12.193,10.936 -20.389,10.936c-5.962,0 -10.795,-1.865 -14.496,-5.595c-3.702,-3.73 -5.553,-8.619 -5.553,-14.667c-0,-7.884 2.91,-14.821 8.732,-20.812c3.136,-3.194 7.064,-5.772 11.784,-7.736c4.719,-1.964 9.396,-2.946 14.03,-2.946c2.205,-0 3.992,0.501 5.363,1.505c1.37,1.003 2.055,2.31 2.055,3.92c0,1.753 -0.734,3.151 -2.204,4.197c-0.848,0.593 -2.487,1.017 -4.917,1.272c-5.652,0.508 -10.187,1.794 -13.607,3.857c-2.882,1.752 -5.157,4.013 -6.824,6.782c-1.668,2.77 -2.501,5.666 -2.501,8.69c-0,3.193 0.812,5.715 2.437,7.566c1.625,1.851 3.836,2.777 6.634,2.777c3.448,-0 6.436,-1.456 8.965,-4.366c2.529,-2.911 5.306,-8.082 8.33,-15.515l14.666,-36.157l-4.366,-0c-3.9,-0 -5.85,-1.342 -5.85,-4.027c0,-1.95 0.679,-3.455 2.035,-4.514c1.356,-1.06 3.278,-1.59 5.765,-1.59l14.073,-0c3.674,-0 6.365,0.212 8.075,0.636c1.71,0.424 3.356,1.3 4.938,2.628c3.278,2.741 4.917,6.598 4.917,11.572c0,4.521 -1.335,8.541 -4.005,12.06c-2.671,3.518 -6.196,5.885 -10.576,7.1Zm-9.538,-7.969l1.229,-0.085c3.222,-0.198 5.624,-0.82 7.206,-1.865c3.052,-2.007 4.578,-4.705 4.578,-8.097c0,-3.899 -1.865,-5.849 -5.595,-5.849l-0.932,-0l-6.486,15.896Z" style="fill:#fff;fill-rule:nonzero;stroke:#000;stroke-width:0.73px;stroke-linecap:butt;stroke-miterlimit:2;"/></g><g transform="matrix(0.983219,-0.18243,0.18243,0.983219,-33.1708,130.813)"><path d="M708.613,233.288c0,2.12 1.597,3.18 4.79,3.18l12.59,-0c3.56,-0 5.341,1.257 5.341,3.772c-0,1.724 -0.629,3.066 -1.887,4.027c-1.257,0.961 -3.016,1.441 -5.277,1.441l-11.996,0c-4.465,0 -7.863,-1.102 -10.195,-3.306c-2.331,-2.204 -3.497,-5.426 -3.497,-9.665c0,-5.454 1.844,-10.159 5.532,-14.115c3.688,-3.956 8.075,-5.934 13.162,-5.934c3.702,-0 6.676,0.967 8.923,2.903c2.246,1.936 3.37,4.486 3.37,7.651c-0,3.815 -1.555,6.641 -4.663,8.478c-1.724,1.046 -4.296,1.568 -7.715,1.568l-8.478,0Zm2.035,-7.714l4.663,-0c3.023,-0 4.493,-0.664 4.408,-1.993c-0.085,-1.497 -1.06,-2.246 -2.925,-2.246c-2.6,-0 -4.648,1.413 -6.146,4.239Z" style="fill:#fff;fill-rule:nonzero;stroke:#000;stroke-width:0.72px;stroke-linecap:butt;stroke-miterlimit:2;"/></g><g transform="matrix(0.988329,-0.152337,0.152337,0.988329,-27.972,113.739)"><path d="M744.053,230.177l4.79,-0c3.561,-0 5.341,1.257 5.341,3.772c-0,1.724 -0.629,3.066 -1.886,4.027c-1.258,0.961 -3.017,1.441 -5.278,1.441l-6.74,0c-2.486,0 -4.443,-0.508 -5.87,-1.526c-1.428,-1.017 -2.141,-2.402 -2.141,-4.154c-0,-0.932 0.297,-2.119 0.89,-3.56l6.994,-17.21l0.467,-1.187c1.299,-3.193 3.391,-4.79 6.273,-4.79c1.187,0 2.211,0.396 3.073,1.187c0.862,0.791 1.293,1.738 1.293,2.84c0,0.904 -0.381,2.289 -1.144,4.154l-6.062,15.006Zm5.595,-36.709c1.639,0 3.031,0.572 4.176,1.717c1.144,1.144 1.716,2.536 1.716,4.175c0,1.639 -0.572,3.031 -1.716,4.175c-1.145,1.145 -2.537,1.717 -4.176,1.717c-1.639,0 -3.03,-0.572 -4.175,-1.717c-1.144,-1.144 -1.717,-2.536 -1.717,-4.175c0,-1.639 0.573,-3.031 1.717,-4.175c1.145,-1.145 2.536,-1.717 4.175,-1.717Z" style="fill:#fff;fill-rule:nonzero;stroke:#000;stroke-width:0.72px;stroke-linecap:butt;stroke-miterlimit:2;"/></g><g transform="matrix(0.991551,-0.129717,0.129717,0.991551,-24.2268,99.4877)"><path d="M769.708,214.866l-0.806,1.95c-1.243,2.798 -3.009,4.197 -5.298,4.197c-1.159,-0 -2.198,-0.403 -3.116,-1.208c-0.918,-0.806 -1.378,-1.731 -1.378,-2.777c0,-0.989 0.41,-2.303 1.23,-3.942l5.637,-11.445c1.385,-2.741 3.109,-4.112 5.172,-4.112c1.102,0 2.049,0.361 2.84,1.081c0.791,0.721 1.187,1.576 1.187,2.565c-0,0.254 -0.085,0.805 -0.255,1.653c-0.113,0.622 -0.169,1.173 -0.169,1.653c-0,1.78 0.664,3.603 1.992,5.468l2.416,3.349c2.459,3.419 3.688,6.726 3.688,9.919c0,3.561 -1.328,6.535 -3.985,8.923c-2.656,2.388 -5.962,3.582 -9.918,3.582l-8.86,-0c-3.589,-0 -5.383,-1.244 -5.383,-3.731c-0,-1.723 0.636,-3.073 1.907,-4.048c1.272,-0.975 3.024,-1.462 5.257,-1.462l4.917,-0c3.928,-0 5.892,-1.427 5.892,-4.281c-0,-1.046 -0.368,-2.275 -1.102,-3.688l-1.865,-3.646Z" style="fill:#fff;fill-rule:nonzero;stroke:#000;stroke-width:0.72px;stroke-linecap:butt;stroke-miterlimit:2;"/></g><g transform="matrix(0.994333,-0.106308,0.106308,0.994333,-20.2098,84.4053)"><path d="M797.386,222.53l4.79,0c3.561,0 5.341,1.258 5.341,3.773c0,1.724 -0.629,3.066 -1.886,4.027c-1.258,0.961 -3.017,1.441 -5.278,1.441l-6.739,0c-2.487,0 -4.444,-0.508 -5.871,-1.526c-1.427,-1.017 -2.141,-2.402 -2.141,-4.154c0,-0.932 0.297,-2.119 0.89,-3.561l6.994,-17.209l0.467,-1.187c1.3,-3.193 3.391,-4.79 6.273,-4.79c1.187,-0 2.211,0.395 3.073,1.187c0.862,0.791 1.293,1.738 1.293,2.84c0,0.904 -0.381,2.289 -1.144,4.154l-6.062,15.005Zm5.595,-36.708c1.639,-0 3.031,0.572 4.176,1.717c1.144,1.144 1.716,2.536 1.716,4.175c0,1.639 -0.572,3.031 -1.716,4.175c-1.145,1.145 -2.537,1.717 -4.176,1.717c-1.639,-0 -3.03,-0.572 -4.175,-1.717c-1.144,-1.144 -1.717,-2.536 -1.717,-4.175c0,-1.639 0.573,-3.031 1.717,-4.175c1.145,-1.145 2.536,-1.717 4.175,-1.717Z" style="fill:#fff;fill-rule:nonzero;stroke:#000;stroke-width:0.72px;stroke-linecap:butt;stroke-miterlimit:2;"/></g><g transform="matrix(0.997172,-0.0751577,0.0751577,0.997172,-14.9236,61.1563)"><path d="M860.071,219.62l5.044,0c3.561,0 5.341,1.258 5.341,3.773c0,1.724 -0.629,3.066 -1.886,4.027c-1.258,0.96 -3.003,1.441 -5.235,1.441l-8.605,-0c-1.865,-0 -3.377,-0.495 -4.536,-1.484c-1.158,-0.989 -1.738,-2.289 -1.738,-3.899c0,-1.103 0.382,-2.6 1.145,-4.494l3.984,-9.707c0.227,-0.565 0.34,-1.088 0.34,-1.568c-0,-1.837 -0.933,-2.755 -2.798,-2.755c-1.441,-0 -2.868,0.65 -4.281,1.95c-1.413,1.299 -2.544,3.023 -3.391,5.171l-4.748,11.699c-1.554,3.787 -3.815,5.68 -6.782,5.68c-1.159,0 -2.148,-0.381 -2.967,-1.144c-0.82,-0.763 -1.23,-1.667 -1.23,-2.713c0,-0.82 0.212,-1.78 0.636,-2.882l0.466,-1.145l4.79,-11.826c0.424,-1.046 0.636,-1.865 0.636,-2.459c0,-0.622 -0.282,-1.166 -0.848,-1.632c-0.565,-0.466 -1.229,-0.699 -1.992,-0.699c-3.052,-0 -5.468,2.204 -7.248,6.612l-4.96,12.166c-1.554,3.815 -3.801,5.722 -6.74,5.722c-1.158,0 -2.154,-0.374 -2.988,-1.123c-0.834,-0.749 -1.25,-1.66 -1.25,-2.734c-0,-0.848 0.212,-1.809 0.635,-2.882l0.467,-1.145l8.435,-20.77c1.187,-2.911 2.967,-4.366 5.341,-4.366c2.459,-0 3.985,1.158 4.578,3.475c1.922,-1.639 3.483,-2.727 4.684,-3.263c1.201,-0.537 2.677,-0.806 4.43,-0.806c3.786,0 6.626,1.653 8.52,4.96c3.165,-3.307 6.725,-4.96 10.682,-4.96c2.712,0 4.98,0.784 6.803,2.353c1.823,1.568 2.734,3.497 2.734,5.786c0,1.441 -0.311,2.925 -0.933,4.451l-4.535,11.19Z" style="fill:#fff;fill-rule:nonzero;stroke:#000;stroke-width:0.72px;stroke-linecap:butt;stroke-miterlimit:2;"/></g><g transform="matrix(0.998972,-0.0453231,0.0453231,0.998972,-9.27564,39.5655)"><path d="M883.647,215.093l4.79,-0c3.56,-0 5.341,1.257 5.341,3.772c-0,1.724 -0.629,3.066 -1.887,4.027c-1.257,0.961 -3.016,1.441 -5.277,1.441l-6.74,0c-2.487,0 -4.444,-0.508 -5.871,-1.526c-1.427,-1.017 -2.14,-2.402 -2.14,-4.154c-0,-0.932 0.296,-2.119 0.89,-3.56l6.994,-17.21l0.466,-1.187c1.3,-3.193 3.391,-4.79 6.274,-4.79c1.187,0 2.211,0.396 3.073,1.187c0.862,0.791 1.293,1.738 1.293,2.84c-0,0.904 -0.382,2.289 -1.145,4.154l-6.061,15.006Zm5.595,-36.709c1.639,0 3.031,0.572 4.175,1.717c1.145,1.144 1.717,2.536 1.717,4.175c0,1.639 -0.572,3.031 -1.717,4.175c-1.144,1.145 -2.536,1.717 -4.175,1.717c-1.639,0 -3.031,-0.572 -4.175,-1.717c-1.145,-1.144 -1.717,-2.536 -1.717,-4.175c-0,-1.639 0.572,-3.031 1.717,-4.175c1.144,-1.145 2.536,-1.717 4.175,-1.717Z" style="fill:#fff;fill-rule:nonzero;stroke:#000;stroke-width:0.72px;stroke-linecap:butt;stroke-miterlimit:2;"/></g><g transform="matrix(0.999694,-0.0247227,0.0247227,0.999694,-5.2432,22.1042)"><path d="M926.72,213.859l5.086,0c3.589,0 5.384,1.258 5.384,3.773c-0,1.724 -0.636,3.066 -1.908,4.027c-1.271,0.961 -3.023,1.441 -5.256,1.441l-8.859,-0c-1.724,-0 -3.172,-0.523 -4.345,-1.568c-1.173,-1.046 -1.759,-2.36 -1.759,-3.943c-0,-0.96 0.395,-2.402 1.187,-4.323l3.73,-9.241c0.396,-0.961 0.608,-1.738 0.636,-2.331c0.028,-0.678 -0.247,-1.258 -0.827,-1.738c-0.579,-0.481 -1.321,-0.721 -2.225,-0.721c-2.911,0 -5.256,2.19 -7.037,6.57l-5.002,12.293c-1.497,3.73 -3.73,5.595 -6.697,5.595c-1.215,0 -2.247,-0.367 -3.094,-1.102c-0.848,-0.734 -1.272,-1.639 -1.272,-2.713c-0,-0.791 0.226,-1.737 0.678,-2.84l0.466,-1.144l8.563,-21.11c1.102,-2.741 2.981,-4.111 5.638,-4.111c2.176,-0 3.73,0.96 4.662,2.882c3.024,-2.317 5.907,-3.476 8.648,-3.476c2.656,0 4.846,0.763 6.57,2.289c1.724,1.526 2.586,3.462 2.586,5.807c-0,1.3 -0.311,2.727 -0.933,4.282l-4.62,11.402Z" style="fill:#fff;fill-rule:nonzero;stroke:#000;stroke-width:0.72px;stroke-linecap:butt;stroke-miterlimit:2;"/></g><g transform="matrix(1,-0.000501729,0.000501729,1,-0.111271,0.469005)"><path d="M948.879,209.591c-0,2.119 1.596,3.179 4.79,3.179l12.589,-0c3.561,-0 5.341,1.257 5.341,3.772c0,1.724 -0.629,3.066 -1.886,4.027c-1.258,0.961 -3.017,1.441 -5.278,1.441l-11.996,0c-4.464,0 -7.863,-1.102 -10.194,-3.306c-2.331,-2.204 -3.497,-5.426 -3.497,-9.664c-0,-5.454 1.844,-10.16 5.532,-14.116c3.687,-3.956 8.075,-5.934 13.161,-5.934c3.702,-0 6.677,0.968 8.923,2.903c2.247,1.936 3.37,4.486 3.37,7.651c0,3.815 -1.554,6.641 -4.663,8.478c-1.724,1.046 -4.295,1.569 -7.714,1.569l-8.478,-0Zm2.034,-7.715l4.663,-0c3.024,-0 4.493,-0.664 4.409,-1.992c-0.085,-1.498 -1.06,-2.247 -2.925,-2.247c-2.6,-0 -4.649,1.413 -6.147,4.239Z" style="fill:#fff;fill-rule:nonzero;stroke:#000;stroke-width:0.72px;stroke-linecap:butt;stroke-miterlimit:2;"/></g><g transform="matrix(0.998963,0.0455277,-0.0455277,0.998963,11.131,-44.8896)"><path d="M1031.1,190.083l8.562,-20.728c0.933,-2.289 1.865,-3.744 2.798,-4.366c0.933,-0.621 2.67,-0.932 5.214,-0.932l21.872,-0c3.9,-0 5.85,1.328 5.85,3.984c-0,1.752 -0.643,3.215 -1.929,4.388c-1.285,1.172 -2.875,1.759 -4.768,1.759l-19.202,-0l-6.444,15.895l6.401,0c3.165,0 4.748,1.371 4.748,4.112c-0,1.667 -0.65,3.087 -1.95,4.26c-1.3,1.173 -2.883,1.759 -4.748,1.759l-8.562,0l-9.411,23.145l30.393,-0c3.165,-0 4.748,1.328 4.748,3.984c-0,1.752 -0.643,3.215 -1.929,4.387c-1.286,1.173 -2.875,1.759 -4.769,1.759l-32.554,0l-0.551,1.187c-1.978,4.409 -3.526,7.503 -4.642,9.283c-1.116,1.781 -2.578,3.505 -4.387,5.172c-4.719,4.323 -10.145,6.485 -16.277,6.485c-5.002,0 -9.121,-1.483 -12.357,-4.451c-3.235,-2.967 -4.853,-6.739 -4.853,-11.317c-0,-2.854 0.692,-5.525 2.077,-8.012c1.385,-2.487 3.264,-4.422 5.638,-5.807c3.08,-1.78 7.248,-2.67 12.504,-2.67l15.006,-0l9.41,-23.145l-1.399,0c-3.165,0 -4.747,-1.384 -4.747,-4.154c-0,-1.667 0.65,-3.08 1.95,-4.239c1.3,-1.158 2.882,-1.738 4.747,-1.738l3.561,0Zm-17.634,43.406l-11.19,0c-5.539,0 -8.309,1.964 -8.309,5.892c0,1.611 0.615,2.961 1.844,4.049c1.23,1.088 2.748,1.631 4.557,1.631c2.543,0 4.981,-1.031 7.312,-3.094c2.331,-2.063 4.26,-4.889 5.786,-8.478Z" style="fill:#fff;fill-rule:nonzero;stroke:#000;stroke-width:0.71px;stroke-linecap:butt;stroke-miterlimit:2;"/></g><g transform="matrix(0.996599,0.0824084,-0.0824084,0.996599,22.1527,-86.5014)"><path d="M1092.83,215.868l4.917,-0c1.95,-0 3.335,0.289 4.154,0.869c0.82,0.579 1.23,1.533 1.23,2.861c-0,1.724 -0.629,3.073 -1.887,4.048c-1.257,0.975 -3.016,1.463 -5.277,1.463l-7.588,-0c-2.373,-0 -3.956,-0.919 -4.747,-2.756c-1.554,1.837 -3.504,2.756 -5.85,2.756l-6.189,-0c-2.486,-0 -4.549,-0.778 -6.188,-2.332c-1.639,-1.554 -2.459,-3.518 -2.459,-5.892c0,-1.356 0.367,-2.939 1.102,-4.747l5.765,-14.158c1.611,-3.928 3.815,-5.892 6.613,-5.892c1.215,-0 2.246,0.388 3.094,1.165c0.848,0.778 1.272,1.731 1.272,2.862c-0,0.847 -0.226,1.822 -0.679,2.924l-0.466,1.145l-4.451,10.894l-0.466,1.272c-0.254,0.734 -0.395,1.285 -0.424,1.653c-0.056,1.271 0.763,1.907 2.459,1.907c3.504,0 5.835,-1.413 6.994,-4.239l5.299,-13.055c1.582,-3.957 3.814,-5.935 6.697,-5.935c1.187,0 2.204,0.396 3.052,1.187c0.848,0.791 1.272,1.738 1.272,2.84c-0,0.876 -0.368,2.233 -1.103,4.069l-6.146,15.091Z" style="fill:#fff;fill-rule:nonzero;stroke:#000;stroke-width:0.71px;stroke-linecap:butt;stroke-miterlimit:2;"/></g><g transform="matrix(0.993802,0.111161,-0.111161,0.993802,32.2205,-120.921)"><path d="M1115.12,205.35l-1.441,3.561c-1.3,3.165 -2.995,4.748 -5.087,4.748c-1.271,-0 -2.331,-0.382 -3.179,-1.145c-0.848,-0.763 -1.271,-1.71 -1.271,-2.84c-0,-0.65 0.31,-1.752 0.932,-3.306l4.79,-11.827c1.159,-2.854 2.798,-4.281 4.917,-4.281c2.091,-0 3.377,0.989 3.858,2.967l0.339,1.314c0.169,0.678 0.424,1.102 0.763,1.272c0.339,0.169 1.172,0.254 2.501,0.254l9.918,0c3.702,0 5.553,1.3 5.553,3.9c0,3.589 -2.345,5.383 -7.036,5.383l-0.466,0.424c-4.494,4.296 -6.74,7.616 -6.74,9.962c-0,2.345 1.3,3.518 3.9,3.518l5.341,-0c3.588,-0 5.383,1.243 5.383,3.73c-0,1.752 -0.629,3.109 -1.886,4.069c-1.258,0.961 -3.017,1.442 -5.278,1.442l-8.308,-0c-2.826,-0 -5.136,-0.975 -6.93,-2.925c-1.795,-1.95 -2.692,-4.479 -2.692,-7.588c-0,-1.978 0.48,-3.9 1.441,-5.765c0.961,-1.865 2.656,-4.154 5.087,-6.867l-4.409,0Z" style="fill:#fff;fill-rule:nonzero;stroke:#000;stroke-width:0.71px;stroke-linecap:butt;stroke-miterlimit:2;"/></g><g transform="matrix(0.989952,0.141403,-0.141403,0.989952,44.2678,-158.284)"><path d="M1159.51,199.326c4.097,0 7.467,1.3 10.109,3.9c2.643,2.6 3.964,5.906 3.964,9.919c-0,3.024 -0.693,6.026 -2.077,9.008c-1.385,2.981 -3.18,5.362 -5.384,7.142c-1.469,1.159 -2.988,1.957 -4.557,2.395c-1.568,0.438 -3.765,0.657 -6.591,0.657c-4.606,0 -7.715,-0.551 -9.326,-1.653c-3.786,-2.6 -5.68,-6.443 -5.68,-11.53c0,-5.369 1.936,-10.018 5.808,-13.946c3.871,-3.928 8.449,-5.892 13.734,-5.892Zm-1.018,9.029c-2.091,0 -3.998,1.032 -5.722,3.095c-1.724,2.063 -2.586,4.337 -2.586,6.824c0,3.278 1.837,4.917 5.511,4.917c2.147,0 3.8,-0.664 4.959,-1.992c1.922,-2.176 2.883,-4.663 2.883,-7.46c-0,-1.611 -0.467,-2.911 -1.399,-3.9c-0.933,-0.989 -2.148,-1.484 -3.646,-1.484Z" style="fill:#fff;fill-rule:nonzero;stroke:#000;stroke-width:0.71px;stroke-linecap:butt;stroke-miterlimit:2;"/></g><g transform="matrix(0.984319,0.1764,-0.1764,0.984319,60.2279,-202.914)"><path d="M1195.01,204.273c4.098,-0 7.468,1.3 10.11,3.9c2.642,2.6 3.963,5.906 3.963,9.919c0,3.023 -0.692,6.026 -2.077,9.007c-1.384,2.982 -3.179,5.362 -5.383,7.143c-1.47,1.158 -2.989,1.957 -4.557,2.395c-1.568,0.438 -3.765,0.657 -6.591,0.657c-4.607,-0 -7.715,-0.551 -9.326,-1.653c-3.787,-2.6 -5.68,-6.443 -5.68,-11.53c0,-5.369 1.936,-10.018 5.807,-13.946c3.872,-3.928 8.45,-5.892 13.734,-5.892Zm-1.017,9.029c-2.091,-0 -3.999,1.031 -5.723,3.094c-1.723,2.063 -2.585,4.338 -2.585,6.825c-0,3.278 1.837,4.917 5.51,4.917c2.148,-0 3.801,-0.664 4.96,-1.992c1.921,-2.176 2.882,-4.663 2.882,-7.461c0,-1.611 -0.466,-2.911 -1.399,-3.9c-0.932,-0.989 -2.147,-1.483 -3.645,-1.483Z" style="fill:#fff;fill-rule:nonzero;stroke:#000;stroke-width:0.71px;stroke-linecap:butt;stroke-miterlimit:2;"/></g><g transform="matrix(0.977256,0.212062,-0.212062,0.977256,79.1116,-250.387)"><path d="M1220.03,240.317l-11.063,27.213c-1.526,3.759 -3.759,5.638 -6.698,5.638c-1.13,-0 -2.098,-0.374 -2.903,-1.123c-0.806,-0.749 -1.208,-1.646 -1.208,-2.692c-0,-0.876 0.353,-2.204 1.059,-3.985l20.432,-50.357c1.045,-2.544 2.854,-3.815 5.425,-3.815c1.781,-0 3.194,0.848 4.239,2.543c1.978,-2.091 4.395,-3.137 7.249,-3.137c2.967,0 5.362,1.124 7.185,3.37c1.822,2.247 2.734,5.207 2.734,8.881c-0,6.951 -2.162,12.617 -6.486,16.997c-1.413,1.442 -2.868,2.431 -4.366,2.968c-1.498,0.537 -3.589,0.805 -6.273,0.805c-2.883,0 -4.868,-0.198 -5.956,-0.593c-1.088,-0.396 -2.211,-1.3 -3.37,-2.713Zm3.476,-8.648c0.707,1.244 1.378,2.049 2.014,2.417c0.635,0.367 1.646,0.551 3.03,0.551c2.007,-0 3.575,-0.749 4.705,-2.247c2.289,-3.024 3.434,-6.132 3.434,-9.325c-0,-2.742 -1.3,-4.112 -3.9,-4.112c-2.854,-0 -4.903,1.653 -6.146,4.959c-0.141,0.368 -0.255,0.679 -0.339,0.933l-2.798,6.824Z" style="fill:#fff;fill-rule:nonzero;stroke:#000;stroke-width:0.71px;stroke-linecap:butt;stroke-miterlimit:2;"/></g><g transform="matrix(0.959179,0.2828,-0.2828,0.959179,121.903,-341.506)"><path d="M1276.83,242.264l4.663,0c3.561,0 5.341,1.244 5.341,3.73c-0,1.724 -0.636,3.074 -1.908,4.049c-1.271,0.974 -3.023,1.462 -5.256,1.462l-5.426,-0c-2.43,-0 -4.083,-0.947 -4.959,-2.84c-2.119,1.893 -4.168,2.84 -6.146,2.84l-4.833,-0c-3.108,-0 -5.616,-1.109 -7.524,-3.328c-1.907,-2.218 -2.861,-5.122 -2.861,-8.71c0,-5.426 1.872,-10.28 5.617,-14.561c3.744,-4.281 7.976,-6.422 12.695,-6.422c3.617,0 6.259,1.258 7.927,3.773c1.413,-2.12 3.264,-3.179 5.553,-3.179c1.243,-0 2.282,0.395 3.115,1.186c0.834,0.792 1.251,1.767 1.251,2.925c-0,0.792 -0.226,1.738 -0.679,2.84l-0.466,1.145l-6.104,15.09Zm-15.387,0.212l1.06,0c2.317,0 3.857,-0.947 4.62,-2.84l2.967,-7.333c0.396,-0.961 0.594,-1.766 0.594,-2.416c-0,-0.763 -0.375,-1.427 -1.123,-1.993c-0.749,-0.565 -1.647,-0.847 -2.692,-0.847c-2.063,-0 -4.069,1.201 -6.019,3.603c-1.95,2.402 -2.925,4.889 -2.925,7.46c-0,2.911 1.173,4.366 3.518,4.366Z" style="fill:#fff;fill-rule:nonzero;stroke:#000;stroke-width:0.7px;stroke-linecap:butt;stroke-miterlimit:2;"/></g><g transform="matrix(0.932215,0.361906,-0.361906,0.932215,182.096,-446.453)"><path d="M1300.95,242.023l-0.806,1.949c-1.243,2.798 -3.009,4.197 -5.298,4.197c-1.159,-0 -2.197,-0.403 -3.116,-1.208c-0.918,-0.805 -1.377,-1.731 -1.377,-2.777c-0,-0.989 0.409,-2.303 1.229,-3.942l5.638,-11.445c1.384,-2.741 3.108,-4.111 5.171,-4.111c1.102,-0 2.049,0.36 2.84,1.081c0.791,0.72 1.187,1.575 1.187,2.564c-0,0.254 -0.085,0.805 -0.254,1.653c-0.114,0.622 -0.17,1.173 -0.17,1.653c-0,1.781 0.664,3.603 1.992,5.469l2.416,3.348c2.459,3.42 3.688,6.726 3.688,9.919c0,3.561 -1.328,6.535 -3.984,8.923c-2.657,2.388 -5.963,3.582 -9.919,3.582l-8.86,-0c-3.588,-0 -5.383,-1.244 -5.383,-3.73c0,-1.724 0.636,-3.074 1.908,-4.048c1.271,-0.975 3.023,-1.463 5.256,-1.463l4.917,0c3.928,0 5.892,-1.427 5.892,-4.281c-0,-1.046 -0.367,-2.275 -1.102,-3.688l-1.865,-3.645Z" style="fill:#fff;fill-rule:nonzero;stroke:#000;stroke-width:0.7px;stroke-linecap:butt;stroke-miterlimit:2;"/></g></g></g></g><defs><radialGradient id="_Radial2" cx="0" cy="0" r="1" gradientUnits="userSpaceOnUse" gradientTransform="matrix(1257.04,-4.88866,0.462704,788.798,720,286.697)"><stop offset="0" style="stop-color:#1a6eab;stop-opacity:0.36"/><stop offset="0.16" style="stop-color:#83b0d1;stop-opacity:0.2"/><stop offset="0.36" style="stop-color:#dde9f2;stop-opacity:0.05"/><stop offset="1" style="stop-color:#fff;stop-opacity:0"/></radialGradient></defs></svg>